<?xml version="1.0" encoding="UTF-8" standalone="no"?>
<!DOCTYPE svg PUBLIC "-//W3C//DTD SVG 1.1//EN"
"http://www.w3.org/Graphics/SVG/1.1/DTD/svg11.dtd">
<svg viewBox="0 0 909 1286" version="1.1" xmlns="http://www.w3.org/2000/svg" xmlns:xlink="http://www.w3.org/1999/xlink">
<defs>
<clipPath id="c0_14"><path d="M394.1,614.2V383.3H882V614.2Z"/></clipPath>
<style type="text/css"><![CDATA[
.g0_14{
fill: none;
stroke: #000000;
stroke-width: 0.916;
stroke-linecap: butt;
stroke-linejoin: miter;
stroke-miterlimit: 4;
}
.g1_14{
fill: none;
stroke: #FFFFFF;
stroke-width: 1.298;
stroke-linecap: butt;
stroke-linejoin: miter;
}
.g2_14{
fill: none;
stroke: #000000;
stroke-width: 0.259;
stroke-linecap: butt;
stroke-linejoin: miter;
}
.g3_14{
fill: none;
stroke: #FFFFFF;
stroke-width: 1.527;
stroke-linecap: butt;
stroke-linejoin: miter;
stroke-miterlimit: 4;
}
.g4_14{
fill: none;
stroke: #FFFFFF;
stroke-width: 0.916;
stroke-linecap: butt;
stroke-linejoin: miter;
stroke-miterlimit: 4;
}
]]></style>
</defs>
<image preserveAspectRatio="none" x="-21" y="-21" width="932" height="1329" xlink:href="../1/img/1.webp"/>
<image preserveAspectRatio="none" x="-1" y="1009" width="910" height="279" xlink:href="img/2.webp"/>
<image preserveAspectRatio="none" x="56" y="88" width="107" height="104" xlink:href="img/3.webp"/>
<image preserveAspectRatio="none" x="-1" y="270" width="883" height="69" xlink:href="img/4.webp"/>
<path d="M56.3,75H853.1" class="g0_14"/>
<image preserveAspectRatio="none" x="-611" y="-315" width="2061" height="1765" xlink:href="img/5.webp"/>
<image preserveAspectRatio="none" x="628" y="516" width="17" height="17" xlink:href="img/6.webp"/>
<g clip-path="url(#c0_14)">
<path d="M-617.7,-316.3h-15.6m2089.2,0h15.6M-617.7,1450.5h-15.6m2089.2,0h15.6m-2083,-1773v-15.6m0,1794.8v15.6M1449.7,-322.5v-15.6m0,1794.8v15.6" class="g1_14"/>
<path d="M-617.7,-316.3h-15.6m2089.2,0h15.6M-617.7,1450.5h-15.6m2089.2,0h15.6m-2083,-1773v-15.6m0,1794.8v15.6M1449.7,-322.5v-15.6m0,1794.8v15.6" class="g2_14"/>
</g>
<image preserveAspectRatio="none" x="657" y="443" width="72" height="116" xlink:href="img/7.webp"/>
<image preserveAspectRatio="none" x="649" y="435" width="88" height="119" xlink:href="img/8.webp"/>
<image preserveAspectRatio="none" x="717" y="493" width="73" height="90" xlink:href="img/9.webp"/>
<image preserveAspectRatio="none" x="710" y="489" width="74" height="87" xlink:href="img/10.webp"/>
<image preserveAspectRatio="none" x="15" y="357" width="883" height="773" xlink:href="img/11.webp"/>
<image preserveAspectRatio="none" x="18" y="357" width="873" height="764" xlink:href="img/12.webp"/>
<image preserveAspectRatio="none" x="566" y="756" width="157" height="86" xlink:href="img/13.webp"/>
<image preserveAspectRatio="none" x="535" y="747" width="106" height="105" xlink:href="img/14.webp"/>
<image preserveAspectRatio="none" x="758" y="764" width="85" height="87" xlink:href="img/15.webp"/>
<image preserveAspectRatio="none" x="760" y="764" width="76" height="79" xlink:href="img/16.webp"/>
<image preserveAspectRatio="none" x="542" y="761" width="46" height="44" xlink:href="img/17.webp"/>
<image preserveAspectRatio="none" x="539" y="753" width="51" height="53" xlink:href="img/18.webp"/>
<image preserveAspectRatio="none" x="566" y="624" width="157" height="86" xlink:href="img/19.webp"/>
<image preserveAspectRatio="none" x="535" y="614" width="122" height="119" xlink:href="img/20.webp"/>
<image preserveAspectRatio="none" x="614" y="689" width="41" height="41" xlink:href="img/21.webp"/>
<path d="M556.9,706.7l-.4,.1c-1.3,1,-3.2,1.5,-5.8,1.5c-1.1,0,-1.7,-.1,-2,-.2l-.2,-.5c.1,-.2,.1,-.4,.1,-.8c0,-.3,-.2,-.5,-.5,-.5c-.2,0,-.4,.2,-.5,.4c-.2,.3,-.4,.4,-.6,.4c-.2,0,-.4,-.1,-.5,-.4c-.7,-2.1,-1,-3.5,-1,-4.2c0,-.4,.1,-.7,.2,-.9l.4,-.3c.2,.1,.4,.2,.5,.3l.4,.3l.4,-.3l.3,-.3l.4,-.2l.5,.1v.1c.2,1,.4,2,.6,3.1c.4,1.7,.7,2.6,1.1,2.6h.8c.7,0,1.2,0,1.4,-.1c.5,0,.8,-2,.8,-5.9c0,-.3,0,-.8,-.1,-1.4c-.1,-.6,-.2,-1,-.2,-1.3c0,-.1,0,-.2,.1,-.4v-.3l-.3,-.2c-.1,-.1,-.2,-.2,-.4,-.2c-.2,-.1,-.3,-.2,-.4,-.2l-.5,-.1c-1,.3,-1.8,.4,-2.5,.4l-.5,-.2l-.1,-.4l.2,-.4l.4,-.2c1.6,0,3.1,-.5,4.4,-1.3c.2,-.2,.3,-.9,.4,-2.1v-2.4c.1,-3.2,-.2,-4.9,-.9,-4.9c-.8,0,-1.7,.1,-2.7,.4l-.4,.4c-.3,1.1,-.4,2.2,-.4,3.4c0,1.4,-.2,2.1,-.8,2.1c-.3,0,-.5,-.3,-.6,-.9c-.2,-.7,-.4,-1,-.7,-1c-.3,0,-.5,.3,-.6,.8c0,.4,-.1,.8,-.1,1.2l-.2,.3l-.5,.1c-.4,-.1,-.7,-1.1,-.7,-3.1c0,-.3,.1,-.9,.1,-1.5V686l.1,-.4l.4,-.1c.6,0,1,-.1,1.1,-.6c.1,-.5,.3,-.7,.6,-.7c.2,0,.4,.1,.6,.4c.1,.2,.3,.4,.5,.4c.2,0,.3,-.1,.5,-.3c.1,-.1,.3,-.2,.5,-.2c-.1,0,.1,0,.5,0c1.1,-.2,2.2,-.3,3.5,-.3c1.2,0,2.9,.1,5,.3c.4,.1,.6,.3,.6,.7c0,.2,-.2,.4,-.6,.5c-.3,.1,-.5,.2,-.5,.5v8.7c0,.4,-.2,.6,-.6,.6c-.3,0,-.5,-.2,-.6,-.5l-.3,-.3h-.4c-1.5,.7,-2.2,1.2,-2.2,1.5c0,.1,.5,.5,1.5,1c1.1,.7,1.8,1,1.9,1.2c.6,.5,1,2.1,1,4.7c0,.5,0,1.7,-.1,3.6l-.1,.4l-.5,.2c-.2,-.1,-.4,-.2,-.5,-.3l-.3,-.3Z" class="g3_14"/>
<image preserveAspectRatio="none" x="542" y="628" width="46" height="44" xlink:href="img/22.webp"/>
<image preserveAspectRatio="none" x="539" y="621" width="51" height="52" xlink:href="img/23.webp"/>
<image preserveAspectRatio="none" x="591" y="646" width="48" height="44" xlink:href="img/24.webp"/>
<image preserveAspectRatio="none" x="587" y="637" width="51" height="53" xlink:href="img/25.webp"/>
<image preserveAspectRatio="none" x="566" y="881" width="157" height="85" xlink:href="img/26.webp"/>
<image preserveAspectRatio="none" x="535" y="871" width="106" height="105" xlink:href="img/27.webp"/>
<image preserveAspectRatio="none" x="758" y="887" width="85" height="88" xlink:href="img/28.webp"/>
<image preserveAspectRatio="none" x="760" y="888" width="76" height="79" xlink:href="img/29.webp"/>
<image preserveAspectRatio="none" x="542" y="884" width="46" height="45" xlink:href="img/30.webp"/>
<image preserveAspectRatio="none" x="539" y="877" width="51" height="53" xlink:href="img/31.webp"/>
<image preserveAspectRatio="none" x="581" y="929" width="48" height="46" xlink:href="img/32.webp"/>
<image preserveAspectRatio="none" x="581" y="928" width="43" height="40" xlink:href="img/33.webp"/>
<image preserveAspectRatio="none" x="741" y="1010" width="122" height="73" xlink:href="img/34.webp"/>
<image preserveAspectRatio="none" x="739" y="1006" width="115" height="67" xlink:href="img/35.webp"/>
<image preserveAspectRatio="none" x="578" y="984" width="85" height="87" xlink:href="img/36.webp"/>
<image preserveAspectRatio="none" x="580" y="984" width="76" height="80" xlink:href="img/37.webp"/>
<image preserveAspectRatio="none" x="535" y="1022" width="85" height="87" xlink:href="img/38.webp"/>
<image preserveAspectRatio="none" x="537" y="1022" width="76" height="78" xlink:href="img/39.webp"/>
<image preserveAspectRatio="none" x="776" y="620" width="84" height="87" xlink:href="img/40.webp"/>
<image preserveAspectRatio="none" x="778" y="620" width="75" height="80" xlink:href="img/41.webp"/>
<image preserveAspectRatio="none" x="724" y="652" width="86" height="87" xlink:href="img/42.webp"/>
<image preserveAspectRatio="none" x="727" y="653" width="75" height="78" xlink:href="img/43.webp"/>
<image preserveAspectRatio="none" x="466" y="186" width="377" height="70" xlink:href="img/44.webp"/>
<image preserveAspectRatio="none" x="455" y="145" width="412" height="137" xlink:href="img/45.webp"/>
<path d="M56.3,307.5H853.1" class="g4_14"/>
</svg>