<?xml version="1.0" encoding="UTF-8" standalone="no"?>
<!DOCTYPE svg PUBLIC "-//W3C//DTD SVG 1.1//EN"
"http://www.w3.org/Graphics/SVG/1.1/DTD/svg11.dtd">
<svg viewBox="0 0 908 1285" version="1.1" xmlns="http://www.w3.org/2000/svg" xmlns:xlink="http://www.w3.org/1999/xlink">
<defs>
<clipPath id="c0_17"><path d="M-32.3,292.2v-324H292.4v324Z"/></clipPath>
<clipPath id="c1_17"><path d="M291.7,292.2v-324H616.9v324Z"/></clipPath>
<clipPath id="c2_17"><path d="M616.2,292.2v-324H941.1v324Z"/></clipPath>
<clipPath id="c3_17"><path d="M-32.3,615.9V291.5H292.4V615.9Z"/></clipPath>
<clipPath id="c4_17"><path d="M616.2,615.9V291.5H941.1V615.9Z"/></clipPath>
<clipPath id="c5_17"><path d="M-32.3,940V615.2H292.4V940Z"/></clipPath>
<clipPath id="c6_17"><path d="M616.2,940V615.2H941.1V940Z"/></clipPath>
<clipPath id="c7_17"><path d="M-32.3,1264.1V939.3H292.4v324.8Z"/></clipPath>
<clipPath id="c8_17"><path d="M616.2,1264.1V939.3H941.1v324.8Z"/></clipPath>
<clipPath id="c9_17"><path d="M-32.3,1317.3v-53.9H941.1v53.9Z"/></clipPath>
</defs>
<image clip-path="url(#c0_17)" preserveAspectRatio="none" x="-32" y="-32" width="324" height="324" xlink:href="img/1.webp"/>
<image clip-path="url(#c1_17)" preserveAspectRatio="none" x="292" y="-32" width="325" height="324" xlink:href="img/2.webp"/>
<image clip-path="url(#c2_17)" preserveAspectRatio="none" x="616" y="-32" width="326" height="324" xlink:href="img/3.webp"/>
<image clip-path="url(#c3_17)" preserveAspectRatio="none" x="-32" y="291" width="324" height="325" xlink:href="img/4.webp"/>
<image preserveAspectRatio="none" x="292" y="291" width="325" height="325" xlink:href="img/5.webp"/>
<image clip-path="url(#c4_17)" preserveAspectRatio="none" x="616" y="291" width="326" height="325" xlink:href="img/6.webp"/>
<image clip-path="url(#c5_17)" preserveAspectRatio="none" x="-32" y="615" width="324" height="325" xlink:href="img/7.webp"/>
<image preserveAspectRatio="none" x="292" y="615" width="325" height="325" xlink:href="img/8.webp"/>
<image clip-path="url(#c6_17)" preserveAspectRatio="none" x="616" y="615" width="326" height="325" xlink:href="img/9.webp"/>
<image clip-path="url(#c7_17)" preserveAspectRatio="none" x="-32" y="939" width="324" height="325" xlink:href="img/10.webp"/>
<image preserveAspectRatio="none" x="292" y="939" width="325" height="325" xlink:href="img/11.webp"/>
<image clip-path="url(#c8_17)" preserveAspectRatio="none" x="616" y="939" width="326" height="325" xlink:href="img/12.webp"/>
<image clip-path="url(#c9_17)" preserveAspectRatio="none" x="-32" y="1263" width="974" height="55" xlink:href="img/13.webp"/>
</svg>