<?xml version="1.0" encoding="UTF-8" standalone="no"?>
<!DOCTYPE svg PUBLIC "-//W3C//DTD SVG 1.1//EN"
"http://www.w3.org/Graphics/SVG/1.1/DTD/svg11.dtd">
<svg viewBox="0 0 912 1290" version="1.1" xmlns="http://www.w3.org/2000/svg" xmlns:xlink="http://www.w3.org/1999/xlink">
<defs>
</defs>
<image preserveAspectRatio="none" x="-30" y="-30" width="973" height="1348" xlink:href="img/1.jpg"/>
<image preserveAspectRatio="none" x="-30" y="-30" width="973" height="1348" xlink:href="img/2.png"/>
<image preserveAspectRatio="none" x="23" y="46" width="82" height="78" xlink:href="img/3.jpg"/>
<image preserveAspectRatio="none" x="404" y="64" width="41" height="61" xlink:href="img/4.jpg"/>
<image preserveAspectRatio="none" x="60" y="141" width="346" height="36" xlink:href="img/5.jpg"/>
<image preserveAspectRatio="none" x="217" y="226" width="32" height="33" xlink:href="img/6.jpg"/>
<image preserveAspectRatio="none" x="217" y="303" width="32" height="33" xlink:href="img/7.jpg"/>
<image preserveAspectRatio="none" x="126" y="380" width="32" height="32" xlink:href="img/8.jpg"/>
<image preserveAspectRatio="none" x="307" y="380" width="33" height="33" xlink:href="img/9.jpg"/>
<image preserveAspectRatio="none" x="210" y="384" width="46" height="46" xlink:href="img/10.jpg"/>
<image preserveAspectRatio="none" x="404" y="431" width="30" height="506" xlink:href="img/11.jpg"/>
<image preserveAspectRatio="none" x="126" y="456" width="33" height="33" xlink:href="img/12.jpg"/>
<image preserveAspectRatio="none" x="217" y="533" width="32" height="33" xlink:href="img/13.jpg"/>
<image preserveAspectRatio="none" x="217" y="609" width="32" height="33" xlink:href="img/14.jpg"/>
<image preserveAspectRatio="none" x="217" y="661" width="32" height="33" xlink:href="img/15.jpg"/>
<image preserveAspectRatio="none" x="217" y="717" width="32" height="33" xlink:href="img/16.jpg"/>
<image preserveAspectRatio="none" x="217" y="801" width="32" height="33" xlink:href="img/17.jpg"/>
<image preserveAspectRatio="none" x="217" y="878" width="32" height="33" xlink:href="img/18.jpg"/>
<image preserveAspectRatio="none" x="382" y="1204" width="108" height="43" xlink:href="img/19.jpg"/>
</svg>