<?xml version="1.0" encoding="UTF-8" standalone="no"?>
<!DOCTYPE svg PUBLIC "-//W3C//DTD SVG 1.1//EN"
"http://www.w3.org/Graphics/SVG/1.1/DTD/svg11.dtd">
<svg viewBox="0 0 908 1285" version="1.1" xmlns="http://www.w3.org/2000/svg" xmlns:xlink="http://www.w3.org/1999/xlink">
<defs>
<clipPath id="c0_6"><path d="M-33.1,291.2V-33.2H292.1V291.2Z"/></clipPath>
<clipPath id="c1_6"><path d="M291.3,291.2V-33.2h326V291.2Z"/></clipPath>
<clipPath id="c2_6"><path d="M616.6,291.2V-33.2H941.9V291.2Z"/></clipPath>
<clipPath id="c3_6"><path d="M-33.1,616.1V290.5H292.1V616.1Z"/></clipPath>
<clipPath id="c4_6"><path d="M291.3,616.1V290.5h326V616.1Z"/></clipPath>
<clipPath id="c5_6"><path d="M616.6,616.1V290.5H941.9V616.1Z"/></clipPath>
<clipPath id="c6_6"><path d="M-33.1,940.7V615.4H292.1V940.7Z"/></clipPath>
<clipPath id="c7_6"><path d="M291.3,940.7V615.4h326V940.7Z"/></clipPath>
<clipPath id="c8_6"><path d="M616.6,940.7V615.4H941.9V940.7Z"/></clipPath>
<clipPath id="c9_6"><path d="M-33.1,1265.2V939.9H292.1v325.3Z"/></clipPath>
<clipPath id="ca_6"><path d="M291.3,1265.2V939.9h326v325.3Z"/></clipPath>
<clipPath id="cb_6"><path d="M616.6,1265.2V939.9H941.9v325.3Z"/></clipPath>
<clipPath id="cc_6"><path d="M-33.1,1318.7v-54.2h975v54.2Z"/></clipPath>
</defs>
<image clip-path="url(#c0_6)" preserveAspectRatio="none" x="-33" y="-33" width="325" height="324" xlink:href="img/1.jpg"/>
<image clip-path="url(#c1_6)" preserveAspectRatio="none" x="291" y="-33" width="326" height="324" xlink:href="img/2.jpg"/>
<image clip-path="url(#c2_6)" preserveAspectRatio="none" x="617" y="-33" width="326" height="324" xlink:href="img/3.jpg"/>
<image clip-path="url(#c3_6)" preserveAspectRatio="none" x="-33" y="290" width="325" height="326" xlink:href="img/4.jpg"/>
<image clip-path="url(#c4_6)" preserveAspectRatio="none" x="291" y="290" width="326" height="326" xlink:href="img/5.jpg"/>
<image clip-path="url(#c5_6)" preserveAspectRatio="none" x="617" y="290" width="326" height="326" xlink:href="img/6.jpg"/>
<image clip-path="url(#c6_6)" preserveAspectRatio="none" x="-33" y="615" width="325" height="326" xlink:href="img/7.jpg"/>
<image clip-path="url(#c7_6)" preserveAspectRatio="none" x="291" y="615" width="326" height="326" xlink:href="img/8.jpg"/>
<image clip-path="url(#c8_6)" preserveAspectRatio="none" x="617" y="615" width="326" height="326" xlink:href="img/9.jpg"/>
<image clip-path="url(#c9_6)" preserveAspectRatio="none" x="-33" y="940" width="325" height="325" xlink:href="img/10.jpg"/>
<image clip-path="url(#ca_6)" preserveAspectRatio="none" x="291" y="940" width="326" height="325" xlink:href="img/11.jpg"/>
<image clip-path="url(#cb_6)" preserveAspectRatio="none" x="617" y="940" width="326" height="325" xlink:href="img/12.jpg"/>
<image clip-path="url(#cc_6)" preserveAspectRatio="none" x="-33" y="1264" width="976" height="55" xlink:href="img/13.jpg"/>
</svg>