<?xml version="1.0" encoding="UTF-8" standalone="no"?>
<!DOCTYPE svg PUBLIC "-//W3C//DTD SVG 1.1//EN"
"http://www.w3.org/Graphics/SVG/1.1/DTD/svg11.dtd">
<svg viewBox="0 0 908 1285" version="1.1" xmlns="http://www.w3.org/2000/svg" xmlns:xlink="http://www.w3.org/1999/xlink">
<defs>
<clipPath id="c0_12"><path d="M-33.2,237.1V-33.2H237.7V237.1Z"/></clipPath>
<clipPath id="c1_12"><path d="M237.1,237.1V-33.2H508.7V237.1Z"/></clipPath>
<clipPath id="c2_12"><path d="M508.1,237.1V-33.2h272V237.1Z"/></clipPath>
<clipPath id="c3_12"><path d="M779.4,399.6V-33.2H942V399.6Z"/></clipPath>
<clipPath id="c4_12"><path d="M-33.2,507.8V236.5H237.7V507.8Z"/></clipPath>
<clipPath id="c5_12"><path d="M779.4,832.3V399H942V832.3Z"/></clipPath>
<clipPath id="c6_12"><path d="M-33.2,778.2v-271H237.7v271Z"/></clipPath>
<clipPath id="c7_12"><path d="M-33.2,1048.9V777.6H237.7v271.3Z"/></clipPath>
<clipPath id="c8_12"><path d="M779.4,1265.3V831.7H942v433.6Z"/></clipPath>
<clipPath id="c9_12"><path d="M-33.2,1318.8V1048.3H237.7v270.5Z"/></clipPath>
<clipPath id="ca_12"><path d="M237.1,1318.8V1048.3H508.7v270.5Z"/></clipPath>
<clipPath id="cb_12"><path d="M508.1,1318.8V1048.3h272v270.5Z"/></clipPath>
<clipPath id="cc_12"><path d="M779.4,1318.8v-54.1H942v54.1Z"/></clipPath>
</defs>
<image clip-path="url(#c0_12)" preserveAspectRatio="none" x="-33" y="-33" width="271" height="270" xlink:href="img/1.jpg"/>
<image clip-path="url(#c1_12)" preserveAspectRatio="none" x="237" y="-33" width="272" height="270" xlink:href="img/2.jpg"/>
<image clip-path="url(#c2_12)" preserveAspectRatio="none" x="508" y="-33" width="272" height="270" xlink:href="img/3.jpg"/>
<image clip-path="url(#c3_12)" preserveAspectRatio="none" x="779" y="-33" width="164" height="433" xlink:href="img/4.jpg"/>
<image clip-path="url(#c4_12)" preserveAspectRatio="none" x="-33" y="236" width="271" height="272" xlink:href="img/5.jpg"/>
<image preserveAspectRatio="none" x="237" y="236" width="272" height="272" xlink:href="img/6.jpg"/>
<image preserveAspectRatio="none" x="508" y="236" width="272" height="272" xlink:href="img/7.jpg"/>
<image clip-path="url(#c5_12)" preserveAspectRatio="none" x="779" y="399" width="164" height="433" xlink:href="img/8.jpg"/>
<image clip-path="url(#c6_12)" preserveAspectRatio="none" x="-33" y="507" width="271" height="271" xlink:href="img/9.jpg"/>
<image preserveAspectRatio="none" x="237" y="507" width="272" height="271" xlink:href="img/10.jpg"/>
<image preserveAspectRatio="none" x="508" y="507" width="272" height="271" xlink:href="img/11.jpg"/>
<image clip-path="url(#c7_12)" preserveAspectRatio="none" x="-33" y="778" width="271" height="271" xlink:href="img/12.jpg"/>
<image preserveAspectRatio="none" x="237" y="778" width="272" height="271" xlink:href="img/13.jpg"/>
<image preserveAspectRatio="none" x="508" y="778" width="272" height="271" xlink:href="img/14.jpg"/>
<image clip-path="url(#c8_12)" preserveAspectRatio="none" x="779" y="832" width="164" height="433" xlink:href="img/15.jpg"/>
<image clip-path="url(#c9_12)" preserveAspectRatio="none" x="-33" y="1048" width="271" height="271" xlink:href="img/16.jpg"/>
<image clip-path="url(#ca_12)" preserveAspectRatio="none" x="237" y="1048" width="272" height="271" xlink:href="img/17.jpg"/>
<image clip-path="url(#cb_12)" preserveAspectRatio="none" x="508" y="1048" width="272" height="271" xlink:href="img/18.jpg"/>
<image clip-path="url(#cc_12)" preserveAspectRatio="none" x="779" y="1265" width="164" height="54" xlink:href="img/19.jpg"/>
</svg>