<?xml version="1.0" encoding="UTF-8" standalone="no"?>
<!DOCTYPE svg PUBLIC "-//W3C//DTD SVG 1.1//EN"
"http://www.w3.org/Graphics/SVG/1.1/DTD/svg11.dtd">
<svg viewBox="0 0 909 1286" version="1.1" xmlns="http://www.w3.org/2000/svg" xmlns:xlink="http://www.w3.org/1999/xlink">
<defs>
<clipPath id="c0_19"><path d="M38,1004.7V653.9H877.1v350.8Z"/></clipPath>
<style type="text/css"><![CDATA[
.g0_19{
fill: none;
stroke: #FFFFFF;
stroke-width: 1.527;
stroke-linecap: butt;
stroke-linejoin: miter;
stroke-miterlimit: 4;
}
.g1_19{
fill: none;
stroke: #FFFFFF;
stroke-width: 1.833;
stroke-linecap: butt;
stroke-linejoin: miter;
stroke-miterlimit: 4;
}
.g2_19{
fill: none;
stroke: #FFFFFF;
stroke-width: 1.767;
stroke-linecap: butt;
stroke-linejoin: miter;
}
.g3_19{
fill: none;
stroke: #000000;
stroke-width: 0.352;
stroke-linecap: butt;
stroke-linejoin: miter;
}
.g4_19{
fill: none;
stroke: #CD071E;
stroke-width: 4.583;
stroke-linecap: butt;
stroke-linejoin: miter;
stroke-miterlimit: 4;
}
.g5_19{
fill: none;
stroke: #FFFFFF;
stroke-width: 0.916;
stroke-linecap: butt;
stroke-linejoin: miter;
stroke-miterlimit: 4;
}
]]></style>
</defs>
<image preserveAspectRatio="none" x="-1" y="-21" width="932" height="1329" xlink:href="../1/img/1.png"/>
<image preserveAspectRatio="none" x="-1" y="797" width="3" height="491" xlink:href="img/2.png"/>
<image preserveAspectRatio="none" x="102" y="29" width="706" height="53" xlink:href="img/3.png"/>
<image preserveAspectRatio="none" x="56" y="344" width="57" height="55" xlink:href="img/4.png"/>
<image preserveAspectRatio="none" x="97" y="382" width="28" height="34" xlink:href="img/5.png"/>
<path d="M114.3,408.4c0,-6.2,-.4,-9.2,-1.3,-9.2c-.6,0,-1.4,.1,-2.5,.4c-1.3,.4,-1.9,.8,-1.9,1.2c0,2,.3,4,.9,6.1c.1,.1,.3,.5,.7,1.3c.4,.6,.6,1.1,.6,1.4l.2,.4l.4,.1c1,-.2,1.9,-.5,2.7,-1l.2,-.5v-.2Zm1.3,1.2c.1,0,-.6,.3,-2,.9c-1.5,.6,-2.9,.9,-4,.9c-1.9,0,-2.9,-.3,-2.9,-1c0,0,0,-.1,0,-.2c.1,-.2,.1,-.3,.1,-.4c-1.4,-5.2,-2.2,-10.4,-2.2,-15.7c0,-3.7,.2,-5.8,.5,-6.3c.5,0,.8,.1,1,.2h.5l.3,-.4l.3,-.5c.5,.1,.8,.2,1,.5l.5,.1l.2,-.1l.3,-.3c0,-.2,.2,-.2,.5,-.2c.2,0,.3,0,.4,.1h.4c2.3,-.5,3.6,-.7,3.9,-.8l.5,.1c.7,1.1,1.2,2.1,1.5,2.9c.2,.6,.5,1.6,.8,3.1v.4l-.5,.2h-.1c-.1,0,-.2,0,-.4,-.1l-.3,-.2l-.4,.2l-.4,.1c-.4,-.1,-.6,-.1,-.6,-.1c-.3,0,-.5,.2,-.5,.7l-.1,.4l-.5,.1c-.3,0,-.5,-.2,-.5,-.5c0,-.3,-.2,-1.2,-.6,-2.6c-.4,-1.4,-.8,-2.3,-1,-2.6l-.4,-.1l-.6,.1l-.4,.3c-1,2.9,-1.5,5.9,-1.5,9.2l.1,.3l.2,.4l.5,.1c1.9,-.8,4.8,-1.2,8.6,-1.2c.4,0,.6,.2,.6,.5c0,.4,.1,.6,.3,.8c.1,.2,.2,.3,.2,.5c0,3.7,-.6,7.1,-2,10.2l-.3,.3h-.4c-.1,-.1,-.3,-.2,-.6,-.3Z" class="g0_19"/>
<image preserveAspectRatio="none" x="470" y="108" width="56" height="55" xlink:href="img/6.png"/>
<image preserveAspectRatio="none" x="519" y="133" width="85" height="52" xlink:href="img/7.png"/>
<path d="M557.3,152.9c0,-4.1,-.3,-6.2,-.9,-6.2c-.3,0,-.9,.1,-1.6,.3c-.9,.3,-1.3,.5,-1.3,.8c0,1.4,.2,2.7,.7,4.1c0,0,.1,.3,.4,.9c.3,.4,.4,.7,.4,.9l.1,.2l.3,.1c.6,-.1,1.2,-.3,1.8,-.6l.1,-.3v-.2Zm.9,.8c0,0,-.4,.2,-1.3,.6c-1.1,.4,-2,.6,-2.7,.6c-1.3,0,-2,-.2,-2,-.6q0,-.1,.1,-.2c0,-.1,0,-.2,0,-.2c-.9,-3.5,-1.4,-7,-1.4,-10.6c0,-2.4,.1,-3.8,.3,-4.1c.3,0,.5,0,.7,.1h.3l.2,-.2l.2,-.4c.3,0,.5,.2,.7,.3l.3,.1h.1l.2,-.2c0,-.2,.2,-.2,.4,-.2c.1,0,.2,0,.2,.1h.3c1.5,-.3,2.4,-.5,2.6,-.6l.3,.1c.5,.7,.8,1.4,1,1.9c.2,.4,.4,1.1,.6,2.1l-.1,.3l-.2,.1h-.2c0,0,-.1,0,-.2,-.1l-.2,-.1l-.2,.1l-.3,.1c-.3,-.1,-.5,-.1,-.4,-.1c-.3,0,-.4,.2,-.4,.5l-.1,.2l-.3,.2c-.2,-.1,-.3,-.2,-.3,-.4c0,-.2,-.2,-.8,-.4,-1.7c-.3,-1,-.5,-1.6,-.7,-1.8h-.7l-.2,.3c-.7,1.9,-1,3.9,-1,6.1l.1,.2l.1,.3h.3c1.3,-.5,3.2,-.8,5.8,-.8c.2,0,.4,.1,.4,.3c0,.3,0,.5,.1,.6c.2,.1,.2,.2,.2,.3c0,2.5,-.4,4.7,-1.3,6.8l-.2,.2h-.3c-.1,-.1,-.2,-.2,-.4,-.2Z" class="g0_19"/>
<path d="M590.4,153.4c-.2,.6,-.4,.9,-.6,.9c-.1,0,-.2,-.1,-.3,-.3l-.3,-.2l-.2,.1c-.1,0,-.2,.2,-.4,.5c-.1,.2,-.3,.3,-.5,.3l-.1,-.1h-.2c-.7,.4,-1.2,.6,-1.4,.6l-.3,-.1l-.3,-.1c-.3,-.4,-.4,-.5,-.5,-.5c-.2,0,-.4,.1,-.4,.3l-.2,.3l-.3,.1c-.1,-.1,-.2,-.2,-.3,-.3c-.1,0,-.2,-.5,-.5,-1.5c-.2,-.8,-.3,-1.4,-.3,-1.6v-.1l.1,-.3l.3,-.1c.1,0,.2,0,.3,.1c.1,.1,.2,.2,.3,.2c.1,0,.2,-.1,.4,-.2c.1,-.1,.2,-.1,.3,-.1c.2,0,.5,.4,.7,1.2c.3,1,.4,1.6,.5,1.7l.3,.1c.1,0,.5,-.2,1.4,-.6l.1,-.3c.7,-3.1,1.1,-5.2,1.1,-6.2c.1,-.3,-.1,-.4,-.3,-.4q-.1,0,-.2,.1c-1.1,.4,-2.2,.6,-3.4,.6c-.5,0,-1,-.1,-1.5,-.2c-.5,-.1,-.8,-1.1,-.8,-2.9c0,-.7,.1,-1.7,.3,-3c.3,-1.6,.6,-2.5,.9,-2.8h.3c.2,0,.3,.2,.3,.3c0,.4,.1,.5,.3,.5c.1,0,.5,-.1,1.1,-.2c.6,-.2,1.1,-.3,1.4,-.3c.5,0,.9,0,1.2,.1c.1,0,.2,-.1,.3,-.1c.1,-.1,.2,-.1,.3,-.1c.2,0,.3,.1,.4,.3l.2,.2c.7,.2,1.1,.4,1.3,.6l.4,.3h.2l.2,.1l.2,.3v.3c0,4.5,-.6,8.6,-1.8,12.5ZM588,146.2c.7,-.2,1.1,-.6,1.2,-.9c.1,-.1,.1,-.6,.1,-1.5c0,-2.5,-.2,-3.9,-.5,-4c-.2,-.1,-.6,-.1,-1.2,-.1c-.5,0,-.9,0,-1.2,.1c-.3,.1,-.6,1.4,-.6,3.7c-.1,2.1,.1,3.1,.6,3.1c.5,0,1,-.1,1.6,-.4Z" class="g1_19"/>
<image preserveAspectRatio="none" x="524" y="139" width="12" height="16" xlink:href="img/8.png"/>
<image preserveAspectRatio="none" x="56" y="241" width="29" height="42" xlink:href="img/9.png"/>
<path d="M66.5,279l-.2,.4l-.5,.1l-.3,-.3l-.2,-.4c0,-.1,.1,-.2,.1,-.4V278l-.2,-.5l-.5,-.1c-.2,.1,-.3,.3,-.4,.7c-.1,.3,-.3,.5,-.6,.5c-.4,0,-.6,-.2,-.6,-.6c0,-.4,-.1,-1,-.3,-1.8c-.2,-.8,-.4,-1.3,-.4,-1.7v-2.9c0,-.4,0,-2.5,.1,-6.3c.1,-2.6,0,-4.7,0,-6.4l-.3,-.4h-.5c-1,.6,-1.8,1,-2.4,1.3l-.4,-.1l-.2,-.5c0,-.5,1,-1.1,2.8,-1.9c1.7,-.6,2.9,-1,3.6,-1c.2,0,.3,.1,.3,.2l.4,.3l.9,-.3c.4,0,.6,.2,.6,.5c0,5.5,-.3,12.9,-.8,22Zm11.5,.6c-2.6,.2,-4.3,.3,-5,.3c-.4,.1,-.7,-.3,-.9,-1v-.1l-.3,-.3c-.8,-.4,-1.4,-.5,-1.6,-.6l-.3,-.3c0,-.2,-.1,-.4,-.1,-.6c0,-1,.1,-1.6,.4,-1.8c.6,-.7,1.1,-1.1,1.4,-1.5c2.9,-2.4,5.1,-4.3,6.5,-5.5l.2,-.4c0,-1.9,-.1,-3.7,-.4,-5.6c-.3,-3,-.8,-4.5,-1.5,-4.5c-1.2,0,-1.9,.3,-2.2,.9c-.1,.2,-.1,1,-.1,2.4c0,2.5,0,3.9,.1,4.5l-.1,.4l-.4,.3h-.2c-.2,0,-.5,-.4,-.6,-1.1l-.4,-.4c-.3,0,-.6,0,-.8,.1c-.2,0,-.5,.1,-.7,.3c-.2,.2,-.4,.3,-.6,.3c-.3,0,-.5,-.2,-.5,-.6c0,-3.7,.1,-6.1,.4,-7.3l.3,-.4L71,257c.2,.1,.4,.3,.4,.6l.4,.3l.4,-.1c.5,-.3,1,-.6,1.4,-.9c.5,0,1.2,-.1,2.2,-.2c1,-.2,1.8,-.3,2.3,-.3c1.1,0,2.4,.1,3.9,.3l.4,.3l.1,.4c-.2,.3,-.3,.6,-.5,.7l.1,.5c.2,.3,.4,1.4,.4,3.3c0,.4,-.1,.9,-.2,1.7c-.2,.8,-.2,1.3,-.2,1.7c0,.3,-.1,.7,-.4,1.1l-.1,.1c-2.5,2.2,-4.4,3.9,-5.6,5l-1.5,1.3l-.2,.5c.2,2.8,.4,4.3,.5,4.6v.4c.2,.2,.4,.3,.5,.3l4.7,-.4l.3,-.3l.1,-.4c0,-.1,-.1,-.3,-.2,-.3c-.2,-.1,-.4,-.1,-.6,-.2l-.3,-.3c0,-.1,-.2,-.2,-.3,-.2c-.3,-1.1,-.5,-1.9,-.5,-2.5l.2,-.4l.3,-.2c.4,0,.7,0,.9,-.1c.1,-.2,.3,-.3,.4,-.3c.1,0,.2,0,.3,.1c.2,.1,.3,.1,.3,.1c.1,0,.3,-.1,.5,-.2c.1,-.2,.3,-.2,.4,-.2c.3,0,.5,.1,.5,.4v.1l.1,.3l.3,1.3c.3,1.4,.5,2.5,.5,3.1c0,.4,-.2,.6,-.5,.6l-.4,.3c0,.2,-1.5,.4,-4.3,.7Z" class="g0_19"/>
<image preserveAspectRatio="none" x="-1033" y="-417" width="2805" height="2404" xlink:href="img/10.png"/>
<image preserveAspectRatio="none" x="653" y="715" width="24" height="23" xlink:href="img/11.png"/>
<image preserveAspectRatio="none" x="31" y="641" width="23" height="23" xlink:href="img/12.png"/>
<g clip-path="url(#c0_19)">
<path d="M-1042.8,-417.6H-1064m2844.2,0h21.2M-1042.8,1987.5H-1064m2844.2,0h21.2M-1034.3,-426.1v-21.2m0,2443.3v21.2m2806,-2443.3v-21.2m0,2443.3v21.2" class="g2_19"/>
<path d="M-1042.8,-417.6H-1064m2844.2,0h21.2M-1042.8,1987.5H-1064m2844.2,0h21.2M-1034.3,-426.1v-21.2m0,2443.3v21.2m2806,-2443.3v-21.2m0,2443.3v21.2" class="g3_19"/>
</g>
<image preserveAspectRatio="none" x="21" y="512" width="876" height="727" xlink:href="img/13.png"/>
<image preserveAspectRatio="none" x="24" y="512" width="866" height="718" xlink:href="img/14.png"/>
<image preserveAspectRatio="none" x="729" y="701" width="135" height="194" xlink:href="img/15.png"/>
<image preserveAspectRatio="none" x="284" y="715" width="95" height="122" xlink:href="img/16.png"/>
<image preserveAspectRatio="none" x="272" y="697" width="120" height="140" xlink:href="img/17.png"/>
<image preserveAspectRatio="none" x="773" y="684" width="96" height="119" xlink:href="img/18.png"/>
<image preserveAspectRatio="none" x="764" y="678" width="101" height="118" xlink:href="img/19.png"/>
<image preserveAspectRatio="none" x="281" y="825" width="93" height="127" xlink:href="img/20.png"/>
<image preserveAspectRatio="none" x="277" y="821" width="89" height="121" xlink:href="img/21.png"/>
<image preserveAspectRatio="none" x="379" y="840" width="95" height="119" xlink:href="img/22.png"/>
<image preserveAspectRatio="none" x="349" y="818" width="129" height="144" xlink:href="img/23.png"/>
<image preserveAspectRatio="none" x="684" y="695" width="92" height="107" xlink:href="img/24.png"/>
<image preserveAspectRatio="none" x="682" y="692" width="86" height="100" xlink:href="img/25.png"/>
<image preserveAspectRatio="none" x="611" y="874" width="232" height="275" xlink:href="img/26.png"/>
<image preserveAspectRatio="none" x="606" y="868" width="225" height="268" xlink:href="img/27.png"/>
<image preserveAspectRatio="none" x="56" y="1054" width="57" height="55" xlink:href="img/28.png"/>
<image preserveAspectRatio="none" x="98" y="1092" width="28" height="34" xlink:href="img/29.png"/>
<path d="M108,1098.2l.2,-.4l.5,-.1c.2,.1,.3,.1,.4,.1c.2,0,.3,-.1,.5,-.3c.1,-.2,.3,-.3,.4,-.3c.2,0,.4,.1,.6,.3c.1,.2,.3,.3,.5,.3c.5,0,1.5,-.1,2.8,-.5c1.4,-.3,2.3,-.5,3,-.5c.3,0,.5,.2,.5,.6c0,.2,-.1,.3,-.2,.5l-.1,.5c.6,3.2,1,5.2,1,5.8c0,.4,-.2,.6,-.5,.6c-.1,0,-.2,0,-.5,-.1c-.1,0,-.3,0,-.3,.1c-.1,0,-.2,.2,-.3,.4l-.3,.3h-.5l-.3,-.4c-.1,-.2,-.2,-.4,-.5,-.4c-.1,0,-.2,.1,-.4,.2c-.2,.2,-.3,.3,-.5,.3l-.4,-.2l-.2,-.4v-5.5l-.1,-.4l-.5,-.1c-.9,.2,-1.6,.4,-2,.6c-.4,.1,-.6,1.4,-.8,3.9c-.2,1.9,-.3,3.4,-.3,4.6l.2,.4l.4,.2c2.1,-.4,4,-.6,5.6,-.8h1.2c1,0,1.5,.4,1.5,1.2c0,.4,-.2,.7,-.4,.9c-.3,.2,-.5,.4,-.5,.5c0,.4,.1,1,.3,1.9c.1,.9,.2,1.5,.2,2v1.3c0,.6,.1,1,.1,1.3c0,3,-.4,4.5,-1,4.5c-.1,0,-.2,0,-.4,-.1c-.2,0,-.4,0,-.5,0c-.1,-.1,-.3,-.1,-.6,-.1c-.7,.3,-1.5,.4,-2.5,.4c-.7,0,-1.8,-.1,-3.2,-.3c0,0,-.1,.1,-.3,.2c-.2,.1,-.3,.1,-.4,.1c-.2,0,-.4,-.1,-.5,-.2l-.4,-.2c-.7,0,-1,-.2,-1,-.6c0,-.4,-.1,-.6,-.3,-.8c-.1,0,-.5,-.1,-1,-.2c-.1,-.6,-.2,-1.3,-.2,-2.1v-2.4l.2,-.4l.4,-.2l.4,.2l.2,.4c0,.5,.2,.8,.5,.8c.3,0,.5,-.2,.6,-.6c.1,-.4,.3,-.6,.6,-.6l.4,.2l.2,.4c0,3.2,.2,4.8,.6,4.8c1.2,.2,2.2,.3,3,.2l.4,.1l.4,-.2c0,-.2,0,-.4,0,-.5c0,-4.3,-.3,-7.6,-.9,-10c-.1,-.2,-.3,-.4,-.5,-.4c-.6,0,-1.5,.2,-2.5,.5c-.1,.1,-.2,.3,-.4,.6c-.1,.3,-.3,.5,-.6,.5c-.4,-.3,-.6,-.4,-.7,-.4c-.1,0,-.5,.2,-1.1,.6h-.5l-.4,-.2v-.2c0,0,0,-.1,0,-.1l-.1,-.5c-.5,-5.2,-.7,-8.3,-.7,-9.3v-1.9l.2,-.4l.4,-.2l.5,.2l.1,.4c0,.5,.2,.8,.5,.8c.1,0,.3,0,.4,-.1l.2,-.4l.1,-.2l.1,-.5Z" class="g0_19"/>
<image preserveAspectRatio="none" x="200" y="975" width="170" height="242" xlink:href="img/30.png"/>
<image preserveAspectRatio="none" x="200" y="972" width="152" height="230" xlink:href="img/31.png"/>
<image preserveAspectRatio="none" x="429" y="975" width="168" height="242" xlink:href="img/32.png"/>
<image preserveAspectRatio="none" x="428" y="972" width="152" height="228" xlink:href="img/33.png"/>
<path d="M332,1201.7c13.5,0,24.4,-10.9,24.4,-24.3c0,-13.5,-10.9,-24.3,-24.4,-24.3c-13.4,0,-24.3,10.8,-24.3,24.3c0,13.4,10.9,24.3,24.3,24.3Zm227.3,0c13.4,0,24.3,-10.9,24.3,-24.3c0,-13.5,-10.9,-24.3,-24.3,-24.3c-13.4,0,-24.3,10.8,-24.3,24.3c0,13.4,10.9,24.3,24.3,24.3Zm176.4,-70.9c13.5,0,24.4,-10.9,24.4,-24.3c0,-13.4,-10.9,-24.3,-24.4,-24.3c-13.4,0,-24.3,10.9,-24.3,24.3c0,13.4,10.9,24.3,24.3,24.3Z" class="g4_19"/>
<image preserveAspectRatio="none" x="457" y="261" width="454" height="210" xlink:href="img/34.png"/>
<path d="M469.9,298H853.1" class="g5_19"/>
</svg>