<?xml version="1.0" encoding="UTF-8" standalone="no"?>
<!DOCTYPE svg PUBLIC "-//W3C//DTD SVG 1.1//EN"
"http://www.w3.org/Graphics/SVG/1.1/DTD/svg11.dtd">
<svg viewBox="0 0 907 1284" version="1.1" xmlns="http://www.w3.org/2000/svg" xmlns:xlink="http://www.w3.org/1999/xlink">
<defs>
<clipPath id="c0_4"><path d="M0,1284.4V0H20.7V1284.4Z"/></clipPath>
<clipPath id="c1_4"><path d="M849,924.1V634.6H654.6V924.1ZM244.6,546.7V458.3H156.2v88.4Zm97.5,1.3V456.5H253.8V548ZM807.4,109.9V57.5H101.5v52.4ZM0,1284.4V0H907.6V960.5H480.2v288H907.6v35.9Z"/></clipPath>
<clipPath id="c2_4"><path d="M156.2,546.7V458.3h88.4v88.4Z"/></clipPath>
<clipPath id="c3_4"><path d="M253.8,548V456.5h88.3V548Z"/></clipPath>
<clipPath id="c4_4"><path d="M101.5,109.9V57.5H807.4v52.4Z"/></clipPath>
<clipPath id="c5_4"><path d="M654.6,682.9V652.5h21.8V638.3H654.6v-3.7h97.3v48.3Z"/></clipPath>
<clipPath id="c6_4"><path d="M751.7,682.9V634.6H849v48.3Z"/></clipPath>
<clipPath id="c7_4"><path d="M654.6,731.2V682.7h97.3v48.5Z"/></clipPath>
<clipPath id="c8_4"><path d="M751.7,731.2V682.7H849v48.5Z"/></clipPath>
<clipPath id="c9_4"><path d="M654.6,779.5V731.1h97.3v48.4Z"/></clipPath>
<clipPath id="ca_4"><path d="M751.7,779.5V731.1H849v48.4Z"/></clipPath>
<clipPath id="cb_4"><path d="M654.6,827.7V779.3h97.3v48.4Z"/></clipPath>
<clipPath id="cc_4"><path d="M751.7,827.7V779.3H849v48.4Z"/></clipPath>
<clipPath id="cd_4"><path d="M654.6,876V827.6h97.3V876Z"/></clipPath>
<clipPath id="ce_4"><path d="M751.7,876V827.6H849V876Z"/></clipPath>
<clipPath id="cf_4"><path d="M682.3,924.1V910.6H654.6v-6h7.9V892.2h-7.9V875.9h97.3v48.2Z"/></clipPath>
<clipPath id="cg_4"><path d="M751.7,924.1V875.9H849v48.2Z"/></clipPath>
<clipPath id="ch_4"><path d="M654.6,652.5V638.3h21.8v14.2Z"/></clipPath>
<clipPath id="ci_4"><path d="M654.6,646.9v-3.7c.3,.5,.4,1.1,.4,1.7c0,.8,-.1,1.4,-.4,2Zm4.7,1.9c1.4,0,2,-1.1,2,-3.4c-.1,-2,-.7,-3,-1.9,-3c-1.4,0,-2,1.2,-2,3.7c.1,.7,.2,1.3,.4,1.8c.3,.6,.9,.9,1.5,.9Zm0,.8c-1.1,0,-1.9,-.4,-2.4,-1.1c-.5,-.6,-.8,-1.5,-.8,-2.6c-.1,-1.2,.2,-2.2,.7,-3c.6,-.9,1.5,-1.3,2.7,-1.3c1,0,1.8,.4,2.4,1.1c.5,.6,.7,1.5,.7,2.5c.1,1.3,-.1,2.3,-.6,3.1c-.7,.8,-1.5,1.3,-2.7,1.3Zm6.8,0c-1.3,0,-1.9,-.8,-2,-2.3c0,-.4,0,-1,0,-2c0,-.7,0,-1.3,0,-1.9c0,-.7,0,-1.2,0,-1.6c.4,0,.9,-.1,1.5,-.2v.1c0,.3,0,.8,-.1,1.4c0,.7,0,1.2,0,1.5c0,.9,0,1.6,0,2.1c0,.5,.1,1,.3,1.3c.2,.4,.5,.7,.9,.7c.5,0,1.1,-.4,1.8,-1c0,-.2,0,-.6,.1,-1.4c0,-.5,0,-1,0,-1.4c0,-1,0,-2,0,-3.1c.1,-.1,.5,-.1,1.3,-.2c0,1.9,0,3.5,0,4.9c0,1.1,0,2.2,0,3v.1c-.2,0,-.4,-.1,-.7,-.3l-.6,-.5c-.9,.5,-1.7,.8,-2.5,.8Zm6,0c0,-2.4,0,-4.4,0,-6c0,-.5,0,-1,0,-1.6c.3,-.1,.7,-.2,1.3,-.4l.1,1.9c.2,-.6,.5,-1.1,1,-1.5c.5,-.6,1.1,-.8,1.6,-.8c0,0,.1,0,.2,0c-.1,.3,-.2,.7,-.3,1.3c-.3,0,-.5,.1,-.8,.2c-.2,0,-.4,.2,-.7,.3c-.5,.4,-.7,1,-.9,1.9c-.1,.5,-.1,1.3,-.1,2.2c0,.8,0,1.6,0,2.4q-.1,0,-.1,0c-.3,0,-.8,0,-1.3,.1Z"/></clipPath>
<clipPath id="cj_4"><path d="M654.6,904.6V892.2h7.9v12.4Z"/></clipPath>
<clipPath id="ck_4"><path d="M654.6,904.1v-.5c0,0,.1,0,.1,0l-.1,.5Zm2.4,-4.6l3.6,-.9c-.6,-1.1,-1.1,-1.6,-1.7,-1.6c-.9,0,-1.6,.9,-1.9,2.5Zm-2.4,-2.7v-.4h.1c-.1,.2,-.1,.3,-.1,.4Zm4.6,7.4c-1.1,0,-2,-.3,-2.6,-1c-.6,-.6,-.9,-1.4,-.9,-2.5c0,-1.2,.2,-2.2,.7,-3c.6,-1,1.5,-1.4,2.6,-1.4c.7,0,1.3,.2,1.8,.6c.5,.4,.9,.9,1.1,1.6c-.1,.1,-.3,.4,-.5,.6c-1,.3,-2.4,.8,-4.4,1.4c.1,1.8,.9,2.8,2.3,2.8c.7,0,1.5,-.3,2.2,-.9c0,.3,0,.7,-.1,1.2c-.2,.1,-.5,.3,-1,.5c-.5,0,-.9,.1,-1.2,.1Zm-.7,-8.5c.3,-.9,.5,-1.7,.7,-2.4l.1,-.1h.3c.1,0,.2,0,.5,0c.2,0,.4,0,.7,0c-.5,.7,-.9,1.5,-1.4,2.4l-.1,.1Z"/></clipPath>
<clipPath id="cl_4"><path d="M654.6,924.1V910.6h27.7v13.5Z"/></clipPath>
<clipPath id="cm_4"><path d="M676.8,917.9l3.6,-1c-.5,-1.1,-1,-1.5,-1.6,-1.5c-1,0,-1.6,.8,-2,2.5Zm-20.2,4.7l-.1,-.1c0,-.2,0,-1,-.1,-2.5c.1,-.7,.2,-1.5,.2,-2.5c0,-.5,-.1,-.9,-.3,-1.3c-.2,-.5,-.5,-.7,-.9,-.7c-.3,0,-.5,.1,-.8,.2v-.9c.4,-.1,.8,-.2,1.3,-.2c1.2,0,1.8,.8,1.9,2.3c0,.4,0,1.1,0,2.1c-.1,.5,-.1,1.2,0,2.1c0,.5,0,1,.1,1.4h-.1c-.5,0,-.9,0,-1.2,.1Zm4.1,.4c-.4,0,-.8,-.1,-1.2,-.2c0,-.3,.1,-.6,.2,-1.2c.8,.3,1.4,.5,1.5,.5c.5,0,1,-.1,1.3,-.3c.6,-.4,.8,-.7,.8,-1.3c0,-.5,-.3,-.8,-.9,-1.1c-.4,-.1,-.9,-.3,-1.7,-.6c-.6,-.4,-.9,-.9,-.9,-1.7c0,-.9,.3,-1.5,1,-1.9c.5,-.4,1.3,-.6,2.2,-.6c.4,0,.9,.1,1.3,.2v.1l-.1,1c-.5,-.3,-.9,-.4,-1.5,-.4c-.4,0,-.7,.1,-1,.3c-.4,.2,-.5,.5,-.5,.9c0,.4,.3,.8,.9,1l1.7,.7c.5,.3,.9,.9,.9,1.7c0,.6,-.3,1.3,-.9,1.9c-.7,.7,-1.7,1,-3.1,1Zm18.3,-.4c-1.1,0,-1.9,-.4,-2.5,-1c-.6,-.7,-.9,-1.5,-.9,-2.6c-.1,-1.2,.2,-2.1,.7,-3c.5,-.9,1.4,-1.4,2.6,-1.4c.6,0,1.3,.2,1.8,.6c.4,.4,.8,1,1,1.6c-.1,.2,-.2,.4,-.5,.7c-.9,.2,-2.4,.7,-4.3,1.3c.1,1.9,.9,2.8,2.3,2.8c.7,0,1.5,-.3,2.2,-.9c0,.3,-.1,.7,-.1,1.2c-.2,.2,-.5,.4,-1.1,.5c-.5,.1,-.8,.2,-1.2,.2Zm-6.4,0c.2,-3.7,.2,-6.4,.2,-8.1c0,-1,-.1,-2,-.2,-2.9c.4,-.1,.9,-.2,1.4,-.3c0,.5,0,2.2,0,5.3c0,2.4,0,4.4,0,5.9c0,0,-.1,0,-.1,0c-.3,0,-.7,0,-1.3,.1Z"/></clipPath>
<clipPath id="cn_4"><path d="M480.2,1248.5v-288H907.6v288Z"/></clipPath>
<clipPath id="co_4"><path d="M0,1284.4V0H907.6V1284.4Z"/></clipPath>
<style type="text/css"><![CDATA[
.g0_4{
fill: none;
stroke: #FFFFFF;
stroke-width: 1.145;
stroke-linecap: butt;
stroke-linejoin: miter;
}
.g1_4{
fill: none;
stroke: #FFFFFF;
stroke-width: 1.909;
stroke-linecap: butt;
stroke-linejoin: miter;
}
.g2_4{
fill: none;
stroke: #000000;
stroke-width: 0.381;
stroke-linecap: butt;
stroke-linejoin: miter;
}
]]></style>
</defs>
<image clip-path="url(#c0_4)" preserveAspectRatio="none" x="-23" y="-22" width="44" height="1329" xlink:href="img/1.jpg"/>
<image clip-path="url(#c1_4)" preserveAspectRatio="none" x="0" y="-22" width="930" height="1329" xlink:href="img/2.jpg"/>
<image clip-path="url(#c2_4)" preserveAspectRatio="none" x="156" y="458" width="89" height="89" xlink:href="img/3.jpg"/>
<image clip-path="url(#c3_4)" preserveAspectRatio="none" x="254" y="456" width="88" height="92" xlink:href="img/4.jpg"/>
<image clip-path="url(#c4_4)" preserveAspectRatio="none" x="101" y="57" width="707" height="53" xlink:href="img/5.jpg"/>
<image clip-path="url(#c5_4)" preserveAspectRatio="none" x="654" y="634" width="98" height="49" xlink:href="img/6.jpg"/>
<image clip-path="url(#c6_4)" preserveAspectRatio="none" x="752" y="634" width="97" height="49" xlink:href="img/7.jpg"/>
<image clip-path="url(#c7_4)" preserveAspectRatio="none" x="654" y="683" width="98" height="48" xlink:href="img/8.jpg"/>
<image clip-path="url(#c8_4)" preserveAspectRatio="none" x="752" y="683" width="97" height="48" xlink:href="img/9.jpg"/>
<image clip-path="url(#c9_4)" preserveAspectRatio="none" x="654" y="731" width="98" height="48" xlink:href="img/10.jpg"/>
<image clip-path="url(#ca_4)" preserveAspectRatio="none" x="752" y="731" width="97" height="48" xlink:href="img/11.jpg"/>
<image clip-path="url(#cb_4)" preserveAspectRatio="none" x="654" y="779" width="98" height="49" xlink:href="img/12.jpg"/>
<image clip-path="url(#cc_4)" preserveAspectRatio="none" x="752" y="779" width="97" height="49" xlink:href="img/13.jpg"/>
<image clip-path="url(#cd_4)" preserveAspectRatio="none" x="654" y="828" width="98" height="48" xlink:href="img/14.jpg"/>
<image clip-path="url(#ce_4)" preserveAspectRatio="none" x="752" y="828" width="97" height="48" xlink:href="img/15.jpg"/>
<image clip-path="url(#cf_4)" preserveAspectRatio="none" x="654" y="876" width="98" height="48" xlink:href="img/16.jpg"/>
<image clip-path="url(#cg_4)" preserveAspectRatio="none" x="752" y="876" width="97" height="48" xlink:href="img/17.jpg"/>
<image clip-path="url(#ch_4)" preserveAspectRatio="none" x="655" y="638" width="21" height="15" xlink:href="img/18.jpg"/>
<image clip-path="url(#ci_4)" preserveAspectRatio="none" x="655" y="638" width="21" height="15" xlink:href="img/19.jpg"/>
<image clip-path="url(#cj_4)" preserveAspectRatio="none" x="655" y="892" width="8" height="13" xlink:href="img/20.jpg"/>
<image clip-path="url(#ck_4)" preserveAspectRatio="none" x="655" y="892" width="8" height="13" xlink:href="img/21.jpg"/>
<image clip-path="url(#cl_4)" preserveAspectRatio="none" x="655" y="910" width="27" height="14" xlink:href="img/22.jpg"/>
<image clip-path="url(#cm_4)" preserveAspectRatio="none" x="655" y="910" width="27" height="14" xlink:href="img/23.jpg"/>
<image clip-path="url(#cn_4)" preserveAspectRatio="none" x="480" y="960" width="429" height="289" xlink:href="img/24.jpg"/>
<path d="M499.7,1010H842.5" class="g0_4"/>
<g clip-path="url(#co_4)">
<path d="M-10,-.8H-32.9m950.6,0h22.9M-10,1285.3H-32.9m950.6,0h22.9M-.8,-10V-32.9m0,1327.4v22.9M908.5,-10V-32.9m0,1327.4v22.9" class="g1_4"/>
<path d="M-10,-.8H-32.9m950.6,0h22.9M-10,1285.3H-32.9m950.6,0h22.9M-.8,-10V-32.9m0,1327.4v22.9M908.5,-10V-32.9m0,1327.4v22.9" class="g2_4"/>
</g>
</svg>