<?xml version="1.0" encoding="UTF-8" standalone="no"?>
<!DOCTYPE svg PUBLIC "-//W3C//DTD SVG 1.1//EN"
"http://www.w3.org/Graphics/SVG/1.1/DTD/svg11.dtd">
<svg viewBox="0 0 909 1286" version="1.1" xmlns="http://www.w3.org/2000/svg" xmlns:xlink="http://www.w3.org/1999/xlink">
<defs>
<clipPath id="c0_17"><path d="M493.7,835.4V544.6H866.1V835.4Z"/></clipPath>
<clipPath id="c1_17"><path d="M43.3,493.8V273.6H415.7V493.8Z"/></clipPath>
<clipPath id="c2_17"><path d="M43.3,1228.1v-343H508.1v343Z"/></clipPath>
<style type="text/css"><![CDATA[
.g0_17{
fill: none;
stroke: #FFFFFF;
stroke-width: 1.909;
stroke-linecap: butt;
stroke-linejoin: miter;
}
.g1_17{
fill: none;
stroke: #000000;
stroke-width: 0.381;
stroke-linecap: butt;
stroke-linejoin: miter;
}
.g2_17{
fill: none;
stroke: #000000;
stroke-width: 0.916;
stroke-linecap: butt;
stroke-linejoin: miter;
stroke-miterlimit: 4;
}
]]></style>
</defs>
<image preserveAspectRatio="none" x="-1" y="-21" width="932" height="1329" xlink:href="../1/img/1.png"/>
<image preserveAspectRatio="none" x="0" y="564" width="15" height="747" xlink:href="img/2.png"/>
<image preserveAspectRatio="none" x="-311" y="-500" width="3031" height="2598" xlink:href="img/3.png"/>
<g clip-path="url(#c0_17)">
<path d="M-321,-501.3h-22.9m3072.6,0h22.9M-321,2097h-22.9m3072.6,0h22.9M-311.9,-510.5v-22.9m0,2639.5v23M2719.5,-510.5v-22.9m0,2639.5v23" class="g0_17"/>
<path d="M-321,-501.3h-22.9m3072.6,0h22.9M-321,2097h-22.9m3072.6,0h22.9M-311.9,-510.5v-22.9m0,2639.5v23M2719.5,-510.5v-22.9m0,2639.5v23" class="g1_17"/>
</g>
<image preserveAspectRatio="none" x="23" y="531" width="869" height="323" xlink:href="img/4.png"/>
<image preserveAspectRatio="none" x="24" y="532" width="861" height="314" xlink:href="img/5.png"/>
<image preserveAspectRatio="none" x="541" y="555" width="226" height="104" xlink:href="img/6.png"/>
<image preserveAspectRatio="none" x="756" y="704" width="100" height="130" xlink:href="img/7.png"/>
<image preserveAspectRatio="none" x="731" y="688" width="127" height="150" xlink:href="img/8.png"/>
<image preserveAspectRatio="none" x="629" y="649" width="132" height="191" xlink:href="img/9.png"/>
<image preserveAspectRatio="none" x="601" y="646" width="166" height="184" xlink:href="img/10.png"/>
<image preserveAspectRatio="none" x="724" y="559" width="106" height="162" xlink:href="img/11.png"/>
<image preserveAspectRatio="none" x="716" y="550" width="117" height="170" xlink:href="img/12.png"/>
<image preserveAspectRatio="none" x="-761" y="-764" width="3030" height="2599" xlink:href="img/13.png"/>
<g clip-path="url(#c1_17)">
<path d="M-771.4,-764.8h-22.9m3072.6,0h22.9M-771.4,1833.5h-22.9m3072.6,0h22.9M-762.3,-773.9v-23m0,2639.6v22.9M2269.1,-773.9v-23m0,2639.6v22.9" class="g0_17"/>
<path d="M-771.4,-764.8h-22.9m3072.6,0h22.9M-771.4,1833.5h-22.9m3072.6,0h22.9M-762.3,-773.9v-23m0,2639.6v22.9M2269.1,-773.9v-23m0,2639.6v22.9" class="g1_17"/>
</g>
<image preserveAspectRatio="none" x="23" y="264" width="869" height="249" xlink:href="img/14.png"/>
<image preserveAspectRatio="none" x="24" y="265" width="861" height="240" xlink:href="img/15.png"/>
<image preserveAspectRatio="none" x="91" y="286" width="226" height="105" xlink:href="img/16.png"/>
<image preserveAspectRatio="none" x="273" y="295" width="106" height="160" xlink:href="img/17.png"/>
<image preserveAspectRatio="none" x="266" y="285" width="117" height="170" xlink:href="img/18.png"/>
<image preserveAspectRatio="none" x="193" y="371" width="106" height="116" xlink:href="img/19.png"/>
<image preserveAspectRatio="none" x="158" y="340" width="149" height="155" xlink:href="img/20.png"/>
<image preserveAspectRatio="none" x="114" y="39" width="706" height="52" xlink:href="img/21.png"/>
<path d="M56.3,206.7H439.6" class="g2_17"/>
<image preserveAspectRatio="none" x="-761" y="-160" width="3030" height="2599" xlink:href="img/22.png"/>
<g clip-path="url(#c2_17)">
<path d="M-771.4,-160.8h-22.9m3072.6,0h22.9M-771.4,2437.6h-22.9m3072.6,0h22.9M-762.3,-169.9v-23m0,2639.6v22.9M2269.1,-169.9v-23m0,2639.6v22.9" class="g0_17"/>
<path d="M-771.4,-160.8h-22.9m3072.6,0h22.9M-771.4,2437.6h-22.9m3072.6,0h22.9M-762.3,-169.9v-23m0,2639.6v22.9M2269.1,-169.9v-23m0,2639.6v22.9" class="g1_17"/>
</g>
<image preserveAspectRatio="none" x="23" y="872" width="869" height="376" xlink:href="img/23.png"/>
<image preserveAspectRatio="none" x="24" y="872" width="861" height="368" xlink:href="img/24.png"/>
<image preserveAspectRatio="none" x="52" y="1090" width="226" height="104" xlink:href="img/25.png"/>
<image preserveAspectRatio="none" x="91" y="896" width="226" height="104" xlink:href="img/26.png"/>
<image preserveAspectRatio="none" x="273" y="900" width="106" height="162" xlink:href="img/27.png"/>
<image preserveAspectRatio="none" x="266" y="890" width="117" height="170" xlink:href="img/28.png"/>
<image preserveAspectRatio="none" x="324" y="1094" width="99" height="130" xlink:href="img/29.png"/>
<image preserveAspectRatio="none" x="299" y="1079" width="127" height="149" xlink:href="img/30.png"/>
<image preserveAspectRatio="none" x="199" y="1052" width="137" height="179" xlink:href="img/31.png"/>
<image preserveAspectRatio="none" x="187" y="1049" width="152" height="172" xlink:href="img/32.png"/>
<image preserveAspectRatio="none" x="408" y="907" width="99" height="135" xlink:href="img/33.png"/>
<image preserveAspectRatio="none" x="402" y="899" width="106" height="137" xlink:href="img/34.png"/>
<image preserveAspectRatio="none" x="405" y="1026" width="101" height="130" xlink:href="img/35.png"/>
<image preserveAspectRatio="none" x="380" y="1011" width="128" height="149" xlink:href="img/36.png"/>
<image preserveAspectRatio="none" x="490" y="197" width="341" height="64" xlink:href="img/37.png"/>
<image preserveAspectRatio="none" x="480" y="160" width="371" height="123" xlink:href="img/38.png"/>
</svg>