<?xml version="1.0" encoding="UTF-8" standalone="no"?>
<!DOCTYPE svg PUBLIC "-//W3C//DTD SVG 1.1//EN"
"http://www.w3.org/Graphics/SVG/1.1/DTD/svg11.dtd">
<svg viewBox="0 0 642 908" version="1.1" xmlns="http://www.w3.org/2000/svg" xmlns:xlink="http://www.w3.org/1999/xlink">
<defs>
</defs>
<image preserveAspectRatio="none" x="-32" y="-32" width="707" height="974" xlink:href="img/1.jpg"/>
<image preserveAspectRatio="none" x="-32" y="-32" width="707" height="974" xlink:href="img/2.png"/>
<image preserveAspectRatio="none" x="61" y="68" width="48" height="52" xlink:href="img/3.jpg"/>
<image preserveAspectRatio="none" x="5" y="75" width="39" height="39" xlink:href="img/4.jpg"/>
<image preserveAspectRatio="none" x="75" y="193" width="42" height="41" xlink:href="img/5.jpg"/>
<image preserveAspectRatio="none" x="43" y="201" width="20" height="20" xlink:href="img/6.jpg"/>
<image preserveAspectRatio="none" x="322" y="201" width="20" height="20" xlink:href="img/7.jpg"/>
<image preserveAspectRatio="none" x="321" y="447" width="20" height="20" xlink:href="img/8.jpg"/>
<image preserveAspectRatio="none" x="361" y="689" width="41" height="37" xlink:href="img/9.jpg"/>
<image preserveAspectRatio="none" x="332" y="696" width="19" height="20" xlink:href="img/10.jpg"/>
<image preserveAspectRatio="none" x="611" y="696" width="19" height="20" xlink:href="img/11.jpg"/>
<image preserveAspectRatio="none" x="75" y="734" width="40" height="40" xlink:href="img/12.jpg"/>
<image preserveAspectRatio="none" x="43" y="743" width="20" height="20" xlink:href="img/13.jpg"/>
<image preserveAspectRatio="none" x="322" y="743" width="20" height="20" xlink:href="img/14.jpg"/>
<image preserveAspectRatio="none" x="287" y="882" width="100" height="44" xlink:href="img/15.jpg"/>
<image preserveAspectRatio="none" x="42" y="361" width="85" height="115" xlink:href="img/16.jpg"/>
</svg>