<?xml version="1.0" encoding="UTF-8" standalone="no"?>
<!DOCTYPE svg PUBLIC "-//W3C//DTD SVG 1.1//EN"
"http://www.w3.org/Graphics/SVG/1.1/DTD/svg11.dtd">
<svg viewBox="0 0 908 1286" version="1.1" xmlns="http://www.w3.org/2000/svg" xmlns:xlink="http://www.w3.org/1999/xlink">
<defs>
<clipPath id="c0_5"><path d="M0,1285.7V0H909V1285.7Z"/></clipPath>
<clipPath id="c1_5"><path d="M0,1012.4V516H448.7v496.4Z"/></clipPath>
<clipPath id="c2_5"><path d="M545.4,210.2V78.8H776.7V210.2Z"/></clipPath>
<clipPath id="c3_5"><path d="M706.7,378.6c-19.4,0,-35.1,-15.7,-35.1,-35.1c0,-19.3,15.7,-35.1,35.1,-35.1c19.3,0,35.1,15.8,35.1,35.1c0,19.4,-15.8,35.1,-35.1,35.1Z"/></clipPath>
<clipPath id="c4_5"><path d="M524.9,378.6c-19.4,0,-35.1,-15.7,-35.1,-35.1c0,-19.3,15.7,-35.1,35.1,-35.1c19.3,0,35,15.8,35,35.1c0,19.4,-15.7,35.1,-35,35.1Z"/></clipPath>
<clipPath id="c5_5"><path d="M615.8,378.6c-19.4,0,-35.1,-15.7,-35.1,-35.1c0,-19.3,15.7,-35.1,35.1,-35.1c19.3,0,35,15.8,35,35.1c0,19.4,-15.7,35.1,-35,35.1Z"/></clipPath>
<clipPath id="c6_5"><path d="M797.6,378.6c-19.4,0,-35.1,-15.7,-35.1,-35.1c0,-19.3,15.7,-35.1,35.1,-35.1c19.3,0,35.1,15.8,35.1,35.1c0,19.4,-15.8,35.1,-35.1,35.1Z"/></clipPath>
<clipPath id="c7_5"><path d="M777,315.1c5.8,-4.2,12.9,-6.7,20.6,-6.7c7.7,0,14.8,2.5,20.6,6.7Z"/></clipPath>
<clipPath id="c8_5"><path d="M797.6,378.6c-19.4,0,-35.1,-15.7,-35.1,-35.1c0,-15.8,10.4,-29.1,24.8,-33.5h20.6c14.3,4.4,24.8,17.7,24.8,33.5c0,19.4,-15.8,35.1,-35.1,35.1Z"/></clipPath>
<clipPath id="c9_5"><path d="M661.2,645.9c-19.4,0,-35.1,-15.7,-35.1,-35.1c0,-19.3,15.7,-35.1,35.1,-35.1c19.4,0,35.1,15.8,35.1,35.1c0,19.4,-15.7,35.1,-35.1,35.1Z"/></clipPath>
<clipPath id="ca_5"><path d="M516.2,813.1v-83h83v83Z"/></clipPath>
<clipPath id="cb_5"><path d="M610.4,984.3V926.4H712v57.9Z"/></clipPath>
<clipPath id="cc_5"><path d="M617.6,1137.7v-59.1h87.2v59.1Z"/></clipPath>
<clipPath id="cd_5"><path d="M685,813.1v-83h83v83Z"/></clipPath>
<style type="text/css"><![CDATA[
.g0_5{
fill: #FFFFFF;
}
.g1_5{
}
.g2_5{
fill: none;
stroke: #000000;
stroke-width: 0.916;
stroke-linecap: butt;
stroke-linejoin: miter;
}
.g3_5{
fill: none;
stroke: #FFFFFF;
stroke-width: 1.346;
stroke-linecap: butt;
stroke-linejoin: miter;
}
.g4_5{
fill: none;
stroke: #FFFFFF;
stroke-width: 0.916;
stroke-linecap: butt;
stroke-linejoin: miter;
}
]]></style>
</defs>
<path d="M0,0H909V1285.7H0V0Z" class="g0_5"/>
<image clip-path="url(#c0_5)" preserveAspectRatio="none" x="-1" y="-21" width="932" height="1328" xlink:href="img/1.jpg"/>
<path d="M68.2,393.8c6.6,0,12,-5.3,12,-11.9c0,-6.6,-5.4,-12,-12,-12c-6.6,0,-11.9,5.4,-11.9,12c0,6.6,5.3,11.9,11.9,11.9Z" class="g1_5"/>
<path d="M68.2,421c6.6,0,12,-5.4,12,-12c0,-6.6,-5.4,-11.9,-12,-11.9c-6.6,0,-11.9,5.3,-11.9,11.9c0,6.6,5.3,12,11.9,12Z" class="g1_5"/>
<path d="M68.2,448.1c6.6,0,12,-5.4,12,-12c0,-6.6,-5.4,-11.9,-12,-11.9c-6.6,0,-11.9,5.3,-11.9,11.9c0,6.6,5.3,12,11.9,12Z" class="g1_5"/>
<path d="M68.2,476.3c6.6,0,12,-5.3,12,-11.9c0,-6.6,-5.4,-12,-12,-12c-6.6,0,-11.9,5.4,-11.9,12c0,6.6,5.3,11.9,11.9,11.9Z" class="g1_5"/>
<image clip-path="url(#c1_5)" preserveAspectRatio="none" x="0" y="516" width="449" height="497" xlink:href="img/2.png"/>
<path d="M56.3,1030.9H439.4" class="g2_5"/>
<image clip-path="url(#c0_5)" preserveAspectRatio="none" x="151" y="80" width="192" height="285" xlink:href="img/3.jpg"/>
<path d="M178.6,102.5c7.3,0,13.2,-5.9,13.2,-13.2c0,-7.2,-5.9,-13.1,-13.2,-13.1c-7.3,0,-13.1,5.9,-13.1,13.1c0,7.3,5.8,13.2,13.1,13.2Z" class="g1_5"/>
<path d="M218.1,159.4c7.3,0,13.1,-5.9,13.1,-13.1c0,-7.3,-5.8,-13.2,-13.1,-13.2c-7.3,0,-13.2,5.9,-13.2,13.2c0,7.2,5.9,13.1,13.2,13.1Z" class="g1_5"/>
<path d="M307.1,326.3c7.3,0,13.2,-5.9,13.2,-13.2c0,-7.3,-5.9,-13.2,-13.2,-13.2c-7.2,0,-13.1,5.9,-13.1,13.2c0,7.3,5.9,13.2,13.1,13.2Z" class="g1_5"/>
<path d="M307.1,326.3c7.3,0,13.2,-5.9,13.2,-13.2c0,-7.3,-5.9,-13.2,-13.2,-13.2c-7.2,0,-13.1,5.9,-13.1,13.2c0,7.3,5.9,13.2,13.1,13.2Z" class="g3_5"/>
<path d="M162.8,313.1c7.3,0,13.2,-5.9,13.2,-13.2c0,-7.2,-5.9,-13.1,-13.2,-13.1c-7.3,0,-13.2,5.9,-13.2,13.1c0,7.3,5.9,13.2,13.2,13.2Z" class="g1_5"/>
<path d="M469.5,75.1H852.6" class="g2_5"/>
<image clip-path="url(#c2_5)" preserveAspectRatio="none" x="545" y="79" width="232" height="131" xlink:href="img/4.png"/>
<image clip-path="url(#c3_5)" preserveAspectRatio="none" x="671" y="308" width="71" height="71" xlink:href="img/5.png"/>
<image clip-path="url(#c4_5)" preserveAspectRatio="none" x="489" y="308" width="71" height="71" xlink:href="img/6.png"/>
<image clip-path="url(#c5_5)" preserveAspectRatio="none" x="579" y="306" width="74" height="75" xlink:href="img/7.jpg"/>
<path clip-path="url(#c6_5)" d="M641,656.3H919.4V246.7H641V656.3Z" class="g0_5"/>
<image clip-path="url(#c7_5)" preserveAspectRatio="none" x="777" y="308" width="41" height="7" xlink:href="img/8.png"/>
<image clip-path="url(#c8_5)" preserveAspectRatio="none" x="762" y="310" width="71" height="69" xlink:href="img/9.png"/>
<path d="M469.7,302.6H852.8M469.5,570.3H852.6M469.7,910.8H852.8M469.7,720.1H852.8" class="g2_5"/>
<image clip-path="url(#c9_5)" preserveAspectRatio="none" x="624" y="574" width="74" height="74" xlink:href="img/10.jpg"/>
<image clip-path="url(#ca_5)" preserveAspectRatio="none" x="516" y="730" width="83" height="83" xlink:href="img/11.png"/>
<image clip-path="url(#cb_5)" preserveAspectRatio="none" x="610" y="926" width="102" height="58" xlink:href="img/12.png"/>
<path d="M469.7,1065.4H852.8" class="g2_5"/>
<image clip-path="url(#cc_5)" preserveAspectRatio="none" x="617" y="1078" width="88" height="60" xlink:href="img/13.png"/>
<image clip-path="url(#cd_5)" preserveAspectRatio="none" x="685" y="730" width="83" height="83" xlink:href="img/14.png"/>
<path d="M56.3,560.8H439.4" class="g4_5"/>
<path d="M875,1254.8v.1l-.1,.3c-.1,0,-.2,0,-.2,0c-.2,0,-.3,-.1,-.3,-.4l-.1,-.3l-.2,-.1l-.2,.1l-.1,.3v1c0,.5,.1,2.2,.3,5l.1,.2v.1l.2,.2h.2c.4,-.2,.6,-.3,.6,-.3c.1,0,.2,0,.4,.1c.2,0,.3,0,.4,-.2c0,-.2,.1,-.3,.2,-.3c.5,-.2,.9,-.3,1.3,-.3c.1,0,.2,.1,.3,.2c.3,1.3,.5,3.1,.5,5.4c0,0,-.1,.1,-.1,.2l-.2,.2l-.2,-.1c-.4,0,-.9,0,-1.6,-.1c-.2,0,-.3,-.9,-.3,-2.6l-.1,-.2l-.2,-.1c-.2,0,-.3,.1,-.4,.3c0,.2,-.1,.3,-.3,.3c-.2,0,-.2,-.1,-.2,-.4l-.1,-.2l-.3,-.1l-.2,.1l-.1,.2c0,0,0,.4,0,1.3c0,.4,.1,.8,.1,1.1c.3,.1,.5,.1,.5,.1c.2,.1,.2,.2,.2,.4c0,.3,.2,.4,.5,.4l.2,.1c.1,0,.2,.1,.3,.1q.1,0,.2,-.1c.1,0,.2,-.1,.2,-.1c.8,.1,1.3,.2,1.7,.2c.5,0,1,-.1,1.3,-.2c.2,0,.3,0,.4,0c0,0,.1,0,.2,0c.1,.1,.2,.1,.2,.1c.4,0,.5,-.8,.5,-2.5c0,-.1,0,-.3,0,-.6c0,-.3,0,-.5,0,-.7c0,-.3,0,-.6,-.1,-1.1c-.1,-.4,-.1,-.8,-.1,-1c0,0,.1,-.1,.2,-.2c.1,-.2,.2,-.3,.2,-.5c0,-.5,-.2,-.7,-.8,-.7h-.6c-.9,.1,-1.9,.2,-3,.4l-.2,-.1l-.1,-.2c0,-.6,0,-1.4,.1,-2.4c.1,-1.4,.3,-2.1,.5,-2.1c.2,-.1,.6,-.2,1,-.3h.3l.1,.3v2.9l.1,.2l.2,.1c.1,0,.1,-.1,.2,-.1c.1,-.1,.2,-.2,.3,-.2c.1,0,.2,.1,.2,.2l.2,.2l.2,.1l.2,-.2c.1,-.1,.1,-.2,.1,-.2c.1,-.1,.2,-.1,.2,-.1q.2,.1,.3,.1c.2,0,.2,-.1,.2,-.3c0,-.4,-.1,-1.4,-.5,-3.2l.1,-.2c.1,-.1,.1,-.2,.1,-.3c0,-.2,-.1,-.3,-.3,-.3c-.3,0,-.9,.1,-1.6,.3c-.7,.2,-1.2,.3,-1.5,.3c-.1,0,-.2,-.1,-.3,-.2c-.1,-.1,-.1,-.2,-.2,-.2c-.1,0,-.2,.1,-.3,.2c-.1,.1,-.1,.2,-.2,.2c-.1,0,-.2,-.1,-.3,-.1l-.2,.1l-.1,.1l-.1,.3Z" class="g1_5"/>
<g clip-path="url(#c0_5)">
<image preserveAspectRatio="none" x="137" y="1044" width="205" height="119" xlink:href="img/15.jpg"/>
<image preserveAspectRatio="none" x="151" y="567" width="173" height="258" xlink:href="img/16.jpg"/>
</g>
</svg>