<?xml version="1.0" encoding="UTF-8" standalone="no"?>
<!DOCTYPE svg PUBLIC "-//W3C//DTD SVG 1.1//EN"
"http://www.w3.org/Graphics/SVG/1.1/DTD/svg11.dtd">
<svg viewBox="0 0 909 1286" version="1.1" xmlns="http://www.w3.org/2000/svg" xmlns:xlink="http://www.w3.org/1999/xlink">
<defs>
<clipPath id="c0_2"><path d="M0,321.3V0H428.1V321.3Z"/></clipPath>
<clipPath id="c1_2"><path d="M427.2,321.3V0H857.6V321.3Z"/></clipPath>
<clipPath id="c2_2"><path d="M856.7,1286.4V0H909V1286.4Z"/></clipPath>
<clipPath id="c3_2"><path d="M0,643.8V320.4H428.1V643.8Z"/></clipPath>
<clipPath id="c4_2"><path d="M427.3,643.7V320.4H857.6V643.7Z"/></clipPath>
<clipPath id="c5_2"><path d="M0,965.9v-323H428.1v323Z"/></clipPath>
<clipPath id="c6_2"><path d="M427.3,965.8V642.9H857.6V965.8Z"/></clipPath>
<clipPath id="c7_2"><path d="M0,1286.4V965H428.1v321.4Z"/></clipPath>
<clipPath id="c8_2"><path d="M427.2,1286.4V965H857.6v321.4Z"/></clipPath>
<clipPath id="c9_2"><path d="M721.3,219.2V95.7H844.8V219.2Z"/></clipPath>
<clipPath id="ca_2"><path d="M373.8,154.4V117.7h93.8v36.7Z"/></clipPath>
<clipPath id="cb_2"><path d="M591.5,275.3V191.4h84v83.9Z"/></clipPath>
<clipPath id="cc_2"><path d="M811.4,469.9V435.5h32.3v34.4Z"/></clipPath>
<clipPath id="cd_2"><path d="M814.7,560.1v-63H847v63Z"/></clipPath>
<clipPath id="ce_2"><path d="M192.4,886.7V795H329.1v91.7Z"/></clipPath>
<clipPath id="cf_2"><path d="M30.7,1040.6V993H77.3v47.6Z"/></clipPath>
<clipPath id="cg_2"><path d="M409.9,1286.4v-35.2H537v35.2Z"/></clipPath>
</defs>
<image clip-path="url(#c0_2)" preserveAspectRatio="none" x="-1" y="-1" width="429" height="322" xlink:href="img/1.jpg"/>
<image clip-path="url(#c1_2)" preserveAspectRatio="none" x="427" y="-1" width="431" height="322" xlink:href="img/2.jpg"/>
<image clip-path="url(#c2_2)" preserveAspectRatio="none" x="857" y="-1" width="54" height="1289" xlink:href="img/3.jpg"/>
<image clip-path="url(#c3_2)" preserveAspectRatio="none" x="-1" y="320" width="429" height="324" xlink:href="img/4.jpg"/>
<image clip-path="url(#c4_2)" preserveAspectRatio="none" x="427" y="320" width="431" height="324" xlink:href="img/5.jpg"/>
<image clip-path="url(#c5_2)" preserveAspectRatio="none" x="-1" y="643" width="429" height="323" xlink:href="img/6.jpg"/>
<image clip-path="url(#c6_2)" preserveAspectRatio="none" x="427" y="643" width="431" height="323" xlink:href="img/7.jpg"/>
<image clip-path="url(#c7_2)" preserveAspectRatio="none" x="-1" y="965" width="429" height="323" xlink:href="img/8.jpg"/>
<image clip-path="url(#c8_2)" preserveAspectRatio="none" x="427" y="965" width="431" height="323" xlink:href="img/9.jpg"/>
<image clip-path="url(#c9_2)" preserveAspectRatio="none" x="721" y="96" width="124" height="123" xlink:href="img/10.jpg"/>
<image clip-path="url(#ca_2)" preserveAspectRatio="none" x="374" y="118" width="94" height="37" xlink:href="img/11.jpg"/>
<image clip-path="url(#cb_2)" preserveAspectRatio="none" x="591" y="191" width="85" height="85" xlink:href="img/12.jpg"/>
<image clip-path="url(#cc_2)" preserveAspectRatio="none" x="811" y="435" width="33" height="35" xlink:href="img/13.jpg"/>
<image clip-path="url(#cd_2)" preserveAspectRatio="none" x="815" y="497" width="32" height="63" xlink:href="img/14.jpg"/>
<image clip-path="url(#ce_2)" preserveAspectRatio="none" x="192" y="795" width="137" height="92" xlink:href="img/15.jpg"/>
<image clip-path="url(#cf_2)" preserveAspectRatio="none" x="31" y="993" width="46" height="48" xlink:href="img/16.jpg"/>
<image clip-path="url(#cg_2)" preserveAspectRatio="none" x="410" y="1251" width="127" height="52" xlink:href="img/17.jpg"/>
</svg>