<?xml version="1.0" encoding="UTF-8" standalone="no"?>
<!DOCTYPE svg PUBLIC "-//W3C//DTD SVG 1.1//EN"
"http://www.w3.org/Graphics/SVG/1.1/DTD/svg11.dtd">
<svg viewBox="0 0 642 908" version="1.1" xmlns="http://www.w3.org/2000/svg" xmlns:xlink="http://www.w3.org/1999/xlink">
<defs>
</defs>
<image preserveAspectRatio="none" x="-32" y="-32" width="707" height="974" xlink:href="img/1.jpg"/>
<image preserveAspectRatio="none" x="-32" y="-32" width="707" height="974" xlink:href="img/2.png"/>
<image preserveAspectRatio="none" x="64" y="67" width="48" height="52" xlink:href="img/3.jpg"/>
<image preserveAspectRatio="none" x="8" y="74" width="39" height="39" xlink:href="img/4.jpg"/>
<image preserveAspectRatio="none" x="75" y="201" width="42" height="42" xlink:href="img/5.jpg"/>
<image preserveAspectRatio="none" x="43" y="210" width="20" height="19" xlink:href="img/6.jpg"/>
<image preserveAspectRatio="none" x="322" y="210" width="20" height="19" xlink:href="img/7.jpg"/>
<image preserveAspectRatio="none" x="50" y="380" width="77" height="76" xlink:href="img/8.jpg"/>
<image preserveAspectRatio="none" x="75" y="459" width="40" height="37" xlink:href="img/9.jpg"/>
<image preserveAspectRatio="none" x="42" y="468" width="20" height="20" xlink:href="img/10.jpg"/>
<image preserveAspectRatio="none" x="321" y="468" width="20" height="20" xlink:href="img/11.jpg"/>
<image preserveAspectRatio="none" x="74" y="765" width="41" height="40" xlink:href="img/12.jpg"/>
<image preserveAspectRatio="none" x="363" y="766" width="40" height="37" xlink:href="img/13.jpg"/>
<image preserveAspectRatio="none" x="333" y="774" width="19" height="19" xlink:href="img/14.jpg"/>
<image preserveAspectRatio="none" x="612" y="774" width="19" height="19" xlink:href="img/15.jpg"/>
<image preserveAspectRatio="none" x="287" y="882" width="100" height="44" xlink:href="img/16.jpg"/>
</svg>