<?xml version="1.0" encoding="UTF-8" standalone="no"?>
<!DOCTYPE svg PUBLIC "-//W3C//DTD SVG 1.1//EN"
"http://www.w3.org/Graphics/SVG/1.1/DTD/svg11.dtd">
<svg viewBox="0 0 909 1286" version="1.1" xmlns="http://www.w3.org/2000/svg" xmlns:xlink="http://www.w3.org/1999/xlink">
<defs>
<clipPath id="c0_4"><path d="M0,375.4V.1H374.9V375.4Z"/></clipPath>
<clipPath id="c1_4"><path d="M374,375.4V.1H750.2V375.4Z"/></clipPath>
<clipPath id="c2_4"><path d="M749.3,858.1V.1H909v858Z"/></clipPath>
<clipPath id="c3_4"><path d="M0,751.1V374.5H374.9V751.1Z"/></clipPath>
<clipPath id="c4_4"><path d="M374.2,751V374.6H750.1V751Z"/></clipPath>
<clipPath id="c5_4"><path d="M0,1126.3V750.1H374.9v376.2Z"/></clipPath>
<clipPath id="c6_4"><path d="M374.2,1126.2v-376H750.1v376Z"/></clipPath>
<clipPath id="c7_4"><path d="M749.3,1286.2v-429H909v429Z"/></clipPath>
<clipPath id="c8_4"><path d="M0,1286.2V1125.4H750.2v160.8Z"/></clipPath>
</defs>
<image clip-path="url(#c0_4)" preserveAspectRatio="none" x="0" y="0" width="375" height="375" xlink:href="img/1.webp"/>
<image clip-path="url(#c1_4)" preserveAspectRatio="none" x="374" y="0" width="376" height="375" xlink:href="img/2.webp"/>
<image clip-path="url(#c2_4)" preserveAspectRatio="none" x="749" y="0" width="162" height="858" xlink:href="img/3.webp"/>
<image clip-path="url(#c3_4)" preserveAspectRatio="none" x="0" y="374" width="375" height="377" xlink:href="img/4.webp"/>
<image clip-path="url(#c4_4)" preserveAspectRatio="none" x="374" y="374" width="376" height="377" xlink:href="img/5.webp"/>
<image clip-path="url(#c5_4)" preserveAspectRatio="none" x="0" y="750" width="375" height="376" xlink:href="img/6.webp"/>
<image clip-path="url(#c6_4)" preserveAspectRatio="none" x="374" y="750" width="376" height="376" xlink:href="img/7.webp"/>
<image clip-path="url(#c7_4)" preserveAspectRatio="none" x="749" y="857" width="162" height="430" xlink:href="img/8.webp"/>
<image clip-path="url(#c8_4)" preserveAspectRatio="none" x="0" y="1125" width="750" height="162" xlink:href="img/9.webp"/>
</svg>