<?xml version="1.0" encoding="UTF-8" standalone="no"?>
<!DOCTYPE svg PUBLIC "-//W3C//DTD SVG 1.1//EN"
"http://www.w3.org/Graphics/SVG/1.1/DTD/svg11.dtd">
<svg viewBox="0 0 908 1285" version="1.1" xmlns="http://www.w3.org/2000/svg" xmlns:xlink="http://www.w3.org/1999/xlink">
<defs>
<clipPath id="c0_40"><path d="M-32.5,291.8v-324H292.3v324Z"/></clipPath>
<clipPath id="c1_40"><path d="M291.5,291.8v-324H617.1v324Z"/></clipPath>
<clipPath id="c2_40"><path d="M616.4,291.8v-324H941.3v324Z"/></clipPath>
<clipPath id="c3_40"><path d="M-32.5,615.9V291.1H292.3V615.9Z"/></clipPath>
<clipPath id="c4_40"><path d="M291.5,615.9V291.1H617.1V615.9Z"/></clipPath>
<clipPath id="c5_40"><path d="M616.4,615.9V291.1H941.3V615.9Z"/></clipPath>
<clipPath id="c6_40"><path d="M-32.5,940.1V615.2H292.3V940.1Z"/></clipPath>
<clipPath id="c7_40"><path d="M616.4,940.1V615.2H941.3V940.1Z"/></clipPath>
<clipPath id="c8_40"><path d="M-32.5,1264.6V939.3H292.3v325.3Z"/></clipPath>
<clipPath id="c9_40"><path d="M616.4,1264.6V939.3H941.3v325.3Z"/></clipPath>
<clipPath id="ca_40"><path d="M-32.5,1317.7v-53.9H941.3v53.9Z"/></clipPath>
</defs>
<image clip-path="url(#c0_40)" preserveAspectRatio="none" x="-32" y="-32" width="324" height="324" xlink:href="img/1.webp"/>
<image clip-path="url(#c1_40)" preserveAspectRatio="none" x="292" y="-32" width="325" height="324" xlink:href="img/2.webp"/>
<image clip-path="url(#c2_40)" preserveAspectRatio="none" x="616" y="-32" width="326" height="324" xlink:href="img/3.webp"/>
<image clip-path="url(#c3_40)" preserveAspectRatio="none" x="-32" y="291" width="324" height="325" xlink:href="img/4.webp"/>
<image clip-path="url(#c4_40)" preserveAspectRatio="none" x="292" y="291" width="325" height="325" xlink:href="img/5.webp"/>
<image clip-path="url(#c5_40)" preserveAspectRatio="none" x="616" y="291" width="326" height="325" xlink:href="img/6.webp"/>
<image clip-path="url(#c6_40)" preserveAspectRatio="none" x="-32" y="615" width="324" height="325" xlink:href="img/7.webp"/>
<image preserveAspectRatio="none" x="292" y="615" width="325" height="325" xlink:href="img/8.webp"/>
<image clip-path="url(#c7_40)" preserveAspectRatio="none" x="616" y="615" width="326" height="325" xlink:href="img/9.webp"/>
<image clip-path="url(#c8_40)" preserveAspectRatio="none" x="-32" y="939" width="324" height="326" xlink:href="img/10.webp"/>
<image preserveAspectRatio="none" x="292" y="939" width="325" height="326" xlink:href="img/11.webp"/>
<image clip-path="url(#c9_40)" preserveAspectRatio="none" x="616" y="939" width="326" height="326" xlink:href="img/12.webp"/>
<image clip-path="url(#ca_40)" preserveAspectRatio="none" x="-32" y="1264" width="974" height="54" xlink:href="img/13.webp"/>
</svg>