<?xml version="1.0" encoding="UTF-8" standalone="no"?>
<!DOCTYPE svg PUBLIC "-//W3C//DTD SVG 1.1//EN"
"http://www.w3.org/Graphics/SVG/1.1/DTD/svg11.dtd">
<svg viewBox="0 0 909 1286" version="1.1" xmlns="http://www.w3.org/2000/svg" xmlns:xlink="http://www.w3.org/1999/xlink">
<defs>
<clipPath id="c0_18"><path d="M39,455V180H430.9V455Z"/></clipPath>
<clipPath id="c1_18"><path d="M477.3,817.5V512.6h392V817.5Z"/></clipPath>
<style type="text/css"><![CDATA[
.g0_18{
fill: none;
stroke: #FFFFFF;
stroke-width: 1.767;
stroke-linecap: butt;
stroke-linejoin: miter;
}
.g1_18{
fill: none;
stroke: #000000;
stroke-width: 0.352;
stroke-linecap: butt;
stroke-linejoin: miter;
}
.g2_18{
fill: none;
stroke: #FFFFFF;
stroke-width: 1.527;
stroke-linecap: butt;
stroke-linejoin: miter;
stroke-miterlimit: 4;
}
.g3_18{
fill: none;
stroke: #000000;
stroke-width: 0.916;
stroke-linecap: butt;
stroke-linejoin: miter;
stroke-miterlimit: 4;
}
]]></style>
</defs>
<image preserveAspectRatio="none" x="-21" y="-21" width="932" height="1329" xlink:href="../1/img/1.png"/>
<image preserveAspectRatio="none" x="-1479" y="-794" width="2806" height="2403" xlink:href="img/2.png"/>
<image preserveAspectRatio="none" x="208" y="337" width="24" height="24" xlink:href="img/3.png"/>
<g clip-path="url(#c0_18)">
<path d="M-1487.9,-795.1h-21.2m2844.2,0h21.2M-1487.9,1610h-21.2m2844.2,0h21.2M-1479.4,-803.6v-21.2m0,2443.3v21.2m2806,-2443.3v-21.2m0,2443.3v21.2" class="g0_18"/>
<path d="M-1487.9,-795.1h-21.2m2844.2,0h21.2M-1487.9,1610h-21.2m2844.2,0h21.2M-1479.4,-803.6v-21.2m0,2443.3v21.2m2806,-2443.3v-21.2m0,2443.3v21.2" class="g1_18"/>
</g>
<image preserveAspectRatio="none" x="24" y="168" width="865" height="308" xlink:href="img/4.png"/>
<image preserveAspectRatio="none" x="27" y="169" width="855" height="300" xlink:href="img/5.png"/>
<image preserveAspectRatio="none" x="327" y="307" width="96" height="119" xlink:href="img/6.png"/>
<image preserveAspectRatio="none" x="319" y="301" width="101" height="118" xlink:href="img/7.png"/>
<image preserveAspectRatio="none" x="150" y="206" width="93" height="122" xlink:href="img/8.png"/>
<image preserveAspectRatio="none" x="137" y="189" width="118" height="139" xlink:href="img/9.png"/>
<image preserveAspectRatio="none" x="162" y="318" width="93" height="126" xlink:href="img/10.png"/>
<image preserveAspectRatio="none" x="151" y="310" width="99" height="128" xlink:href="img/11.png"/>
<image preserveAspectRatio="none" x="67" y="258" width="95" height="122" xlink:href="img/12.png"/>
<image preserveAspectRatio="none" x="55" y="241" width="119" height="139" xlink:href="img/13.png"/>
<image preserveAspectRatio="none" x="481" y="338" width="158" height="86" xlink:href="img/14.png"/>
<image preserveAspectRatio="none" x="450" y="327" width="123" height="119" xlink:href="img/15.png"/>
<image preserveAspectRatio="none" x="529" y="403" width="41" height="41" xlink:href="img/16.png"/>
<path d="M472.6,426.2l-.5,.1c-1.2,.9,-3.1,1.4,-5.7,1.4c-1.1,0,-1.8,0,-2,-.2l-.2,-.4c.1,-.2,.1,-.5,.1,-.8c-.1,-.3,-.2,-.5,-.5,-.5c-.2,0,-.4,.1,-.6,.4c-.1,.2,-.3,.3,-.5,.3c-.3,0,-.5,-.1,-.5,-.3c-.7,-2.1,-1.1,-3.5,-1.1,-4.3c.1,-.4,.2,-.7,.3,-.9l.4,-.2c.2,.1,.4,.1,.5,.3l.4,.2l.4,-.2l.3,-.4l.4,-.2l.5,.2c.2,1.1,.4,2.1,.6,3.1c.4,1.8,.7,2.6,1.1,2.6h.8c.7,0,1.2,0,1.4,0c.5,-.1,.8,-2.1,.8,-6c0,-.3,-.1,-.7,-.2,-1.3c0,-.6,-.1,-1.1,-.1,-1.3c0,-.1,0,-.3,.1,-.4v-.3l-.4,-.3c0,-.1,-.1,-.1,-.3,-.2c-.2,-.1,-.4,-.1,-.4,-.2h-.5c-1,.2,-1.8,.3,-2.5,.3l-.5,-.2l-.1,-.4l.2,-.4l.4,-.2c1.6,0,3,-.4,4.4,-1.3c.2,-.1,.3,-.8,.3,-2.1v-2.3c.1,-3.3,-.1,-4.9,-.8,-5c-.8,0,-1.7,.1,-2.7,.4l-.4,.4c-.3,1.1,-.4,2.3,-.4,3.4c0,1.5,-.3,2.2,-.8,2.2c-.3,0,-.5,-.3,-.7,-1c-.1,-.6,-.3,-1,-.7,-1c-.2,0,-.4,.3,-.5,.8c0,.4,-.1,.8,-.1,1.2l-.2,.4l-.5,.1c-.5,-.1,-.7,-1.1,-.7,-3.1c0,-.4,0,-.9,.1,-1.6v-1.5l.1,-.4l.4,-.2c.6,.1,.9,-.1,1.1,-.6c.1,-.5,.3,-.7,.6,-.7c.2,0,.4,.1,.5,.4c.2,.3,.4,.4,.6,.4c.1,0,.3,-.1,.4,-.2c.2,-.2,.4,-.3,.6,-.3c-.1,.1,.1,.1,.5,.1c1,-.3,2.2,-.4,3.5,-.4c1.2,0,2.9,.1,5,.4c.4,0,.6,.2,.6,.7c0,.2,-.2,.3,-.6,.4c-.4,.1,-.5,.3,-.5,.5v8.7c0,.4,-.2,.6,-.6,.6c-.4,0,-.5,-.1,-.6,-.4l-.3,-.3h-.4c-1.5,.6,-2.2,1.1,-2.2,1.4c-.1,.2,.4,.5,1.4,1.1c1.2,.6,1.8,1,2,1.1c.6,.6,1,2.1,1,4.7c0,.6,0,1.8,-.1,3.7l-.2,.4l-.4,.1c-.3,-.1,-.4,-.1,-.5,-.3l-.3,-.2Z" class="g2_18"/>
<image preserveAspectRatio="none" x="466" y="348" width="46" height="44" xlink:href="img/17.png"/>
<image preserveAspectRatio="none" x="461" y="340" width="51" height="53" xlink:href="img/18.png"/>
<image preserveAspectRatio="none" x="646" y="344" width="84" height="88" xlink:href="img/19.png"/>
<image preserveAspectRatio="none" x="648" y="345" width="75" height="78" xlink:href="img/20.png"/>
<image preserveAspectRatio="none" x="710" y="344" width="86" height="87" xlink:href="img/21.png"/>
<image preserveAspectRatio="none" x="713" y="345" width="75" height="79" xlink:href="img/22.png"/>
<image preserveAspectRatio="none" x="776" y="344" width="84" height="87" xlink:href="img/23.png"/>
<image preserveAspectRatio="none" x="778" y="345" width="75" height="79" xlink:href="img/24.png"/>
<image preserveAspectRatio="none" x="727" y="376" width="53" height="68" xlink:href="img/25.png"/>
<image preserveAspectRatio="none" x="652" y="376" width="53" height="68" xlink:href="img/26.png"/>
<image preserveAspectRatio="none" x="-1039" y="-466" width="2805" height="2404" xlink:href="img/27.png"/>
<image preserveAspectRatio="none" x="648" y="665" width="23" height="24" xlink:href="img/28.png"/>
<g clip-path="url(#c1_18)">
<path d="M-1048.5,-466.9h-21.2m2844.2,0h21.2M-1048.5,1938.2h-21.2m2844.2,0h21.2M-1040,-475.4v-21.2m0,2443.3v21.2M1766,-475.4v-21.2m0,2443.3v21.2" class="g0_18"/>
<path d="M-1048.5,-466.9h-21.2m2844.2,0h21.2M-1048.5,1938.2h-21.2m2844.2,0h21.2M-1040,-475.4v-21.2m0,2443.3v21.2M1766,-475.4v-21.2m0,2443.3v21.2" class="g1_18"/>
</g>
<image preserveAspectRatio="none" x="21" y="499" width="865" height="344" xlink:href="img/29.png"/>
<image preserveAspectRatio="none" x="24" y="501" width="855" height="333" xlink:href="img/30.png"/>
<image preserveAspectRatio="none" x="594" y="715" width="126" height="93" xlink:href="img/31.png"/>
<image preserveAspectRatio="none" x="588" y="707" width="129" height="100" xlink:href="img/32.png"/>
<image preserveAspectRatio="none" x="767" y="635" width="96" height="120" xlink:href="img/33.png"/>
<image preserveAspectRatio="none" x="759" y="629" width="101" height="118" xlink:href="img/34.png"/>
<image preserveAspectRatio="none" x="248" y="700" width="84" height="87" xlink:href="img/35.png"/>
<image preserveAspectRatio="none" x="249" y="700" width="76" height="78" xlink:href="img/36.png"/>
<image preserveAspectRatio="none" x="312" y="700" width="85" height="87" xlink:href="img/37.png"/>
<image preserveAspectRatio="none" x="314" y="700" width="76" height="80" xlink:href="img/38.png"/>
<image preserveAspectRatio="none" x="377" y="700" width="84" height="87" xlink:href="img/39.png"/>
<image preserveAspectRatio="none" x="379" y="700" width="76" height="80" xlink:href="img/40.png"/>
<image preserveAspectRatio="none" x="512" y="544" width="114" height="93" xlink:href="img/41.png"/>
<image preserveAspectRatio="none" x="495" y="509" width="144" height="132" xlink:href="img/42.png"/>
<image preserveAspectRatio="none" x="492" y="645" width="95" height="126" xlink:href="img/43.png"/>
<image preserveAspectRatio="none" x="489" y="639" width="93" height="124" xlink:href="img/44.png"/>
<image preserveAspectRatio="none" x="82" y="690" width="158" height="86" xlink:href="img/45.png"/>
<image preserveAspectRatio="none" x="51" y="680" width="123" height="119" xlink:href="img/46.png"/>
<image preserveAspectRatio="none" x="130" y="755" width="41" height="41" xlink:href="img/47.png"/>
<path d="M73.5,772.9l-.4,.1c-1.3,1,-3.2,1.4,-5.8,1.4c-1,0,-1.7,0,-2,-.1l-.2,-.5c.1,-.2,.2,-.5,.2,-.8c-.1,-.3,-.3,-.5,-.5,-.5c-.3,0,-.4,.1,-.6,.4c-.2,.2,-.4,.3,-.5,.3c-.3,0,-.5,-.1,-.6,-.3c-.7,-2.1,-1,-3.5,-1,-4.2c.1,-.4,.1,-.7,.2,-1l.4,-.2c.3,.1,.4,.2,.5,.3l.5,.2l.4,-.2l.2,-.4l.5,-.2l.4,.2h.1c.1,1.1,.3,2.1,.6,3.1c.3,1.8,.7,2.7,1,2.7h.8c.7,0,1.2,-.1,1.5,-.1c.5,0,.7,-2,.7,-5.9c0,-.3,0,-.8,-.1,-1.4c-.1,-.6,-.1,-1,-.1,-1.3c0,-.1,0,-.2,0,-.4v-.3l-.3,-.3c-.1,0,-.2,-.1,-.4,-.2c-.2,-.1,-.3,-.1,-.4,-.1l-.5,-.1c-.9,.2,-1.8,.3,-2.5,.3l-.4,-.1l-.2,-.5l.2,-.4l.4,-.1c1.6,0,3.1,-.5,4.5,-1.4c.2,-.1,.3,-.8,.3,-2.1v-2.3c.1,-3.3,-.2,-4.9,-.8,-4.9c-.9,-.1,-1.8,.1,-2.8,.3l-.3,.4c-.3,1.1,-.5,2.3,-.5,3.4c0,1.5,-.2,2.2,-.7,2.2c-.3,0,-.6,-.3,-.7,-1c-.1,-.6,-.4,-.9,-.7,-.9c-.3,0,-.5,.2,-.6,.7c0,.4,0,.8,-.1,1.2l-.2,.4l-.4,.1c-.5,-.1,-.7,-1.1,-.7,-3.1c0,-.4,0,-.9,0,-1.6v-1.5l.2,-.4l.4,-.2c.5,.1,.9,-.1,1,-.6c.1,-.4,.3,-.7,.6,-.7c.2,0,.4,.2,.6,.4c.2,.3,.3,.5,.6,.5c.1,0,.2,-.1,.4,-.3c.2,-.2,.3,-.2,.5,-.2c-.1,0,.1,0,.6,0c1,-.2,2.1,-.4,3.4,-.4c1.2,0,2.9,.2,5.1,.4c.3,0,.5,.3,.5,.7c0,.2,-.2,.4,-.5,.4c-.4,.1,-.6,.3,-.6,.5v8.8c0,.4,-.2,.6,-.6,.6c-.3,0,-.5,-.2,-.5,-.5l-.4,-.3h-.4c-1.4,.6,-2.2,1.1,-2.2,1.4c0,.2,.5,.5,1.5,1.1c1.2,.6,1.8,1,1.9,1.1c.7,.6,1,2.2,1.1,4.8c0,.5,-.1,1.7,-.1,3.6l-.2,.4l-.5,.1c-.2,0,-.4,-.1,-.5,-.2h.1l-.4,-.3Z" class="g2_18"/>
<image preserveAspectRatio="none" x="67" y="695" width="46" height="44" xlink:href="img/48.png"/>
<image preserveAspectRatio="none" x="62" y="687" width="51" height="53" xlink:href="img/49.png"/>
<image preserveAspectRatio="none" x="259" y="727" width="53" height="69" xlink:href="img/50.png"/>
<image preserveAspectRatio="none" x="477" y="403" width="46" height="44" xlink:href="img/51.png"/>
<image preserveAspectRatio="none" x="469" y="394" width="53" height="54" xlink:href="img/52.png"/>
<image preserveAspectRatio="none" x="90" y="721" width="49" height="44" xlink:href="img/53.png"/>
<image preserveAspectRatio="none" x="90" y="719" width="44" height="40" xlink:href="img/54.png"/>
<image preserveAspectRatio="none" x="510" y="362" width="45" height="46" xlink:href="img/55.png"/>
<image preserveAspectRatio="none" x="502" y="353" width="53" height="54" xlink:href="img/56.png"/>
<image preserveAspectRatio="none" x="90" y="773" width="49" height="46" xlink:href="img/57.png"/>
<image preserveAspectRatio="none" x="90" y="772" width="44" height="40" xlink:href="img/58.png"/>
<image preserveAspectRatio="none" x="-1" y="797" width="912" height="491" xlink:href="img/59.png"/>
<path d="M56.3,76.6H439.6" class="g3_18"/>
<image preserveAspectRatio="none" x="523" y="70" width="297" height="61" xlink:href="img/60.png"/>
<image preserveAspectRatio="none" x="524" y="71" width="291" height="52" xlink:href="img/61.png"/>
<image preserveAspectRatio="none" x="260" y="226" width="94" height="154" xlink:href="img/62.png"/>
<image preserveAspectRatio="none" x="246" y="214" width="134" height="167" xlink:href="img/63.png"/>
<image preserveAspectRatio="none" x="698" y="551" width="95" height="155" xlink:href="img/64.png"/>
<image preserveAspectRatio="none" x="684" y="539" width="134" height="167" xlink:href="img/65.png"/>
<image preserveAspectRatio="none" x="603" y="602" width="94" height="98" xlink:href="img/66.png"/>
<image preserveAspectRatio="none" x="597" y="595" width="96" height="97" xlink:href="img/67.png"/>
</svg>