<?xml version="1.0" encoding="UTF-8" standalone="no"?>
<!DOCTYPE svg PUBLIC "-//W3C//DTD SVG 1.1//EN"
"http://www.w3.org/Graphics/SVG/1.1/DTD/svg11.dtd">
<svg viewBox="0 0 909 1286" version="1.1" xmlns="http://www.w3.org/2000/svg" xmlns:xlink="http://www.w3.org/1999/xlink">
<defs>
<style type="text/css"><![CDATA[
.g0_3{
fill: none;
stroke: #000000;
stroke-width: 0.916;
stroke-linecap: butt;
stroke-linejoin: miter;
stroke-miterlimit: 4;
}
]]></style>
</defs>
<image preserveAspectRatio="none" x="-1" y="-21" width="932" height="1329" xlink:href="../1/img/1.png"/>
<image preserveAspectRatio="none" x="0" y="586" width="14" height="725" xlink:href="img/2.png"/>
<image preserveAspectRatio="none" x="102" y="26" width="706" height="52" xlink:href="img/3.png"/>
<image preserveAspectRatio="none" x="228" y="148" width="148" height="156" xlink:href="img/4.png"/>
<image preserveAspectRatio="none" x="226" y="144" width="148" height="155" xlink:href="img/5.png"/>
<image preserveAspectRatio="none" x="121" y="143" width="102" height="161" xlink:href="img/6.png"/>
<image preserveAspectRatio="none" x="119" y="140" width="101" height="159" xlink:href="img/7.png"/>
<image preserveAspectRatio="none" x="277" y="736" width="48" height="46" xlink:href="img/8.png"/>
<image preserveAspectRatio="none" x="277" y="735" width="44" height="40" xlink:href="img/9.png"/>
<image preserveAspectRatio="none" x="277" y="736" width="48" height="46" xlink:href="img/10.png"/>
<image preserveAspectRatio="none" x="277" y="735" width="44" height="40" xlink:href="img/11.png"/>
<image preserveAspectRatio="none" x="133" y="771" width="44" height="45" xlink:href="img/12.png"/>
<image preserveAspectRatio="none" x="126" y="766" width="53" height="50" xlink:href="img/13.png"/>
<image preserveAspectRatio="none" x="223" y="781" width="47" height="45" xlink:href="img/14.png"/>
<image preserveAspectRatio="none" x="221" y="778" width="47" height="44" xlink:href="img/15.png"/>
<image preserveAspectRatio="none" x="316" y="712" width="45" height="44" xlink:href="img/16.png"/>
<image preserveAspectRatio="none" x="310" y="706" width="52" height="51" xlink:href="img/17.png"/>
<image preserveAspectRatio="none" x="289" y="781" width="47" height="45" xlink:href="img/18.png"/>
<image preserveAspectRatio="none" x="289" y="780" width="43" height="40" xlink:href="img/19.png"/>
<image preserveAspectRatio="none" x="183" y="773" width="48" height="44" xlink:href="img/20.png"/>
<image preserveAspectRatio="none" x="183" y="771" width="44" height="40" xlink:href="img/21.png"/>
<image preserveAspectRatio="none" x="211" y="698" width="47" height="44" xlink:href="img/22.png"/>
<image preserveAspectRatio="none" x="205" y="691" width="53" height="53" xlink:href="img/23.png"/>
<image preserveAspectRatio="none" x="252" y="738" width="44" height="44" xlink:href="img/24.png"/>
<image preserveAspectRatio="none" x="244" y="728" width="53" height="54" xlink:href="img/25.png"/>
<image preserveAspectRatio="none" x="174" y="709" width="46" height="49" xlink:href="img/26.png"/>
<image preserveAspectRatio="none" x="175" y="707" width="39" height="44" xlink:href="img/27.png"/>
<image preserveAspectRatio="none" x="255" y="776" width="49" height="44" xlink:href="img/28.png"/>
<image preserveAspectRatio="none" x="254" y="773" width="46" height="43" xlink:href="img/29.png"/>
<image preserveAspectRatio="none" x="286" y="698" width="44" height="47" xlink:href="img/30.png"/>
<image preserveAspectRatio="none" x="279" y="691" width="53" height="53" xlink:href="img/31.png"/>
<image preserveAspectRatio="none" x="209" y="756" width="48" height="46" xlink:href="img/32.png"/>
<image preserveAspectRatio="none" x="206" y="749" width="49" height="52" xlink:href="img/33.png"/>
<image preserveAspectRatio="none" x="232" y="703" width="49" height="44" xlink:href="img/34.png"/>
<image preserveAspectRatio="none" x="234" y="703" width="42" height="37" xlink:href="img/35.png"/>
<image preserveAspectRatio="none" x="167" y="735" width="45" height="46" xlink:href="img/36.png"/>
<image preserveAspectRatio="none" x="160" y="730" width="53" height="50" xlink:href="img/37.png"/>
<path d="M56.3,123.4H439.6M56.3,424.4H439.6M56.3,681H439.6M56.3,918.1H439.6M469.9,123.4H853.1" class="g0_3"/>
<image preserveAspectRatio="none" x="134" y="949" width="228" height="105" xlink:href="img/38.png"/>
<image preserveAspectRatio="none" x="126" y="938" width="240" height="119" xlink:href="img/39.png"/>
<image preserveAspectRatio="none" x="487" y="435" width="355" height="206" xlink:href="img/40.png"/>
<image preserveAspectRatio="none" x="488" y="434" width="348" height="202" xlink:href="img/41.png"/>
<path d="M469.9,414.7H853.1M469.9,747H853.1" class="g0_3"/>
<image preserveAspectRatio="none" x="628" y="765" width="72" height="72" xlink:href="img/42.png"/>
<image preserveAspectRatio="none" x="630" y="765" width="63" height="63" xlink:href="img/43.png"/>
<path d="M469.9,927.2H853.1" class="g0_3"/>
<image preserveAspectRatio="none" x="512" y="947" width="99" height="145" xlink:href="img/44.png"/>
<image preserveAspectRatio="none" x="514" y="947" width="90" height="137" xlink:href="img/45.png"/>
<image preserveAspectRatio="none" x="614" y="947" width="101" height="145" xlink:href="img/46.png"/>
<image preserveAspectRatio="none" x="616" y="947" width="91" height="137" xlink:href="img/47.png"/>
<image preserveAspectRatio="none" x="717" y="947" width="100" height="145" xlink:href="img/48.png"/>
<image preserveAspectRatio="none" x="719" y="947" width="91" height="137" xlink:href="img/49.png"/>
<image preserveAspectRatio="none" x="150" y="434" width="130" height="157" xlink:href="img/50.png"/>
<image preserveAspectRatio="none" x="152" y="434" width="121" height="148" xlink:href="img/51.png"/>
<image preserveAspectRatio="none" x="222" y="434" width="129" height="157" xlink:href="img/52.png"/>
<image preserveAspectRatio="none" x="223" y="434" width="121" height="149" xlink:href="img/53.png"/>
<image preserveAspectRatio="none" x="477" y="131" width="201" height="177" xlink:href="img/54.png"/>
<image preserveAspectRatio="none" x="476" y="129" width="198" height="173" xlink:href="img/55.png"/>
<image preserveAspectRatio="none" x="643" y="130" width="206" height="181" xlink:href="img/56.png"/>
<image preserveAspectRatio="none" x="645" y="130" width="198" height="173" xlink:href="img/57.png"/>
</svg>