<?xml version="1.0" encoding="UTF-8" standalone="no"?>
<!DOCTYPE svg PUBLIC "-//W3C//DTD SVG 1.1//EN"
"http://www.w3.org/Graphics/SVG/1.1/DTD/svg11.dtd">
<svg viewBox="0 0 908 1285" version="1.1" xmlns="http://www.w3.org/2000/svg" xmlns:xlink="http://www.w3.org/1999/xlink">
<defs>
<clipPath id="c0_22"><path d="M-33.5,236.9V-33.6H237.6V236.9Z"/></clipPath>
<clipPath id="c1_22"><path d="M237,236.9V-33.6H508.9V236.9Z"/></clipPath>
<clipPath id="c2_22"><path d="M508.2,236.9V-33.6H780.1V236.9Z"/></clipPath>
<clipPath id="c3_22"><path d="M779.4,453.7V-33.6H942.2V453.7Z"/></clipPath>
<clipPath id="c4_22"><path d="M-33.5,507.7V236.2H237.6V507.7Z"/></clipPath>
<clipPath id="c5_22"><path d="M237,507.7V236.2H508.9V507.7Z"/></clipPath>
<clipPath id="c6_22"><path d="M779.4,940.8V453.1H942.2V940.8Z"/></clipPath>
<clipPath id="c7_22"><path d="M-33.5,778.3V507.1H237.6V778.3Z"/></clipPath>
<clipPath id="c8_22"><path d="M237,778.3V507.1H508.9V778.3Z"/></clipPath>
<clipPath id="c9_22"><path d="M-33.5,1049.2V777.7H237.6v271.5Z"/></clipPath>
<clipPath id="ca_22"><path d="M237,1049.2V777.7H508.9v271.5Z"/></clipPath>
<clipPath id="cb_22"><path d="M779.4,1319.2v-379H942.2v379Z"/></clipPath>
<clipPath id="cc_22"><path d="M-33.5,1319.2V1048.6H237.6v270.6Z"/></clipPath>
<clipPath id="cd_22"><path d="M237,1319.2V1048.6H508.9v270.6Z"/></clipPath>
<clipPath id="ce_22"><path d="M508.2,1319.2V1048.6H780.1v270.6Z"/></clipPath>
</defs>
<image clip-path="url(#c0_22)" preserveAspectRatio="none" x="-33" y="-33" width="271" height="270" xlink:href="img/1.webp"/>
<image clip-path="url(#c1_22)" preserveAspectRatio="none" x="237" y="-33" width="272" height="270" xlink:href="img/2.webp"/>
<image clip-path="url(#c2_22)" preserveAspectRatio="none" x="508" y="-33" width="272" height="270" xlink:href="img/3.webp"/>
<image clip-path="url(#c3_22)" preserveAspectRatio="none" x="779" y="-33" width="164" height="487" xlink:href="img/4.webp"/>
<image clip-path="url(#c4_22)" preserveAspectRatio="none" x="-33" y="236" width="271" height="272" xlink:href="img/5.webp"/>
<image clip-path="url(#c5_22)" preserveAspectRatio="none" x="237" y="236" width="272" height="272" xlink:href="img/6.webp"/>
<image preserveAspectRatio="none" x="508" y="236" width="272" height="272" xlink:href="img/7.webp"/>
<image clip-path="url(#c6_22)" preserveAspectRatio="none" x="779" y="453" width="164" height="488" xlink:href="img/8.webp"/>
<image clip-path="url(#c7_22)" preserveAspectRatio="none" x="-33" y="507" width="271" height="271" xlink:href="img/9.webp"/>
<image clip-path="url(#c8_22)" preserveAspectRatio="none" x="237" y="507" width="272" height="271" xlink:href="img/10.webp"/>
<image preserveAspectRatio="none" x="508" y="507" width="272" height="271" xlink:href="img/11.webp"/>
<image clip-path="url(#c9_22)" preserveAspectRatio="none" x="-33" y="778" width="271" height="271" xlink:href="img/12.webp"/>
<image clip-path="url(#ca_22)" preserveAspectRatio="none" x="237" y="778" width="272" height="271" xlink:href="img/13.webp"/>
<image preserveAspectRatio="none" x="508" y="778" width="272" height="271" xlink:href="img/14.webp"/>
<image clip-path="url(#cb_22)" preserveAspectRatio="none" x="779" y="940" width="164" height="380" xlink:href="img/15.webp"/>
<image clip-path="url(#cc_22)" preserveAspectRatio="none" x="-33" y="1049" width="271" height="271" xlink:href="img/16.webp"/>
<image clip-path="url(#cd_22)" preserveAspectRatio="none" x="237" y="1049" width="272" height="271" xlink:href="img/17.webp"/>
<image clip-path="url(#ce_22)" preserveAspectRatio="none" x="508" y="1049" width="272" height="271" xlink:href="img/18.webp"/>
</svg>