<?xml version="1.0" encoding="UTF-8" standalone="no"?>
<!DOCTYPE svg PUBLIC "-//W3C//DTD SVG 1.1//EN"
"http://www.w3.org/Graphics/SVG/1.1/DTD/svg11.dtd">
<svg viewBox="0 0 909 1286" version="1.1" xmlns="http://www.w3.org/2000/svg" xmlns:xlink="http://www.w3.org/1999/xlink">
<defs>
<clipPath id="c0_10"><path d="M386.9,779.5V556.9H874.8V779.5Z"/></clipPath>
<clipPath id="c1_10"><path d="M574.5,1192.2V997H866.8v195.2Z"/></clipPath>
<clipPath id="c2_10"><path d="M790,901.7c-8.6,0,-8.7,-8.5,-8.7,-8.7V787.9c0,-8.7,8.7,-8.7,8.7,-8.7h63.9c8.6,0,8.6,8.7,8.6,8.7V893c0,8.7,-8.6,8.7,-8.6,8.7Z"/></clipPath>
<style type="text/css"><![CDATA[
.g0_10{
}
.g1_10{
fill: none;
stroke: #FFFFFF;
stroke-width: 1.243;
stroke-linecap: butt;
stroke-linejoin: miter;
stroke-miterlimit: 4;
}
.g2_10{
fill: none;
stroke: #FFFFFF;
stroke-width: 1.306;
stroke-linecap: butt;
stroke-linejoin: miter;
stroke-miterlimit: 4;
}
.g3_10{
fill: none;
stroke: #FFFFFF;
stroke-width: 1.527;
stroke-linecap: butt;
stroke-linejoin: miter;
stroke-miterlimit: 4;
}
.g4_10{
fill: none;
stroke: #000000;
stroke-width: 0.916;
stroke-linecap: butt;
stroke-linejoin: miter;
stroke-miterlimit: 4;
}
.g5_10{
fill: none;
stroke: #FFFFFF;
stroke-width: 1.297;
stroke-linecap: butt;
stroke-linejoin: miter;
}
.g6_10{
fill: none;
stroke: #000000;
stroke-width: 0.259;
stroke-linecap: butt;
stroke-linejoin: miter;
}
.g7_10{
fill: #FFFFFF;
}
.g8_10{
fill: none;
stroke: #FFFFFF;
stroke-width: 0.409;
stroke-linecap: butt;
stroke-linejoin: miter;
stroke-miterlimit: 4;
}
.g9_10{
fill: none;
stroke: #CD071E;
stroke-width: 3.055;
stroke-linecap: butt;
stroke-linejoin: miter;
stroke-miterlimit: 4;
}
.ga_10{
fill: none;
stroke: #FFFFFF;
stroke-width: 0.916;
stroke-linecap: butt;
stroke-linejoin: miter;
stroke-miterlimit: 4;
}
]]></style>
</defs>
<image preserveAspectRatio="none" x="-21" y="-21" width="932" height="1329" xlink:href="../1/img/1.png"/>
<image preserveAspectRatio="none" x="380" y="323" width="23" height="23" xlink:href="img/2.png"/>
<path d="M579,246.1c6.7,-.2,11.9,-5.9,11.7,-12.6c-.2,-6.7,-5.9,-11.9,-12.6,-11.7c-6.7,.2,-12,5.9,-11.7,12.6c.2,6.7,5.8,11.9,12.6,11.7Z" class="g0_10"/>
<path d="M579,246.1c6.7,-.2,11.9,-5.9,11.7,-12.6c-.2,-6.7,-5.9,-11.9,-12.6,-11.7c-6.7,.2,-12,5.9,-11.7,12.6c.2,6.7,5.8,11.9,12.6,11.7Z" class="g1_10"/>
<path d="M771.5,403.6c7,0,12.7,-5.8,12.7,-12.8c0,-7.1,-5.7,-12.8,-12.7,-12.8c-7.1,0,-12.8,5.7,-12.8,12.8c0,7,5.7,12.8,12.8,12.8Z" class="g0_10"/>
<path d="M771.5,403.6c7,0,12.7,-5.8,12.7,-12.8c0,-7.1,-5.7,-12.8,-12.7,-12.8c-7.1,0,-12.8,5.7,-12.8,12.8c0,7,5.7,12.8,12.8,12.8Z" class="g2_10"/>
<image preserveAspectRatio="none" x="68" y="90" width="123" height="118" xlink:href="img/3.png"/>
<image preserveAspectRatio="none" x="147" y="164" width="41" height="41" xlink:href="img/4.png"/>
<path d="M89.7,182.9l-.1,-.4c0,.3,0,-.2,.1,-1.4c0,-.9,0,-1.6,-.1,-2.1c-.1,-.7,-.3,-1.1,-.6,-1.1c-.4,0,-.6,.5,-.6,1.5c0,.5,0,1.1,0,1.7c-.1,.8,-.3,1.2,-.7,1.2l-.5,-.1l-.1,-.4c.2,-2.9,.4,-5.7,.5,-8.6l-.1,-.4l-.5,-.1c-1.5,.3,-3.4,.5,-5.7,.7c-.5,0,-.7,0,-.9,.2l-.4,.2l-.4,-.2l-.2,-.4c-.4,-3.7,-.7,-6.4,-.7,-8.3c0,-3.3,.4,-4.9,1.1,-4.8c.3,.2,.5,.3,.6,.4l.8,-.4l.5,.2l.1,.4c.4,4.9,.8,8.5,1.2,10.9l.2,.3l.4,.2c1.9,-.3,3.1,-.5,3.8,-.7c.3,-.2,.4,-2.2,.4,-6.1v-4c.1,-.5,.2,-.7,.6,-.8c.2,-.1,.3,-.2,.5,-.4c.1,-.3,.3,-.4,.5,-.4c.2,.1,.4,.2,.5,.4c.2,.1,.3,.2,.4,.3h.4l.2,-.1l.4,.2l.2,.4V163c0,1.9,-.1,4.8,-.2,8.6c0,3.8,-.1,6.7,-.1,8.6c-.1,.2,-.2,.5,-.3,.7c-.1,.3,-.1,.5,-.1,.6c0,1.1,-.3,1.6,-.7,1.6h.1l-.5,-.2Z" class="g3_10"/>
<path d="M72.2,210.4c8.3,0,15,-6.7,15,-15c0,-8.2,-6.7,-14.9,-15,-14.9c-8.2,0,-14.9,6.7,-14.9,14.9c0,8.3,6.7,15,14.9,15Z" class="g0_10"/>
<path d="M72.2,210.4c8.3,0,15,-6.7,15,-15c0,-8.2,-6.7,-14.9,-15,-14.9c-8.2,0,-14.9,6.7,-14.9,14.9c0,8.3,6.7,15,14.9,15Z" class="g3_10"/>
<path d="M149.3,175.6c8.3,0,15,-6.7,15,-14.9c0,-8.3,-6.7,-15,-15,-15c-8.2,0,-14.9,6.7,-14.9,15c0,8.2,6.7,14.9,14.9,14.9Z" class="g0_10"/>
<path d="M149.3,175.6c8.3,0,15,-6.7,15,-14.9c0,-8.3,-6.7,-15,-15,-15c-8.2,0,-14.9,6.7,-14.9,15c0,8.2,6.7,14.9,14.9,14.9Z" class="g3_10"/>
<path d="M56.3,73.8H853.1" class="g4_10"/>
<image preserveAspectRatio="none" x="-1" y="426" width="868" height="75" xlink:href="img/5.png"/>
<image preserveAspectRatio="none" x="-6" y="385" width="2058" height="1765" xlink:href="img/6.png"/>
<image preserveAspectRatio="none" x="864" y="616" width="17" height="17" xlink:href="img/7.png"/>
<image preserveAspectRatio="none" x="537" y="748" width="17" height="18" xlink:href="img/8.png"/>
<g clip-path="url(#c0_10)">
<path d="M-13.6,385.1H-29.2m2087.8,0h15.6M-13.6,2150.7H-29.2m2087.8,0h15.6M-7.4,378.8V363.3m0,1793.6v15.6M2052.4,378.8V363.3m0,1793.6v15.6" class="g5_10"/>
<path d="M-13.6,385.1H-29.2m2087.8,0h15.6M-13.6,2150.7H-29.2m2087.8,0h15.6M-7.4,378.8V363.3m0,1793.6v15.6M2052.4,378.8V363.3m0,1793.6v15.6" class="g6_10"/>
</g>
<image preserveAspectRatio="none" x="-126" y="811" width="2059" height="1765" xlink:href="img/9.png"/>
<image preserveAspectRatio="none" x="745" y="1042" width="17" height="17" xlink:href="img/10.png"/>
<g clip-path="url(#c1_10)">
<path d="M-132.9,810.9h-15.6m2087.9,0h15.5M-132.9,2576.5h-15.6m2087.9,0h15.5M-126.7,804.6V789.1m0,1793.6v15.6M1933.1,804.6V789.1m0,1793.6v15.6" class="g5_10"/>
<path d="M-132.9,810.9h-15.6m2087.9,0h15.5M-132.9,2576.5h-15.6m2087.9,0h15.5M-126.7,804.6V789.1m0,1793.6v15.6M1933.1,804.6V789.1m0,1793.6v15.6" class="g6_10"/>
</g>
<image preserveAspectRatio="none" x="691" y="1010" width="114" height="169" xlink:href="img/11.png"/>
<image preserveAspectRatio="none" x="692" y="1011" width="107" height="160" xlink:href="img/12.png"/>
<image preserveAspectRatio="none" x="613" y="1034" width="126" height="83" xlink:href="img/13.png"/>
<image preserveAspectRatio="none" x="611" y="1006" width="121" height="127" xlink:href="img/14.png"/>
<image preserveAspectRatio="none" x="516" y="692" width="81" height="79" xlink:href="img/15.png"/>
<image preserveAspectRatio="none" x="498" y="676" width="103" height="97" xlink:href="img/16.png"/>
<image preserveAspectRatio="none" x="535" y="556" width="198" height="192" xlink:href="img/17.png"/>
<image preserveAspectRatio="none" x="517" y="532" width="227" height="225" xlink:href="img/18.png"/>
<image preserveAspectRatio="none" x="20" y="535" width="874" height="679" xlink:href="img/19.png"/>
<image preserveAspectRatio="none" x="22" y="535" width="865" height="671" xlink:href="img/20.png"/>
<image preserveAspectRatio="none" x="323" y="829" width="28" height="28" xlink:href="img/21.png"/>
<image preserveAspectRatio="none" x="347" y="829" width="29" height="28" xlink:href="img/22.png"/>
<image preserveAspectRatio="none" x="372" y="829" width="28" height="28" xlink:href="img/23.png"/>
<image preserveAspectRatio="none" x="528" y="829" width="28" height="29" xlink:href="img/24.png"/>
<image preserveAspectRatio="none" x="726" y="594" width="120" height="80" xlink:href="img/25.png"/>
<image preserveAspectRatio="none" x="724" y="567" width="115" height="122" xlink:href="img/26.png"/>
<image preserveAspectRatio="none" x="451" y="593" width="82" height="126" xlink:href="img/27.png"/>
<image preserveAspectRatio="none" x="443" y="585" width="83" height="127" xlink:href="img/28.png"/>
<image preserveAspectRatio="none" x="311" y="891" width="126" height="68" xlink:href="img/29.png"/>
<image preserveAspectRatio="none" x="286" y="883" width="98" height="95" xlink:href="img/30.png"/>
<image preserveAspectRatio="none" x="350" y="942" width="32" height="33" xlink:href="img/31.png"/>
<image preserveAspectRatio="none" x="96" y="889" width="154" height="76" xlink:href="img/32.png"/>
<path d="M308,959.2l-.1,-.4c0,.3,0,-.2,.1,-1.4c0,-.9,0,-1.6,0,-2.1c-.1,-.7,-.3,-1.1,-.6,-1.1c-.4,0,-.6,.5,-.6,1.5c-.1,.5,-.1,1.1,-.1,1.7c0,.8,-.3,1.2,-.7,1.2l-.4,-.1l-.2,-.4c.3,-2.9,.5,-5.7,.6,-8.6l-.2,-.4l-.5,-.1c-1.4,.3,-3.3,.5,-5.7,.7c-.4,0,-.7,0,-.8,.2l-.4,.1l-.4,-.1l-.3,-.4c-.4,-3.7,-.6,-6.4,-.6,-8.3c0,-3.3,.3,-4.9,1,-4.8c.3,.2,.5,.3,.7,.3l.8,-.3l.4,.2l.2,.4c.4,4.8,.8,8.5,1.2,10.9l.1,.3l.4,.1c1.9,-.2,3.2,-.4,3.8,-.6c.3,-.2,.5,-2.2,.5,-6.1v-4c0,-.5,.2,-.8,.6,-.9c.1,0,.3,-.1,.4,-.3c.2,-.3,.3,-.4,.6,-.4c.2,.1,.4,.2,.4,.4c.3,.1,.4,.2,.5,.3h.3l.2,-.1l.5,.2l.1,.4v2.1c0,1.9,0,4.8,-.1,8.6c-.1,3.8,-.1,6.7,-.1,8.6c-.1,.2,-.2,.5,-.3,.6c-.1,.4,-.2,.6,-.2,.7c0,1.1,-.2,1.6,-.6,1.6l-.5,-.2Z" class="g3_10"/>
<image preserveAspectRatio="none" x="211" y="898" width="108" height="54" xlink:href="img/33.png"/>
<image preserveAspectRatio="none" x="214" y="900" width="100" height="46" xlink:href="img/34.png"/>
<image preserveAspectRatio="none" x="171" y="894" width="38" height="36" xlink:href="img/35.png"/>
<image preserveAspectRatio="none" x="168" y="888" width="41" height="42" xlink:href="img/36.png"/>
<image preserveAspectRatio="none" x="206" y="907" width="38" height="39" xlink:href="img/37.png"/>
<image preserveAspectRatio="none" x="202" y="901" width="41" height="43" xlink:href="img/38.png"/>
<image preserveAspectRatio="none" x="177" y="929" width="38" height="38" xlink:href="img/39.png"/>
<image preserveAspectRatio="none" x="174" y="924" width="43" height="42" xlink:href="img/40.png"/>
<image preserveAspectRatio="none" x="655" y="897" width="68" height="70" xlink:href="img/41.png"/>
<image preserveAspectRatio="none" x="657" y="897" width="59" height="62" xlink:href="img/42.png"/>
<image preserveAspectRatio="none" x="538" y="883" width="69" height="70" xlink:href="img/43.png"/>
<image preserveAspectRatio="none" x="540" y="884" width="59" height="61" xlink:href="img/44.png"/>
<image preserveAspectRatio="none" x="490" y="897" width="69" height="70" xlink:href="img/45.png"/>
<image preserveAspectRatio="none" x="493" y="898" width="59" height="62" xlink:href="img/46.png"/>
<image preserveAspectRatio="none" x="445" y="910" width="67" height="71" xlink:href="img/47.png"/>
<image preserveAspectRatio="none" x="446" y="911" width="59" height="62" xlink:href="img/48.png"/>
<image preserveAspectRatio="none" x="779" y="779" width="86" height="127" xlink:href="img/49.png"/>
<g clip-path="url(#c2_10)">
<path d="M776.7,908.1h90.9V772H776.7V908.1Z" class="g7_10"/>
</g>
<image preserveAspectRatio="none" x="776" y="773" width="92" height="135" opacity="0.800003" xlink:href="img/50.png"/>
<image preserveAspectRatio="none" x="772" y="769" width="100" height="142" opacity="0.350006" xlink:href="img/51.png"/>
<image preserveAspectRatio="none" x="789" y="782" width="67" height="14" xlink:href="img/52.png"/>
<image preserveAspectRatio="none" x="847" y="882" width="10" height="14" xlink:href="img/53.png"/>
<image preserveAspectRatio="none" x="787" y="824" width="25" height="25" xlink:href="img/54.png"/>
<image preserveAspectRatio="none" x="794" y="843" width="27" height="18" xlink:href="img/55.png"/>
<image preserveAspectRatio="none" x="805" y="844" width="15" height="15" xlink:href="img/56.png"/>
<image preserveAspectRatio="none" x="787" y="862" width="25" height="25" xlink:href="img/57.png"/>
<image preserveAspectRatio="none" x="794" y="881" width="45" height="17" xlink:href="img/58.png"/>
<image preserveAspectRatio="none" x="820" y="883" width="17" height="13" xlink:href="img/59.png"/>
<image preserveAspectRatio="none" x="805" y="881" width="15" height="15" xlink:href="img/60.png"/>
<g clip-path="url(#c2_10)">
<path d="M790.7,785.8l-1.3,.2l.1,1.2h-2.3v-1.4l-1.3,.1c0,.3,0,.5,0,.6c.1,.2,.1,.4,.1,.6c0,.1,0,.3,0,.4c0,.2,0,.4,0,.6c0,.1,0,.3,-.1,.6c0,.2,0,.4,0,.7l1.4,-.1l-.1,-1.4l2.3,.1l-.1,1.4l1.3,-.1v-3.5Zm5.5,3.1c-.2,-.3,-.4,-.5,-.6,-.8c-.2,-.2,-.3,-.4,-.5,-.6c-.1,-.2,-.3,-.4,-.4,-.6c-.1,-.2,-.2,-.4,-.3,-.6c-.1,-.1,-.2,-.3,-.4,-.5c-.1,-.2,-.2,-.4,-.3,-.6l-1.1,.3l.3,.6c-.1,.2,-.2,.4,-.3,.6c0,.1,-.1,.3,-.2,.4c-.1,.2,-.2,.3,-.3,.4c0,.2,-.1,.3,-.3,.5c0,.1,-.2,.2,-.3,.4c-.1,.1,-.3,.3,-.4,.4l.9,.6l.5,-.5h2.3l.4,.6l1,-.6Zm-2,-.8H793q.1,-.1,.1,-.2c.1,0,.1,-.1,.1,-.1q.1,-.1,.1,-.2c0,0,.1,-.1,.1,-.1q0,-.1,.1,-.2c0,0,0,-.1,.1,-.2l.6,1Zm6.3,-2.4H797c-.2,.3,-.4,.6,-.5,.8c-.2,.3,-.3,.5,-.3,.7c-.1,.2,-.1,.4,-.1,.5c0,.3,0,.5,.2,.7c.1,.1,.3,.3,.5,.4c.3,.2,.5,.3,.8,.3c.3,.1,.5,.2,.7,.3c.3,0,.5,0,.7,.1c.1,0,.2,0,.2,0l1,-1.1c-.3,0,-.6,0,-.9,0c-.3,0,-.5,-.1,-.7,-.1c-.2,0,-.4,-.1,-.5,-.1c-.2,-.1,-.3,-.1,-.4,-.2c-.2,-.1,-.3,-.2,-.3,-.4c0,-.1,0,-.2,0,-.3c0,-.1,.1,-.2,.1,-.2c.1,-.1,.1,-.2,.1,-.2q.1,-.1,.1,-.1H800l.5,-1.1Zm5,.1l-1.3,.2v1.2H802v-1.4l-1.3,.1c0,.3,0,.5,0,.6c0,.2,0,.4,0,.6c0,.1,0,.3,0,.4c0,.2,0,.4,0,.6c0,.1,0,.3,0,.6c0,.2,0,.4,0,.7l1.3,-.1v-1.4l2.2,.1v1.4l1.3,-.1v-3.5Zm5.3,2.5c-.2,0,-.4,0,-.6,.1c-.2,0,-.3,0,-.4,0c-.2,0,-.3,0,-.5,0c-.2,0,-.4,0,-.6,0c-.2,0,-.4,0,-.6,-.1c-.2,0,-.3,-.1,-.5,-.2c-.2,-.1,-.3,-.1,-.4,-.2H809v-.8h-1.7q0,-.1,0,-.1c0,-.1,.1,-.1,.1,-.1v-.1h2.4l.5,-1l-3.5,-.1c-.3,.3,-.4,.6,-.6,.8c-.1,.2,-.2,.5,-.3,.7c0,.2,-.1,.4,-.1,.6c0,.2,.1,.3,.2,.5c.1,.1,.2,.2,.3,.3c.2,.1,.4,.2,.6,.3c.2,.1,.4,.1,.7,.2c.2,.1,.4,.1,.7,.2c.2,0,.5,0,.7,0c.3,.1,.5,.1,.7,.1c.2,0,.4,0,.5,0l.6,-1.1Zm4.5,-2.6c-.3,0,-.6,0,-.9,0c-.3,.1,-.6,.1,-.9,.1c0,.3,.1,.6,.1,.9c0,.3,0,.6,0,.9c0,.2,0,.5,0,.8c0,.3,0,.6,-.1,.9c.3,0,.6,0,.8,0c.3,.1,.5,.1,.8,0c.2,0,.4,0,.6,0c.2,0,.4,-.1,.6,-.1c.3,-.1,.4,-.1,.6,-.2c.2,-.1,.4,-.2,.6,-.3c.2,-.1,.3,-.3,.4,-.4c.1,-.2,.2,-.4,.2,-.6c0,-.1,0,-.3,-.1,-.5c0,-.1,-.1,-.3,-.2,-.5c-.1,-.2,-.2,-.4,-.3,-.5c-.1,-.2,-.2,-.3,-.3,-.5h-1.9Zm-.5,1.1h1.7l.1,.1c0,0,0,.1,.1,.2c0,.1,.1,.3,.1,.5c0,.1,-.1,.1,-.1,.2q-.1,.1,-.2,.2q-.1,0,-.2,.1c-.1,0,-.2,0,-.2,.1c-.2,0,-.4,.1,-.6,.1c-.2,0,-.5,.1,-.7,.1v-1.6Zm8.5,1.5c-.3,0,-.5,0,-.6,.1c-.2,0,-.4,0,-.5,0c-.2,0,-.3,0,-.4,0c-.2,0,-.4,0,-.6,0c-.2,0,-.4,0,-.6,-.1c-.2,0,-.4,-.1,-.6,-.2c-.1,-.1,-.2,-.1,-.3,-.2h1.7v-.8h-1.7q0,-.1,0,-.1c0,0,.1,0,.1,0q0,-.1,0,-.1v-.1q.1,0,.1,0h2.3l.5,-1l-3.5,-.1c-.2,.3,-.4,.6,-.5,.8c-.2,.2,-.3,.5,-.3,.7c-.1,.2,-.1,.4,-.1,.6c0,.2,0,.3,.1,.5c.1,.1,.2,.2,.4,.3c.1,.1,.3,.2,.5,.3c.2,.1,.5,.1,.7,.2c.2,.1,.5,.1,.7,.2c.3,0,.5,0,.8,0c.2,.1,.4,.1,.6,.1c.2,0,.4,0,.6,0l.6,-1.1Zm7.2,-.5c-.1,-.1,-.1,-.2,-.2,-.2c-.1,-.1,-.3,-.2,-.5,-.2q.1,-.1,.2,-.2c0,-.1,.1,-.1,.1,-.2c0,-.1,0,-.2,0,-.3c0,-.1,0,-.3,-.2,-.4c-.1,-.1,-.2,-.2,-.4,-.3c-.3,-.1,-.5,-.2,-.8,-.2c-.3,0,-.6,-.1,-1,-.1c-.2,0,-.4,.1,-.6,.1c-.2,0,-.4,0,-.6,0c-.2,0,-.4,0,-.5,0c0,.3,0,.5,0,.7c0,.2,0,.4,0,.5c0,.2,0,.4,0,.5c0,.1,0,.3,0,.5c0,.1,0,.3,0,.5c0,.3,0,.5,0,.8c.1,0,.2,0,.3,0c.2,0,.3,0,.4,0c.2,0,.3,0,.4,0c.2,0,.3,0,.4,0c.3,.1,.6,.1,.9,.1c.8,0,1.3,-.1,1.7,-.3c.3,-.2,.5,-.5,.5,-.9c0,-.1,0,-.2,-.1,-.4Zm-1.6,.7c-.2,.1,-.4,.1,-.8,.1c-.1,0,-.2,0,-.3,0q-.1,-.1,-.3,-.1c-.1,0,-.2,0,-.3,0c0,-.1,0,-.3,0,-.4v-1.4c.3,-.1,.6,-.1,.8,-.1c.1,0,.2,0,.3,0c.1,0,.2,0,.3,.1q.1,0,.2,.1c0,0,.1,.1,.1,.1c-.1,.1,-.1,.2,-.2,.3c0,0,-.2,.1,-.3,.1c-.1,0,-.3,.1,-.6,0l.5,.7q.1,0,.2,0h.2c0,0,0,-.1,.1,-.1h.2c0,0,.1,0,.1,.1c0,0,0,.1,0,.1c0,.2,-.1,.3,-.2,.4Zm6.8,.4c-.2,-.3,-.4,-.5,-.6,-.8c-.2,-.2,-.4,-.4,-.5,-.6c-.2,-.2,-.3,-.4,-.4,-.6c-.1,-.2,-.3,-.4,-.4,-.6c-.1,-.1,-.2,-.3,-.3,-.5c-.1,-.2,-.3,-.4,-.4,-.6l-1.1,.3l.4,.6c-.1,.2,-.2,.4,-.3,.6c-.1,.1,-.2,.3,-.2,.4c-.1,.2,-.2,.3,-.3,.4c-.1,.2,-.2,.3,-.3,.5c-.1,.1,-.2,.2,-.3,.4c-.2,.1,-.3,.3,-.5,.4l.9,.6l.5,-.5h2.4l.3,.6l1.1,-.6Zm-2,-.8h-1.2c0,-.1,.1,-.1,.1,-.2c0,0,.1,-.1,.1,-.1c0,-.1,.1,-.1,.1,-.2c0,0,0,-.1,.1,-.1q0,-.1,0,-.2c.1,0,.1,-.1,.2,-.2l.6,1Zm6.6,-2.4h-4.7l-.7,1h1.3c-.1,.1,-.2,.3,-.3,.4c0,.1,-.1,.3,-.1,.4c0,.1,-.1,.2,-.1,.3c.1,.4,.2,.7,.4,.9c.1,.1,.2,.3,.4,.4c.1,.1,.3,.2,.6,.2c.2,.1,.4,.2,.7,.2c.3,0,.7,.1,1,0l.7,-1c-.3,.1,-.6,.1,-.8,.1c-.2,0,-.4,0,-.6,-.1c-.2,0,-.3,-.1,-.4,-.1c-.1,-.1,-.2,-.1,-.3,-.2c-.2,-.1,-.3,-.3,-.3,-.5c0,-.1,0,-.2,.1,-.3c0,-.1,0,-.2,.1,-.3c.1,-.1,.2,-.3,.4,-.4h1.6l1,-1Zm4.4,3.2c-.3,-.3,-.5,-.5,-.7,-.8c-.2,-.2,-.3,-.4,-.5,-.6c-.1,-.2,-.2,-.4,-.4,-.6c-.1,-.2,-.2,-.4,-.3,-.6c-.1,-.1,-.2,-.3,-.3,-.5c-.2,-.2,-.3,-.4,-.4,-.6l-1.1,.3l.3,.6c0,.2,-.1,.4,-.2,.6c-.1,.1,-.2,.3,-.3,.4c-.1,.2,-.1,.3,-.2,.4c-.1,.2,-.2,.3,-.3,.5c-.1,.1,-.2,.2,-.4,.4c-.1,.1,-.2,.3,-.4,.4l.9,.6l.5,-.5h2.3l.4,.6l1.1,-.6Zm-2,-.8h-1.3q.1,-.1,.2,-.2c0,0,0,-.1,.1,-.1q0,-.1,0,-.2c.1,0,.1,-.1,.1,-.1c0,-.1,.1,-.1,.1,-.2c0,0,.1,-.1,.1,-.2l.7,1Zm3.5,1.1v-3.5l-1.4,.2c0,.2,0,.4,.1,.6c0,.2,0,.4,0,.6c0,.1,0,.3,0,.4c0,.2,0,.3,0,.5c0,.2,0,.4,0,.6c0,.2,0,.4,-.1,.7l1.4,-.1Zm3.4,-.7h-1.5c0,-.2,0,-.4,0,-.6c0,-.2,0,-.4,0,-.5c0,-.2,0,-.4,0,-.6c0,-.1,0,-.3,0,-.5c0,-.2,0,-.5,0,-.7c0,-.3,0,-.6,0,-.9l-1.3,.6c0,.2,0,.5,0,.7c0,.2,0,.4,0,.6c0,.2,0,.4,0,.5c0,.2,0,.4,0,.6c0,.2,0,.5,0,.7c0,.3,-.1,.6,-.1,.9c.2,0,.3,0,.5,0c.2,0,.3,0,.4,0c.2,0,.3,0,.5,0h.7c.1,0,.3,0,.4,0l.4,-.8Zm3.1,0h-1.5c0,-.2,0,-.4,0,-.6c0,-.2,0,-.4,0,-.5c0,-.2,0,-.4,0,-.6c0,-.1,0,-.3,0,-.5c0,-.2,0,-.5,0,-.7c0,-.3,0,-.6,0,-.9l-1.3,.6c0,.2,0,.5,0,.7c0,.2,0,.4,0,.6c0,.2,0,.4,0,.5c0,.2,0,.4,0,.6c0,.2,0,.5,0,.7c0,.3,-.1,.6,-.1,.9c.2,0,.3,0,.5,0c.2,0,.3,0,.4,0c.2,0,.3,0,.5,0h.7c.1,0,.3,0,.4,0l.4,-.8Zm5.1,-.2c-.3,0,-.5,0,-.6,.1c-.2,0,-.4,0,-.5,0c-.2,0,-.3,0,-.4,0c-.2,0,-.4,0,-.6,0c-.2,0,-.4,0,-.6,-.1c-.2,0,-.4,-.1,-.6,-.2c-.1,-.1,-.2,-.1,-.3,-.2h1.7v-.8h-1.7q0,-.1,0,-.1q.1,0,.1,0q0,-.1,0,-.1v-.1q.1,0,.1,0h2.3l.5,-1l-3.5,-.1c-.2,.3,-.4,.6,-.5,.8c-.2,.2,-.3,.5,-.3,.7c-.1,.2,-.1,.4,-.1,.6c0,.2,0,.3,.1,.5c.1,.1,.2,.2,.4,.3c.1,.1,.3,.2,.5,.3c.2,.1,.5,.1,.7,.2c.2,.1,.5,.1,.7,.2c.3,0,.5,0,.8,0c.2,.1,.4,.1,.6,.1c.2,0,.4,0,.6,0l.6,-1.1Z" class="g8_10"/>
</g>
<image x="785" y="785" width="6" height="5" xlink:href="shade/1.png"/>
<image x="791" y="785" width="7" height="6" xlink:href="shade/2.png"/>
<image x="796" y="785" width="5" height="5" xlink:href="shade/3.png"/>
<image x="800" y="785" width="5" height="5" xlink:href="shade/4.png"/>
<image x="805" y="785" width="6" height="5" xlink:href="shade/5.png"/>
<image x="813" y="785" width="6" height="5" xlink:href="shade/6.png"/>
<image x="818" y="785" width="6" height="5" xlink:href="shade/7.png"/>
<image x="825" y="785" width="6" height="5" xlink:href="shade/8.png"/>
<image x="830" y="785" width="7" height="6" xlink:href="shade/9.png"/>
<image x="834" y="785" width="7" height="6" xlink:href="shade/10.png"/>
<image x="839" y="785" width="6" height="6" xlink:href="shade/11.png"/>
<image x="844" y="785" width="3" height="5" xlink:href="shade/12.png"/>
<image x="846" y="784" width="4" height="6" xlink:href="shade/13.png"/>
<image x="849" y="784" width="4" height="6" xlink:href="shade/14.png"/>
<image x="852" y="785" width="6" height="5" xlink:href="shade/15.png"/>
<image preserveAspectRatio="none" x="798" y="790" width="69" height="110" xlink:href="img/61.png"/>
<path d="M792.5,898.1h44.7V880.6H792.5v17.5Z" class="g9_10"/>
<path d="M56.3,463.9H853.1" class="ga_10"/>
</svg>