<?xml version="1.0" encoding="UTF-8" standalone="no"?>
<!DOCTYPE svg PUBLIC "-//W3C//DTD SVG 1.1//EN"
"http://www.w3.org/Graphics/SVG/1.1/DTD/svg11.dtd">
<svg viewBox="0 0 908 1285" version="1.1" xmlns="http://www.w3.org/2000/svg" xmlns:xlink="http://www.w3.org/1999/xlink">
<defs>
<clipPath id="c0_31"><path d="M-33.8,236.6V-34H291.8V236.6Z"/></clipPath>
<clipPath id="c1_31"><path d="M291.1,236.6V-34H617.5V236.6Z"/></clipPath>
<clipPath id="c2_31"><path d="M616.9,236.6V-34H942.6V236.6Z"/></clipPath>
<clipPath id="c3_31"><path d="M-33.8,507.7V236H291.8V507.7Z"/></clipPath>
<clipPath id="c4_31"><path d="M616.9,507.7V236H942.6V507.7Z"/></clipPath>
<clipPath id="c5_31"><path d="M-33.8,778.4V507H291.8V778.4Z"/></clipPath>
<clipPath id="c6_31"><path d="M291.1,778.4V507H617.5V778.4Z"/></clipPath>
<clipPath id="c7_31"><path d="M616.9,778.4V507H942.6V778.4Z"/></clipPath>
<clipPath id="c8_31"><path d="M-33.8,1049.4V777.7H291.8v271.7Z"/></clipPath>
<clipPath id="c9_31"><path d="M616.9,1049.4V777.7H942.6v271.7Z"/></clipPath>
<clipPath id="ca_31"><path d="M-33.8,1319.5V1048.8H291.8v270.7Z"/></clipPath>
<clipPath id="cb_31"><path d="M291.1,1319.5V1048.8H617.5v270.7Z"/></clipPath>
<clipPath id="cc_31"><path d="M616.9,1319.5V1048.8H942.6v270.7Z"/></clipPath>
</defs>
<image clip-path="url(#c0_31)" preserveAspectRatio="none" x="-34" y="-34" width="326" height="271" xlink:href="img/1.jpg"/>
<image clip-path="url(#c1_31)" preserveAspectRatio="none" x="291" y="-34" width="327" height="271" xlink:href="img/2.jpg"/>
<image clip-path="url(#c2_31)" preserveAspectRatio="none" x="617" y="-34" width="326" height="271" xlink:href="img/3.jpg"/>
<image clip-path="url(#c3_31)" preserveAspectRatio="none" x="-34" y="236" width="326" height="272" xlink:href="img/4.jpg"/>
<image preserveAspectRatio="none" x="291" y="236" width="327" height="272" xlink:href="img/5.jpg"/>
<image clip-path="url(#c4_31)" preserveAspectRatio="none" x="617" y="236" width="326" height="272" xlink:href="img/6.jpg"/>
<image clip-path="url(#c5_31)" preserveAspectRatio="none" x="-34" y="507" width="326" height="271" xlink:href="img/7.jpg"/>
<image clip-path="url(#c6_31)" preserveAspectRatio="none" x="291" y="507" width="327" height="271" xlink:href="img/8.jpg"/>
<image clip-path="url(#c7_31)" preserveAspectRatio="none" x="617" y="507" width="326" height="271" xlink:href="img/9.jpg"/>
<image clip-path="url(#c8_31)" preserveAspectRatio="none" x="-34" y="778" width="326" height="271" xlink:href="img/10.jpg"/>
<image preserveAspectRatio="none" x="291" y="778" width="327" height="271" xlink:href="img/11.jpg"/>
<image clip-path="url(#c9_31)" preserveAspectRatio="none" x="617" y="778" width="326" height="271" xlink:href="img/12.jpg"/>
<image clip-path="url(#ca_31)" preserveAspectRatio="none" x="-34" y="1049" width="326" height="271" xlink:href="img/13.jpg"/>
<image clip-path="url(#cb_31)" preserveAspectRatio="none" x="291" y="1049" width="327" height="271" xlink:href="img/14.jpg"/>
<image clip-path="url(#cc_31)" preserveAspectRatio="none" x="617" y="1049" width="326" height="271" xlink:href="img/15.jpg"/>
</svg>