<?xml version="1.0" encoding="UTF-8" standalone="no"?>
<!DOCTYPE svg PUBLIC "-//W3C//DTD SVG 1.1//EN"
"http://www.w3.org/Graphics/SVG/1.1/DTD/svg11.dtd">
<svg viewBox="0 0 908 1286" version="1.1" xmlns="http://www.w3.org/2000/svg" xmlns:xlink="http://www.w3.org/1999/xlink">
<defs>
<clipPath id="c0_8"><path d="M0,1285.7V0H909V1285.7Z"/></clipPath>
<clipPath id="c1_8"><path d="M590.3,641.9V620h21.1v21.9Z"/></clipPath>
<clipPath id="c2_8"><path d="M612,943.9V922h20.3v21.9Z"/></clipPath>
<clipPath id="c3_8"><path d="M101.7,90.5V38.1H807.3V90.5Z"/></clipPath>
<clipPath id="c4_8"><path d="M101.7,446.6V394.2H807.3v52.4Z"/></clipPath>
<clipPath id="c5_8"><path d="M55.6,934V714.8H438.8V934Z"/></clipPath>
<clipPath id="c6_8"><path d="M394,926.1L266.4,911.6l7.4,-64.7l9.1,-79.5l37.4,4.2l90.1,10.3L405,829.5l-11,96.6Z"/></clipPath>
<clipPath id="c7_8"><path d="M381.2,905.7l-96.9,-11l-62.5,-7.1L242.3,707.3l58.8,6.7l100.6,11.5L381.2,905.7Z"/></clipPath>
<clipPath id="c8_8"><path d="M93.3,906.6L86.1,893.1l11.8,-6.3l7.2,13.5l-11.8,6.3Z"/></clipPath>
<clipPath id="c9_8"><path d="M85.7,924.2l-7.4,-5l-3.7,-2.5l8.6,-12.6l4.5,3.1l6.6,4.4l-1.8,2.6l-6.8,10Z"/></clipPath>
<clipPath id="ca_8"><path d="M132.8,900.7l-9.7,-3.5l-2.9,-1.1l5.2,-14.3l4.2,1.5l8.4,3l-1.3,3.8l-3.9,10.6Z"/></clipPath>
<clipPath id="cb_8"><path d="M83.3,896.1v0l-3.2,-3.5l-5.8,-6.5l4.1,-3.7l7.2,-6.5l2.7,3l6.3,7l-2.9,2.6l-8.4,7.6Z"/></clipPath>
<clipPath id="cc_8"><path d="M97.7,918.6L90.6,905.1l11.8,-6.3l7.2,13.5L98.8,918l-1.1,.6Z"/></clipPath>
<clipPath id="cd_8"><path d="M363.7,754.5L356,741.2l11.6,-6.7l6.3,10.8l1.4,2.5l-11.6,6.7Z"/></clipPath>
<clipPath id="ce_8"><path d="M380.3,741.1l-3.7,-.5L367,739.3l2.1,-15.2l11.7,1.7l1.6,.2l-2.1,15.1Z"/></clipPath>
<clipPath id="cf_8"><path d="M392.8,799.8l-6.2,-.2l-9.1,-.3l.5,-13.4l8.6,.3l6.6,.2l-.4,13.4Z"/></clipPath>
<clipPath id="cg_8"><path d="M99.1,895.8V882.4h15.3v13.4Z"/></clipPath>
<clipPath id="ch_8"><path d="M469.7,730.5V586.6h61.9V730.5Z"/></clipPath>
<clipPath id="ci_8"><path d="M504.5,614.5l-27,-9.9l1.5,-4.2l9.7,-26.6l27.1,9.9l-4.9,13.4l-6.4,17.4Z"/></clipPath>
<clipPath id="cj_8"><path d="M469.7,1036.2v-149h61.9v149Z"/></clipPath>
<clipPath id="ck_8"><path d="M504.5,920.6l-12.4,-4.5l-14.6,-5.3l11.2,-30.9l16.6,6.1l10.5,3.8l-6.4,17.6l-4.9,13.2Z"/></clipPath>
<clipPath id="cl_8"><path d="M213,1229.4l-69.3,-88.8L317.9,1004.5l31.9,40.9l37.4,47.9L213,1229.4Z"/></clipPath>
<clipPath id="cm_8"><path d="M282.6,1229.4L108.4,1093.3L153,1036.2l24.7,-31.7l75.2,58.7l99.1,77.4l-49.6,63.5l-19.8,25.3Z"/></clipPath>
<clipPath id="cn_8"><path d="M182.3,1193.8V1063.5H312.6v130.3Z"/></clipPath>
<clipPath id="co_8"><path d="M479.5,879.7V794.9H842.9v84.8Z"/></clipPath>
<clipPath id="cp_8"><path d="M479.5,1229.4v-84.8H842.9v84.8Z"/></clipPath>
<clipPath id="cq_8"><path d="M598.7,870.2V813.5h125v56.7Z"/></clipPath>
<clipPath id="cr_8"><path d="M717.5,866v0l-6.1,-10.5l-12.1,-21l27.6,-15.9l17.5,30.2l.7,1.2l-19,11l-8.6,5Z"/></clipPath>
<clipPath id="cs_8"><path d="M756.7,846.8v0L729.1,830.9l11.7,-20.4l6.4,-11l27.6,15.9l-18.1,31.4Z"/></clipPath>
<clipPath id="ct_8"><path d="M598.7,1215.4v-56.8h125v56.8Z"/></clipPath>
<clipPath id="cu_8"><path d="M718.1,1211.1l-14.6,-25.3l-3.6,-6.2l27.6,-15.9l18.2,31.5L720,1210l-1.9,1.1Z"/></clipPath>
<clipPath id="cv_8"><path d="M754,1188.7l-27.6,-15.9l18.2,-31.5l11.7,6.8l15.9,9.1L754,1188.7Z"/></clipPath>
<clipPath id="cw_8"><path d="M794.1,1204.3l-17.7,-10.9l-13.3,-8.1l16.7,-27.2l3.9,2.4l27.1,16.6L795,1202.8l-.9,1.5Zm-14.3,-46.2v0Z"/></clipPath>
<clipPath id="cx_8"><path d="M770.4,1223.9l-31.3,-.8h-.5l.6,-25.3l.3,-11l30.4,.8h1.5l-1,36.3Z"/></clipPath>
<clipPath id="cy_8"><path d="M684.1,1188.3l-16.2,-27.5l31.3,-18.4l12,20.3l4.2,7.2l-31.3,18.4Z"/></clipPath>
<style type="text/css"><![CDATA[
.g0_8{
fill: #FFFFFF;
}
.g1_8{
fill: none;
stroke: #000000;
stroke-width: 0.916;
stroke-linecap: butt;
stroke-linejoin: miter;
}
.g2_8{
fill: none;
stroke: #87D1F1;
stroke-width: 1.832;
stroke-linecap: butt;
stroke-linejoin: miter;
}
.g3_8{
}
]]></style>
</defs>
<g clip-path="url(#c0_8)">
<path d="M0,522.1H909V1807.8H0V522.1Z" class="g0_8"/>
<image preserveAspectRatio="none" x="-21" y="-21" width="932" height="1328" xlink:href="img/1.webp"/>
</g>
<path d="M56.3,626.5H439.4M469.7,481.9H852.8" class="g1_8"/>
<image clip-path="url(#c1_8)" preserveAspectRatio="none" x="590" y="620" width="22" height="22" xlink:href="img/2.webp"/>
<image clip-path="url(#c2_8)" preserveAspectRatio="none" x="612" y="922" width="21" height="22" xlink:href="img/3.webp"/>
<image clip-path="url(#c3_8)" preserveAspectRatio="none" x="102" y="38" width="705" height="53" xlink:href="img/4.webp"/>
<image clip-path="url(#c4_8)" preserveAspectRatio="none" x="102" y="394" width="705" height="53" xlink:href="img/5.webp"/>
<image clip-path="url(#c5_8)" preserveAspectRatio="none" x="56" y="715" width="383" height="219" xlink:href="img/6.webp"/>
<image clip-path="url(#c6_8)" preserveAspectRatio="none" x="266" y="767" width="145" height="159" xlink:href="img/7.webp"/>
<image clip-path="url(#c7_8)" preserveAspectRatio="none" x="221" y="707" width="181" height="199" xlink:href="img/8.webp"/>
<image clip-path="url(#c8_8)" preserveAspectRatio="none" x="86" y="887" width="19" height="20" xlink:href="img/9.webp"/>
<image clip-path="url(#c9_8)" preserveAspectRatio="none" x="74" y="904" width="21" height="20" xlink:href="img/10.webp"/>
<image clip-path="url(#ca_8)" preserveAspectRatio="none" x="120" y="881" width="18" height="20" xlink:href="img/11.webp"/>
<image clip-path="url(#cb_8)" preserveAspectRatio="none" x="74" y="876" width="21" height="20" xlink:href="img/12.webp"/>
<image clip-path="url(#cc_8)" preserveAspectRatio="none" x="91" y="899" width="19" height="20" xlink:href="img/13.webp"/>
<image clip-path="url(#cd_8)" preserveAspectRatio="none" x="356" y="734" width="19" height="21" xlink:href="img/14.webp"/>
<image clip-path="url(#ce_8)" preserveAspectRatio="none" x="367" y="724" width="15" height="17" xlink:href="img/15.webp"/>
<image clip-path="url(#cf_8)" preserveAspectRatio="none" x="377" y="786" width="16" height="14" xlink:href="img/16.webp"/>
<image clip-path="url(#cg_8)" preserveAspectRatio="none" x="99" y="882" width="16" height="14" xlink:href="img/17.webp"/>
<image clip-path="url(#ch_8)" preserveAspectRatio="none" x="469" y="586" width="63" height="145" xlink:href="img/18.webp"/>
<path d="M509.7,649.7c-2.3,.2,-3.8,.3,-4.4,.3c-.3,.1,-.6,-.2,-.8,-.9l-.3,-.4c-.7,-.2,-1.1,-.4,-1.4,-.4l-.2,-.3c0,-.1,0,-.3,0,-.5c-.1,-.9,0,-1.4,.3,-1.6c.5,-.5,.9,-1,1.2,-1.3c2.5,-2.1,4.4,-3.7,5.6,-4.7l.2,-.4c0,-1.6,-.1,-3.2,-.3,-4.8c-.3,-2.6,-.7,-3.9,-1.4,-3.9c-1,0,-1.6,.2,-1.9,.7c0,.2,-.1,.9,-.1,2.2c0,2,.1,3.3,.1,3.8v.4l-.4,.2h-.1c-.3,0,-.5,-.3,-.6,-1l-.3,-.3c-.3,0,-.5,.1,-.7,.1c-.2,0,-.4,.1,-.6,.3c-.2,.2,-.4,.3,-.5,.3c-.3,0,-.5,-.2,-.5,-.6c0,-3.2,.1,-5.3,.4,-6.3l.2,-.3l.4,-.1c.2,.1,.3,.2,.4,.4l.2,.3h.4c.5,-.3,.9,-.6,1.2,-.8c.4,0,1.1,-.1,2,-.2c.8,-.2,1.5,-.3,1.9,-.3c1,0,2.1,.1,3.4,.3l.3,.2l.2,.4c-.2,.3,-.3,.5,-.5,.6l.1,.4c.2,.3,.3,1.3,.3,2.9c0,.3,0,.8,-.2,1.5c-.1,.6,-.1,1.1,-.1,1.4c0,.3,-.1,.6,-.4,1l-.1,.1c-2.1,1.9,-3.7,3.4,-4.8,4.3l-1.3,1.2l-.2,.4c.2,2.4,.4,3.7,.5,3.9v.4c.1,.2,.3,.3,.4,.3l4,-.4l.4,-.2v-.4c0,-.1,-.1,-.2,-.2,-.3c-.1,0,-.3,-.1,-.5,-.1l-.2,-.3c-.1,-.1,-.2,-.1,-.3,-.2c-.3,-.9,-.4,-1.6,-.4,-2.1l.1,-.4l.3,-.1c.3,0,.6,0,.7,-.2c.2,-.1,.3,-.1,.4,-.1c.1,-.1,.2,-.1,.3,0c.1,0,.2,.1,.3,.1c.1,0,.2,-.1,.3,-.2c.2,-.1,.3,-.2,.4,-.2c.3,0,.4,.1,.5,.4v.1l.1,.2l.2,1.1c.3,1.3,.4,2.2,.4,2.8c0,.3,-.1,.4,-.4,.5l-.3,.2c-.1,.2,-1.3,.4,-3.7,.6Z" class="g2_8"/>
<path d="M513.4,649.1l.3,-.2c.3,-.1,.4,-.2,.4,-.5c0,-.6,-.1,-1.5,-.4,-2.8l-.2,-1.1l-.1,-.2v-.1c-.1,-.3,-.2,-.4,-.5,-.4c-.1,0,-.2,.1,-.4,.2c-.1,.1,-.2,.2,-.3,.2c-.1,0,-.2,-.1,-.3,-.1c-.1,-.1,-.2,-.1,-.3,0c-.1,0,-.2,0,-.4,.2c-.1,.1,-.4,.1,-.7,.1l-.3,.1l-.1,.4c0,.5,.1,1.2,.4,2.1c.1,.1,.2,.1,.3,.2l.2,.3c.2,0,.4,.1,.5,.1c.1,.1,.2,.2,.2,.3v.4l-.4,.2l-4,.4c-.1,0,-.3,-.1,-.4,-.3v-.4c-.1,-.2,-.3,-1.5,-.5,-3.9l.2,-.4l1.3,-1.2c1.1,-.9,2.7,-2.4,4.8,-4.3l.1,-.1c0,0,.1,-.1,.2,-.3c.1,-.1,.2,-.4,.2,-.7c0,-.3,0,-.8,.1,-1.4c.2,-.7,.2,-1.2,.2,-1.5c0,-1.6,-.1,-2.6,-.3,-2.9l-.1,-.4c.2,-.1,.3,-.3,.5,-.6l-.2,-.4l-.3,-.2c-1.3,-.2,-2.4,-.3,-3.4,-.3c-.4,0,-1.1,.1,-1.9,.3c-.9,.1,-1.6,.2,-2,.2c-.3,.2,-.7,.5,-1.2,.8h-.4l-.2,-.3c-.1,-.2,-.2,-.3,-.4,-.4l-.4,.1l-.2,.3c-.3,1,-.4,3.1,-.4,6.3c0,.4,.2,.6,.5,.6c.1,0,.3,-.1,.5,-.3c.2,-.2,.4,-.3,.6,-.3c.2,0,.4,-.1,.7,-.1l.3,.3c.1,.7,.3,1,.6,1h.1l.4,-.2v-.4c0,-.5,-.1,-1.8,-.1,-3.8c0,-1.3,.1,-2,.1,-2.2c.3,-.5,.9,-.7,1.9,-.7c.7,0,1.1,1.3,1.4,3.9c.2,1.6,.3,3.2,.3,4.8l-.2,.4c-1.2,1,-3.1,2.6,-5.6,4.7c-.3,.3,-.7,.8,-1.2,1.3c-.3,.2,-.4,.7,-.3,1.6c0,.2,0,.4,0,.5l.2,.3c.3,0,.7,.2,1.4,.4l.3,.4c.2,.7,.5,1,.8,.9c.6,0,2.1,-.1,4.4,-.3c2.4,-.2,3.6,-.4,3.7,-.6Z" class="g3_8"/>
<path d="M511.7,680.8l-.3,.1c-1.1,.8,-2.8,1.2,-5,1.2c-1,0,-1.6,0,-1.8,-.2l-.2,-.4c.1,-.1,.2,-.4,.2,-.6c-.1,-.3,-.2,-.5,-.5,-.5c-.2,0,-.3,.1,-.5,.4c-.1,.2,-.3,.3,-.4,.3c-.3,0,-.4,-.1,-.5,-.3c-.6,-1.8,-.9,-3.1,-.9,-3.7c.1,-.3,.1,-.6,.2,-.8l.4,-.2c.2,.1,.3,.1,.4,.2l.4,.2l.3,-.2l.3,-.3l.3,-.1l.4,.1h.1c.1,.9,.3,1.8,.5,2.7c.3,1.5,.6,2.3,.9,2.3h.7c.6,0,1,0,1.2,0c.5,-.1,.7,-1.8,.7,-5.2c0,-.3,0,-.7,-.1,-1.2c-.1,-.5,-.1,-.9,-.1,-1.1c0,-.1,0,-.2,0,-.3v-.3l-.3,-.2c0,-.1,-.1,-.2,-.3,-.2c-.1,-.1,-.3,-.1,-.3,-.2H507c-.8,.2,-1.5,.3,-2.1,.3l-.4,-.2l-.1,-.3l.1,-.4l.4,-.1c1.4,0,2.6,-.4,3.8,-1.2c.2,-.1,.3,-.7,.3,-1.8v-2.1c.1,-2.8,-.1,-4.2,-.7,-4.2c-.7,0,-1.5,.1,-2.4,.3l-.3,.4c-.2,.9,-.4,1.9,-.4,2.9c0,1.2,-.2,1.9,-.6,1.9c-.3,0,-.5,-.3,-.6,-.9c-.1,-.5,-.3,-.8,-.6,-.8c-.3,0,-.4,.2,-.5,.7c0,.3,-.1,.7,-.1,1l-.2,.3l-.4,.1c-.4,-.1,-.6,-1,-.6,-2.7c0,-.3,0,-.7,.1,-1.3v-1.3l.1,-.4l.3,-.2c.5,.1,.9,0,1,-.5c.1,-.4,.2,-.6,.5,-.6c.2,0,.3,.1,.5,.4c.1,.2,.3,.3,.5,.3c.1,0,.2,0,.3,-.2c.2,-.1,.3,-.2,.5,-.2c-.1,0,.1,0,.5,0c.9,-.2,1.8,-.3,3,-.3c1,0,2.5,.1,4.3,.3c.3,.1,.5,.3,.5,.6c0,.2,-.2,.4,-.5,.4c-.3,.1,-.5,.3,-.5,.5v7.5c0,.4,-.1,.5,-.5,.5c-.2,0,-.4,-.1,-.4,-.4l-.3,-.2h-.4c-1.3,.5,-1.9,1,-1.9,1.2c0,.2,.4,.5,1.3,.9c1,.6,1.5,.9,1.7,1c.5,.5,.8,1.9,.9,4.1c0,.5,-.1,1.5,-.1,3.2l-.2,.3l-.4,.1c-.2,0,-.3,-.1,-.4,-.2l-.3,-.2Z" class="g2_8"/>
<path d="M512,681v0c.1,.1,.2,.2,.4,.2l.4,-.1l.2,-.3c0,-1.7,.1,-2.7,.1,-3.2c-.1,-2.2,-.4,-3.6,-.9,-4.1c-.2,-.1,-.7,-.4,-1.7,-1c-.9,-.4,-1.3,-.7,-1.3,-.9c0,-.2,.6,-.7,1.9,-1.2h.4l.3,.2c0,.3,.2,.4,.4,.4c.4,0,.5,-.1,.5,-.5V663c0,-.2,.2,-.4,.5,-.5c.3,0,.5,-.2,.5,-.4c0,-.3,-.2,-.5,-.5,-.6c-1.8,-.2,-3.3,-.3,-4.3,-.3c-1.2,0,-2.1,.1,-3,.3c-.4,0,-.6,0,-.5,0c-.2,0,-.3,.1,-.5,.2c-.1,.2,-.2,.2,-.3,.2c-.2,0,-.4,-.1,-.5,-.3c-.2,-.2,-.3,-.3,-.5,-.3c-.3,0,-.4,.2,-.5,.6c-.1,.4,-.5,.6,-1,.5l-.3,.1l-.1,.4c0,.3,0,.7,0,1.3c-.1,.6,-.1,1,-.1,1.3c0,1.7,.2,2.6,.6,2.7l.4,-.1l.2,-.3c0,-.3,.1,-.7,.1,-1c.1,-.5,.2,-.7,.5,-.7c.3,0,.5,.3,.6,.8c.1,.6,.3,.9,.6,.9c.4,0,.6,-.7,.6,-1.9c0,-1,.2,-2,.4,-2.9l.3,-.4c.9,-.2,1.7,-.3,2.4,-.3c.6,0,.8,1.4,.7,4.3c0,.7,0,1.4,0,2c0,1.2,-.1,1.8,-.3,1.9c-1.2,.7,-2.4,1.1,-3.8,1.1l-.4,.2l-.1,.3l.1,.4l.4,.2c.6,0,1.3,-.2,2.1,-.4h.5c0,.1,.2,.1,.3,.2c.2,0,.3,.1,.3,.2l.3,.2c0,0,0,.1,0,.3c0,.1,0,.2,0,.3c0,.2,0,.6,.1,1.1c.1,.6,.1,1,.1,1.2c0,3.4,-.2,5.2,-.7,5.2c-.2,.1,-.6,.1,-1.2,.1c-.5,0,-.7,0,-.7,0c-.3,0,-.6,-.8,-.9,-2.3c-.2,-.9,-.4,-1.8,-.5,-2.8h-.1l-.4,-.1l-.3,.1l-.3,.3l-.3,.2l-.4,-.2c-.1,-.1,-.2,-.1,-.4,-.2l-.4,.2c-.1,.2,-.1,.5,-.2,.8c0,.6,.3,1.9,.9,3.7c.1,.2,.2,.3,.5,.3c.1,0,.3,-.1,.4,-.3c.2,-.3,.3,-.4,.5,-.4c.3,0,.4,.2,.5,.5c0,.2,-.1,.5,-.2,.6l.2,.4c.2,.2,.8,.2,1.8,.2c2.2,0,3.9,-.4,5,-1.2l.3,-.1l.3,.2Z" class="g3_8"/>
<path d="M511.4,714.5l-.1,-.4c0,.2,0,-.2,.1,-1.2c0,-.8,0,-1.4,-.1,-1.8c0,-.6,-.2,-1,-.5,-1c-.3,0,-.5,.5,-.5,1.3c0,.5,0,1,0,1.5c-.1,.7,-.3,1,-.6,1l-.4,-.1l-.1,-.3c.2,-2.5,.3,-5,.4,-7.4l-.1,-.4l-.4,-.1c-1.3,.3,-2.9,.5,-5,.6c-.3,0,-.6,0,-.7,.2l-.3,.1l-.4,-.1l-.2,-.4c-.4,-3.1,-.6,-5.5,-.6,-7.1c0,-2.9,.3,-4.3,.9,-4.2c.3,.2,.5,.3,.6,.3l.7,-.3l.4,.2l.1,.3c.4,4.2,.7,7.4,1,9.5l.2,.2l.3,.2c1.6,-.2,2.7,-.4,3.3,-.6c.3,-.1,.4,-1.9,.4,-5.3v-3.4c0,-.5,.2,-.7,.5,-.8c.2,0,.3,-.1,.4,-.3c.1,-.2,.3,-.3,.5,-.3c.2,0,.3,.1,.4,.3c.2,.1,.3,.2,.4,.2h.5l.3,.1l.2,.4v1.8c0,1.7,-.1,4.1,-.1,7.5c-.1,3.3,-.2,5.7,-.2,7.4c0,.2,-.1,.4,-.2,.6c-.1,.3,-.1,.5,-.2,.5c0,1,-.1,1.5,-.5,1.5v-.1l-.4,-.1Z" class="g2_8"/>
<path d="M511.8,714.6v.1c.4,0,.5,-.5,.5,-1.5c.1,0,.1,-.2,.2,-.5c.1,-.2,.2,-.4,.2,-.6c0,-1.7,.1,-4.1,.2,-7.4c0,-3.4,.1,-5.8,.1,-7.5v-1.8l-.2,-.4l-.3,-.1h-.6c0,0,-.1,-.1,-.3,-.2c-.1,-.2,-.2,-.3,-.5,-.3c-.1,0,-.3,.1,-.4,.3c-.1,.2,-.3,.3,-.4,.3c-.3,.1,-.5,.3,-.5,.8c0,-.5,0,-.1,0,1v2.4c0,3.4,-.1,5.2,-.4,5.3c-.6,.2,-1.7,.4,-3.3,.6l-.3,-.2l-.2,-.2c-.3,-2.1,-.6,-5.3,-1,-9.5l-.1,-.3l-.4,-.2l-.7,.3c-.1,0,-.3,-.1,-.6,-.3c-.6,-.1,-.9,1.3,-.9,4.2c0,1.6,.2,4,.6,7.1l.2,.4l.4,.1l.3,-.1c.1,-.2,.4,-.2,.7,-.2c2.1,-.1,3.7,-.3,5,-.6l.4,.1l.1,.4c-.1,2.4,-.2,4.9,-.4,7.4l.1,.3l.4,.1c.3,0,.5,-.3,.6,-1c0,-.5,0,-1,0,-1.5c0,-.8,.2,-1.3,.5,-1.3c.3,0,.5,.4,.5,1c.1,.4,.1,1,.1,1.8c-.1,1,-.1,1.4,-.1,1.2l.1,.4l.4,.1Z" class="g3_8"/>
<image clip-path="url(#ci_8)" preserveAspectRatio="none" x="477" y="573" width="39" height="42" xlink:href="img/19.webp"/>
<image clip-path="url(#cj_8)" preserveAspectRatio="none" x="469" y="887" width="63" height="149" xlink:href="img/20.webp"/>
<path d="M505.1,940.4l.2,-.3l.4,-.1c.1,.1,.3,.1,.3,.1c.2,0,.3,-.1,.5,-.2c.1,-.2,.2,-.3,.4,-.3c.1,0,.3,.1,.4,.3c.2,.1,.3,.2,.4,.2c.5,0,1.4,-.1,2.5,-.4c1.2,-.3,2,-.4,2.6,-.4c.3,0,.4,.1,.4,.5c0,.1,0,.2,-.1,.4l-.2,.4c.6,2.8,.9,4.5,.9,5.1c0,.3,-.1,.4,-.4,.4c-.1,0,-.2,0,-.4,0c-.1,0,-.2,0,-.3,0c-.1,.1,-.2,.2,-.2,.4l-.3,.3l-.4,-.1l-.3,-.3c0,-.2,-.2,-.3,-.4,-.3c-.1,0,-.2,.1,-.4,.2c-.1,.1,-.3,.2,-.4,.2l-.3,-.2l-.2,-.3v-4.7l-.1,-.4l-.4,-.1c-.8,.2,-1.4,.3,-1.8,.5c-.3,.1,-.5,1.2,-.7,3.4c-.2,1.7,-.2,3,-.2,4l.1,.3l.4,.2c1.8,-.3,3.5,-.6,4.9,-.7h1c.8,0,1.3,.3,1.3,1.1c0,.3,-.2,.5,-.4,.7c-.2,.2,-.4,.4,-.4,.5c0,.3,.1,.8,.2,1.6c.2,.8,.2,1.3,.2,1.8v1.1c.1,.5,.1,.9,.1,1.1c0,2.6,-.3,3.9,-.9,3.9c0,0,-.2,0,-.3,-.1c-.2,0,-.3,0,-.4,0c-.1,-.1,-.3,-.1,-.6,-.1c-.5,.3,-1.3,.4,-2.1,.4c-.6,0,-1.5,-.1,-2.7,-.3c-.1,0,-.2,.1,-.4,.2c-.1,0,-.2,.1,-.3,.1c-.2,0,-.3,-.1,-.5,-.2l-.3,-.2c-.5,0,-.8,-.1,-.8,-.5c0,-.3,-.1,-.6,-.3,-.7c-.1,0,-.4,-.1,-.9,-.2c-.1,-.5,-.1,-1.1,-.1,-1.8v-2.1l.1,-.3l.4,-.2l.4,.2l.1,.3c0,.5,.2,.7,.4,.7c.3,0,.5,-.1,.5,-.5c.1,-.3,.3,-.5,.6,-.5l.3,.2l.2,.3c0,2.7,.2,4.1,.6,4.2c1,.1,1.8,.2,2.5,.2h.3l.4,-.2c0,-.1,0,-.3,0,-.4c0,-3.7,-.2,-6.6,-.7,-8.6c-.2,-.3,-.3,-.4,-.5,-.4c-.6,0,-1.3,.2,-2.1,.5c-.2,0,-.3,.2,-.4,.5c-.1,.2,-.3,.3,-.5,.3c-.4,-.1,-.6,-.2,-.6,-.2c-.2,0,-.5,.1,-1,.5H504l-.3,-.3V951c-.1,0,-.1,-.1,-.1,-.1l-.1,-.4c-.4,-4.5,-.6,-7.2,-.6,-8.1v-1.6l.2,-.4l.4,-.1l.4,.1l.1,.4c0,.5,.1,.7,.4,.7c.1,0,.2,0,.4,-.1l.2,-.3v-.2l.1,-.5Z" class="g2_8"/>
<path d="M505,940.9v.2l-.2,.3c-.2,.1,-.3,.1,-.4,.1c-.3,0,-.4,-.2,-.4,-.7l-.1,-.4l-.4,-.1l-.4,.1l-.2,.4v1.6c0,.9,.2,3.6,.6,8.1l.1,.4c0,0,0,.1,.1,.1q0,.1,0,.1l.3,.3h.4c.5,-.4,.8,-.5,1,-.5c0,0,.2,.1,.6,.2c.2,0,.4,-.1,.5,-.3c.1,-.3,.2,-.5,.4,-.5c.8,-.3,1.5,-.5,2.1,-.5c.2,0,.3,.1,.5,.4c.5,2,.7,4.9,.7,8.7c0,.1,0,.2,0,.3l-.4,.2h-.3c-.7,0,-1.5,0,-2.5,-.2c-.4,0,-.6,-1.4,-.6,-4.2l-.2,-.3l-.3,-.2c-.3,0,-.5,.2,-.6,.5c-.1,.4,-.2,.5,-.5,.5c-.2,0,-.4,-.2,-.4,-.7l-.1,-.3l-.4,-.2l-.4,.2l-.1,.3c0,0,0,.7,0,2.1c0,.7,0,1.3,.1,1.8c.5,.1,.8,.2,.9,.2c.2,.1,.3,.4,.3,.7c0,.4,.3,.5,.8,.5l.3,.2c.2,.1,.3,.2,.5,.2c.1,0,.2,-.1,.3,-.1c.2,-.1,.3,-.2,.4,-.2c1.2,.2,2.1,.3,2.7,.3c.8,0,1.6,-.1,2.1,-.4c.3,0,.5,0,.6,.1c.1,0,.2,0,.4,0c.1,.1,.3,.1,.3,.1c.6,0,.9,-1.3,.9,-3.9c0,-.2,0,-.6,-.1,-1.1c0,-.5,0,-.8,0,-1.1c0,-.5,0,-1,-.2,-1.8c-.1,-.7,-.2,-1.3,-.2,-1.6c0,-.1,.2,-.3,.4,-.4c.2,-.3,.4,-.5,.4,-.8c0,-.8,-.5,-1.1,-1.3,-1.1h-1c-1.4,.1,-3.1,.4,-4.9,.7l-.4,-.2l-.1,-.3c0,-1,0,-2.3,.2,-4c.2,-2.2,.4,-3.3,.7,-3.4c.4,-.2,1,-.3,1.8,-.5l.4,.1l.1,.4V946l.2,.3l.3,.2c.1,0,.3,-.1,.4,-.2c.2,-.1,.3,-.2,.4,-.2c.2,0,.4,.1,.4,.3l.3,.3l.4,.1l.3,-.3c0,-.2,.1,-.3,.2,-.4c0,0,.2,0,.3,0c.2,0,.3,0,.4,0c.3,0,.4,-.1,.4,-.4c0,-.6,-.3,-2.3,-.9,-5.1l.2,-.4c.1,-.2,.1,-.3,.1,-.4c0,-.4,-.1,-.5,-.4,-.5c-.6,0,-1.4,.1,-2.6,.4c-1.1,.3,-2,.4,-2.5,.4c-.1,0,-.2,-.1,-.4,-.2c-.1,-.2,-.3,-.3,-.4,-.3c-.2,0,-.3,.1,-.5,.3c-.1,.1,-.2,.2,-.4,.2c0,0,-.2,0,-.3,-.1l-.4,.1l-.2,.3l-.1,.5Z" class="g3_8"/>
<path d="M511,990.1c0,-5.4,-.4,-8.1,-1.2,-8.1c-.5,0,-1.2,.2,-2.1,.4c-1.1,.3,-1.7,.7,-1.7,1c.1,1.8,.3,3.6,.9,5.3c0,.1,.2,.5,.6,1.2c.3,.5,.4,.9,.4,1.1l.2,.4l.3,.1c.9,-.2,1.7,-.4,2.4,-.9l.2,-.3v-.2Zm1.1,1c.1,0,-.5,.3,-1.7,.7c-1.4,.6,-2.5,.8,-3.5,.8c-1.7,0,-2.5,-.2,-2.5,-.8c0,0,0,-.1,0,-.2c.1,-.2,.1,-.3,.1,-.3c-1.3,-4.5,-1.9,-9.1,-1.9,-13.7c0,-3.1,.2,-4.9,.4,-5.4c.4,0,.7,.1,.9,.2h.4l.3,-.3l.2,-.5c.4,0,.8,.2,.9,.4l.4,.1h.2l.3,-.3c0,-.2,.1,-.2,.4,-.2c.2,0,.3,0,.3,.1h.4c2,-.4,3.1,-.7,3.4,-.7l.4,.1c.6,.9,1.1,1.8,1.3,2.5c.2,.5,.4,1.4,.7,2.6v.4l-.4,.2h-.2c0,0,-.1,0,-.2,-.1l-.4,-.1l-.2,.1l-.4,.1c-.4,-.1,-.6,-.1,-.6,-.1c-.2,0,-.4,.2,-.4,.6l-.1,.3l-.4,.2c-.3,-.1,-.4,-.2,-.4,-.5c0,-.3,-.2,-1,-.6,-2.2c-.3,-1.3,-.6,-2,-.8,-2.3l-.4,-.1l-.5,.1l-.3,.3c-.9,2.5,-1.3,5.1,-1.3,7.9v.3l.2,.4h.4c1.7,-.7,4.2,-1,7.5,-1c.4,0,.5,.1,.5,.4c0,.3,.1,.6,.3,.7c.1,.2,.2,.3,.2,.5c0,3.1,-.6,6.1,-1.7,8.8l-.3,.2h-.4c-.1,-.1,-.2,-.2,-.5,-.2Z" class="g2_8"/>
<path d="M511,990.3l-.2,.3c-.7,.5,-1.5,.7,-2.4,.9l-.3,-.1l-.2,-.4c0,-.2,-.1,-.6,-.4,-1.1c-.4,-.7,-.6,-1.1,-.6,-1.2c-.6,-1.7,-.8,-3.5,-.9,-5.3c0,-.3,.6,-.7,1.7,-1c.9,-.2,1.6,-.4,2.1,-.4c.8,0,1.2,2.7,1.2,8.1v.2Zm1.6,1h.4l.3,-.2c1.1,-2.7,1.7,-5.7,1.7,-8.8c0,-.2,-.1,-.3,-.2,-.5c-.2,-.1,-.3,-.4,-.3,-.6c0,-.4,-.1,-.5,-.5,-.5c-3.3,0,-5.8,.3,-7.5,1h-.4l-.2,-.4V981c0,-2.8,.4,-5.4,1.3,-7.9l.3,-.3l.5,-.1l.4,.1c.2,.3,.5,1,.8,2.3c.4,1.2,.6,1.9,.6,2.2c0,.3,.1,.4,.4,.5l.4,-.2l.1,-.3c0,-.4,.2,-.6,.4,-.6c0,0,.2,0,.6,.1l.4,-.1l.2,-.1l.4,.1c.1,.1,.2,.1,.2,.1h.2l.4,-.2v-.4c-.3,-1.2,-.5,-2.1,-.7,-2.6c-.2,-.7,-.7,-1.6,-1.3,-2.5l-.4,-.1c-.3,0,-1.4,.3,-3.4,.7h-.4c0,-.1,-.1,-.2,-.3,-.2c-.3,0,-.4,.1,-.4,.3l-.3,.3h-.2l-.4,-.1c-.1,-.2,-.5,-.4,-.9,-.4l-.2,.5l-.3,.3h-.4c-.2,-.1,-.5,-.2,-.9,-.2c-.2,.5,-.4,2.3,-.4,5.4c0,4.6,.6,9.2,1.9,13.7c0,0,0,.1,-.1,.3c0,.1,0,.2,0,.2c0,.6,.8,.8,2.5,.8c1,0,2.1,-.2,3.5,-.8c1.2,-.4,1.8,-.7,1.7,-.7c.3,0,.4,.1,.5,.2Z" class="g3_8"/>
<path d="M514.8,1005.9c.1,.2,.1,.4,.1,.5c0,.5,-.8,3.1,-2.5,8c-1.7,5.1,-2.6,8.2,-2.8,9.5l-.2,.4l-.4,.1c-.4,-.3,-.6,-.4,-.7,-.4c-.3,0,-.4,.2,-.4,.6c-.1,.1,-.2,.2,-.4,.4c-.4,-.2,-.7,-.3,-.8,-.5c0,-1.2,.1,-2.7,.4,-4.3c0,-.6,.3,-2.1,.7,-4.4c.1,-.8,.5,-2.5,1.2,-4.8c.6,-2.1,.9,-3.7,1,-5l-.1,-.3l-.3,-.1c-.9,-.1,-1.4,-.1,-1.7,-.1c-1.7,0,-2.6,.3,-2.6,.7c0,0,.1,.1,.2,.2l.1,.4c0,1.6,.1,2.1,.1,1.3c0,.7,-.2,1,-.6,1l-.3,-.1c-.1,-.1,-.2,-.2,-.3,-.2q-.2,0,-.2,.1l-.3,.3c-.1,.2,-.2,.3,-.4,.3c-1.1,0,-1.6,-.9,-1.6,-2.7c0,-.8,.2,-1.3,.5,-1.3c1.9,-.7,3.6,-1.1,5.2,-1.1c2,0,2.9,.1,2.8,.1c1.7,.1,2.9,.2,3.8,.3c.3,0,.4,.2,.4,.6v-.1c0,.2,.1,.4,.1,.6Z" class="g2_8"/>
<path d="M514.7,1005.3v.1c0,-.4,-.1,-.6,-.4,-.6c-.9,-.1,-2.1,-.2,-3.8,-.3c.1,0,-.8,-.1,-2.8,-.1c-1.6,0,-3.3,.4,-5.2,1.1c-.3,0,-.5,.5,-.5,1.3c0,1.8,.5,2.7,1.6,2.7c.2,0,.3,-.1,.4,-.3l.3,-.3q0,-.1,.2,-.1c.1,0,.2,.1,.3,.2l.3,.1c.4,0,.6,-.3,.6,-1c0,.8,-.1,.3,-.1,-1.3l-.1,-.4c-.1,-.1,-.2,-.2,-.2,-.2c0,-.4,.9,-.7,2.6,-.7c.3,0,.8,0,1.7,.1l.3,.1l.1,.3c-.1,1.3,-.4,2.9,-1,5c-.7,2.3,-1.1,4,-1.2,4.8c-.4,2.3,-.7,3.8,-.7,4.4c-.3,1.6,-.4,3.1,-.4,4.3c.1,.2,.4,.3,.8,.5c.2,-.2,.3,-.3,.4,-.4c0,-.4,.1,-.6,.4,-.6c.1,0,.3,.1,.7,.4l.4,-.1l.2,-.4c.2,-1.3,1.1,-4.4,2.8,-9.5c1.7,-4.9,2.5,-7.5,2.5,-8c0,-.1,0,-.3,-.1,-.5c0,-.2,-.1,-.4,-.1,-.6Z" class="g3_8"/>
<image clip-path="url(#ck_8)" preserveAspectRatio="none" x="477" y="880" width="39" height="41" xlink:href="img/21.webp"/>
<image clip-path="url(#cl_8)" preserveAspectRatio="none" x="143" y="1004" width="245" height="225" xlink:href="img/22.webp"/>
<image clip-path="url(#cm_8)" preserveAspectRatio="none" x="108" y="1004" width="244" height="225" xlink:href="img/23.webp"/>
<image clip-path="url(#cn_8)" preserveAspectRatio="none" x="182" y="1063" width="131" height="131" xlink:href="img/24.webp"/>
<image clip-path="url(#co_8)" preserveAspectRatio="none" x="478" y="793" width="367" height="88" xlink:href="img/25.webp"/>
<image clip-path="url(#cp_8)" preserveAspectRatio="none" x="478" y="1143" width="367" height="88" xlink:href="img/26.webp"/>
<image clip-path="url(#cq_8)" preserveAspectRatio="none" x="598" y="813" width="126" height="57" xlink:href="img/27.webp"/>
<image clip-path="url(#cr_8)" preserveAspectRatio="none" x="699" y="818" width="46" height="48" xlink:href="img/28.webp"/>
<image clip-path="url(#cs_8)" preserveAspectRatio="none" x="729" y="799" width="46" height="48" xlink:href="img/29.webp"/>
<image clip-path="url(#ct_8)" preserveAspectRatio="none" x="598" y="1158" width="126" height="57" xlink:href="img/30.webp"/>
<image clip-path="url(#cu_8)" preserveAspectRatio="none" x="700" y="1163" width="46" height="48" xlink:href="img/31.webp"/>
<image clip-path="url(#cv_8)" preserveAspectRatio="none" x="726" y="1141" width="46" height="48" xlink:href="img/32.webp"/>
<image clip-path="url(#cw_8)" preserveAspectRatio="none" x="763" y="1158" width="48" height="46" xlink:href="img/33.webp"/>
<image clip-path="url(#cx_8)" preserveAspectRatio="none" x="738" y="1187" width="33" height="37" xlink:href="img/34.webp"/>
<image clip-path="url(#cy_8)" preserveAspectRatio="none" x="668" y="1142" width="48" height="46" xlink:href="img/35.webp"/>
<path d="M27.4,1265.9c-.1,0,-.3,-.2,-.6,-.7c-.3,-.6,-.4,-.9,-.5,-1.1c0,-.1,0,-.4,0,-.7c0,-.7,.1,-1.6,.4,-2.5c0,-.1,0,-.2,-.1,-.3v-.2l.2,-.2c.6,-.1,1.2,-.2,1.9,-.2c.3,0,.5,.5,.7,1.4c.1,.7,.1,1.3,.1,1.7c0,1.6,-.1,2.5,-.3,2.6c-.4,.1,-1,.2,-1.8,.2ZM27,1255.8l.1,-.1c0,-.1,0,-.2,0,-.4c0,-.4,.5,-.6,1.6,-.6c.3,0,.5,.4,.7,1.2c.1,.6,.1,1.1,.1,1.6c0,.8,0,1.3,-.1,1.5c0,.2,-.2,.3,-.5,.4c-.5,0,-.9,0,-1.4,0h-.2l-.1,-.2c-.1,-.7,-.2,-1.6,-.3,-2.9c0,-.1,0,-.2,.1,-.5Zm5.2,8v0c0,-.4,-.1,-1.1,-.2,-1.9c-.1,-.8,-.1,-1.4,-.1,-1.8l-.1,-.3l-.1,-.3h-.2c0,0,-.1,0,-.3,0l-.3,-.1h-.5l-.2,-.1v-.3c0,-.2,.2,-.3,.4,-.2h.2l.1,-.2c.1,-.2,.1,-.3,.1,-.4c.1,-.2,.1,-1,.1,-2.1c0,-.1,0,-.3,.1,-.5c.1,-.2,.1,-.3,.1,-.4h-.1q-.2,-.1,-.2,-.3q0,-.1,.2,-.2c.1,-.1,.2,-.2,.2,-.3l-.1,-.2c-.2,-.2,-.8,-.2,-1.6,-.2c-.3,0,-1.5,.1,-3.5,.5h-.1c-.1,0,-.2,-.1,-.3,-.2l-.1,-.2h-.3l-.1,.2c-.4,.8,-.6,1.7,-.6,2.7c0,.2,.1,1,.3,2.3c0,.1,.2,.2,.5,.2c.1,0,.2,.1,.2,.3v.2c-.1,.1,-.1,.2,-.1,.3v.3c-.1,.1,-.3,.2,-.4,.3l-.2,-.2c-.1,-.1,-.2,-.2,-.3,-.2l-.3,.1l-.1,.2c0,.3,0,.7,0,1.3c0,.6,0,1.1,0,1.4c0,1.5,.2,2.2,.5,2.2q.1,0,.2,-.1c.1,-.1,.2,-.2,.3,-.2c.1,0,.3,.2,.3,.5c0,.1,0,.2,-.1,.3l.1,.2l.3,.1h1.3c1.5,0,2.6,-.2,3.5,-.8q.1,-.1,.2,-.1c.1,0,.2,.2,.2,.5c0,.2,.1,.2,.4,.2c.2,0,.4,-.3,.5,-1.1c.1,-.5,.2,-1,.2,-1.4Z" class="g3_8"/>
</svg>