<?xml version="1.0" encoding="UTF-8" standalone="no"?>
<!DOCTYPE svg PUBLIC "-//W3C//DTD SVG 1.1//EN"
"http://www.w3.org/Graphics/SVG/1.1/DTD/svg11.dtd">
<svg viewBox="0 0 908 1285" version="1.1" xmlns="http://www.w3.org/2000/svg" xmlns:xlink="http://www.w3.org/1999/xlink">
<defs>
<clipPath id="c0_37"><path d="M-33.6,237.2V-33.6H292V237.2Z"/></clipPath>
<clipPath id="c1_37"><path d="M291.3,237.2V-33.6h326V237.2Z"/></clipPath>
<clipPath id="c2_37"><path d="M616.7,237.2V-33.6H942.3V237.2Z"/></clipPath>
<clipPath id="c3_37"><path d="M-33.6,507.6V236.5H292V507.6Z"/></clipPath>
<clipPath id="c4_37"><path d="M616.7,507.6V236.5H942.3V507.6Z"/></clipPath>
<clipPath id="c5_37"><path d="M-33.6,778.5V507H292V778.5Z"/></clipPath>
<clipPath id="c6_37"><path d="M291.3,778.5V507h326V778.5Z"/></clipPath>
<clipPath id="c7_37"><path d="M616.7,778.5V507H942.3V778.5Z"/></clipPath>
<clipPath id="c8_37"><path d="M-33.6,1048.9V777.8H292v271.1Z"/></clipPath>
<clipPath id="c9_37"><path d="M616.7,1048.9V777.8H942.3v271.1Z"/></clipPath>
<clipPath id="ca_37"><path d="M-33.6,1319.1V1048.3H292v270.8Z"/></clipPath>
<clipPath id="cb_37"><path d="M291.3,1319.1V1048.3h326v270.8Z"/></clipPath>
<clipPath id="cc_37"><path d="M616.7,1319.1V1048.3H942.3v270.8Z"/></clipPath>
</defs>
<image clip-path="url(#c0_37)" preserveAspectRatio="none" x="-33" y="-33" width="325" height="270" xlink:href="img/1.jpg"/>
<image clip-path="url(#c1_37)" preserveAspectRatio="none" x="291" y="-33" width="326" height="270" xlink:href="img/2.jpg"/>
<image clip-path="url(#c2_37)" preserveAspectRatio="none" x="617" y="-33" width="326" height="270" xlink:href="img/3.jpg"/>
<image clip-path="url(#c3_37)" preserveAspectRatio="none" x="-33" y="236" width="325" height="272" xlink:href="img/4.jpg"/>
<image preserveAspectRatio="none" x="291" y="236" width="326" height="272" xlink:href="img/5.jpg"/>
<image clip-path="url(#c4_37)" preserveAspectRatio="none" x="617" y="236" width="326" height="272" xlink:href="img/6.jpg"/>
<image clip-path="url(#c5_37)" preserveAspectRatio="none" x="-33" y="507" width="325" height="271" xlink:href="img/7.jpg"/>
<image clip-path="url(#c6_37)" preserveAspectRatio="none" x="291" y="507" width="326" height="271" xlink:href="img/8.jpg"/>
<image clip-path="url(#c7_37)" preserveAspectRatio="none" x="617" y="507" width="326" height="271" xlink:href="img/9.jpg"/>
<image clip-path="url(#c8_37)" preserveAspectRatio="none" x="-33" y="778" width="325" height="271" xlink:href="img/10.jpg"/>
<image preserveAspectRatio="none" x="291" y="778" width="326" height="271" xlink:href="img/11.jpg"/>
<image clip-path="url(#c9_37)" preserveAspectRatio="none" x="617" y="778" width="326" height="271" xlink:href="img/12.jpg"/>
<image clip-path="url(#ca_37)" preserveAspectRatio="none" x="-33" y="1048" width="325" height="272" xlink:href="img/13.jpg"/>
<image clip-path="url(#cb_37)" preserveAspectRatio="none" x="291" y="1048" width="326" height="272" xlink:href="img/14.jpg"/>
<image clip-path="url(#cc_37)" preserveAspectRatio="none" x="617" y="1048" width="326" height="272" xlink:href="img/15.jpg"/>
</svg>