<?xml version="1.0" encoding="UTF-8" standalone="no"?>
<!DOCTYPE svg PUBLIC "-//W3C//DTD SVG 1.1//EN"
"http://www.w3.org/Graphics/SVG/1.1/DTD/svg11.dtd">
<svg viewBox="0 0 908 1286" version="1.1" xmlns="http://www.w3.org/2000/svg" xmlns:xlink="http://www.w3.org/1999/xlink">
<defs>
<clipPath id="c0_4"><path d="M0,1285.7V2.6H909V1285.7Z"/></clipPath>
<clipPath id="c1_4"><path d="M233.4,1156.2v-24.6h28.4v24.6Z"/></clipPath>
<clipPath id="c2_4"><path d="M154.9,1216.6v-24.1h15.4v24.1Z"/></clipPath>
<clipPath id="c3_4"><path d="M738.1,1009V987.5h28.4V1009Z"/></clipPath>
<clipPath id="c4_4"><path d="M57.6,309.8V86H439.4V309.8Z"/></clipPath>
<clipPath id="c5_4"><path d="M0,1285.7V0H909V1285.7Z"/></clipPath>
<clipPath id="c6_4"><path d="M213.1,524.7c-2.5,0,-3.9,-2.4,-3.9,-2.4L192.6,493.6L172.5,458.8l-4.8,-8.5l-1,-1.7c-2.3,-3.9,1.7,-6.2,1.7,-6.2l7.8,-4.5l10.9,-6.3l27.8,-16.1c.9,-.5,1.7,-.7,2.4,-.7c2.4,0,3.8,2.4,3.8,2.4l13.6,23.5l16.8,29.2l12.2,21c2.2,4,-1.7,6.2,-1.7,6.2L215.5,524c-.9,.5,-1.7,.7,-2.4,.7Z"/></clipPath>
<clipPath id="c7_4"><path d="M230.8,494.1l-3.3,-5.7l-1.3,-2.2l.7,-.4l7.2,-4.1l4.6,7.8l-7.9,4.6Z"/></clipPath>
<clipPath id="c8_4"><path d="M237.3,490.4l-4.6,-7.9l4.8,-2.8l3.1,-1.8l4.6,7.9l-4.3,2.5l-3.6,2.1Z"/></clipPath>
<clipPath id="c9_4"><path d="M213.6,436.1l-4.9,-8.4l7.3,-4.3l2.9,5.2l2,3.3l-5.2,3l-2.1,1.2Z"/></clipPath>
<clipPath id="ca_4"><path d="M221.6,509.2c-4.5,0,-4.5,-4.5,-4.5,-4.6V419.5c0,-4.5,4.5,-4.5,4.5,-4.5h53.7c4.6,0,4.6,4.5,4.6,4.5v85.1c0,4.6,-4.6,4.6,-4.6,4.6Z"/></clipPath>
<clipPath id="cb_4"><path d="M256.4,500.1V491h9.1v9.1Z"/></clipPath>
<clipPath id="cc_4"><path d="M263.9,500.1V491H273v9.1Z"/></clipPath>
<clipPath id="cd_4"><path d="M284,524.7c-1.4,0,-2.5,-.7,-2.5,-.7L235,497.2c-3.8,-2.2,-1.9,-6,-1.7,-6.3l26.9,-46.5l15.6,-27.1c1.1,-1.9,2.5,-2.3,3.7,-2.3c1.4,0,2.5,.5,2.6,.6l5,2.9l30.6,17.7l11,6.3c3.6,2.2,1.8,5.8,1.6,6.2l-42.6,73.8c-1.1,1.7,-2.5,2.2,-3.7,2.2Z"/></clipPath>
<clipPath id="ce_4"><path d="M290.5,507.3l-7.8,-4.5l.9,-1.6l3.6,-6.3l7.9,4.5l-4.6,7.9Z"/></clipPath>
<clipPath id="cf_4"><path d="M277.6,499.8l-7.9,-4.5l4.5,-7.9l3.8,2.2l4.1,2.3l-1.5,2.6l-3,5.3Z"/></clipPath>
<clipPath id="cg_4"><path d="M284.1,503.6L276.2,499l4.5,-7.9l7.9,4.6l-3.4,5.9l-1.1,2Z"/></clipPath>
<clipPath id="ch_4"><path d="M283.6,546.2c-2.5,0,-3.9,-2.4,-3.9,-2.4L252.9,497.3c-2.3,-3.9,1.6,-6.2,1.6,-6.2l63.3,-36.6l3.5,-2l6.6,-3.8l.3,-.2c.9,-.5,1.7,-.7,2.4,-.7c2.5,0,3.8,2.4,3.8,2.4l13.5,23.3l13.4,23.3c2.3,3.9,-1.7,6.2,-1.7,6.2l-27.1,15.6L312,530.5l-26.1,15.1c-.9,.4,-1.7,.6,-2.3,.6Z"/></clipPath>
<style type="text/css"><![CDATA[
.g0_4{
fill: #FFFFFF;
}
.g1_4{
fill: none;
stroke: #000000;
stroke-width: 0.916;
stroke-linecap: butt;
stroke-linejoin: miter;
}
.g2_4{
}
.g3_4{
fill: none;
stroke: #FFFFFF;
stroke-width: 1.236;
stroke-linecap: butt;
stroke-linejoin: miter;
}
.g4_4{
fill: none;
stroke: #FFFFFF;
stroke-width: 1.374;
stroke-linecap: butt;
stroke-linejoin: miter;
}
]]></style>
</defs>
<path d="M0,0H909V1285.7H0V0Z" class="g0_4"/>
<image clip-path="url(#c0_4)" preserveAspectRatio="none" x="-21" y="-18" width="932" height="1328" xlink:href="img/1.jpg"/>
<image clip-path="url(#c1_4)" preserveAspectRatio="none" x="233" y="1132" width="29" height="24" xlink:href="img/2.png"/>
<image clip-path="url(#c2_4)" preserveAspectRatio="none" x="155" y="1192" width="15" height="25" xlink:href="img/3.png"/>
<image clip-path="url(#c3_4)" preserveAspectRatio="none" x="738" y="987" width="29" height="22" xlink:href="img/4.png"/>
<path d="M56.3,75.5H439.4" class="g1_4"/>
<image clip-path="url(#c4_4)" preserveAspectRatio="none" x="58" y="86" width="382" height="224" xlink:href="img/5.png"/>
<path d="M56.3,403.4H439.4M469.7,75.5H852.8" class="g1_4"/>
<path d="M68.2,1022.5c6.6,0,12,-5.3,12,-11.9c0,-6.6,-5.4,-12,-12,-12c-6.6,0,-11.9,5.4,-11.9,12c0,6.6,5.3,11.9,11.9,11.9Z" class="g2_4"/>
<path d="M68.2,1049.7c6.6,0,12,-5.4,12,-12c0,-6.6,-5.4,-11.9,-12,-11.9c-6.6,0,-11.9,5.3,-11.9,11.9c0,6.6,5.3,12,11.9,12Z" class="g2_4"/>
<path d="M68.2,1076.8c6.6,0,12,-5.3,12,-11.9c0,-6.6,-5.4,-12,-12,-12c-6.6,0,-11.9,5.4,-11.9,12c0,6.6,5.3,11.9,11.9,11.9Z" class="g2_4"/>
<path d="M68.2,1104c6.6,0,12,-5.4,12,-12c0,-6.6,-5.4,-11.9,-12,-11.9c-6.6,0,-11.9,5.3,-11.9,11.9c0,6.6,5.3,12,11.9,12Z" class="g2_4"/>
<path d="M68.2,1132.3c6.6,0,12,-5.3,12,-11.9c0,-6.6,-5.4,-12,-12,-12c-6.6,0,-11.9,5.4,-11.9,12c0,6.6,5.3,11.9,11.9,11.9Z" class="g2_4"/>
<path d="M68.2,1160.3c6.6,0,12,-5.3,12,-11.9c0,-6.6,-5.4,-12,-12,-12c-6.6,0,-11.9,5.4,-11.9,12c0,6.6,5.3,11.9,11.9,11.9Z" class="g2_4"/>
<image clip-path="url(#c5_4)" preserveAspectRatio="none" x="167" y="723" width="176" height="260" xlink:href="img/6.jpg"/>
<path d="M306.3,746.5c6.6,0,12.1,-5.4,12.1,-12.1c0,-6.6,-5.5,-12.1,-12.1,-12.1c-6.7,0,-12.1,5.5,-12.1,12.1c0,6.7,5.4,12.1,12.1,12.1Z" class="g2_4"/>
<path d="M306.3,746.5c6.6,0,12.1,-5.4,12.1,-12.1c0,-6.6,-5.5,-12.1,-12.1,-12.1c-6.7,0,-12.1,5.5,-12.1,12.1c0,6.7,5.4,12.1,12.1,12.1Z" class="g3_4"/>
<path d="M322.1,807.6c6.6,0,12.1,-5.4,12.1,-12.1c0,-6.6,-5.5,-12.1,-12.1,-12.1c-6.7,0,-12.1,5.5,-12.1,12.1c0,6.7,5.4,12.1,12.1,12.1Z" class="g2_4"/>
<path d="M322.1,807.6c6.6,0,12.1,-5.4,12.1,-12.1c0,-6.6,-5.5,-12.1,-12.1,-12.1c-6.7,0,-12.1,5.5,-12.1,12.1c0,6.7,5.4,12.1,12.1,12.1Z" class="g3_4"/>
<path d="M249.9,750.6c6.7,0,12.1,-5.4,12.1,-12.1c0,-6.7,-5.4,-12.1,-12.1,-12.1c-6.7,0,-12.1,5.4,-12.1,12.1c0,6.7,5.4,12.1,12.1,12.1Z" class="g2_4"/>
<path d="M249.9,750.6c6.7,0,12.1,-5.4,12.1,-12.1c0,-6.7,-5.4,-12.1,-12.1,-12.1c-6.7,0,-12.1,5.4,-12.1,12.1c0,6.7,5.4,12.1,12.1,12.1Z" class="g3_4"/>
<path d="M176,740.5c6.6,0,12,-5.4,12,-12.1c0,-6.7,-5.4,-12.1,-12,-12.1c-6.7,0,-12.1,5.4,-12.1,12.1c0,6.7,5.4,12.1,12.1,12.1Z" class="g2_4"/>
<path d="M176,740.5c6.6,0,12,-5.4,12,-12.1c0,-6.7,-5.4,-12.1,-12,-12.1c-6.7,0,-12.1,5.4,-12.1,12.1c0,6.7,5.4,12.1,12.1,12.1Z" class="g3_4"/>
<path d="M221,790.1c6.7,0,12.1,-5.4,12.1,-12.1c0,-6.7,-5.4,-12.1,-12.1,-12.1c-6.7,0,-12.1,5.4,-12.1,12.1c0,6.7,5.4,12.1,12.1,12.1Z" class="g2_4"/>
<path d="M221,790.1c6.7,0,12.1,-5.4,12.1,-12.1c0,-6.7,-5.4,-12.1,-12.1,-12.1c-6.7,0,-12.1,5.4,-12.1,12.1c0,6.7,5.4,12.1,12.1,12.1Z" class="g3_4"/>
<path d="M247.8,883.3c6.7,0,12.1,-5.4,12.1,-12.1c0,-6.7,-5.4,-12.1,-12.1,-12.1c-6.7,0,-12.1,5.4,-12.1,12.1c0,6.7,5.4,12.1,12.1,12.1Z" class="g2_4"/>
<image clip-path="url(#c5_4)" preserveAspectRatio="none" x="565" y="447" width="193" height="288" xlink:href="img/7.jpg"/>
<path d="M579.6,469.4c7.4,0,13.4,-6,13.4,-13.4c0,-7.4,-6,-13.4,-13.4,-13.4c-7.4,0,-13.4,6,-13.4,13.4c0,7.4,6,13.4,13.4,13.4Z" class="g2_4"/>
<path d="M702.7,533.2c7.4,0,13.4,-6,13.4,-13.5c0,-7.4,-6,-13.4,-13.4,-13.4c-7.4,0,-13.4,6,-13.4,13.4c0,7.5,6,13.5,13.4,13.5Z" class="g2_4"/>
<path d="M723.7,697.8c7.5,0,13.5,-6,13.5,-13.5c0,-7.4,-6,-13.4,-13.5,-13.4c-7.4,0,-13.4,6,-13.4,13.4c0,7.5,6,13.5,13.4,13.5Z" class="g2_4"/>
<path d="M723.7,697.8c7.5,0,13.5,-6,13.5,-13.5c0,-7.4,-6,-13.4,-13.5,-13.4c-7.4,0,-13.4,6,-13.4,13.4c0,7.5,6,13.5,13.4,13.5Z" class="g4_4"/>
<path d="M576.5,519.7c7.4,0,13.4,-6,13.4,-13.4c0,-7.4,-6,-13.5,-13.4,-13.5c-7.4,0,-13.5,6.1,-13.5,13.5c0,7.4,6.1,13.4,13.5,13.4Z" class="g2_4"/>
<path d="M576.5,684.3c7.4,0,13.4,-6,13.4,-13.4c0,-7.4,-6,-13.5,-13.4,-13.5c-7.4,0,-13.5,6.1,-13.5,13.5c0,7.4,6.1,13.4,13.5,13.4Z" class="g2_4"/>
<path d="M576.5,599.4c7.4,0,13.4,-6,13.4,-13.4c0,-7.5,-6,-13.5,-13.4,-13.5c-7.4,0,-13.5,6,-13.5,13.5c0,7.4,6.1,13.4,13.5,13.4Z" class="g2_4"/>
<path d="M481.6,790.9c6.6,0,12,-5.4,12,-12c0,-6.6,-5.4,-11.9,-12,-11.9c-6.6,0,-11.9,5.3,-11.9,11.9c0,6.6,5.3,12,11.9,12Z" class="g2_4"/>
<path d="M481.6,819.3c6.6,0,12,-5.3,12,-11.9c0,-6.6,-5.4,-12,-12,-12c-6.6,0,-11.9,5.4,-11.9,12c0,6.6,5.3,11.9,11.9,11.9Z" class="g2_4"/>
<path d="M481.6,845.6c6.6,0,12,-5.3,12,-11.9c0,-6.6,-5.4,-12,-12,-12c-6.6,0,-11.9,5.4,-11.9,12c0,6.6,5.3,11.9,11.9,11.9Z" class="g2_4"/>
<path d="M481.6,919.9c6.6,0,12,-5.3,12,-11.9c0,-6.6,-5.4,-12,-12,-12c-6.6,0,-11.9,5.4,-11.9,12c0,6.6,5.3,11.9,11.9,11.9Z" class="g2_4"/>
<path d="M481.6,948.2c6.6,0,12,-5.4,12,-12c0,-6.6,-5.4,-11.9,-12,-11.9c-6.6,0,-11.9,5.3,-11.9,11.9c0,6.6,5.3,12,11.9,12Z" class="g2_4"/>
<path d="M481.6,976c6.6,0,12,-5.4,12,-12c0,-6.6,-5.4,-11.9,-12,-11.9c-6.6,0,-11.9,5.3,-11.9,11.9c0,6.6,5.3,12,11.9,12Z" class="g2_4"/>
<path d="M481.6,1157.9c6.6,0,12,-5.4,12,-12c0,-6.6,-5.4,-11.9,-12,-11.9c-6.6,0,-11.9,5.3,-11.9,11.9c0,6.6,5.3,12,11.9,12Z" class="g2_4"/>
<path d="M641.1,753.1c6.6,0,12,-5.3,12,-11.9c0,-6.6,-5.4,-12,-12,-12c-6.6,0,-11.9,5.4,-11.9,12c0,6.6,5.3,11.9,11.9,11.9Z" class="g2_4"/>
<path d="M30.4,1266.4v.1c.2,0,.3,-.3,.3,-.9c0,-.1,0,-.2,.1,-.4c0,0,.1,-.2,.1,-.3c0,-1,.1,-2.6,.1,-4.6c.1,-2,.1,-3.6,.1,-4.6v-1.1l-.1,-.2l-.2,-.1h-.3c-.1,0,-.2,-.1,-.3,-.1c0,-.1,-.1,-.2,-.2,-.2c-.1,0,-.2,0,-.3,.2c-.1,.1,-.2,.2,-.3,.2c-.2,0,-.3,.2,-.3,.4c0,-.2,0,0,0,.7v1.4c0,2.1,0,3.2,-.2,3.3c-.4,.1,-1,.2,-2,.4l-.2,-.1l-.1,-.2c-.2,-1.3,-.4,-3.2,-.7,-5.8v-.2l-.3,-.1l-.4,.2c-.1,-.1,-.2,-.1,-.4,-.2c-.3,-.1,-.5,.8,-.5,2.5c0,1,.1,2.5,.3,4.5l.2,.2l.2,.1l.2,-.1c.1,-.1,.2,-.1,.4,-.1c1.3,-.1,2.3,-.2,3.1,-.4h.2l.1,.3c0,1.5,-.1,3,-.3,4.5l.1,.3h.3c.2,0,.3,-.2,.3,-.6c0,-.3,0,-.6,.1,-.9c0,-.6,.1,-.8,.3,-.8c.1,0,.2,.2,.3,.6c0,.2,0,.6,0,1.1c0,.6,0,.9,0,.7v.2l.3,.1Z" class="g2_4"/>
<path clip-path="url(#c6_4)" d="M208.5,536.7l67.4,-38.9L221.3,403.2l-67.4,38.9l54.6,94.6Z" class="g0_4"/>
<image clip-path="url(#c7_4)" preserveAspectRatio="none" x="226" y="481" width="13" height="13" xlink:href="img/8.png"/>
<image clip-path="url(#c8_4)" preserveAspectRatio="none" x="232" y="478" width="13" height="13" xlink:href="img/9.png"/>
<image clip-path="url(#c9_4)" preserveAspectRatio="none" x="209" y="423" width="12" height="13" xlink:href="img/10.png"/>
<path clip-path="url(#ca_4)" d="M209.3,516.7h77.8V407.5H209.3V516.7Z" class="g0_4"/>
<image clip-path="url(#cb_4)" preserveAspectRatio="none" x="256" y="491" width="9" height="9" xlink:href="img/11.png"/>
<image clip-path="url(#cc_4)" preserveAspectRatio="none" x="264" y="491" width="9" height="9" xlink:href="img/12.png"/>
<path clip-path="url(#cd_4)" d="M220.5,497.5l67.4,38.9l54.6,-94.6L275.1,402.9l-54.6,94.6Z" class="g0_4"/>
<image clip-path="url(#ce_4)" preserveAspectRatio="none" x="282" y="495" width="13" height="12" xlink:href="img/13.png"/>
<image clip-path="url(#cf_4)" preserveAspectRatio="none" x="269" y="487" width="13" height="13" xlink:href="img/14.png"/>
<image clip-path="url(#cg_4)" preserveAspectRatio="none" x="276" y="491" width="13" height="13" xlink:href="img/15.png"/>
<path clip-path="url(#ch_4)" d="M240.1,490.4L279,557.8l94.6,-54.6L334.7,435.8l-94.6,54.6Z" class="g0_4"/>
<g clip-path="url(#c5_4)">
<image preserveAspectRatio="none" x="133" y="452" width="109" height="99" xlink:href="img/16.png"/>
<image preserveAspectRatio="none" x="160" y="420" width="95" height="106" xlink:href="img/17.png"/>
<image preserveAspectRatio="none" x="216" y="414" width="64" height="96" xlink:href="img/18.jpg"/>
<image preserveAspectRatio="none" x="231" y="413" width="102" height="112" xlink:href="img/19.png"/>
<image preserveAspectRatio="none" x="252" y="446" width="109" height="106" xlink:href="img/20.png"/>
<image preserveAspectRatio="none" x="533" y="131" width="123" height="111" xlink:href="img/21.png"/>
<image preserveAspectRatio="none" x="565" y="91" width="111" height="124" xlink:href="img/22.png"/>
<image preserveAspectRatio="none" x="624" y="91" width="69" height="103" xlink:href="img/23.jpg"/>
<image preserveAspectRatio="none" x="642" y="91" width="111" height="124" xlink:href="img/24.png"/>
<image preserveAspectRatio="none" x="671" y="128" width="124" height="111" xlink:href="img/25.png"/>
</g>
</svg>