<?xml version="1.0" encoding="UTF-8" standalone="no"?>
<!DOCTYPE svg PUBLIC "-//W3C//DTD SVG 1.1//EN"
"http://www.w3.org/Graphics/SVG/1.1/DTD/svg11.dtd">
<svg viewBox="0 0 907 1284" version="1.1" xmlns="http://www.w3.org/2000/svg" xmlns:xlink="http://www.w3.org/1999/xlink">
<defs>
<clipPath id="c0_5"><path d="M866.3,1242V958.3H42.3V1242Zm-.5,-509.9V41.8H41.8V732.1ZM0,1284.4V0H907.6V1284.4Z"/></clipPath>
<clipPath id="c1_5"><path d="M907.6,0V0h.1Z"/></clipPath>
<clipPath id="c2_5"><path d="M43,95.9V43H864.7V95.9H821.8V66H85.8V95.9Z"/></clipPath>
<clipPath id="c3_5"><path d="M43,730.9V95.2H85.8V501.1H98.1V730.9Z"/></clipPath>
<clipPath id="c4_5"><path d="M809.8,730.9V501.1h12V95.2h42.9V730.9Z"/></clipPath>
<clipPath id="c5_5"><path d="M97.4,730.9V501.1H591.3V730.9Z"/></clipPath>
<clipPath id="c6_5"><path d="M590.6,730.9V501.1h220V730.9Z"/></clipPath>
<clipPath id="c7_5"><path d="M43.5,1006.5v-47H865.2v47H821.8V993H85.8v13.5Z"/></clipPath>
<clipPath id="c8_5"><path d="M43.5,1240.9V1005.8H85.8v214.4H98.6v20.7Z"/></clipPath>
<clipPath id="c9_5"><path d="M810.3,1240.9v-20.7h11.5V1005.8h43.4v235.1Z"/></clipPath>
<clipPath id="ca_5"><path d="M97.9,1240.9v-20.7H811.1v20.7Z"/></clipPath>
<clipPath id="cb_5"><path d="M784.7,260V191.4H765.6v-2.1h-52v52h2.2V260Zm-523,-36.7V156.6H243.8v-3.2h-52v51.9H195v18ZM641.2,207.6v-92H543.6v92ZM527.4,258.1V115.9H498.9V76H479.8V73.9H428.9v42h-5.1v-41H405.1V72.8h-52v43.1h-89v78.3c-1.1,2.9,-1.9,6,-2.2,9.2c-.4,5.3,.4,10.4,2.2,15v39.7ZM85.8,501.1V66h736V501.1Z"/></clipPath>
<clipPath id="cc_5"><path d="M188.7,483.4V356.7h84.4V483.4Z"/></clipPath>
<clipPath id="cd_5"><path d="M273.1,483.4V356.7h84.5V483.4Z"/></clipPath>
<clipPath id="ce_5"><path d="M354.3,483.4V356.7h84.5V483.4Z"/></clipPath>
<clipPath id="cf_5"><path d="M104.2,483.4V356.7h84.5V483.4Z"/></clipPath>
<clipPath id="cg_5"><path d="M440.9,483.4V356.7h84.5V483.4Z"/></clipPath>
<clipPath id="ch_5"><path d="M195,223.3v-18h48.8V156.6h17.9v66.7Z"/></clipPath>
<clipPath id="ci_5"><path d="M191.8,205.3V153.4h52v3.2H195v48.7Z"/></clipPath>
<clipPath id="cj_5"><path d="M195,205.3V156.6h48.8v48.7Z"/></clipPath>
<clipPath id="ck_5"><path d="M715.8,260V241.3h49.8V191.4h19.1V260Z"/></clipPath>
<clipPath id="cl_5"><path d="M713.6,241.3v-52h52v2.1H715.8v49.9Z"/></clipPath>
<clipPath id="cm_5"><path d="M715.8,241.3V191.4h49.8v49.9Z"/></clipPath>
<clipPath id="cn_5"><path d="M479.8,115.9V76h19.1v39.9Z"/></clipPath>
<clipPath id="co_5"><path d="M428.9,115.9v-42h50.9V76H431v39.9Z"/></clipPath>
<clipPath id="cp_5"><path d="M431,115.9V76h48.8v39.9Z"/></clipPath>
<clipPath id="cq_5"><path d="M405.1,115.9v-41h18.7v41Z"/></clipPath>
<clipPath id="cr_5"><path d="M353.1,115.9V72.8h52v2.1H355.2v41Z"/></clipPath>
<clipPath id="cs_5"><path d="M355.2,115.9v-41h49.9v41Z"/></clipPath>
<clipPath id="ct_5"><path d="M543.6,207.6v-92h97.6v92Z"/></clipPath>
<clipPath id="cu_5"><path d="M264.1,194.2V115.9h89v8.7h2.1v18.9h68.6V115.9h5.1v8.9H431v18.4l-91.3,38.5v-.3H320.6v-2.1h-7.7c-4.5,-3.1,-9.8,-5.1,-15.6,-5.6c-.9,-.1,-1.9,-.1,-2.8,-.1c-6.8,0,-13.1,2.1,-18.4,5.7h-7.4v6.9c-1.9,2.4,-3.4,5.1,-4.6,8Zm0,63.9V218.4c1.2,2.9,2.7,5.5,4.6,7.9v5.1h2.1v18.9h68.9V188.4L446,143.5h52.9V115.9h28.5V258.1Z"/></clipPath>
<clipPath id="cv_5"><path d="M431,143.2V124.8h43.6L431,143.2Zm15,.3l50.7,-21.4l-2.3,-5.7l-14.6,6.2v-6.7h19.1v27.6Z"/></clipPath>
<clipPath id="cw_5"><path d="M428.9,124.8v-8.9H431v8.9Z"/></clipPath>
<clipPath id="cx_5"><path d="M431,124.8v-8.9h48.8v6.7l-5.2,2.2Z"/></clipPath>
<clipPath id="cy_5"><path d="M355.2,143.5V124.6h49.9v-8.7h18.7v27.6Z"/></clipPath>
<clipPath id="cz_5"><path d="M353.1,124.6v-8.7h2.1v8.7Z"/></clipPath>
<clipPath id="c10_5"><path d="M355.2,124.6v-8.7h49.9v8.7Z"/></clipPath>
<clipPath id="c11_5"><path d="M270.8,250.3V231.4h2.8c4.9,4.1,11.1,6.9,18,7.5c1,.1,2,.1,2.9,.1c7.9,0,15.2,-2.8,20.9,-7.6h5.2v-5.5c3.6,-4.7,5.9,-10.4,6.5,-16.8c.4,-5.1,-.3,-10,-2.1,-14.5l14.7,-6.2v61.9Zm51.5,-61.2c-.5,-.8,-1.1,-1.7,-1.7,-2.4v-5.3h19.1v.3l-17.4,7.4Z"/></clipPath>
<clipPath id="c12_5"><path d="M325,194.6c-.7,-1.9,-1.6,-3.8,-2.7,-5.5l17.4,-7.4v6.7L325,194.6Z"/></clipPath>
<clipPath id="c13_5"><path d="M294.5,239c-.9,0,-1.9,0,-2.9,-.1c-6.9,-.6,-13.1,-3.4,-18,-7.5h41.8c-5.7,4.8,-13,7.6,-20.9,7.6Zm26.1,-13.1V186.7c.6,.7,1.2,1.6,1.7,2.4c1.1,1.7,2,3.6,2.7,5.5c1.8,4.5,2.5,9.4,2.1,14.5c-.6,6.4,-2.9,12.1,-6.5,16.8Z"/></clipPath>
<clipPath id="c14_5"><path d="M268.7,231.4v-5.1c.6,.9,1.3,1.7,2.1,2.5v2.6Zm0,-45.2v-6.9h7.4c-1,.6,-1.9,1.3,-2.8,2.1h-2.5v2.4c-.8,.8,-1.5,1.6,-2.1,2.4Zm47,-4.8c-.9,-.8,-1.8,-1.5,-2.8,-2.1h7.7v2.1Z"/></clipPath>
<clipPath id="c15_5"><path d="M270.8,228.8c-.8,-.8,-1.5,-1.6,-2.1,-2.5V186.2c.6,-.8,1.3,-1.6,2.1,-2.4v45Zm2.5,-47.4c.9,-.8,1.8,-1.5,2.8,-2.1h36.8c1,.6,1.9,1.3,2.8,2.1Z"/></clipPath>
<clipPath id="c16_5"><path d="M270.8,231.4v-2.6c.9,.9,1.8,1.8,2.8,2.6Zm44.6,0c2,-1.6,3.7,-3.4,5.2,-5.5v5.5ZM270.8,183.8v-2.4h2.5c-.9,.7,-1.7,1.5,-2.5,2.4Zm49.8,2.9c-1.4,-2,-3.1,-3.8,-4.9,-5.3h4.9v5.3Z"/></clipPath>
<clipPath id="c17_5"><path d="M273.6,231.4c-1,-.8,-1.9,-1.7,-2.8,-2.6v-45c.8,-.9,1.6,-1.7,2.5,-2.4h42.4c1.8,1.5,3.5,3.3,4.9,5.3v39.2c-1.5,2.1,-3.2,3.9,-5.2,5.5Z"/></clipPath>
<clipPath id="c18_5"><path d="M769.3,1220.2v-6.5h52.5v6.5Z"/></clipPath>
<clipPath id="c19_5"><path d="M85.8,1220.2v-6.5H770v6.5Z"/></clipPath>
<clipPath id="c1a_5"><path d="M313.3,1060.9v-46.5H171.8v46.5Zm417.1,132.8v-52.3h37v-68.5H748.3v-2.1h-52v2.1H685.4v-2.1H634.5v1H624v-2.1H604.5v-5.1h196v-50.2H571.4v21.9H560.7v-20.8H507.6v30.3H485.2v-30.3H432.8v30.3H402.1v42.5H510.6v-40.9h33v50.9H572v9.3H355.4v18.5H344v-51.6h-1.2v-8.8l6.3,-4.6l3.7,5.1l12.5,-18.8h36.4v-31.9H362.1v29.7l-20.4,5.9l3.7,5.1l-12.2,9h-8.3V1062h-52v3.2H261.8V1062h-52v21.8h-2.1v-3.2h-52v51.9h3.2v18h62v24.4h3.2v17.9H357v-42.7H579.8v-9.4h8.4v33.1h2.1v18.7h69v-52.2h.4v34.5h2.1v18.9Zm-644.6,20V993h736v220.7Z"/></clipPath>
<clipPath id="c1b_5"><path d="M272.9,1126.1v-3.2H225.6v-9h36.2v-48.7h11.1v14.4c-2.9,4.3,-4.7,9.4,-5.2,15c-.7,8.3,1.7,16.2,6.4,22.4v6.3h2v2.8Z"/></clipPath>
<clipPath id="c1c_5"><path d="M209.8,1083.8V1062h52v3.2H213v18.6Z"/></clipPath>
<clipPath id="c1d_5"><path d="M225.6,1113.9v-30.1H213v-18.6h48.8v48.7Z"/></clipPath>
<clipPath id="c1e_5"><path d="M158.9,1150.5v-18h48.8v-48.7h2.1v30.1H213v18h7.9v18.6Z"/></clipPath>
<clipPath id="c1f_5"><path d="M213,1131.9v-18h12.6v9h-4.7v9Z"/></clipPath>
<clipPath id="c1g_5"><path d="M209.8,1113.9v-30.1H213v30.1Z"/></clipPath>
<clipPath id="c1h_5"><path d="M213,1113.9v-30.1h12.6v30.1Z"/></clipPath>
<clipPath id="c1i_5"><path d="M155.7,1132.5v-51.9h52v3.2H158.9v48.7Z"/></clipPath>
<clipPath id="c1j_5"><path d="M158.9,1132.5v-48.7h48.8v48.7Z"/></clipPath>
<clipPath id="c1k_5"><path d="M224.1,1192.8v-17.9h48.8v-43h4.4v9.3h9.8v33.7h3.2v17.9Z"/></clipPath>
<clipPath id="c1l_5"><path d="M272.9,1131.9v-5.8h3.2v5.8Z"/></clipPath>
<clipPath id="c1m_5"><path d="M225.6,1126.1v-3.2h47.3v3.2Z"/></clipPath>
<clipPath id="c1n_5"><path d="M220.9,1174.9v-24.4h3.2v24.4Z"/></clipPath>
<clipPath id="c1o_5"><path d="M220.9,1150.5v-18.6h3.2v18.6Z"/></clipPath>
<clipPath id="c1p_5"><path d="M220.9,1131.9v-9h4.7v3.2h-1.5v5.8Z"/></clipPath>
<clipPath id="c1q_5"><path d="M224.1,1174.9v-24.4h1.5v-18.6h47.3v43Z"/></clipPath>
<clipPath id="c1r_5"><path d="M225.6,1131.9v-5.8h47.3v5.8Z"/></clipPath>
<clipPath id="c1s_5"><path d="M224.1,1150.5v-18.6h1.5v18.6Z"/></clipPath>
<clipPath id="c1t_5"><path d="M224.1,1131.9v-5.8h1.5v5.8Z"/></clipPath>
<clipPath id="c1u_5"><path d="M290.9,1192.8v-17.9H339v-33.7h5v-15.1h11.4v24H357v42.7Z"/></clipPath>
<clipPath id="c1v_5"><path d="M290.3,1192.8v-17.9h.6v17.9Z"/></clipPath>
<clipPath id="c1w_5"><path d="M287.1,1174.9v-33.7h3.2v33.7Z"/></clipPath>
<clipPath id="c1x_5"><path d="M290.9,1174.9v-33.7H339v33.7Z"/></clipPath>
<clipPath id="c1y_5"><path d="M290.3,1174.9v-33.7h.6v33.7Z"/></clipPath>
<clipPath id="c1z_5"><path d="M330.8,1074.5l12,-8.8v8.8Zm-5.9,-3.2v-6.1h8.3l-8.3,6.1Z"/></clipPath>
<clipPath id="c20_5"><path d="M276.1,1126.1v-2.8h1.2v2.8Z"/></clipPath>
<clipPath id="c21_5"><path d="M276.1,1131.9v-5.8h1.2v5.8Z"/></clipPath>
<clipPath id="c22_5"><path d="M272.9,1065.2V1062h52v3.2H305.6c-.8,-.2,-1.6,-.3,-2.5,-.4c-.9,0,-1.9,-.1,-2.9,-.1c-1.8,0,-3.5,.2,-5.3,.5Z"/></clipPath>
<clipPath id="c23_5"><path d="M272.9,1079.6v-14.4h3.2v6.1h-2v6.6c-.4,.5,-.8,1.1,-1.2,1.7Z"/></clipPath>
<clipPath id="c24_5"><path d="M279.8,1071.3v-6.1h15.1c-5.3,.8,-10.1,3,-14.3,6.1Zm40.2,0c-4.2,-3.1,-9,-5.3,-14.4,-6.1h19.3v6.1h-.1Z"/></clipPath>
<clipPath id="c25_5"><path d="M276.1,1071.3v-6.1h3.7v6.1Z"/></clipPath>
<clipPath id="c26_5"><path d="M590.3,1192.5v-18.7h49.9v-33.1H643v-.4h16.3v52.2Z"/></clipPath>
<clipPath id="c27_5"><path d="M588.2,1173.8v-33.1h2.1v33.1Z"/></clipPath>
<clipPath id="c28_5"><path d="M590.3,1173.8v-33.1h49.9v33.1Z"/></clipPath>
<clipPath id="c29_5"><path d="M661.8,1193.7v-18.9h49.9v-33.4h18.7v52.3Z"/></clipPath>
<clipPath id="c2a_5"><path d="M659.7,1174.8v-34.5h2.1v34.5Z"/></clipPath>
<clipPath id="c2b_5"><path d="M661.8,1174.8v-34.5h36.6v1.1h13.3v33.4Z"/></clipPath>
<clipPath id="c2c_5"><path d="M659.3,1140.3v-16.4H643v-2.3h42.4v-48.7h10.9v49.8h2.1v.3H659.7v17.3Z"/></clipPath>
<clipPath id="c2d_5"><path d="M643,1140.3v-16.4h16.3v16.4Z"/></clipPath>
<clipPath id="c2e_5"><path d="M659.7,1140.3V1123h38.7v2.1H661.8v15.2Z"/></clipPath>
<clipPath id="c2f_5"><path d="M661.8,1140.3v-15.2h36.6v15.2Z"/></clipPath>
<clipPath id="c2g_5"><path d="M643,1072.9v-1.1h-8.5v-1h50.9v2.1Z"/></clipPath>
<clipPath id="c2h_5"><path d="M643,1121.6v-48.7h42.4v48.7Z"/></clipPath>
<clipPath id="c2i_5"><path d="M579.8,1140.7v-18.9h8.4v18.9ZM624,1121.8v-50h10.5v49.8h2.1v.2Z"/></clipPath>
<clipPath id="c2j_5"><path d="M640.2,1140.7v-.4H643v.4Z"/></clipPath>
<clipPath id="c2k_5"><path d="M588.2,1140.7v-18.9h48.4v2.1H590.3v16.8Z"/></clipPath>
<clipPath id="c2l_5"><path d="M590.3,1140.7v-16.8h46.3v16.4h3.6v.4Z"/></clipPath>
<clipPath id="c2m_5"><path d="M640.2,1123.9v-2.1h-3.6v-.2H643v2.3Z"/></clipPath>
<clipPath id="c2n_5"><path d="M640.2,1140.3v-16.4H643v16.4Z"/></clipPath>
<clipPath id="c2o_5"><path d="M636.6,1123.9v-2.1h3.6v2.1Z"/></clipPath>
<clipPath id="c2p_5"><path d="M636.6,1140.3v-16.4h3.6v16.4Z"/></clipPath>
<clipPath id="c2q_5"><path d="M634.5,1121.6v-49.8H643v1.1h-6.4v48.7Z"/></clipPath>
<clipPath id="c2r_5"><path d="M636.6,1121.6v-48.7H643v48.7Z"/></clipPath>
<clipPath id="c2s_5"><path d="M572,1107.6v-9.3h2.1v9.3Zm32.5,-35.8v-2.1H624v2.1Z"/></clipPath>
<clipPath id="c2t_5"><path d="M579.8,1121.8v-14.2h-5.7v-9.3h30.4v-26.5H624v50Z"/></clipPath>
<clipPath id="c2u_5"><path d="M730.4,1141.4v-16.3H711.7V1123h-7.2v-.3h43.8v-49.8h19.1v68.5Z"/></clipPath>
<clipPath id="c2v_5"><path d="M711.7,1141.4v-16.3h18.7v16.3Z"/></clipPath>
<clipPath id="c2w_5"><path d="M704.5,1125.1V1123h7.2v2.1Z"/></clipPath>
<clipPath id="c2x_5"><path d="M698.4,1141.4v-1.1h6.1v-15.2h7.2v16.3Z"/></clipPath>
<clipPath id="c2y_5"><path d="M698.4,1123v-.3h6.1v.3Z"/></clipPath>
<clipPath id="c2z_5"><path d="M698.4,1125.1V1123h6.1v2.1Z"/></clipPath>
<clipPath id="c30_5"><path d="M698.4,1140.3v-15.2h6.1v15.2Z"/></clipPath>
<clipPath id="c31_5"><path d="M696.3,1072.9v-2.1h52v2.1Z"/></clipPath>
<clipPath id="c32_5"><path d="M696.3,1122.7v-49.8h2.1v49.8Z"/></clipPath>
<clipPath id="c33_5"><path d="M704.5,1122.7v-49.8h43.8v49.8Z"/></clipPath>
<clipPath id="c34_5"><path d="M698.4,1122.7v-49.8h6.1v49.8Z"/></clipPath>
<clipPath id="c35_5"><path d="M357,1150.1v-24h-1.6v-18.5H572v14.2h2.1v18.9h5.7v9.4Z"/></clipPath>
<clipPath id="c36_5"><path d="M355.4,1150.1v-24H357v24Z"/></clipPath>
<clipPath id="c37_5"><path d="M574.1,1140.7v-18.9h5.7v18.9Z"/></clipPath>
<clipPath id="c38_5"><path d="M572,1121.8v-14.2h2.1v14.2Z"/></clipPath>
<clipPath id="c39_5"><path d="M574.1,1121.8v-14.2h5.7v14.2Z"/></clipPath>
<clipPath id="c3a_5"><path d="M342.8,1126.1v-51.6H344v51.6Z"/></clipPath>
<clipPath id="c3b_5"><path d="M277.3,1141.2v-9.3h9.8v9.3Z"/></clipPath>
<clipPath id="c3c_5"><path d="M339,1141.2v-9.3h3.8v-5.8H344v15.1Z"/></clipPath>
<clipPath id="c3d_5"><path d="M287.1,1141.2v-9.3h3.2v9.3Z"/></clipPath>
<clipPath id="c3e_5"><path d="M290.9,1141.2v-9.3H339v9.3Z"/></clipPath>
<clipPath id="c3f_5"><path d="M290.3,1141.2v-9.3h.6v9.3Z"/></clipPath>
<clipPath id="c3g_5"><path d="M279.8,1126.1v-2.8h.4c1.4,1,2.9,2,4.4,2.8Zm59.2,0v-3.2H326.1v-5.3c3.7,-4.9,6.2,-10.8,6.8,-17.3c.7,-8.4,-1.8,-16.3,-6.5,-22.6l4.4,-3.2h12v51.6Z"/></clipPath>
<clipPath id="c3h_5"><path d="M277.3,1126.1v-2.8h2.5v2.8Z"/></clipPath>
<clipPath id="c3i_5"><path d="M279.8,1131.9v-5.8h4.8c.8,.5,1.6,.9,2.5,1.2v4.6Z"/></clipPath>
<clipPath id="c3j_5"><path d="M277.3,1131.9v-5.8h2.5v5.8Z"/></clipPath>
<clipPath id="c3k_5"><path d="M339,1131.9v-5.8h3.8v5.8Z"/></clipPath>
<clipPath id="c3l_5"><path d="M316,1126.1c1.5,-.8,3,-1.8,4.3,-2.8h5.8v-.4H339v3.2Z"/></clipPath>
<clipPath id="c3m_5"><path d="M287.1,1131.9v-4.6c1,.5,2.1,.9,3.2,1.3v3.3Z"/></clipPath>
<clipPath id="c3n_5"><path d="M290.9,1131.9v-3.2c2.1,.7,4.3,1.1,6.5,1.3c1,.1,2,.1,2.9,.1c5.7,0,11,-1.4,15.7,-4h23v5.8Z"/></clipPath>
<clipPath id="c3o_5"><path d="M290.3,1131.9v-3.3c.2,0,.4,.1,.6,.1v3.2Z"/></clipPath>
<clipPath id="c3p_5"><path d="M326.4,1077.7c-.1,-.1,-.2,-.3,-.3,-.4v-2.8h4.7l-4.4,3.2Z"/></clipPath>
<clipPath id="c3q_5"><path d="M300.3,1130.1c-.9,0,-1.9,0,-2.9,-.1c-2.2,-.2,-4.4,-.6,-6.5,-1.3c-.2,0,-.4,-.1,-.6,-.1c-1.1,-.4,-2.2,-.8,-3.2,-1.3c-.9,-.3,-1.7,-.7,-2.5,-1.2c-1.5,-.8,-3,-1.8,-4.4,-2.8h40.1c-1.3,1,-2.8,2,-4.3,2.8c-4.7,2.6,-10,4,-15.7,4Zm25.8,-12.5v-40.3c.1,.1,.2,.3,.3,.4c4.7,6.3,7.2,14.2,6.5,22.6c-.6,6.5,-3.1,12.4,-6.8,17.3Z"/></clipPath>
<clipPath id="c3r_5"><path d="M322.2,1073.2c-.7,-.7,-1.5,-1.3,-2.2,-1.9h4.8l-2.6,1.9Z"/></clipPath>
<clipPath id="c3s_5"><path d="M323.6,1074.5c-.4,-.4,-.9,-.9,-1.4,-1.3l2.6,-1.9h1.3v3.2Z"/></clipPath>
<clipPath id="c3t_5"><path d="M274.1,1077.9v-6.6h2v4.1c-.7,.8,-1.4,1.6,-2,2.5Z"/></clipPath>
<clipPath id="c3u_5"><path d="M279.8,1072v-.7h.8c-.3,.2,-.5,.4,-.8,.7Z"/></clipPath>
<clipPath id="c3v_5"><path d="M276.1,1075.4v-4.1h3.7v.7c-1.3,1,-2.6,2.2,-3.7,3.4Z"/></clipPath>
<clipPath id="c3w_5"><path d="M274.1,1123.3V1117c.6,.8,1.3,1.6,2,2.4v3.9Z"/></clipPath>
<clipPath id="c3x_5"><path d="M276.1,1123.3v-3.9c.4,.5,.8,.9,1.2,1.3v2.6Z"/></clipPath>
<clipPath id="c3y_5"><path d="M277.3,1120.7c-.4,-.4,-.8,-.8,-1.2,-1.3c-.7,-.8,-1.4,-1.6,-2,-2.4v-39.1c.6,-.9,1.3,-1.7,2,-2.5c1.1,-1.2,2.4,-2.4,3.7,-3.4c.3,-.3,.5,-.5,.8,-.7H320c.7,.6,1.5,1.2,2.2,1.9c.5,.4,1,.9,1.4,1.3H277.3v46.2Z"/></clipPath>
<clipPath id="c3z_5"><path d="M326.1,1077.3c-.8,-1,-1.6,-1.9,-2.5,-2.8h2.5v2.8Z"/></clipPath>
<clipPath id="c40_5"><path d="M320.8,1122.9c1.9,-1.6,3.7,-3.4,5.3,-5.3v5.3Z"/></clipPath>
<clipPath id="c41_5"><path d="M277.3,1123.3v-2.6c.8,.7,1.6,1.5,2.5,2.2v.4Z"/></clipPath>
<clipPath id="c42_5"><path d="M280.2,1123.3c-.1,-.2,-.3,-.3,-.4,-.4c-.9,-.7,-1.7,-1.5,-2.5,-2.2v-46.2h46.3c.9,.9,1.7,1.8,2.5,2.8v40.3c-1.6,1.9,-3.4,3.7,-5.3,5.3c-.2,.1,-.3,.2,-.5,.4Z"/></clipPath>
<clipPath id="c43_5"><path d="M580.6,1069.7l-5,-5.1h28.9v5.1Zm-37,28.6v-50.9h6.7l21.7,22.3v28.6Zm27.8,-38.1l-12.6,-12.8h1.9v-11.1h10.7v23.9Z"/></clipPath>
<clipPath id="c44_5"><path d="M572,1098.3v-28.6l2.1,2.1v26.5Zm10.6,-26.5l-2,-2.1h23.9v2.1Z"/></clipPath>
<clipPath id="c45_5"><path d="M574.1,1098.3v-26.5l10.4,10.7l4.4,-4.3l-6.3,-6.4h21.9v26.5Z"/></clipPath>
<clipPath id="c46_5"><path d="M171.8,1060.9v-46.5H313.3v46.5Z"/></clipPath>
<clipPath id="c47_5"><path d="M463.6,1060.3c.3,0,.6,-.1,.9,-.3c.1,0,.2,-.1,.3,-.2q0,.1,0,.1c-.2,.1,-.5,.3,-.9,.4c-.1,0,-.2,0,-.3,0Zm23.9,0c.3,0,.6,-.1,.9,-.3c.1,0,.2,-.1,.3,-.2q0,.1,0,.1c-.2,.1,-.5,.3,-.9,.4c-.1,0,-.2,0,-.3,0Zm-24.7,-1.4c-1,-.1,-1.4,-.3,-1.7,-1.4c2,-.6,3.5,-1,4.5,-1.3h.2l.2,-.2c.3,-.4,.5,-.6,.7,-.9c0,.3,0,.7,0,1.1q0,.1,0,.2l-1.4,1.2c-.7,.6,-1.2,.9,-1.5,1.1c-.3,.1,-.6,.2,-1,.2Zm-17.8,-.1c-.3,0,-.5,-.1,-.7,-.4c-.2,-.3,-.3,-.7,-.4,-1.4v-.2c0,-1,.3,-1.6,.6,-2.1c.4,-.4,.7,-.6,1.4,-.6h.1c0,.7,-.1,2.2,-.1,4.4c-.3,.2,-.6,.3,-.9,.3Zm9.9,.1c-.6,0,-.9,-.2,-1.2,-.6c-.3,-.4,-.4,-.9,-.4,-1.6c0,-.7,.2,-1.3,.6,-1.9c.4,-.5,.8,-.7,1.4,-.7c.4,0,.7,.1,1.2,.3l.3,.2l.7,-.3l.3,-.1c-.3,.7,-.4,1.5,-.4,2.4v.3c0,.2,0,.3,0,.4l-.6,.5c-.9,.8,-1.6,1.1,-1.9,1.1Zm-24.2,-.2v0c0,-1.7,.1,-3.2,.1,-4.4c.4,-.3,.8,-.4,1.1,-.4c.3,.1,.5,.1,.7,.5c.3,.3,.4,.8,.4,1.4v.1c0,1,-.3,1.7,-.7,2.1c-.4,.4,-.9,.7,-1.6,.7Zm30.9,-4.6v0c.2,-.3,.4,-.3,.7,-.3c0,0,.1,0,.2,.1l-.9,.2Zm23.9,0v0c.2,-.3,.4,-.3,.7,-.3c0,0,.1,0,.2,.1l-.9,.2Zm-72,6.1v0c.1,-1.3,.1,-2.6,.1,-4c0,-.7,0,-1.3,0,-2c0,-.4,0,-.8,0,-1.3c.2,.1,.5,.2,.7,.3l.4,.2c-.1,0,-.2,.1,-.3,.1l-.3,.3v.3c0,1.3,0,2.5,0,3.6c0,.9,0,1.8,0,2.5c-.2,0,-.4,0,-.6,0Zm54.6,0v0c.1,-1.3,.1,-2.6,.1,-4c0,-.7,0,-1.3,0,-2c0,-.4,0,-.8,0,-1.3c.2,.1,.5,.2,.7,.3l.4,.2c-.1,0,-.2,.1,-.3,.1l-.3,.3v.3c0,1.3,0,2.5,0,3.6c0,.9,0,1.8,0,2.5c-.2,0,-.4,0,-.6,0Zm24.1,0c.1,-1.9,.1,-3.3,.1,-4.3c0,-.1,0,-.3,0,-.4c0,-.8,-.1,-1.6,-.1,-2.6c.2,.1,.5,.2,.8,.3l.3,.2l.3,-.2c-.2,.1,-.3,.2,-.5,.4l-.3,.2v.3c0,1.2,0,2.3,0,3.3c0,1,0,1.9,0,2.8c-.2,0,-.4,0,-.6,0Zm-63.6,3.7v0c.1,-2.4,.2,-4.7,.2,-6.8c0,-.6,0,-1.3,0,-2v.1c-.1,-.9,-.1,-1.7,-.1,-2.4c.3,0,.5,.1,.6,.2l.4,.2q-.1,0,-.1,.1l-.3,.2v.3c-.1,1.5,-.1,3.4,-.1,5.7v1.4c0,.3,0,.6,0,.9c0,.7,0,1.4,0,2l-.6,.1Zm16.1,-3.4c-.9,0,-1.5,-.3,-2,-1c-.5,-.6,-.8,-1.4,-.9,-2.4v-.3c.1,-1.4,.4,-2.4,1.2,-3.1c.6,-.5,1.2,-.8,2,-1c-.7,.2,-1.3,.5,-1.7,1.1c-.6,.8,-.9,1.8,-.9,3v.2c0,.9,.2,1.7,.7,2.3c.4,.6,1.1,1,1.9,1h.1c.2,0,.4,0,.6,0c-.4,.1,-.7,.2,-1,.2Zm3.3,-.3v0c-.2,-.1,-.5,-.3,-.7,-.4l-.3,-.2q.1,-.1,.2,-.2l.2,-.2v-.3c.1,-2.8,.1,-4.4,.1,-5c0,-.4,-.2,-.6,-.4,-.8c-.2,-.3,-.6,-.5,-.9,-.5h-.3c.1,0,.2,0,.3,0c.8,0,1.3,.1,1.5,.2c.2,.1,.3,.2,.3,.8v.2c0,.2,0,.7,0,1.3c0,1.1,0,1.7,0,2.1c0,1.4,0,2.4,0,3Zm14.5,.3c-1.1,0,-1.9,-.3,-2.5,-.9c-.7,-.6,-1,-1.5,-1.1,-2.7v-.3c0,-1.2,.3,-2.2,.8,-2.9c.4,-.6,.9,-.9,1.4,-1.1c-.8,.4,-1.3,1.4,-1.6,2.4l-.3,1.3l5.2,-1.3c-1.1,.3,-2.6,.7,-4.3,1.2l-.7,.1l.1,.7c.1,2,1.3,3.4,3.1,3.4q.1,0,.2,0c.2,0,.4,0,.5,0c-.3,0,-.5,.1,-.8,.1Zm23.9,0c-1.1,0,-1.9,-.3,-2.6,-.9c-.6,-.6,-.9,-1.5,-1,-2.7v-.3c0,-1.2,.3,-2.2,.8,-2.9c.4,-.6,.8,-.9,1.4,-1.1c-.8,.4,-1.3,1.4,-1.6,2.4l-.3,1.3l5.2,-1.3c-1.1,.3,-2.6,.7,-4.3,1.2l-.7,.1l.1,.7c.1,2,1.3,3.4,3.1,3.4q.1,0,.1,0c.2,0,.4,0,.6,0c-.3,0,-.5,.1,-.8,.1Zm18.1,-7.9c.2,0,.4,0,.7,0Zm-80.5,7.6v0c.1,-1.7,.2,-2.9,.2,-3.7c0,-.3,0,-.6,0,-.8c0,-.1,0,-.2,-.1,-.3c0,-.7,-.2,-1.3,-.5,-1.8c-.3,-.6,-.9,-1,-1.6,-1h-.1c-.1,0,-.2,0,-.3,.1c.4,-.2,.8,-.2,1.2,-.2c.6,0,1,.2,1.3,.5c.3,.3,.5,.8,.5,1.5c0,.6,0,1.2,0,2c0,1,0,2.3,0,3.7c-.2,0,-.4,0,-.6,0Zm30.5,.3c-1.1,0,-1.9,-.4,-2.5,-1.1c-.5,-.7,-.8,-1.5,-.8,-2.6c0,-1.2,.3,-2.2,1,-3c.8,-.9,1.6,-1.3,2.9,-1.3c.5,0,1,.1,1.4,.2c-.4,-.1,-.8,-.2,-1.2,-.2c-1.1,0,-2.1,.6,-2.7,1.4c-.6,.8,-.8,1.8,-.8,2.8c0,1,.2,1.8,.7,2.5c.5,.8,1.4,1.2,2.3,1.2h.1c.5,0,1,-.2,1.5,-.4c-.4,.3,-1,.5,-1.9,.5Zm24.1,-.3v0c.1,-1.7,.2,-2.9,.2,-3.7c0,-.3,0,-.6,0,-.8c0,-.1,-.1,-.2,-.1,-.3c0,-.7,-.2,-1.3,-.5,-1.8c-.3,-.6,-.9,-1,-1.6,-1h-.1c-.1,0,-.2,0,-.3,.1c.4,-.2,.8,-.2,1.1,-.2c.7,0,1.1,.2,1.4,.5c.3,.3,.5,.8,.5,1.5c0,.6,0,1.2,0,2c0,1,0,2.3,0,3.7c-.2,0,-.4,0,-.6,0Zm19,0v0c0,-.5,.1,-1.2,.1,-2.2c0,-1.1,0,-2,0,-2.7v-.1c0,-.6,-.1,-1.2,-.4,-1.7c-.3,-.5,-.9,-1,-1.6,-1c-.1,0,-.2,.1,-.3,.1c.3,-.1,.6,-.1,1,-.1c1.4,.1,1.7,.4,1.8,2v.1c0,.2,0,.4,0,.7c0,.4,0,.9,0,1.5c0,1,0,1.8,0,2.3c0,.3,0,.7,0,1.1c-.2,0,-.4,0,-.6,0ZM465,1054.8l-.5,-.8c-.4,-.7,-.8,-1.3,-1.4,-1.6c.4,.1,.8,.3,1.1,.6c.4,.3,.8,.8,1,1.5c0,.1,-.1,.2,-.2,.3Zm23.9,0l-.5,-.8c-.4,-.7,-.9,-1.3,-1.4,-1.6c.4,.1,.7,.3,1.1,.6c.4,.3,.8,.8,1,1.5c0,.1,-.1,.2,-.2,.3Zm-70.2,5.4v0c.1,-1.6,.1,-3,.1,-4.1c0,-.2,0,-.4,0,-.7c0,-.7,-.1,-1.4,-.4,-1.9c-.2,-.6,-.8,-1,-1.5,-1c-.3,0,-.5,.1,-.8,.2c.5,-.2,1,-.3,1.5,-.3c.6,0,1,.2,1.4,.8l.4,.5h-.1v.4c.1,.4,.1,1,.1,1.7c0,.5,0,1.1,-.1,1.7c0,.5,0,1,0,1.4c0,.5,0,.9,.1,1.3c-.2,0,-.4,0,-.7,0Zm54.6,0v0c.1,-1.6,.1,-3,.1,-4.1c0,-.2,0,-.4,0,-.7c0,-.7,-.1,-1.4,-.4,-1.9c-.2,-.6,-.8,-1,-1.5,-1c-.3,0,-.5,.1,-.8,.2c.5,-.2,1,-.3,1.5,-.3c.6,0,1,.2,1.4,.8l.4,.5h-.1v.4c0,.4,.1,1,.1,1.7c0,.5,0,1.1,-.1,1.7c0,.5,0,1,0,1.4c0,.5,0,.9,0,1.3c-.1,0,-.3,0,-.6,0Zm-40.7,-.5v0c.3,-.2,.6,-.4,.8,-.6c.8,-.8,1.1,-1.9,1.1,-3.2v-.1c0,-.8,-.2,-1.6,-.6,-2.3c-.4,-.6,-1.2,-1.1,-2,-1.1c-.1,0,-.2,0,-.2,0c.2,0,.5,0,.7,0c.8,0,1.4,.2,2,1c.5,.6,.7,1.4,.8,2.4c-.1,1.2,-.4,2.2,-1.2,3c-.4,.4,-.9,.7,-1.4,.9Zm-20.7,2.2l.9,-.1c.8,0,1.5,-.1,2.1,-.1h.8v-.8c0,-.9,-.1,-1.9,-.1,-3.2c0,-1,0,-2,.1,-3.2c.5,-.3,.9,-.4,1.2,-.4q.1,0,.2,.1c.1,.2,.2,.6,.2,1.3c0,.2,0,.4,0,.6c0,1.3,0,2.9,-.1,4.9l-.1,.9l.9,-.1c1,0,1.8,-.1,2.2,-.1h.8l-.1,-.8c0,-.5,0,-1.2,0,-2c0,-.4,0,-.9,0,-1.4c0,-.6,0,-1.2,0,-1.7c0,-.5,0,-.9,0,-1.3c.3,-.2,.7,-.3,1.1,-.3q.2,0,.3,.2c.1,.1,.3,.6,.3,1.3v.7h.1v.1c0,.8,-.1,2.3,-.3,4.5l-.1,.9l.9,-.1c.9,0,1.6,-.1,2,-.1h.4l.3,-.4l.2,-.2v-.3c0,-1.7,0,-3.2,0,-4.3c0,-.8,0,-1.4,0,-2c0,-1,-.3,-1.9,-.9,-2.5c-.6,-.7,-1.4,-1,-2.4,-1h-.1c-1,0,-1.9,.2,-2.9,.8c-.6,-.6,-1.4,-.9,-2.2,-.9c-1.1,0,-2.1,.3,-3.1,.8c-.1,-.1,-.2,-.1,-.3,-.2c-.4,-.1,-.7,-.2,-1.1,-.2h-.2l-.5,.2l-.5,.3l.1,.5c0,.6,.1,1.3,.1,2c0,.6,0,1.3,0,1.9c0,1.7,-.1,3.3,-.2,4.8v.9Zm15.1,3.8l3.2,-.5l.3,-.3l.3,-.3v-.3c-.1,-.8,-.1,-1.6,-.1,-2.5c0,0,0,-.1,0,-.1c1.8,-.2,3.3,-.8,4.4,-1.9c1,-1,1.6,-2.4,1.6,-4c0,-1.3,-.4,-2.4,-1.1,-3.4c-.8,-1,-1.9,-1.6,-3.1,-1.6h-.1c-.9,0,-1.8,.3,-2.7,.7c-.4,-.2,-.9,-.3,-1.5,-.4h-.4l-.5,.4l-.2,.3v.3c.1,1,.1,2,.1,3.1c0,.6,0,1.3,0,1.9c0,2.4,0,4.9,-.2,7.6v1Zm35.5,-3.7c.6,0,1.1,-.1,1.7,-.2c.8,-.2,1.5,-.5,1.9,-1l.2,-.2v-.3c0,-.5,.1,-1.2,.2,-2l.2,-1.5c0,1.4,-.1,2.9,-.2,4.2v.9l.9,-.1c.8,0,1.5,-.1,2.1,-.1h.8v-.8c-.1,-.9,-.1,-1.9,-.1,-3.2c0,-1,0,-2,.1,-3.2c.5,-.3,.9,-.4,1.2,-.4q.1,0,.2,.1c.1,.2,.2,.6,.2,1.3c0,.2,0,.4,0,.6c0,1.3,0,2.9,-.1,4.9l-.1,.9l.9,-.1c1,0,1.8,-.1,2.2,-.1h.8l-.1,-.8c0,-.5,0,-1.2,0,-2c0,-.4,0,-.9,0,-1.4c0,-.6,0,-1.2,0,-1.7c0,-.5,0,-.9,0,-1.3c.3,-.2,.7,-.3,1.1,-.3q.2,0,.3,.2c.1,.1,.3,.6,.3,1.3v.7h.1v.1c0,.8,-.1,2.3,-.3,4.5l-.1,.9l.9,-.1c.9,0,1.6,-.1,2,-.1h.4l.3,-.4l.2,-.2v-.3c0,-1.7,0,-3.2,0,-4.3c0,-.8,0,-1.4,0,-2c0,-1,-.3,-1.9,-.9,-2.5c-.6,-.7,-1.5,-1,-2.4,-1h-.1c-1,0,-2,.2,-2.9,.8c-.6,-.6,-1.4,-.9,-2.2,-.9c-1.1,0,-2.1,.3,-3.1,.8c-.1,-.1,-.2,-.1,-.3,-.2c-.4,-.1,-.7,-.2,-1.1,-.2h-.2l-.5,.2l-.5,.3l.1,.5c0,.5,.1,1,.1,1.6c-.4,-.9,-.9,-1.6,-1.6,-2.1c-.7,-.7,-1.7,-1,-2.7,-1h-.1c-1.6,0,-2.9,.7,-3.8,2c-.2,.3,-.4,.6,-.6,1v-.2c.1,-.4,.1,-.8,.2,-1.4v-.6l-.5,-.2c-.8,-.3,-1.6,-.4,-2.5,-.4c-1.7,0,-3.1,.6,-4.1,1.8c-.9,1.1,-1.3,2.5,-1.3,4c0,1.3,.4,2.6,1.2,3.5c.8,1.1,2.1,1.7,3.6,1.7c1.3,0,2.4,-.3,3.2,-1l.2,-.2v-.3c0,-.3,.1,-.6,.1,-1c.2,.4,.5,.8,.9,1.2c1,.9,2.2,1.3,3.6,1.3Zm23.9,0c.6,0,1.1,-.1,1.7,-.2c.8,-.2,1.5,-.5,1.9,-1l.2,-.2v-.3c0,-.5,.1,-1.2,.2,-2l.2,-1.9l-1.5,1.2c-.6,.6,-1.1,.9,-1.4,1.1c-.3,.1,-.7,.2,-1.1,.2c-.9,-.1,-1.3,-.3,-1.6,-1.4c2,-.6,3.5,-1,4.5,-1.3h.2l.2,-.2c.3,-.4,.6,-.7,.7,-1l.1,-.2c0,.3,0,.5,.1,.7c0,.2,0,.3,0,.4c0,1.1,-.1,2.8,-.2,5.1v.9l.9,-.1c.6,-.1,1.3,-.1,2,-.1h.3l.3,-.4l.3,-.3v-.3c-.1,-1,-.1,-2.1,-.1,-3.3c0,-.9,0,-1.9,0,-2.9c.5,-.3,1,-.4,1.4,-.4q.1,0,.3,.2c.1,.2,.2,.5,.2,1c0,.7,0,1.6,0,2.7c-.1,1.4,-.1,2.3,-.1,2.8v.3l.4,.4l.2,.3h.4c.6,-.1,1.2,-.1,2,-.1l.7,-.1v-.7c-.1,-.7,-.1,-1.3,-.1,-1.8c0,-.5,0,-1.3,0,-2.3c0,-.6,.1,-1.1,.1,-1.5c0,-.3,0,-.6,-.1,-.8c0,-1,-.2,-1.9,-.8,-2.6c-.6,-.7,-1.5,-.9,-2.5,-.9c-1.2,0,-2.2,.2,-3.2,.7c-.6,-.3,-.9,-.4,-1.4,-.4c-.4,0,-.6,.2,-.8,.3l-.4,.2v.5c.1,.7,.1,1.4,.1,2.1c-.3,-1.1,-.9,-2,-1.7,-2.6c-.7,-.7,-1.7,-1,-2.7,-1h-.1c-1.6,0,-2.9,.7,-3.8,2c-.8,1,-1.1,2.4,-1.1,3.8v.3c0,1.6,.5,2.9,1.5,3.8c.9,.9,2.2,1.3,3.6,1.3Zm17.9,-1.6c-1.2,-.2,-1.4,-.5,-1.5,-1.5v-6.3h-.9h.3l.6,-.2l.1,-2l.5,-.1c-.1,.4,-.1,.9,-.1,1.5v1.5c0,1.9,0,3.3,0,4.4c0,.3,0,.6,0,.9c0,.6,.2,1.3,.8,1.6c0,.1,.1,.1,.2,.2Zm-99.7,-.1c.1,-2.2,.1,-4.2,.1,-6.2c0,-.5,0,-1.2,0,-2.1c0,-.9,0,-1.6,0,-2.1c0,-.1,0,-.2,0,-.3c1.3,0,3.1,0,5.4,0c0,0,0,.1,0,.2c-.4,0,-.9,-.1,-1.6,-.1c-.9,0,-1.6,-.1,-2.2,-.1h-.9v.8c0,1,-.1,2.2,-.1,3.4v.8h.9c.5,0,1.1,0,1.8,0c.4,0,1,0,1.6,0c0,0,0,.1,0,.1c-.4,0,-.8,0,-1.3,0c-.9,0,-1.5,0,-2,0h-1v.7c0,1.3,-.1,2.6,-.1,4v.8h.8c.4,0,.9,0,1.5,0c.8,0,1.3,0,1.6,0c.3,0,.6,0,.9,0c0,0,0,.1,0,.1c-.3,0,-.5,0,-.7,0Zm33.7,0v0c.1,-2.6,.1,-4.6,.1,-6.1c0,-2,0,-3.8,-.1,-5.5c.2,0,.4,-.1,.6,-.1c0,1.1,0,2.9,-.1,5.4c0,.7,0,1.4,0,2.1c0,1.5,0,2.9,.1,4.1c-.2,0,-.4,0,-.6,.1Zm66.4,1.6c.5,0,.9,-.1,1.4,-.2l.6,-.1l.1,-1.6v-.7l-.7,-.1c-.7,0,-1.1,-.2,-1.2,-.2c0,-.1,-.1,-.1,-.1,-.4c0,-.3,0,-.6,0,-.9c0,-.9,0,-2.1,0,-3.6h1.9v-.7c0,-.6,0,-1.1,.1,-1.6v-.8H506c-.5,0,-.8,0,-1.1,0c0,-.6,0,-1.2,.1,-1.6l.1,-1.1l-3.8,.9v2l-.5,.1l-.5,.1l-.3,1.5v1.2h1.3v4.8c0,.9,.3,1.8,.9,2.3c.7,.5,1.5,.7,2.5,.7Zm-95.4,-.1c.4,0,.8,0,1.2,0h.3l.4,-.4l.2,-.2l.1,-.3c0,-.5,0,-1,.1,-1.5v-.9l-.9,.1c-.4,.1,-1,.1,-1.6,.1c-.3,0,-.8,0,-1.5,0c-.3,-.1,-.6,-.1,-.8,-.1c0,-.8,0,-1.6,0,-2.4c.4,0,.9,0,1.4,0c.9,.1,1.6,.1,1.9,.1h.5l.3,-.6l.1,-.1v-.2c.1,-.5,.1,-1,.2,-1.5l.1,-.9h-.9c-.9,0,-1.7,.1,-2.4,.1c-.4,0,-.8,-.1,-1.1,-.1c0,-.6,0,-1.2,0,-1.8c.5,0,1,0,1.6,0c1,.1,1.7,.1,2.1,.1h.4l.4,-.5l.1,-.2v-.2c.1,-.7,.2,-1.2,.2,-1.5l.1,-.9h-.9c-3,.1,-5.3,.1,-6.8,.1h-.3l-.4,.4l-.2,.2v.3c0,.3,-.1,.6,-.1,.9c0,.5,.1,1.2,.1,2.1c0,.9,0,1.6,0,2.1c0,2.2,-.1,4.5,-.2,6.9c0,0,0,.1,0,.1c0,.4,.3,.7,.7,.7Zm-7.2,26.5v-42.5h30.7v1.6h4.4l-.5,.1v.6c.1,1.9,.2,3.9,.2,6.1c0,1.6,-.1,3.9,-.1,6.8l-.1,.9l.9,-.1c.9,0,1.6,-.1,2.1,-.1h.8l-.1,-1.3c0,-.9,0,-1.7,0,-2.7c.1,1.1,.5,2,1.1,2.8c.8,1,1.9,1.5,3.1,1.5h.1c.7,0,1.5,-.2,2.2,-.7c.2,.1,.3,.2,.4,.3c.4,.2,.9,.3,1.3,.3l.6,.1l.3,-1v-.2c0,-.3,0,-1.5,0,-3.6c0,-.4,0,-1,0,-2.1c0,-.6,.1,-1,.1,-1.3c0,-.1,0,-.2,-.1,-.3c0,-.8,-.4,-1.7,-1.1,-2.1c-.6,-.3,-1.3,-.3,-2.2,-.3h-.1c-1.6,0,-3.1,.5,-4.1,1.5c-1,.9,-1.5,2.1,-1.6,3.4c0,-.6,0,-1.3,0,-1.9v-.1c0,-3.4,0,-5.6,.1,-6.4v-.2h44.7v-1.6h22.4v1.6h3v40.9Z"/></clipPath>
<clipPath id="c48_5"><path d="M463.6,1060.3v0c.1,0,.2,0,.3,0c.4,-.1,.7,-.3,.9,-.4v-.1c-.1,.1,-.2,.2,-.3,.2c-.3,.2,-.6,.3,-.9,.3Zm23.9,0v0c.1,0,.2,0,.3,0c.4,-.1,.7,-.3,.9,-.4v-.1c-.1,.1,-.2,.2,-.3,.2c-.3,.2,-.6,.3,-.9,.3Zm-24.7,-1.4c.4,0,.7,-.1,1,-.2c.3,-.2,.8,-.5,1.5,-1.1l1.4,-1.2q0,-.1,0,-.2c0,-.4,0,-.8,0,-1.1c-.2,.3,-.4,.5,-.7,.9l-.2,.2h-.2c-1,.3,-2.5,.7,-4.5,1.3c.3,1.1,.7,1.3,1.7,1.4Zm-17.8,-.1c.3,0,.6,-.1,.9,-.3c0,-2.2,.1,-3.7,.1,-4.4h-.1c-.7,0,-1,.2,-1.4,.6c-.3,.5,-.6,1.1,-.6,2.1v.2c.1,.7,.2,1.1,.4,1.4c.2,.3,.4,.4,.7,.4Zm9.9,.1c.3,0,1,-.3,1.9,-1.1l.6,-.5c0,-.1,0,-.2,0,-.4v-.3c0,-.9,.1,-1.7,.4,-2.4l-.3,.1l-.7,.3l-.3,-.2c-.5,-.2,-.8,-.3,-1.2,-.3c-.6,0,-1,.2,-1.4,.7c-.4,.6,-.6,1.2,-.6,1.9c0,.7,.1,1.2,.4,1.6c.3,.4,.6,.6,1.2,.6Zm-24.2,-.2v0c.7,0,1.2,-.3,1.6,-.7c.4,-.4,.7,-1.1,.7,-2.1v-.1c0,-.6,-.1,-1.1,-.4,-1.4c-.2,-.4,-.4,-.4,-.7,-.5c-.3,0,-.7,.1,-1.1,.4c0,1.2,-.1,2.7,-.1,4.4Zm30.9,-4.6l.9,-.2c-.1,-.1,-.2,-.1,-.2,-.1c-.3,0,-.5,0,-.7,.3Zm23.9,0l.9,-.2c-.1,-.1,-.2,-.1,-.2,-.1c-.3,0,-.5,0,-.7,.3Zm-72,6.1c.2,0,.4,0,.6,0c0,-.7,0,-1.6,0,-2.5c0,-1.1,0,-2.3,0,-3.6v-.3l.3,-.3c.1,0,.2,-.1,.3,-.1l-.4,-.2c-.2,-.1,-.5,-.2,-.7,-.3c0,.5,0,.9,0,1.3c0,.7,0,1.3,0,2c0,1.4,0,2.7,-.1,4Zm54.6,0c.2,0,.4,0,.6,0c0,-.7,0,-1.6,0,-2.5c0,-1.1,0,-2.3,0,-3.6v-.3l.3,-.3c.1,0,.2,-.1,.3,-.1l-.4,-.2c-.2,-.1,-.5,-.2,-.7,-.3c0,.5,0,.9,0,1.3c0,.7,0,1.3,0,2c0,1.4,0,2.7,-.1,4Zm24.1,0v0c.2,0,.4,0,.6,0c0,-.9,0,-1.8,0,-2.8c0,-1,0,-2.1,0,-3.3v-.3l.3,-.2c.2,-.2,.3,-.3,.5,-.4l-.3,.2l-.3,-.2c-.3,-.1,-.6,-.2,-.8,-.3c0,1,.1,1.8,.1,2.6c0,.1,0,.3,0,.4c0,1,0,2.4,-.1,4.3Zm-63.6,3.7l.6,-.1c0,-.6,0,-1.3,0,-2c0,-.3,0,-.6,0,-.9v-1.4c0,-2.3,0,-4.2,.1,-5.7v-.3l.3,-.2q0,-.1,.1,-.1l-.4,-.2c-.1,-.1,-.3,-.2,-.6,-.2c0,.7,0,1.5,.1,2.4v-.1c0,.7,0,1.4,0,2c0,2.1,-.1,4.4,-.2,6.8Zm16.1,-3.4c.3,0,.6,-.1,1,-.2c-.2,0,-.4,0,-.6,0H445c-.8,0,-1.5,-.4,-1.9,-1c-.5,-.6,-.7,-1.4,-.7,-2.3v-.2c0,-1.2,.3,-2.2,.9,-3c.4,-.6,1,-.9,1.7,-1.1c-.8,.2,-1.4,.5,-2,1c-.8,.7,-1.1,1.7,-1.2,3.1v.3c.1,1,.4,1.8,.9,2.4c.5,.7,1.1,1,2,1Zm3.3,-.3c0,-.6,0,-1.6,0,-3c0,-.4,0,-1,0,-2.1c0,-.6,0,-1.1,0,-1.3v-.2c0,-.6,-.1,-.7,-.3,-.8c-.2,-.1,-.7,-.2,-1.5,-.2c-.1,0,-.2,0,-.3,0h.3c.3,0,.7,.2,.9,.5c.2,.2,.4,.4,.4,.8c0,.6,0,2.2,-.1,5v.3l-.2,.2q-.1,.1,-.2,.2l.3,.2c.2,.1,.5,.3,.7,.4Zm14.5,.3c.3,0,.5,-.1,.8,-.1c-.1,0,-.3,0,-.5,0q-.1,0,-.2,0c-1.8,0,-3,-1.4,-3.1,-3.4l-.1,-.7l.7,-.1c1.7,-.5,3.2,-.9,4.3,-1.2l-5.2,1.3l.3,-1.3c.3,-1,.8,-2,1.6,-2.4c-.5,.2,-1,.5,-1.4,1.1c-.5,.7,-.8,1.7,-.8,2.9v.3c.1,1.2,.4,2.1,1.1,2.7c.6,.6,1.4,.9,2.5,.9Zm23.9,0c.3,0,.5,-.1,.8,-.1c-.2,0,-.4,0,-.6,0h-.1c-1.8,0,-3,-1.4,-3.1,-3.4l-.1,-.7l.7,-.1c1.7,-.5,3.2,-.9,4.3,-1.2l-5.2,1.3l.3,-1.3c.3,-1,.8,-2,1.6,-2.4c-.6,.2,-1,.5,-1.4,1.1c-.5,.7,-.8,1.7,-.8,2.9v.3c.1,1.2,.4,2.1,1,2.7c.7,.6,1.5,.9,2.6,.9Zm18.8,-7.9c-.3,0,-.5,0,-.7,0Zm-81.2,7.6c.2,0,.4,0,.6,0c0,-1.4,0,-2.7,0,-3.7c0,-.8,0,-1.4,0,-2c0,-.7,-.2,-1.2,-.5,-1.5c-.3,-.3,-.7,-.5,-1.3,-.5c-.4,0,-.8,0,-1.2,.2c.1,-.1,.2,-.1,.3,-.1h.1c.7,0,1.3,.4,1.6,1c.3,.5,.5,1.1,.5,1.8c.1,.1,.1,.2,.1,.3c0,.2,0,.5,0,.8c0,.8,-.1,2,-.2,3.7Zm30.5,.3c.9,0,1.5,-.2,1.9,-.5c-.5,.2,-1,.4,-1.5,.4q-.1,0,-.1,0c-.9,0,-1.8,-.4,-2.3,-1.2c-.5,-.7,-.7,-1.5,-.7,-2.5c0,-1,.2,-2,.8,-2.8c.6,-.8,1.6,-1.4,2.7,-1.4c.4,0,.8,.1,1.2,.2c-.4,-.1,-.9,-.2,-1.4,-.2c-1.3,0,-2.1,.4,-2.9,1.3c-.7,.8,-1,1.8,-1,3c0,1.1,.3,1.9,.8,2.6c.6,.7,1.4,1.1,2.5,1.1Zm24.1,-.3c.2,0,.4,0,.6,0c0,-1.4,0,-2.7,0,-3.7c0,-.8,0,-1.4,0,-2c0,-.7,-.2,-1.2,-.5,-1.5c-.3,-.3,-.7,-.5,-1.4,-.5c-.3,0,-.7,0,-1.1,.2c.1,-.1,.2,-.1,.3,-.1h.1c.7,0,1.3,.4,1.6,1c.3,.5,.5,1.1,.5,1.8c0,.1,.1,.2,.1,.3c0,.2,0,.5,0,.8c0,.8,-.1,2,-.2,3.7Zm19,0c.2,0,.4,0,.6,0c0,-.4,0,-.8,0,-1.1c0,-.5,0,-1.3,0,-2.3c0,-.6,0,-1.1,0,-1.5c0,-.3,0,-.5,0,-.7v-.1c-.1,-1.6,-.4,-1.9,-1.8,-2c-.4,0,-.7,0,-1,.1c.1,0,.2,-.1,.3,-.1c.7,0,1.3,.5,1.6,1c.3,.5,.4,1.1,.4,1.7v.1c0,.7,0,1.6,0,2.7c0,1,-.1,1.7,-.1,2.2ZM465,1054.8c.1,-.1,.2,-.2,.2,-.3c-.2,-.7,-.6,-1.2,-1,-1.5c-.3,-.3,-.7,-.5,-1.1,-.6c.6,.3,1,.9,1.4,1.6l.5,.8Zm23.9,0c.1,-.1,.2,-.2,.2,-.3c-.2,-.7,-.6,-1.2,-1,-1.5c-.4,-.3,-.7,-.5,-1.1,-.6c.5,.3,1,.9,1.4,1.6l.5,.8Zm-70.2,5.4v0c.3,0,.5,0,.7,0c-.1,-.4,-.1,-.8,-.1,-1.3c0,-.4,0,-.9,0,-1.4c.1,-.6,.1,-1.2,.1,-1.7c0,-.7,0,-1.3,-.1,-1.7v-.4h.1l-.4,-.5c-.4,-.6,-.8,-.8,-1.4,-.8c-.5,0,-1,.1,-1.5,.3c.3,-.1,.5,-.2,.8,-.2c.7,0,1.3,.4,1.5,1c.3,.5,.4,1.2,.4,1.9c0,.3,0,.5,0,.7c0,1.1,0,2.5,-.1,4.1Zm54.6,0c.3,0,.5,0,.6,0c0,-.4,0,-.8,0,-1.3c0,-.4,0,-.9,0,-1.4c.1,-.6,.1,-1.2,.1,-1.7c0,-.7,-.1,-1.3,-.1,-1.7v-.4h.1l-.4,-.5c-.4,-.6,-.8,-.8,-1.4,-.8c-.5,0,-1,.1,-1.5,.3c.3,-.1,.5,-.2,.8,-.2c.7,0,1.3,.4,1.5,1c.3,.5,.4,1.2,.4,1.9c0,.3,0,.5,0,.7c0,1.1,0,2.5,-.1,4.1Zm-40.7,-.5v0c.5,-.2,1,-.5,1.4,-.9c.8,-.8,1.1,-1.8,1.2,-3c-.1,-1,-.3,-1.8,-.8,-2.4c-.6,-.8,-1.2,-1,-2,-1c-.2,0,-.5,0,-.7,0c0,0,.1,0,.2,0c.8,0,1.6,.5,2,1.1c.4,.7,.6,1.5,.6,2.3v.1c0,1.3,-.3,2.4,-1.1,3.2c-.2,.2,-.5,.4,-.8,.6Zm-20.7,2.2v-.9c.1,-1.5,.2,-3.1,.2,-4.8c0,-.6,0,-1.3,0,-1.9c0,-.7,-.1,-1.4,-.1,-2l-.1,-.5l.5,-.3l.5,-.2h.2c.4,0,.7,.1,1.1,.2c.1,.1,.2,.1,.3,.2c1,-.5,2,-.8,3.1,-.8c.8,0,1.6,.3,2.2,.9c1,-.6,1.9,-.8,2.9,-.8h.1c1,0,1.8,.3,2.4,1c.6,.6,.9,1.5,.9,2.5c0,.6,0,1.2,0,2c0,1.1,0,2.6,0,4.3v.3l-.2,.2l-.3,.4h-.4c-.4,0,-1.1,.1,-2,.1l-.9,.1l.1,-.9c.2,-2.2,.3,-3.7,.3,-4.5q0,-.1,0,-.1h-.1v-.7c0,-.7,-.2,-1.2,-.3,-1.3q-.1,-.2,-.3,-.2c-.4,0,-.8,.1,-1.1,.3c0,.4,0,.8,0,1.3c0,.5,0,1.1,0,1.7c0,.5,0,1,0,1.4c0,.8,0,1.5,0,2l.1,.8h-.8c-.4,0,-1.2,.1,-2.2,.1l-.9,.1l.1,-.9c.1,-2,.1,-3.6,.1,-4.9c0,-.2,0,-.4,0,-.6c0,-.7,-.1,-1.1,-.2,-1.3q-.1,-.1,-.2,-.1c-.3,0,-.7,.1,-1.2,.4c-.1,1.2,-.1,2.2,-.1,3.2c0,1.3,.1,2.3,.1,3.2v.8h-.8c-.6,0,-1.3,.1,-2.1,.1l-.9,.1Zm15.1,3.8v-1c.2,-2.7,.2,-5.2,.2,-7.6c0,-.6,0,-1.3,0,-1.9c0,-1.1,0,-2.1,-.1,-3.1v-.3l.2,-.3l.5,-.4h.4c.6,.1,1.1,.2,1.5,.4c.9,-.4,1.8,-.7,2.7,-.7h.1c1.2,0,2.3,.6,3.1,1.6c.7,1,1.1,2.1,1.1,3.4c0,1.6,-.6,3,-1.6,4c-1.1,1.1,-2.6,1.7,-4.4,1.9c0,0,0,.1,0,.1c0,.9,0,1.7,.1,2.5v.3l-.3,.3l-.3,.3l-3.2,.5Zm27.5,-3.7c-1.5,0,-2.8,-.6,-3.6,-1.7c-.8,-.9,-1.2,-2.2,-1.2,-3.5c0,-1.5,.4,-2.9,1.3,-4c1,-1.2,2.4,-1.8,4.1,-1.8c.9,0,1.7,.1,2.5,.4l.5,.2v.6c-.1,.6,-.1,1,-.2,1.4v.2c.2,-.4,.4,-.7,.6,-1c.9,-1.3,2.2,-2,3.8,-2h.1c1,0,2,.3,2.7,1c.7,.5,1.2,1.2,1.6,2.1c0,-.6,-.1,-1.1,-.1,-1.6l-.1,-.5l.5,-.3l.5,-.2h.2c.4,0,.7,.1,1.1,.2c.1,.1,.2,.1,.3,.2c1,-.5,2,-.8,3.1,-.8c.8,0,1.6,.3,2.2,.9c.9,-.6,1.9,-.8,2.9,-.8h.1c.9,0,1.8,.3,2.4,1c.6,.6,.9,1.5,.9,2.5c0,.6,0,1.2,0,2c0,1.1,0,2.6,0,4.3v.3l-.2,.2l-.3,.4h-.4c-.4,0,-1.1,.1,-2,.1l-.9,.1l.1,-.9c.2,-2.2,.3,-3.7,.3,-4.5q0,-.1,0,-.1h-.1v-.7c0,-.7,-.2,-1.2,-.3,-1.3q-.1,-.2,-.3,-.2c-.4,0,-.8,.1,-1.1,.3c0,.4,0,.8,0,1.3c0,.5,0,1.1,0,1.7c0,.5,0,1,0,1.4c0,.8,0,1.5,0,2l.1,.8h-.8c-.4,0,-1.2,.1,-2.2,.1l-.9,.1l.1,-.9c.1,-2,.1,-3.6,.1,-4.9c0,-.2,0,-.4,0,-.6c0,-.7,-.1,-1.1,-.2,-1.3q-.1,-.1,-.2,-.1c-.3,0,-.7,.1,-1.2,.4c-.1,1.2,-.1,2.2,-.1,3.2c0,1.3,0,2.3,.1,3.2v.8h-.8c-.6,0,-1.3,.1,-2.1,.1l-.9,.1v-.9c.1,-1.3,.2,-2.8,.2,-4.2l-.2,1.5c-.1,.8,-.2,1.5,-.2,2v.3l-.2,.2c-.4,.5,-1.1,.8,-1.9,1c-.6,.1,-1.1,.2,-1.7,.2c-1.4,0,-2.6,-.4,-3.6,-1.3c-.4,-.4,-.7,-.8,-.9,-1.2c0,.4,-.1,.7,-.1,1v.3l-.2,.2c-.8,.7,-1.9,1,-3.2,1Zm31.9,0c-1.4,0,-2.7,-.4,-3.6,-1.3c-1,-.9,-1.5,-2.2,-1.5,-3.8v-.3c0,-1.4,.3,-2.8,1.1,-3.8c.9,-1.3,2.2,-2,3.8,-2h.1c1,0,2,.3,2.7,1c.8,.6,1.4,1.5,1.7,2.6c0,-.7,0,-1.4,-.1,-2.1v-.5l.4,-.2c.2,-.1,.4,-.3,.8,-.3c.5,0,.8,.1,1.4,.4c1,-.5,2,-.7,3.2,-.7c1,0,1.9,.2,2.5,.9c.6,.7,.8,1.6,.8,2.6c.1,.2,.1,.5,.1,.8c0,.4,-.1,.9,-.1,1.5c0,1,0,1.8,0,2.3c0,.5,0,1.1,.1,1.8v.7l-.7,.1c-.8,0,-1.4,0,-2,.1h-.4l-.2,-.3l-.4,-.4v-.3c0,-.5,0,-1.4,.1,-2.8c0,-1.1,0,-2,0,-2.7c0,-.5,-.1,-.8,-.2,-1q-.2,-.2,-.3,-.2c-.4,0,-.9,.1,-1.4,.4c0,1,0,2,0,2.9c0,1.2,0,2.3,.1,3.3v.3l-.3,.3l-.3,.4h-.3c-.7,0,-1.4,0,-2,.1l-.9,.1v-.9c.1,-2.3,.2,-4,.2,-5.1c0,-.1,0,-.2,0,-.4c-.1,-.2,-.1,-.4,-.1,-.7l-.1,.2c-.1,.3,-.4,.6,-.7,1l-.2,.2h-.2c-1,.3,-2.5,.7,-4.5,1.3c.3,1.1,.7,1.3,1.6,1.4c.4,0,.8,-.1,1.1,-.2c.3,-.2,.8,-.5,1.4,-1.1l1.5,-1.2l-.2,1.9c-.1,.8,-.2,1.5,-.2,2v.3l-.2,.2c-.4,.5,-1.1,.8,-1.9,1c-.6,.1,-1.1,.2,-1.7,.2Zm17.9,-1.6v0c-.1,-.1,-.2,-.1,-.2,-.2c-.6,-.3,-.8,-1,-.8,-1.6c0,-.3,0,-.6,0,-.9c0,-1.1,0,-2.5,0,-4.4v-1.5c0,-.6,0,-1.1,.1,-1.5l-.5,.1l-.1,2l-.6,.2h-.3h.9v6.3c.1,1,.3,1.3,1.5,1.5Zm-95,-.1c.2,0,.4,0,.7,0c0,0,0,-.1,0,-.1c-.3,0,-.6,0,-.9,0c-.3,0,-.8,0,-1.6,0c-.6,0,-1.1,0,-1.5,0h-.8v-.8c0,-1.4,.1,-2.7,.1,-4v-.7h1c.5,0,1.1,0,2,0c.5,0,.9,0,1.3,0c0,0,0,-.1,0,-.1c-.6,0,-1.2,0,-1.6,0c-.7,0,-1.3,0,-1.8,0h-.9v-.8c0,-1.2,.1,-2.4,.1,-3.4v-.8h.9c.6,0,1.3,.1,2.2,.1c.7,0,1.2,.1,1.6,.1c0,-.1,0,-.2,0,-.2c-2.3,0,-4.1,0,-5.4,0c0,.1,0,.2,0,.3c0,.5,0,1.2,0,2.1c0,.9,0,1.6,0,2.1c0,2,0,4,-.1,6.2Zm29,0v0c.2,-.1,.4,-.1,.6,-.1c-.1,-1.2,-.1,-2.6,-.1,-4.1c0,-.7,0,-1.4,0,-2.1c.1,-2.5,.1,-4.3,.1,-5.4c-.2,0,-.4,.1,-.6,.1c.1,1.7,.1,3.5,.1,5.5c0,1.5,0,3.5,-.1,6.1Zm66.4,1.6c-1,0,-1.8,-.2,-2.5,-.7c-.6,-.5,-.9,-1.4,-.9,-2.3v-4.8H500v-1.2l.3,-1.5l.5,-.1l.5,-.1v-2l3.8,-.9l-.1,1.1c-.1,.4,-.1,1,-.1,1.6c.3,0,.6,0,1.1,0h.8v.8c-.1,.5,-.1,1,-.1,1.6v.7h-1.9c0,1.5,0,2.7,0,3.6c0,.3,0,.6,0,.9c0,.3,.1,.3,.1,.4c.1,0,.5,.2,1.2,.2l.7,.1v.7l-.1,1.6l-.6,.1c-.5,.1,-.9,.2,-1.4,.2Zm-101,-.1c-.4,0,-.7,-.3,-.7,-.7c0,0,0,-.1,0,-.1c.1,-2.4,.2,-4.7,.2,-6.9c0,-.5,0,-1.2,0,-2.1c0,-.9,-.1,-1.6,-.1,-2.1c0,-.3,.1,-.6,.1,-.9v-.3l.2,-.2l.4,-.4h.3c1.5,0,3.8,0,6.8,-.1h.9l-.1,.9c0,.3,-.1,.8,-.2,1.5v.2l-.1,.2l-.4,.5h-.4c-.4,0,-1.1,0,-2.1,-.1c-.6,0,-1.1,0,-1.6,0c0,.6,0,1.2,0,1.8c.3,0,.7,.1,1.1,.1c.7,0,1.5,-.1,2.4,-.1h.9l-.1,.9c-.1,.5,-.1,1,-.2,1.5v.2l-.1,.1l-.3,.6h-.5c-.3,0,-1,0,-1.9,-.1c-.5,0,-1,0,-1.4,0c0,.8,0,1.6,0,2.4c.2,0,.5,0,.8,.1c.7,0,1.2,0,1.5,0c.6,0,1.2,0,1.6,-.1l.9,-.1v.9c-.1,.5,-.1,1,-.1,1.5l-.1,.3l-.2,.2l-.4,.4h-.3c-.4,0,-.8,0,-1.2,0Zm40.9,.2c-1.2,0,-2.3,-.5,-3.1,-1.5c-.6,-.8,-1,-1.7,-1.1,-2.8c0,1,0,1.8,0,2.7l.1,1.3h-.8c-.5,0,-1.2,.1,-2.1,.1l-.9,.1l.1,-.9c0,-2.9,.1,-5.2,.1,-6.8c0,-2.2,-.1,-4.2,-.2,-6.1v-.6l.5,-.1h3.3v.2c-.1,.8,-.1,3,-.1,6.4v.1c0,.6,0,1.3,0,1.9c.1,-1.3,.6,-2.5,1.6,-3.4c1,-1,2.5,-1.5,4.1,-1.5h.1c.9,0,1.6,0,2.2,.3c.7,.4,1.1,1.3,1.1,2.1c.1,.1,.1,.2,.1,.3c0,.3,-.1,.7,-.1,1.3c0,1.1,0,1.7,0,2.1c0,2.1,0,3.3,0,3.6v.2l-.3,1l-.6,-.1c-.4,0,-.9,-.1,-1.3,-.3c-.1,-.1,-.2,-.2,-.4,-.3c-.7,.5,-1.5,.7,-2.2,.7Z"/></clipPath>
<clipPath id="c49_5"><path d="M365.3,1047.4l2.6,-3.9l-5.8,1.7v-29.7h39.6v31.9Z"/></clipPath>
<clipPath id="c4a_5"><path d="M362.1,1047.4v-2.2l5.8,-1.7l-2.6,3.9Z"/></clipPath>
<clipPath id="c4b_5"><path d="M432.8,1045.8v-30.3h52.4v30.3Z"/></clipPath>
<clipPath id="c4c_5"><path d="M432.8,1047.4v-1.6h52.4v1.6H440.5v-.8l-1,.2c-.8,.2,-1.5,.4,-2.2,.5l-.1,.1Z"/></clipPath>
<clipPath id="c4d_5"><path d="M437.2,1047.4l.1,-.1c.7,-.1,1.4,-.3,2.2,-.5l1,-.2v.8Z"/></clipPath>
<clipPath id="c4e_5"><path d="M510.6,1047.4v-1.6h-3v-30.3h53.1v20.8H543.6v11.1Z"/></clipPath>
<clipPath id="c4f_5"><path d="M543.6,1047.4v-11.1h17.1v11.1h-1.9l-9.7,-10l-4.3,4.2l5.5,5.8Z"/></clipPath>
<clipPath id="c4g_5"><path d="M550.3,1047.4l-5.5,-5.8l4.3,-4.2l9.7,10Z"/></clipPath>
<clipPath id="c4h_5"><path d="M507.6,1047.4v-1.6h3v1.6Z"/></clipPath>
<clipPath id="c4i_5"><path d="M604.5,1064.6v-28.3H571.4v-21.9H800.5v50.2Z"/></clipPath>
<clipPath id="c4j_5"><path d="M575.6,1064.6l-4.2,-4.4v-23.9h33.1v28.3Z"/></clipPath>
<clipPath id="c4k_5"><path d="M571.4,1064.6v-4.4l4.2,4.4Z"/></clipPath>
<clipPath id="c4l_5"><path d="M0,1284.4V0H907.6V1284.4Z"/></clipPath>
<style type="text/css"><![CDATA[
.g0_5{
fill: #9F8E84;
}
.g1_5{
fill: none;
stroke: #FFFFFF;
stroke-width: 6.111;
stroke-linecap: butt;
stroke-linejoin: miter;
stroke-miterlimit: 4;
}
.g2_5{
fill: #FFFFFF;
}
.g3_5{
fill: none;
stroke: #FFFFFF;
stroke-width: 10.694;
stroke-linecap: butt;
stroke-linejoin: miter;
stroke-miterlimit: 4;
}
.g4_5{
fill: #231916;
}
.g5_5{
fill: none;
stroke: #FFFFFF;
stroke-width: 1.909;
stroke-linecap: butt;
stroke-linejoin: miter;
}
.g6_5{
fill: none;
stroke: #000000;
stroke-width: 0.381;
stroke-linecap: butt;
stroke-linejoin: miter;
}
]]></style>
</defs>
<image clip-path="url(#c0_5)" preserveAspectRatio="none" x="-22" y="-22" width="931" height="1329" xlink:href="img/1.jpg"/>
<image clip-path="url(#c1_5)" preserveAspectRatio="none" x="907" y="-22" width="933" height="1329" xlink:href="img/2.jpg"/>
<image clip-path="url(#c2_5)" preserveAspectRatio="none" x="42" y="42" width="824" height="54" xlink:href="img/3.jpg"/>
<image clip-path="url(#c3_5)" preserveAspectRatio="none" x="42" y="95" width="56" height="637" xlink:href="img/4.jpg"/>
<image clip-path="url(#c4_5)" preserveAspectRatio="none" x="810" y="95" width="56" height="637" xlink:href="img/5.jpg"/>
<image clip-path="url(#c5_5)" preserveAspectRatio="none" x="97" y="466" width="494" height="266" xlink:href="img/6.jpg"/>
<image clip-path="url(#c6_5)" preserveAspectRatio="none" x="591" y="466" width="220" height="266" xlink:href="img/7.jpg"/>
<path d="M42.4,42.4h-.6V732.1h824V41.8H41.8v.6h.6V43H864.7V730.9H43V42.4h-.6V43Z" class="g0_5"/>
<image clip-path="url(#c7_5)" preserveAspectRatio="none" x="43" y="959" width="823" height="48" xlink:href="img/8.jpg"/>
<image clip-path="url(#c8_5)" preserveAspectRatio="none" x="43" y="1006" width="56" height="236" xlink:href="img/9.jpg"/>
<image clip-path="url(#c9_5)" preserveAspectRatio="none" x="810" y="1006" width="56" height="236" xlink:href="img/10.jpg"/>
<image clip-path="url(#ca_5)" preserveAspectRatio="none" x="98" y="1194" width="713" height="48" xlink:href="img/11.jpg"/>
<path d="M42.9,958.9h-.6V1242h824V958.3H42.3v.6h.6v.6H865.2v281.4H43.5v-282h-.6v.6Z" class="g0_5"/>
<image clip-path="url(#cb_5)" preserveAspectRatio="none" x="86" y="66" width="736" height="435" xlink:href="img/12.jpg"/>
<image clip-path="url(#cc_5)" preserveAspectRatio="none" x="189" y="357" width="84" height="126" xlink:href="img/13.jpg"/>
<image clip-path="url(#cd_5)" preserveAspectRatio="none" x="273" y="357" width="85" height="126" xlink:href="img/14.jpg"/>
<image clip-path="url(#ce_5)" preserveAspectRatio="none" x="354" y="357" width="85" height="126" xlink:href="img/15.jpg"/>
<image clip-path="url(#cf_5)" preserveAspectRatio="none" x="104" y="357" width="85" height="126" xlink:href="img/16.jpg"/>
<image clip-path="url(#cg_5)" preserveAspectRatio="none" x="441" y="357" width="84" height="126" xlink:href="img/17.jpg"/>
<image clip-path="url(#ch_5)" preserveAspectRatio="none" x="195" y="156" width="67" height="68" xlink:href="img/18.jpg"/>
<image clip-path="url(#ci_5)" preserveAspectRatio="none" x="192" y="153" width="52" height="52" xlink:href="img/19.jpg"/>
<image clip-path="url(#cj_5)" preserveAspectRatio="none" x="195" y="156" width="49" height="49" xlink:href="img/20.jpg"/>
<image clip-path="url(#ck_5)" preserveAspectRatio="none" x="715" y="191" width="70" height="69" xlink:href="img/21.jpg"/>
<image clip-path="url(#cl_5)" preserveAspectRatio="none" x="713" y="189" width="53" height="52" xlink:href="img/22.jpg"/>
<image clip-path="url(#cm_5)" preserveAspectRatio="none" x="716" y="191" width="50" height="50" xlink:href="img/23.jpg"/>
<image clip-path="url(#cn_5)" preserveAspectRatio="none" x="479" y="76" width="20" height="40" xlink:href="img/24.jpg"/>
<image clip-path="url(#co_5)" preserveAspectRatio="none" x="429" y="74" width="51" height="42" xlink:href="img/25.jpg"/>
<image clip-path="url(#cp_5)" preserveAspectRatio="none" x="431" y="76" width="49" height="40" xlink:href="img/26.jpg"/>
<image clip-path="url(#cq_5)" preserveAspectRatio="none" x="405" y="74" width="19" height="42" xlink:href="img/27.jpg"/>
<image clip-path="url(#cr_5)" preserveAspectRatio="none" x="353" y="73" width="52" height="43" xlink:href="img/28.jpg"/>
<image clip-path="url(#cs_5)" preserveAspectRatio="none" x="355" y="75" width="50" height="41" xlink:href="img/29.jpg"/>
<image clip-path="url(#ct_5)" preserveAspectRatio="none" x="543" y="115" width="98" height="93" xlink:href="img/30.jpg"/>
<path d="M542.5,114.6L612,179.1" class="g1_5"/>
<path d="M623.1,189.3L610.6,165.1l-12.7,13.6Z" class="g2_5"/>
<image clip-path="url(#cu_5)" preserveAspectRatio="none" x="264" y="115" width="264" height="143" xlink:href="img/31.jpg"/>
<image clip-path="url(#cv_5)" preserveAspectRatio="none" x="431" y="115" width="68" height="29" xlink:href="img/32.jpg"/>
<image clip-path="url(#cw_5)" preserveAspectRatio="none" x="429" y="116" width="2" height="9" xlink:href="img/33.jpg"/>
<image clip-path="url(#cx_5)" preserveAspectRatio="none" x="431" y="116" width="49" height="9" xlink:href="img/34.jpg"/>
<image clip-path="url(#cy_5)" preserveAspectRatio="none" x="355" y="115" width="69" height="29" xlink:href="img/35.jpg"/>
<image clip-path="url(#cz_5)" preserveAspectRatio="none" x="353" y="116" width="2" height="9" xlink:href="img/36.jpg"/>
<image clip-path="url(#c10_5)" preserveAspectRatio="none" x="355" y="116" width="50" height="9" xlink:href="img/37.jpg"/>
<path d="M318.3,197.4L496.7,122.1l-2.3,-5.7L315.9,191.8Z" class="g2_5"/>
<path d="M509.4,113.4l-27.2,1.4l7.2,17.2Z" class="g2_5"/>
<path d="M327.1,209.1c1.5,-17.9,-11.8,-33.8,-29.8,-35.4c-17.9,-1.6,-33.8,11.8,-35.4,29.7c-1.5,18,11.8,33.9,29.7,35.5c18,1.5,33.9,-11.8,35.5,-29.8Z" class="g2_5"/>
<image clip-path="url(#c11_5)" preserveAspectRatio="none" x="270" y="181" width="70" height="70" xlink:href="img/38.jpg"/>
<image clip-path="url(#c12_5)" preserveAspectRatio="none" x="322" y="181" width="18" height="14" xlink:href="img/39.jpg"/>
<image clip-path="url(#c13_5)" preserveAspectRatio="none" x="273" y="186" width="55" height="53" xlink:href="img/40.jpg"/>
<image clip-path="url(#c14_5)" preserveAspectRatio="none" x="268" y="179" width="53" height="53" xlink:href="img/41.jpg"/>
<image clip-path="url(#c15_5)" preserveAspectRatio="none" x="268" y="179" width="48" height="50" xlink:href="img/42.jpg"/>
<image clip-path="url(#c16_5)" preserveAspectRatio="none" x="271" y="181" width="50" height="51" xlink:href="img/43.jpg"/>
<image clip-path="url(#c17_5)" preserveAspectRatio="none" x="271" y="181" width="50" height="51" xlink:href="img/44.jpg"/>
<image clip-path="url(#c18_5)" preserveAspectRatio="none" x="769" y="1038" width="53" height="183" xlink:href="img/45.jpg"/>
<image clip-path="url(#c19_5)" preserveAspectRatio="none" x="85" y="1175" width="685" height="46" xlink:href="img/46.jpg"/>
<image clip-path="url(#c1a_5)" preserveAspectRatio="none" x="85" y="992" width="737" height="222" xlink:href="img/47.jpg"/>
<image clip-path="url(#c1b_5)" preserveAspectRatio="none" x="225" y="1065" width="52" height="61" xlink:href="img/48.jpg"/>
<image clip-path="url(#c1c_5)" preserveAspectRatio="none" x="210" y="1062" width="52" height="22" xlink:href="img/49.jpg"/>
<image clip-path="url(#c1d_5)" preserveAspectRatio="none" x="213" y="1065" width="49" height="49" xlink:href="img/50.jpg"/>
<image clip-path="url(#c1e_5)" preserveAspectRatio="none" x="158" y="1083" width="63" height="68" xlink:href="img/51.jpg"/>
<image clip-path="url(#c1f_5)" preserveAspectRatio="none" x="213" y="1114" width="13" height="18" xlink:href="img/52.jpg"/>
<image clip-path="url(#c1g_5)" preserveAspectRatio="none" x="210" y="1084" width="3" height="30" xlink:href="img/53.jpg"/>
<image clip-path="url(#c1h_5)" preserveAspectRatio="none" x="213" y="1084" width="13" height="30" xlink:href="img/54.jpg"/>
<image clip-path="url(#c1i_5)" preserveAspectRatio="none" x="156" y="1080" width="52" height="53" xlink:href="img/55.jpg"/>
<image clip-path="url(#c1j_5)" preserveAspectRatio="none" x="159" y="1084" width="49" height="49" xlink:href="img/56.jpg"/>
<image clip-path="url(#c1k_5)" preserveAspectRatio="none" x="224" y="1132" width="67" height="61" xlink:href="img/57.jpg"/>
<image clip-path="url(#c1l_5)" preserveAspectRatio="none" x="272" y="1126" width="6" height="6" xlink:href="img/58.jpg"/>
<image clip-path="url(#c1m_5)" preserveAspectRatio="none" x="225" y="1123" width="48" height="3" xlink:href="img/59.jpg"/>
<image clip-path="url(#c1n_5)" preserveAspectRatio="none" x="221" y="1150" width="3" height="25" xlink:href="img/60.jpg"/>
<image clip-path="url(#c1o_5)" preserveAspectRatio="none" x="221" y="1132" width="3" height="19" xlink:href="img/61.jpg"/>
<image clip-path="url(#c1p_5)" preserveAspectRatio="none" x="221" y="1123" width="5" height="9" xlink:href="img/62.jpg"/>
<image clip-path="url(#c1q_5)" preserveAspectRatio="none" x="224" y="1132" width="49" height="43" xlink:href="img/63.jpg"/>
<image clip-path="url(#c1r_5)" preserveAspectRatio="none" x="225" y="1126" width="48" height="6" xlink:href="img/64.jpg"/>
<image clip-path="url(#c1s_5)" preserveAspectRatio="none" x="224" y="1132" width="2" height="19" xlink:href="img/65.jpg"/>
<image clip-path="url(#c1t_5)" preserveAspectRatio="none" x="224" y="1126" width="2" height="6" xlink:href="img/66.jpg"/>
<image clip-path="url(#c1u_5)" preserveAspectRatio="none" x="290" y="1126" width="68" height="67" xlink:href="img/67.jpg"/>
<image clip-path="url(#c1v_5)" preserveAspectRatio="none" x="290" y="1174" width="1" height="19" xlink:href="img/68.jpg"/>
<image clip-path="url(#c1w_5)" preserveAspectRatio="none" x="287" y="1141" width="3" height="34" xlink:href="img/69.jpg"/>
<image clip-path="url(#c1x_5)" preserveAspectRatio="none" x="291" y="1141" width="48" height="34" xlink:href="img/70.jpg"/>
<image clip-path="url(#c1y_5)" preserveAspectRatio="none" x="290" y="1141" width="1" height="34" xlink:href="img/71.jpg"/>
<image clip-path="url(#c1z_5)" preserveAspectRatio="none" x="325" y="1065" width="18" height="10" xlink:href="img/72.jpg"/>
<image clip-path="url(#c20_5)" preserveAspectRatio="none" x="276" y="1123" width="2" height="3" xlink:href="img/73.jpg"/>
<image clip-path="url(#c21_5)" preserveAspectRatio="none" x="276" y="1126" width="2" height="6" xlink:href="img/74.jpg"/>
<image clip-path="url(#c22_5)" preserveAspectRatio="none" x="273" y="1062" width="52" height="3" xlink:href="img/75.jpg"/>
<image clip-path="url(#c23_5)" preserveAspectRatio="none" x="273" y="1065" width="3" height="15" xlink:href="img/76.jpg"/>
<image clip-path="url(#c24_5)" preserveAspectRatio="none" x="276" y="1065" width="49" height="6" xlink:href="img/77.jpg"/>
<image clip-path="url(#c25_5)" preserveAspectRatio="none" x="276" y="1065" width="4" height="6" xlink:href="img/78.jpg"/>
<image clip-path="url(#c26_5)" preserveAspectRatio="none" x="590" y="1140" width="70" height="53" xlink:href="img/79.jpg"/>
<image clip-path="url(#c27_5)" preserveAspectRatio="none" x="588" y="1141" width="3" height="33" xlink:href="img/80.jpg"/>
<image clip-path="url(#c28_5)" preserveAspectRatio="none" x="590" y="1141" width="50" height="33" xlink:href="img/81.jpg"/>
<image clip-path="url(#c29_5)" preserveAspectRatio="none" x="662" y="1141" width="69" height="53" xlink:href="img/82.jpg"/>
<image clip-path="url(#c2a_5)" preserveAspectRatio="none" x="660" y="1140" width="2" height="35" xlink:href="img/83.jpg"/>
<image clip-path="url(#c2b_5)" preserveAspectRatio="none" x="662" y="1140" width="50" height="35" xlink:href="img/84.jpg"/>
<image clip-path="url(#c2c_5)" preserveAspectRatio="none" x="643" y="1073" width="56" height="68" xlink:href="img/85.jpg"/>
<image clip-path="url(#c2d_5)" preserveAspectRatio="none" x="643" y="1123" width="17" height="18" xlink:href="img/86.jpg"/>
<image clip-path="url(#c2e_5)" preserveAspectRatio="none" x="660" y="1123" width="39" height="17" xlink:href="img/87.jpg"/>
<image clip-path="url(#c2f_5)" preserveAspectRatio="none" x="662" y="1125" width="37" height="15" xlink:href="img/88.jpg"/>
<image clip-path="url(#c2g_5)" preserveAspectRatio="none" x="634" y="1071" width="52" height="2" xlink:href="img/89.jpg"/>
<image clip-path="url(#c2h_5)" preserveAspectRatio="none" x="643" y="1073" width="43" height="49" xlink:href="img/90.jpg"/>
<image clip-path="url(#c2i_5)" preserveAspectRatio="none" x="579" y="1071" width="58" height="70" xlink:href="img/91.jpg"/>
<image clip-path="url(#c2j_5)" preserveAspectRatio="none" x="640" y="1140" width="4" height="1" xlink:href="img/92.jpg"/>
<image clip-path="url(#c2k_5)" preserveAspectRatio="none" x="588" y="1122" width="49" height="19" xlink:href="img/93.jpg"/>
<image clip-path="url(#c2l_5)" preserveAspectRatio="none" x="590" y="1124" width="50" height="17" xlink:href="img/94.jpg"/>
<image clip-path="url(#c2m_5)" preserveAspectRatio="none" x="636" y="1121" width="8" height="3" xlink:href="img/95.jpg"/>
<image clip-path="url(#c2n_5)" preserveAspectRatio="none" x="640" y="1123" width="4" height="18" xlink:href="img/96.jpg"/>
<image clip-path="url(#c2o_5)" preserveAspectRatio="none" x="636" y="1122" width="4" height="2" xlink:href="img/97.jpg"/>
<image clip-path="url(#c2p_5)" preserveAspectRatio="none" x="636" y="1124" width="4" height="17" xlink:href="img/98.jpg"/>
<image clip-path="url(#c2q_5)" preserveAspectRatio="none" x="634" y="1072" width="9" height="50" xlink:href="img/99.jpg"/>
<image clip-path="url(#c2r_5)" preserveAspectRatio="none" x="636" y="1073" width="7" height="49" xlink:href="img/100.jpg"/>
<image clip-path="url(#c2s_5)" preserveAspectRatio="none" x="572" y="1069" width="52" height="39" xlink:href="img/101.jpg"/>
<image clip-path="url(#c2t_5)" preserveAspectRatio="none" x="574" y="1072" width="50" height="50" xlink:href="img/102.jpg"/>
<image clip-path="url(#c2u_5)" preserveAspectRatio="none" x="704" y="1073" width="64" height="69" xlink:href="img/103.jpg"/>
<image clip-path="url(#c2v_5)" preserveAspectRatio="none" x="711" y="1125" width="20" height="17" xlink:href="img/104.jpg"/>
<image clip-path="url(#c2w_5)" preserveAspectRatio="none" x="704" y="1123" width="8" height="2" xlink:href="img/105.jpg"/>
<image clip-path="url(#c2x_5)" preserveAspectRatio="none" x="698" y="1125" width="14" height="17" xlink:href="img/106.jpg"/>
<image clip-path="url(#c2y_5)" preserveAspectRatio="none" x="698" y="1122" width="7" height="1" xlink:href="img/107.jpg"/>
<image clip-path="url(#c2z_5)" preserveAspectRatio="none" x="698" y="1123" width="7" height="2" xlink:href="img/108.jpg"/>
<image clip-path="url(#c30_5)" preserveAspectRatio="none" x="698" y="1125" width="7" height="15" xlink:href="img/109.jpg"/>
<image clip-path="url(#c31_5)" preserveAspectRatio="none" x="696" y="1071" width="52" height="2" xlink:href="img/110.jpg"/>
<image clip-path="url(#c32_5)" preserveAspectRatio="none" x="696" y="1073" width="3" height="50" xlink:href="img/111.jpg"/>
<image clip-path="url(#c33_5)" preserveAspectRatio="none" x="698" y="1073" width="50" height="50" xlink:href="img/112.jpg"/>
<image clip-path="url(#c34_5)" preserveAspectRatio="none" x="698" y="1073" width="7" height="50" xlink:href="img/113.jpg"/>
<image clip-path="url(#c35_5)" preserveAspectRatio="none" x="355" y="1107" width="225" height="44" xlink:href="img/114.jpg"/>
<image clip-path="url(#c36_5)" preserveAspectRatio="none" x="355" y="1126" width="3" height="25" xlink:href="img/115.jpg"/>
<image clip-path="url(#c37_5)" preserveAspectRatio="none" x="574" y="1122" width="6" height="19" xlink:href="img/116.jpg"/>
<image clip-path="url(#c38_5)" preserveAspectRatio="none" x="572" y="1107" width="2" height="15" xlink:href="img/117.jpg"/>
<image clip-path="url(#c39_5)" preserveAspectRatio="none" x="574" y="1107" width="6" height="15" xlink:href="img/118.jpg"/>
<path d="M560.5,1118.4l-187,-.3" class="g3_5"/>
<path d="M351.8,1118l37.5,13.8v-27.3Z" class="g2_5"/>
<path d="M311.6,1088.5l46,-33.6l-3.6,-5l-46,33.7Z" class="g2_5"/>
<path d="M367.9,1043.5l-26.2,7.6l11.1,15.1Z" class="g2_5"/>
<path d="M332.9,1100.3c1.5,-18,-11.8,-33.9,-29.8,-35.4c-18,-1.6,-33.8,11.7,-35.4,29.7c-1.6,18,11.7,33.8,29.7,35.4c18,1.6,33.9,-11.7,35.5,-29.7Z" class="g2_5"/>
<image clip-path="url(#c3a_5)" preserveAspectRatio="none" x="343" y="1074" width="1" height="52" xlink:href="img/119.jpg"/>
<image clip-path="url(#c3b_5)" preserveAspectRatio="none" x="277" y="1132" width="11" height="10" xlink:href="img/120.jpg"/>
<image clip-path="url(#c3c_5)" preserveAspectRatio="none" x="339" y="1126" width="5" height="16" xlink:href="img/121.jpg"/>
<image clip-path="url(#c3d_5)" preserveAspectRatio="none" x="287" y="1132" width="3" height="9" xlink:href="img/122.jpg"/>
<image clip-path="url(#c3e_5)" preserveAspectRatio="none" x="291" y="1132" width="48" height="9" xlink:href="img/123.jpg"/>
<image clip-path="url(#c3f_5)" preserveAspectRatio="none" x="290" y="1132" width="1" height="9" xlink:href="img/124.jpg"/>
<image clip-path="url(#c3g_5)" preserveAspectRatio="none" x="279" y="1074" width="64" height="52" xlink:href="img/125.jpg"/>
<image clip-path="url(#c3h_5)" preserveAspectRatio="none" x="277" y="1123" width="3" height="3" xlink:href="img/126.jpg"/>
<image clip-path="url(#c3i_5)" preserveAspectRatio="none" x="279" y="1126" width="9" height="6" xlink:href="img/127.jpg"/>
<image clip-path="url(#c3j_5)" preserveAspectRatio="none" x="277" y="1126" width="3" height="6" xlink:href="img/128.jpg"/>
<image clip-path="url(#c3k_5)" preserveAspectRatio="none" x="339" y="1126" width="4" height="6" xlink:href="img/129.jpg"/>
<image clip-path="url(#c3l_5)" preserveAspectRatio="none" x="316" y="1123" width="23" height="3" xlink:href="img/130.jpg"/>
<image clip-path="url(#c3m_5)" preserveAspectRatio="none" x="287" y="1127" width="3" height="5" xlink:href="img/131.jpg"/>
<image clip-path="url(#c3n_5)" preserveAspectRatio="none" x="291" y="1126" width="48" height="6" xlink:href="img/132.jpg"/>
<image clip-path="url(#c3o_5)" preserveAspectRatio="none" x="290" y="1128" width="1" height="4" xlink:href="img/133.jpg"/>
<image clip-path="url(#c3p_5)" preserveAspectRatio="none" x="326" y="1074" width="5" height="4" xlink:href="img/134.jpg"/>
<image clip-path="url(#c3q_5)" preserveAspectRatio="none" x="280" y="1077" width="54" height="54" xlink:href="img/135.jpg"/>
<image clip-path="url(#c3r_5)" preserveAspectRatio="none" x="320" y="1071" width="5" height="2" xlink:href="img/136.jpg"/>
<image clip-path="url(#c3s_5)" preserveAspectRatio="none" x="322" y="1071" width="4" height="4" xlink:href="img/137.jpg"/>
<image clip-path="url(#c3t_5)" preserveAspectRatio="none" x="274" y="1071" width="2" height="7" xlink:href="img/138.jpg"/>
<image clip-path="url(#c3u_5)" preserveAspectRatio="none" x="280" y="1071" width="1" height="1" xlink:href="img/139.jpg"/>
<image clip-path="url(#c3v_5)" preserveAspectRatio="none" x="276" y="1071" width="4" height="5" xlink:href="img/140.jpg"/>
<image clip-path="url(#c3w_5)" preserveAspectRatio="none" x="274" y="1117" width="2" height="6" xlink:href="img/141.jpg"/>
<image clip-path="url(#c3x_5)" preserveAspectRatio="none" x="276" y="1119" width="1" height="4" xlink:href="img/142.jpg"/>
<image clip-path="url(#c3y_5)" preserveAspectRatio="none" x="274" y="1071" width="50" height="50" xlink:href="img/143.jpg"/>
<image clip-path="url(#c3z_5)" preserveAspectRatio="none" x="323" y="1074" width="3" height="4" xlink:href="img/144.jpg"/>
<image clip-path="url(#c40_5)" preserveAspectRatio="none" x="321" y="1117" width="5" height="6" xlink:href="img/145.jpg"/>
<image clip-path="url(#c41_5)" preserveAspectRatio="none" x="277" y="1121" width="3" height="2" xlink:href="img/146.jpg"/>
<image clip-path="url(#c42_5)" preserveAspectRatio="none" x="277" y="1074" width="49" height="49" xlink:href="img/147.jpg"/>
<image clip-path="url(#c43_5)" preserveAspectRatio="none" x="543" y="1036" width="62" height="63" xlink:href="img/148.jpg"/>
<image clip-path="url(#c44_5)" preserveAspectRatio="none" x="572" y="1069" width="33" height="29" xlink:href="img/149.jpg"/>
<image clip-path="url(#c45_5)" preserveAspectRatio="none" x="574" y="1072" width="31" height="26" xlink:href="img/150.jpg"/>
<path d="M544.8,1041.6l39.7,40.9l4.4,-4.3l-39.8,-40.8Z" class="g2_5"/>
<path d="M597.2,1091.1L586,1066.2l-13.4,13.1Z" class="g2_5"/>
<image clip-path="url(#c46_5)" preserveAspectRatio="none" x="171" y="1014" width="143" height="47" xlink:href="img/151.jpg"/>
<image clip-path="url(#c47_5)" preserveAspectRatio="none" x="402" y="1045" width="109" height="44" xlink:href="img/152.jpg"/>
<image clip-path="url(#c48_5)" preserveAspectRatio="none" x="403" y="1047" width="104" height="19" xlink:href="img/153.jpg"/>
<path d="M406.3,1050.4v.8c.6,0,1.3,0,2.2,0c1,.1,1.7,.1,2.1,.1h.4l.4,-.5l.1,-.2v-.2c.1,-.7,.2,-1.2,.2,-1.5l.1,-.9h-.9c-3,.1,-5.3,.1,-6.8,.1h-.3l-.4,.4l-.2,.2v.3c0,.3,-.1,.6,-.1,.9c0,.5,.1,1.2,.1,2.1c0,.9,0,1.6,0,2.1c0,2.2,-.1,4.5,-.2,6.9l.8,.1v-.8c-.5,0,-.8,.4,-.8,.8c0,.4,.3,.7,.8,.7h5.5c.4,0,.8,0,1.2,0h.3l.4,-.4l.2,-.2l.1,-.3c0,-.5,0,-1,.1,-1.5v-.9l-.9,.1c-.4,.1,-1,.1,-1.6,.1c-.3,0,-.8,0,-1.5,0c-.7,-.1,-1.2,-.1,-1.6,-.1v.8h.8c0,-1.4,0,-2.7,0,-4h-.7v.8h.2c.5,0,1.1,0,1.9,0c.9,.1,1.6,.1,1.9,.1h.5l.3,-.6l.1,-.1v-.2c.1,-.5,.1,-1,.2,-1.5l.1,-.9h-.9c-.9,0,-1.7,0,-2.4,0c-.7,0,-1.3,0,-1.8,0h-.1v.8h.8c0,-1.2,0,-2.3,0,-3.4h-.7v.8h.1v-1.6h-.9v.8c0,1,-.1,2.2,-.1,3.4v.8h.9v-.8v.8c.5,0,1.1,0,1.8,0c.7,0,1.5,0,2.4,0v-.8l-.7,-.1c-.1,.5,-.1,1,-.2,1.6h.8l-.7,-.4l-.1,.2l.7,.4v-.7c-.4,0,-1,-.1,-1.9,-.1c-.9,0,-1.5,0,-2,0h-1v.7c0,1.3,-.1,2.6,-.1,4v.8h.8c.4,0,.9,0,1.5,0c.8,0,1.3,0,1.6,0c.7,0,1.2,0,1.8,-.1l-.1,-.7l-.8,-.1c0,.5,0,1,-.1,1.5l.8,.1l-.5,-.6l-.2,.2l.5,.6v-.8c-.4,0,-.8,0,-1.2,0h-5.5c-.2,0,-.4,.1,-.6,.2c-.1,.2,-.2,.4,-.2,.6c0,.2,.1,.4,.2,.5c.2,.2,.4,.2,.6,.2h.7v-.7c.2,-2.5,.2,-4.8,.2,-7c0,-.5,0,-1.2,0,-2.1c0,-.9,0,-1.6,0,-2.1c0,-.3,0,-.6,0,-.8h-.8l.6,.5l.2,-.2l-.6,-.5v.7c1.5,0,3.8,0,6.8,0v-.8l-.7,-.1c-.1,.4,-.1,.9,-.2,1.6h.8l-.6,-.4l-.2,.2l.6,.4v-.7c-.3,0,-1,0,-2.1,-.1c-.9,0,-1.6,-.1,-2.2,-.1v.8m19.1,10.4h.7c0,-1.7,0,-3.2,0,-4.3c0,-.8,0,-1.4,0,-2c0,-1,-.3,-1.9,-.9,-2.5c-.6,-.7,-1.5,-1,-2.4,-1c-1.3,0,-2.4,.4,-3.6,1.1l.5,.6l.6,-.4c-.7,-.9,-1.7,-1.4,-2.7,-1.4c-1.2,0,-2.4,.3,-3.4,1l.4,.6l.3,-.7c-.3,-.1,-.5,-.2,-.7,-.3c-.4,-.1,-.7,-.2,-1.1,-.2h-.2l-.5,.2l-.5,.3l.1,.5c0,.6,.1,1.3,.1,2c0,.6,0,1.2,0,1.9c0,1.7,-.1,3.3,-.2,4.8v.9l.9,-.1c.8,0,1.5,-.1,2.1,-.1h.8v-.8c0,-.9,-.1,-1.9,-.1,-3.2c0,-1.1,0,-2.2,.1,-3.5l-.8,-.1l.5,.7c.6,-.5,1.2,-.7,1.5,-.7q.1,0,.2,.1c.1,.2,.2,.6,.2,1.3c0,.2,0,.4,0,.6c0,1.3,0,2.9,-.1,4.9l-.1,.9l.9,-.1c1,0,1.8,-.1,2.2,-.1h.8l-.1,-.8c0,-.5,0,-1.2,0,-2c0,-.4,0,-.9,0,-1.4c0,-.6,0,-1.2,0,-1.7c0,-.7,0,-1.3,0,-1.8l-.8,.1l.5,.6c.4,-.4,.9,-.5,1.4,-.5q.2,0,.3,.2c.1,.1,.3,.6,.3,1.3v.7h.7v-.7l-.6,.3c0,0,.1,.4,.6,.4v-.7l-.6,.3l.2,-.1h-.2v.1l.2,-.1h-.2c0,.1,0,.3,0,.6c0,.8,-.1,2.3,-.3,4.5l-.1,.9l.9,-.1c.9,0,1.6,-.1,2,-.1h.4l.3,-.4l.2,-.2v-.3h-.7l-.6,-.5l-.2,.1l.6,.6v-.8c-.5,0,-1.2,0,-2.1,.1l.1,.8h.7c.2,-2.2,.3,-3.7,.3,-4.6c0,-.3,0,-.6,0,-.8c0,-.1,0,-.2,-.1,-.3c0,-.1,-.2,-.5,-.8,-.5v.7h.8c0,-.8,-.1,-1.5,-.5,-2c-.3,-.6,-1,-1,-1.6,-1c-.9,0,-1.7,.3,-2.4,.9l-.3,.2v.4c.1,.4,.1,1,.1,1.7c0,.5,0,1.1,-.1,1.7c0,.5,0,1,0,1.4c0,.9,.1,1.5,.1,2.1l.7,-.1v-.7c-.4,0,-1.2,0,-2.2,.1v.8h.8c.1,-2,.1,-3.7,.1,-5c0,-.2,0,-.4,0,-.7l-.7,.1l.7,-.1c0,-.7,-.1,-1.4,-.4,-1.9c-.2,-.6,-.9,-1,-1.5,-1c-.8,.1,-1.6,.4,-2.5,1l-.3,.3v.3c0,1.3,0,2.5,0,3.6c0,1.3,0,2.4,.1,3.3l.7,-.1v-.7c-.6,0,-1.4,0,-2.3,.1l.1,.8h.8c.1,-1.5,.1,-3.2,.1,-4.9c0,-.7,0,-1.3,0,-2l-.8,.1h.8c0,-.8,0,-1.5,-.1,-2.2l-.8,.1l.4,.7l.3,-.2l-.3,-.7l-.1,.8c.2,0,.4,.1,.5,.1c.3,.1,.6,.2,.8,.3l.4,.2l.3,-.2c.8,-.5,1.7,-.8,2.6,-.8c.6,0,1,.2,1.4,.8l.5,.6l.6,-.4c.9,-.6,1.8,-.9,2.7,-.9c.6,0,1,.2,1.3,.5c.3,.3,.5,.8,.5,1.5h.8h-.8c0,.5,0,1.2,0,2c0,1.2,0,2.6,0,4.3h.8l-.6,-.5l.6,.5m9.1,-1.5l.6,.5c1,-1,1.6,-2.4,1.6,-4c0,-1.3,-.4,-2.4,-1.1,-3.4c-.8,-1,-1.9,-1.6,-3.2,-1.6c-1,0,-2.1,.3,-3,.9l.4,.7l.4,-.6c-.6,-.4,-1.2,-.6,-2,-.7h-.4l-.5,.4l-.2,.3v.3c.1,1,.1,2,.1,3.1c0,.6,0,1.3,0,1.9c0,2.4,0,4.9,-.2,7.6v1l3.2,-.5l.3,-.3l.3,-.3v-.3c-.1,-.8,-.1,-1.6,-.1,-2.5c0,-.3,0,-.6,0,-.9H430v.8c2.1,0,3.8,-.6,5.1,-1.9l-.6,-.5l-.5,-.5c-.9,.9,-2.2,1.4,-4,1.4h-.8v.7c0,.3,0,.6,0,.9c0,.9,0,1.7,0,2.5h.8l-.5,-.6v.1l-1.8,.2l.1,.8h.8c.1,-2.7,.2,-5.3,.2,-7.7c0,-.6,0,-1.3,0,-2v.1c-.1,-1.1,-.1,-2.2,-.2,-3.2l-.7,.1l.5,.5l.2,-.2l-.5,-.5l-.1,.7c.6,.1,1.1,.3,1.3,.4l.4,.3l.5,-.3c.7,-.4,1.5,-.6,2.2,-.6c.8,0,1.4,.2,2,1c.5,.6,.7,1.4,.8,2.4c-.1,1.2,-.4,2.2,-1.2,3l.5,.5m-1.2,-5.3l-.7,.4c.3,.3,.4,.8,.4,1.4v.1c0,1,-.3,1.7,-.7,2.1c-.5,.5,-1.1,.8,-2,.8l-.2,-.1l-.1,.8h.7c0,-2.3,.1,-4.1,.1,-5.6h-.7l.4,.6c.6,-.4,1.1,-.6,1.4,-.6c.3,.1,.5,.1,.7,.5l.7,-.4l.6,-.5c-.4,-.7,-1.2,-1.1,-2,-1.1c-.8,0,-1.5,.3,-2.3,.9l-.3,.2v.3c-.1,1.5,-.1,3.4,-.1,5.7v.7l.7,.1c.1,0,.3,0,.4,0c1.2,0,2.3,-.4,3.1,-1.2c.8,-.8,1.1,-1.9,1.1,-3.2v-.1c0,-.8,-.2,-1.6,-.6,-2.3l-.6,.5m6.4,-6.4l-.2,-.8c-.8,.2,-1.5,.4,-2.2,.5l-.6,.2v.6c.1,1.9,.2,3.9,.2,6.1c0,1.6,-.1,3.9,-.1,6.8l-.1,.9l.9,-.1c.9,0,1.6,-.1,2.1,-.1h.8l-.1,-1.3c0,-1.3,0,-2.7,0,-4.3c0,-.7,0,-1.3,0,-2v-.1c0,-3.4,0,-5.6,.1,-6.4v-1l-1,.2l.2,.8h-.8c0,.8,0,3,-.1,6.4c0,.7,0,1.4,0,2.1c0,1.6,0,3,.1,4.3v.6h.8l-.1,-.8c-.5,0,-1.2,.1,-2.1,.1v.8h.8c.1,-3,.1,-5.2,.1,-6.9c0,-2.2,-.1,-4.3,-.2,-6.2l-.7,.1l.1,.7c.7,-.1,1.4,-.3,2.3,-.5l-.2,-.7h-.8h.8m9.1,7.5l.7,.1c0,-.7,.1,-1.1,.1,-1.4c0,-.1,0,-.2,-.1,-.3l-.7,.1h.7c0,-.9,-.4,-1.8,-1.1,-2.2c-.6,-.3,-1.3,-.3,-2.2,-.3c-1.7,0,-3.2,.5,-4.2,1.5l.5,.5l-.5,-.5c-1.1,1,-1.7,2.5,-1.7,4.2v.3c.1,1.3,.4,2.5,1.2,3.4c.8,1,1.9,1.5,3.2,1.5c.9,0,1.8,-.3,2.6,-.9l-.4,-.7l-.4,.7c.3,.2,.6,.3,.8,.5c.4,.2,.9,.3,1.3,.3l.6,.1l.3,-1v-.2c0,-.3,0,-1.5,0,-3.6c0,-.4,0,-1,0,-2.1h-.7l.7,.1l-.7,-.1H448c0,1.1,0,1.7,0,2.1c0,2.1,0,3.3,0,3.6h.8l-.8,-.2l-.1,.3l.8,.3v-.8c-.3,0,-.5,-.1,-.6,-.2c-.3,-.1,-.5,-.3,-.8,-.4l-.4,-.3l-.4,.3c-.7,.5,-1.3,.7,-1.8,.7c-.9,0,-1.5,-.3,-2,-1c-.5,-.6,-.8,-1.4,-.8,-2.4h-.1v-.3c.1,-1.4,.4,-2.4,1.2,-3.1c.8,-.7,1.8,-1.1,3.2,-1.1c.8,0,1.3,.1,1.5,.2c.2,.1,.3,.2,.3,.8v.1h.1H448h.1H448v.1c0,.2,0,.7,0,1.3h.8m-2.2,-1.5l-.6,.5l.4,-.2H446v.2l.4,-.2H446c0,.5,0,2.2,-.1,4.9h.8l-.5,-.5c-.5,.4,-.8,.5,-1.2,.5c-.3,0,-.5,-.1,-.7,-.4c-.2,-.3,-.3,-.7,-.4,-1.4v-.2c0,-1,.3,-1.6,.6,-2.1c.4,-.4,.7,-.6,1.4,-.6h.2v-.2l-.1,.2h.1v-.2l-.1,.2l.6,-.5l.5,-.5c-.2,-.3,-.6,-.5,-1,-.5v.8l.1,-.8h-.3c-1,0,-2,.4,-2.6,1.2c-.6,.8,-.9,1.8,-.9,3v.2c0,.9,.2,1.7,.7,2.3c.4,.7,1.2,1,1.9,1c.8,0,1.6,-.3,2.2,-.9l.2,-.2v-.3c.1,-2.8,.1,-4.4,.1,-5c0,-.4,-.2,-.6,-.4,-.8l-.5,.5m10.7,-1.5l.3,-.7c-.8,-.3,-1.6,-.4,-2.5,-.4c-1.6,0,-3.1,.6,-4.1,1.8c-.9,1.1,-1.3,2.5,-1.3,4c0,1.3,.4,2.6,1.2,3.5c.8,1.1,2.1,1.7,3.6,1.7c1.3,0,2.4,-.3,3.2,-1l.2,-.2v-.3c0,-.4,.1,-1.1,.2,-2.1l.1,-1.8l-1.4,1.2c-.9,.8,-1.6,1.1,-1.9,1.1c-.6,0,-.9,-.2,-1.2,-.6c-.3,-.4,-.4,-.9,-.4,-1.6c0,-.7,.2,-1.3,.6,-1.9c.4,-.5,.8,-.7,1.4,-.7c.4,0,.7,.1,1.2,.3l.3,.2l.7,-.3l.4,-.2v-.5c.1,-.4,.1,-.8,.2,-1.4v-.6l-.5,-.2l-.3,.7h-.8c0,.5,-.1,1,-.1,1.5h.8l-.4,-.7l-.3,.2l.4,.7l.4,-.7c-.7,-.4,-1.3,-.6,-2,-.6c-1.1,0,-2.1,.5,-2.7,1.4l.6,.5l-.6,-.5c-.6,.8,-.8,1.8,-.8,2.8c0,1,.2,1.8,.7,2.5l.6,-.4l-.6,.4c.5,.8,1.4,1.2,2.4,1.2c.9,0,1.9,-.5,2.9,-1.4l-.5,-.6l-.8,-.1c0,1,-.1,1.7,-.1,2.1h.8l-.5,-.6c-.5,.4,-1.2,.7,-2.2,.7c-1.1,0,-1.9,-.4,-2.5,-1.1c-.5,-.7,-.8,-1.5,-.8,-2.6c0,-1.2,.3,-2.2,1,-3c.8,-.9,1.6,-1.3,2.9,-1.3c.7,0,1.3,.1,1.9,.3l.3,-.7h-.8h.8m8.8,2.5l.7,-.2c-.3,-1.1,-.9,-2,-1.7,-2.6c-.7,-.7,-1.7,-1,-2.7,-1c-1.6,0,-3,.7,-3.9,2c-.8,1,-1.1,2.4,-1.1,3.8v.3c0,1.6,.5,2.9,1.5,3.8c1,.9,2.2,1.3,3.6,1.3c.6,0,1.1,-.1,1.7,-.2c.8,-.2,1.5,-.5,1.9,-1l.2,-.2v-.3c0,-.5,.1,-1.2,.2,-2l.2,-1.9l-1.4,1.2c-.7,.6,-1.2,.9,-1.5,1.1c-.3,.1,-.6,.2,-1,.2c-1.1,-.1,-1.5,-.4,-1.8,-2.1l-.7,.1l.2,.7c2.2,-.6,3.9,-1,5.1,-1.4h.2l.2,-.2c.3,-.4,.6,-.7,.7,-1l.2,-.3l-.1,-.3l-.7,.2l-.7,-.4c-.1,.2,-.3,.4,-.6,.8l.6,.5l-.2,-.7c-1.2,.3,-2.9,.8,-5.1,1.4l-.7,.1l.1,.7c.1,2,1.4,3.5,3.3,3.4c.6,0,1.1,-.1,1.7,-.4c.5,-.2,1,-.6,1.7,-1.2l-.5,-.6l-.7,-.1c-.1,.9,-.2,1.6,-.2,2.2h.8l-.6,-.5c-.1,.1,-.5,.3,-1.1,.5l.2,.7l-.2,-.7c-.5,.1,-1,.2,-1.4,.2c-1.1,0,-1.9,-.3,-2.5,-.9l-.6,.5l.6,-.5c-.7,-.6,-1,-1.5,-1.1,-2.7v-.3c0,-1.2,.3,-2.2,.8,-2.9c.7,-.9,1.5,-1.3,2.7,-1.3c.7,0,1.3,.2,1.8,.6c.5,.4,.9,1,1.2,1.8l.7,-.2l-.7,-.4l.7,.4m-2.3,-.3l-.2,-.7l-3.5,.9l.2,.8l.7,.2c.4,-1.5,.9,-1.7,1.3,-1.7c0,-.1,.4,.1,.9,.9l.6,-.4l-.2,-.7l.2,.7l.7,-.3c-.6,-1,-1.2,-1.7,-2.2,-1.8c-1.5,0,-2.4,1.3,-2.8,2.8l-.3,1.3l5.8,-1.5l-.5,-.8l-.7,.3m16.2,6.5h.7c0,-1.7,0,-3.2,0,-4.3c0,-.8,0,-1.4,0,-2c0,-1,-.3,-1.9,-.9,-2.5c-.6,-.7,-1.5,-1,-2.5,-1c-1.2,0,-2.3,.4,-3.5,1.1l.5,.6l.6,-.4c-.7,-.9,-1.7,-1.4,-2.7,-1.4c-1.2,0,-2.4,.3,-3.4,1l.4,.6l.3,-.7c-.3,-.1,-.5,-.2,-.7,-.3c-.4,-.1,-.7,-.2,-1.1,-.2h-.2l-.5,.2l-.5,.3l.1,.5c0,.6,.1,1.3,.1,2c0,.6,0,1.3,0,1.9c0,1.7,-.1,3.3,-.2,4.8v.9l.9,-.1c.8,0,1.5,-.1,2.1,-.1h.8v-.8c0,-.9,-.1,-1.9,-.1,-3.2c0,-1.1,0,-2.2,.1,-3.5l-.8,-.1l.5,.7c.6,-.5,1.2,-.7,1.5,-.7q.1,0,.2,.1c.1,.2,.2,.6,.2,1.3c0,.2,0,.4,0,.6c0,1.3,0,2.9,-.1,4.9l-.1,.9l.9,-.1c1,0,1.8,-.1,2.2,-.1h.8l-.1,-.8c0,-.5,0,-1.2,0,-2c0,-.4,0,-.9,0,-1.4c0,-.6,0,-1.2,0,-1.7c0,-.7,0,-1.3,0,-1.8l-.8,.1l.5,.6c.4,-.4,.9,-.5,1.4,-.5q.2,0,.3,.2c.1,.1,.3,.6,.3,1.3v.7h.7v-.7l-.6,.3c0,0,.1,.4,.6,.4v-.7l-.6,.3l.2,-.1h-.2v.1l.2,-.1h-.2c0,.1,0,.3,0,.6c0,.8,-.1,2.3,-.3,4.5l-.1,.9l.9,-.1c.9,0,1.6,-.1,2,-.1h.4l.3,-.4l.2,-.2v-.3H480l-.6,-.5l-.2,.1l.6,.6v-.8c-.5,0,-1.2,0,-2.1,.1l.1,.8h.7c.2,-2.2,.3,-3.7,.3,-4.6c0,-.3,0,-.6,0,-.8c0,-.1,-.1,-.2,-.1,-.3c-.1,-.1,-.2,-.5,-.8,-.5v.7h.8c0,-.8,-.1,-1.5,-.5,-2c-.3,-.6,-1,-1,-1.6,-1c-.9,0,-1.7,.3,-2.4,.9l-.3,.2v.4c0,.4,.1,1,.1,1.7c0,.5,0,1.1,-.1,1.7c0,.5,0,1,0,1.4c0,.9,0,1.5,.1,2.1l.7,-.1v-.7c-.4,0,-1.2,0,-2.2,.1v.8h.8c.1,-2,.1,-3.7,.1,-5c0,-.2,0,-.4,0,-.7l-.7,.1l.7,-.1c0,-.7,-.1,-1.4,-.4,-1.9c-.2,-.6,-.9,-1,-1.5,-1c-.8,.1,-1.6,.4,-2.5,1l-.3,.3v.3c0,1.3,0,2.5,0,3.6c0,1.3,0,2.4,.1,3.3l.7,-.1v-.7c-.6,0,-1.4,0,-2.3,.1l.1,.8h.8c.1,-1.5,.1,-3.2,.1,-4.9c0,-.7,0,-1.3,0,-2l-.8,.1h.8c0,-.8,0,-1.5,-.1,-2.2l-.8,.1l.4,.7l.3,-.2l-.4,-.7v.8c.2,0,.4,.1,.5,.1c.3,.1,.6,.2,.8,.3l.4,.2l.3,-.2c.8,-.5,1.7,-.8,2.6,-.8c.6,0,1,.2,1.4,.8l.5,.6l.6,-.4c.9,-.6,1.8,-.9,2.6,-.9c.7,0,1.1,.2,1.4,.5c.3,.3,.5,.8,.5,1.5h.8h-.8c0,.5,0,1.2,0,2c0,1.2,0,2.6,0,4.3h.8l-.6,-.5l.6,.5m10,-6.2l.7,-.2c-.3,-1.1,-.9,-2,-1.7,-2.6c-.8,-.7,-1.7,-1,-2.8,-1c-1.5,0,-2.9,.7,-3.8,2c-.8,1,-1.1,2.4,-1.1,3.8v.3c0,1.6,.5,2.9,1.5,3.8c.9,.9,2.2,1.3,3.6,1.3c.6,0,1.1,-.1,1.7,-.2c.8,-.2,1.5,-.5,1.9,-1l.2,-.2v-.3c0,-.5,.1,-1.2,.2,-2l.2,-1.9l-1.5,1.2c-.6,.6,-1.1,.9,-1.4,1.1c-.3,.1,-.7,.2,-1.1,.2c-1.1,-.1,-1.4,-.4,-1.7,-2.1l-.8,.1l.2,.7c2.3,-.6,4,-1,5.2,-1.4h.2l.2,-.2c.3,-.4,.6,-.7,.7,-1l.2,-.3l-.1,-.3l-.7,.2l-.7,-.4c-.1,.2,-.3,.4,-.6,.8l.6,.5l-.2,-.7c-1.2,.3,-2.9,.8,-5.1,1.4l-.7,.1l.1,.7c.1,2,1.4,3.5,3.2,3.4c.6,0,1.2,-.1,1.8,-.4c.5,-.2,1,-.6,1.7,-1.2l-.5,-.6l-.7,-.1c-.1,.9,-.2,1.6,-.2,2.2h.7l-.5,-.5c-.1,.1,-.5,.3,-1.1,.5l.1,.7l-.1,-.7c-.5,.1,-1,.2,-1.4,.2c-1.1,0,-1.9,-.3,-2.6,-.9l-.5,.5l.6,-.5c-.7,-.6,-1,-1.5,-1.1,-2.7v-.3c0,-1.2,.3,-2.2,.8,-2.9c.7,-.9,1.5,-1.3,2.6,-1.3c.8,0,1.4,.2,1.9,.6c.5,.4,.9,1,1.1,1.8l.8,-.2l-.7,-.4l.7,.4m-2.3,-.3l-.2,-.7l-3.5,.9l.1,.8l.8,.2c.4,-1.5,.8,-1.7,1.3,-1.7c0,-.1,.4,.1,.9,.9l.6,-.4l-.2,-.7l.2,.7l.7,-.3c-.6,-1,-1.2,-1.7,-2.2,-1.8c-1.5,0,-2.4,1.3,-2.8,2.8l-.3,1.3l5.8,-1.5l-.5,-.8l-.7,.3m11.3,6.6h.8c-.1,-.7,-.1,-1.3,-.1,-1.8h-.8h.8c0,-.5,0,-1.3,0,-2.3c0,-.6,.1,-1.1,.1,-1.5c0,-.3,-.1,-.6,-.1,-.8H499h.7c0,-1,-.2,-1.9,-.8,-2.6c-.6,-.7,-1.5,-1,-2.5,-.9c-1.3,-.1,-2.5,.2,-3.5,.8l.4,.7l.3,-.7c-.8,-.3,-1.3,-.5,-1.8,-.5c-.4,0,-.6,.2,-.8,.3l-.4,.2v.5c.1,1.2,.1,2.3,.2,3.2h.7h-.7c0,.1,0,.3,0,.4c0,1.1,-.1,2.8,-.2,5.1v.9l.9,-.1c.6,-.1,1.3,-.1,2,-.1h.3l.3,-.4l.3,-.3v-.3c-.1,-1,-.1,-2.1,-.1,-3.3c0,-1,0,-2.1,.1,-3.2l-.8,-.1l.5,.6c.6,-.4,1.1,-.6,1.6,-.6q.1,0,.3,.2c.1,.2,.2,.5,.2,1h.8h-.8c0,.7,0,1.6,0,2.7h.7h-.7c-.1,1.4,-.1,2.3,-.1,2.8v.3l.4,.4l.2,.3h.4c.6,-.1,1.2,-.1,2,-.1l.7,-.1v-.7H499v-.8c-.8,.1,-1.5,.1,-2,.2v.7l.6,-.5l-.2,-.2l-.5,.5h.7c0,-.5,0,-1.4,.1,-2.8c0,-1.1,0,-2,0,-2.7v-.1c0,-.6,-.1,-1.2,-.4,-1.7c-.3,-.6,-1,-1,-1.6,-1c-.9,0,-1.8,.4,-2.6,1.1l-.3,.2v.3c0,1.2,0,2.3,0,3.3c0,1.2,0,2.3,0,3.4l.8,-.1l-.5,-.5l-.2,.2l.5,.5v-.8c-.7,.1,-1.4,.1,-2.1,.2l.1,.7l.8,.1c0,-2.3,.1,-4,.1,-5.2c0,-.1,0,-.3,0,-.4c0,-1,-.1,-2,-.1,-3.3h-.8l.4,.7l.1,-.1l-.1,-.2v.2h.1l-.1,-.2v.2c0,0,.5,.1,1.2,.4l.3,.2l.4,-.2c.7,-.5,1.6,-.7,2.7,-.7c1.4,.1,1.7,.4,1.8,2v.1c0,.2,0,.4,0,.7c0,.4,0,.9,0,1.5c0,1,0,1.8,0,2.3c0,.5,0,1.2,.1,1.8h.7v-.8v.8m7,-.9l.1,-.8c-.7,0,-1.1,-.2,-1.2,-.2c0,-.1,-.1,-.1,-.1,-.4c0,-.3,0,-.6,0,-.9c0,-1.1,0,-2.5,.1,-4.3l-.8,-.1v.8h2.6v-.7c0,-.6,0,-1.1,.1,-1.6v-.8H506c-1,0,-1.6,.1,-1.9,.1v.7h.7c.1,-1,.1,-1.8,.2,-2.4l.1,-1.1l-3.8,.9v2l-.5,.1l-.5,.1l-.3,1.5v1.2h1.3v4.8c0,.9,.3,1.8,.9,2.3c.7,.5,1.5,.7,2.5,.7c.5,0,.9,-.1,1.4,-.2l.6,-.1l.1,-1.6v-.7l-.7,-.1l-.1,.8l-.7,-.1l-.1,1l.7,.1l-.1,-.8c-.5,.1,-.8,.2,-1.1,.2c-1.6,-.1,-1.8,-.4,-1.9,-1.5v-6.3h-2v.8h.7v-.3l.1,-.4l.6,-.1l.6,-.2l.1,-2l1.5,-.4l-.2,-.7l-.7,-.1c-.1,.7,-.2,1.6,-.2,2.6v.8h.8c.4,0,1,0,1.9,-.1v-.7l-.8,-.1c0,.5,0,1.1,-.1,1.6h.8v-.7h-2.6v.7c0,1.9,0,3.3,0,4.4c0,.3,0,.6,0,.9h.8h-.8c0,.6,.2,1.3,.8,1.6c.5,.3,1.1,.5,1.8,.5l.1,-.7l-.7,-.1l.7,.1Z" class="g4_5"/>
<image clip-path="url(#c49_5)" preserveAspectRatio="none" x="362" y="1015" width="40" height="33" xlink:href="img/154.jpg"/>
<image clip-path="url(#c4a_5)" preserveAspectRatio="none" x="362" y="1043" width="6" height="5" xlink:href="img/155.jpg"/>
<image clip-path="url(#c4b_5)" preserveAspectRatio="none" x="432" y="1015" width="54" height="31" xlink:href="img/156.jpg"/>
<image clip-path="url(#c4c_5)" preserveAspectRatio="none" x="432" y="1045" width="54" height="3" xlink:href="img/157.jpg"/>
<image clip-path="url(#c4d_5)" preserveAspectRatio="none" x="437" y="1046" width="4" height="2" xlink:href="img/158.jpg"/>
<image clip-path="url(#c4e_5)" preserveAspectRatio="none" x="507" y="1015" width="54" height="33" xlink:href="img/159.jpg"/>
<image clip-path="url(#c4f_5)" preserveAspectRatio="none" x="543" y="1036" width="18" height="12" xlink:href="img/160.jpg"/>
<image clip-path="url(#c4g_5)" preserveAspectRatio="none" x="544" y="1037" width="15" height="11" xlink:href="img/161.jpg"/>
<image clip-path="url(#c4h_5)" preserveAspectRatio="none" x="507" y="1045" width="4" height="3" xlink:href="img/162.jpg"/>
<image clip-path="url(#c4i_5)" preserveAspectRatio="none" x="571" y="1014" width="230" height="51" xlink:href="img/163.jpg"/>
<image clip-path="url(#c4j_5)" preserveAspectRatio="none" x="571" y="1036" width="34" height="29" xlink:href="img/164.jpg"/>
<image clip-path="url(#c4k_5)" preserveAspectRatio="none" x="571" y="1060" width="5" height="5" xlink:href="img/165.jpg"/>
<g clip-path="url(#c4l_5)">
<path d="M-10,-.8H-32.9m950.6,0h22.9M-10,1285.3H-32.9m950.6,0h22.9M-.8,-10V-32.9m0,1327.4v22.9M908.5,-10V-32.9m0,1327.4v22.9" class="g5_5"/>
<path d="M-10,-.8H-32.9m950.6,0h22.9M-10,1285.3H-32.9m950.6,0h22.9M-.8,-10V-32.9m0,1327.4v22.9M908.5,-10V-32.9m0,1327.4v22.9" class="g6_5"/>
</g>
</svg>