<?xml version="1.0" encoding="UTF-8" standalone="no"?>
<!DOCTYPE svg PUBLIC "-//W3C//DTD SVG 1.1//EN"
"http://www.w3.org/Graphics/SVG/1.1/DTD/svg11.dtd">
<svg viewBox="0 0 907 1284" version="1.1" xmlns="http://www.w3.org/2000/svg" xmlns:xlink="http://www.w3.org/1999/xlink">
<defs>
<clipPath id="c0_5"><path d="M866.3,1242V951.8H42.3V1242Zm-.5,-506.7V57H41.8V735.3ZM0,1284.4V0H907.6V1284.4Z"/></clipPath>
<clipPath id="c1_5"><path d="M907.6,0V0h.1Z"/></clipPath>
<clipPath id="c2_5"><path d="M43,110.3V58.1H864.7v52.2H821.8V77.9H85.8v32.4Z"/></clipPath>
<clipPath id="c3_5"><path d="M43,734.2V109.6H85.8V513H98.1V734.2Z"/></clipPath>
<clipPath id="c4_5"><path d="M809.8,734.2V513h12V109.6h42.9V734.2Z"/></clipPath>
<clipPath id="c5_5"><path d="M97.4,734.2V513H591.3V734.2Z"/></clipPath>
<clipPath id="c6_5"><path d="M590.6,734.2V513h220V734.2Z"/></clipPath>
<clipPath id="c7_5"><path d="M43.5,1001.2V953H865.2v48.2H821.8V993H85.8v8.2Z"/></clipPath>
<clipPath id="c8_5"><path d="M810.3,1240.9v-20.7h11.5V1000.4h43.4v240.5Z"/></clipPath>
<clipPath id="c9_5"><path d="M43.5,1240.9V1000.4H85.8v219.8H98.6v20.7Z"/></clipPath>
<clipPath id="ca_5"><path d="M97.8,1240.9v-20.7H811v20.7Z"/></clipPath>
<clipPath id="cb_5"><path d="M327.2,1061.9v-24.5H156.4v24.5ZM85.8,1084V993h736v91H767.4v-4.6H748.3v-2.2h-52v2.2H685.4v-2.2H634.5v1.1H624v-2.1H604.5v-9.3H743.7v-43.6H601.1v13H552.4v-21.2H514.6v30.7H478.2v-30.7H437.9v30.7H394.7v20.5H516.8v-18.9h26.8V1084H344v-9.5H330.8l18.3,-13.4l3.7,5.1l12.5,-18.8h29.3v-30.8H363.8v28.1l-22.1,6.4l3.7,5.1l-20.6,15.1H320c-4.8,-3.6,-10.5,-5.9,-16.9,-6.5c-.9,0,-1.9,-.1,-2.9,-.1c-7.2,0,-14.1,2.4,-19.6,6.6h-6.5v.4H261.8v-3.3h-52V1084Z"/></clipPath>
<clipPath id="cc_5"><path d="M716.4,1220.2v-20h14v-52.3h37v-64.6h54.4v136.9Z"/></clipPath>
<clipPath id="cd_5"><path d="M295.5,1220.2v-20.9H357v-49.2H579.8v-2.9h8.4v33.1h2.1V1199h21.6v21.2ZM344,1132.6v-49.3H543.6v15H572v9.3H355.4v25Z"/></clipPath>
<clipPath id="ce_5"><path d="M85.8,1220.2V1083.3h124v7h-2.1V1087h-52v52h3.2v18h62v24.4h3.2v17.9h19.3v20.9Z"/></clipPath>
<clipPath id="cf_5"><path d="M611.2,1220.2V1199h48.1v-52.2h.4v34.5h2.1v18.9h2.5v20Z"/></clipPath>
<clipPath id="cg_5"><path d="M663.6,1220.2v-20h53.5v20Z"/></clipPath>
<clipPath id="ch_5"><path d="M242.7,1220.2v-20.9h53.5v20.9Z"/></clipPath>
<clipPath id="ci_5"><path d="M272.9,1132.6v-3.2H225.6v-9h36.2v-48.7h12.3v6.2c-3.5,4.7,-5.8,10.4,-6.4,16.7c-.7,8.3,1.7,16.2,6.4,22.4v6.3h3.2v9.3Z"/></clipPath>
<clipPath id="cj_5"><path d="M209.8,1090.3v-21.9h52v3.3H213v18.6Z"/></clipPath>
<clipPath id="ck_5"><path d="M225.6,1120.4v-30.1H213v-18.6h48.8v48.7Z"/></clipPath>
<clipPath id="cl_5"><path d="M158.9,1157v-18h48.8v-48.7h2.1v30.1H213v18h7.9V1157Z"/></clipPath>
<clipPath id="cm_5"><path d="M213,1138.4v-18h12.6v9h-4.7v9Z"/></clipPath>
<clipPath id="cn_5"><path d="M209.8,1120.4v-30.1H213v30.1Z"/></clipPath>
<clipPath id="co_5"><path d="M213,1120.4v-30.1h12.6v30.1Z"/></clipPath>
<clipPath id="cp_5"><path d="M155.7,1139v-52h52v3.3H158.9V1139Z"/></clipPath>
<clipPath id="cq_5"><path d="M158.9,1139v-48.7h48.8V1139Z"/></clipPath>
<clipPath id="cr_5"><path d="M224.1,1199.3v-17.9h48.8v-43h4.4v2.8h9.8v40.2h3.2v17.9Z"/></clipPath>
<clipPath id="cs_5"><path d="M272.9,1138.4v-5.8h4.4v5.8Z"/></clipPath>
<clipPath id="ct_5"><path d="M225.6,1132.6v-3.2h47.3v3.2Z"/></clipPath>
<clipPath id="cu_5"><path d="M220.9,1181.4V1157h3.2v24.4Z"/></clipPath>
<clipPath id="cv_5"><path d="M220.9,1157v-18.6h3.2V1157Z"/></clipPath>
<clipPath id="cw_5"><path d="M220.9,1138.4v-9h4.7v3.2h-1.5v5.8Z"/></clipPath>
<clipPath id="cx_5"><path d="M224.1,1181.4V1157h1.5v-18.6h47.3v43Z"/></clipPath>
<clipPath id="cy_5"><path d="M225.6,1138.4v-5.8h47.3v5.8Z"/></clipPath>
<clipPath id="cz_5"><path d="M224.1,1157v-18.6h1.5V1157Z"/></clipPath>
<clipPath id="c10_5"><path d="M224.1,1138.4v-5.8h1.5v5.8Z"/></clipPath>
<clipPath id="c11_5"><path d="M290.9,1199.3v-17.9H339v-40.2h5v-8.6h11.4v17.5H357v49.2Z"/></clipPath>
<clipPath id="c12_5"><path d="M290.3,1199.3v-17.9h.6v17.9Z"/></clipPath>
<clipPath id="c13_5"><path d="M287.1,1181.4v-40.2h3.2v40.2Z"/></clipPath>
<clipPath id="c14_5"><path d="M290.9,1181.4v-40.2H339v40.2Z"/></clipPath>
<clipPath id="c15_5"><path d="M290.3,1181.4v-40.2h.6v40.2Z"/></clipPath>
<clipPath id="c16_5"><path d="M590.3,1199v-18.7h49.9v-33.1H643v-.4h16.3V1199Z"/></clipPath>
<clipPath id="c17_5"><path d="M588.2,1180.3v-33.1h2.1v33.1Z"/></clipPath>
<clipPath id="c18_5"><path d="M590.3,1180.3v-33.1h49.9v33.1Z"/></clipPath>
<clipPath id="c19_5"><path d="M661.8,1200.2v-18.9h49.9v-33.4h18.7v52.3Z"/></clipPath>
<clipPath id="c1a_5"><path d="M659.7,1181.3v-34.5h2.1v34.5Z"/></clipPath>
<clipPath id="c1b_5"><path d="M661.8,1181.3v-34.5h36.6v1.1h13.3v33.4Z"/></clipPath>
<clipPath id="c1c_5"><path d="M659.3,1146.8v-16.4H643v-2.3h42.4v-48.7h10.9v49.8h2.1v.3H659.7v17.3Z"/></clipPath>
<clipPath id="c1d_5"><path d="M643,1146.8v-16.4h16.3v16.4Z"/></clipPath>
<clipPath id="c1e_5"><path d="M659.7,1146.8v-17.3h38.7v2.1H661.8v15.2Z"/></clipPath>
<clipPath id="c1f_5"><path d="M661.8,1146.8v-15.2h36.6v15.2Z"/></clipPath>
<clipPath id="c1g_5"><path d="M643,1079.4v-1.1h-8.5v-1.1h50.9v2.2Z"/></clipPath>
<clipPath id="c1h_5"><path d="M643,1128.1v-48.7h42.4v48.7Z"/></clipPath>
<clipPath id="c1i_5"><path d="M579.8,1147.2v-18.9h8.4v18.9ZM624,1128.3v-50h10.5v49.8h2.1v.2Z"/></clipPath>
<clipPath id="c1j_5"><path d="M640.2,1147.2v-.4H643v.4Z"/></clipPath>
<clipPath id="c1k_5"><path d="M588.2,1147.2v-18.9h48.4v2.1H590.3v16.8Z"/></clipPath>
<clipPath id="c1l_5"><path d="M590.3,1147.2v-16.8h46.3v16.4h3.6v.4Z"/></clipPath>
<clipPath id="c1m_5"><path d="M640.2,1130.4v-2.1h-3.6v-.2H643v2.3Z"/></clipPath>
<clipPath id="c1n_5"><path d="M640.2,1146.8v-16.4H643v16.4Z"/></clipPath>
<clipPath id="c1o_5"><path d="M636.6,1130.4v-2.1h3.6v2.1Z"/></clipPath>
<clipPath id="c1p_5"><path d="M636.6,1146.8v-16.4h3.6v16.4Z"/></clipPath>
<clipPath id="c1q_5"><path d="M634.5,1128.1v-49.8H643v1.1h-6.4v48.7Z"/></clipPath>
<clipPath id="c1r_5"><path d="M636.6,1128.1v-48.7H643v48.7Z"/></clipPath>
<clipPath id="c1s_5"><path d="M572,1107.6v-9.3h2.1v9.3Zm32.5,-29.3v-2.1H624v2.1Z"/></clipPath>
<clipPath id="c1t_5"><path d="M579.8,1128.3v-20.7h-5.7v-9.3h30.4v-20H624v50Z"/></clipPath>
<clipPath id="c1u_5"><path d="M730.4,1147.9v-16.3H711.7v-2.1h-7.2v-.3h43.8v-49.8h19.1v68.5Z"/></clipPath>
<clipPath id="c1v_5"><path d="M711.7,1147.9v-16.3h18.7v16.3Z"/></clipPath>
<clipPath id="c1w_5"><path d="M704.5,1131.6v-2.1h7.2v2.1Z"/></clipPath>
<clipPath id="c1x_5"><path d="M698.4,1147.9v-1.1h6.1v-15.2h7.2v16.3Z"/></clipPath>
<clipPath id="c1y_5"><path d="M698.4,1129.5v-.3h6.1v.3Z"/></clipPath>
<clipPath id="c1z_5"><path d="M698.4,1131.6v-2.1h6.1v2.1Z"/></clipPath>
<clipPath id="c20_5"><path d="M698.4,1146.8v-15.2h6.1v15.2Z"/></clipPath>
<clipPath id="c21_5"><path d="M696.3,1079.4v-2.2h52v2.2Z"/></clipPath>
<clipPath id="c22_5"><path d="M696.3,1129.2v-49.8h2.1v49.8Z"/></clipPath>
<clipPath id="c23_5"><path d="M704.5,1129.2v-49.8h43.8v49.8Z"/></clipPath>
<clipPath id="c24_5"><path d="M698.4,1129.2v-49.8h6.1v49.8Z"/></clipPath>
<clipPath id="c25_5"><path d="M357,1150.1v-17.5h-1.6v-25H572v20.7h2.1v18.9h5.7v2.9Z"/></clipPath>
<clipPath id="c26_5"><path d="M355.4,1150.1v-17.5H357v17.5Z"/></clipPath>
<clipPath id="c27_5"><path d="M574.1,1147.2v-18.9h5.7v18.9Z"/></clipPath>
<clipPath id="c28_5"><path d="M572,1128.3v-20.7h2.1v20.7Z"/></clipPath>
<clipPath id="c29_5"><path d="M574.1,1128.3v-20.7h5.7v20.7Z"/></clipPath>
<clipPath id="c2a_5"><path d="M261.7,235.2V168.5H243.8v-3.2h-52v51.9H195v18ZM85.8,513V77.9H296.1v49.9h-32v78.3c-1.1,2.9,-1.9,6,-2.2,9.3c-.4,5.2,.4,10.3,2.2,14.9v39.8h32V513Z"/></clipPath>
<clipPath id="c2b_5"><path d="M527.4,132.3v-4.5H498.9V87.9H479.8V85.8H428.9v42h-5.1v-41H405.1V84.7h-52v43.1H295.4V77.9H821.8v54.4H641.2v-4.8H543.6v4.8Z"/></clipPath>
<clipPath id="c2c_5"><path d="M506.2,513V270.1h21.2V131.6h16.2v87.9h15.8V513Z"/></clipPath>
<clipPath id="c2d_5"><path d="M784.7,271.9V203.3H765.6v-2.1h-52v52h2.2v18.7ZM611.5,513V219.5h29.7V131.6H821.8V513Z"/></clipPath>
<clipPath id="c2e_5"><path d="M558.7,513V219.5h53.5V513Z"/></clipPath>
<clipPath id="c2f_5"><path d="M295.4,513V270.1H507V513Z"/></clipPath>
<clipPath id="c2g_5"><path d="M188.7,495.3V368.6h84.4V495.3Z"/></clipPath>
<clipPath id="c2h_5"><path d="M273.1,495.3V368.6h84.5V495.3Z"/></clipPath>
<clipPath id="c2i_5"><path d="M354.3,495.3V368.6h84.5V495.3Z"/></clipPath>
<clipPath id="c2j_5"><path d="M104.2,495.3V368.6h84.5V495.3Z"/></clipPath>
<clipPath id="c2k_5"><path d="M440.9,495.3V368.6h84.5V495.3Z"/></clipPath>
<clipPath id="c2l_5"><path d="M195,235.2v-18h48.8V168.5h17.9v66.7Z"/></clipPath>
<clipPath id="c2m_5"><path d="M191.8,217.2V165.3h52v3.2H195v48.7Z"/></clipPath>
<clipPath id="c2n_5"><path d="M195,217.2V168.5h48.8v48.7Z"/></clipPath>
<clipPath id="c2o_5"><path d="M715.8,271.9V253.2h49.8V203.3h19.1v68.6Z"/></clipPath>
<clipPath id="c2p_5"><path d="M713.6,253.2v-52h52v2.1H715.8v49.9Z"/></clipPath>
<clipPath id="c2q_5"><path d="M715.8,253.2V203.3h49.8v49.9Z"/></clipPath>
<clipPath id="c2r_5"><path d="M479.8,127.8V87.9h19.1v39.9Z"/></clipPath>
<clipPath id="c2s_5"><path d="M428.9,127.8v-42h50.9v2.1H431v39.9Z"/></clipPath>
<clipPath id="c2t_5"><path d="M431,127.8V87.9h48.8v39.9Z"/></clipPath>
<clipPath id="c2u_5"><path d="M405.1,127.8v-41h18.7v41Z"/></clipPath>
<clipPath id="c2v_5"><path d="M353.1,127.8V84.7h52v2.1H355.2v41Z"/></clipPath>
<clipPath id="c2w_5"><path d="M355.2,127.8v-41h49.9v41Z"/></clipPath>
<clipPath id="c2x_5"><path d="M543.6,219.5v-92h97.6v92Z"/></clipPath>
<clipPath id="c2y_5"><path d="M264.1,206.1V127.8h89v8.7h2.1v18.9h68.6V127.8h5.1v8.9H431v18.4l-91.3,38.6v-.4H320.6v-2.1h-7.7c-4.5,-3.1,-9.8,-5.1,-15.6,-5.6c-.9,-.1,-1.9,-.1,-2.8,-.1c-6.8,0,-13.1,2.1,-18.4,5.7h-7.4v6.9c-1.9,2.4,-3.4,5.1,-4.6,8Zm0,64V230.3c1.2,2.9,2.7,5.5,4.6,8v5h2.1v18.9h68.9V200.3L446,155.4h52.9V127.8h28.5V270.1Z"/></clipPath>
<clipPath id="c2z_5"><path d="M431,155.1V136.7h43.6L431,155.1Zm15,.3L496.7,134l-2.3,-5.7l-14.6,6.2v-6.7h19.1v27.6Z"/></clipPath>
<clipPath id="c30_5"><path d="M428.9,136.7v-8.9H431v8.9Z"/></clipPath>
<clipPath id="c31_5"><path d="M431,136.7v-8.9h48.8v6.7l-5.2,2.2Z"/></clipPath>
<clipPath id="c32_5"><path d="M355.2,155.4V136.5h49.9v-8.7h18.7v27.6Z"/></clipPath>
<clipPath id="c33_5"><path d="M353.1,136.5v-8.7h2.1v8.7Z"/></clipPath>
<clipPath id="c34_5"><path d="M355.2,136.5v-8.7h49.9v8.7Z"/></clipPath>
<clipPath id="c35_5"><path d="M270.8,262.2V243.3h2.8c4.9,4.2,11.1,6.9,18,7.5c1,.1,2,.1,2.9,.1c7.9,0,15.2,-2.8,20.9,-7.6h5.2v-5.5c3.6,-4.7,5.9,-10.4,6.5,-16.7c.4,-5.2,-.3,-10.1,-2.1,-14.6l14.7,-6.2v61.9ZM322.3,201c-.5,-.8,-1.1,-1.6,-1.7,-2.4v-5.3h19.1v.4L322.3,201Z"/></clipPath>
<clipPath id="c36_5"><path d="M325,206.5c-.7,-1.9,-1.6,-3.8,-2.7,-5.5l17.4,-7.3v6.6L325,206.5Z"/></clipPath>
<clipPath id="c37_5"><path d="M294.5,250.9c-.9,0,-1.9,0,-2.9,-.1c-6.9,-.6,-13.1,-3.3,-18,-7.5h41.8c-5.7,4.8,-13,7.6,-20.9,7.6Zm26.1,-13.1V198.6c.6,.8,1.2,1.6,1.7,2.4c1.1,1.7,2,3.6,2.7,5.5c1.8,4.5,2.5,9.4,2.1,14.6c-.6,6.3,-2.9,12,-6.5,16.7Z"/></clipPath>
<clipPath id="c38_5"><path d="M268.7,243.3v-5c.6,.8,1.3,1.6,2.1,2.4v2.6Zm0,-45.2v-6.9h7.4c-1,.6,-1.9,1.3,-2.8,2.1h-2.5v2.4c-.8,.8,-1.5,1.6,-2.1,2.4Zm47,-4.8c-.9,-.8,-1.8,-1.5,-2.8,-2.1h7.7v2.1Z"/></clipPath>
<clipPath id="c39_5"><path d="M270.8,240.7c-.8,-.8,-1.5,-1.6,-2.1,-2.4V198.1c.6,-.8,1.3,-1.6,2.1,-2.4v45Zm2.5,-47.4c.9,-.8,1.8,-1.5,2.8,-2.1h36.8c1,.6,1.9,1.3,2.8,2.1Z"/></clipPath>
<clipPath id="c3a_5"><path d="M270.8,243.3v-2.6c.9,.9,1.8,1.8,2.8,2.6Zm44.6,0c2,-1.6,3.7,-3.4,5.2,-5.5v5.5ZM270.8,195.7v-2.4h2.5c-.9,.7,-1.7,1.5,-2.5,2.4Zm49.8,2.9c-1.4,-2,-3.1,-3.7,-4.9,-5.3h4.9v5.3Z"/></clipPath>
<clipPath id="c3b_5"><path d="M273.6,243.3c-1,-.8,-1.9,-1.7,-2.8,-2.6v-45c.8,-.9,1.6,-1.7,2.5,-2.4h42.4c1.8,1.6,3.5,3.3,4.9,5.3v39.2c-1.5,2.1,-3.2,3.9,-5.2,5.5Z"/></clipPath>
<clipPath id="c3c_5"><path d="M279.8,1132.6v-9.3h.4c3.8,2.9,8.3,5.1,13.2,6.1h-6.3v3.2Zm59.2,0v-3.2H307.2c4.8,-1,9.3,-3.2,13.1,-6.1h5.8v-5.7c3.7,-4.9,6.2,-10.8,6.8,-17.3c.7,-8.4,-1.8,-16.3,-6.5,-22.6l4.4,-3.2H344v58.1Z"/></clipPath>
<clipPath id="c3d_5"><path d="M277.3,1132.6v-9.3h2.5v9.3Z"/></clipPath>
<clipPath id="c3e_5"><path d="M277.3,1141.2v-2.8h2.5v-5.8h7.3v8.6Z"/></clipPath>
<clipPath id="c3f_5"><path d="M277.3,1138.4v-5.8h2.5v5.8Z"/></clipPath>
<clipPath id="c3g_5"><path d="M339,1141.2v-8.6h5v8.6Z"/></clipPath>
<clipPath id="c3h_5"><path d="M287.1,1132.6v-3.2h6.3c1.3,.3,2.7,.5,4,.6c1,.1,2,.1,2.9,.1c2.4,0,4.6,-.2,6.9,-.7H339v3.2Z"/></clipPath>
<clipPath id="c3i_5"><path d="M287.1,1141.2v-8.6h3.2v8.6Z"/></clipPath>
<clipPath id="c3j_5"><path d="M290.9,1141.2v-8.6H339v8.6Z"/></clipPath>
<clipPath id="c3k_5"><path d="M290.3,1141.2v-8.6h.6v8.6Z"/></clipPath>
<clipPath id="c3l_5"><path d="M326.4,1077.7c-.1,-.1,-.2,-.3,-.3,-.4v-2.8h4.7l-4.4,3.2Z"/></clipPath>
<clipPath id="c3m_5"><path d="M300.3,1130.1c-.9,0,-1.9,0,-2.9,-.1c-1.3,-.1,-2.7,-.3,-4,-.6c-4.9,-1,-9.4,-3.2,-13.2,-6.1h40.1c-3.8,2.9,-8.3,5.1,-13.1,6.1c-2.3,.5,-4.5,.7,-6.9,.7Zm25.8,-12.5v-40.3c.1,.1,.2,.3,.3,.4c4.7,6.3,7.2,14.2,6.5,22.6c-.6,6.5,-3.1,12.4,-6.8,17.3Z"/></clipPath>
<clipPath id="c3n_5"><path d="M322.2,1073.2c-.7,-.7,-1.5,-1.3,-2.2,-1.9h4.8l-2.6,1.9Z"/></clipPath>
<clipPath id="c3o_5"><path d="M323.6,1074.5c-.4,-.4,-.9,-.9,-1.4,-1.3l2.6,-1.9h1.3v3.2Z"/></clipPath>
<clipPath id="c3p_5"><path d="M279.8,1072v-.3h-5.7v-.4h6.5c-.3,.2,-.5,.4,-.8,.7Z"/></clipPath>
<clipPath id="c3q_5"><path d="M274.1,1123.3V1117c1,1.3,2,2.5,3.2,3.7v2.6Zm0,-45.4v-6.2h5.7v.3c-2.2,1.7,-4.1,3.7,-5.7,5.9Z"/></clipPath>
<clipPath id="c3r_5"><path d="M277.3,1120.7c-1.2,-1.2,-2.2,-2.4,-3.2,-3.7v-39.1c1.6,-2.2,3.5,-4.2,5.7,-5.9c.3,-.3,.5,-.5,.8,-.7H320c.7,.6,1.5,1.2,2.2,1.9c.5,.4,1,.9,1.4,1.3H277.3v46.2Z"/></clipPath>
<clipPath id="c3s_5"><path d="M326.1,1077.3c-.8,-1,-1.6,-1.9,-2.5,-2.8h2.5v2.8Z"/></clipPath>
<clipPath id="c3t_5"><path d="M279.8,1123.3v-.4c.1,.1,.3,.2,.4,.4Zm40.5,0c2.2,-1.7,4.1,-3.6,5.8,-5.7v5.7Z"/></clipPath>
<clipPath id="c3u_5"><path d="M277.3,1123.3v-2.6c.8,.7,1.6,1.5,2.5,2.2v.4Z"/></clipPath>
<clipPath id="c3v_5"><path d="M280.2,1123.3c-.1,-.2,-.3,-.3,-.4,-.4c-.9,-.7,-1.7,-1.5,-2.5,-2.2v-46.2h46.3c.9,.9,1.7,1.8,2.5,2.8v40.3c-1.7,2.1,-3.6,4,-5.8,5.7Z"/></clipPath>
<clipPath id="c3w_5"><path d="M543.6,1098.3v-50.9h6.7l28.1,28.8H572v22.1Zm43.3,-22.1l-34.5,-35.5v-4.4h48.7v30.6h3.4v9.3Z"/></clipPath>
<clipPath id="c3x_5"><path d="M572,1098.3v-22.1h6.4l2,2.1h-6.3v20Zm16.8,-20l.1,-.1l-2,-2h17.6v2.1Z"/></clipPath>
<clipPath id="c3y_5"><path d="M574.1,1098.3v-20h6.3l4.1,4.2l4.3,-4.2h15.7v20Z"/></clipPath>
<clipPath id="c3z_5"><path d="M156.4,1061.9v-24.5H327.2v24.5Z"/></clipPath>
<clipPath id="c40_5"><path d="M394.7,1066.3v-20.5h43.2v1.6h11.4l-.1,.2H425.4l.3,-.7l-1.2,.1c-1.1,0,-1.8,.1,-2.3,.1h-.6v.5H396.4v11.2c-.3,.6,-.5,1.3,-.8,2l-.4,1.1l1.2,-.1c.8,0,1.5,-.1,2,-.1h5.5l.2,.1l2.6,-.1h2.8c.5,.2,1.2,.3,1.8,.3h.1c.7,0,1.4,-.1,2,-.3h3.7c.5,.1,1,.2,1.7,.2c.4,0,.9,-.1,1.4,-.2h.5v.2l.8,-.1c.7,0,1.4,-.1,2.2,-.1h3.4l.3,.3l.4,-.1c1.2,-.1,2,-.2,2.2,-.2h5.1c.5,.2,1,.3,1.6,.3h.1c.5,0,1,-.1,1.6,-.3h1.2c.3,.1,.7,.2,1.1,.2l.6,.1l.1,-.3h3.4c.5,.1,1,.2,1.6,.2c.5,0,1,-.1,1.5,-.2h.5l-.1,.2l.9,-.1c.7,0,1.4,-.1,2.2,-.1h3.9c.6,.2,1.3,.3,2,.3h.1c.7,0,1.4,-.1,2,-.3h2.9v.2l.8,-.1c.7,-.1,1.4,-.1,2,-.1h3.1l.2,.1h.4c.5,-.1,1.2,-.1,1.9,-.1h7.4c.7,.2,1.5,.3,2.3,.3h.1c.8,0,1.5,-.1,2.2,-.3h3.4v.2l.8,-.1c.9,0,1.6,-.1,2.2,-.1h3.4c.6,.2,1.2,.3,2,.3h.1c.7,0,1.4,-.1,2,-.3h5.3c.5,.1,1,.2,1.7,.2c.4,0,.8,0,1.2,-.2l.2,.3l.3,.1c.6,.2,1.2,.3,1.8,.3c1.4,0,2.6,-.2,3.5,-.7h1.6v-1.4c.5,-.6,.8,-1.4,.8,-2.1v-.1c-.1,-.9,-.3,-1.6,-.8,-2.2v-.9l.1,-1.1c.1,-.8,.2,-1.4,.2,-1.7v-.3l-.2,-.4l-.1,-.1v-3.8H489.8v-1l-.9,.2c-.9,.2,-1.6,.4,-2.2,.5l-.7,.2v.1H453.1l.1,-.2h25v-1.6h36.4v1.6h2.2v18.9Z"/></clipPath>
<clipPath id="c41_5"><path d="M404.1,1061.8l-.2,-.1h2.9h-.1l-2.6,.1Zm7.2,.2c-.6,0,-1.3,-.1,-1.8,-.3h3.9c-.6,.2,-1.3,.3,-2,.3Zm7.5,-.1c-.7,0,-1.2,-.1,-1.7,-.2h3.3h-.2c-.5,.1,-1,.2,-1.4,.2Zm1.9,0v-.2h3.8h-.8c-.8,0,-1.5,.1,-2.2,.1l-.8,.1Zm6.7,.1l-.3,-.3h3.2H430c-.2,0,-1,.1,-2.2,.2l-.4,.1Zm9.3,0c-.6,0,-1.1,-.1,-1.6,-.3h3.3c-.6,.2,-1.1,.3,-1.6,.3Zm4.6,0l-.6,-.1c-.4,0,-.8,-.1,-1.1,-.2h1.8l-.1,.3Zm5.1,-.1c-.6,0,-1.1,-.1,-1.6,-.2h3.3h-.2c-.5,.1,-1,.2,-1.5,.2Zm1.9,0l.1,-.2h3.7h-.7c-.8,0,-1.5,.1,-2.2,.1l-.9,.1Zm9.1,.1q-.1,0,-.1,0c-.7,0,-1.4,-.1,-2,-.3h4.1c-.6,.2,-1.3,.3,-2,.3Zm4.9,-.1v-.2h3.1h-.3c-.6,0,-1.3,0,-2,.1l-.8,.1Zm6.1,-.1l-.2,-.1H471h-.3c-.7,0,-1.4,0,-1.9,.1h-.4Zm12,.2c-.8,0,-1.6,-.1,-2.3,-.3h4.6c-.7,.2,-1.4,.3,-2.2,.3Zm5.7,-.1v-.2h3.7h-.7c-.6,0,-1.3,.1,-2.2,.1l-.8,.1Zm8.5,.1q-.1,0,-.1,0c-.8,0,-1.4,-.1,-2,-.3h4.1c-.6,.2,-1.3,.3,-2,.3Zm12.5,.4c-.6,0,-1.2,-.1,-1.8,-.3l-.3,-.1l-.2,-.3c-.4,.2,-.8,.2,-1.2,.2c-.7,0,-1.2,-.1,-1.7,-.2h8.7c-.9,.5,-2.1,.7,-3.5,.7Zm-111.9,-.5l.4,-1.1c.3,-.7,.5,-1.4,.8,-2v2.9h2.4h-.4c-.5,0,-1.2,.1,-2,.1l-1.2,.1Zm117,-1.6v-4.4c.5,.6,.7,1.3,.8,2.2v.1c0,.7,-.3,1.5,-.8,2.1Zm0,-5.3v0v-3.6l.1,.1l.2,.4v.3c0,.3,-.1,.9,-.2,1.7l-.1,1.1Zm-63,-7.4l.1,-.2h3.9l-.1,.2Zm-27.6,0v-.5h.6c.5,0,1.2,-.1,2.3,-.1l1.2,-.1l-.3,.7Zm64.4,0v-.1l.7,-.2c.6,-.1,1.3,-.3,2.2,-.5l.9,-.2v1Z"/></clipPath>
<clipPath id="c42_5"><path d="M420.4,1061.7l.3,-.1v.1Zm27.7,0l.3,-.1v.1Zm-9.7,0c.2,-.1,.4,-.2,.6,-.4c.1,.1,.3,.2,.4,.3q.1,0,.2,.1Zm72.2,0c.4,-.2,.7,-.5,1,-.7c.2,-.2,.4,-.5,.6,-.7v1.4Zm-103.8,0l.4,-.5l.3,-.3l-.1,-.4c-.2,-.5,-.3,-.9,-.5,-1.4c.2,.4,.5,.9,.8,1.2c.5,.6,1.1,1.1,1.8,1.4Zm-8,0l.4,-.4l.1,-.2l.1,-.1c.2,-.8,.5,-1.8,.8,-2.9c.9,0,1.8,0,2.6,0c.3,1.3,.6,2.3,.7,2.9l.1,.2l.3,.4v.1Zm91,0v-1.3c-.1,-.9,-.1,-1.8,-.1,-2.8c.2,1.2,.6,2.2,1.3,3c.4,.5,.9,.8,1.5,1.1Zm-59.5,0l.4,-.4l.1,-.1v-.2c.6,-1.7,1.1,-3.4,1.7,-5.1c-.1,.3,-.1,.6,-.1,.9v.3c0,1.3,.4,2.5,1.2,3.4c.4,.5,.9,.9,1.5,1.2Zm66.3,0c.7,-.3,1.3,-.8,1.8,-1.4c.8,-1,1.1,-2.4,1.1,-3.9v-.3c0,-.7,-.1,-1.4,-.3,-2h.9v4.8c0,.9,.3,1.8,1,2.3c.2,.2,.5,.3,.8,.5Zm-59.5,-2.9c-.4,0,-.5,-.1,-.7,-.4c-.2,-.3,-.4,-.7,-.4,-1.4v-.2c0,-1,.2,-1.6,.6,-2.1c.3,-.4,.7,-.6,1.4,-.6h.1c0,.7,-.1,2.2,-.1,4.4c-.3,.2,-.6,.3,-.9,.3Zm67.9,.4h-.1c-.6,0,-1.1,-.2,-1.1,-.2q-.1,-.1,-.1,-.4c0,-.3,0,-.6,0,-.9c0,-.9,0,-2.1,0,-3.6h1.4c0,.2,0,.3,0,.5v.1c0,1.1,.5,2.1,1.4,2.6h.1c.2,.2,.8,.4,2,.8c.6,.3,.6,.4,.6,.4q0,.2,-.4,.4c-.3,.2,-.7,.3,-1.1,.3c-.2,0,-.5,0,-.8,-.1c-.4,-.1,-.7,-.2,-1,-.3l-.8,-.2l-.1,.6Zm-39.6,2.5l.4,-.4l.3,-.3l-.1,-.3c0,-1,0,-2.1,0,-3.3c0,-.9,0,-1.9,0,-2.9c.5,-.3,.9,-.4,1.3,-.4q.2,0,.3,.2c.2,.2,.3,.5,.3,1c0,.7,0,1.6,-.1,2.7c0,1.4,0,2.3,0,2.8v.3l.3,.4l.1,.2Zm-52,0c.4,-.2,.8,-.4,1.1,-.7l.2,-.2l.1,-.3c0,-.4,0,-1.1,.1,-2.1l.1,-1.8l-1.4,1.2c-.8,.8,-1.5,1.1,-1.9,1.1c-.6,0,-.8,-.2,-1.1,-.6c-.3,-.4,-.5,-.9,-.5,-1.6c0,-.7,.2,-1.3,.6,-1.9c.4,-.5,.8,-.7,1.4,-.7c.4,0,.8,.1,1.2,.3l.3,.2l.8,-.3l.2,-.2h.7v4.8c0,.9,.3,1.8,1,2.3c.2,.2,.5,.3,.8,.5Zm98.8,-5.8c-.2,-.1,-.3,-.3,-.5,-.4h-.1c-.4,-.3,-1.1,-.6,-2.2,-.9c-.7,-.3,-.7,-.4,-.7,-.4l.2,-.1c.1,-.1,.4,-.1,.7,-.1c.4,0,.9,.1,1.6,.5l1,.5v.9Zm-54.9,3.2c-.4,0,-.6,-.1,-.8,-.5c-.2,-.4,-.4,-.9,-.4,-1.6c0,-.2,0,-.3,0,-.5c.1,-2.1,.5,-2.5,1.4,-2.6c.7,.1,1.1,.4,1.2,2.5v.3c-.1,2,-.4,2.3,-1.4,2.4Zm37.2,0c-.4,0,-.6,-.1,-.8,-.5c-.2,-.4,-.4,-.9,-.4,-1.6c0,-.2,0,-.3,0,-.5c.1,-2.1,.5,-2.5,1.4,-2.6c.7,.1,1.1,.4,1.2,2.5v.3c-.1,2,-.4,2.3,-1.4,2.4ZM401.2,1055l.4,-1.3l.4,1.3c-.3,0,-.6,0,-.8,0Zm62.7,5.2v0c0,-1.9,.1,-3.3,.1,-4.3c0,-.1,0,-.3,-.1,-.4c0,-.8,0,-1.6,0,-2.6c.2,.1,.4,.2,.8,.3l.3,.2l.3,-.2c-.2,.1,-.4,.2,-.5,.4l-.3,.2v.3c0,1.2,0,2.3,0,3.3c0,1,0,1.9,0,2.8c-.2,0,-.4,0,-.6,0Zm-39.4,1.5l-.1,-.8c0,-1,0,-2.1,0,-3.2c0,-1.5,0,-3.2,.1,-4.8c.7,2.2,1.4,4.9,2.3,8.2v.2l.3,.3v.1Zm31.7,-1.3v0c-.5,-.2,-.9,-.4,-1.3,-.8c-.5,-.6,-.9,-1.5,-.9,-2.7v-.3c0,-1.3,.3,-2.3,.8,-2.9c.4,-.5,.8,-.8,1.3,-.9c-.4,.2,-.7,.4,-.9,.8c-.5,.8,-.6,1.7,-.6,2.9c0,.2,0,.4,0,.5c0,.9,.2,1.7,.6,2.4c.2,.4,.6,.8,1,1Zm37.2,0v0c-.5,-.2,-.9,-.4,-1.3,-.8c-.5,-.6,-.9,-1.5,-.9,-2.7v-.3c0,-1.3,.3,-2.3,.8,-2.9c.4,-.5,.8,-.8,1.3,-.9c-.4,.2,-.7,.4,-.9,.8c-.5,.8,-.6,1.7,-.7,2.9c0,.2,0,.4,.1,.5c0,.9,.2,1.7,.6,2.4c.2,.4,.6,.8,1,1Zm-56.6,.1c-.9,0,-1.5,-.3,-2,-1c-.5,-.6,-.8,-1.4,-.9,-2.4v-.3c0,-1.4,.4,-2.4,1.2,-3.1c.5,-.5,1.2,-.8,2,-1c-.7,.2,-1.3,.5,-1.7,1.1c-.6,.8,-.9,1.8,-.9,3v.2c0,.9,.2,1.7,.6,2.3c.5,.6,1.2,1,2,1c.2,0,.4,0,.6,0c-.3,.1,-.6,.2,-.9,.2Zm-7.5,-.3l.5,-1.4c.4,-1.4,1,-3.4,1.8,-6.2c.1,0,.2,0,.4,0c-.9,2.5,-1.7,5,-2.5,7.6q-.1,0,-.2,0Zm10.8,0c-.2,-.1,-.5,-.3,-.7,-.4l-.3,-.2c0,-.1,.1,-.1,.2,-.2l.2,-.2v-.3c.1,-2.8,.1,-4.4,.1,-5c0,-.4,-.2,-.6,-.4,-.8c-.2,-.3,-.6,-.5,-.9,-.5H438c.1,0,.2,0,.3,0c.8,0,1.3,.1,1.4,.2c.3,.1,.4,.2,.4,.8v.2c0,.2,0,.7,0,1.3c0,1.1,0,1.7,0,2.1c0,1.4,0,2.4,0,3Zm55.8,.1v0c.3,-.2,.7,-.5,.9,-.8c.5,-.8,.6,-1.7,.6,-2.8v-.4c0,-1.7,-.6,-3.2,-1.8,-3.7c.7,.1,1.2,.4,1.6,.8h-.1c.6,.6,.9,1.5,.9,2.7v.3c0,1.3,-.3,2.3,-.8,2.9c-.4,.5,-.8,.8,-1.3,1Zm-37.2,0c.3,-.2,.7,-.5,.9,-.8c.5,-.8,.6,-1.7,.7,-2.8l-.1,-.4c0,-1.7,-.6,-3.2,-1.8,-3.7c.7,.1,1.2,.4,1.6,.8c.5,.6,.8,1.5,.8,2.7v.3c0,1.3,-.3,2.3,-.8,2.9c-.3,.5,-.8,.8,-1.3,1Zm-40.1,-7.7c.2,0,.4,0,.6,0Zm27.7,0c.1,0,.4,0,.6,0Zm57.1,0c.1,0,.4,0,.6,0Zm-75.2,7.7c-.8,-3,-1.5,-5.6,-2.2,-7.7c.3,0,.5,0,.7,0c.3,1,.8,3,1.6,6.1l.4,1.6c-.2,0,-.3,0,-.5,0Zm-16.8,.2c-1.2,0,-1.9,-.4,-2.5,-1.1c-.6,-.7,-.9,-1.5,-.9,-2.6c0,-1.2,.4,-2.2,1,-3c.8,-.9,1.7,-1.3,2.9,-1.3c.5,0,1,.1,1.4,.2c-.4,-.1,-.8,-.2,-1.1,-.2h-.1c-1.1,0,-2,.6,-2.6,1.4c-.6,.8,-.9,1.8,-.9,2.8c0,1,.2,1.8,.7,2.5c.5,.8,1.4,1.2,2.3,1.2q.1,0,.1,0c.5,0,1,-.2,1.6,-.4c-.5,.3,-1.1,.5,-1.9,.5Zm10.9,-.2v0c.1,-1.9,.1,-3.5,.1,-4.7c0,-1,0,-2,-.1,-3c.3,0,.5,-.1,.7,-.1c-.1,1.8,-.2,3.5,-.2,5.2c0,.9,0,1.7,.1,2.5c-.2,0,-.4,0,-.6,.1Zm27.7,0c.1,-1.9,.1,-3.5,.1,-4.7c0,-1,0,-2,-.1,-3c.3,0,.5,-.1,.7,-.1c-.1,1.8,-.2,3.5,-.2,5.2c0,.9,0,1.7,.1,2.5c-.2,0,-.4,0,-.6,.1Zm57.1,.6c-.3,0,-.5,0,-.9,-.1c0,-.1,.1,-.2,.1,-.3q.1,0,.2,.1c.5,.1,.8,.1,1.2,.1c.7,0,1.3,-.1,1.8,-.4h.1c.6,-.3,1.1,-1,1.1,-1.8c0,-.9,-.8,-1.5,-1.6,-1.8c-1,-.4,-1.7,-.6,-1.8,-.7c-.5,-.3,-.7,-.6,-.7,-1.3v-.1c0,-.8,.3,-1.2,1,-1.7c.4,-.2,.9,-.3,1.4,-.4c-.3,0,-.6,.1,-.8,.3h-.1c-.5,.2,-.9,.8,-.9,1.4c0,1,.8,1.6,1.7,1.8c1,.3,1.7,.6,1.9,.7c.4,.3,.6,.7,.6,1.4v.1c0,.5,-.2,1.1,-.9,1.7c-.6,.6,-1.8,1,-3.4,1Zm-37.8,-.7v0c0,-.5,0,-1.2,.1,-2.2c0,-1.1,0,-2,0,-2.7v-.1c0,-.6,-.1,-1.2,-.4,-1.7c-.3,-.5,-1,-1,-1.6,-1c0,0,-.1,0,-.1,0c-.1,0,-.2,.1,-.3,.1c.4,-.1,.7,-.1,1.1,-.1c1.3,.1,1.6,.4,1.8,2v.1c0,.2,0,.4,0,.7c0,.4,0,.9,0,1.5c0,1,-.1,1.8,-.1,2.3c.1,.3,.1,.7,.1,1.1c-.2,0,-.4,0,-.6,0Zm41.6,-7.5c-.4,-.2,-.9,-.3,-1.3,-.3c-.1,0,-.2,0,-.2,0c.1,0,.3,0,.5,0c.3,0,.7,.1,1,.2v.1Zm-90.1,6.6l-.7,-.1c-.6,0,-1.1,-.2,-1.1,-.2q-.1,-.1,-.1,-.4c0,-.3,0,-.6,0,-.9c0,-.9,0,-2.1,0,-3.6h1.8v-.7c0,-.5,.1,-.9,.1,-1.2c.1,1,.1,2.2,.1,3.4c0,1,0,2.2,-.1,3.7Zm27.7,0l-.7,-.1c-.6,0,-1.1,-.2,-1.2,-.2v-.1v.1q0,-.1,0,-.4c-.1,-.3,-.1,-.6,-.1,-.9c0,-.9,.1,-2.1,.1,-3.6h1.8v-.7c0,-.5,0,-.9,.1,-1.2c.1,1,.1,2.2,.1,3.4c0,1,0,2.2,-.1,3.7Zm-30.1,1.1c-1.3,-.2,-1.5,-.5,-1.5,-1.5v-6.3h-1h.4l.6,-.2v-2l.5,-.1c0,.4,0,.9,0,1.5v1.5c0,1.9,-.1,3.3,-.1,4.4c0,.3,0,.6,0,.9c0,.6,.3,1.3,.8,1.6c.1,.1,.2,.1,.3,.2Zm27.6,0c-1.2,-.2,-1.4,-.5,-1.5,-1.5v-6.3h-.9h.3l.6,-.2l.1,-2l.5,-.1c0,.4,-.1,.9,-.1,1.5v.8h.1v.7c-.1,1.9,-.1,3.3,-.1,4.4c0,.3,0,.6,0,.9c0,.6,.3,1.3,.8,1.6c.1,.1,.2,.1,.2,.2Zm57.1,0v0c-1.2,-.2,-1.4,-.5,-1.5,-1.5v-6.3h-.9h.3l.6,-.2l.1,-2l.5,-.1c0,.4,0,.9,0,1.5l-.1,.8h.1v.7c-.1,1.9,-.1,3.3,-.1,4.4c0,.3,0,.6,0,.9c0,.6,.3,1.3,.8,1.6c.1,.1,.2,.1,.2,.2Zm-105.6,-.2v0c.9,-2.5,1.4,-4.2,1.7,-5c.7,-2.1,1.3,-3.9,1.8,-5.6c.2,0,.3,0,.4,0l-2.4,7h1c-.1,0,-.3,0,-.4,0H399l-.1,.5c-.4,1.2,-.7,2.2,-.9,3.1c-.2,0,-.4,0,-.5,0Zm7.4,.1c-.2,-.8,-.4,-1.9,-.8,-3.2l-.1,-.6h-.6c-.1,0,-.2,0,-.3,0h.9l-.3,-.9l-1.7,-6c.3,-.1,.5,-.1,.7,-.1c.3,1.3,.8,3.1,1.5,5.5c.5,1.9,1,3.6,1.5,5.2l-.8,.1Zm75.5,.2c-.8,0,-1.6,-.2,-2.4,-.5c0,-.1,0,-.2,0,-.3c.8,.4,1.6,.7,2.3,.7h.1c.7,0,1.4,-.2,2,-.6c.7,-.5,1.1,-1.3,1.1,-2.1c0,-1.1,-.8,-2,-1.9,-2.5c-.8,-.4,-1.6,-.8,-2.5,-1.3c-.7,-.5,-1,-1.1,-1.1,-2c.1,-1,.4,-1.6,1.1,-2.1c.7,-.4,1.5,-.6,2.5,-.6c.6,0,1.3,.1,2.2,.3c0,.1,-.1,.2,-.1,.3c-.7,-.4,-1.4,-.6,-2.1,-.6c-.7,0,-1.4,.2,-1.9,.5c-.7,.4,-1.1,1.2,-1.1,1.9v.1c.1,1.1,.9,1.8,1.9,2.3c.9,.5,1.8,.9,2.6,1.3c.8,.5,1.1,1.1,1.1,1.9v.1c0,1.1,-.3,1.8,-1.1,2.4c-.7,.5,-1.5,.8,-2.7,.8Zm-57.6,-10.8c.1,-.3,.1,-.7,.2,-1.1c.1,0,.2,0,.4,0l-.4,1.1q-.1,0,-.2,0Zm27.7,0v0c0,-.3,.1,-.7,.1,-1.1c.2,0,.3,0,.5,0l-.4,1.1c-.1,0,-.2,0,-.2,0Zm37.2,10.6v0c0,-2.6,0,-4.6,0,-6.1c0,-2,0,-3.8,-.1,-5.5c.2,0,.4,-.1,.6,-.1c0,1.1,0,2.9,0,5.4c0,.7,0,1.4,0,2.1c0,1.5,0,2.9,0,4.1c-.1,0,-.3,0,-.5,.1Zm-91.3,-1.5v-11.2h25.2l-.1,.2c-.1,1.2,-.3,2.1,-.4,2.7l-.2,.8v-.3H420c-.4,0,-.8,0,-1.1,0c0,-.6,.1,-1.2,.1,-1.6l.2,-1.1l-3.8,.9v2l-.5,.1l-.6,.1c-.7,-.3,-1.5,-.4,-2.4,-.4c-1.6,0,-3,.6,-4,1.8c-.9,1.1,-1.4,2.5,-1.4,4c0,.4,0,.8,.1,1.2c-.3,-1.1,-.6,-2.3,-1,-3.4c-.7,-2.6,-1.2,-4.6,-1.5,-5.9l-.1,-.2l-.3,-.3l-.3,-.3l-.3,.1c-.8,0,-1.6,.1,-2.5,.1h-.3l-.4,.4l-.2,.1v.2c-.5,1.7,-1.2,3.7,-1.9,5.9c-.3,.7,-.7,2.1,-1.4,4.1Zm45,2.9l.2,-.7v-.2c0,-.3,0,-1.5,0,-3.6c0,-.4,0,-1,0,-2c0,-.7,0,-1.1,0,-1.4c0,-.1,0,-.2,0,-.3c0,-.8,-.4,-1.7,-1.1,-2.1c-.6,-.3,-1.3,-.3,-2.2,-.3h-.1c-1.6,0,-3.1,.5,-4.1,1.5c-.4,.3,-.6,.6,-.9,1c.2,-.5,.4,-1,.6,-1.5l.3,-1.1l-1.1,.1c-.6,0,-1.1,0,-1.5,0c-.1,0,-.2,0,-.4,0h-.2l-.4,.3l-.2,.2l-.1,.2c-.4,1.5,-.8,2.8,-1.1,3.9c-.6,-2.2,-.9,-3.5,-1,-4l-.1,-.3l-.4,-.3l-.3,-.2l-.3,.1c-.6,.1,-1.3,.1,-2.1,.2h-.4l-.3,-.1l-.3,-.2l.2,-.2l.2,-.1l1.1,-3h23.8v.2c-.1,1.2,-.3,2.1,-.4,2.7l-.2,.8h-.1l.1,-.3h-.9c-.4,0,-.8,0,-1.1,0c0,-.6,.1,-1.2,.1,-1.6l.2,-1.1l-3.8,.9l-.1,2l-.5,.1l-.5,.1l-.2,1.5h-.1v1.2H443v4.8c0,.9,.3,1.8,1,2.3c.2,.2,.5,.3,.8,.5Zm10.7,0v-.8c0,-1,-.1,-2.1,-.1,-3.2c0,-1.9,.1,-3.9,.2,-5.9l.1,-.5l-.5,-.2l-.2,-.2l.2,-.2l.1,-.1l1.2,-3H486l.1,.5c.1,1.9,.1,3.9,.1,6.1c0,1.6,0,3.9,-.1,6.8v.7h-3.4c.5,-.2,.9,-.5,1.3,-.8c1.2,-.8,1.8,-2.1,1.7,-3.6v-.1c0,-1.3,-.6,-2.5,-1.8,-3.2v-.1h-.1c-.8,-.4,-1.7,-.8,-2.6,-1.2c-.9,-.5,-1,-.8,-1,-1v-.1c0,-.3,0,-.4,.3,-.6c.3,-.1,.6,-.2,1.1,-.2c.5,0,1.3,.2,2.2,.7l.3,.2l.7,-.4l.4,-.2v-.4c0,-.5,.1,-1,.1,-1.5l.1,-.3l-.3,-.4l-.1,-.2l-.3,-.1c-1.1,-.4,-2.2,-.6,-3.1,-.6c-1.2,0,-2.3,.3,-3.3,.9c-1.1,.7,-1.8,2,-1.8,3.4v.1c0,1.3,.7,2.5,1.8,3.2v.1h.1c.8,.4,1.7,.8,2.6,1.2c.8,.5,.9,.8,.9,1.2c0,.4,-.1,.6,-.4,.8c-.2,.2,-.6,.3,-1.2,.3c-.6,0,-1.3,-.2,-2.2,-.8l-.3,-.3l-.8,.4l-.4,.1l-.1,.5c0,.6,-.1,1.2,-.1,1.7l-.1,.5l.5,.2c.4,.2,.8,.4,1.3,.6H471l.5,-.1l-.1,-.7c0,-.7,0,-1.3,0,-1.8c0,-.5,0,-1.3,0,-2.3c0,-.6,0,-1.1,0,-1.5c0,-.3,0,-.6,0,-.8c0,-1,-.2,-1.9,-.8,-2.6c-.6,-.7,-1.5,-.9,-2.5,-.9c-1.2,0,-2.3,.2,-3.2,.7c-.6,-.3,-1,-.4,-1.4,-.4c-.4,0,-.6,.2,-.8,.3l-.4,.2v.5c.1,1.2,.1,2.3,.1,3.2c0,.2,0,.3,0,.4c0,1.1,0,2.8,-.1,5.1v.7h-2.9c.7,-.3,1.3,-.8,1.8,-1.4c.8,-1,1.1,-2.4,1.1,-3.9v-.3c0,-1.5,-.4,-2.7,-1.2,-3.7c-.8,-.9,-2.1,-1.4,-3.4,-1.4h-.1c-1.6,0,-3,.6,-4,1.7c-.8,1,-1.2,2.3,-1.2,3.9v.3c.1,1.5,.5,2.8,1.4,3.7c.4,.5,.9,.8,1.5,1.1Zm37.6,-6.1c0,-.5,0,-1,0,-1.5v-.1c0,-3.4,.1,-5.6,.1,-6.4h22.4v3.8l-.1,-.1h-.2c-.6,-.3,-1.3,-.4,-2,-.4c-1.2,0,-2.2,.2,-3,.7c-.6,.3,-1.1,.7,-1.4,1.3c0,-.4,.1,-.7,.1,-1.1l.1,-.8h-.9c-.4,0,-.8,0,-1.1,0c0,-.6,.1,-1.2,.1,-1.6l.2,-1.1l-3.8,.9l-.1,2l-.5,.1l-.5,.1l-.2,1.5l-.1,.3c-.1,-.3,-.3,-.5,-.5,-.8c-.8,-.9,-2.1,-1.4,-3.4,-1.4h-.1c-1.6,0,-3,.6,-4,1.7c-.6,.8,-1,1.8,-1.1,2.9Z"/></clipPath>
<clipPath id="c43_5"><path d="M437.1,1058.8c.3,0,.6,-.1,.9,-.3c0,-2.2,.1,-3.7,.1,-4.4H438c-.7,0,-1.1,.2,-1.4,.6c-.4,.5,-.6,1.1,-.6,2.1v.2c0,.7,.2,1.1,.4,1.4c.2,.3,.3,.4,.7,.4Zm67.9,.4l.1,-.6l.8,.2c.3,.1,.6,.2,1,.3c.3,.1,.6,.1,.8,.1c.4,0,.8,-.1,1.1,-.3q.4,-.2,.4,-.4c0,0,0,-.1,-.6,-.4c-1.2,-.4,-1.8,-.6,-2,-.8h-.1c-.9,-.5,-1.4,-1.5,-1.4,-2.6v-.1c0,-.2,0,-.3,0,-.5h-1.4c0,1.5,0,2.7,0,3.6c0,.3,0,.6,0,.9q0,.3,.1,.4c0,0,.5,.2,1.1,.2h.1Zm-47.7,-.1c1,-.1,1.3,-.4,1.4,-2.4v-.3c-.1,-2.1,-.5,-2.4,-1.2,-2.5c-.9,.1,-1.3,.5,-1.4,2.6c0,.2,0,.3,0,.5c0,.7,.2,1.2,.4,1.6c.2,.4,.4,.5,.8,.5Zm37.2,0c1,-.1,1.3,-.4,1.4,-2.4v-.3c-.1,-2.1,-.5,-2.4,-1.2,-2.5c-.9,.1,-1.3,.5,-1.4,2.6c0,.2,0,.3,0,.5c0,.7,.2,1.2,.4,1.6c.2,.4,.4,.5,.8,.5ZM401.2,1055v0c.2,0,.5,0,.8,0l-.4,-1.3l-.4,1.3Zm62.7,5.2v0c.2,0,.4,0,.6,0c0,-.9,0,-1.8,0,-2.8c0,-1,0,-2.1,0,-3.3v-.3l.3,-.2c.1,-.2,.3,-.3,.5,-.4l-.3,.2l-.3,-.2c-.4,-.1,-.6,-.2,-.8,-.3c0,1,0,1.8,0,2.6c.1,.1,.1,.3,.1,.4c0,1,-.1,2.4,-.1,4.3Zm-7.7,.2c-.4,-.2,-.8,-.6,-1,-1c-.4,-.7,-.6,-1.5,-.6,-2.4c0,-.1,0,-.3,0,-.5c0,-1.2,.1,-2.1,.6,-2.9c.2,-.4,.5,-.6,.9,-.8c-.5,.1,-.9,.4,-1.3,.9c-.5,.6,-.8,1.6,-.8,2.9v.3c0,1.2,.4,2.1,.9,2.7c.4,.4,.8,.6,1.3,.8Zm37.2,0c-.4,-.2,-.8,-.6,-1,-1c-.4,-.7,-.6,-1.5,-.6,-2.4c-.1,-.1,-.1,-.3,-.1,-.5c.1,-1.2,.2,-2.1,.7,-2.9c.2,-.4,.5,-.6,.9,-.8c-.5,.1,-.9,.4,-1.3,.9c-.5,.6,-.8,1.6,-.8,2.9v.3c0,1.2,.4,2.1,.9,2.7c.4,.4,.8,.6,1.3,.8Zm-56.6,.1c.3,0,.6,-.1,.9,-.2c-.2,0,-.4,0,-.6,0c-.8,0,-1.5,-.4,-2,-1c-.4,-.6,-.6,-1.4,-.6,-2.3v-.2c0,-1.2,.3,-2.2,.9,-3c.4,-.6,1,-.9,1.7,-1.1c-.8,.2,-1.5,.5,-2,1c-.8,.7,-1.2,1.7,-1.2,3.1v.3c.1,1,.4,1.8,.9,2.4c.5,.7,1.1,1,2,1Zm-7.5,-.3v0q.1,0,.2,0c.8,-2.6,1.6,-5.1,2.5,-7.6c-.2,0,-.3,0,-.4,0c-.8,2.8,-1.4,4.8,-1.8,6.2l-.5,1.4Zm10.8,0c0,-.6,0,-1.6,0,-3c0,-.4,0,-1,0,-2.1c0,-.6,0,-1.1,0,-1.3v-.2c0,-.6,-.1,-.7,-.4,-.8c-.1,-.1,-.6,-.2,-1.4,-.2c-.1,0,-.2,0,-.3,0h.3c.3,0,.7,.2,.9,.5c.2,.2,.4,.4,.4,.8c0,.6,0,2.2,-.1,5v.3l-.2,.2c-.1,.1,-.2,.1,-.2,.2l.3,.2c.2,.1,.5,.3,.7,.4Zm55.8,.1v0c.5,-.2,.9,-.5,1.3,-1c.5,-.6,.8,-1.6,.8,-2.9v-.3c0,-1.2,-.3,-2.1,-.9,-2.7h.1c-.4,-.4,-.9,-.7,-1.6,-.8c1.2,.5,1.8,2,1.8,3.7v.4c0,1.1,-.1,2,-.6,2.8c-.2,.3,-.6,.6,-.9,.8Zm-37.2,0c.5,-.2,1,-.5,1.3,-1c.5,-.6,.8,-1.6,.8,-2.9v-.3c0,-1.2,-.3,-2.1,-.8,-2.7c-.4,-.4,-.9,-.7,-1.6,-.8c1.2,.5,1.8,2,1.8,3.7l.1,.4c-.1,1.1,-.2,2,-.7,2.8c-.2,.3,-.6,.6,-.9,.8Zm-39.5,-7.7c-.2,0,-.4,0,-.6,0Zm27.7,0c-.2,0,-.5,0,-.6,0Zm57.1,0c-.2,0,-.5,0,-.6,0Zm-75.8,7.7c.2,0,.3,0,.5,0l-.4,-1.6c-.8,-3.1,-1.3,-5.1,-1.6,-6.1c-.2,0,-.4,0,-.7,0c.7,2.1,1.4,4.7,2.2,7.7Zm-16.8,.2c.8,0,1.4,-.2,1.9,-.5c-.6,.2,-1.1,.4,-1.6,.4h-.1c-.9,0,-1.8,-.4,-2.3,-1.2c-.5,-.7,-.7,-1.5,-.7,-2.5c0,-1,.3,-2,.9,-2.8c.6,-.8,1.5,-1.4,2.6,-1.4h.1c.3,0,.7,.1,1.1,.2c-.4,-.1,-.9,-.2,-1.4,-.2c-1.2,0,-2.1,.4,-2.9,1.3c-.6,.8,-1,1.8,-1,3c0,1.1,.3,1.9,.9,2.6c.6,.7,1.3,1.1,2.5,1.1Zm10.9,-.2c.2,-.1,.4,-.1,.6,-.1c-.1,-.8,-.1,-1.6,-.1,-2.5c0,-1.7,.1,-3.4,.2,-5.2c-.2,0,-.4,.1,-.7,.1c.1,1,.1,2,.1,3c0,1.2,0,2.8,-.1,4.7Zm27.7,0c.2,-.1,.4,-.1,.6,-.1c-.1,-.8,-.1,-1.6,-.1,-2.5c0,-1.7,.1,-3.4,.2,-5.2c-.2,0,-.4,.1,-.7,.1c.1,1,.1,2,.1,3c0,1.2,0,2.8,-.1,4.7Zm57.1,.6c1.6,0,2.8,-.4,3.4,-1c.7,-.6,.9,-1.2,.9,-1.7v-.1c0,-.7,-.2,-1.1,-.6,-1.4c-.2,-.1,-.9,-.4,-1.9,-.7c-.9,-.2,-1.7,-.8,-1.7,-1.8c0,-.6,.4,-1.2,.9,-1.4h.1c.2,-.2,.5,-.3,.8,-.3c-.5,.1,-1,.2,-1.4,.4c-.7,.5,-1,.9,-1,1.7v.1c0,.7,.2,1,.7,1.3c.1,.1,.8,.3,1.8,.7c.8,.3,1.6,.9,1.6,1.8c0,.8,-.5,1.5,-1.1,1.8h-.1c-.5,.3,-1.1,.4,-1.8,.4c-.4,0,-.7,0,-1.2,-.1q-.1,-.1,-.2,-.1c0,.1,-.1,.2,-.1,.3c.4,.1,.6,.1,.9,.1Zm-37.8,-.7v0c.2,0,.4,0,.6,0c0,-.4,0,-.8,-.1,-1.1c0,-.5,.1,-1.3,.1,-2.3c0,-.6,0,-1.1,0,-1.5c0,-.3,0,-.5,0,-.7v-.1c-.2,-1.6,-.5,-1.9,-1.8,-2c-.4,0,-.7,0,-1.1,.1c.1,0,.2,-.1,.3,-.1c0,0,.1,0,.1,0c.6,0,1.3,.5,1.6,1c.3,.5,.4,1.1,.4,1.7v.1c0,.7,0,1.6,0,2.7c-.1,1,-.1,1.7,-.1,2.2Zm41.6,-7.5q0,-.1,0,-.1c-.3,-.1,-.7,-.2,-1,-.2c-.2,0,-.4,0,-.5,0c0,0,.1,0,.2,0c.4,0,.9,.1,1.3,.3Zm-90.1,6.6c.1,-1.5,.1,-2.7,.1,-3.7c0,-1.2,0,-2.4,-.1,-3.4c0,.3,-.1,.7,-.1,1.2v.7h-1.8c0,1.5,0,2.7,0,3.6c0,.3,0,.6,0,.9q0,.3,.1,.4c0,0,.5,.2,1.1,.2l.7,.1Zm27.7,0c.1,-1.5,.1,-2.7,.1,-3.7c0,-1.2,0,-2.4,-.1,-3.4c-.1,.3,-.1,.7,-.1,1.2v.7h-1.8c0,1.5,-.1,2.7,-.1,3.6c0,.3,0,.6,.1,.9q0,.3,0,.4v-.1v.1c.1,0,.6,.2,1.2,.2l.7,.1Zm6.8,2.4c-.6,-.3,-1.1,-.6,-1.5,-1.1c-.9,-.9,-1.3,-2.2,-1.4,-3.7v-.3c0,-1.6,.4,-2.9,1.2,-3.9c1,-1.1,2.4,-1.7,4,-1.7h.1c1.3,0,2.6,.5,3.4,1.4c.8,1,1.2,2.2,1.2,3.7v.3c0,1.5,-.3,2.9,-1.1,3.9c-.5,.6,-1.1,1.1,-1.8,1.4Zm7,0v-.7c.1,-2.3,.1,-4,.1,-5.1c0,-.1,0,-.2,0,-.4c0,-.9,0,-2,-.1,-3.2v-.5l.4,-.2c.2,-.1,.4,-.3,.8,-.3c.4,0,.8,.1,1.4,.4c.9,-.5,2,-.7,3.2,-.7c1,0,1.9,.2,2.5,.9c.6,.7,.8,1.6,.8,2.6c0,.2,0,.5,0,.8c0,.4,0,.9,0,1.5c0,1,0,1.8,0,2.3c0,.5,0,1.1,0,1.8l.1,.7l-.5,.1h-2.8l-.1,-.2l-.3,-.4v-.3c0,-.5,0,-1.4,0,-2.8c.1,-1.1,.1,-2,.1,-2.7c0,-.5,-.1,-.8,-.3,-1q-.1,-.2,-.3,-.2c-.4,0,-.8,.1,-1.3,.4c0,1,0,2,0,2.9c0,1.2,0,2.3,0,3.3l.1,.3l-.3,.3l-.4,.4Zm-43.9,-1.3v0c-.1,-.1,-.2,-.1,-.3,-.2c-.5,-.3,-.8,-1,-.8,-1.6c0,-.3,0,-.6,0,-.9c0,-1.1,.1,-2.5,.1,-4.4v-1.5c0,-.6,0,-1.1,0,-1.5l-.5,.1v2l-.6,.2h-.4h1v6.3c0,1,.2,1.3,1.5,1.5Zm27.6,0v0c0,-.1,-.1,-.1,-.2,-.2c-.5,-.3,-.8,-1,-.8,-1.6c0,-.3,0,-.6,0,-.9c0,-1.1,0,-2.5,.1,-4.4v-.7H445v-.8c0,-.6,.1,-1.1,.1,-1.5l-.5,.1l-.1,2l-.6,.2h-.3h.9v6.3c.1,1,.3,1.3,1.5,1.5Zm57.1,0v0c0,-.1,-.1,-.1,-.2,-.2c-.5,-.3,-.8,-1,-.8,-1.6c0,-.3,0,-.6,0,-.9c0,-1.1,0,-2.5,.1,-4.4v-.7h-.1l.1,-.8c0,-.6,0,-1.1,0,-1.5l-.5,.1l-.1,2l-.6,.2h-.3h.9v6.3c.1,1,.3,1.3,1.5,1.5Zm-105.6,-.2c.1,0,.3,0,.5,0c.2,-.9,.5,-1.9,.9,-3.1l.1,-.5h.6c.1,0,.3,0,.4,0h-1l2.4,-7c-.1,0,-.2,0,-.4,0c-.5,1.7,-1.1,3.5,-1.8,5.6c-.3,.8,-.8,2.5,-1.7,5Zm7.4,.1l.8,-.1c-.5,-1.6,-1,-3.3,-1.5,-5.2c-.7,-2.4,-1.2,-4.2,-1.5,-5.5c-.2,0,-.4,0,-.7,.1l1.7,6l.3,.9h-.9c.1,0,.2,0,.3,0h.6l.1,.6c.4,1.3,.6,2.4,.8,3.2Zm75.5,.2c1.2,0,2,-.3,2.7,-.8c.8,-.6,1.1,-1.3,1.1,-2.4v-.1c0,-.8,-.3,-1.4,-1.1,-1.9c-.8,-.4,-1.7,-.8,-2.6,-1.3c-1,-.5,-1.8,-1.2,-1.9,-2.3v-.1c0,-.7,.4,-1.5,1.1,-1.9c.5,-.3,1.2,-.5,1.9,-.5c.7,0,1.4,.2,2.1,.6c0,-.1,.1,-.2,.1,-.3c-.9,-.2,-1.6,-.3,-2.2,-.3c-1,0,-1.8,.2,-2.5,.6c-.7,.5,-1,1.1,-1.1,2.1c.1,.9,.4,1.5,1.1,2c.9,.5,1.7,.9,2.5,1.3c1.1,.5,1.9,1.4,1.9,2.5c0,.8,-.4,1.6,-1.1,2.1c-.6,.4,-1.3,.6,-2,.6h-.1c-.7,0,-1.5,-.3,-2.3,-.7c0,.1,0,.2,0,.3c.8,.3,1.6,.5,2.4,.5Zm-57.6,-10.8v0q.1,0,.2,0l.4,-1.1c-.2,0,-.3,0,-.4,0c-.1,.4,-.1,.8,-.2,1.1Zm27.7,0c0,0,.1,0,.2,0l.4,-1.1c-.2,0,-.3,0,-.5,0c0,.4,-.1,.8,-.1,1.1Zm37.2,10.6v0c.2,-.1,.4,-.1,.5,-.1c0,-1.2,0,-2.6,0,-4.1c0,-.7,0,-1.4,0,-2.1c0,-2.5,0,-4.3,0,-5.4c-.2,0,-.4,.1,-.6,.1c.1,1.7,.1,3.5,.1,5.5c0,1.5,0,3.5,0,6.1Zm-9.6,1.4c-.5,-.2,-.9,-.4,-1.3,-.6l-.5,-.2l.1,-.5c0,-.5,.1,-1.1,.1,-1.7l.1,-.5l.4,-.1l.8,-.4l.3,.3c.9,.6,1.6,.8,2.2,.8c.6,0,1,-.1,1.2,-.3c.3,-.2,.4,-.4,.4,-.8c0,-.4,-.1,-.7,-.9,-1.2c-.9,-.4,-1.8,-.8,-2.6,-1.2h-.1v-.1c-1.1,-.7,-1.8,-1.9,-1.8,-3.2v-.1c0,-1.4,.7,-2.7,1.8,-3.4c1,-.6,2.1,-.9,3.3,-.9c.9,0,2,.2,3.1,.6l.3,.1l.1,.2l.3,.4l-.1,.3c0,.5,-.1,1,-.1,1.5v.4l-.4,.2l-.7,.4l-.3,-.2c-.9,-.5,-1.7,-.7,-2.2,-.7c-.5,0,-.8,.1,-1.1,.2c-.3,.2,-.3,.3,-.3,.6v.1c0,.2,.1,.5,1,1c.9,.4,1.8,.8,2.6,1.2h.1v.1c1.2,.7,1.8,1.9,1.8,3.2v.1c.1,1.5,-.5,2.8,-1.7,3.6c-.4,.3,-.8,.6,-1.3,.8Zm-81.7,0v-2.9c.7,-2,1.1,-3.4,1.4,-4.1c.7,-2.2,1.4,-4.2,1.9,-5.9v-.2l.2,-.1l.4,-.4h.3c.9,0,1.7,-.1,2.5,-.1l.3,-.1l.3,.3l.3,.3l.1,.2c.3,1.3,.8,3.3,1.5,5.9c.4,1.1,.7,2.3,1,3.4c-.1,-.4,-.1,-.8,-.1,-1.2c0,-1.5,.5,-2.9,1.4,-4c1,-1.2,2.4,-1.8,4,-1.8c.9,0,1.7,.1,2.4,.4l.6,-.1l.5,-.1v-2l3.8,-.9l-.2,1.1c0,.4,-.1,1,-.1,1.6c.3,0,.7,0,1.1,0h.9v.3l.2,-.8c.1,-.6,.3,-1.5,.4,-2.7l.1,-.2h3.8l-1.1,3l-.2,.1l-.2,.2l.3,.2l.3,.1h.4c.8,-.1,1.5,-.1,2.1,-.2l.3,-.1l.3,.2l.4,.3l.1,.3c.1,.5,.4,1.8,1,4c.3,-1.1,.7,-2.4,1.1,-3.9l.1,-.2l.2,-.2l.4,-.3h.2c.2,0,.3,0,.4,0c.4,0,.9,0,1.5,0l1.1,-.1l-.3,1.1c-.2,.5,-.4,1,-.6,1.5c.3,-.4,.5,-.7,.9,-1c1,-1,2.5,-1.5,4.1,-1.5h.1c.9,0,1.6,0,2.2,.3c.7,.4,1.1,1.3,1.1,2.1c0,.1,0,.2,0,.3c0,.3,0,.7,0,1.4c0,1,0,1.6,0,2c0,2.1,0,3.3,0,3.6v.2l-.2,.7h-1.8q-.1,-.1,-.2,-.1c-.1,-.1,-.3,-.2,-.4,-.3c-.2,.2,-.4,.3,-.6,.4h-3.3c-.6,-.3,-1.1,-.7,-1.5,-1.2c-.8,-.9,-1.2,-2.1,-1.2,-3.4v-.3c0,-.3,0,-.6,.1,-.9c-.6,1.7,-1.1,3.4,-1.7,5.1v.2l-.1,.1l-.4,.4h-3.2v-.1l-.3,-.3v-.2c-.9,-3.3,-1.6,-6,-2.3,-8.2c-.1,1.6,-.1,3.3,-.1,4.8c0,1.1,0,2.2,0,3.2l.1,.8h-3.8v-.1l-.3,.1h-3.3c-.3,-.2,-.6,-.3,-.8,-.5c-.7,-.5,-1,-1.4,-1,-2.3v-4.8h-.7l-.2,.2l-.8,.3l-.3,-.2c-.4,-.2,-.8,-.3,-1.2,-.3c-.6,0,-1,.2,-1.4,.7c-.4,.6,-.6,1.2,-.6,1.9c0,.7,.2,1.2,.5,1.6c.3,.4,.5,.6,1.1,.6c.4,0,1.1,-.3,1.9,-1.1l1.4,-1.2l-.1,1.8c-.1,1,-.1,1.7,-.1,2.1l-.1,.3l-.2,.2c-.3,.3,-.7,.5,-1.1,.7h-3.9c-.7,-.3,-1.3,-.8,-1.8,-1.4c-.3,-.3,-.6,-.8,-.8,-1.2c.2,.5,.3,.9,.5,1.4l.1,.4l-.3,.3l-.4,.5h-2.9v-.1l-.3,-.4l-.1,-.2c-.1,-.6,-.4,-1.6,-.7,-2.9c-.8,0,-1.7,0,-2.6,0c-.3,1.1,-.6,2.1,-.8,2.9l-.1,.1l-.1,.2l-.4,.4Zm48.4,0c-.3,-.2,-.6,-.3,-.8,-.5c-.7,-.5,-1,-1.4,-1,-2.3v-4.8h-1.3v-1.2h.1l.2,-1.5l.5,-.1l.5,-.1l.1,-2l3.8,-.9l-.2,1.1c0,.4,-.1,1,-.1,1.6c.3,0,.7,0,1.1,0h.9l-.1,.3h.1l.2,-.8c.1,-.6,.3,-1.5,.4,-2.7v-.2h3.9l-1.2,3l-.1,.1l-.2,.2l.2,.2l.5,.2l-.1,.5c-.1,2,-.2,4,-.2,5.9c0,1.1,.1,2.2,.1,3.2v.8h-3.7v-.1l-.3,.1Zm41.3,0v-.7c.1,-2.9,.1,-5.2,.1,-6.8c0,-2.2,0,-4.2,-.1,-6.1l-.1,-.5h3.8c0,.8,-.1,3,-.1,6.4v.1c0,.5,0,1,0,1.5c.1,-1.1,.5,-2.1,1.1,-2.9c1,-1.1,2.4,-1.7,4,-1.7h.1c1.3,0,2.6,.5,3.4,1.4c.2,.3,.4,.5,.5,.8l.1,-.3l.2,-1.5l.5,-.1l.5,-.1l.1,-2l3.8,-.9l-.2,1.1c0,.4,-.1,1,-.1,1.6c.3,0,.7,0,1.1,0h.9l-.1,.8c0,.4,-.1,.7,-.1,1.1c.3,-.6,.8,-1,1.4,-1.3c.8,-.5,1.8,-.7,3,-.7c.7,0,1.4,.1,2,.4h.2l.1,.1v3.6l-1,-.5c-.7,-.4,-1.2,-.5,-1.6,-.5c-.3,0,-.6,0,-.7,.1l-.2,.1c0,0,0,.1,.7,.4c1.1,.3,1.8,.6,2.2,.9h.1c.2,.1,.3,.3,.5,.4v4.4c-.2,.2,-.4,.5,-.6,.7c-.3,.2,-.6,.5,-1,.7h-8.7c-.3,-.2,-.6,-.3,-.8,-.5c-.7,-.5,-1,-1.4,-1,-2.3v-4.8h-.9c.2,.6,.3,1.3,.3,2v.3c0,1.5,-.3,2.9,-1.1,3.9c-.5,.6,-1.1,1.1,-1.8,1.4h-4.1c-.6,-.3,-1.1,-.6,-1.5,-1.1c-.7,-.8,-1.1,-1.8,-1.3,-3c0,1,0,1.9,.1,2.8v1.3Z"/></clipPath>
<clipPath id="c44_5"><path d="M365.3,1047.4l2.6,-3.9l-4.1,1.2v-28.1h30.8v30.8Z"/></clipPath>
<clipPath id="c45_5"><path d="M363.8,1047.4v-2.7l4.1,-1.2l-2.6,3.9Z"/></clipPath>
<clipPath id="c46_5"><path d="M437.9,1045.8v-30.7h40.3v30.7Z"/></clipPath>
<clipPath id="c47_5"><path d="M437.9,1047.4v-1.6h40.3v1.6h-25l.1,-.5l-1.1,.1c-1.1,0,-1.8,.1,-2.3,.1h-.6v.3Z"/></clipPath>
<clipPath id="c48_5"><path d="M449.3,1047.4v-.3h.6c.5,0,1.2,-.1,2.3,-.1l1.1,-.1l-.1,.5Z"/></clipPath>
<clipPath id="c49_5"><path d="M516.8,1047.4v-1.6h-2.2v-30.7h37.8v21.2h-8.8v11.1Z"/></clipPath>
<clipPath id="c4a_5"><path d="M543.6,1047.4v-11.1h8.8v4.4l-3.3,-3.3l-4.3,4.2l5.5,5.8Z"/></clipPath>
<clipPath id="c4b_5"><path d="M550.3,1047.4l-5.5,-5.8l4.3,-4.2l3.3,3.3v6.7Z"/></clipPath>
<clipPath id="c4c_5"><path d="M514.6,1047.4v-1.6h2.2v1.6Z"/></clipPath>
<clipPath id="c4d_5"><path d="M604.5,1066.9v-30.6h-3.4v-13H743.7v43.6Z"/></clipPath>
<clipPath id="c4e_5"><path d="M601.1,1066.9v-30.6h3.4v30.6Z"/></clipPath>
<clipPath id="c4f_5"><path d="M0,1284.4V0H907.6V1284.4Z"/></clipPath>
<style type="text/css"><![CDATA[
.g0_5{
fill: #A99787;
}
.g1_5{
fill: none;
stroke: #FFFFFF;
stroke-width: 10.694;
stroke-linecap: butt;
stroke-linejoin: miter;
stroke-miterlimit: 4;
}
.g2_5{
fill: #FFFFFF;
}
.g3_5{
fill: none;
stroke: #FFFFFF;
stroke-width: 6.111;
stroke-linecap: butt;
stroke-linejoin: miter;
stroke-miterlimit: 4;
}
.g4_5{
fill: #231916;
}
.g5_5{
fill: none;
stroke: #FFFFFF;
stroke-width: 1.909;
stroke-linecap: butt;
stroke-linejoin: miter;
}
.g6_5{
fill: none;
stroke: #000000;
stroke-width: 0.381;
stroke-linecap: butt;
stroke-linejoin: miter;
}
]]></style>
</defs>
<image clip-path="url(#c0_5)" preserveAspectRatio="none" x="-22" y="-22" width="931" height="1329" xlink:href="img/1.webp"/>
<image clip-path="url(#c1_5)" preserveAspectRatio="none" x="907" y="-22" width="933" height="1329" xlink:href="img/2.webp"/>
<image clip-path="url(#c2_5)" preserveAspectRatio="none" x="42" y="58" width="824" height="52" xlink:href="img/3.webp"/>
<image clip-path="url(#c3_5)" preserveAspectRatio="none" x="42" y="110" width="56" height="625" xlink:href="img/4.webp"/>
<image clip-path="url(#c4_5)" preserveAspectRatio="none" x="810" y="110" width="56" height="625" xlink:href="img/5.webp"/>
<image clip-path="url(#c5_5)" preserveAspectRatio="none" x="97" y="474" width="494" height="261" xlink:href="img/6.webp"/>
<image clip-path="url(#c6_5)" preserveAspectRatio="none" x="591" y="474" width="220" height="261" xlink:href="img/7.webp"/>
<path d="M42.4,57.5h-.6V735.3h824V57H41.8v.5h.6v.6H864.7V734.2H43V57.5h-.6v.6Z" class="g0_5"/>
<image clip-path="url(#c7_5)" preserveAspectRatio="none" x="43" y="952" width="823" height="49" xlink:href="img/8.webp"/>
<image clip-path="url(#c8_5)" preserveAspectRatio="none" x="810" y="1000" width="56" height="242" xlink:href="img/9.webp"/>
<image clip-path="url(#c9_5)" preserveAspectRatio="none" x="43" y="1000" width="56" height="242" xlink:href="img/10.webp"/>
<image clip-path="url(#ca_5)" preserveAspectRatio="none" x="98" y="1193" width="713" height="49" xlink:href="img/11.webp"/>
<path d="M42.9,952.4h-.6V1242h824V951.8H42.3v.6h.6v.6H865.2v287.9H43.5V952.4h-.6v.6Z" class="g0_5"/>
<image clip-path="url(#cb_5)" preserveAspectRatio="none" x="85" y="992" width="737" height="92" xlink:href="img/12.webp"/>
<image clip-path="url(#cc_5)" preserveAspectRatio="none" x="716" y="1083" width="106" height="138" xlink:href="img/13.webp"/>
<image clip-path="url(#cd_5)" preserveAspectRatio="none" x="295" y="1083" width="317" height="138" xlink:href="img/14.webp"/>
<image clip-path="url(#ce_5)" preserveAspectRatio="none" x="85" y="1083" width="158" height="138" xlink:href="img/15.webp"/>
<image clip-path="url(#cf_5)" preserveAspectRatio="none" x="611" y="1129" width="53" height="92" xlink:href="img/16.webp"/>
<image clip-path="url(#cg_5)" preserveAspectRatio="none" x="664" y="1175" width="53" height="46" xlink:href="img/17.webp"/>
<image clip-path="url(#ch_5)" preserveAspectRatio="none" x="243" y="1175" width="53" height="46" xlink:href="img/18.webp"/>
<image clip-path="url(#ci_5)" preserveAspectRatio="none" x="225" y="1071" width="52" height="62" xlink:href="img/19.webp"/>
<image clip-path="url(#cj_5)" preserveAspectRatio="none" x="210" y="1068" width="52" height="22" xlink:href="img/20.webp"/>
<image clip-path="url(#ck_5)" preserveAspectRatio="none" x="213" y="1071" width="49" height="50" xlink:href="img/21.webp"/>
<image clip-path="url(#cl_5)" preserveAspectRatio="none" x="159" y="1090" width="62" height="67" xlink:href="img/22.webp"/>
<image clip-path="url(#cm_5)" preserveAspectRatio="none" x="213" y="1120" width="13" height="19" xlink:href="img/23.webp"/>
<image clip-path="url(#cn_5)" preserveAspectRatio="none" x="210" y="1090" width="3" height="31" xlink:href="img/24.webp"/>
<image clip-path="url(#co_5)" preserveAspectRatio="none" x="213" y="1090" width="13" height="31" xlink:href="img/25.webp"/>
<image clip-path="url(#cp_5)" preserveAspectRatio="none" x="156" y="1087" width="52" height="52" xlink:href="img/26.webp"/>
<image clip-path="url(#cq_5)" preserveAspectRatio="none" x="159" y="1090" width="49" height="49" xlink:href="img/27.webp"/>
<image clip-path="url(#cr_5)" preserveAspectRatio="none" x="224" y="1138" width="67" height="62" xlink:href="img/28.webp"/>
<image clip-path="url(#cs_5)" preserveAspectRatio="none" x="272" y="1132" width="5" height="7" xlink:href="img/29.webp"/>
<image clip-path="url(#ct_5)" preserveAspectRatio="none" x="225" y="1129" width="48" height="4" xlink:href="img/30.webp"/>
<image clip-path="url(#cu_5)" preserveAspectRatio="none" x="221" y="1157" width="3" height="25" xlink:href="img/31.webp"/>
<image clip-path="url(#cv_5)" preserveAspectRatio="none" x="221" y="1138" width="3" height="19" xlink:href="img/32.webp"/>
<image clip-path="url(#cw_5)" preserveAspectRatio="none" x="221" y="1129" width="5" height="10" xlink:href="img/33.webp"/>
<image clip-path="url(#cx_5)" preserveAspectRatio="none" x="224" y="1138" width="49" height="44" xlink:href="img/34.webp"/>
<image clip-path="url(#cy_5)" preserveAspectRatio="none" x="225" y="1132" width="48" height="7" xlink:href="img/35.webp"/>
<image clip-path="url(#cz_5)" preserveAspectRatio="none" x="224" y="1138" width="2" height="19" xlink:href="img/36.webp"/>
<image clip-path="url(#c10_5)" preserveAspectRatio="none" x="224" y="1132" width="2" height="7" xlink:href="img/37.webp"/>
<image clip-path="url(#c11_5)" preserveAspectRatio="none" x="290" y="1132" width="67" height="68" xlink:href="img/38.webp"/>
<image clip-path="url(#c12_5)" preserveAspectRatio="none" x="290" y="1181" width="1" height="19" xlink:href="img/39.webp"/>
<image clip-path="url(#c13_5)" preserveAspectRatio="none" x="287" y="1141" width="3" height="41" xlink:href="img/40.webp"/>
<image clip-path="url(#c14_5)" preserveAspectRatio="none" x="291" y="1141" width="48" height="41" xlink:href="img/41.webp"/>
<image clip-path="url(#c15_5)" preserveAspectRatio="none" x="290" y="1141" width="1" height="41" xlink:href="img/42.webp"/>
<image clip-path="url(#c16_5)" preserveAspectRatio="none" x="590" y="1146" width="70" height="54" xlink:href="img/43.webp"/>
<image clip-path="url(#c17_5)" preserveAspectRatio="none" x="588" y="1147" width="3" height="33" xlink:href="img/44.webp"/>
<image clip-path="url(#c18_5)" preserveAspectRatio="none" x="590" y="1147" width="50" height="33" xlink:href="img/45.webp"/>
<image clip-path="url(#c19_5)" preserveAspectRatio="none" x="661" y="1147" width="70" height="54" xlink:href="img/46.webp"/>
<image clip-path="url(#c1a_5)" preserveAspectRatio="none" x="660" y="1147" width="2" height="34" xlink:href="img/47.webp"/>
<image clip-path="url(#c1b_5)" preserveAspectRatio="none" x="662" y="1147" width="50" height="34" xlink:href="img/48.webp"/>
<image clip-path="url(#c1c_5)" preserveAspectRatio="none" x="643" y="1079" width="56" height="68" xlink:href="img/49.webp"/>
<image clip-path="url(#c1d_5)" preserveAspectRatio="none" x="643" y="1130" width="17" height="17" xlink:href="img/50.webp"/>
<image clip-path="url(#c1e_5)" preserveAspectRatio="none" x="660" y="1129" width="39" height="18" xlink:href="img/51.webp"/>
<image clip-path="url(#c1f_5)" preserveAspectRatio="none" x="662" y="1131" width="37" height="16" xlink:href="img/52.webp"/>
<image clip-path="url(#c1g_5)" preserveAspectRatio="none" x="634" y="1077" width="52" height="3" xlink:href="img/53.webp"/>
<image clip-path="url(#c1h_5)" preserveAspectRatio="none" x="643" y="1079" width="43" height="49" xlink:href="img/54.webp"/>
<image clip-path="url(#c1i_5)" preserveAspectRatio="none" x="579" y="1078" width="58" height="69" xlink:href="img/55.webp"/>
<image clip-path="url(#c1j_5)" preserveAspectRatio="none" x="640" y="1146" width="3" height="1" xlink:href="img/56.webp"/>
<image clip-path="url(#c1k_5)" preserveAspectRatio="none" x="588" y="1128" width="49" height="19" xlink:href="img/57.webp"/>
<image clip-path="url(#c1l_5)" preserveAspectRatio="none" x="590" y="1130" width="50" height="17" xlink:href="img/58.webp"/>
<image clip-path="url(#c1m_5)" preserveAspectRatio="none" x="636" y="1128" width="7" height="3" xlink:href="img/59.webp"/>
<image clip-path="url(#c1n_5)" preserveAspectRatio="none" x="640" y="1130" width="3" height="17" xlink:href="img/60.webp"/>
<image clip-path="url(#c1o_5)" preserveAspectRatio="none" x="636" y="1128" width="4" height="3" xlink:href="img/61.webp"/>
<image clip-path="url(#c1p_5)" preserveAspectRatio="none" x="636" y="1130" width="4" height="17" xlink:href="img/62.webp"/>
<image clip-path="url(#c1q_5)" preserveAspectRatio="none" x="634" y="1078" width="9" height="50" xlink:href="img/63.webp"/>
<image clip-path="url(#c1r_5)" preserveAspectRatio="none" x="636" y="1079" width="7" height="49" xlink:href="img/64.webp"/>
<image clip-path="url(#c1s_5)" preserveAspectRatio="none" x="572" y="1076" width="52" height="32" xlink:href="img/65.webp"/>
<image clip-path="url(#c1t_5)" preserveAspectRatio="none" x="574" y="1078" width="50" height="50" xlink:href="img/66.webp"/>
<image clip-path="url(#c1u_5)" preserveAspectRatio="none" x="704" y="1079" width="64" height="69" xlink:href="img/67.webp"/>
<image clip-path="url(#c1v_5)" preserveAspectRatio="none" x="711" y="1131" width="20" height="17" xlink:href="img/68.webp"/>
<image clip-path="url(#c1w_5)" preserveAspectRatio="none" x="704" y="1129" width="8" height="3" xlink:href="img/69.webp"/>
<image clip-path="url(#c1x_5)" preserveAspectRatio="none" x="698" y="1131" width="14" height="17" xlink:href="img/70.webp"/>
<image clip-path="url(#c1y_5)" preserveAspectRatio="none" x="698" y="1129" width="7" height="1" xlink:href="img/71.webp"/>
<image clip-path="url(#c1z_5)" preserveAspectRatio="none" x="698" y="1129" width="7" height="3" xlink:href="img/72.webp"/>
<image clip-path="url(#c20_5)" preserveAspectRatio="none" x="698" y="1131" width="7" height="16" xlink:href="img/73.webp"/>
<image clip-path="url(#c21_5)" preserveAspectRatio="none" x="696" y="1077" width="52" height="3" xlink:href="img/74.webp"/>
<image clip-path="url(#c22_5)" preserveAspectRatio="none" x="696" y="1079" width="3" height="50" xlink:href="img/75.webp"/>
<image clip-path="url(#c23_5)" preserveAspectRatio="none" x="698" y="1079" width="50" height="50" xlink:href="img/76.webp"/>
<image clip-path="url(#c24_5)" preserveAspectRatio="none" x="698" y="1079" width="7" height="50" xlink:href="img/77.webp"/>
<image clip-path="url(#c25_5)" preserveAspectRatio="none" x="355" y="1107" width="225" height="43" xlink:href="img/78.webp"/>
<image clip-path="url(#c26_5)" preserveAspectRatio="none" x="355" y="1132" width="2" height="18" xlink:href="img/79.webp"/>
<image clip-path="url(#c27_5)" preserveAspectRatio="none" x="574" y="1128" width="6" height="19" xlink:href="img/80.webp"/>
<image clip-path="url(#c28_5)" preserveAspectRatio="none" x="572" y="1107" width="2" height="21" xlink:href="img/81.webp"/>
<image clip-path="url(#c29_5)" preserveAspectRatio="none" x="574" y="1107" width="6" height="21" xlink:href="img/82.webp"/>
<path d="M560.5,1118.4l-187,-.3" class="g1_5"/>
<path d="M351.8,1118l37.5,13.8v-27.3Z" class="g2_5"/>
<image clip-path="url(#c2a_5)" preserveAspectRatio="none" x="85" y="77" width="211" height="437" xlink:href="img/83.webp"/>
<image clip-path="url(#c2b_5)" preserveAspectRatio="none" x="295" y="77" width="528" height="55" xlink:href="img/84.webp"/>
<image clip-path="url(#c2c_5)" preserveAspectRatio="none" x="506" y="132" width="53" height="382" xlink:href="img/85.webp"/>
<image clip-path="url(#c2d_5)" preserveAspectRatio="none" x="611" y="132" width="212" height="382" xlink:href="img/86.webp"/>
<image clip-path="url(#c2e_5)" preserveAspectRatio="none" x="559" y="186" width="53" height="328" xlink:href="img/87.webp"/>
<image clip-path="url(#c2f_5)" preserveAspectRatio="none" x="295" y="241" width="212" height="273" xlink:href="img/88.webp"/>
<image clip-path="url(#c2g_5)" preserveAspectRatio="none" x="189" y="369" width="84" height="126" xlink:href="img/89.webp"/>
<image clip-path="url(#c2h_5)" preserveAspectRatio="none" x="273" y="369" width="85" height="126" xlink:href="img/90.webp"/>
<image clip-path="url(#c2i_5)" preserveAspectRatio="none" x="354" y="369" width="85" height="126" xlink:href="img/91.webp"/>
<image clip-path="url(#c2j_5)" preserveAspectRatio="none" x="104" y="369" width="85" height="126" xlink:href="img/92.webp"/>
<image clip-path="url(#c2k_5)" preserveAspectRatio="none" x="441" y="369" width="84" height="126" xlink:href="img/93.webp"/>
<image clip-path="url(#c2l_5)" preserveAspectRatio="none" x="195" y="168" width="67" height="68" xlink:href="img/94.webp"/>
<image clip-path="url(#c2m_5)" preserveAspectRatio="none" x="192" y="165" width="52" height="52" xlink:href="img/95.webp"/>
<image clip-path="url(#c2n_5)" preserveAspectRatio="none" x="195" y="168" width="49" height="49" xlink:href="img/96.webp"/>
<image clip-path="url(#c2o_5)" preserveAspectRatio="none" x="715" y="203" width="70" height="69" xlink:href="img/97.webp"/>
<image clip-path="url(#c2p_5)" preserveAspectRatio="none" x="713" y="201" width="53" height="52" xlink:href="img/98.webp"/>
<image clip-path="url(#c2q_5)" preserveAspectRatio="none" x="716" y="203" width="50" height="50" xlink:href="img/99.webp"/>
<image clip-path="url(#c2r_5)" preserveAspectRatio="none" x="479" y="88" width="20" height="40" xlink:href="img/100.webp"/>
<image clip-path="url(#c2s_5)" preserveAspectRatio="none" x="429" y="86" width="51" height="42" xlink:href="img/101.webp"/>
<image clip-path="url(#c2t_5)" preserveAspectRatio="none" x="431" y="88" width="49" height="40" xlink:href="img/102.webp"/>
<image clip-path="url(#c2u_5)" preserveAspectRatio="none" x="405" y="87" width="19" height="41" xlink:href="img/103.webp"/>
<image clip-path="url(#c2v_5)" preserveAspectRatio="none" x="353" y="85" width="52" height="43" xlink:href="img/104.webp"/>
<image clip-path="url(#c2w_5)" preserveAspectRatio="none" x="355" y="87" width="50" height="41" xlink:href="img/105.webp"/>
<image clip-path="url(#c2x_5)" preserveAspectRatio="none" x="543" y="127" width="99" height="93" xlink:href="img/106.webp"/>
<path d="M542.5,126.5L612,191" class="g3_5"/>
<path d="M623.1,201.2L610.6,177l-12.7,13.6Z" class="g2_5"/>
<image clip-path="url(#c2y_5)" preserveAspectRatio="none" x="264" y="128" width="264" height="143" xlink:href="img/107.webp"/>
<image clip-path="url(#c2z_5)" preserveAspectRatio="none" x="431" y="128" width="68" height="28" xlink:href="img/108.webp"/>
<image clip-path="url(#c30_5)" preserveAspectRatio="none" x="429" y="128" width="2" height="9" xlink:href="img/109.webp"/>
<image clip-path="url(#c31_5)" preserveAspectRatio="none" x="431" y="128" width="49" height="9" xlink:href="img/110.webp"/>
<image clip-path="url(#c32_5)" preserveAspectRatio="none" x="355" y="128" width="69" height="28" xlink:href="img/111.webp"/>
<image clip-path="url(#c33_5)" preserveAspectRatio="none" x="353" y="128" width="2" height="9" xlink:href="img/112.webp"/>
<image clip-path="url(#c34_5)" preserveAspectRatio="none" x="355" y="128" width="50" height="9" xlink:href="img/113.webp"/>
<path d="M318.3,209.3L496.7,134l-2.3,-5.7L315.9,203.7Z" class="g2_5"/>
<path d="M509.4,125.3l-27.2,1.4l7.2,17.2Z" class="g2_5"/>
<path d="M327.1,221.1c1.5,-18,-11.8,-33.9,-29.8,-35.5c-17.9,-1.5,-33.8,11.8,-35.4,29.8c-1.5,17.9,11.8,33.8,29.7,35.4c18,1.6,33.9,-11.8,35.5,-29.7Z" class="g2_5"/>
<image clip-path="url(#c35_5)" preserveAspectRatio="none" x="270" y="193" width="70" height="70" xlink:href="img/114.webp"/>
<image clip-path="url(#c36_5)" preserveAspectRatio="none" x="322" y="193" width="18" height="14" xlink:href="img/115.webp"/>
<image clip-path="url(#c37_5)" preserveAspectRatio="none" x="273" y="198" width="55" height="53" xlink:href="img/116.webp"/>
<image clip-path="url(#c38_5)" preserveAspectRatio="none" x="268" y="191" width="53" height="53" xlink:href="img/117.webp"/>
<image clip-path="url(#c39_5)" preserveAspectRatio="none" x="268" y="191" width="48" height="50" xlink:href="img/118.webp"/>
<image clip-path="url(#c3a_5)" preserveAspectRatio="none" x="271" y="193" width="50" height="51" xlink:href="img/119.webp"/>
<image clip-path="url(#c3b_5)" preserveAspectRatio="none" x="271" y="193" width="50" height="51" xlink:href="img/120.webp"/>
<path d="M311.6,1088.5l46,-33.6l-3.6,-5l-46,33.7Z" class="g2_5"/>
<path d="M367.9,1043.5l-26.2,7.6l11.1,15.1Z" class="g2_5"/>
<path d="M332.9,1100.3c1.5,-18,-11.8,-33.9,-29.8,-35.4c-18,-1.6,-33.8,11.7,-35.4,29.7c-1.6,18,11.7,33.8,29.7,35.4c18,1.6,33.9,-11.7,35.5,-29.7Z" class="g2_5"/>
<image clip-path="url(#c3c_5)" preserveAspectRatio="none" x="279" y="1074" width="65" height="59" xlink:href="img/121.webp"/>
<image clip-path="url(#c3d_5)" preserveAspectRatio="none" x="277" y="1123" width="3" height="10" xlink:href="img/122.webp"/>
<image clip-path="url(#c3e_5)" preserveAspectRatio="none" x="277" y="1132" width="10" height="10" xlink:href="img/123.webp"/>
<image clip-path="url(#c3f_5)" preserveAspectRatio="none" x="277" y="1132" width="3" height="7" xlink:href="img/124.webp"/>
<image clip-path="url(#c3g_5)" preserveAspectRatio="none" x="339" y="1132" width="5" height="10" xlink:href="img/125.webp"/>
<image clip-path="url(#c3h_5)" preserveAspectRatio="none" x="287" y="1129" width="52" height="4" xlink:href="img/126.webp"/>
<image clip-path="url(#c3i_5)" preserveAspectRatio="none" x="287" y="1132" width="3" height="9" xlink:href="img/127.webp"/>
<image clip-path="url(#c3j_5)" preserveAspectRatio="none" x="290" y="1132" width="49" height="9" xlink:href="img/128.webp"/>
<image clip-path="url(#c3k_5)" preserveAspectRatio="none" x="290" y="1132" width="1" height="9" xlink:href="img/129.webp"/>
<image clip-path="url(#c3l_5)" preserveAspectRatio="none" x="326" y="1074" width="5" height="4" xlink:href="img/130.webp"/>
<image clip-path="url(#c3m_5)" preserveAspectRatio="none" x="280" y="1077" width="54" height="54" xlink:href="img/131.webp"/>
<image clip-path="url(#c3n_5)" preserveAspectRatio="none" x="320" y="1071" width="5" height="2" xlink:href="img/132.webp"/>
<image clip-path="url(#c3o_5)" preserveAspectRatio="none" x="322" y="1071" width="4" height="4" xlink:href="img/133.webp"/>
<image clip-path="url(#c3p_5)" preserveAspectRatio="none" x="274" y="1071" width="7" height="1" xlink:href="img/134.webp"/>
<image clip-path="url(#c3q_5)" preserveAspectRatio="none" x="274" y="1071" width="6" height="52" xlink:href="img/135.webp"/>
<image clip-path="url(#c3r_5)" preserveAspectRatio="none" x="274" y="1071" width="50" height="50" xlink:href="img/136.webp"/>
<image clip-path="url(#c3s_5)" preserveAspectRatio="none" x="323" y="1074" width="3" height="4" xlink:href="img/137.webp"/>
<image clip-path="url(#c3t_5)" preserveAspectRatio="none" x="280" y="1117" width="46" height="6" xlink:href="img/138.webp"/>
<image clip-path="url(#c3u_5)" preserveAspectRatio="none" x="277" y="1121" width="3" height="2" xlink:href="img/139.webp"/>
<image clip-path="url(#c3v_5)" preserveAspectRatio="none" x="277" y="1074" width="49" height="49" xlink:href="img/140.webp"/>
<image clip-path="url(#c3w_5)" preserveAspectRatio="none" x="543" y="1036" width="62" height="63" xlink:href="img/141.webp"/>
<image clip-path="url(#c3x_5)" preserveAspectRatio="none" x="572" y="1076" width="33" height="22" xlink:href="img/142.webp"/>
<image clip-path="url(#c3y_5)" preserveAspectRatio="none" x="574" y="1078" width="31" height="20" xlink:href="img/143.webp"/>
<path d="M544.8,1041.6l39.7,40.9l4.4,-4.3l-39.8,-40.8Z" class="g2_5"/>
<path d="M597.2,1091.1L586,1066.2l-13.4,13.1Z" class="g2_5"/>
<image clip-path="url(#c3z_5)" preserveAspectRatio="none" x="156" y="1037" width="172" height="25" xlink:href="img/144.webp"/>
<image clip-path="url(#c40_5)" preserveAspectRatio="none" x="394" y="1046" width="123" height="21" xlink:href="img/145.webp"/>
<image clip-path="url(#c41_5)" preserveAspectRatio="none" x="395" y="1046" width="118" height="17" xlink:href="img/146.webp"/>
<image clip-path="url(#c42_5)" preserveAspectRatio="none" x="396" y="1047" width="117" height="15" xlink:href="img/147.webp"/>
<image clip-path="url(#c43_5)" preserveAspectRatio="none" x="396" y="1047" width="117" height="15" xlink:href="img/148.webp"/>
<path d="M406.6,1060.7l.8,-.2c-.6,-1.8,-1.2,-3.8,-1.8,-5.9c-.7,-2.6,-1.2,-4.6,-1.5,-5.9l-.1,-.2l-.3,-.3l-.3,-.3l-.3,.1c-.8,0,-1.6,.1,-2.5,.1h-.3l-.4,.4l-.2,.1v.2c-.5,1.7,-1.2,3.7,-1.9,5.9c-.3,.9,-1,3,-2.2,6.1l-.3,1.1l1.1,-.1c.8,0,1.5,-.1,2,-.1h.4l.4,-.4l.1,-.2l.1,-.1c.2,-1,.5,-2.1,.9,-3.4l-.7,-.2v.7c1.4,0,2.6,0,3.8,0v-.8l-.8,.2c.4,1.6,.7,2.8,.9,3.5l.1,.2l.3,.4l.2,.2l2.6,-.1l.5,-.5l.3,-.3l-.1,-.4l-.8,.2l-.5,-.5H406l-1.6,.1v.8l.6,-.5l-.2,-.3l-.5,.6l.7,-.2c-.2,-.8,-.5,-2,-.9,-3.6l-.1,-.6h-.6c-1.2,0,-2.5,.1,-3.8,.1H399l-.1,.5c-.4,1.4,-.8,2.5,-1,3.4l.7,.3l-.5,-.6l-.2,.2l.5,.6v-.8c-.6,0,-1.3,0,-2.1,.1l.1,.8l.7,.2c1.1,-3.1,1.8,-5.2,2.1,-6.1l-.7,-.2l.7,.2c.8,-2.2,1.4,-4.2,1.9,-5.9l-.7,-.3l.5,.6l.2,-.2l-.5,-.5v.7c1,0,1.8,-.1,2.6,-.1l-.1,-.8l-.5,.6l.2,.2l.5,-.6l-.7,.2c.3,1.3,.8,3.3,1.6,5.9c.6,2.1,1.1,4.1,1.7,5.9l.7,-.2l-.5,-.5l.5,.5m-3.6,-4.9v-.8c-1.1,0,-2,.1,-2.9,.1v.7l.7,.3l.8,-2.4l.6,2.3l.8,-.2v-.8v.8l.7,-.2l-2,-7.1l-2.7,8.1h1.1c.9,0,1.9,0,2.9,-.1h1l-.3,-.9l-.7,.2m11.1,-3.7l.3,-.7c-.8,-.3,-1.6,-.4,-2.5,-.4c-1.6,0,-3,.6,-4,1.8c-.9,1.1,-1.4,2.5,-1.4,4c0,1.3,.4,2.6,1.2,3.5c.9,1.1,2.2,1.7,3.7,1.7c1.2,0,2.3,-.3,3.1,-1l.2,-.2l.1,-.3c0,-.4,0,-1.1,.1,-2.1l.1,-1.8l-1.4,1.2c-.9,.8,-1.6,1.1,-1.9,1.1c-.6,0,-.8,-.2,-1.1,-.6c-.3,-.4,-.5,-.9,-.5,-1.6c0,-.7,.2,-1.3,.6,-1.9c.4,-.5,.8,-.7,1.4,-.7c.4,0,.8,.1,1.2,.3l.3,.2l.8,-.3l.4,-.2v-.5c0,-.4,0,-.8,.1,-1.4v-.6l-.5,-.2l-.3,.7h-.7c-.1,.5,-.1,1,-.1,1.5h.7l-.3,-.7l-.4,.2l.4,.7l.4,-.7c-.6,-.4,-1.3,-.6,-2,-.6c-1,0,-2,.5,-2.6,1.4l.6,.5l-.6,-.5c-.6,.8,-.9,1.8,-.9,2.8c0,1,.2,1.8,.7,2.5l.6,-.4l-.6,.4c.5,.8,1.4,1.2,2.4,1.2c1,0,1.9,-.5,2.9,-1.4l-.5,-.6l-.7,-.1c-.1,1,-.1,1.7,-.2,2.1h.8l-.5,-.6c-.4,.4,-1.1,.7,-2.1,.7c-1.2,0,-1.9,-.4,-2.5,-1.1c-.6,-.7,-.9,-1.5,-.9,-2.6c0,-1.2,.4,-2.2,1,-3c.8,-.9,1.7,-1.3,2.9,-1.3c.7,0,1.4,.1,1.9,.3l.3,-.7h-.7h.7m6,7.9v-.8c-.6,0,-1.1,-.2,-1.1,-.2q-.1,-.1,-.1,-.4c0,-.3,0,-.6,0,-.9c0,-1.1,0,-2.5,0,-4.3l-.8,-.1v.8h2.6v-.7c0,-.6,.1,-1.1,.1,-1.6l.1,-.8H420c-.9,0,-1.5,.1,-1.9,.1v.7h.8c0,-1,0,-1.8,.1,-2.4l.2,-1.1l-3.8,.9v2l-.5,.1l-.6,.1l-.2,1.5l-.1,.4v.8h1.3v4.8c0,.9,.3,1.8,1,2.3c.6,.5,1.5,.7,2.5,.7c.4,0,.9,-.1,1.4,-.2l.5,-.1l.1,-1.6l.1,-.7l-.8,-.1v.8l-.8,-.1l-.1,1l.8,.1l-.2,-.8c-.4,.1,-.8,.2,-1,.2c-1.6,-.1,-1.9,-.4,-1.9,-1.5v-6.3h-2.1v.8h.8v-.3l.1,-.4l.6,-.1l.6,-.2v-2l1.5,-.4l-.1,-.7l-.8,-.1c-.1,.7,-.1,1.6,-.1,2.6v.8h.7c.4,0,1,0,2,-.1l-.1,-.7l-.7,-.1c-.1,.5,-.1,1.1,-.1,1.6h.8v-.7h-2.6v.7c0,1.9,-.1,3.3,-.1,4.4c0,.3,0,.6,0,.9h.8h-.8c0,.6,.3,1.3,.8,1.6c.5,.3,1.1,.5,1.9,.5l.1,-.7l-.8,-.1l.8,.1m4.4,-12.3v-.7c-1.1,0,-1.8,.1,-2.3,.1h-.6l-.1,.7c-.1,1.2,-.3,2.1,-.4,2.7l-.2,1l1.1,-.1c.7,-.2,1.2,-.2,1.5,-.3h.2l.4,-.4l.2,-.1l1.4,-3.7l-1.2,.1v.7l-.7,-.2l-.9,2.2l-.1,.1l.6,.6l-.1,-.8c-.3,.1,-.8,.1,-1.6,.3l.2,.7l.7,.2c.1,-.7,.3,-1.6,.4,-2.8l-.7,-.1v.7c.5,0,1.2,0,2.3,-.1l-.1,-.8l-.7,-.2l.7,.2m-.7,4l.4,-.6l-.3,-.2l-.3,-.1h-.3c-.5,.2,-1.1,.3,-1.9,.4l-.7,.2l.1,.7c.1,1,.1,2.2,.1,3.5c0,1.4,-.1,3.2,-.2,5.4v.9l.8,-.1c.7,0,1.4,-.1,2.2,-.1h.8l-.1,-.8c0,-1,0,-2.1,0,-3.2c0,-1.9,0,-3.9,.2,-5.9v-.5l-.4,-.2l-.4,.6H423c-.1,2.1,-.2,4.1,-.2,6c0,1.1,.1,2.2,.1,3.3h.8l-.1,-.8c-.7,0,-1.5,.1,-2.2,.1l.1,.8h.7c.2,-2.2,.2,-4.1,.2,-5.5c0,-1.3,0,-2.5,-.1,-3.7l-.8,.1l.2,.7c.8,-.1,1.5,-.3,2,-.4l-.2,-.7l-.3,.6l.2,.2l.4,-.7H423h.8m9.2,.1v-.7c-.6,0,-1.1,0,-1.5,0c-.1,0,-.2,0,-.4,0h-.2l-.4,.3l-.2,.2l-.1,.2c-.8,2.9,-1.4,5.1,-1.9,6.5l.7,.3l.8,-.2c-1,-3.8,-1.6,-6,-1.7,-6.7l-.1,-.3l-.5,-.3l-.2,-.2l-.3,.1c-.6,.1,-1.3,.1,-2.1,.2l-.9,.1l.3,.9c.7,2.3,1.5,5.2,2.5,8.9v.2l.3,.3l.3,.4l.4,-.1c1.2,-.1,2,-.2,2.2,-.2h.3l.4,-.4l.1,-.1v-.2c1,-3.1,2,-6.1,3,-8.9l.3,-1.1l-1.1,.1v.7l-.7,-.2c-1,2.8,-2,5.8,-2.9,8.9l.7,.3l-.5,-.6l-.2,.2l.5,.5v-.7c-.3,0,-1,.1,-2.3,.2l.1,.8l.6,-.5l-.2,-.2l-.6,.5l.8,-.2c-1,-3.8,-1.8,-6.8,-2.6,-9.1l-.7,.3l.1,.7c.7,0,1.5,-.1,2.1,-.2l-.1,-.8l-.4,.7l.2,.1l.4,-.6l-.7,.1c.2,.8,.7,3,1.7,6.7l.7,2.6l.8,-2.5c.4,-1.4,1.1,-3.6,1.9,-6.6l-.8,-.2l.5,.6l.2,-.1l-.5,-.6v.7c.1,0,.3,0,.4,0c.5,0,1,0,1.6,0l-.1,-.8l-.7,-.2l.7,.2m7.9,3.3l.7,.1c0,-.7,0,-1.1,0,-1.4c0,-.1,0,-.2,0,-.3l-.7,.1h.7c0,-.9,-.4,-1.8,-1.1,-2.2c-.6,-.3,-1.3,-.3,-2.2,-.3c-1.7,0,-3.2,.5,-4.2,1.5l.5,.5l-.5,-.5c-1.2,1,-1.7,2.5,-1.7,4.2v.3c0,1.3,.4,2.5,1.2,3.4c.8,1,1.9,1.5,3.2,1.5c.9,0,1.7,-.3,2.6,-.9l-.4,-.7l-.4,.7c.3,.2,.5,.3,.8,.5c.4,.2,.8,.3,1.3,.3l.6,.1l.3,-1v-.2c0,-.3,0,-1.5,0,-3.6c0,-.4,0,-1,0,-2.1h-.7l.7,.1l-.7,-.1h-.8c0,1.1,0,1.7,0,2.1c0,2.1,0,3.3,0,3.6h.8l-.8,-.2l-.1,.3l.7,.3l.1,-.8c-.3,0,-.5,-.1,-.6,-.2c-.3,-.1,-.5,-.3,-.8,-.4l-.4,-.3l-.4,.3c-.7,.5,-1.3,.7,-1.8,.7c-.9,0,-1.5,-.3,-2,-1c-.5,-.6,-.8,-1.4,-.9,-2.4v-.3c0,-1.4,.4,-2.4,1.2,-3.1c.8,-.7,1.8,-1.1,3.2,-1.1c.8,0,1.3,.1,1.4,.2c.2,.1,.4,.2,.4,.8v.1h.1h-.1h.1h-.1v.1c0,.2,0,.7,0,1.3h.8m-2.2,-1.5l-.6,.5l.4,-.2h-.4v.2l.4,-.2h-.4c0,.5,-.1,2.2,-.1,4.9h.8l-.5,-.5c-.5,.4,-.8,.5,-1.2,.5c-.4,0,-.5,-.1,-.7,-.4c-.2,-.3,-.4,-.7,-.4,-1.4v-.2c0,-1,.2,-1.6,.6,-2.1c.3,-.4,.7,-.6,1.4,-.6h.2v-.2l-.1,.2h.1v-.2l-.1,.2l.6,-.5l.5,-.5c-.2,-.3,-.6,-.5,-1,-.5v.8l.1,-.8H438c-1,0,-2,.4,-2.6,1.2c-.6,.8,-.9,1.8,-.9,3v.2c0,.9,.2,1.7,.6,2.3c.5,.7,1.2,1,2,1c.8,0,1.6,-.3,2.2,-.9l.2,-.2v-.3c.1,-2.8,.1,-4.4,.1,-5c0,-.4,-.2,-.6,-.4,-.8l-.5,.5m9.1,6.4v-.8c-.6,0,-1.1,-.2,-1.2,-.2v-.1v.1q0,-.1,0,-.4c-.1,-.3,-.1,-.6,-.1,-.9c0,-1.1,.1,-2.5,.1,-4.3l-.8,-.1v.8h2.6v-.7c0,-.6,0,-1.1,.1,-1.6l.1,-.8h-.9c-.9,0,-1.6,.1,-1.9,.1v.7h.8c0,-1,0,-1.8,.1,-2.4l.1,-1.1l-3.7,.9l-.1,2l-.5,.1l-.5,.1l-.2,1.5h-.1v1.2H443v4.8c0,.9,.3,1.8,1,2.3c.6,.5,1.5,.7,2.4,.7c.5,0,1,-.1,1.5,-.2l.5,-.1l.1,-1.6l.1,-.7l-.8,-.1v.8l-.8,-.1l-.1,1l.8,.1l-.2,-.8c-.4,.1,-.8,.2,-1.1,.2c-1.6,-.1,-1.8,-.4,-1.9,-1.5v-6.3h-2v.8h.8v-.7l.6,-.1l.6,-.2l.1,-2l1.5,-.4l-.1,-.7l-.8,-.1c-.1,.7,-.1,1.6,-.2,2.6v.8h.8c.4,0,1,0,2,-.1l-.1,-.7l-.7,-.1c-.1,.5,-.1,1.1,-.1,1.6h.7v-.7h-2.5v.7c-.1,1.9,-.1,3.3,-.1,4.4c0,.3,0,.6,0,.9h.8H445c0,.6,.3,1.3,.8,1.6c.5,.3,1.1,.5,1.9,.5l.1,-.7l-.8,-.1l.8,.1m4.4,-12.3v-.7c-1.1,0,-1.8,.1,-2.3,.1h-.6l-.1,.7c-.1,1.2,-.3,2.1,-.4,2.7l-.2,1l1.1,-.1c.7,-.2,1.2,-.2,1.5,-.3h.2l.4,-.4l.1,-.1l1.4,-3.7l-1.1,.1v.7l-.7,-.2l-.9,2.2l-.1,.1l.6,.6l-.1,-.8c-.3,.1,-.8,.1,-1.6,.3l.1,.7l.8,.2c.1,-.7,.3,-1.6,.4,-2.8l-.7,-.1v.7c.5,0,1.2,0,2.2,-.1v-.8l-.7,-.2l.7,.2m-.7,4l.3,-.6l-.2,-.2l-.3,-.1H451c-.5,.2,-1.1,.3,-1.9,.4l-.7,.2l.1,.7c.1,1,.1,2.2,.1,3.5c0,1.4,-.1,3.2,-.2,5.4l-.1,.9l.9,-.1c.7,0,1.4,-.1,2.2,-.1h.7v-.8c0,-1,-.1,-2.1,-.1,-3.2c0,-1.9,.1,-3.9,.2,-5.9l.1,-.5l-.5,-.2l-.3,.6h-.8c-.1,2.1,-.2,4.1,-.2,6c0,1.1,0,2.2,.1,3.3h.7v-.8c-.8,0,-1.5,.1,-2.2,.1l.1,.8h.7c.2,-2.2,.2,-4.1,.2,-5.5c0,-1.3,0,-2.5,-.1,-3.7l-.8,.1l.2,.7c.8,-.1,1.4,-.3,2,-.4l-.2,-.7l-.4,.6l.3,.2l.4,-.7h-.8h.8m9.1,8.1l.6,.5c.8,-1.1,1.1,-2.4,1.1,-3.9v-.3c0,-1.5,-.4,-2.7,-1.2,-3.7c-.8,-.9,-2.1,-1.4,-3.5,-1.4c-1.6,0,-3,.5,-4,1.7c-.8,1,-1.2,2.3,-1.2,3.9v.3c.1,1.5,.5,2.8,1.4,3.7c.8,1,2.1,1.4,3.5,1.4c1.6,0,3,-.6,3.9,-1.7l-.6,-.5l-.6,-.5c-.6,.8,-1.4,1.2,-2.7,1.2c-1.1,0,-1.8,-.3,-2.4,-.9c-.5,-.6,-.9,-1.5,-.9,-2.7v-.3c0,-1.3,.3,-2.3,.8,-2.9c.7,-.8,1.5,-1.2,2.8,-1.2c1.1,0,1.8,.3,2.4,.9c.5,.6,.8,1.5,.8,2.7v.3c0,1.3,-.3,2.3,-.8,2.9l.6,.5m-1.1,-3.5l-.8,.1v.3c-.1,2,-.4,2.3,-1.4,2.4c-.4,0,-.6,-.1,-.8,-.5c-.2,-.4,-.4,-.9,-.4,-1.6c0,-.2,0,-.3,0,-.5c.1,-2.1,.5,-2.5,1.4,-2.6c.7,.1,1.1,.4,1.2,2.5l.8,-.1h.7c0,-2.2,-.9,-3.9,-2.7,-3.9c-.9,0,-1.8,.4,-2.3,1.2c-.5,.8,-.6,1.7,-.6,2.9c0,.2,0,.4,0,.5c0,.9,.2,1.7,.6,2.4c.4,.7,1.3,1.2,2.1,1.2c.9,0,1.8,-.4,2.3,-1.1c.5,-.8,.6,-1.7,.7,-2.8l-.1,-.4h-.7m11.2,4.6h.7c0,-.7,0,-1.3,0,-1.8h-.8h.8c0,-.5,0,-1.3,0,-2.3c0,-.6,0,-1.1,0,-1.5c0,-.3,0,-.6,0,-.8h-.8h.8c0,-1,-.2,-1.9,-.8,-2.6c-.6,-.7,-1.5,-1,-2.5,-.9c-1.3,-.1,-2.5,.2,-3.5,.8l.3,.7l.3,-.7c-.8,-.3,-1.2,-.5,-1.7,-.5c-.4,0,-.6,.2,-.8,.3l-.4,.2v.5c.1,1.2,.1,2.3,.1,3.2h.8h-.8c0,.1,0,.3,0,.4c0,1.1,0,2.8,-.1,5.1v.9l.8,-.1c.7,-.1,1.4,-.1,2,-.1h.3l.4,-.4l.3,-.3l-.1,-.3c0,-1,0,-2.1,0,-3.3c0,-1,0,-2.1,0,-3.2l-.7,-.1l.4,.6c.6,-.4,1.2,-.6,1.6,-.6q.2,0,.3,.2c.2,.2,.3,.5,.3,1h.7h-.7c0,.7,0,1.6,-.1,2.7h.8h-.8c0,1.4,0,2.3,0,2.8v.3l.3,.4l.3,.3h.4c.5,-.1,1.2,-.1,1.9,-.1l.8,-.1l-.1,-.7h-.7l-.1,-.8c-.7,.1,-1.4,.1,-2,.2l.1,.7l.6,-.5l-.2,-.2l-.6,.5h.8c0,-.5,0,-1.4,.1,-2.8c0,-1.1,0,-2,0,-2.7v-.1c0,-.6,-.1,-1.2,-.4,-1.7c-.4,-.6,-1,-1,-1.7,-1c-.9,0,-1.7,.4,-2.5,1.1l-.3,.2v.3c0,1.2,0,2.3,0,3.3c0,1.2,0,2.3,0,3.4l.8,-.1l-.6,-.5l-.1,.2l.5,.5v-.8c-.7,.1,-1.4,.1,-2.1,.2l.1,.7l.7,.1c.1,-2.3,.2,-4,.2,-5.2c0,-.1,0,-.3,-.1,-.4c0,-1,0,-2,-.1,-3.3h-.7l.4,.7l.1,-.1l-.1,-.2v.2h.1l-.1,-.2v.2c0,0,.5,.1,1.2,.4l.3,.2l.3,-.2c.8,-.5,1.7,-.7,2.8,-.7c1.3,.1,1.6,.4,1.8,2v.1c0,.2,0,.4,0,.7c0,.4,0,.9,0,1.5c0,1,-.1,1.8,-.1,2.3c.1,.5,.1,1.2,.1,1.8h.8l-.1,-.8l.1,.8m12.9,-.6l.4,.6c1.2,-.8,1.8,-2.1,1.7,-3.6v-.1c0,-1.3,-.6,-2.5,-1.8,-3.2v-.1h-.1c-.8,-.4,-1.7,-.8,-2.6,-1.2c-.9,-.5,-1,-.8,-1,-1v-.1c0,-.3,0,-.4,.3,-.6c.3,-.1,.6,-.2,1.1,-.2c.5,0,1.3,.2,2.2,.7l.3,.2l.7,-.4l.4,-.2v-.4c0,-.5,.1,-1,.1,-1.5l.1,-.3l-.3,-.4l-.1,-.2l-.3,-.1c-1.1,-.4,-2.2,-.6,-3.1,-.6c-1.2,0,-2.3,.3,-3.3,.9c-1.1,.7,-1.8,2,-1.8,3.4c0,1.4,.7,2.6,1.8,3.3v.1h.1c.9,.4,1.7,.8,2.6,1.2l.3,-.6l-.3,.6c.8,.5,.9,.8,.9,1.2c0,.4,-.1,.6,-.4,.8c-.2,.2,-.6,.3,-1.2,.3c-.6,0,-1.3,-.2,-2.2,-.8l-.3,-.3l-.8,.4l-.4,.1l-.1,.5c0,.6,-.1,1.2,-.1,1.7l-.1,.5l.5,.2c1.2,.6,2.4,.9,3.6,.9c1.4,0,2.6,-.3,3.6,-1.1l-.4,-.6l-.5,-.6c-.7,.5,-1.5,.8,-2.7,.8c-1,0,-2,-.2,-2.9,-.7l-.4,.7l.8,.1c.1,-.6,.1,-1.1,.2,-1.8h-.8l.3,.7l.4,-.2l-.3,-.7l-.5,.6c1,.7,2.1,1.2,3.1,1.2c.8,0,1.5,-.2,2.1,-.6c.7,-.5,1.1,-1.3,1.1,-2.1c0,-1.1,-.8,-2,-1.9,-2.5c-.8,-.4,-1.7,-.9,-2.6,-1.3l-.3,.7l.4,-.6c-.7,-.5,-1,-1.1,-1.1,-2.1h-.7h.7c.1,-1,.4,-1.6,1.1,-2.1c.7,-.4,1.5,-.6,2.5,-.6c.7,0,1.6,.1,2.6,.5l.3,-.8l-.7,.5l.1,.1l.7,-.4l-.8,-.1c0,.5,-.1,1.1,-.1,1.6h.7l-.3,-.6l-.3,.1l.3,.7l.4,-.7c-1,-.5,-2,-.9,-2.9,-.9c-.7,0,-1.4,.2,-1.9,.6l.4,.6l-.4,-.7c-.7,.4,-1.1,1.2,-1.1,1.9v.1c.1,1.1,.9,1.8,1.9,2.3c.9,.5,1.8,.9,2.7,1.3l.3,-.7l-.4,.6c.8,.6,1.1,1.2,1.1,2h.8h-.8v.1c0,1.1,-.3,1.8,-1.1,2.4l.5,.6m5.4,-12.7l-.1,-.8c-.9,.2,-1.6,.4,-2.2,.5l-.7,.2l.1,.6c.1,1.9,.1,3.9,.1,6.1c0,1.6,0,3.9,-.1,6.8v.9l.8,-.1c.9,0,1.6,-.1,2.2,-.1h.7v-1.3c-.1,-1.3,-.1,-2.7,-.1,-4.3c0,-.7,0,-1.4,0,-2v-.1c0,-3.4,.1,-5.6,.1,-6.4v-1l-.9,.2l.1,.8h-.7c-.1,.8,-.1,3,-.1,6.4c0,.7,0,1.4,0,2.1c0,1.6,0,3,0,4.3l.1,.6h.7v-.8c-.5,0,-1.3,.1,-2.2,.1l.1,.8h.7c.1,-3,.1,-5.2,.1,-6.9c0,-2.2,0,-4.3,-.1,-6.2l-.8,.1l.2,.7c.6,-.1,1.4,-.3,2.2,-.5l-.2,-.7h-.7h.7m8.8,12.2l.6,.5c.8,-1.1,1.1,-2.4,1.1,-3.9v-.3c0,-1.5,-.4,-2.7,-1.2,-3.7c-.8,-.9,-2.1,-1.4,-3.5,-1.4c-1.6,0,-3,.5,-4,1.7c-.8,1,-1.2,2.3,-1.2,3.9v.3c.1,1.5,.5,2.8,1.4,3.7c.8,1,2.1,1.4,3.5,1.4c1.6,0,3,-.6,3.9,-1.7l-.6,-.5l-.6,-.5c-.6,.8,-1.4,1.2,-2.7,1.2c-1.1,0,-1.9,-.3,-2.4,-.9c-.5,-.6,-.9,-1.5,-.9,-2.7v-.3c0,-1.3,.3,-2.3,.8,-2.9c.7,-.8,1.5,-1.2,2.8,-1.2c1.1,0,1.8,.3,2.4,.9h-.1c.6,.6,.9,1.5,.9,2.7v.3c0,1.3,-.3,2.3,-.8,2.9l.6,.5m-1.1,-3.5l-.8,.1v.3c-.1,2,-.4,2.3,-1.4,2.4c-.4,0,-.6,-.1,-.8,-.5c-.2,-.4,-.4,-.9,-.4,-1.6c0,-.2,0,-.3,0,-.5c.1,-2.1,.5,-2.5,1.4,-2.6c.7,.1,1.1,.4,1.2,2.5l.8,-.1h.7c0,-2.2,-.9,-3.9,-2.7,-3.9c-.9,0,-1.8,.4,-2.3,1.2c-.5,.8,-.6,1.7,-.7,2.9c0,.2,0,.4,.1,.5c0,.9,.2,1.7,.6,2.4c.4,.7,1.3,1.2,2.1,1.2c.9,0,1.8,-.4,2.3,-1.1c.5,-.8,.6,-1.7,.6,-2.8v-.4h-.7m8.2,3.7v-.8c-.6,0,-1.1,-.2,-1.1,-.2q-.1,-.1,-.1,-.4c0,-.3,0,-.6,0,-.9c0,-1.1,0,-2.5,0,-4.3l-.8,-.1v.8h2.6v-.7c0,-.6,.1,-1.1,.1,-1.6l.1,-.8h-.9c-.9,0,-1.6,.1,-1.9,.1v.7h.8c0,-1,0,-1.8,.1,-2.4l.2,-1.1l-3.8,.9l-.1,2l-.5,.1l-.5,.1l-.2,1.5l-.1,.4v.8h1.3v4.8c0,.9,.3,1.8,1,2.3c.6,.5,1.5,.7,2.5,.7c.4,0,.9,-.1,1.4,-.2l.5,-.1l.1,-1.6l.1,-.7l-.8,-.1v.8l-.8,-.1l-.1,1l.8,.1l-.2,-.8c-.4,.1,-.8,.2,-1,.2c-1.7,-.1,-1.9,-.4,-2,-1.5v-6.3h-2v.8h.8v-.3l.1,-.4l.5,-.1l.6,-.2l.1,-2l1.5,-.4l-.1,-.7l-.8,-.1c-.1,.7,-.1,1.6,-.1,2.6l-.1,.8h.8c.4,0,1,0,2,-.1l-.1,-.7l-.7,-.1c-.1,.5,-.1,1.1,-.1,1.6h.7v-.7h-2.5v.7c-.1,1.9,-.1,3.3,-.1,4.4c0,.3,0,.6,0,.9h.8h-.8c0,.6,.3,1.3,.8,1.6c.5,.3,1.1,.5,1.9,.5l.1,-.7l-.8,-.1l.8,.1m7.3,-1.9h.8c-.1,-1.1,-.5,-2.1,-1.3,-2.6h-.1c-.4,-.3,-1.1,-.6,-2.2,-.9c-.7,-.3,-.7,-.4,-.7,-.4l.2,-.1l-.4,-.7l.4,.7c.1,-.1,.4,-.1,.7,-.1c.4,0,.9,.1,1.6,.5l1,.5l.1,-1.1c.1,-.8,.2,-1.4,.2,-1.7v-.3l-.2,-.4l-.2,-.2h-.2c-.6,-.3,-1.3,-.4,-2,-.4c-1.2,0,-2.2,.2,-3,.7c-1.2,.6,-1.8,1.7,-1.8,3v.1c0,1.1,.5,2.1,1.4,2.6h.1c.2,.2,.8,.4,2,.8c.6,.3,.6,.4,.6,.4q0,.2,-.4,.4l.4,.7l-.4,-.7c-.3,.2,-.7,.3,-1.1,.3c-.2,0,-.5,0,-.8,-.1l-.2,.7l.2,-.7c-.3,-.1,-.7,-.2,-1,-.3l-.8,-.2l-.1,.8c-.2,.8,-.3,1.3,-.4,1.7v.2l.2,.4l.2,.3l.3,.1c.6,.2,1.2,.3,1.8,.3c1.9,0,3.4,-.4,4.5,-1.4c.8,-.8,1.4,-1.8,1.4,-2.8v-.1h-1.6v.1c0,.5,-.2,1.1,-.9,1.7c-.6,.6,-1.8,1,-3.4,1c-.4,0,-.8,-.1,-1.4,-.3l-.2,.8l.7,-.4l-.1,-.2l-.7,.4l.7,.1c.1,-.3,.2,-.8,.3,-1.6l-.7,-.1l-.2,.7c.3,.1,.7,.2,1,.3c.5,.1,.8,.1,1.2,.1c.7,0,1.3,-.1,1.8,-.4h.1c.6,-.3,1.1,-1,1.1,-1.8c0,-.9,-.8,-1.5,-1.6,-1.8c-1.1,-.4,-1.8,-.7,-1.8,-.7l-.4,.7l.4,-.7c-.5,-.3,-.7,-.6,-.7,-1.3v-.1c0,-.8,.3,-1.2,1,-1.7c.6,-.3,1.3,-.5,2.3,-.5c.5,0,1,.1,1.5,.3l.2,-.7l-.6,.4l.1,.2l.6,-.5H511c-.1,.3,-.1,.8,-.2,1.7h.8l.3,-.6c-.8,-.5,-1.6,-.8,-2.3,-.8c-.5,0,-1,.1,-1.4,.4h-.1c-.5,.2,-.9,.8,-.9,1.4v.1l.8,-.1h-.8c0,1,.9,1.6,1.7,1.8c1.1,.3,1.8,.6,1.9,.7l.4,-.6l-.4,.6c.4,.3,.6,.7,.6,1.4h.8Z" class="g4_5"/>
<image clip-path="url(#c44_5)" preserveAspectRatio="none" x="363" y="1016" width="32" height="32" xlink:href="img/149.webp"/>
<image clip-path="url(#c45_5)" preserveAspectRatio="none" x="363" y="1043" width="5" height="5" xlink:href="img/150.webp"/>
<image clip-path="url(#c46_5)" preserveAspectRatio="none" x="437" y="1015" width="41" height="31" xlink:href="img/151.webp"/>
<image clip-path="url(#c47_5)" preserveAspectRatio="none" x="437" y="1046" width="41" height="2" xlink:href="img/152.webp"/>
<image clip-path="url(#c48_5)" preserveAspectRatio="none" x="449" y="1047" width="5" height="1" xlink:href="img/153.webp"/>
<image clip-path="url(#c49_5)" preserveAspectRatio="none" x="514" y="1015" width="39" height="33" xlink:href="img/154.webp"/>
<image clip-path="url(#c4a_5)" preserveAspectRatio="none" x="543" y="1036" width="10" height="12" xlink:href="img/155.webp"/>
<image clip-path="url(#c4b_5)" preserveAspectRatio="none" x="544" y="1037" width="9" height="11" xlink:href="img/156.webp"/>
<image clip-path="url(#c4c_5)" preserveAspectRatio="none" x="514" y="1046" width="3" height="2" xlink:href="img/157.webp"/>
<image clip-path="url(#c4d_5)" preserveAspectRatio="none" x="601" y="1023" width="143" height="44" xlink:href="img/158.webp"/>
<image clip-path="url(#c4e_5)" preserveAspectRatio="none" x="601" y="1036" width="4" height="31" xlink:href="img/159.webp"/>
<g clip-path="url(#c4f_5)">
<path d="M-10,-.8H-32.9m950.6,0h22.9M-10,1285.3H-32.9m950.6,0h22.9M-.8,-10V-32.9m0,1327.4v22.9M908.5,-10V-32.9m0,1327.4v22.9" class="g5_5"/>
<path d="M-10,-.8H-32.9m950.6,0h22.9M-10,1285.3H-32.9m950.6,0h22.9M-.8,-10V-32.9m0,1327.4v22.9M908.5,-10V-32.9m0,1327.4v22.9" class="g6_5"/>
</g>
</svg>