<?xml version="1.0" encoding="UTF-8" standalone="no"?>
<!DOCTYPE svg PUBLIC "-//W3C//DTD SVG 1.1//EN"
"http://www.w3.org/Graphics/SVG/1.1/DTD/svg11.dtd">
<svg viewBox="0 0 908 1286" version="1.1" xmlns="http://www.w3.org/2000/svg" xmlns:xlink="http://www.w3.org/1999/xlink">
<defs>
<clipPath id="c0_22"><path d="M0,1285.7V0H909V1285.7Z"/></clipPath>
<clipPath id="c1_22"><path d="M93.1,95.7V43.3H816V95.7Z"/></clipPath>
<clipPath id="c2_22"><path d="M93.1,272.6V220.2H816v52.4Z"/></clipPath>
<clipPath id="c3_22"><path d="M335.6,297.3v-20h23v20Z"/></clipPath>
<clipPath id="c4_22"><path d="M93.1,1153.9v-52.3H816v52.3Z"/></clipPath>
<clipPath id="c5_22"><path d="M93.1,449.5V397.1H816v52.4Z"/></clipPath>
<clipPath id="c6_22"><path d="M93.1,644.3V592H816v52.3Z"/></clipPath>
<clipPath id="c7_22"><path d="M93.1,784.6V732.2H816v52.4Z"/></clipPath>
<clipPath id="c8_22"><path d="M840.6,918V892.9h25.1V918Z"/></clipPath>
<style type="text/css"><![CDATA[
.g0_22{
fill: #FFFFFF;
}
.g1_22{
}
]]></style>
</defs>
<path d="M0,0H909V1285.7H0V0Z" class="g0_22"/>
<image clip-path="url(#c0_22)" preserveAspectRatio="none" x="-21" y="-21" width="932" height="1328" xlink:href="img/1.jpg"/>
<image clip-path="url(#c1_22)" preserveAspectRatio="none" x="93" y="43" width="723" height="53" xlink:href="img/2.png"/>
<image clip-path="url(#c2_22)" preserveAspectRatio="none" x="93" y="220" width="723" height="53" xlink:href="img/3.png"/>
<image clip-path="url(#c3_22)" preserveAspectRatio="none" x="335" y="277" width="24" height="20" xlink:href="img/4.png"/>
<image clip-path="url(#c4_22)" preserveAspectRatio="none" x="93" y="1101" width="723" height="53" xlink:href="img/5.png"/>
<image clip-path="url(#c5_22)" preserveAspectRatio="none" x="93" y="397" width="723" height="53" xlink:href="img/6.png"/>
<image clip-path="url(#c6_22)" preserveAspectRatio="none" x="93" y="592" width="723" height="53" xlink:href="img/7.png"/>
<image clip-path="url(#c7_22)" preserveAspectRatio="none" x="93" y="732" width="723" height="53" xlink:href="img/8.png"/>
<image clip-path="url(#c8_22)" preserveAspectRatio="none" x="840" y="893" width="26" height="25" xlink:href="img/9.png"/>
<path d="M30.8,1266.2l.2,-.2c.2,0,.2,-.1,.2,-.3c0,-.4,0,-.9,-.2,-1.7l-.2,-.7v-.2c0,-.1,-.1,-.2,-.3,-.2q-.1,0,-.2,.1c-.1,.1,-.2,.1,-.3,.1c0,0,-.1,0,-.1,-.1c-.1,0,-.2,0,-.2,0c-.1,0,-.1,.1,-.2,.1c-.1,.1,-.3,.1,-.5,.1l-.2,.1l-.1,.2c0,.3,.1,.8,.3,1.4c.1,0,.2,0,.2,.1l.1,.2c.2,0,.3,0,.3,0c.1,.1,.2,.1,.2,.2l-.1,.2l-.2,.2l-2.4,.2c-.1,0,-.2,-.1,-.3,-.2v-.2c-.1,-.1,-.2,-1,-.3,-2.5l.1,-.2l.8,-.7c.7,-.6,1.7,-1.5,3,-2.6l.1,-.1c0,0,0,-.1,.1,-.2c0,-.1,0,-.2,0,-.4c0,-.2,.1,-.5,.1,-.9c.1,-.4,.2,-.7,.2,-.9c0,-1,-.1,-1.6,-.3,-1.8v-.2c.1,-.1,.2,-.2,.3,-.4l-.1,-.3l-.2,-.1c-.8,-.1,-1.5,-.1,-2.1,-.1c-.2,0,-.6,0,-1.2,.1c-.5,.1,-.9,.1,-1.2,.1c-.2,.2,-.4,.3,-.7,.5h-.2l-.2,-.1c-.1,-.2,-.1,-.3,-.3,-.3h-.2l-.1,.2c-.2,.7,-.3,2,-.3,4c0,.2,.1,.3,.3,.3c.1,0,.2,-.1,.4,-.2c.1,-.1,.2,-.2,.3,-.1c.1,-.1,.3,-.1,.5,-.1l.1,.2c.1,.4,.3,.6,.4,.6h.1l.2,-.2v-.2c0,-.3,0,-1.1,0,-2.4c0,-.7,0,-1.2,0,-1.3c.2,-.3,.6,-.4,1.2,-.4c.4,0,.7,.8,.9,2.4c.1,.9,.1,1.9,.1,2.9l-.1,.3c-.7,.6,-1.9,1.6,-3.4,2.9c-.2,.2,-.5,.4,-.8,.7c-.1,.2,-.2,.5,-.2,1.1c0,.1,0,.2,.1,.3l.1,.1c.1,0,.4,.1,.9,.3l.1,.2v.1c.2,.3,.3,.5,.5,.5c.4,0,1.3,-.1,2.7,-.2c1.5,-.2,2.2,-.3,2.3,-.3Z" class="g1_22"/>
<path d="M38.6,1266.2l.2,-.2c.1,0,.2,-.1,.2,-.3c0,-.4,-.1,-.9,-.2,-1.7l-.2,-.7v-.2c-.1,-.1,-.2,-.2,-.3,-.2c-.1,0,-.2,0,-.3,.1q-.1,.1,-.2,.1c0,0,-.1,0,-.2,-.1c0,0,-.1,0,-.1,0c-.1,0,-.2,.1,-.3,.1c-.1,.1,-.2,.1,-.4,.1l-.2,.1l-.1,.2c0,.3,.1,.8,.3,1.4q.1,0,.2,.1l.1,.2c.1,0,.2,0,.3,0q.1,.1,.1,.2v.2l-.2,.2l-2.5,.2c-.1,0,-.2,-.1,-.2,-.2v-.2c-.1,-.1,-.2,-1,-.3,-2.5l.1,-.2l.8,-.7c.6,-.6,1.6,-1.5,3,-2.6v-.1c0,0,.1,-.1,.1,-.2c.1,-.1,.1,-.2,.1,-.4c0,-.2,.1,-.5,.1,-.9c.1,-.4,.1,-.7,.1,-.9c0,-1,0,-1.6,-.2,-1.8v-.2c.1,-.1,.2,-.2,.3,-.4l-.1,-.3l-.2,-.1c-.8,-.1,-1.5,-.1,-2.1,-.1c-.3,0,-.7,0,-1.2,.1c-.5,.1,-.9,.1,-1.2,.1c-.2,.2,-.5,.3,-.7,.5h-.3l-.1,-.1c-.1,-.2,-.2,-.3,-.3,-.3h-.2l-.2,.2c-.1,.7,-.2,2,-.2,4c0,.2,.1,.3,.3,.3c.1,0,.2,-.1,.3,-.2c.1,-.1,.3,-.2,.4,-.1c.1,-.1,.3,-.1,.4,-.1l.2,.2c.1,.4,.2,.6,.4,.6l.3,-.2v-.2c0,-.3,-.1,-1.1,-.1,-2.4c0,-.7,.1,-1.2,.1,-1.3c.2,-.3,.6,-.4,1.2,-.4c.4,0,.7,.8,.8,2.4c.1,.9,.2,1.9,.2,2.9l-.1,.3c-.8,.6,-1.9,1.6,-3.5,2.9c-.1,.2,-.4,.4,-.7,.7c-.2,.2,-.2,.5,-.2,1.1c0,.1,0,.2,0,.3l.2,.1c.1,0,.4,.1,.8,.3l.2,.2v.1c.1,.3,.3,.5,.5,.5c.4,0,1.3,-.1,2.7,-.2c1.5,-.2,2.2,-.3,2.3,-.3Z" class="g1_22"/>
</svg>