<?xml version="1.0" encoding="UTF-8" standalone="no"?>
<!DOCTYPE svg PUBLIC "-//W3C//DTD SVG 1.1//EN"
"http://www.w3.org/Graphics/SVG/1.1/DTD/svg11.dtd">
<svg viewBox="0 0 908 1285" version="1.1" xmlns="http://www.w3.org/2000/svg" xmlns:xlink="http://www.w3.org/1999/xlink">
<defs>
<clipPath id="c0_26"><path d="M-33.6,182.7V-33.7H292V182.7Z"/></clipPath>
<clipPath id="c1_26"><path d="M291.4,182.7V-33.7H617.3V182.7Z"/></clipPath>
<clipPath id="c2_26"><path d="M616.7,182.7V-33.7H942.3V182.7Z"/></clipPath>
<clipPath id="c3_26"><path d="M-33.6,399.5V182.1H292V399.5Z"/></clipPath>
<clipPath id="c4_26"><path d="M291.4,399.5V182.1H617.3V399.5Z"/></clipPath>
<clipPath id="c5_26"><path d="M616.7,399.5V182.1H942.3V399.5Z"/></clipPath>
<clipPath id="c6_26"><path d="M-33.6,615.9v-217H292v217Z"/></clipPath>
<clipPath id="c7_26"><path d="M616.7,615.9v-217H942.3v217Z"/></clipPath>
<clipPath id="c8_26"><path d="M-33.6,832.4v-217H292v217Z"/></clipPath>
<clipPath id="c9_26"><path d="M616.7,832.4v-217H942.3v217Z"/></clipPath>
<clipPath id="ca_26"><path d="M-33.6,1049.2V831.8H292v217.4Z"/></clipPath>
<clipPath id="cb_26"><path d="M616.7,1049.2V831.8H942.3v217.4Z"/></clipPath>
<clipPath id="cc_26"><path d="M-33.6,1265.7V1048.6H292v217.1Z"/></clipPath>
<clipPath id="cd_26"><path d="M616.7,1265.7V1048.6H942.3v217.1Z"/></clipPath>
<clipPath id="ce_26"><path d="M-33.6,1319.2v-54.1H942.3v54.1Z"/></clipPath>
</defs>
<image clip-path="url(#c0_26)" preserveAspectRatio="none" x="-33" y="-33" width="325" height="216" xlink:href="img/1.jpg"/>
<image clip-path="url(#c1_26)" preserveAspectRatio="none" x="291" y="-33" width="326" height="216" xlink:href="img/2.jpg"/>
<image clip-path="url(#c2_26)" preserveAspectRatio="none" x="617" y="-33" width="326" height="216" xlink:href="img/3.jpg"/>
<image clip-path="url(#c3_26)" preserveAspectRatio="none" x="-33" y="182" width="325" height="217" xlink:href="img/4.jpg"/>
<image clip-path="url(#c4_26)" preserveAspectRatio="none" x="291" y="182" width="326" height="217" xlink:href="img/5.jpg"/>
<image clip-path="url(#c5_26)" preserveAspectRatio="none" x="617" y="182" width="326" height="217" xlink:href="img/6.jpg"/>
<image clip-path="url(#c6_26)" preserveAspectRatio="none" x="-33" y="399" width="325" height="217" xlink:href="img/7.jpg"/>
<image preserveAspectRatio="none" x="291" y="399" width="326" height="217" xlink:href="img/8.jpg"/>
<image clip-path="url(#c7_26)" preserveAspectRatio="none" x="617" y="399" width="326" height="217" xlink:href="img/9.jpg"/>
<image clip-path="url(#c8_26)" preserveAspectRatio="none" x="-33" y="615" width="325" height="217" xlink:href="img/10.jpg"/>
<image preserveAspectRatio="none" x="291" y="615" width="326" height="217" xlink:href="img/11.jpg"/>
<image clip-path="url(#c9_26)" preserveAspectRatio="none" x="617" y="615" width="326" height="217" xlink:href="img/12.jpg"/>
<image clip-path="url(#ca_26)" preserveAspectRatio="none" x="-33" y="832" width="325" height="217" xlink:href="img/13.jpg"/>
<image preserveAspectRatio="none" x="291" y="832" width="326" height="217" xlink:href="img/14.jpg"/>
<image clip-path="url(#cb_26)" preserveAspectRatio="none" x="617" y="832" width="326" height="217" xlink:href="img/15.jpg"/>
<image clip-path="url(#cc_26)" preserveAspectRatio="none" x="-33" y="1049" width="325" height="217" xlink:href="img/16.jpg"/>
<image preserveAspectRatio="none" x="291" y="1049" width="326" height="217" xlink:href="img/17.jpg"/>
<image clip-path="url(#cd_26)" preserveAspectRatio="none" x="617" y="1049" width="326" height="217" xlink:href="img/18.jpg"/>
<image clip-path="url(#ce_26)" preserveAspectRatio="none" x="-33" y="1265" width="976" height="55" xlink:href="img/19.jpg"/>
</svg>