<?xml version="1.0" encoding="UTF-8" standalone="no"?>
<!DOCTYPE svg PUBLIC "-//W3C//DTD SVG 1.1//EN"
"http://www.w3.org/Graphics/SVG/1.1/DTD/svg11.dtd">
<svg viewBox="0 0 908 1285" version="1.1" xmlns="http://www.w3.org/2000/svg" xmlns:xlink="http://www.w3.org/1999/xlink">
<defs>
<clipPath id="c0_42"><path d="M-32.4,238V-32.1H238.1V238Z"/></clipPath>
<clipPath id="c1_42"><path d="M237.5,238V-32.1H508.9V238Z"/></clipPath>
<clipPath id="c2_42"><path d="M508.3,238V-32.1H779.4V238Z"/></clipPath>
<clipPath id="c3_42"><path d="M778.8,400V-32.1H941.1V400Z"/></clipPath>
<clipPath id="c4_42"><path d="M-32.4,507.9V237.4H238.1V507.9Z"/></clipPath>
<clipPath id="c5_42"><path d="M778.8,832.2V399.4H941.1V832.2Z"/></clipPath>
<clipPath id="c6_42"><path d="M-32.4,778.1V507.3H238.1V778.1Z"/></clipPath>
<clipPath id="c7_42"><path d="M237.5,778.1V507.3H508.9V778.1Z"/></clipPath>
<clipPath id="c8_42"><path d="M508.3,778.1V507.3H779.4V778.1Z"/></clipPath>
<clipPath id="c9_42"><path d="M-32.4,1048V777.5H238.1V1048Z"/></clipPath>
<clipPath id="ca_42"><path d="M237.5,1048V777.5H508.9V1048Z"/></clipPath>
<clipPath id="cb_42"><path d="M508.3,1048V777.5H779.4V1048Z"/></clipPath>
<clipPath id="cc_42"><path d="M778.8,1264.2V831.6H941.1v432.6Z"/></clipPath>
<clipPath id="cd_42"><path d="M-32.4,1317.7V1047.4H238.1v270.3Z"/></clipPath>
<clipPath id="ce_42"><path d="M237.5,1317.7V1047.4H508.9v270.3Z"/></clipPath>
<clipPath id="cf_42"><path d="M508.3,1317.7V1047.4H779.4v270.3Z"/></clipPath>
<clipPath id="cg_42"><path d="M778.8,1317.7v-54.1H941.1v54.1Z"/></clipPath>
</defs>
<image clip-path="url(#c0_42)" preserveAspectRatio="none" x="-32" y="-32" width="270" height="270" xlink:href="img/1.jpg"/>
<image clip-path="url(#c1_42)" preserveAspectRatio="none" x="237" y="-32" width="272" height="270" xlink:href="img/2.jpg"/>
<image clip-path="url(#c2_42)" preserveAspectRatio="none" x="508" y="-32" width="271" height="270" xlink:href="img/3.jpg"/>
<image clip-path="url(#c3_42)" preserveAspectRatio="none" x="779" y="-32" width="163" height="432" xlink:href="img/4.jpg"/>
<image clip-path="url(#c4_42)" preserveAspectRatio="none" x="-32" y="237" width="270" height="271" xlink:href="img/5.jpg"/>
<image preserveAspectRatio="none" x="237" y="237" width="272" height="271" xlink:href="img/6.jpg"/>
<image preserveAspectRatio="none" x="508" y="237" width="271" height="271" xlink:href="img/7.jpg"/>
<image clip-path="url(#c5_42)" preserveAspectRatio="none" x="779" y="399" width="163" height="433" xlink:href="img/8.jpg"/>
<image clip-path="url(#c6_42)" preserveAspectRatio="none" x="-32" y="507" width="270" height="271" xlink:href="img/9.jpg"/>
<image clip-path="url(#c7_42)" preserveAspectRatio="none" x="237" y="507" width="272" height="271" xlink:href="img/10.jpg"/>
<image clip-path="url(#c8_42)" preserveAspectRatio="none" x="508" y="507" width="271" height="271" xlink:href="img/11.jpg"/>
<image clip-path="url(#c9_42)" preserveAspectRatio="none" x="-32" y="778" width="270" height="270" xlink:href="img/12.jpg"/>
<image clip-path="url(#ca_42)" preserveAspectRatio="none" x="237" y="778" width="272" height="270" xlink:href="img/13.jpg"/>
<image clip-path="url(#cb_42)" preserveAspectRatio="none" x="508" y="778" width="271" height="270" xlink:href="img/14.jpg"/>
<image clip-path="url(#cc_42)" preserveAspectRatio="none" x="779" y="832" width="163" height="432" xlink:href="img/15.jpg"/>
<image clip-path="url(#cd_42)" preserveAspectRatio="none" x="-32" y="1047" width="270" height="271" xlink:href="img/16.jpg"/>
<image clip-path="url(#ce_42)" preserveAspectRatio="none" x="237" y="1047" width="272" height="271" xlink:href="img/17.jpg"/>
<image clip-path="url(#cf_42)" preserveAspectRatio="none" x="508" y="1047" width="271" height="271" xlink:href="img/18.jpg"/>
<image clip-path="url(#cg_42)" preserveAspectRatio="none" x="779" y="1264" width="163" height="54" xlink:href="img/19.jpg"/>
</svg>