<?xml version="1.0" encoding="UTF-8" standalone="no"?>
<!DOCTYPE svg PUBLIC "-//W3C//DTD SVG 1.1//EN"
"http://www.w3.org/Graphics/SVG/1.1/DTD/svg11.dtd">
<svg viewBox="0 0 907 1284" version="1.1" xmlns="http://www.w3.org/2000/svg" xmlns:xlink="http://www.w3.org/1999/xlink">
<defs>
<clipPath id="c0_4"><path d="M0,1284.4V0H20.7V1284.4Z"/></clipPath>
<clipPath id="c1_4"><path d="M839.2,924.1V634.6H644.9V924.1ZM245.7,575.6v-104h-104v104Zm107.7,0V467.9h-104V575.6Zm454,-465.7V57.5H101.5v52.4ZM0,1284.4V0H907.6V935.6H480.2v288H907.6v60.8Z"/></clipPath>
<clipPath id="c2_4"><path d="M141.7,575.6v-104h104v104Z"/></clipPath>
<clipPath id="c3_4"><path d="M249.4,575.6V467.9h104V575.6Z"/></clipPath>
<clipPath id="c4_4"><path d="M101.5,109.9V57.5H807.4v52.4Z"/></clipPath>
<clipPath id="c5_4"><path d="M644.9,682.9V634.6h97.2v48.3Z"/></clipPath>
<clipPath id="c6_4"><path d="M742,682.9V634.6h97.2v48.3Z"/></clipPath>
<clipPath id="c7_4"><path d="M644.9,731.2V682.7h97.2v48.5Z"/></clipPath>
<clipPath id="c8_4"><path d="M742,731.2V682.7h97.2v48.5Z"/></clipPath>
<clipPath id="c9_4"><path d="M644.9,779.5V731.1h97.2v48.4Z"/></clipPath>
<clipPath id="ca_4"><path d="M742,779.5V731.1h97.2v48.4Z"/></clipPath>
<clipPath id="cb_4"><path d="M644.9,827.7V779.3h97.2v48.4Z"/></clipPath>
<clipPath id="cc_4"><path d="M742,827.7V779.3h97.2v48.4Z"/></clipPath>
<clipPath id="cd_4"><path d="M644.9,876V827.6h97.2V876Z"/></clipPath>
<clipPath id="ce_4"><path d="M742,876V827.6h97.2V876Z"/></clipPath>
<clipPath id="cf_4"><path d="M644.9,924.1V875.9h97.2v48.2Z"/></clipPath>
<clipPath id="cg_4"><path d="M742,924.1V875.9h97.2v48.2Z"/></clipPath>
<clipPath id="ch_4"><path d="M480.2,1223.6v-288H907.6v288Z"/></clipPath>
<clipPath id="ci_4"><path d="M0,1284.4V0H907.6V1284.4Z"/></clipPath>
<style type="text/css"><![CDATA[
.g0_4{
fill: none;
stroke: #FFFFFF;
stroke-width: 1.145;
stroke-linecap: butt;
stroke-linejoin: miter;
}
.g1_4{
fill: none;
stroke: #FFFFFF;
stroke-width: 1.909;
stroke-linecap: butt;
stroke-linejoin: miter;
}
.g2_4{
fill: none;
stroke: #000000;
stroke-width: 0.381;
stroke-linecap: butt;
stroke-linejoin: miter;
}
]]></style>
</defs>
<image clip-path="url(#c0_4)" preserveAspectRatio="none" x="-23" y="-22" width="44" height="1329" xlink:href="img/1.webp"/>
<image clip-path="url(#c1_4)" preserveAspectRatio="none" x="0" y="-22" width="930" height="1329" xlink:href="img/2.webp"/>
<image clip-path="url(#c2_4)" preserveAspectRatio="none" x="141" y="471" width="105" height="105" xlink:href="img/3.webp"/>
<image clip-path="url(#c3_4)" preserveAspectRatio="none" x="249" y="468" width="105" height="108" xlink:href="img/4.webp"/>
<image clip-path="url(#c4_4)" preserveAspectRatio="none" x="101" y="57" width="707" height="53" xlink:href="img/5.webp"/>
<image clip-path="url(#c5_4)" preserveAspectRatio="none" x="645" y="634" width="97" height="49" xlink:href="img/6.webp"/>
<image clip-path="url(#c6_4)" preserveAspectRatio="none" x="742" y="634" width="97" height="49" xlink:href="img/7.webp"/>
<image clip-path="url(#c7_4)" preserveAspectRatio="none" x="645" y="683" width="97" height="48" xlink:href="img/8.webp"/>
<image clip-path="url(#c8_4)" preserveAspectRatio="none" x="742" y="683" width="97" height="48" xlink:href="img/9.webp"/>
<image clip-path="url(#c9_4)" preserveAspectRatio="none" x="645" y="731" width="97" height="48" xlink:href="img/10.webp"/>
<image clip-path="url(#ca_4)" preserveAspectRatio="none" x="742" y="731" width="97" height="48" xlink:href="img/11.webp"/>
<image clip-path="url(#cb_4)" preserveAspectRatio="none" x="645" y="779" width="97" height="49" xlink:href="img/12.webp"/>
<image clip-path="url(#cc_4)" preserveAspectRatio="none" x="742" y="779" width="97" height="49" xlink:href="img/13.webp"/>
<image clip-path="url(#cd_4)" preserveAspectRatio="none" x="645" y="828" width="97" height="48" xlink:href="img/14.webp"/>
<image clip-path="url(#ce_4)" preserveAspectRatio="none" x="742" y="828" width="97" height="48" xlink:href="img/15.webp"/>
<image clip-path="url(#cf_4)" preserveAspectRatio="none" x="645" y="876" width="97" height="48" xlink:href="img/16.webp"/>
<image clip-path="url(#cg_4)" preserveAspectRatio="none" x="742" y="876" width="97" height="48" xlink:href="img/17.webp"/>
<image clip-path="url(#ch_4)" preserveAspectRatio="none" x="480" y="935" width="429" height="289" xlink:href="img/18.webp"/>
<path d="M499.7,983H842.5" class="g0_4"/>
<g clip-path="url(#ci_4)">
<path d="M-10,-.8H-32.9m950.6,0h22.9M-10,1285.3H-32.9m950.6,0h22.9M-.8,-10V-32.9m0,1327.4v22.9M908.5,-10V-32.9m0,1327.4v22.9" class="g1_4"/>
<path d="M-10,-.8H-32.9m950.6,0h22.9M-10,1285.3H-32.9m950.6,0h22.9M-.8,-10V-32.9m0,1327.4v22.9M908.5,-10V-32.9m0,1327.4v22.9" class="g2_4"/>
</g>
</svg>