<?xml version="1.0" encoding="UTF-8" standalone="no"?>
<!DOCTYPE svg PUBLIC "-//W3C//DTD SVG 1.1//EN"
"http://www.w3.org/Graphics/SVG/1.1/DTD/svg11.dtd">
<svg viewBox="0 0 909 1286" version="1.1" xmlns="http://www.w3.org/2000/svg" xmlns:xlink="http://www.w3.org/1999/xlink">
<defs>
<style type="text/css"><![CDATA[
.g0_5{
fill: none;
stroke: #CD071E;
stroke-width: 6.111;
stroke-linecap: butt;
stroke-linejoin: miter;
stroke-miterlimit: 4;
}
.g1_5{
fill: none;
stroke: #000000;
stroke-width: 0.916;
stroke-linecap: butt;
stroke-linejoin: miter;
stroke-miterlimit: 4;
}
]]></style>
</defs>
<image preserveAspectRatio="none" x="-1" y="-21" width="932" height="1329" xlink:href="../1/img/1.png"/>
<image preserveAspectRatio="none" x="41" y="53" width="836" height="413" xlink:href="img/2.png"/>
<image preserveAspectRatio="none" x="43" y="51" width="827" height="408" xlink:href="img/3.png"/>
<image preserveAspectRatio="none" x="385" y="63" width="146" height="141" xlink:href="img/4.png"/>
<image preserveAspectRatio="none" x="67" y="63" width="295" height="141" xlink:href="img/5.png"/>
<image preserveAspectRatio="none" x="553" y="63" width="295" height="141" xlink:href="img/6.png"/>
<image preserveAspectRatio="none" x="85" y="239" width="54" height="54" xlink:href="img/7.png"/>
<image preserveAspectRatio="none" x="178" y="239" width="53" height="53" xlink:href="img/8.png"/>
<image preserveAspectRatio="none" x="271" y="240" width="53" height="52" xlink:href="img/9.png"/>
<image preserveAspectRatio="none" x="364" y="239" width="52" height="53" xlink:href="img/10.png"/>
<image preserveAspectRatio="none" x="455" y="240" width="53" height="52" xlink:href="img/11.png"/>
<image preserveAspectRatio="none" x="548" y="240" width="53" height="52" xlink:href="img/12.png"/>
<image preserveAspectRatio="none" x="640" y="240" width="53" height="52" xlink:href="img/13.png"/>
<image preserveAspectRatio="none" x="733" y="240" width="53" height="52" xlink:href="img/14.png"/>
<image preserveAspectRatio="none" x="66" y="306" width="94" height="140" xlink:href="img/15.png"/>
<image preserveAspectRatio="none" x="161" y="306" width="93" height="140" xlink:href="img/16.png"/>
<image preserveAspectRatio="none" x="255" y="306" width="93" height="140" xlink:href="img/17.png"/>
<image preserveAspectRatio="none" x="349" y="306" width="94" height="140" xlink:href="img/18.png"/>
<image preserveAspectRatio="none" x="444" y="306" width="93" height="140" xlink:href="img/19.png"/>
<image preserveAspectRatio="none" x="538" y="306" width="94" height="140" xlink:href="img/20.png"/>
<image preserveAspectRatio="none" x="634" y="306" width="93" height="140" xlink:href="img/21.png"/>
<image preserveAspectRatio="none" x="728" y="306" width="93" height="140" xlink:href="img/22.png"/>
<image preserveAspectRatio="none" x="108" y="95" width="48" height="44" xlink:href="img/23.png"/>
<image preserveAspectRatio="none" x="106" y="87" width="51" height="53" xlink:href="img/24.png"/>
<image preserveAspectRatio="none" x="99" y="156" width="46" height="42" xlink:href="img/25.png"/>
<image preserveAspectRatio="none" x="95" y="147" width="52" height="54" xlink:href="img/26.png"/>
<image preserveAspectRatio="none" x="141" y="130" width="45" height="44" xlink:href="img/27.png"/>
<image preserveAspectRatio="none" x="134" y="122" width="54" height="55" xlink:href="img/28.png"/>
<image preserveAspectRatio="none" x="70" y="117" width="46" height="48" xlink:href="img/29.png"/>
<image preserveAspectRatio="none" x="63" y="110" width="54" height="53" xlink:href="img/30.png"/>
<image preserveAspectRatio="none" x="200" y="169" width="48" height="48" xlink:href="img/31.png"/>
<image preserveAspectRatio="none" x="196" y="166" width="51" height="48" xlink:href="img/32.png"/>
<image preserveAspectRatio="none" x="196" y="72" width="48" height="44" xlink:href="img/33.png"/>
<image preserveAspectRatio="none" x="196" y="71" width="43" height="38" xlink:href="img/34.png"/>
<image preserveAspectRatio="none" x="72" y="66" width="44" height="45" xlink:href="img/35.png"/>
<image preserveAspectRatio="none" x="63" y="60" width="55" height="53" xlink:href="img/36.png"/>
<image preserveAspectRatio="none" x="182" y="121" width="47" height="44" xlink:href="img/37.png"/>
<image preserveAspectRatio="none" x="178" y="112" width="52" height="54" xlink:href="img/38.png"/>
<image preserveAspectRatio="none" x="151" y="75" width="45" height="47" xlink:href="img/39.png"/>
<image preserveAspectRatio="none" x="145" y="67" width="54" height="52" xlink:href="img/40.png"/>
<image preserveAspectRatio="none" x="156" y="169" width="47" height="46" xlink:href="img/41.png"/>
<image preserveAspectRatio="none" x="152" y="162" width="50" height="52" xlink:href="img/42.png"/>
<image preserveAspectRatio="none" x="225" y="64" width="406" height="153" xlink:href="img/43.png"/>
<image preserveAspectRatio="none" x="226" y="65" width="399" height="144" xlink:href="img/44.png"/>
<image preserveAspectRatio="none" x="273" y="148" width="46" height="47" xlink:href="img/45.png"/>
<image preserveAspectRatio="none" x="268" y="142" width="54" height="53" xlink:href="img/46.png"/>
<image preserveAspectRatio="none" x="306" y="104" width="48" height="46" xlink:href="img/47.png"/>
<image preserveAspectRatio="none" x="304" y="102" width="47" height="42" xlink:href="img/48.png"/>
<image preserveAspectRatio="none" x="251" y="99" width="45" height="49" xlink:href="img/49.png"/>
<image preserveAspectRatio="none" x="249" y="95" width="45" height="50" xlink:href="img/50.png"/>
<path d="M299.5,301.7c19.2,0,34.7,-15.5,34.7,-34.7c0,-19.2,-15.5,-34.8,-34.7,-34.8c-19.2,0,-34.8,15.6,-34.8,34.8c0,19.2,15.6,34.7,34.8,34.7ZM251.1,447.5h96.3V303.7H251.1V447.5Z" class="g0_5"/>
<image preserveAspectRatio="none" x="21" y="43" width="873" height="514" xlink:href="img/51.png"/>
<image preserveAspectRatio="none" x="24" y="43" width="863" height="506" xlink:href="img/52.png"/>
<image preserveAspectRatio="none" x="43" y="758" width="835" height="197" xlink:href="img/53.png"/>
<image preserveAspectRatio="none" x="44" y="756" width="827" height="191" xlink:href="img/54.png"/>
<image preserveAspectRatio="none" x="67" y="784" width="94" height="140" xlink:href="img/55.png"/>
<image preserveAspectRatio="none" x="162" y="784" width="93" height="140" xlink:href="img/56.png"/>
<image preserveAspectRatio="none" x="729" y="784" width="94" height="140" xlink:href="img/57.png"/>
<image preserveAspectRatio="none" x="255" y="784" width="94" height="140" xlink:href="img/58.png"/>
<image preserveAspectRatio="none" x="350" y="784" width="93" height="140" xlink:href="img/59.png"/>
<image preserveAspectRatio="none" x="444" y="784" width="94" height="140" xlink:href="img/60.png"/>
<image preserveAspectRatio="none" x="539" y="784" width="94" height="140" xlink:href="img/61.png"/>
<image preserveAspectRatio="none" x="634" y="784" width="93" height="140" xlink:href="img/62.png"/>
<image preserveAspectRatio="none" x="43" y="574" width="835" height="196" xlink:href="img/63.png"/>
<image preserveAspectRatio="none" x="44" y="572" width="827" height="191" xlink:href="img/64.png"/>
<image preserveAspectRatio="none" x="67" y="600" width="94" height="140" xlink:href="img/65.png"/>
<image preserveAspectRatio="none" x="162" y="600" width="93" height="140" xlink:href="img/66.png"/>
<image preserveAspectRatio="none" x="256" y="600" width="94" height="140" opacity="0.60000604" xlink:href="img/67.png"/>
<image preserveAspectRatio="none" x="351" y="600" width="93" height="140" xlink:href="img/68.png"/>
<image preserveAspectRatio="none" x="445" y="600" width="93" height="140" xlink:href="img/69.png"/>
<image preserveAspectRatio="none" x="539" y="600" width="94" height="140" xlink:href="img/70.png"/>
<image preserveAspectRatio="none" x="635" y="600" width="93" height="140" xlink:href="img/71.png"/>
<image preserveAspectRatio="none" x="729" y="600" width="93" height="140" xlink:href="img/72.png"/>
<image preserveAspectRatio="none" x="21" y="561" width="873" height="519" xlink:href="img/73.png"/>
<image preserveAspectRatio="none" x="24" y="562" width="863" height="510" xlink:href="img/74.png"/>
<image preserveAspectRatio="none" x="334" y="623" width="501" height="102" xlink:href="img/75.png"/>
<image preserveAspectRatio="none" x="289" y="802" width="97" height="103" xlink:href="img/76.png"/>
<image preserveAspectRatio="none" x="386" y="801" width="97" height="103" xlink:href="img/77.png"/>
<image preserveAspectRatio="none" x="483" y="801" width="97" height="103" xlink:href="img/78.png"/>
<image preserveAspectRatio="none" x="580" y="802" width="97" height="103" xlink:href="img/79.png"/>
<path d="M43.3,1114.1H866.1" class="g1_5"/>
<image preserveAspectRatio="none" x="477" y="1152" width="377" height="70" xlink:href="img/80.png"/>
<image preserveAspectRatio="none" x="465" y="1110" width="412" height="137" xlink:href="img/81.png"/>
</svg>