<?xml version="1.0" encoding="UTF-8" standalone="no"?>
<!DOCTYPE svg PUBLIC "-//W3C//DTD SVG 1.1//EN"
"http://www.w3.org/Graphics/SVG/1.1/DTD/svg11.dtd">
<svg viewBox="0 0 908 1285" version="1.1" xmlns="http://www.w3.org/2000/svg" xmlns:xlink="http://www.w3.org/1999/xlink">
<defs>
<clipPath id="c0_24"><path d="M-33.7,236.7V-33.8H237.5V236.7Z"/></clipPath>
<clipPath id="c1_24"><path d="M236.9,236.7V-33.8H509V236.7Z"/></clipPath>
<clipPath id="c2_24"><path d="M508.4,236.7V-33.8H780.3V236.7Z"/></clipPath>
<clipPath id="c3_24"><path d="M779.7,399.2v-433H942.4v433Z"/></clipPath>
<clipPath id="c4_24"><path d="M-33.7,507.7V236.1H237.5V507.7Z"/></clipPath>
<clipPath id="c5_24"><path d="M779.7,832.6v-434H942.4v434Z"/></clipPath>
<clipPath id="c6_24"><path d="M-33.7,778.3V507.1H237.5V778.3Z"/></clipPath>
<clipPath id="c7_24"><path d="M-33.7,1049.3V777.7H237.5v271.6Z"/></clipPath>
<clipPath id="c8_24"><path d="M779.7,1265.7V832H942.4v433.7Z"/></clipPath>
<clipPath id="c9_24"><path d="M-33.7,1319.3V1048.7H237.5v270.6Z"/></clipPath>
<clipPath id="ca_24"><path d="M236.9,1319.3V1048.7H509v270.6Z"/></clipPath>
<clipPath id="cb_24"><path d="M508.4,1319.3V1048.7H780.3v270.6Z"/></clipPath>
<clipPath id="cc_24"><path d="M779.7,1319.3v-54.2H942.4v54.2Z"/></clipPath>
</defs>
<image clip-path="url(#c0_24)" preserveAspectRatio="none" x="-33" y="-34" width="270" height="271" xlink:href="img/1.jpg"/>
<image clip-path="url(#c1_24)" preserveAspectRatio="none" x="237" y="-34" width="272" height="271" xlink:href="img/2.jpg"/>
<image clip-path="url(#c2_24)" preserveAspectRatio="none" x="508" y="-34" width="272" height="271" xlink:href="img/3.jpg"/>
<image clip-path="url(#c3_24)" preserveAspectRatio="none" x="780" y="-34" width="163" height="433" xlink:href="img/4.jpg"/>
<image clip-path="url(#c4_24)" preserveAspectRatio="none" x="-33" y="236" width="270" height="272" xlink:href="img/5.jpg"/>
<image preserveAspectRatio="none" x="237" y="236" width="272" height="272" xlink:href="img/6.jpg"/>
<image preserveAspectRatio="none" x="508" y="236" width="272" height="272" xlink:href="img/7.jpg"/>
<image clip-path="url(#c5_24)" preserveAspectRatio="none" x="780" y="399" width="163" height="434" xlink:href="img/8.jpg"/>
<image clip-path="url(#c6_24)" preserveAspectRatio="none" x="-33" y="507" width="270" height="271" xlink:href="img/9.jpg"/>
<image preserveAspectRatio="none" x="237" y="507" width="272" height="271" xlink:href="img/10.jpg"/>
<image preserveAspectRatio="none" x="508" y="507" width="272" height="271" xlink:href="img/11.jpg"/>
<image clip-path="url(#c7_24)" preserveAspectRatio="none" x="-33" y="778" width="270" height="271" xlink:href="img/12.jpg"/>
<image preserveAspectRatio="none" x="237" y="778" width="272" height="271" xlink:href="img/13.jpg"/>
<image preserveAspectRatio="none" x="508" y="778" width="272" height="271" xlink:href="img/14.jpg"/>
<image clip-path="url(#c8_24)" preserveAspectRatio="none" x="780" y="832" width="163" height="434" xlink:href="img/15.jpg"/>
<image clip-path="url(#c9_24)" preserveAspectRatio="none" x="-33" y="1049" width="270" height="271" xlink:href="img/16.jpg"/>
<image clip-path="url(#ca_24)" preserveAspectRatio="none" x="237" y="1049" width="272" height="271" xlink:href="img/17.jpg"/>
<image clip-path="url(#cb_24)" preserveAspectRatio="none" x="508" y="1049" width="272" height="271" xlink:href="img/18.jpg"/>
<image clip-path="url(#cc_24)" preserveAspectRatio="none" x="780" y="1265" width="163" height="55" xlink:href="img/19.jpg"/>
</svg>