<?xml version="1.0" encoding="UTF-8" standalone="no"?>
<!DOCTYPE svg PUBLIC "-//W3C//DTD SVG 1.1//EN"
"http://www.w3.org/Graphics/SVG/1.1/DTD/svg11.dtd">
<svg viewBox="0 0 909 1286" version="1.1" xmlns="http://www.w3.org/2000/svg" xmlns:xlink="http://www.w3.org/1999/xlink">
<defs>
<clipPath id="c0_14"><path d="M394.1,560.1v-231H882v231Z"/></clipPath>
<style type="text/css"><![CDATA[
.g0_14{
fill: none;
stroke: #000000;
stroke-width: 0.916;
stroke-linecap: butt;
stroke-linejoin: miter;
stroke-miterlimit: 4;
}
.g1_14{
fill: none;
stroke: #FFFFFF;
stroke-width: 1.298;
stroke-linecap: butt;
stroke-linejoin: miter;
}
.g2_14{
fill: none;
stroke: #000000;
stroke-width: 0.259;
stroke-linecap: butt;
stroke-linejoin: miter;
}
.g3_14{
fill: none;
stroke: #FFFFFF;
stroke-width: 1.527;
stroke-linecap: butt;
stroke-linejoin: miter;
stroke-miterlimit: 4;
}
.g4_14{
fill: none;
stroke: #FFFFFF;
stroke-width: 0.916;
stroke-linecap: butt;
stroke-linejoin: miter;
stroke-miterlimit: 4;
}
]]></style>
</defs>
<image preserveAspectRatio="none" x="-21" y="-21" width="932" height="1329" xlink:href="../1/img/1.webp"/>
<image preserveAspectRatio="none" x="-1" y="1009" width="910" height="279" xlink:href="img/2.webp"/>
<image preserveAspectRatio="none" x="56" y="88" width="107" height="104" xlink:href="img/3.webp"/>
<image preserveAspectRatio="none" x="-1" y="219" width="883" height="69" xlink:href="img/4.webp"/>
<path d="M56.3,75H853.1" class="g0_14"/>
<image preserveAspectRatio="none" x="-611" y="-370" width="2061" height="1766" xlink:href="img/5.webp"/>
<image preserveAspectRatio="none" x="628" y="461" width="17" height="18" xlink:href="img/6.webp"/>
<g clip-path="url(#c0_14)">
<path d="M-617.7,-370.4h-15.6m2089.2,0h15.6M-617.7,1396.3h-15.6m2089.2,0h15.6m-2083,-1773v-15.5m0,1794.7v15.6M1449.7,-376.7v-15.5m0,1794.7v15.6" class="g1_14"/>
<path d="M-617.7,-370.4h-15.6m2089.2,0h15.6M-617.7,1396.3h-15.6m2089.2,0h15.6m-2083,-1773v-15.5m0,1794.7v15.6M1449.7,-376.7v-15.5m0,1794.7v15.6" class="g2_14"/>
</g>
<image preserveAspectRatio="none" x="657" y="388" width="72" height="116" xlink:href="img/7.webp"/>
<image preserveAspectRatio="none" x="649" y="381" width="88" height="119" xlink:href="img/8.webp"/>
<image preserveAspectRatio="none" x="717" y="440" width="73" height="90" xlink:href="img/9.webp"/>
<image preserveAspectRatio="none" x="710" y="435" width="74" height="86" xlink:href="img/10.webp"/>
<image preserveAspectRatio="none" x="15" y="302" width="883" height="773" xlink:href="img/11.webp"/>
<image preserveAspectRatio="none" x="18" y="303" width="873" height="764" xlink:href="img/12.webp"/>
<image preserveAspectRatio="none" x="566" y="702" width="157" height="85" xlink:href="img/13.webp"/>
<image preserveAspectRatio="none" x="535" y="693" width="106" height="104" xlink:href="img/14.webp"/>
<image preserveAspectRatio="none" x="758" y="709" width="85" height="88" xlink:href="img/15.webp"/>
<image preserveAspectRatio="none" x="760" y="710" width="76" height="78" xlink:href="img/16.webp"/>
<image preserveAspectRatio="none" x="542" y="706" width="46" height="44" xlink:href="img/17.webp"/>
<image preserveAspectRatio="none" x="539" y="699" width="51" height="52" xlink:href="img/18.webp"/>
<image preserveAspectRatio="none" x="566" y="570" width="157" height="85" xlink:href="img/19.webp"/>
<image preserveAspectRatio="none" x="535" y="560" width="122" height="119" xlink:href="img/20.webp"/>
<image preserveAspectRatio="none" x="614" y="635" width="41" height="41" xlink:href="img/21.webp"/>
<path d="M556.9,652.6l-.4,.1c-1.3,1,-3.2,1.4,-5.8,1.4c-1.1,0,-1.7,0,-2,-.2l-.2,-.4c.1,-.2,.1,-.5,.1,-.8c0,-.3,-.2,-.5,-.5,-.5c-.2,0,-.4,.1,-.5,.4c-.2,.2,-.4,.3,-.6,.3c-.2,0,-.4,-.1,-.5,-.3c-.7,-2.1,-1,-3.5,-1,-4.2c0,-.4,.1,-.8,.2,-1l.4,-.2c.2,.1,.4,.2,.5,.3l.4,.2l.4,-.2l.3,-.4l.4,-.2l.5,.2c.2,1.1,.4,2.1,.6,3.1c.4,1.8,.7,2.6,1.1,2.6h.8c.7,0,1.2,0,1.4,0c.5,-.1,.8,-2,.8,-6c0,-.3,0,-.7,-.1,-1.3c-.1,-.6,-.2,-1.1,-.2,-1.3c0,-.1,0,-.2,.1,-.4v-.3l-.3,-.3c-.1,0,-.2,-.1,-.4,-.2c-.2,-.1,-.3,-.1,-.4,-.1l-.5,-.1c-1,.2,-1.8,.3,-2.5,.3l-.5,-.2l-.1,-.4l.2,-.4l.4,-.2c1.6,0,3.1,-.4,4.4,-1.3c.2,-.1,.3,-.8,.4,-2.1v-2.3c.1,-3.3,-.2,-4.9,-.9,-4.9c-.8,-.1,-1.7,0,-2.7,.3l-.4,.4c-.3,1.1,-.4,2.3,-.4,3.4c0,1.5,-.2,2.2,-.8,2.2c-.3,0,-.5,-.3,-.6,-1c-.2,-.6,-.4,-.9,-.7,-.9c-.3,0,-.5,.2,-.6,.7c0,.4,-.1,.8,-.1,1.2l-.2,.4l-.5,.1c-.4,-.1,-.7,-1.1,-.7,-3.1c0,-.4,.1,-.9,.1,-1.6v-1.5l.1,-.4l.4,-.2c.6,.1,1,-.1,1.1,-.6c.1,-.4,.3,-.7,.6,-.7c.2,0,.4,.2,.6,.4c.1,.3,.3,.4,.5,.4c.2,0,.3,0,.5,-.2c.1,-.2,.3,-.3,.5,-.3c-.1,.1,.1,.1,.5,.1c1.1,-.3,2.2,-.4,3.5,-.4c1.2,0,2.9,.1,5,.4c.4,0,.6,.2,.6,.7c0,.2,-.2,.3,-.6,.4c-.3,.1,-.5,.3,-.5,.5v8.7c0,.4,-.2,.6,-.6,.6c-.3,0,-.5,-.1,-.6,-.4l-.3,-.3h-.4c-1.5,.6,-2.2,1.1,-2.2,1.4c0,.2,.5,.5,1.5,1.1c1.1,.6,1.8,1,1.9,1.1c.6,.6,1,2.1,1,4.7c0,.6,0,1.8,-.1,3.7l-.1,.4l-.5,.1c-.2,0,-.4,-.1,-.5,-.3l-.3,-.2Z" class="g3_14"/>
<image preserveAspectRatio="none" x="542" y="574" width="46" height="45" xlink:href="img/22.webp"/>
<image preserveAspectRatio="none" x="539" y="567" width="51" height="52" xlink:href="img/23.webp"/>
<image preserveAspectRatio="none" x="591" y="591" width="48" height="44" xlink:href="img/24.webp"/>
<image preserveAspectRatio="none" x="587" y="583" width="51" height="53" xlink:href="img/25.webp"/>
<image preserveAspectRatio="none" x="566" y="827" width="157" height="85" xlink:href="img/26.webp"/>
<image preserveAspectRatio="none" x="535" y="817" width="106" height="105" xlink:href="img/27.webp"/>
<image preserveAspectRatio="none" x="758" y="834" width="85" height="87" xlink:href="img/28.webp"/>
<image preserveAspectRatio="none" x="760" y="834" width="76" height="79" xlink:href="img/29.webp"/>
<image preserveAspectRatio="none" x="542" y="831" width="46" height="44" xlink:href="img/30.webp"/>
<image preserveAspectRatio="none" x="539" y="823" width="51" height="53" xlink:href="img/31.webp"/>
<image preserveAspectRatio="none" x="581" y="875" width="48" height="45" xlink:href="img/32.webp"/>
<image preserveAspectRatio="none" x="581" y="874" width="43" height="40" xlink:href="img/33.webp"/>
<image preserveAspectRatio="none" x="741" y="956" width="122" height="74" xlink:href="img/34.webp"/>
<image preserveAspectRatio="none" x="739" y="952" width="115" height="67" xlink:href="img/35.webp"/>
<image preserveAspectRatio="none" x="578" y="929" width="85" height="88" xlink:href="img/36.webp"/>
<image preserveAspectRatio="none" x="580" y="930" width="76" height="80" xlink:href="img/37.webp"/>
<image preserveAspectRatio="none" x="535" y="967" width="85" height="87" xlink:href="img/38.webp"/>
<image preserveAspectRatio="none" x="537" y="968" width="76" height="78" xlink:href="img/39.webp"/>
<image preserveAspectRatio="none" x="776" y="565" width="84" height="89" xlink:href="img/40.webp"/>
<image preserveAspectRatio="none" x="778" y="566" width="75" height="80" xlink:href="img/41.webp"/>
<image preserveAspectRatio="none" x="724" y="597" width="86" height="89" xlink:href="img/42.webp"/>
<image preserveAspectRatio="none" x="727" y="598" width="75" height="79" xlink:href="img/43.webp"/>
<path d="M56.3,307.5H853.1M56.3,255.7H853.1" class="g4_14"/>
<image preserveAspectRatio="none" x="515" y="157" width="298" height="61" xlink:href="img/44.webp"/>
<image preserveAspectRatio="none" x="516" y="158" width="291" height="52" xlink:href="img/45.webp"/>
</svg>