<?xml version="1.0" encoding="UTF-8" standalone="no"?>
<!DOCTYPE svg PUBLIC "-//W3C//DTD SVG 1.1//EN"
"http://www.w3.org/Graphics/SVG/1.1/DTD/svg11.dtd">
<svg viewBox="0 0 909 1286" version="1.1" xmlns="http://www.w3.org/2000/svg" xmlns:xlink="http://www.w3.org/1999/xlink">
<defs>
<clipPath id="c0"><path d="M0,428.8V0H239.4V97.2H197.6V332.4h41.8v96.4Z"/></clipPath>
<clipPath id="c1"><path d="M693.4,142.2v-45H238.7V0H909.5V142.2Z"/></clipPath>
<clipPath id="c2"><path d="M670.3,476.3V332.4h23.1V141.6H909.5V476.3Z"/></clipPath>
<clipPath id="c3"><path d="M238.7,619.7V332.4H575V619.7Z"/></clipPath>
<clipPath id="c4"><path d="M574.4,1286.2V332.4H671v953.8Z"/></clipPath>
<clipPath id="c5"><path d="M0,858.1v-430H239.4v430Z"/></clipPath>
<clipPath id="c6"><path d="M0,1286.2V857.5H239.4v428.7Z"/></clipPath>
<clipPath id="c7"><path d="M238.7,1286.2V953.1H575v333.1Z"/></clipPath>
<clipPath id="c8"><path d="M670.3,1286.2V1144H909.5v142.2Z"/></clipPath>
<clipPath id="c9"><path d="M197.6,332.4V97.2H648.7V332.4Z"/></clipPath>
<clipPath id="ca"><path d="M648.1,332.4V97.2h45.3V332.4Z"/></clipPath>
<style type="text/css"><![CDATA[
.g0{
fill: #FFFFFF;
}
.g1{
fill: none;
stroke: #231916;
stroke-width: 0.682;
stroke-linecap: butt;
stroke-linejoin: miter;
stroke-miterlimit: 4;
}
.g2{
fill: #231916;
}
.g3{
fill: none;
stroke: #FFFFFF;
stroke-width: 1.705;
stroke-linecap: butt;
stroke-linejoin: miter;
}
.g4{
fill: none;
stroke: #000000;
stroke-width: 0.341;
stroke-linecap: butt;
stroke-linejoin: miter;
}
]]></style>
</defs>
<image clip-path="url(#c0)" preserveAspectRatio="none" x="0" y="-1" width="239" height="430" xlink:href="img/1.jpg"/>
<image clip-path="url(#c1)" preserveAspectRatio="none" x="239" y="-1" width="768" height="143" xlink:href="img/2.jpg"/>
<image clip-path="url(#c2)" preserveAspectRatio="none" x="670" y="142" width="337" height="334" xlink:href="img/3.jpg"/>
<image clip-path="url(#c3)" preserveAspectRatio="none" x="239" y="285" width="336" height="335" xlink:href="img/4.jpg"/>
<image clip-path="url(#c4)" preserveAspectRatio="none" x="574" y="285" width="97" height="1003" xlink:href="img/5.jpg"/>
<image clip-path="url(#c5)" preserveAspectRatio="none" x="0" y="428" width="239" height="430" xlink:href="img/6.jpg"/>
<image preserveAspectRatio="none" x="670" y="476" width="337" height="335" xlink:href="img/7.jpg"/>
<image preserveAspectRatio="none" x="239" y="619" width="336" height="335" xlink:href="img/8.jpg"/>
<image preserveAspectRatio="none" x="670" y="810" width="337" height="335" xlink:href="img/9.jpg"/>
<image clip-path="url(#c6)" preserveAspectRatio="none" x="0" y="857" width="239" height="431" xlink:href="img/10.jpg"/>
<image clip-path="url(#c7)" preserveAspectRatio="none" x="239" y="953" width="336" height="335" xlink:href="img/11.jpg"/>
<image clip-path="url(#c8)" preserveAspectRatio="none" x="670" y="1144" width="337" height="144" xlink:href="img/12.jpg"/>
<path d="M739.9,1060.6c1,5.8,2.3,11.5,3.8,17.1l6.4,-4.3l-.5,-42.6l-14.4,-10.2c.4,4.9,.9,9.8,1.4,14.6c.8,8.5,1.9,17,3.3,25.4Z" class="g0"/>
<path d="M738.1,1073.9l-.3,-1.6c-.1,-.5,-.2,-1,-.3,-1.6l-.5,-3.2l-.1,-.8l-.1,-.8l-.2,-1.6l-.5,-3.2c-1,-8.6,-1.6,-17.1,-2.1,-25.7c-.2,-5.1,-.4,-10.1,-.6,-15.2l-12.2,8.5l-.4,47.4l18.3,2.8l-.4,-1.8Z" class="g0"/>
<path d="M697,1096.4h7.6v6.3H697Zm10.2,10.1l1.2,-1.2v-12.7H694.5l-1.3,1.2v12.7Z" class="g0"/>
<path d="M715.8,1106.5v-3.8l-1.3,-1.2v-2.6l7.7,7.6h2.5l1.3,-1.2v-12.7h-5.1v3.8l1.3,1.2v2.6l-7.7,-7.6h-3.8v13.9Z" class="g0"/>
<path d="M732.1,1096.4h7.6v6.3h-7.6Zm10.1,10.1l1.3,-1.2v-12.7h-14l-1.2,1.2v12.7Z" class="g0"/>
<path d="M755.9,1101.5l-1.3,1.2h-5l1.3,-1.2v-8.9h-5.1v13.9h12.6l1.3,-1.2v-3.8Z" class="g0"/>
<path d="M777.1,1106.5l1.3,-1.2v-8.9h5.1v-3.9l-1.3,.1H769.5l-1.3,1.2v2.6h5.1v10.1Z" class="g0"/>
<path d="M680.6,1104.9l6.1,-6v2.6l-1.3,1.2v3.8h5.5v-13.9h-4.2l-6.1,6l-6,-6h-4.2v13.9h5.5v-3.8l-1.3,-1.2v-2.6Z" class="g0"/>
<path d="M762.7,1092.6l-1.2,1.2v12.7h3.8l1.2,-1.2v-12.7Z" class="g0"/>
<path d="M800.6,1092.6h-5.1l-.1,5h-5v-5h-5.1v13.9h5.1v-5h5.1v5h5.1Z" class="g0"/>
<path d="M703.4,1114.6h1.7c1.3,0,1.6,.9,1.6,1.7c0,.4,-.2,1,-.7,1.3c.8,.3,1,.9,1,1.5c0,.8,-.2,1.7,-1.9,1.7h-1.7Zm.6,2.8h1c1,0,1.1,-.7,1.1,-1.1c0,-.5,0,-1.3,-1,-1.3H704Zm0,2.9h1.1c1.2,0,1.4,-.5,1.4,-1.2c0,-.7,-.3,-1.2,-1.5,-1.2h-1Z" class="g0"/>
<path d="M711.9,1114.6c1.8,0,2,1.4,2,3.1c0,1.7,-.2,3.1,-2,3.1c-1.7,0,-1.9,-1.4,-1.9,-3.1c0,-1.7,.2,-3.1,1.9,-3.1m0,5.8c1.3,0,1.5,-1.1,1.5,-2.7c0,-1.6,-.2,-2.7,-1.5,-2.7c-1.3,0,-1.4,1.1,-1.4,2.7c0,1.6,.1,2.7,1.4,2.7Z" class="g0"/>
<path d="M718.2,1114.6h.7l1.7,6.2h-.5l-.3,-1.3h-2.5l-.3,1.3h-.5Zm-.8,4.5h2.3l-1.2,-3.9Z" class="g0"/>
<path d="M723.5,1114.6h1.4c1.7,0,1.9,1.1,1.9,2c0,.8,-.2,1.7,-1.2,2l1.2,2.2h-.5l-1.2,-2.2c-.1,.1,-.2,.1,-1,.1v2.1h-.6Zm.6,3.6h.8c1.2,0,1.4,-.7,1.4,-1.6c0,-.9,-.2,-1.6,-1.4,-1.6h-.8Z" class="g0"/>
<path d="M729.8,1114.6h1.7c1.7,0,2,1.4,2,3.1c0,1.7,-.3,3.1,-2,3.1h-1.7Zm.6,5.7h1.1c1.3,0,1.4,-1,1.4,-2.6c0,-1.6,-.1,-2.7,-1.4,-2.7h-1.1Z" class="g0"/>
<path d="M738.7,1117.7h1.5v1.2c0,1.5,-1,1.9,-1.8,1.9c-1.7,0,-2,-1.4,-2,-3.1c0,-1.7,.3,-3.1,2,-3.1c.9,0,1.7,.4,1.7,1.5v.2h-.5v-.2c0,-.8,-.6,-1.1,-1.2,-1.1c-1.3,0,-1.4,1.1,-1.4,2.7c0,1.6,.1,2.7,1.4,2.7c.7,0,1.2,-.5,1.2,-1.5v-.8h-.9Z" class="g0"/>
<path d="M744.5,1114.6h.6l1.8,6.2h-.5l-.4,-1.3h-2.4l-.4,1.3h-.5Zm-.8,4.5h2.2l-1.1,-3.9Z" class="g0"/>
<path d="M749.8,1114.6h.6l1.8,5.4l1.9,-5.4h.6v6.2h-.5v-5l-1.7,5H752l-1.7,-5v5h-.5Z" class="g0"/>
<path d="M757.8,1114.6h2.7v.4h-2.1v2.6h1.8v.5h-1.8v2.2h2.2v.5h-2.8Z" class="g0"/>
<path d="M763.3,1119h.5v.1c0,.7,.4,1.3,1.4,1.3c1.1,0,1.2,-.7,1.2,-1.1c0,-1.7,-3,-.9,-3,-3.1c0,-.5,.3,-1.6,1.8,-1.6c1.4,0,1.7,1.2,1.7,1.6v.2h-.6v-.2c0,-.7,-.3,-1.2,-1.1,-1.2c-.8,0,-1.3,.5,-1.3,1.2c0,1.7,3.1,.9,3.1,3.1c0,.7,-.4,1.5,-1.8,1.5c-1.9,0,-1.9,-1.4,-1.9,-1.7Z" class="g0"/>
<path d="M672.4,1211.5H798.5v-60.8H672.4v60.8Z" class="g0"/>
<path d="M672.4,1211.5H798.5v-60.8H672.4v60.8Z" class="g1"/>
<path d="M684.9,1168.1H686v34.4h-1.1Zm2.1,0h1.1v34.4H687Zm2.1,0h3.2v29.1h-3.2Zm4.3,0h2.1v29.1h-2.1Zm3.2,0h1.1v29.1h-1.1Zm2.1,0H703v29.1h-4.3Zm5.4,0h1v29.1h-1Zm3.1,0h3.2v29.1h-3.2Zm5.4,0h2.1v29.1h-2.1Zm3.2,0h2.1v29.1h-2.1Zm4.2,0h1.1v29.1H720Zm4.3,0h1v29.1h-1Zm3.2,0h2.1v29.1h-2.1Zm4.2,0h1.1v29.1h-1.1Zm2.2,0h1v34.4h-1Zm2.1,0h1.1v34.4H736Zm2.1,0h1.1v29.1h-1.1Zm2.1,0h3.2v29.1h-3.2Zm5.4,0h1v29.1h-1Zm2.1,0h3.2v29.1h-3.2Zm5.3,0h3.2v29.1H753Zm5.3,0h1.1v29.1h-1.1Zm2.2,0h2.1v29.1h-2.1Zm3.2,0h2.1v29.1h-2.1Zm4.2,0h3.2v29.1h-3.2Zm4.3,0h1v29.1h-1Zm3.2,0h2.1v29.1h-2.1Zm4.2,0h2.2v29.1h-2.2Zm3.2,0h1.1v34.4h-1.1Zm2.2,0h1v34.4h-1Zm-102.7,30.6h-4.9v1h3.4l-2,2.1v.9h.8c1,0,1.8,.4,1.8,1.4c0,1.2,-.9,1.6,-1.9,1.6c-.8,0,-1.4,-.1,-2.1,-.5v1.1c.7,.3,1.4,.5,2.1,.5c1.6,0,3.1,-.8,3.1,-2.6c0,-1.4,-1,-2.3,-2.4,-2.4l2.1,-2Zm10.8,1c0,.3,-.2,.6,-.4,.8l-.4,.5c-1.2,1.3,-2,2.7,-2,4.5v1.3h1.1v-1.3c0,-1.9,.8,-2.9,2,-4.3c.3,-.3,.7,-.8,.8,-1.1c.2,-.5,.3,-.8,.3,-1.3v-.1h-5.3v1Zm6.6,-1l-2,2.3c-.8,.9,-1.1,1.8,-1.1,3c0,1.7,1,2.8,2.7,2.8c1.5,0,2.6,-1.1,2.6,-2.6c0,-1.4,-1,-2.7,-2.4,-2.7c-.4,0,-.7,.1,-1,.3v-.1l.5,-.7c.6,-.8,1.4,-1.6,2.1,-2.3Zm-.5,3.9c.9,0,1.6,.6,1.6,1.5c0,1,-.6,1.6,-1.5,1.6c-1,0,-1.6,-.6,-1.6,-1.6c0,-.9,.7,-1.5,1.5,-1.5m7.5,-3.9c-1,0,-1.9,.1,-2.3,1.2c-.2,.8,-.3,1.8,-.3,2.7c0,1,.1,3,.8,3.7c.4,.4,1.2,.5,1.8,.5c.6,0,1.5,-.1,1.9,-.5c.7,-.7,.7,-2.7,.7,-3.7c0,-.9,0,-1.9,-.3,-2.7c-.4,-1.1,-1.2,-1.2,-2.3,-1.2m0,1c.9,0,1.3,0,1.4,.9c.1,.6,.1,1.5,.1,2.1c0,.6,0,2.4,-.3,2.8c-.2,.2,-.8,.3,-1.2,.3c-.4,0,-1,-.1,-1.2,-.3c-.3,-.4,-.3,-2.2,-.3,-2.8c0,-.6,0,-1.5,.1,-2.1c.2,-.9,.6,-.9,1.4,-.9m6.2,6v-.1c0,-.9,.8,-1.6,1.6,-2c1,-.7,2.1,-1.3,2.1,-2.7c0,-1.5,-1.2,-2.2,-2.6,-2.2c-.7,0,-1.5,.2,-2.1,.7v1.2c.6,-.5,1.6,-.9,2.3,-.9c.7,0,1.2,.6,1.2,1.2c0,.8,-.8,1.3,-1.4,1.7c-1.5,.9,-2.2,1.7,-2.2,3.6v.6h4.7v-1.1Zm10,-6c0,.3,-.2,.6,-.4,.8l-.4,.5c-1.2,1.3,-2,2.7,-2,4.5v1.3h1.2v-1.3c0,-1.9,.8,-2.9,1.9,-4.3c.3,-.3,.7,-.8,.9,-1.1c.2,-.5,.2,-.8,.2,-1.3v-.1H719v1Zm6.6,.3v6.8h1.2v-8.1h-1.3l-1.9,1.6v1.5Zm13.9,3.9v-1.6h-1.1v1.6h-1.9l2.4,-5.2h-1.2l-2.3,5.1v1.2h3v1.8h1.1V1205h1v-1.1Zm7.5,0v-1.6h-1.1v1.6h-2l2.4,-5.2h-1.1l-2.4,5.1v1.2h3.1v1.8h1.1V1205h1v-1.1Zm5.8,-5.2c-1,0,-1.9,.1,-2.2,1.2c-.3,.8,-.4,1.8,-.4,2.7c0,1,.1,3,.8,3.7c.4,.4,1.2,.5,1.8,.5c.7,0,1.5,-.1,1.9,-.5c.7,-.7,.8,-2.7,.8,-3.7c0,-.9,-.1,-1.9,-.4,-2.7c-.4,-1.1,-1.2,-1.2,-2.3,-1.2m0,1c.9,0,1.3,0,1.4,.9c.1,.6,.2,1.5,.2,2.1c0,.6,-.1,2.4,-.4,2.8c-.2,.2,-.8,.3,-1.2,.3c-.3,0,-.9,-.1,-1.1,-.3c-.3,-.4,-.4,-2.2,-.4,-2.8c0,-.6,.1,-1.5,.2,-2.1c.1,-.9,.5,-.9,1.3,-.9m6.2,6v-.1c0,-.9,.9,-1.6,1.6,-2c1.1,-.7,2.1,-1.3,2.1,-2.7c0,-1.5,-1.2,-2.2,-2.5,-2.2c-.7,0,-1.6,.2,-2.2,.7v1.2c.6,-.5,1.6,-.9,2.4,-.9c.6,0,1.2,.6,1.2,1.2c0,.8,-.9,1.3,-1.5,1.7c-1.5,.9,-2.2,1.7,-2.2,3.6v.6h4.7v-1.1Zm8.3,1.1c1.4,-1.5,3.1,-3.4,3.1,-5.3c0,-1.7,-.9,-2.8,-2.6,-2.8c-1.6,0,-2.7,1,-2.7,2.7c0,1.4,1,2.5,2.5,2.5c.3,0,.6,-.1,.9,-.2c-.7,1.1,-1.7,2.1,-2.7,3.1Zm.5,-7.1c.9,0,1.5,.7,1.5,1.6c0,.9,-.6,1.6,-1.5,1.6c-.9,0,-1.6,-.7,-1.6,-1.6c0,-1,.6,-1.6,1.6,-1.6m7.9,.3v6.8h1.1v-8.1h-1.2l-2,1.6v1.5Zm13.9,2.6l-5.4,-3.9v1.5l3.7,2.5l-3.7,2.5v1.6l5.4,-3.9Z" class="g2"/>
<image clip-path="url(#c9)" preserveAspectRatio="none" x="197" y="97" width="452" height="236" xlink:href="img/13.jpg"/>
<image clip-path="url(#ca)" preserveAspectRatio="none" x="648" y="97" width="46" height="236" xlink:href="img/14.jpg"/>
<path d="M-9,-.8H-29.4m1955.2,0h20.4M-9,1287.1H-29.4m1955.2,0h20.4M-.8,-9V-29.4m0,1324.7v20.5M1917.6,-9V-29.4m0,1324.7v20.5" class="g3"/>
<path d="M-9,-.8H-29.4m1955.2,0h20.4M-9,1287.1H-29.4m1955.2,0h20.4M-.8,-9V-29.4m0,1324.7v20.5M1917.6,-9V-29.4m0,1324.7v20.5" class="g4"/>
</svg>