<?xml version="1.0" encoding="UTF-8" standalone="no"?>
<!DOCTYPE svg PUBLIC "-//W3C//DTD SVG 1.1//EN"
"http://www.w3.org/Graphics/SVG/1.1/DTD/svg11.dtd">
<svg viewBox="0 0 909 1286" version="1.1" xmlns="http://www.w3.org/2000/svg" xmlns:xlink="http://www.w3.org/1999/xlink">
<defs>
<style type="text/css"><![CDATA[
.g0_11{
}
.g1_11{
fill: none;
stroke: #FFFFFF;
stroke-width: 1.119;
stroke-linecap: butt;
stroke-linejoin: miter;
stroke-miterlimit: 4;
}
.g2_11{
fill: none;
stroke: #FFFFFF;
stroke-width: 1.527;
stroke-linecap: butt;
stroke-linejoin: miter;
stroke-miterlimit: 4;
}
.g3_11{
fill: none;
stroke: #000000;
stroke-width: 0.916;
stroke-linecap: butt;
stroke-linejoin: miter;
stroke-miterlimit: 4;
}
.g4_11{
fill: none;
stroke: #FFFFFF;
stroke-width: 0.916;
stroke-linecap: butt;
stroke-linejoin: miter;
stroke-miterlimit: 4;
}
]]></style>
</defs>
<image preserveAspectRatio="none" x="-1" y="-21" width="932" height="1329" xlink:href="../1/img/1.png"/>
<image preserveAspectRatio="none" x="25" y="56" width="886" height="208" xlink:href="img/2.png"/>
<image preserveAspectRatio="none" x="713" y="199" width="27" height="26" xlink:href="img/3.png"/>
<image preserveAspectRatio="none" x="0" y="322" width="911" height="507" xlink:href="img/4.png"/>
<image preserveAspectRatio="none" x="26" y="1164" width="885" height="77" xlink:href="img/5.png"/>
<path d="M673.3,995.6c6.1,0,11,-4.9,11,-10.9c0,-6.1,-4.9,-11,-11,-11c-6,0,-10.9,4.9,-10.9,11c0,6,4.9,10.9,10.9,10.9Z" class="g0_11"/>
<path d="M673.3,995.6c6.1,0,11,-4.9,11,-10.9c0,-6.1,-4.9,-11,-11,-11c-6,0,-10.9,4.9,-10.9,11c0,6,4.9,10.9,10.9,10.9Z" class="g1_11"/>
<image preserveAspectRatio="none" x="55" y="913" width="123" height="118" xlink:href="img/6.png"/>
<image preserveAspectRatio="none" x="134" y="987" width="41" height="41" xlink:href="img/7.png"/>
<path d="M134.3,998.5c8.3,0,15,-6.7,15,-15c0,-8.2,-6.7,-14.9,-15,-14.9c-8.2,0,-14.9,6.7,-14.9,14.9c0,8.3,6.7,15,14.9,15Z" class="g0_11"/>
<path d="M134.3,998.5c8.3,0,15,-6.7,15,-15c0,-8.2,-6.7,-14.9,-15,-14.9c-8.2,0,-14.9,6.7,-14.9,14.9c0,8.3,6.7,15,14.9,15Z" class="g2_11"/>
<path d="M56.3,900.2H853.1" class="g3_11"/>
<path d="M56.3,119.8H853.1M56.3,195.7H853.1M56.3,1203.8H853.1" class="g4_11"/>
</svg>