<?xml version="1.0" encoding="UTF-8" standalone="no"?>
<!DOCTYPE svg PUBLIC "-//W3C//DTD SVG 1.1//EN"
"http://www.w3.org/Graphics/SVG/1.1/DTD/svg11.dtd">
<svg viewBox="0 0 907 1284" version="1.1" xmlns="http://www.w3.org/2000/svg" xmlns:xlink="http://www.w3.org/1999/xlink">
<defs>
<clipPath id="c0_3"><path d="M806.8,632.8V580.4H100.9v52.4Zm0,-195V385.4H100.9v52.4Zm40.5,-75.3V135.9H61.9V362.5ZM0,1284.4V0H907.6V1284.4H827.3V797.8H134.4v486.6Z"/></clipPath>
<clipPath id="c1_3"><path d="M907.6,0V0h.1Z"/></clipPath>
<clipPath id="c2_3"><path d="M61.9,181.3V135.9H847.3v45.4h-5.5V138.7H64.5v42.6Z"/></clipPath>
<clipPath id="c3_3"><path d="M61.9,362.5V180.6h2.6V357.1h49.8v5.4Z"/></clipPath>
<clipPath id="c4_3"><path d="M794.8,362.5v-5.4h47V180.6h5.5V362.5Z"/></clipPath>
<clipPath id="c5_3"><path d="M113.5,362.5v-5.4h682v5.4Z"/></clipPath>
<clipPath id="c6_3"><path d="M64.5,357.1V138.7H427.4V357.1Z"/></clipPath>
<clipPath id="c7_3"><path d="M426.8,357.1V138.7H790.7V357.1Z"/></clipPath>
<clipPath id="c8_3"><path d="M790.1,357.1V138.7h51.7V357.1Z"/></clipPath>
<clipPath id="c9_3"><path d="M100.9,437.8V385.4H806.8v52.4Z"/></clipPath>
<clipPath id="ca_3"><path d="M100.9,632.8V580.4H806.8v52.4Z"/></clipPath>
<clipPath id="cb_3"><path d="M134.4,906.7V890H294.3v16.7Zm0,-30.9v-4.1H294.3v4.1Zm0,-18.4v-4.2H294.3v4.2Zm0,-19v-4.2H294.3v4.2Zm0,-17.6v-4.1H294.3v4.1Zm0,-19.1v-3.9H294.3v3.9Z"/></clipPath>
<clipPath id="cc_3"><path d="M294.1,906.7V890H415.6V875.8H294.1v-4.1H429.3V857.4H294.1v-4.2H429.5V838.4H294.1v-4.2H429.3V820.8H294.1v-4.1H429.3v-15H294.1v-3.9H454.4V906.7Z"/></clipPath>
<clipPath id="cd_3"><path d="M454.1,906.7V797.8H614.3v.4h-137v14.2h137v94.3Z"/></clipPath>
<clipPath id="ce_3"><path d="M614.1,906.7V812.4h33.7V798.2H614.1v-.4H774.3V906.7Z"/></clipPath>
<clipPath id="cf_3"><path d="M774,1124.7V797.8h53.3v326.9Z"/></clipPath>
<clipPath id="cg_3"><path d="M134.4,1015.8V906.5H294.3v109.3Z"/></clipPath>
<clipPath id="ch_3"><path d="M0,1284.4V0H907.6V1284.4Z"/></clipPath>
<clipPath id="ci_3"><path d="M134.4,1124.7V1015.5H294.3v109.2Z"/></clipPath>
<clipPath id="cj_3"><path d="M134.4,1233.8V1124.5H294.3v109.3Z"/></clipPath>
<clipPath id="ck_3"><path d="M774,1284.4V1124.5h53.3v159.9Z"/></clipPath>
<clipPath id="cl_3"><path d="M134.4,1284.4v-50.9h320v50.9Z"/></clipPath>
<clipPath id="cm_3"><path d="M454.1,1284.4v-50.9H774.3v50.9Z"/></clipPath>
<clipPath id="cn_3"><path d="M134.4,816.7v-15H429.3v15Z"/></clipPath>
<clipPath id="co_3"><path d="M134.4,814.1v-.9c.2,0,.5,-.1,.6,-.2c.6,-.4,.8,-.7,.8,-1.3c0,-.5,-.3,-.8,-.9,-1.1c-.1,0,-.3,-.1,-.5,-.2v-1.5q.1,0,.2,0l1.7,.7c.5,.3,.9,.9,.9,1.7c0,.6,-.3,1.3,-.9,1.9c-.5,.4,-1.1,.7,-1.9,.9ZM335,812.8c.5,0,1,-.2,1.5,-.7c0,-2.6,0,-4.1,0,-4.7c0,-.2,-.1,-.3,-.2,-.4c-.2,-.2,-.3,-.3,-.4,-.3c-.1,0,-.2,0,-.2,0c-.9,0,-1.5,.4,-1.9,1.1c-.4,.6,-.5,1.5,-.5,2.5c0,.7,.1,1.2,.4,1.7c.3,.5,.7,.8,1.3,.8Zm19.7,0c.6,0,1.1,-.2,1.5,-.7c.1,-1.5,.1,-2.9,0,-4.7c0,-.2,0,-.3,-.2,-.4c-.1,-.2,-.2,-.3,-.4,-.3q-.1,0,-.2,0c-.8,0,-1.4,.4,-1.8,1.1c-.4,.6,-.6,1.5,-.6,2.5c.1,.7,.2,1.2,.4,1.7c.3,.5,.8,.8,1.3,.8Zm-205.5,0c.5,0,1.1,-.2,1.6,-.8c.1,-1.6,.2,-3.4,.2,-5.4h-.7c-1,0,-1.7,.3,-2.2,1c-.5,.6,-.7,1.5,-.7,2.6c0,.7,.2,1.3,.4,1.8c.3,.5,.8,.8,1.4,.8Zm8,.2c1.4,0,2.1,-1.1,2,-3.4c0,-2.1,-.7,-3,-1.8,-3c-1.5,0,-2.1,1.2,-2,3.6c0,.8,.2,1.4,.4,1.9c.3,.5,.8,.9,1.4,.9Zm23.5,0c1.4,0,2.1,-1.1,2,-3.4c-.1,-2.1,-.7,-3,-1.8,-3c-1.5,0,-2.1,1.2,-2,3.6c0,.8,.1,1.4,.4,1.9c.3,.5,.8,.9,1.4,.9Zm26.5,-3.9l3.6,-1c-.6,-1.1,-1.1,-1.5,-1.6,-1.5c-1,0,-1.7,.8,-2,2.5Zm7.2,0l3.6,-1c-.5,-1.1,-1,-1.5,-1.6,-1.5c-1,0,-1.6,.8,-2,2.5Zm9,3.7c.5,0,1.1,-.2,1.6,-.8c.1,-1.6,.2,-3.4,.2,-5.4h-.7c-1,0,-1.7,.3,-2.2,1c-.5,.6,-.7,1.5,-.7,2.6c.1,.7,.2,1.3,.5,1.8c.3,.5,.7,.8,1.3,.8ZM244,813c1.4,0,2.1,-1.1,2,-3.4c-.1,-2.1,-.7,-3,-1.9,-3c-1.4,0,-2,1.2,-1.9,3.6c0,.8,.1,1.4,.4,1.9c.3,.5,.8,.9,1.4,.9Zm54.9,0c1.4,0,2,-1.1,2,-3.4c-.1,-2.1,-.7,-3,-1.9,-3c-1.4,0,-2,1.2,-1.9,3.6c0,.8,.1,1.4,.4,1.9c.3,.5,.8,.9,1.4,.9Zm46.8,-3.9l3.6,-1c-.6,-1.1,-1.1,-1.5,-1.7,-1.5c-.9,0,-1.6,.8,-1.9,2.5Zm25.1,0l3.6,-1c-.5,-1.1,-1.1,-1.5,-1.6,-1.5c-1,0,-1.6,.8,-2,2.5Zm21.5,3.9c1.4,0,2.1,-1.1,2,-3.4c0,-2.1,-.7,-3,-1.8,-3c-1.5,0,-2.1,1.2,-2,3.6c0,.8,.1,1.4,.4,1.9c.3,.5,.8,.9,1.4,.9Zm31.5,-3.9l3.6,-1c-.6,-1.1,-1.1,-1.5,-1.6,-1.5c-1,0,-1.6,.8,-2,2.5Zm-287.1,-2c-.5,-.3,-.9,-.4,-1.4,-.4c-.4,0,-.6,.1,-.9,.2v-1c.3,-.1,.7,-.1,1.1,-.1c.4,0,.9,.1,1.3,.2v.1l-.1,1Zm20.5,6.7c-1,0,-1.8,-.4,-2.4,-1.1c-.5,-.6,-.7,-1.5,-.8,-2.6c0,-1.3,.2,-2.3,.8,-3c.5,-.9,1.5,-1.3,2.7,-1.3c1,0,1.8,.4,2.3,1.1c.5,.6,.8,1.5,.8,2.5c0,1.3,-.2,2.3,-.7,3c-.6,.9,-1.5,1.4,-2.7,1.4Zm17.4,0v-.1c0,-.2,-.1,-1,-.2,-2.5c.2,-.7,.2,-1.5,.2,-2.5c0,-.5,-.1,-.9,-.2,-1.3c-.3,-.5,-.6,-.7,-1,-.7c-.6,0,-1.2,.3,-1.9,.9c0,1,0,2.1,0,3c0,1.1,0,2.1,-.1,3l-.1,.1c-.5,0,-.9,0,-1.3,.1c.1,-2.1,.2,-3.7,.1,-4.8c0,-.9,-.1,-1.9,-.1,-2.8c0,0,.1,0,.1,0h.1c.1,0,.3,0,.5,.1l.6,.3c.7,-.5,1.6,-.8,2.6,-.8c1.2,0,1.9,.8,1.9,2.3c0,.4,0,1.1,0,2.1c0,.5,0,1.2,0,2.1c0,.5,.1,1,.1,1.4c-.6,0,-.9,0,-1.3,.1Zm6.1,0c-1,0,-1.8,-.4,-2.4,-1.1c-.5,-.6,-.8,-1.5,-.8,-2.6c0,-1.3,.2,-2.3,.8,-3c.5,-.9,1.5,-1.3,2.7,-1.3c1,0,1.8,.4,2.3,1.1c.5,.6,.8,1.5,.8,2.5c0,1.3,-.2,2.3,-.7,3c-.6,.9,-1.5,1.4,-2.7,1.4Zm22.2,0l-.1,-.1c0,-.2,0,-1,-.1,-2.5c.1,-.7,.2,-1.5,.2,-2.5c0,-.5,-.1,-.9,-.3,-1.3c-.2,-.5,-.5,-.7,-.9,-.7c-.7,0,-1.3,.3,-1.9,.9c0,1,0,2.1,0,3c0,1.1,-.1,2.1,-.2,3v.1c-.5,0,-.9,0,-1.3,.1c.1,-2.1,.1,-3.7,.1,-4.8c0,-.9,-.1,-1.9,-.1,-2.8h.1c.2,0,.4,0,.6,.1l.6,.3c.7,-.5,1.5,-.8,2.6,-.8c1.2,0,1.8,.8,1.9,2.3c0,.4,0,1.1,0,2.1c0,.5,0,1.2,0,2.1c0,.5,0,1,.1,1.4h-.1c-.5,0,-.9,0,-1.2,.1Zm6.5,0c-1.1,0,-1.9,-.4,-2.5,-1c-.6,-.7,-.9,-1.5,-1,-2.6c0,-1.2,.2,-2.1,.7,-3c.6,-.9,1.5,-1.4,2.6,-1.4c.7,0,1.4,.2,1.9,.6c.4,.4,.8,1,1,1.6c-.1,.2,-.3,.4,-.5,.7c-1,.2,-2.4,.7,-4.4,1.3c.1,1.9,.9,2.8,2.4,2.8c.7,0,1.5,-.3,2.2,-.9c-.1,.3,-.1,.7,-.1,1.2c-.2,.2,-.6,.4,-1.1,.5c-.5,.1,-.9,.2,-1.2,.2Zm7.2,0c-1.1,0,-1.9,-.4,-2.5,-1c-.6,-.7,-.9,-1.5,-.9,-2.6c0,-1.2,.2,-2.1,.7,-3c.5,-.9,1.4,-1.4,2.6,-1.4c.7,0,1.3,.2,1.8,.6c.5,.4,.8,1,1,1.6c-.1,.2,-.2,.4,-.5,.7c-.9,.2,-2.4,.7,-4.3,1.3c.1,1.9,.9,2.8,2.3,2.8c.7,0,1.5,-.3,2.2,-.9c0,.3,-.1,.7,-.1,1.2c-.2,.2,-.5,.4,-1.1,.5c-.4,.1,-.8,.2,-1.2,.2Zm27.4,0c-1.1,0,-1.9,-.4,-2.4,-1.1c-.5,-.6,-.8,-1.5,-.8,-2.6c0,-1.3,.2,-2.3,.7,-3c.6,-.9,1.5,-1.3,2.8,-1.3c.9,0,1.8,.4,2.3,1.1c.5,.6,.7,1.5,.8,2.5c0,1.3,-.2,2.3,-.7,3c-.6,.9,-1.5,1.4,-2.7,1.4Zm25.6,0c.2,-2.1,.2,-4,.2,-5.7c0,-.8,-.1,-1.4,-.1,-2c.5,-.1,1,-.2,1.4,-.3c-.1,1.8,-.1,3.5,-.1,5.2c0,.9,0,1.8,0,2.7h-.1c-.4,0,-.9,0,-1.3,.1Zm8.5,0l-.1,-.1c0,-.2,0,-1,-.1,-2.5c.1,-.7,.2,-1.5,.2,-2.5c0,-.5,-.1,-.9,-.3,-1.3c-.2,-.5,-.5,-.7,-.9,-.7c-.7,0,-1.3,.3,-1.9,.9c0,1,0,2.1,0,3c0,1.1,-.1,2.1,-.2,3v.1c-.5,0,-.9,0,-1.3,.1c.1,-2.1,.1,-3.7,.1,-4.8c0,-.9,-.1,-1.9,-.1,-2.8h.1c.2,0,.4,0,.6,.1l.6,.3c.7,-.5,1.5,-.8,2.6,-.8c1.2,0,1.8,.8,1.9,2.3c0,.4,0,1.1,0,2.1c-.1,.5,-.1,1.2,0,2.1c0,.5,0,1,.1,1.4h-.1c-.5,0,-.9,0,-1.2,.1Zm20.8,0c-1.1,0,-1.9,-.4,-2.4,-1.1c-.5,-.6,-.8,-1.5,-.8,-2.6c-.1,-1.3,.2,-2.3,.7,-3c.6,-.9,1.5,-1.3,2.8,-1.3c.9,0,1.8,.4,2.3,1.1c.5,.6,.7,1.5,.8,2.5c0,1.3,-.2,2.3,-.7,3c-.6,.9,-1.5,1.4,-2.7,1.4Zm18.2,.4c-.4,0,-.8,-.1,-1.2,-.2c0,-.3,.1,-.6,.2,-1.2c.9,.3,1.4,.5,1.5,.5c.5,0,1,-.1,1.4,-.3c.5,-.4,.7,-.7,.7,-1.3c0,-.5,-.3,-.8,-.9,-1.1c-.4,-.1,-.9,-.3,-1.7,-.6c-.6,-.4,-.9,-.9,-.9,-1.7c0,-.9,.3,-1.5,1,-1.9c.5,-.4,1.3,-.6,2.2,-.6c.4,0,.9,.1,1.3,.2v.1l-.1,1c-.4,-.3,-.9,-.4,-1.4,-.4c-.4,0,-.8,.1,-1.1,.3c-.4,.2,-.5,.5,-.5,.9c0,.4,.3,.8,.9,1l1.7,.7c.5,.3,.9,.9,.9,1.7c0,.6,-.3,1.3,-.9,1.9c-.7,.7,-1.7,1,-3.1,1Zm17.6,-.4c-.9,0,-1.6,-.4,-2.1,-1.1c-.4,-.7,-.6,-1.5,-.7,-2.4c0,-1.4,.3,-2.4,1,-3.2c.7,-.9,1.7,-1.3,3,-1.3c.7,0,1.1,.1,1.4,.2c.4,.2,.6,.6,.6,1.2c0,.1,0,.6,0,1.4v5.2c-.3,-.1,-.7,-.3,-1.3,-.7c-.7,.4,-1.3,.7,-1.9,.7Zm13.2,0c-1.1,0,-2,-.4,-2.6,-1c-.5,-.7,-.9,-1.5,-.9,-2.6c0,-1.2,.2,-2.1,.7,-3c.6,-.9,1.5,-1.4,2.6,-1.4c.7,0,1.3,.2,1.9,.6c.4,.4,.8,1,1,1.6c-.1,.2,-.3,.4,-.5,.7c-1,.2,-2.4,.7,-4.4,1.3c.1,1.9,.9,2.8,2.3,2.8c.8,0,1.5,-.3,2.2,-.9c0,.3,0,.7,-.1,1.2c-.2,.2,-.5,.4,-1,.5c-.5,.1,-.9,.2,-1.2,.2Zm7,2.9c-.4,0,-.8,-.1,-1.2,-.1c-.6,-.1,-1,-.2,-1.2,-.4v-1.3c.2,.2,.6,.4,1,.6c.3,.1,.7,.2,1.1,.2c.1,0,.4,0,.5,-.1c.8,-.3,1.2,-1.1,1.1,-2.5c-.6,.4,-1.2,.7,-1.9,.7c-.8,0,-1.5,-.4,-2,-1.1c-.4,-.7,-.6,-1.5,-.6,-2.4c-.1,-1.4,.2,-2.4,.9,-3.2c.7,-.9,1.8,-1.3,3.1,-1.3c.7,0,1.1,.1,1.4,.2c.3,.2,.5,.6,.5,1.2c0,.5,0,1.5,0,2.9c0,.7,0,1.9,0,3.4c0,.9,-.3,1.7,-.8,2.3c-.2,.2,-.4,.4,-.8,.6c-.4,.1,-.7,.2,-1,.3c0,0,-.1,0,-.1,0Zm5.1,-2.9c.1,-2.1,.2,-4,.1,-5.7c0,-.8,0,-1.4,-.1,-2c.6,-.1,1,-.2,1.4,-.3h.1c-.1,1.8,-.1,3.5,-.1,5.2c0,.9,0,1.8,0,2.7q-.1,0,-.1,0c-.5,0,-.9,0,-1.3,.1Zm4.6,0c-.2,0,-.6,-.1,-1.1,-.1h-.1l-.1,-.6c.1,-.2,.3,-.5,.6,-1c.3,-.5,.6,-.8,.6,-.9c.2,-.5,1.1,-2,2.4,-4.5c-.8,.1,-1.8,.1,-3.2,.2h-.1l.1,-1l.1,-.1c.9,.1,2.3,.2,4.2,.2c.2,0,.3,0,.5,0l.1,.1c-.8,1.5,-2,3.8,-3.6,6.7c.4,0,1,0,1.8,-.1c.6,-.1,1.2,-.1,1.6,-.1c.1,0,.2,0,.3,0l-.2,1.1l-.1,.1Zm8.4,0c-1.1,0,-1.9,-.4,-2.5,-1c-.6,-.7,-.9,-1.5,-.9,-2.6c-.1,-1.2,.2,-2.1,.7,-3c.5,-.9,1.4,-1.4,2.5,-1.4c.7,0,1.4,.2,1.9,.6c.4,.4,.8,1,1,1.6c-.1,.2,-.2,.4,-.5,.7c-.9,.2,-2.4,.7,-4.3,1.3c.1,1.9,.8,2.8,2.3,2.8c.7,0,1.5,-.3,2.2,-.9c0,.3,-.1,.7,-.1,1.2c-.2,.2,-.5,.4,-1.1,.5c-.5,.1,-.9,.2,-1.2,.2Zm19.3,0c-1,0,-1.8,-.4,-2.4,-1.1c-.5,-.6,-.8,-1.5,-.8,-2.6c0,-1.3,.2,-2.3,.8,-3c.5,-.9,1.5,-1.3,2.7,-1.3c1,0,1.8,.4,2.3,1.1c.5,.6,.8,1.5,.8,2.5c0,1.3,-.2,2.3,-.7,3c-.6,.9,-1.5,1.4,-2.7,1.4Zm33.7,0c-1.1,0,-1.9,-.4,-2.5,-1c-.6,-.7,-.9,-1.5,-1,-2.6c0,-1.2,.2,-2.1,.7,-3c.6,-.9,1.5,-1.4,2.6,-1.4c.7,0,1.4,.2,1.9,.6c.4,.4,.8,1,1,1.6c-.1,.2,-.3,.4,-.5,.7c-1,.2,-2.4,.7,-4.4,1.3c.1,1.9,.9,2.8,2.4,2.8c.7,0,1.5,-.3,2.2,-.9c-.1,.3,-.1,.7,-.1,1.2c-.2,.2,-.6,.4,-1.1,.5c-.5,.1,-.9,.2,-1.2,.2Zm-122.3,0c.1,-2.4,.1,-4.4,0,-6c0,-.5,0,-1.1,0,-1.6c.3,-.1,.8,-.2,1.4,-.4v1.9c.2,-.6,.6,-1.1,1.1,-1.6c.5,-.5,1,-.7,1.5,-.7c.1,0,.2,0,.3,0c-.1,.3,-.2,.7,-.3,1.3c-.3,0,-.5,.1,-.8,.1c-.3,.1,-.5,.2,-.7,.4c-.5,.4,-.8,1,-.9,1.9c-.2,.5,-.2,1.2,-.2,2.2c0,.8,0,1.6,0,2.4H305c-.3,0,-.7,0,-1.3,.1Zm23.8,0c0,-2.4,0,-4.4,0,-6c0,-.5,0,-1.1,0,-1.6c.3,-.1,.7,-.2,1.3,-.4l.1,1.9c.2,-.6,.5,-1.1,1,-1.6c.5,-.5,1.1,-.7,1.6,-.7c0,0,.1,0,.2,0c-.1,.3,-.2,.7,-.3,1.3c-.2,0,-.5,.1,-.7,.1c-.3,.1,-.5,.2,-.8,.4c-.5,.4,-.7,1,-.9,1.9c-.1,.5,-.1,1.2,-.1,2.2c0,.8,0,1.6,0,2.4q-.1,0,-.1,0c-.3,0,-.7,0,-1.3,.1Zm69.7,0c0,-2.4,0,-4.4,0,-6c0,-.5,0,-1.1,0,-1.6c.3,-.1,.7,-.2,1.3,-.4l.1,1.9c.2,-.6,.5,-1.1,1,-1.6c.5,-.5,1.1,-.7,1.6,-.7c0,0,.1,0,.2,0c-.1,.3,-.2,.7,-.3,1.3c-.2,0,-.5,.1,-.7,.1c-.3,.1,-.5,.2,-.8,.4c-.5,.4,-.7,1,-.9,1.9c-.1,.5,-.1,1.2,-.1,2.2c0,.8,0,1.6,0,2.4q-.1,0,-.1,0c-.3,0,-.7,0,-1.3,.1Zm-209,0c-1.3,0,-2,-.6,-2,-1.8v-5h-1.1v-.1l.2,-.7l.9,-.2v-1.8l1.3,-.4c0,.4,.1,1.1,.1,2.2H189c0,.2,0,.5,0,.9c-.3,0,-.7,0,-1.4,0v4.8c0,.8,.4,1.3,1.4,1.4v.5c-.3,.1,-.5,.2,-.8,.2Zm50.9,0c-1.4,0,-2,-.6,-2,-1.8v-5H236v-.1l.1,-.7l1,-.2v-1.8l1.3,-.4c0,.4,0,1.1,0,2.2h1.5c-.1,.2,0,.5,0,.9c-.3,0,-.7,0,-1.4,0l-.1,4.8c0,.8,.5,1.3,1.5,1.4v.5c-.3,.1,-.6,.2,-.8,.2Zm20.1,0c-1.3,0,-2,-.6,-2,-1.8v-5h-1.1v-.1l.2,-.7l.9,-.2v-1.8l1.3,-.4c0,.4,.1,1.1,.1,2.2H260c0,.2,0,.5,0,.9c-.2,0,-.7,0,-1.4,0v4.8c0,.8,.5,1.3,1.4,1.4v.5c-.3,.1,-.5,.2,-.8,.2Zm66.1,0c-1.3,0,-2,-.6,-2,-1.8v-5h-1.1v-.1l.2,-.7l.9,-.2v-1.8l1.3,-.4c0,.4,.1,1.1,.1,2.2h1.4c0,.2,0,.5,0,.9c-.2,0,-.7,0,-1.4,0v4.8c0,.8,.5,1.3,1.4,1.4v.5c-.3,.1,-.5,.2,-.8,.2Zm17.2,0c-1.3,0,-2,-.6,-2,-1.8v-5h-1v-.1l.1,-.7l.9,-.2v-1.8l1.4,-.4c0,.4,0,1.1,0,2.2h1.5c-.1,.2,-.1,.5,-.1,.9c-.2,0,-.7,0,-1.3,0l-.1,4.8c0,.8,.5,1.3,1.5,1.4l-.1,.5c-.2,.1,-.5,.2,-.8,.2Zm69.9,0c-1.3,0,-2,-.6,-2,-1.8v-5h-1.1v-.1l.2,-.7l.9,-.2v-1.8l1.3,-.4c0,.4,.1,1.1,.1,2.2h1.4c0,.2,0,.5,0,.9c-.2,0,-.7,0,-1.4,0v4.8c0,.8,.5,1.3,1.5,1.4l-.1,.5c-.3,.1,-.5,.2,-.8,.2ZM270,804.5c.1,-.4,.2,-1,.3,-1.8c.3,-.1,.7,-.1,1.3,-.1l-.6,1.7l-.1,.1c-.2,0,-.5,.1,-.9,.1Zm90.4,0c0,-.4,.1,-1,.2,-1.8c.3,-.1,.8,-.1,1.4,-.1l-.7,1.7l-.1,.1c-.2,0,-.5,.1,-.8,.1Zm-211.6,9.3c-.9,0,-1.5,-.4,-2.1,-1.1c-.4,-.7,-.6,-1.5,-.7,-2.5c0,-1.4,.4,-2.4,1.1,-3.2c.7,-.8,1.8,-1.2,3.1,-1.2h.7c0,-.6,0,-1.2,0,-1.8c0,-.3,0,-.7,.1,-1.2c.3,-.1,.8,-.2,1.4,-.4c-.2,2.5,-.2,5,-.2,7.6c0,1.3,0,2.5,0,3.5h-.1c-.2,0,-.4,0,-.7,-.2l-.7,-.3c-.7,.5,-1.3,.8,-1.9,.8Zm74.3,0c-.9,0,-1.6,-.4,-2.1,-1.1c-.5,-.7,-.7,-1.5,-.7,-2.5c-.1,-1.4,.3,-2.4,1,-3.2c.7,-.8,1.8,-1.2,3.1,-1.2h.8c0,-.6,0,-1.2,0,-1.8c0,-.3,0,-.7,0,-1.2c.3,-.1,.8,-.2,1.4,-.4c-.2,2.5,-.2,5,-.2,7.6c0,1.3,0,2.5,0,3.5c-.3,0,-.5,0,-.8,-.2L225,813c-.8,.5,-1.4,.8,-1.9,.8Zm43,1v-1.1c.1,-1.6,.1,-3.3,-.1,-5.1c-.1,-1.2,-.4,-1.7,-1.1,-1.7c-.6,0,-1.1,.3,-1.8,.9c0,1.1,0,2.2,0,3.1c0,.9,0,1.8,0,2.6q-.1,0,-.2,0c-.3,0,-.7,.1,-1.2,.1c0,-1.3,0,-3.3,0,-5.9v-3.1c0,-.6,0,-1.2,-.1,-1.8c.4,-.1,.9,-.2,1.5,-.4c0,1.2,0,2.7,0,4.6c1,-.7,1.8,-1,2.5,-1c1.2,0,1.9,.7,1.9,2.3c0,1.6,0,3.5,-.2,5.4c0,.6,-.4,1,-1.2,1.1Zm19.8,-1l-.1,-.1c-.9,-1.3,-1.9,-2.8,-3,-4.5c0,1.9,0,3.4,0,4.4l-1.4,.2c.2,-3.5,.2,-6.6,.2,-9.2c0,-.4,0,-1,-.1,-1.8c.2,-.1,.7,-.2,1.4,-.4c-.1,1.5,-.1,3.7,-.1,6.6c.2,-.2,1,-1.2,2.5,-3l1.3,-.2c-1,1.3,-1.8,2.4,-2.5,3.3c1.2,2,2.3,3.4,3.2,4.2c-.3,.1,-.8,.2,-1.4,.5Zm133.4,1v-1.1c.1,-1.6,.1,-3.3,0,-5.1c-.2,-1.2,-.5,-1.7,-1.2,-1.7c-.5,0,-1.1,.3,-1.8,.9c0,1.1,0,2.2,0,3.1c0,.9,0,1.8,0,2.6q-.1,0,-.2,0c-.3,0,-.7,.1,-1.2,.1c0,-1.3,0,-3.3,0,-5.9v-3.1c0,-.6,0,-1.2,0,-1.8c.3,-.1,.8,-.2,1.4,-.4c0,1.2,0,2.7,0,4.6c1,-.7,1.8,-1,2.5,-1c1.2,0,1.9,.7,1.9,2.3c.1,1.6,0,3.5,-.1,5.4c-.1,.6,-.5,1,-1.3,1.1Zm-34.2,-1c0,-1.8,0,-4,0,-6.8l-.7,.2v-.1c0,-.2,0,-.4,0,-.8h.7c.1,-2.1,.5,-3.4,1.3,-4c.2,-.3,.6,-.5,.9,-.6h1c-.1,.2,0,.4,-.1,.7c-.7,0,-1.1,.4,-1.4,1c-.2,.2,-.2,.7,-.3,1.3c0,.2,0,.7,0,1.5c.4,0,.9,0,1.6,-.1c0,.2,0,.5,-.1,.9c-.2,0,-.6,0,-1.5,.1c0,1.7,0,3.4,0,4.9c0,.5,0,1.1,0,1.6c-.1,0,-.6,.1,-1.4,.2Z"/></clipPath>
<clipPath id="cp_3"><path d="M134.4,834.2V820.8H429.3v13.4Z"/></clipPath>
<clipPath id="cq_3"><path d="M251.2,834.2c.4,-1.6,.6,-2.8,.7,-3.7h.1c.5,0,1,0,1.4,-.1c-.4,1.1,-.8,2.3,-1.3,3.6v.1c-.3,0,-.5,0,-.7,.1Zm-93.5,-3c.6,0,1,-.3,1.5,-.8c0,-2.6,.1,-4.1,.1,-4.6c0,-.3,-.1,-.4,-.2,-.5c-.2,-.2,-.3,-.2,-.5,-.2c0,0,-.1,0,-.2,0c-.8,0,-1.4,.3,-1.8,1c-.4,.6,-.6,1.5,-.5,2.5c0,.7,.1,1.3,.4,1.7c.2,.6,.7,.9,1.2,.9Zm57.4,0c.5,0,1,-.3,1.4,-.8c.1,-2.6,.1,-4.1,.1,-4.6c0,-.3,-.1,-.4,-.2,-.5c-.2,-.2,-.3,-.2,-.5,-.2c0,0,-.1,0,-.1,0c-.9,0,-1.5,.3,-1.9,1c-.4,.6,-.5,1.5,-.5,2.5c0,.7,.1,1.3,.4,1.7c.2,.6,.7,.9,1.3,.9Zm110,0c.5,0,1,-.3,1.5,-.8c0,-2.6,.1,-4.1,.1,-4.6c0,-.3,-.1,-.4,-.2,-.5c-.2,-.2,-.3,-.2,-.5,-.2c0,0,-.1,0,-.2,0c-.8,0,-1.4,.3,-1.8,1c-.4,.6,-.6,1.5,-.5,2.5c0,.7,.1,1.3,.3,1.7c.3,.6,.8,.9,1.3,.9Zm83.5,0c.6,0,1,-.3,1.5,-.8c0,-2.6,.1,-4.1,.1,-4.6c0,-.3,-.1,-.4,-.2,-.5c-.2,-.2,-.3,-.2,-.5,-.2c0,0,-.1,0,-.1,0c-.9,0,-1.5,.3,-1.9,1c-.4,.6,-.6,1.5,-.5,2.5c0,.7,.1,1.3,.4,1.7c.2,.6,.7,.9,1.2,.9Zm-272,-3.8l3.6,-1c-.5,-1,-1,-1.5,-1.6,-1.5c-1,0,-1.6,.8,-2,2.5Zm36.9,3.8c.5,0,1.1,-.3,1.6,-.8c.1,-1.7,.2,-3.5,.2,-5.5h-.7c-1,0,-1.7,.4,-2.2,1c-.5,.6,-.7,1.5,-.6,2.6c0,.7,.1,1.3,.4,1.8c.3,.6,.7,.9,1.3,.9Zm65.1,-3.8l3.6,-1c-.6,-1,-1.1,-1.5,-1.7,-1.5c-.9,0,-1.6,.8,-1.9,2.5Zm36,0l3.6,-1c-.5,-1,-1,-1.5,-1.6,-1.5c-.9,0,-1.6,.8,-2,2.5Zm29.4,0l3.6,-1c-.5,-1,-1,-1.5,-1.6,-1.5c-1,0,-1.6,.8,-2,2.5Zm36.9,3.8c.5,0,1.1,-.3,1.6,-.8c.1,-1.7,.2,-3.5,.2,-5.5H342c-1,0,-1.7,.4,-2.2,1c-.5,.6,-.7,1.5,-.7,2.6c.1,.7,.2,1.3,.5,1.8c.3,.6,.7,.9,1.3,.9Zm25,-3.8l3.6,-1c-.5,-1,-1,-1.5,-1.6,-1.5c-.9,0,-1.6,.8,-2,2.5Zm25.5,0l3.6,-1c-.5,-1,-1,-1.5,-1.6,-1.5c-.9,0,-1.6,.8,-2,2.5Zm33.8,3.9c1.4,0,2.1,-1.1,2,-3.3c-.1,-2.1,-.7,-3.1,-1.9,-3.1c-1.4,0,-2,1.2,-1.9,3.7c0,.7,.1,1.3,.4,1.8c.3,.6,.8,.9,1.4,.9Zm-286.4,.8c-1.1,0,-1.9,-.3,-2.5,-1c-.6,-.6,-.9,-1.5,-.9,-2.5c-.1,-1.3,.2,-2.2,.7,-3c.5,-1,1.4,-1.5,2.6,-1.5c.7,0,1.3,.3,1.8,.7c.5,.4,.8,.9,1,1.6c-.1,.1,-.2,.3,-.5,.6c-.9,.3,-2.4,.7,-4.3,1.3c.1,1.9,.9,2.9,2.3,2.9c.7,0,1.5,-.3,2.2,-1c0,.3,-.1,.8,-.1,1.2c-.2,.2,-.5,.4,-1.1,.5c-.5,.1,-.8,.2,-1.2,.2Zm4.8,.4c-.3,0,-.7,0,-1.1,-.2c0,-.2,0,-.6,.2,-1.2c.8,.3,1.3,.5,1.5,.5c.5,0,.9,-.1,1.3,-.3c.5,-.3,.8,-.7,.8,-1.2c0,-.6,-.3,-.9,-.9,-1.1c-.4,-.2,-1,-.4,-1.7,-.7c-.6,-.4,-.9,-.9,-.9,-1.7c0,-.8,.3,-1.5,.9,-1.9c.6,-.4,1.3,-.6,2.2,-.6c.5,0,1,.1,1.4,.3l-.1,1.1c-.5,-.3,-1,-.4,-1.5,-.4c-.4,0,-.7,0,-1,.2c-.4,.2,-.6,.5,-.6,.9c.1,.5,.4,.9,1,1.1l1.6,.6c.6,.3,.9,.9,1,1.7c0,.6,-.3,1.3,-.9,1.9c-.7,.7,-1.7,1,-3.2,1Zm13.9,-.4c-.9,0,-1.6,-.4,-2.1,-1.1c-.5,-.7,-.7,-1.4,-.7,-2.4c-.1,-1.3,.3,-2.4,1,-3.2c.7,-.8,1.7,-1.3,3,-1.3c.6,0,1.1,.1,1.4,.2c.3,.2,.6,.6,.6,1.2c0,.1,0,.6,-.1,1.4v5.2c-.2,0,-.6,-.3,-1.3,-.7c-.7,.4,-1.3,.7,-1.8,.7Zm9.9,0v0c0,-.2,0,-1,-.1,-2.5c.1,-.7,.2,-1.6,.2,-2.5c0,-.6,-.1,-1,-.3,-1.4c-.2,-.4,-.5,-.6,-.9,-.6c-.7,0,-1.3,.3,-1.9,.8c0,1.1,0,2.1,0,3c0,1.1,-.1,2.2,-.2,3.1c-.5,0,-.9,0,-1.4,.1c.2,-2.1,.2,-3.6,.2,-4.7c0,-1,-.1,-1.9,-.2,-2.8q.1,-.1,.2,-.1c.2,0,.4,.1,.6,.1l.6,.3c.6,-.5,1.5,-.8,2.6,-.8c1.2,0,1.8,.8,1.9,2.4c0,.4,0,1.1,0,2c-.1,.5,-.1,1.2,0,2.1c0,.6,0,1,.1,1.4c0,0,-.1,0,-.1,0c-.5,0,-.9,.1,-1.3,.1Zm21.4,0c.1,-2,.1,-3.7,0,-4.9c0,-1.4,-.3,-2.1,-1,-2.1c-.6,0,-1.1,.3,-1.7,.9c0,1.3,0,2.5,0,3.5c0,1,0,1.8,0,2.5c0,0,-.1,0,-.1,0c-.4,0,-.8,0,-1.3,.1c.1,-1.7,.1,-3.7,0,-5.9c0,-.6,0,-1.2,0,-1.7h.2c.1,0,.3,.1,.5,.2c.2,0,.4,.2,.7,.3c.7,-.6,1.5,-.9,2.4,-.9c.6,0,1.2,.4,1.6,1.1c.9,-.7,1.8,-1.1,2.6,-1.1c1.3,0,2,.8,2,2.3V832q-.1,0,-.2,0c-.3,0,-.7,.1,-1.2,.1c0,-1.2,0,-2.8,0,-5c0,-1.4,-.5,-2,-1.3,-2c-.7,0,-1.2,.2,-1.7,.7c-.1,.6,-.1,1.7,-.1,3.1c0,1.3,0,2.4,0,3.1c-.3,0,-.7,0,-1.4,.1Zm8,0c.2,-2.1,.2,-4,.2,-5.7c0,-.8,-.1,-1.4,-.1,-1.9c.5,-.1,1,-.3,1.4,-.4v.1c-.1,1.7,-.1,3.5,-.1,5.1c0,.9,0,1.8,0,2.7h-.1c-.4,0,-.9,.1,-1.3,.1Zm8.5,0h-.1c0,-.2,0,-1,-.1,-2.5c.1,-.7,.2,-1.6,.2,-2.5c0,-.6,-.1,-1,-.3,-1.4c-.2,-.4,-.5,-.6,-.9,-.6c-.7,0,-1.3,.3,-1.9,.8c0,1.1,0,2.1,0,3c0,1.1,-.1,2.2,-.2,3.1c-.5,0,-.9,0,-1.3,.1c.1,-2.1,.1,-3.6,.1,-4.7c0,-1,-.1,-1.9,-.1,-2.8q0,-.1,.1,-.1c.2,0,.4,.1,.6,.1l.6,.3c.7,-.5,1.5,-.8,2.6,-.8c1.2,0,1.8,.8,1.9,2.4c0,.4,0,1.1,0,2c0,.5,0,1.2,0,2.1c0,.6,0,1,.1,1.4h-.1c-.5,0,-.9,.1,-1.2,.1Zm3.3,0c.2,-2.1,.2,-4,.2,-5.7c0,-.8,0,-1.4,-.1,-1.9c.5,-.1,1,-.3,1.4,-.4v.1c-.1,1.7,-.1,3.5,-.1,5.1c0,.9,0,1.8,0,2.7c-.5,0,-1,.1,-1.4,.1Zm6.2,0c-.9,0,-1.6,-.4,-2.1,-1.1c-.5,-.7,-.7,-1.4,-.7,-2.4c0,-1.3,.3,-2.4,1,-3.2c.7,-.8,1.7,-1.3,3,-1.3c.7,0,1.1,.1,1.4,.2c.4,.2,.6,.6,.6,1.2c0,.1,0,.6,0,1.4v5.2c-.3,0,-.7,-.3,-1.4,-.7c-.7,.4,-1.3,.7,-1.8,.7Zm11.9,0c-1.3,0,-1.9,-.8,-1.9,-2.3c0,-.4,0,-1,0,-2c0,-.7,0,-1.3,0,-1.9c0,-.7,0,-1.2,0,-1.6c.4,0,.9,-.1,1.5,-.2v.1c0,.3,0,.8,-.1,1.5c0,.6,0,1.1,0,1.4c0,.9,0,1.6,0,2.1c0,.5,.1,1,.2,1.3c.2,.4,.6,.7,1,.7c.5,0,1.1,-.3,1.8,-1c0,-.2,0,-.6,0,-1.4c0,-.5,0,-1,0,-1.4c0,-1,.1,-2,.1,-3.1c.1,-.1,.5,-.1,1.3,-.2c0,1.9,0,3.5,0,4.9c0,1.1,0,2.2,0,3v.1c-.3,0,-.4,-.1,-.7,-.3l-.7,-.5c-.8,.5,-1.6,.8,-2.5,.8Zm14.1,0c-1.1,0,-1.9,-.3,-2.5,-1c-.6,-.6,-.9,-1.5,-1,-2.5c0,-1.3,.2,-2.2,.7,-3c.6,-1,1.5,-1.5,2.6,-1.5c.7,0,1.4,.3,1.9,.7c.4,.4,.8,.9,1,1.6c-.1,.1,-.3,.3,-.5,.6c-1,.3,-2.4,.7,-4.4,1.3c.1,1.9,.9,2.9,2.4,2.9c.7,0,1.4,-.3,2.2,-1c-.1,.3,-.1,.8,-.1,1.2c-.2,.2,-.6,.4,-1.1,.5c-.5,.1,-.9,.2,-1.2,.2Zm4.8,.4c-.4,0,-.7,0,-1.2,-.2c0,-.2,.1,-.6,.2,-1.2c.9,.3,1.4,.5,1.5,.5c.5,0,1,-.1,1.4,-.3c.5,-.3,.8,-.7,.7,-1.2c0,-.6,-.3,-.9,-.9,-1.1c-.3,-.2,-.9,-.4,-1.6,-.7c-.6,-.4,-.9,-.9,-1,-1.7c0,-.8,.3,-1.5,1,-1.9c.6,-.4,1.3,-.6,2.2,-.6c.5,0,.9,.1,1.3,.3h.1l-.1,1.1c-.5,-.3,-1,-.4,-1.5,-.4c-.4,0,-.8,0,-1.1,.2c-.3,.2,-.5,.5,-.5,.9c0,.5,.3,.9,.9,1.1l1.7,.6c.5,.3,.9,.9,.9,1.7c0,.6,-.2,1.3,-.8,1.9c-.8,.7,-1.8,1,-3.2,1Zm6.5,-6.6v-1.7l.1,-.1h1.3v.1c0,.3,0,.6,0,.9c0,.2,0,.5,0,.8h-1.4Zm24.7,6.2c-1.1,0,-1.9,-.3,-2.5,-1c-.6,-.6,-.9,-1.5,-.9,-2.5c0,-1.3,.2,-2.2,.7,-3c.6,-1,1.4,-1.5,2.6,-1.5c.7,0,1.3,.3,1.8,.7c.5,.4,.8,.9,1.1,1.6c-.2,.1,-.3,.3,-.6,.6c-.9,.3,-2.4,.7,-4.3,1.3c.1,1.9,.9,2.9,2.3,2.9c.7,0,1.5,-.3,2.2,-1c0,.3,0,.8,-.1,1.2c-.2,.2,-.5,.4,-1.1,.5c-.4,.1,-.8,.2,-1.2,.2Zm16.8,0c-1.2,0,-1.9,-.8,-1.9,-2.3c0,-.4,0,-1,0,-2c0,-.7,0,-1.3,0,-1.9c0,-.7,0,-1.2,0,-1.6c.4,0,.9,-.1,1.5,-.2v.1c0,.3,0,.8,-.1,1.5c0,.6,0,1.1,0,1.4c0,.9,0,1.6,0,2.1c0,.5,.1,1,.3,1.3c.1,.4,.5,.7,.9,.7c.5,0,1.1,-.3,1.8,-1c0,-.2,0,-.6,.1,-1.4c0,-.5,0,-1,0,-1.4c0,-1,0,-2,0,-3.1c.1,-.1,.5,-.1,1.3,-.2c0,1.9,0,3.5,0,4.9c0,1.1,0,2.2,0,3v.1c-.3,0,-.4,-.1,-.7,-.3l-.6,-.5c-.9,.5,-1.7,.8,-2.6,.8Zm12.6,0c-1.1,0,-1.9,-.3,-2.5,-1c-.6,-.6,-.9,-1.5,-.9,-2.5c-.1,-1.3,.2,-2.2,.7,-3c.5,-1,1.4,-1.5,2.6,-1.5c.6,0,1.3,.3,1.8,.7c.4,.4,.8,.9,1,1.6c-.1,.1,-.2,.3,-.5,.6c-.9,.3,-2.4,.7,-4.3,1.3c.1,1.9,.9,2.9,2.3,2.9c.7,0,1.5,-.3,2.2,-1c0,.3,-.1,.8,-.1,1.2c-.2,.2,-.5,.4,-1.1,.5c-.5,.1,-.8,.2,-1.2,.2Zm4.8,.4c-.4,0,-.7,0,-1.1,-.2c0,-.2,0,-.6,.1,-1.2c.9,.3,1.4,.5,1.6,.5c.5,0,.9,-.1,1.3,-.3c.5,-.3,.8,-.7,.8,-1.2c0,-.6,-.3,-.9,-.9,-1.1c-.4,-.2,-1,-.4,-1.7,-.7c-.6,-.4,-.9,-.9,-.9,-1.7c-.1,-.8,.3,-1.5,.9,-1.9c.6,-.4,1.3,-.6,2.2,-.6c.5,0,1,.1,1.4,.3l-.1,1.1c-.5,-.3,-1,-.4,-1.5,-.4c-.4,0,-.7,0,-1,.2c-.4,.2,-.6,.5,-.6,.9c.1,.5,.4,.9,1,1.1l1.6,.6c.6,.3,.9,.9,1,1.7c0,.6,-.3,1.3,-.9,1.9c-.7,.7,-1.8,1,-3.2,1Zm13.9,-.4c-.9,0,-1.6,-.4,-2.1,-1.1c-.5,-.7,-.7,-1.4,-.7,-2.4c-.1,-1.3,.3,-2.4,.9,-3.2c.8,-.8,1.8,-1.3,3.1,-1.3c.6,0,1.1,.1,1.4,.2c.3,.2,.6,.6,.6,1.2c0,.1,0,.6,-.1,1.4v5.2c-.2,0,-.6,-.3,-1.3,-.7c-.7,.4,-1.3,.7,-1.8,.7Zm9.9,0v0c0,-.2,0,-1,-.1,-2.5c.1,-.7,.2,-1.6,.2,-2.5c0,-.6,-.1,-1,-.3,-1.4c-.2,-.4,-.5,-.6,-.9,-.6c-.7,0,-1.3,.3,-1.9,.8c0,1.1,0,2.1,0,3c0,1.1,-.1,2.2,-.2,3.1c-.5,0,-.9,0,-1.4,.1c.2,-2.1,.2,-3.6,.2,-4.7c0,-1,-.1,-1.9,-.2,-2.8q.1,-.1,.1,-.1q.1,0,.1,0c.2,0,.4,.1,.6,.1l.6,.3c.6,-.5,1.5,-.8,2.5,-.8c1.3,0,1.9,.8,1.9,2.4c.1,.4,.1,1.1,0,2c0,.5,0,1.2,0,2.1c.1,.6,.1,1,.2,1.4c0,0,-.1,0,-.1,0c-.5,0,-.9,.1,-1.3,.1Zm33.3,0c-1.1,0,-1.9,-.3,-2.5,-1c-.6,-.6,-.9,-1.5,-.9,-2.5c0,-1.3,.2,-2.2,.7,-3c.6,-1,1.5,-1.5,2.6,-1.5c.7,0,1.3,.3,1.8,.7c.5,.4,.9,.9,1.1,1.6c-.1,.1,-.3,.3,-.5,.6c-1,.3,-2.5,.7,-4.4,1.3c.1,1.9,.9,2.9,2.3,2.9c.7,0,1.5,-.3,2.2,-1c0,.3,0,.8,-.1,1.2c-.2,.2,-.5,.4,-1,.5c-.5,.1,-.9,.2,-1.3,.2Zm10.6,.4c-.4,0,-.7,0,-1.1,-.2h-.1c.1,-.2,.1,-.6,.2,-1.2c.9,.3,1.4,.5,1.6,.5c.4,0,.9,-.1,1.3,-.3c.5,-.3,.8,-.7,.8,-1.2c-.1,-.6,-.4,-.9,-1,-1.1c-.3,-.2,-.9,-.4,-1.6,-.7c-.6,-.4,-.9,-.9,-1,-1.7c0,-.8,.3,-1.5,1,-1.9c.6,-.4,1.3,-.6,2.2,-.6c.5,0,1,.1,1.4,.3l-.1,1.1c-.5,-.3,-1,-.4,-1.5,-.4c-.4,0,-.7,0,-1,.2c-.4,.2,-.6,.5,-.6,.9c0,.5,.3,.9,.9,1.1l1.7,.6c.6,.3,.9,.9,.9,1.7c.1,.6,-.2,1.3,-.8,1.9c-.7,.7,-1.8,1,-3.2,1Zm8.4,-.4c-1.1,0,-1.8,-.4,-2.4,-1.1c-.6,-.7,-.8,-1.5,-.8,-2.6c-.1,-1.1,.2,-2.1,.9,-2.9c.7,-.9,1.6,-1.4,2.7,-1.4c.7,0,1.2,.1,1.6,.3c0,.4,0,.8,0,1.1H389c-.4,-.3,-.8,-.4,-1.3,-.4c-.8,0,-1.4,.3,-1.9,1.1c-.4,.6,-.6,1.3,-.6,2.2c.1,.7,.2,1.4,.6,1.9c.3,.6,.9,.9,1.6,.9c.5,0,1.1,-.3,1.7,-.8c0,.4,0,.8,-.1,1.1c-.4,.4,-1.1,.6,-1.9,.6Zm6.5,0c-1.1,0,-1.9,-.3,-2.5,-1c-.6,-.6,-.9,-1.5,-.9,-2.5c0,-1.3,.2,-2.2,.7,-3c.6,-1,1.5,-1.5,2.6,-1.5c.7,0,1.3,.3,1.8,.7c.5,.4,.8,.9,1.1,1.6c-.1,.1,-.3,.3,-.5,.6c-1,.3,-2.5,.7,-4.4,1.3c.1,1.9,.9,2.9,2.3,2.9c.7,0,1.5,-.3,2.2,-1c0,.3,0,.8,-.1,1.2c-.2,.2,-.5,.4,-1.1,.5c-.4,.1,-.8,.2,-1.2,.2Zm8.9,0v0c0,-.2,-.1,-1,-.2,-2.5c.2,-.7,.2,-1.6,.2,-2.5c0,-.6,0,-1,-.2,-1.4c-.3,-.4,-.5,-.6,-1,-.6c-.6,0,-1.2,.3,-1.8,.8c-.1,1.1,-.1,2.1,-.1,3c0,1.1,0,2.2,-.1,3.1c-.6,0,-1,0,-1.4,.1c.1,-2.1,.2,-3.6,.2,-4.7c-.1,-1,-.1,-1.9,-.2,-2.8c0,-.1,.1,-.1,.1,-.1q.1,0,.1,0c.1,0,.4,.1,.5,.1l.7,.3c.6,-.5,1.5,-.8,2.5,-.8c1.2,0,1.9,.8,1.9,2.4c0,.4,0,1.1,0,2c0,.5,0,1.2,0,2.1c0,.6,.1,1,.2,1.4h-.1c-.5,0,-.9,.1,-1.3,.1Zm5.9,0c-.9,0,-1.6,-.4,-2.1,-1.1c-.5,-.7,-.7,-1.4,-.7,-2.4c-.1,-1.3,.3,-2.4,1,-3.2c.7,-.8,1.7,-1.3,3,-1.3c.6,0,1.1,.1,1.4,.2c.3,.2,.6,.6,.6,1.2c0,.1,0,.6,-.1,1.4v5.2c-.2,0,-.6,-.3,-1.3,-.7c-.7,.4,-1.3,.7,-1.8,.7Zm10.4,0c.1,-2.1,.2,-4,.1,-5.7c0,-.8,0,-1.4,-.1,-1.9c.6,-.1,1,-.3,1.4,-.4l.1,.1c-.1,1.7,-.1,3.5,-.1,5.1c0,.9,0,1.8,0,2.7q-.1,0,-.1,0c-.5,0,-.9,.1,-1.3,.1Zm6.4,0c-1.1,0,-1.9,-.4,-2.4,-1.1c-.5,-.6,-.8,-1.5,-.8,-2.5c0,-1.3,.2,-2.3,.7,-3.1c.6,-.8,1.5,-1.3,2.8,-1.3c1,0,1.8,.4,2.3,1.1c.5,.6,.7,1.5,.8,2.6c0,1.2,-.2,2.2,-.7,3c-.6,.8,-1.5,1.3,-2.7,1.3Zm-192.4,0c0,-2.4,0,-4.4,0,-6c0,-.5,0,-1,0,-1.6c.3,-.1,.7,-.2,1.3,-.4V826c.2,-.6,.6,-1.1,1.1,-1.5c.5,-.6,1,-.8,1.5,-.8c.1,0,.2,0,.3,0c-.1,.3,-.2,.7,-.3,1.3c-.3,0,-.5,.1,-.8,.2c-.3,0,-.5,.2,-.7,.4c-.5,.3,-.8,.9,-.9,1.8c-.2,.5,-.2,1.3,-.2,2.2c0,.8,0,1.6,0,2.4H234c-.3,0,-.7,.1,-1.2,.1Zm53.9,0c0,-2.4,0,-4.4,0,-6c0,-.5,0,-1,0,-1.6c.3,-.1,.7,-.2,1.3,-.4l.1,1.9c.2,-.6,.5,-1.1,1,-1.5c.5,-.6,1.1,-.8,1.6,-.8c0,0,.1,0,.2,0c-.1,.3,-.2,.7,-.3,1.3c-.2,0,-.5,.1,-.8,.2c-.2,0,-.4,.2,-.7,.4c-.5,.3,-.7,.9,-.9,1.8c-.1,.5,-.1,1.3,-.1,2.2c0,.8,0,1.6,0,2.4q-.1,0,-.1,0c-.3,0,-.7,.1,-1.3,.1Zm126.9,0c0,-2.4,0,-4.4,0,-6c0,-.5,0,-1,0,-1.6c.3,-.1,.7,-.2,1.4,-.4V826c.2,-.6,.5,-1.1,1,-1.5c.5,-.6,1.1,-.8,1.6,-.8c0,0,.1,0,.2,0c-.1,.3,-.2,.7,-.3,1.3c-.2,0,-.5,.1,-.7,.2c-.3,0,-.5,.2,-.8,.4c-.5,.3,-.7,.9,-.9,1.8c-.1,.5,-.1,1.3,-.1,2.2c0,.8,0,1.6,0,2.4q-.1,0,-.1,0c-.3,0,-.7,.1,-1.3,.1Zm-191,0c-1.3,0,-2,-.6,-2,-1.7v-5.1h-1v-.1l.1,-.7l.9,-.2v-1.8l1.4,-.3c-.1,.3,0,1,0,2.1h1.5c-.1,.3,-.1,.6,-.1,.9c-.2,0,-.7,0,-1.4,0v4.9c0,.8,.5,1.3,1.5,1.4l-.1,.5c-.2,0,-.5,.1,-.8,.1Zm40.7,0c-1.4,0,-2,-.6,-2,-1.7v-5.1h-1.1v-.1l.1,-.7l1,-.2v-1.8l1.3,-.3c0,.3,0,1,0,2.1h1.5c-.1,.3,-.1,.6,-.1,.9c-.2,0,-.6,0,-1.3,0l-.1,4.9c0,.8,.5,1.3,1.5,1.4v.5c-.3,0,-.6,.1,-.8,.1Zm91.3,0c-1.4,0,-2,-.6,-2,-1.7v-5.1h-1.1v-.1l.1,-.7l1,-.2v-1.8l1.3,-.3c0,.3,0,1,.1,2.1h1.4c0,.3,0,.6,0,.9c-.3,0,-.7,0,-1.4,0v4.9c-.1,.8,.4,1.3,1.4,1.4v.5c-.3,0,-.5,.1,-.8,.1ZM197.2,822.9c.1,-.5,.2,-1.1,.3,-1.9c.3,0,.7,0,1.3,-.1l-.6,1.7l-.1,.1c-.2,0,-.5,.1,-.9,.2Zm11.8,0c.1,-.5,.2,-1.1,.3,-1.9c.3,0,.7,0,1.3,-.1l-.6,1.7l-.1,.1c-.2,0,-.5,.1,-.9,.2Zm210.2,0c0,-.5,.1,-1.1,.2,-1.9c.3,0,.8,0,1.4,-.1l-.7,1.7l-.1,.1c-.2,0,-.4,.1,-.8,.2Zm-246,9.2c-.9,0,-1.6,-.4,-2.1,-1.1c-.5,-.7,-.7,-1.5,-.7,-2.4c-.1,-1.5,.3,-2.5,1,-3.3c.7,-.8,1.8,-1.2,3.1,-1.2h.8c0,-.6,0,-1.2,0,-1.7c0,-.4,0,-.8,0,-1.3c.3,-.1,.8,-.2,1.3,-.3h.1c-.2,2.4,-.2,4.9,-.2,7.5c0,1.3,0,2.5,0,3.5v.1c-.3,-.1,-.5,-.1,-.8,-.2l-.6,-.4c-.8,.5,-1.4,.8,-1.9,.8Zm97,1.1v-1.1c.1,-1.7,.1,-3.4,-.1,-5.2c-.1,-1.1,-.5,-1.7,-1.2,-1.7c-.5,0,-1,.3,-1.7,.9c-.1,1.2,-.1,2.2,-.1,3.1c0,1,0,1.9,0,2.7c0,0,-.1,0,-.1,0c-.3,0,-.7,0,-1.2,0c0,-1.3,0,-3.3,0,-5.9v-3.1c-.1,-.6,-.1,-1.2,-.1,-1.8c.3,-.1,.8,-.2,1.4,-.3h.1c-.1,1.1,-.1,2.6,-.1,4.5c1.1,-.7,1.9,-1,2.5,-1c1.3,0,2,.8,2,2.3c0,1.7,-.1,3.5,-.2,5.4c0,.6,-.4,1,-1.2,1.2Zm29.6,-1.1c.2,-3.6,.2,-6.3,.2,-8.1c-.1,-1,-.1,-2,-.2,-2.9c.4,-.1,.9,-.2,1.3,-.3h.1c0,.5,0,2.3,0,5.4c0,2.3,0,4.3,0,5.8c0,0,-.1,0,-.1,0c-.3,0,-.7,.1,-1.3,.1Zm40.8,0c-.9,0,-1.6,-.4,-2.1,-1.1c-.5,-.7,-.7,-1.5,-.7,-2.4c-.1,-1.5,.3,-2.5,1,-3.3c.7,-.8,1.8,-1.2,3.1,-1.2h.8c0,-.6,0,-1.2,0,-1.7c0,-.4,0,-.8,0,-1.3c.3,-.1,.8,-.2,1.3,-.3h.1c-.2,2.4,-.2,4.9,-.2,7.5c0,1.3,0,2.5,0,3.5v.1c-.3,-.1,-.5,-.1,-.8,-.2l-.6,-.4c-.8,.5,-1.4,.8,-1.9,.8Zm20.9,1.1v-1.1c.1,-1.7,.1,-3.4,-.1,-5.2c-.1,-1.1,-.5,-1.7,-1.1,-1.7c-.6,0,-1.1,.3,-1.8,.9c-.1,1.2,-.1,2.2,-.1,3.1c0,1,0,1.9,0,2.7c0,0,-.1,0,-.1,0c-.3,0,-.7,0,-1.2,0c0,-1.3,0,-3.3,0,-5.9v-3.1c0,-.6,-.1,-1.2,-.1,-1.8c.4,-.1,.8,-.2,1.4,-.3h.1c-.1,1.1,-.1,2.6,-.1,4.5c1.1,-.7,1.9,-1,2.5,-1c1.3,0,2,.8,2,2.3c0,1.7,0,3.5,-.2,5.4c0,.6,-.4,1,-1.2,1.2Z"/></clipPath>
<clipPath id="cr_3"><path d="M134.4,853.2V838.4H429.5v14.8Z"/></clipPath>
<clipPath id="cs_3"><path d="M312.5,850.4v0c0,-.7,0,-1.3,0,-1.9c.6,0,1.1,0,1.5,-.1v.1c-.1,.6,-.1,1.2,-.1,1.7l-.1,.1l-1.3,.1Zm-158.4,-.9c.5,0,1,-.3,1.4,-.8c0,-2.6,.1,-4.1,.1,-4.6c0,-.2,-.1,-.3,-.2,-.5c-.2,-.1,-.3,-.2,-.5,-.2c0,0,-.1,0,-.1,0c-.9,0,-1.5,.3,-1.9,1c-.4,.6,-.6,1.5,-.5,2.6c0,.6,.1,1.2,.4,1.7c.2,.5,.7,.8,1.3,.8Zm19.7,0c.5,0,1,-.3,1.5,-.8c0,-1.4,0,-2.9,0,-4.6c0,-.2,-.1,-.3,-.2,-.5c-.1,-.1,-.3,-.2,-.4,-.2c-.1,0,-.2,0,-.2,0c-.9,0,-1.4,.3,-1.9,1c-.4,.6,-.5,1.5,-.5,2.6c0,.6,.2,1.2,.4,1.7c.3,.5,.7,.8,1.3,.8Zm29.7,0c.5,0,1,-.3,1.5,-.8c0,-1.4,0,-2.9,0,-4.6c0,-.2,0,-.3,-.2,-.5c-.1,-.1,-.2,-.2,-.4,-.2q-.1,0,-.2,0c-.8,0,-1.4,.3,-1.8,1c-.5,.6,-.6,1.5,-.6,2.6c0,.6,.2,1.2,.4,1.7c.3,.5,.7,.8,1.3,.8Zm132.5,0c.5,0,1,-.3,1.4,-.8c0,-2.6,.1,-4.1,.1,-4.6c0,-.2,-.1,-.3,-.2,-.5c-.2,-.1,-.3,-.2,-.5,-.2c0,0,-.1,0,-.1,0c-.9,0,-1.5,.3,-1.9,1c-.4,.6,-.6,1.5,-.5,2.6c0,.6,.1,1.2,.4,1.7c.2,.5,.7,.8,1.3,.8Zm34.8,0c.6,0,1.1,-.3,1.5,-.8c0,-2.6,.1,-4.1,.1,-4.6c0,-.2,-.1,-.3,-.2,-.5c-.2,-.1,-.3,-.2,-.5,-.2c0,0,-.1,0,-.1,0c-.9,0,-1.5,.3,-1.9,1c-.4,.6,-.6,1.5,-.5,2.6c0,.6,.1,1.2,.4,1.7c.2,.5,.7,.8,1.2,.8ZM164.7,845.7l3.6,-.9c-.5,-1.1,-1,-1.6,-1.6,-1.6c-.9,0,-1.6,.9,-2,2.5Zm55.7,4c1.4,0,2.1,-1.2,2,-3.4c-.1,-2.1,-.7,-3.1,-1.9,-3.1c-1.4,0,-2,1.3,-1.9,3.7c0,.7,.1,1.3,.4,1.8c.3,.6,.8,1,1.4,1Zm28.2,-4l3.6,-.9c-.6,-1.1,-1.1,-1.6,-1.6,-1.6c-1,0,-1.6,.9,-2,2.5Zm28.2,0l3.6,-.9c-.6,-1.1,-1.1,-1.6,-1.6,-1.6c-1,0,-1.6,.9,-2,2.5Zm17.7,4c1.3,0,2,-1.2,1.9,-3.4c0,-2.1,-.6,-3.1,-1.8,-3.1c-1.4,0,-2.1,1.3,-2,3.7c0,.7,.2,1.3,.4,1.8c.3,.6,.8,1,1.5,1Zm12.4,-.2c.5,0,1.1,-.3,1.6,-.8c.1,-1.7,.2,-3.5,.2,-5.5H308c-1,0,-1.7,.4,-2.2,1.1c-.5,.6,-.7,1.5,-.7,2.6c0,.6,.2,1.2,.4,1.7c.3,.6,.8,.9,1.4,.9Zm80.1,.2c1.4,0,2.1,-1.2,2,-3.4c-.1,-2.1,-.7,-3.1,-1.9,-3.1c-1.4,0,-2,1.3,-1.9,3.7c0,.7,.1,1.3,.4,1.8c.3,.6,.8,1,1.4,1Zm18.4,-4l3.6,-.9c-.5,-1.1,-1.1,-1.6,-1.6,-1.6c-1,0,-1.6,.9,-2,2.5Zm13.5,0l3.6,-.9c-.6,-1.1,-1.1,-1.6,-1.6,-1.6c-1,0,-1.7,.9,-2,2.5Zm-282.7,5.2c-.4,0,-.8,-.1,-1.2,-.2v-.1c0,-.2,.1,-.6,.2,-1.1c.8,.3,1.4,.5,1.5,.5c.5,0,1,-.1,1.3,-.4c.6,-.3,.8,-.7,.8,-1.2c0,-.5,-.3,-.9,-.9,-1.1c-.4,-.2,-.9,-.4,-1.7,-.7c-.6,-.3,-.9,-.9,-.9,-1.6c0,-.9,.3,-1.5,1,-2c.5,-.4,1.3,-.5,2.1,-.5c.5,0,1,.1,1.4,.2l-.1,1.1c-.5,-.3,-1,-.4,-1.5,-.4c-.4,0,-.7,.1,-1,.3c-.4,.1,-.5,.5,-.5,.8c0,.5,.3,.9,.9,1.1l1.6,.6c.6,.4,1,1,1,1.8c0,.6,-.3,1.3,-.9,1.8c-.7,.7,-1.7,1.1,-3.1,1.1Zm17.6,-.5c-.9,0,-1.6,-.3,-2.1,-1.1c-.5,-.6,-.7,-1.4,-.7,-2.3c0,-1.4,.3,-2.5,1,-3.3c.7,-.8,1.7,-1.2,3,-1.2c.6,0,1.1,0,1.4,.2c.3,.2,.6,.6,.6,1.2c0,.1,0,.5,0,1.3v1.9l-.1,3.3c-.2,0,-.6,-.2,-1.3,-.7c-.7,.5,-1.3,.7,-1.8,.7Zm13.1,0c-1.1,0,-1.9,-.3,-2.5,-1c-.6,-.6,-.9,-1.4,-.9,-2.5c0,-1.2,.2,-2.2,.7,-3c.6,-1,1.4,-1.4,2.6,-1.4c.7,0,1.3,.2,1.8,.6c.5,.4,.8,.9,1,1.6c-.1,.1,-.2,.4,-.5,.6c-.9,.3,-2.4,.8,-4.3,1.4c.1,1.8,.9,2.8,2.3,2.8c.7,0,1.5,-.3,2.2,-.9c0,.3,0,.7,-.1,1.2c-.2,.1,-.5,.3,-1.1,.5c-.4,0,-.8,.1,-1.2,.1Zm5.8,2.8c-.5,-.1,-.9,-.2,-1.2,-.3l.1,-1.4c.2,.3,.6,.5,1,.7c.3,.1,.7,.2,1,.2c.2,0,.4,0,.6,-.1c.7,-.3,1.1,-1.2,1.1,-2.6c-.6,.5,-1.3,.7,-1.9,.7c-.9,0,-1.5,-.3,-2,-1.1c-.4,-.6,-.6,-1.4,-.7,-2.3c0,-1.4,.3,-2.5,1,-3.3c.7,-.8,1.7,-1.2,3,-1.2c.7,0,1.2,.1,1.5,.2c.3,.2,.5,.6,.5,1.2c0,.5,0,1.5,0,2.8c0,.8,0,2,0,3.5c0,.9,-.3,1.6,-.8,2.2c-.2,.2,-.5,.5,-.8,.6c-.2,.1,-.4,.2,-.5,.2Zm6.4,-2.8v0c.1,-2,.1,-3.9,.1,-5.7c0,-.7,0,-1.4,-.1,-1.9c.5,-.1,1,-.2,1.4,-.3c-.1,1.8,-.1,3.5,-.1,5.1c0,.9,0,1.9,0,2.7c-.5,0,-.9,.1,-1.3,.1Zm4.6,0c-.3,0,-.6,0,-1.2,0v-.1l-.1,-.6c.1,-.1,.3,-.4,.6,-.9c.3,-.6,.6,-.9,.6,-1c.2,-.5,1,-1.9,2.3,-4.4c-.7,0,-1.8,.1,-3.2,.2v-.1l.1,-1c1,.1,2.4,.1,4.3,.1c.1,0,.3,0,.5,0v.2c-.8,1.5,-1.9,3.7,-3.5,6.7c.3,-.1,1,-.1,1.8,-.1c.6,-.1,1.2,-.1,1.5,-.1c.2,0,.3,0,.3,0l-.1,1.1h-.1Zm5.2,0c.2,-2,.2,-3.9,.2,-5.7c0,-.7,-.1,-1.4,-.1,-1.9c.5,-.1,1,-.2,1.4,-.3c-.1,1.8,-.1,3.5,-.1,5.1c0,.9,0,1.9,0,2.7c-.5,0,-1,.1,-1.4,.1Zm8.5,0h-.1c0,-.2,0,-1,-.1,-2.5c.1,-.7,.2,-1.5,.2,-2.5c0,-.5,-.1,-1,-.3,-1.3c-.2,-.5,-.5,-.7,-.9,-.7c-.7,0,-1.3,.3,-1.9,.9c0,1,0,2,0,2.9c0,1.2,-.1,2.2,-.2,3.1c-.5,0,-.9,.1,-1.3,.1c.1,-2,.1,-3.6,.1,-4.7c0,-1,-.1,-1.9,-.1,-2.8q0,-.1,.1,-.1c.2,0,.4,.1,.6,.2l.6,.3c.7,-.6,1.6,-.8,2.6,-.8c1.2,0,1.8,.8,1.9,2.3c0,.4,0,1.1,0,2c0,.6,0,1.3,0,2.1c0,.6,0,1.1,.1,1.4h-.1c-.5,0,-.9,.1,-1.2,.1Zm5.1,2.8v0c-.6,-.1,-1,-.2,-1.2,-.3v-1.4c.2,.3,.6,.5,1,.7c.3,.1,.7,.2,1,.2c.2,0,.4,0,.6,-.1c.7,-.3,1.1,-1.2,1.1,-2.6c-.6,.5,-1.3,.7,-1.9,.7c-.8,0,-1.5,-.3,-2,-1.1c-.4,-.6,-.6,-1.4,-.7,-2.3c0,-1.4,.3,-2.5,1,-3.3c.7,-.8,1.7,-1.2,3.1,-1.2c.6,0,1.1,.1,1.4,.2c.3,.2,.5,.6,.5,1.2c0,.5,0,1.5,0,2.8c0,.8,0,2,0,3.5c0,.9,-.3,1.6,-.8,2.2c-.2,.2,-.4,.5,-.8,.6c-.2,.1,-.4,.2,-.5,.2Zm17.9,-2.8c-1.1,0,-1.9,-.3,-2.4,-1c-.5,-.7,-.8,-1.5,-.8,-2.6c-.1,-1.3,.2,-2.3,.7,-3c.6,-.9,1.5,-1.3,2.8,-1.3c.9,0,1.8,.3,2.3,1c.5,.6,.7,1.5,.8,2.6c0,1.2,-.2,2.3,-.7,3c-.6,.9,-1.5,1.3,-2.7,1.3Zm30.4,0c-1.1,0,-1.9,-.3,-2.5,-1c-.6,-.6,-.9,-1.4,-1,-2.5c0,-1.2,.3,-2.2,.7,-3c.6,-1,1.5,-1.4,2.6,-1.4c.7,0,1.4,.2,1.9,.6c.4,.4,.8,.9,1,1.6c-.1,.1,-.3,.4,-.5,.6c-1,.3,-2.4,.8,-4.4,1.4c.1,1.8,.9,2.8,2.4,2.8c.7,0,1.5,-.3,2.2,-.9c-.1,.3,-.1,.7,-.1,1.2c-.2,.1,-.6,.3,-1.1,.5c-.5,0,-.9,.1,-1.2,.1Zm20.1,0v-.1c-.8,-3.2,-1.5,-5.8,-2,-7.6c.4,-.1,.8,-.1,1.3,-.2l.1,.1l1.5,6.4c.4,-1.4,1.1,-3.5,1.9,-6.3c.4,0,.8,0,1.3,-.1c-.9,2.3,-1.6,4.8,-2.4,7.5v.1h-.1c-.1,0,-.7,.1,-1.6,.2Zm8.1,0c-1.1,0,-1.9,-.3,-2.5,-1c-.6,-.6,-.9,-1.4,-1,-2.5c0,-1.2,.3,-2.2,.7,-3c.6,-1,1.5,-1.4,2.6,-1.4c.7,0,1.4,.2,1.9,.6c.4,.4,.8,.9,1,1.6c-.1,.1,-.2,.4,-.5,.6c-1,.3,-2.4,.8,-4.4,1.4c.1,1.8,.9,2.8,2.4,2.8c.7,0,1.5,-.3,2.2,-.9c-.1,.3,-.1,.7,-.1,1.2c-.2,.1,-.6,.3,-1.1,.5c-.5,0,-.9,.1,-1.2,.1Zm15.4,0c-1,0,-1.8,-.3,-2.4,-1c-.5,-.7,-.7,-1.5,-.8,-2.6c0,-1.3,.2,-2.3,.8,-3c.5,-.9,1.5,-1.3,2.7,-1.3c1,0,1.8,.3,2.4,1c.4,.6,.7,1.5,.7,2.6c0,1.2,-.2,2.3,-.7,3c-.6,.9,-1.4,1.3,-2.7,1.3Zm41.3,0c-.9,0,-1.6,-.3,-2.1,-1.1c-.5,-.6,-.7,-1.4,-.7,-2.3c0,-1.4,.3,-2.5,1,-3.3c.7,-.8,1.7,-1.2,3,-1.2c.7,0,1.1,0,1.4,.2c.4,.2,.6,.6,.6,1.2c0,.1,0,.5,0,1.3v1.9l-.1,3.3c-.2,0,-.6,-.2,-1.3,-.7c-.7,.5,-1.3,.7,-1.8,.7Zm10.4,.5c-.4,0,-.8,-.1,-1.2,-.2v-.1c0,-.2,.1,-.6,.2,-1.1c.9,.3,1.4,.5,1.5,.5c.5,0,1,-.1,1.4,-.4c.5,-.3,.7,-.7,.7,-1.2c0,-.5,-.3,-.9,-.9,-1.1c-.4,-.2,-.9,-.4,-1.7,-.7c-.6,-.3,-.9,-.9,-.9,-1.6c0,-.9,.3,-1.5,1,-2c.5,-.4,1.3,-.5,2.2,-.5c.4,0,.9,.1,1.3,.2l-.1,1.1c-.4,-.3,-.9,-.4,-1.4,-.4c-.4,0,-.8,.1,-1.1,.3c-.4,.1,-.5,.5,-.5,.8c0,.5,.3,.9,.9,1.1l1.7,.6c.5,.4,.9,1,.9,1.8c0,.6,-.3,1.3,-.9,1.8c-.7,.7,-1.7,1.1,-3.1,1.1Zm5.6,-.5c.1,-2,.2,-3.9,.1,-5.7c0,-.7,0,-1.4,-.1,-1.9c.6,-.1,1,-.2,1.4,-.3h.1c-.1,1.8,-.1,3.5,-.1,5.1c0,.9,0,1.9,0,2.7q-.1,0,-.1,0c-.5,0,-.9,.1,-1.3,.1Zm10.4,0c-1.3,0,-1.9,-.7,-1.9,-2.2c-.1,-.4,-.1,-1.1,0,-2c0,-.7,0,-1.4,0,-2c0,-.6,0,-1.1,0,-1.6c.4,0,.9,-.1,1.4,-.1c0,.3,0,.9,-.1,1.5c0,.6,0,1.2,0,1.5c0,.8,0,1.6,0,2.1c0,.5,.1,.9,.3,1.2c.2,.5,.5,.7,1,.7c.5,0,1.1,-.3,1.7,-1c0,-.1,.1,-.6,.1,-1.4c0,-.5,0,-.9,0,-1.4c0,-1,0,-2,0,-3.1h.1c0,0,.5,0,1.3,-.1c0,1.8,0,3.5,0,4.9c0,1.1,0,2.1,0,3h-.1c-.2,0,-.4,-.1,-.6,-.3l-.7,-.5c-.8,.5,-1.7,.8,-2.5,.8Zm8.5,0c-.9,0,-1.6,-.3,-2.1,-1.1c-.5,-.6,-.7,-1.4,-.7,-2.3c0,-1.4,.3,-2.5,1,-3.3c.7,-.8,1.7,-1.2,3,-1.2c.6,0,1.1,0,1.4,.2c.3,.2,.6,.6,.6,1.2c0,.1,0,.5,0,1.3v1.9l-.1,3.3c-.2,0,-.6,-.2,-1.3,-.7c-.7,.5,-1.3,.7,-1.8,.7Zm10,0c.1,-2,.2,-3.9,.1,-5.7c0,-.7,0,-1.4,-.1,-1.9c.6,-.1,1,-.2,1.4,-.3h.1c-.1,1.8,-.1,3.5,-.1,5.1c0,.9,0,1.9,0,2.7q-.1,0,-.1,0c-.5,0,-.9,.1,-1.3,.1Zm6.4,0c-1,0,-1.8,-.3,-2.4,-1c-.5,-.7,-.8,-1.5,-.8,-2.6c0,-1.3,.2,-2.3,.7,-3c.6,-.9,1.6,-1.3,2.8,-1.3c1,0,1.8,.3,2.3,1c.5,.6,.7,1.5,.8,2.6c0,1.2,-.2,2.3,-.7,3c-.6,.9,-1.5,1.3,-2.7,1.3Zm9.6,0v0c0,-.2,0,-1,-.1,-2.5c.1,-.7,.2,-1.5,.2,-2.5c-.1,-.5,-.1,-1,-.3,-1.3c-.2,-.5,-.5,-.7,-1,-.7c-.6,0,-1.2,.3,-1.8,.9c-.1,1,-.1,2,-.1,2.9c0,1.2,0,2.2,-.1,3.1c-.6,0,-1,.1,-1.4,.1c.1,-2,.2,-3.6,.2,-4.7c-.1,-1,-.1,-1.9,-.2,-2.8q.1,-.1,.1,-.1h.1c.2,0,.4,.1,.6,.2l.6,.3c.6,-.6,1.5,-.8,2.5,-.8c1.2,0,1.9,.8,1.9,2.3c0,.4,0,1.1,0,2c0,.6,0,1.3,0,2.1c.1,.6,.1,1.1,.2,1.4q-.1,0,-.1,0c-.5,0,-.9,.1,-1.3,.1Zm11,0c-1.1,0,-1.9,-.3,-2.5,-1c-.6,-.6,-.9,-1.4,-.9,-2.5c-.1,-1.2,.2,-2.2,.7,-3c.5,-1,1.4,-1.4,2.6,-1.4c.6,0,1.3,.2,1.8,.6c.4,.4,.8,.9,1,1.6c-.1,.1,-.2,.4,-.5,.6c-.9,.3,-2.4,.8,-4.3,1.4c.1,1.8,.9,2.8,2.3,2.8c.7,0,1.5,-.3,2.2,-.9c0,.3,-.1,.7,-.1,1.2c-.2,.1,-.5,.3,-1.1,.5c-.5,0,-.8,.1,-1.2,.1Zm5.4,0v-.1c-.8,-3.2,-1.5,-5.8,-2,-7.6c.4,-.1,.8,-.1,1.3,-.2v.1l1.6,6.4c.4,-1.4,1.1,-3.5,1.8,-6.3h.1c.3,0,.8,0,1.2,-.1c-.8,2.3,-1.5,4.8,-2.3,7.5v.1h-.1c-.2,0,-.7,.1,-1.6,.2Zm8.1,0c-1.1,0,-1.9,-.3,-2.5,-1c-.6,-.6,-.9,-1.4,-1,-2.5c0,-1.2,.2,-2.2,.7,-3c.6,-1,1.5,-1.4,2.6,-1.4c.7,0,1.4,.2,1.9,.6c.4,.4,.8,.9,1,1.6c-.1,.1,-.3,.4,-.5,.6c-1,.3,-2.4,.8,-4.4,1.4c.1,1.8,.9,2.8,2.4,2.8c.7,0,1.4,-.3,2.2,-.9c-.1,.3,-.1,.7,-.1,1.2c-.2,.1,-.6,.3,-1.1,.5c-.5,0,-.9,.1,-1.2,.1Zm-274.5,0c0,-2.4,0,-4.4,0,-5.9c0,-.5,0,-1.1,0,-1.7c.3,-.1,.7,-.2,1.3,-.3v1.8c.2,-.5,.6,-1,1.1,-1.5c.5,-.5,1,-.8,1.6,-.8c0,0,.1,0,.2,.1c-.1,.2,-.2,.7,-.3,1.2c-.3,.1,-.5,.1,-.8,.2c-.3,0,-.5,.2,-.7,.4c-.5,.3,-.8,1,-.9,1.8c-.2,.5,-.2,1.3,-.2,2.3c0,.7,0,1.6,0,2.3h-.1c-.2,0,-.7,.1,-1.2,.1Zm78.7,0c0,-2.4,0,-4.4,0,-5.9c0,-.5,0,-1.1,0,-1.7c.2,-.1,.7,-.2,1.3,-.3v1.8c.2,-.5,.6,-1,1.1,-1.5c.5,-.5,1,-.8,1.5,-.8c.1,0,.2,0,.3,.1c-.1,.2,-.2,.7,-.3,1.2c-.3,.1,-.5,.1,-.8,.2c-.3,0,-.5,.2,-.7,.4c-.5,.3,-.8,1,-.9,1.8c-.2,.5,-.2,1.3,-.2,2.3c0,.7,0,1.6,0,2.3h-.1c-.3,0,-.7,.1,-1.2,.1Zm57.8,0c0,-2.4,0,-4.4,0,-5.9c0,-.5,0,-1.1,0,-1.7c.3,-.1,.7,-.2,1.4,-.3v1.8c.2,-.5,.5,-1,1,-1.5c.5,-.5,1.1,-.8,1.6,-.8c0,0,.1,0,.2,.1c-.1,.2,-.2,.7,-.3,1.2c-.2,.1,-.5,.1,-.7,.2c-.3,0,-.5,.2,-.8,.4c-.5,.3,-.7,1,-.9,1.8c-.1,.5,-.1,1.3,-.1,2.3c0,.7,0,1.6,0,2.3q-.1,0,-.1,0c-.3,0,-.7,.1,-1.3,.1Zm16.2,0c0,-2.4,0,-4.4,0,-5.9c0,-.5,0,-1.1,0,-1.7c.3,-.1,.8,-.2,1.4,-.3v1.8c.2,-.5,.5,-1,1,-1.5c.5,-.5,1.1,-.8,1.6,-.8c0,0,.1,0,.2,.1c-.1,.2,-.1,.7,-.3,1.2c-.2,.1,-.4,.1,-.7,.2c-.3,0,-.5,.2,-.8,.4c-.5,.3,-.7,1,-.9,1.8c-.1,.5,-.1,1.3,-.1,2.3c0,.7,0,1.6,0,2.3q-.1,0,-.1,0c-.3,0,-.7,.1,-1.3,.1Zm125.9,0c0,-2.4,0,-4.4,0,-5.9c0,-.5,0,-1.1,0,-1.7c.3,-.1,.7,-.2,1.3,-.3l.1,1.8c.2,-.5,.5,-1,1,-1.5c.5,-.5,1.1,-.8,1.6,-.8c0,0,.1,0,.2,.1c-.1,.2,-.2,.7,-.3,1.2c-.2,.1,-.5,.1,-.7,.2c-.3,0,-.5,.2,-.8,.4c-.5,.3,-.7,1,-.9,1.8c-.1,.5,-.1,1.3,-.1,2.3c0,.7,0,1.6,0,2.3q-.1,0,-.1,0c-.3,0,-.7,.1,-1.3,.1Zm-161.9,-.9c1.1,0,2,-.5,2.5,-1.6c.4,-.9,.6,-1.9,.6,-3.1c-.1,-2.7,-1,-4,-2.9,-4c-2.1,0,-3.1,1.5,-3.1,4.6c0,1,.2,2,.6,2.7c.5,.9,1.3,1.4,2.3,1.4Zm-118.9,.9c-1.4,0,-2,-.5,-2,-1.7v-5.1h-1.1l.1,-.8l1,-.2v-1.8l1.3,-.3c0,.3,0,1,.1,2.1h1.4c-.1,.3,0,.6,0,.9c-.3,0,-.7,.1,-1.4,.1v4.8c-.1,.8,.4,1.3,1.4,1.4v.5c-.3,.1,-.5,.1,-.8,.1Zm17.2,0c-1.3,0,-2,-.5,-2,-1.7v-5.1h-1.1l.2,-.8l.9,-.2v-1.8l1.3,-.3c0,.3,.1,1,.1,2.1h1.4c0,.3,0,.6,0,.9c-.2,0,-.7,.1,-1.4,.1v4.8c0,.8,.5,1.3,1.4,1.4v.5c-.3,.1,-.5,.1,-.8,.1Zm75.6,0c-1.3,0,-2,-.5,-2,-1.7v-5.1h-1.1l.2,-.8l.9,-.2v-1.8l1.3,-.3c0,.3,.1,1,.1,2.1H238c0,.3,0,.6,0,.9c-.2,0,-.7,.1,-1.4,.1v4.8c0,.8,.5,1.3,1.5,1.4l-.1,.5c-.3,.1,-.5,.1,-.8,.1Zm120.8,0c-1.4,0,-2,-.5,-2,-1.7v-5.1h-1.1l.1,-.8l1,-.2v-1.8l1.3,-.3c0,.3,0,1,0,2.1h1.5c-.1,.3,0,.6,0,.9c-.3,0,-.7,.1,-1.4,.1l-.1,4.8c0,.8,.5,1.3,1.5,1.4v.5c-.3,.1,-.6,.1,-.8,.1Zm20.4,0c-1.3,0,-2,-.5,-2,-1.7v-5.1h-1.1l.2,-.8l.9,-.2v-1.8l1.3,-.3c0,.3,.1,1,.1,2.1h1.4c0,.3,0,.6,0,.9c-.2,0,-.7,.1,-1.4,.1v4.8c0,.8,.5,1.3,1.4,1.4v.5c-.3,.1,-.5,.1,-.8,.1Zm-57.8,0c0,-2.9,0,-6,0,-9.4h-.8l.2,-.9h.1L322,840c-.1,2.3,-.1,4.4,-.1,6.5c0,1.3,0,2.6,0,3.8c-.4,0,-.8,.1,-1.3,.1Zm-57.3,0c-1.5,0,-2.5,-.5,-3.2,-1.5c-.7,-.9,-1,-2,-1.1,-3.4c0,-1.6,.3,-2.9,1,-3.9c.8,-1.2,2,-1.7,3.6,-1.7c1.3,0,2.4,.5,3.1,1.5c.7,.8,1,2,1.1,3.4c0,1.6,-.3,2.9,-1,3.9c-.8,1.1,-2,1.7,-3.5,1.7Zm-83.9,-9.2c.1,-.4,.2,-1,.3,-1.9c.3,0,.8,0,1.3,0l-.6,1.7l-.1,.1c-.2,0,-.5,.1,-.9,.1Zm9.9,0c.1,-.4,.2,-1,.3,-1.9c.3,0,.7,0,1.3,0l-.6,1.7l-.1,.1c-.2,0,-.5,.1,-.9,.1Zm162.8,0c0,-.4,.1,-1,.2,-1.9c.3,0,.8,0,1.4,0L353,841l-.1,.1c-.2,0,-.4,.1,-.8,.1Zm28.9,0c0,-.4,.1,-1,.3,-1.9c.2,0,.7,0,1.3,0l-.7,1.7l-.1,.1c-.2,0,-.4,.1,-.8,.1ZM244.1,851.5v-1.1c.1,-1.7,.1,-3.3,0,-5.1c-.2,-1.2,-.5,-1.8,-1.2,-1.8c-.5,0,-1.1,.4,-1.8,1c0,1.1,0,2.1,0,3.1c0,.9,0,1.8,0,2.6q-.1,0,-.2,0c-.3,0,-.7,0,-1.2,.1c0,-1.3,0,-3.3,0,-6v-3c0,-.7,0,-1.3,0,-1.8c.3,-.1,.8,-.2,1.4,-.4c0,1.1,0,2.7,0,4.6c1,-.8,1.8,-1.1,2.5,-1.1c1.2,0,1.9,.8,1.9,2.4c.1,1.6,0,3.4,-.1,5.3c-.1,.7,-.5,1.1,-1.3,1.2Zm44.3,-1.1c.2,-3.6,.2,-6.3,.2,-8c0,-1.1,-.1,-2,-.2,-3c.5,-.1,.9,-.2,1.4,-.3c0,.5,0,2.3,0,5.4c0,2.4,0,4.3,0,5.8c0,0,-.1,0,-.1,0c-.3,0,-.7,.1,-1.3,.1Zm18.1,0c-.9,0,-1.5,-.3,-2.1,-1.1c-.4,-.7,-.6,-1.4,-.7,-2.4c0,-1.4,.4,-2.4,1.1,-3.2c.7,-.9,1.8,-1.2,3.1,-1.2h.7c0,-.7,0,-1.3,0,-1.8c0,-.4,0,-.8,.1,-1.2c.3,-.1,.8,-.2,1.4,-.4c-.2,2.4,-.3,5,-.3,7.6c0,1.2,0,2.4,0,3.5c-.2,0,-.4,-.1,-.7,-.2l-.7,-.3c-.7,.5,-1.3,.7,-1.9,.7Zm-93.3,0c0,-1.7,0,-3.9,0,-6.7l-.7,.1c0,-.2,0,-.5,0,-.8l.1,-.1h.6c.1,-2,.5,-3.3,1.2,-3.9c.3,-.3,.6,-.5,1,-.6h.9c0,.1,0,.4,0,.7h-.1c-.6,0,-1.1,.3,-1.4,.9c-.1,.3,-.2,.8,-.2,1.4c0,.2,0,.7,0,1.4c.4,0,.9,0,1.6,0c-.1,.2,-.1,.5,-.1,.9c-.2,0,-.7,0,-1.5,0c0,1.8,0,3.4,0,5c0,.4,0,1,0,1.6c-.2,0,-.6,0,-1.4,.1Zm111.1,0c0,-1.7,0,-3.9,0,-6.7l-.7,.1h-.1c.1,-.2,.1,-.5,.1,-.8l.1,-.1h.6c.1,-2,.5,-3.3,1.2,-3.9c.3,-.3,.6,-.5,1,-.6h.9c0,.1,0,.4,0,.7h-.1c-.6,0,-1.1,.3,-1.4,.9c-.1,.3,-.2,.8,-.2,1.4c0,.2,0,.7,0,1.4c.3,0,.9,0,1.6,0c-.1,.2,-.1,.5,-.1,.9c-.2,0,-.7,0,-1.5,0c0,1.8,0,3.4,0,5c0,.4,0,1,0,1.6c-.2,0,-.6,0,-1.4,.1Z"/></clipPath>
<clipPath id="ct_3"><path d="M134.4,871.7V857.4H429.3v14.3Z"/></clipPath>
<clipPath id="cu_3"><path d="M357.4,870.9c.3,-1.5,.6,-2.8,.7,-3.8l.1,-.1c.5,0,1,0,1.4,-.1c-.4,1.2,-.8,2.5,-1.3,3.9v.1c-.1,-.1,-.2,-.1,-.2,-.1c-.3,0,-.5,.1,-.7,.1Zm-137,-3.1c.9,0,1.6,-.3,2,-1c.5,-.6,.7,-1.4,.7,-2.4c0,-.7,-.2,-1.2,-.5,-1.7c-.4,-.6,-.8,-.8,-1.4,-.8c-.5,0,-1,.2,-1.6,.6v5.3c.3,0,.6,0,.8,0Zm167.8,-.2c1,0,1.7,-.3,2.3,-.9c.5,-.7,.7,-1.5,.7,-2.5c0,-.7,-.1,-1.2,-.4,-1.7c-.3,-.5,-.7,-.8,-1.3,-.8c-.6,0,-1.1,.3,-1.7,.7c-.1,1.3,-.1,3.1,-.1,5.2c0,0,.1,0,.1,0c.2,0,.3,0,.4,0Zm-51.9,.2c.5,0,1,-.2,1.4,-.7c0,-2.6,.1,-4.1,.1,-4.7c0,-.2,-.1,-.3,-.2,-.4c-.2,-.2,-.3,-.3,-.5,-.3c0,0,-.1,0,-.1,0c-.9,0,-1.5,.4,-1.9,1.1c-.4,.6,-.6,1.5,-.5,2.5c0,.7,.1,1.2,.4,1.7c.2,.5,.7,.8,1.3,.8Zm64,0c.5,0,1,-.2,1.5,-.7c0,-2.6,0,-4.1,0,-4.7c0,-.2,-.1,-.3,-.2,-.4c-.2,-.2,-.3,-.3,-.5,-.3c0,0,-.1,0,-.1,0c-.9,0,-1.5,.4,-1.9,1.1c-.4,.6,-.5,1.5,-.5,2.5c0,.7,.1,1.2,.4,1.7c.2,.5,.7,.8,1.3,.8ZM156,868c1.4,0,2.1,-1.1,2,-3.4c0,-2.1,-.7,-3,-1.8,-3c-1.5,0,-2.1,1.2,-2,3.6c0,.8,.2,1.4,.4,1.9c.3,.5,.8,.9,1.4,.9Zm21.3,0c1.4,0,2,-1.1,2,-3.4c-.1,-2.1,-.7,-3,-1.9,-3c-1.4,0,-2,1.2,-2,3.6c.1,.8,.2,1.4,.4,1.9c.3,.5,.8,.9,1.5,.9Zm12,-3.9l3.6,-1c-.6,-1.1,-1.1,-1.5,-1.6,-1.5c-1,0,-1.6,.8,-2,2.5Zm12.1,0l3.6,-1c-.5,-1.1,-1,-1.5,-1.6,-1.5c-1,0,-1.6,.8,-2,2.5Zm9,3.7c.5,0,1.1,-.2,1.6,-.8c.1,-1.6,.2,-3.4,.2,-5.4h-.7c-1,0,-1.7,.3,-2.2,1c-.5,.6,-.7,1.5,-.7,2.6c.1,.7,.2,1.3,.5,1.8c.3,.5,.7,.8,1.3,.8Zm38.5,-3.7l3.6,-1c-.5,-1.1,-1,-1.5,-1.6,-1.5c-1,0,-1.6,.8,-2,2.5Zm26.3,0l3.6,-1c-.6,-1.1,-1.1,-1.5,-1.6,-1.5c-1,0,-1.6,.8,-2,2.5Zm18,3.9c1.4,0,2.1,-1.1,2,-3.4c-.1,-2.1,-.7,-3,-1.9,-3c-1.4,0,-2,1.2,-1.9,3.6c0,.8,.1,1.4,.4,1.9c.3,.5,.8,.9,1.4,.9Zm25.9,-3.9l3.6,-1c-.6,-1.1,-1.1,-1.5,-1.7,-1.5c-.9,0,-1.6,.8,-1.9,2.5Zm33.7,3.9c1.4,0,2.1,-1.1,2,-3.4c-.1,-2.1,-.7,-3,-1.9,-3c-1.4,0,-2,1.2,-1.9,3.6c0,.8,.1,1.4,.4,1.9c.3,.5,.8,.9,1.4,.9Zm24.6,-3.9l3.6,-1c-.6,-1.1,-1.1,-1.5,-1.6,-1.5c-1,0,-1.6,.8,-2,2.5Zm35.1,0l3.6,-1c-.6,-1.1,-1.1,-1.5,-1.7,-1.5c-.9,0,-1.6,.8,-1.9,2.5Zm-275.6,5.1c-.4,0,-.7,-.1,-1.2,-.2c0,-.3,.1,-.6,.2,-1.2c.9,.3,1.4,.5,1.5,.5c.5,0,1,-.1,1.4,-.3c.5,-.4,.8,-.7,.7,-1.3c0,-.5,-.3,-.8,-.9,-1.1c-.3,-.1,-.9,-.3,-1.6,-.6c-.6,-.4,-1,-.9,-1,-1.7c0,-.9,.3,-1.5,1,-1.9c.6,-.4,1.3,-.6,2.2,-.6c.4,0,.9,.1,1.3,.2l.1,.1l-.1,1c-.5,-.3,-1,-.4,-1.5,-.4c-.4,0,-.8,.1,-1.1,.3c-.4,.2,-.5,.5,-.5,.9c0,.4,.3,.8,.9,1l1.7,.7c.5,.3,.9,.9,.9,1.7c0,.6,-.3,1.3,-.9,1.9c-.7,.7,-1.7,1,-3.1,1Zm13,-.4v-.1c0,-.2,-.1,-1,-.2,-2.5c.2,-.7,.2,-1.5,.2,-2.5c0,-.5,-.1,-.9,-.2,-1.3c-.3,-.5,-.6,-.7,-1,-.7c-.6,0,-1.2,.3,-1.8,.9c-.1,1,-.1,2.1,-.1,3c0,1.1,0,2.1,-.1,3v.1c-.6,0,-1,0,-1.4,.1c.1,-2.1,.2,-3.7,.1,-4.8c0,-.9,0,-1.9,-.1,-2.8c0,0,.1,0,.1,0c0,0,.1,0,.1,0c.1,0,.3,0,.5,.1l.7,.3c.6,-.5,1.5,-.8,2.5,-.8c1.2,0,1.9,.8,1.9,2.3c0,.4,0,1.1,0,2.1c0,.5,0,1.2,0,2.1c0,.5,.1,1,.2,1.4h-.1c-.5,0,-.9,0,-1.3,.1Zm6.1,0c-1,0,-1.8,-.4,-2.4,-1.1c-.5,-.6,-.7,-1.5,-.8,-2.6c0,-1.3,.2,-2.3,.8,-3c.5,-.9,1.5,-1.3,2.7,-1.3c1,0,1.8,.4,2.3,1.1c.5,.6,.8,1.5,.8,2.5c0,1.3,-.2,2.3,-.7,3c-.6,.9,-1.5,1.4,-2.7,1.4Zm15.1,0c-1.1,0,-1.8,-.4,-2.4,-1.1c-.5,-.8,-.8,-1.6,-.8,-2.6c-.1,-1.2,.3,-2.1,.9,-3c.7,-.9,1.6,-1.3,2.8,-1.3c.6,0,1.1,.1,1.5,.3c0,.4,0,.8,0,1.1H173c-.4,-.3,-.8,-.5,-1.3,-.5c-.8,0,-1.4,.4,-1.9,1.1c-.4,.7,-.6,1.4,-.6,2.3c.1,.7,.2,1.4,.6,1.8c.3,.6,.9,.9,1.6,.9c.5,0,1.1,-.2,1.7,-.8c0,.5,0,.9,0,1.2c-.5,.4,-1.1,.6,-2,.6Zm6.2,0c-1.1,0,-1.9,-.4,-2.4,-1.1c-.6,-.6,-.8,-1.5,-.8,-2.6c-.1,-1.3,.2,-2.3,.7,-3c.6,-.9,1.5,-1.3,2.7,-1.3c1,0,1.8,.4,2.4,1.1c.4,.6,.7,1.5,.7,2.5c.1,1.3,-.2,2.3,-.6,3c-.7,.9,-1.5,1.4,-2.7,1.4Zm6.1,0v-.2c-.8,-3.2,-1.5,-5.7,-2,-7.6c.4,0,.9,-.1,1.3,-.2l.1,.1l1.5,6.5c.4,-1.5,1.1,-3.6,1.9,-6.4c.4,0,.8,0,1.3,0c-.8,2.2,-1.6,4.7,-2.4,7.5c-.2,0,-.8,.1,-1.7,.3Zm8.1,0c-1.1,0,-1.9,-.4,-2.5,-1c-.6,-.7,-.9,-1.5,-.9,-2.6c-.1,-1.2,.2,-2.1,.7,-3c.5,-.9,1.4,-1.4,2.5,-1.4c.7,0,1.4,.2,1.9,.6c.4,.4,.8,1,1,1.6c-.1,.2,-.2,.4,-.5,.7c-1,.2,-2.4,.7,-4.3,1.3c0,1.9,.8,2.8,2.3,2.8c.7,0,1.5,-.3,2.2,-.9c-.1,.3,-.1,.7,-.1,1.2c-.2,.2,-.5,.4,-1.1,.5c-.5,.1,-.9,.2,-1.2,.2Zm12.1,0c-1.1,0,-1.9,-.4,-2.5,-1c-.6,-.7,-.9,-1.5,-.9,-2.6c0,-1.2,.2,-2.1,.7,-3c.5,-.9,1.4,-1.4,2.6,-1.4c.7,0,1.3,.2,1.8,.6c.5,.4,.8,1,1,1.6c-.1,.2,-.2,.4,-.5,.7c-.9,.2,-2.4,.7,-4.3,1.3c.1,1.9,.9,2.8,2.3,2.8c.7,0,1.5,-.3,2.2,-.9c0,.3,-.1,.7,-.1,1.2c-.2,.2,-.5,.4,-1.1,.5c-.4,.1,-.8,.2,-1.2,.2Zm22.7,2.9c.4,-.7,.7,-1.3,.9,-1.8c.1,0,.2,-.4,.5,-1.1c-.1,-.4,-.5,-1.6,-1.1,-3.6c-.5,-1.3,-.9,-2.7,-1.4,-4.2c.6,-.1,1.1,-.1,1.5,-.2c.3,1.3,.9,3.4,1.7,6.1c.3,-1.3,1,-3.3,1.7,-6h.1c.3,-.1,.8,-.1,1.2,-.1c-.7,1.7,-1.5,4.1,-2.5,7.1c-.2,.7,-.6,1.9,-1.1,3.6l-.1,.1c0,0,-.1,0,-.1,0c-.5,0,-.9,0,-1.3,.1Zm24.8,-2.9c-1.1,0,-1.9,-.4,-2.5,-1c-.6,-.7,-.9,-1.5,-.9,-2.6c-.1,-1.2,.2,-2.1,.7,-3c.5,-.9,1.4,-1.4,2.6,-1.4c.6,0,1.3,.2,1.8,.6c.4,.4,.8,1,1,1.6c-.1,.2,-.2,.4,-.5,.7c-.9,.2,-2.4,.7,-4.3,1.3c.1,1.9,.9,2.8,2.3,2.8c.7,0,1.5,-.3,2.2,-.9c0,.3,-.1,.7,-.1,1.2c-.2,.2,-.5,.4,-1.1,.5c-.5,.1,-.8,.2,-1.2,.2Zm13.7,0c-1.3,0,-1.9,-.8,-1.9,-2.3c0,-.4,0,-1,0,-2c0,-.7,0,-1.4,0,-2c0,-.6,0,-1.1,0,-1.5c.4,-.1,.9,-.1,1.5,-.2c0,.4,0,.9,-.1,1.5c0,.7,0,1.2,0,1.5c0,.9,0,1.6,0,2.1c0,.5,.1,.9,.2,1.3c.2,.4,.6,.6,1,.6c.5,0,1.1,-.3,1.8,-.9c0,-.2,0,-.6,0,-1.4c0,-.6,0,-1,0,-1.4c0,-1,.1,-2.1,.1,-3.1c.1,-.1,.5,-.1,1.3,-.2c0,1.9,0,3.5,0,4.9c0,1.1,0,2.1,0,3v.1c-.3,-.1,-.5,-.2,-.7,-.3l-.7,-.6c-.8,.6,-1.6,.9,-2.5,.9Zm12.6,0c-1.1,0,-1.9,-.4,-2.5,-1c-.6,-.7,-.9,-1.5,-.9,-2.6c-.1,-1.2,.2,-2.1,.7,-3c.5,-.9,1.4,-1.4,2.5,-1.4c.7,0,1.4,.2,1.9,.6c.4,.4,.8,1,1,1.6c-.1,.2,-.2,.4,-.5,.7c-1,.2,-2.4,.7,-4.4,1.3c.1,1.9,.9,2.8,2.4,2.8c.7,0,1.5,-.3,2.2,-.9c-.1,.3,-.1,.7,-.1,1.2c-.2,.2,-.6,.4,-1.1,.5c-.5,.1,-.9,.2,-1.2,.2Zm4.8,.4c-.4,0,-.7,-.1,-1.1,-.2H281c.1,-.3,.1,-.6,.2,-1.2c.9,.3,1.4,.5,1.6,.5c.4,0,.9,-.1,1.3,-.3c.5,-.4,.8,-.7,.8,-1.3c-.1,-.5,-.4,-.8,-1,-1.1c-.3,-.1,-.9,-.3,-1.6,-.6c-.6,-.4,-.9,-.9,-1,-1.7c0,-.9,.3,-1.5,1,-1.9c.6,-.4,1.3,-.6,2.2,-.6c.5,0,.9,.1,1.4,.2v.1l-.1,1c-.5,-.3,-1,-.4,-1.5,-.4c-.4,0,-.7,.1,-1,.3c-.4,.2,-.6,.5,-.6,.9c0,.4,.3,.8,.9,1l1.7,.7c.6,.3,.9,.9,.9,1.7c.1,.6,-.2,1.3,-.8,1.9c-.7,.7,-1.8,1,-3.2,1Zm11,-.4c-1,0,-1.8,-.4,-2.4,-1.1c-.5,-.6,-.8,-1.5,-.8,-2.6c0,-1.3,.2,-2.3,.7,-3c.6,-.9,1.6,-1.3,2.8,-1.3c1,0,1.8,.4,2.3,1.1c.5,.6,.7,1.5,.8,2.5c0,1.3,-.2,2.3,-.7,3c-.6,.9,-1.5,1.4,-2.7,1.4Zm13.1,.4c-.4,0,-.7,-.1,-1.1,-.2h-.1c.1,-.3,.1,-.6,.2,-1.2c.9,.3,1.4,.5,1.6,.5c.5,0,.9,-.1,1.3,-.3c.5,-.4,.8,-.7,.8,-1.3c0,-.5,-.4,-.8,-.9,-1.1c-.4,-.1,-1,-.3,-1.7,-.6c-.6,-.4,-.9,-.9,-.9,-1.7c-.1,-.9,.3,-1.5,.9,-1.9c.6,-.4,1.3,-.6,2.2,-.6c.5,0,1,.1,1.4,.2v.1l-.1,1c-.5,-.3,-1,-.4,-1.5,-.4c-.4,0,-.7,.1,-1,.3c-.4,.2,-.6,.5,-.6,.9c0,.4,.3,.8,.9,1l1.7,.7c.6,.3,.9,.9,.9,1.7c.1,.6,-.2,1.3,-.8,1.9c-.7,.7,-1.8,1,-3.2,1Zm8.4,-.4c-1.1,0,-1.8,-.4,-2.4,-1.1c-.5,-.8,-.8,-1.6,-.8,-2.6c-.1,-1.2,.3,-2.1,.9,-3c.7,-.9,1.6,-1.3,2.8,-1.3c.6,0,1.1,.1,1.5,.3c0,.4,0,.8,0,1.1h-.1c-.4,-.3,-.8,-.5,-1.3,-.5c-.8,0,-1.4,.4,-1.9,1.1c-.4,.7,-.6,1.4,-.6,2.3c.1,.7,.2,1.4,.6,1.8c.3,.6,.9,.9,1.6,.9c.5,0,1.1,-.2,1.7,-.8c0,.5,0,.9,0,1.2c-.5,.4,-1.1,.6,-2,.6Zm6.5,0c-1,0,-1.9,-.4,-2.5,-1c-.6,-.7,-.9,-1.5,-.9,-2.6c0,-1.2,.2,-2.1,.7,-3c.6,-.9,1.5,-1.4,2.6,-1.4c.7,0,1.3,.2,1.8,.6c.5,.4,.9,1,1.1,1.6c-.1,.2,-.3,.4,-.5,.7c-1,.2,-2.5,.7,-4.4,1.3c.1,1.9,.9,2.8,2.3,2.8c.7,0,1.5,-.3,2.2,-.9c0,.3,0,.7,-.1,1.2c-.2,.2,-.5,.4,-1,.5c-.5,.1,-.9,.2,-1.3,.2Zm8.9,0v-.1c0,-.2,-.1,-1,-.2,-2.5c.2,-.7,.2,-1.5,.2,-2.5c0,-.5,0,-.9,-.2,-1.3c-.3,-.5,-.5,-.7,-1,-.7c-.6,0,-1.2,.3,-1.8,.9c-.1,1,-.1,2.1,-.1,3c0,1.1,0,2.1,-.1,3v.1c-.6,0,-1,0,-1.4,.1c.1,-2.1,.2,-3.7,.2,-4.8c-.1,-.9,-.1,-1.9,-.2,-2.8q.1,0,.1,0q.1,0,.1,0c.1,0,.4,0,.6,.1l.6,.3c.6,-.5,1.5,-.8,2.5,-.8c1.2,0,1.9,.8,1.9,2.3c0,.4,0,1.1,0,2.1c0,.5,0,1.2,0,2.1c.1,.5,.1,1,.2,1.4q-.1,0,-.1,0c-.5,0,-.9,0,-1.3,.1Zm5.9,0c-.9,0,-1.6,-.4,-2.1,-1.1c-.5,-.7,-.7,-1.5,-.7,-2.4c0,-1.4,.3,-2.4,1,-3.2c.7,-.9,1.7,-1.3,3,-1.3c.6,0,1.1,.1,1.4,.2c.3,.2,.6,.6,.6,1.2c0,.1,0,.6,0,1.4v1.8l-.1,3.4c-.2,-.1,-.6,-.3,-1.3,-.7c-.7,.4,-1.3,.7,-1.8,.7Zm10.4,0c.1,-2.1,.2,-4,.1,-5.7c0,-.8,0,-1.4,-.1,-2c.6,-.1,1,-.2,1.4,-.3h.1c-.1,1.8,-.1,3.5,-.1,5.2c0,.9,0,1.8,0,2.7q-.1,0,-.1,0c-.5,0,-.9,0,-1.3,.1Zm6.4,0c-1,0,-1.8,-.4,-2.4,-1.1c-.5,-.6,-.8,-1.5,-.8,-2.6c0,-1.3,.2,-2.3,.7,-3c.6,-.9,1.6,-1.3,2.8,-1.3c1,0,1.8,.4,2.3,1.1c.5,.6,.7,1.5,.8,2.5c0,1.3,-.2,2.3,-.7,3c-.6,.9,-1.5,1.4,-2.7,1.4Zm26.8,0c-1.1,0,-1.9,-.4,-2.5,-1c-.6,-.7,-.9,-1.5,-1,-2.6c0,-1.2,.2,-2.1,.7,-3c.6,-.9,1.5,-1.4,2.6,-1.4c.7,0,1.4,.2,1.9,.6c.4,.4,.8,1,1,1.6c-.1,.2,-.3,.4,-.5,.7c-1,.2,-2.4,.7,-4.4,1.3c.1,1.9,.9,2.8,2.4,2.8c.7,0,1.5,-.3,2.2,-.9c-.1,.3,-.1,.7,-.1,1.2c-.2,.2,-.6,.4,-1.1,.5c-.5,.1,-.9,.2,-1.2,.2Zm6.7,2.9c.2,-3,.2,-5.7,.2,-8.1c0,-.8,-.1,-1.7,-.1,-2.6c.5,.1,1,.2,1.3,.5c.7,-.5,1.5,-.7,2.2,-.7c.8,0,1.5,.4,2,1.1c.4,.5,.7,1.3,.7,2.2c0,1.4,-.5,2.5,-1.4,3.3c-.9,.7,-1.9,1,-3.2,1c-.1,0,-.2,0,-.3,0c0,1.1,0,2.1,0,3v.1l-1.4,.2ZM400,868.8c-.9,0,-1.6,-.4,-2.1,-1.1c-.5,-.7,-.7,-1.5,-.7,-2.4c0,-1.4,.3,-2.4,1,-3.2c.7,-.9,1.7,-1.3,3,-1.3c.7,0,1.1,.1,1.4,.2c.4,.2,.6,.6,.6,1.2c0,.1,0,.6,0,1.4v5.2c-.3,-.1,-.7,-.3,-1.3,-.7c-.7,.4,-1.3,.7,-1.9,.7Zm5.6,2.9c.3,-.7,.6,-1.3,.9,-1.8c0,0,.2,-.4,.4,-1.1c-.1,-.4,-.5,-1.6,-1.1,-3.6c-.4,-1.3,-.8,-2.7,-1.3,-4.2c.6,-.1,1,-.1,1.4,-.2c.3,1.3,.9,3.4,1.7,6.1c.4,-1.3,1,-3.3,1.8,-6c.4,-.1,.8,-.1,1.2,-.1c-.6,1.7,-1.4,4.1,-2.5,7.1c-.2,.7,-.5,1.9,-1.1,3.6l-.1,.1c-.6,0,-1,0,-1.3,.1Zm9.1,-2.9c-1.1,0,-2,-.4,-2.6,-1c-.5,-.7,-.8,-1.5,-.9,-2.6c0,-1.2,.2,-2.1,.7,-3c.6,-.9,1.5,-1.4,2.6,-1.4c.7,0,1.3,.2,1.9,.6c.4,.4,.8,1,1,1.6c-.1,.2,-.3,.4,-.5,.7c-1,.2,-2.4,.7,-4.4,1.3c.1,1.9,.9,2.8,2.3,2.8c.8,0,1.5,-.3,2.2,-.9c0,.3,0,.7,0,1.2c-.2,.2,-.6,.4,-1.1,.5c-.5,.1,-.9,.2,-1.2,.2Zm9.8,.4c-.4,0,-.7,-.1,-1.1,-.2c0,-.3,0,-.6,.1,-1.2c.9,.3,1.4,.5,1.6,.5c.5,0,.9,-.1,1.3,-.3c.5,-.4,.8,-.7,.8,-1.3c0,-.5,-.3,-.8,-.9,-1.1c-.4,-.1,-1,-.3,-1.7,-.6c-.6,-.4,-.9,-.9,-.9,-1.7c-.1,-.9,.3,-1.5,.9,-1.9c.6,-.4,1.3,-.6,2.2,-.6c.5,0,1,.1,1.4,.2v.1l-.1,1c-.5,-.3,-1,-.4,-1.5,-.4c-.4,0,-.7,.1,-1,.3c-.4,.2,-.6,.5,-.6,.9c0,.4,.3,.8,.9,1l1.7,.7c.6,.3,.9,.9,.9,1.7c.1,.6,-.2,1.3,-.8,1.9c-.7,.7,-1.8,1,-3.2,1Zm-228.9,-.4c0,-2.4,0,-4.4,0,-6c0,-.5,0,-1.1,0,-1.6c.3,-.1,.7,-.2,1.4,-.4v1.9c.2,-.6,.5,-1.1,1,-1.6c.5,-.5,1.1,-.7,1.6,-.7c0,0,.1,0,.2,0c-.1,.3,-.1,.7,-.3,1.3c-.2,0,-.4,.1,-.7,.1c-.3,.1,-.5,.2,-.8,.4c-.5,.4,-.7,1,-.9,1.9c-.1,.5,-.1,1.2,-.1,2.2c0,.8,0,1.6,0,2.4q-.1,0,-.1,0c-.3,0,-.7,0,-1.3,.1Zm62.3,0c0,-2.4,0,-4.4,0,-6c0,-.5,0,-1.1,0,-1.6c.3,-.1,.7,-.2,1.3,-.4v1.9c.2,-.6,.6,-1.1,1.1,-1.6c.5,-.5,1.1,-.7,1.6,-.7c0,0,.1,0,.2,0c-.1,.3,-.2,.7,-.3,1.3c-.3,0,-.5,.1,-.8,.1c-.3,.1,-.5,.2,-.7,.4c-.5,.4,-.8,1,-.9,1.9c-.2,.5,-.2,1.2,-.2,2.2c0,.8,0,1.6,0,2.4h-.1c-.2,0,-.7,0,-1.2,.1Zm40.2,0c0,-2.4,0,-4.4,0,-6c0,-.5,0,-1.1,0,-1.6c.3,-.1,.7,-.2,1.3,-.4v1.9c.2,-.6,.6,-1.1,1.1,-1.6c.5,-.5,1.1,-.7,1.6,-.7c0,0,.1,0,.2,0c-.1,.3,-.2,.7,-.3,1.3c-.3,0,-.5,.1,-.8,.1c-.2,.1,-.5,.2,-.7,.4c-.5,.4,-.7,1,-.9,1.9c-.2,.5,-.2,1.2,-.2,2.2c0,.8,0,1.6,0,2.4h-.1c-.2,0,-.7,0,-1.2,.1Zm43.1,0c0,-2.4,0,-4.4,0,-6c0,-.5,0,-1.1,0,-1.6c.3,-.1,.7,-.2,1.4,-.4v1.9c.2,-.6,.5,-1.1,1,-1.6c.5,-.5,1.1,-.7,1.6,-.7c0,0,.1,0,.2,0c-.1,.3,-.1,.7,-.3,1.3c-.2,0,-.4,.1,-.7,.1c-.3,.1,-.5,.2,-.8,.4c-.5,.4,-.7,1,-.9,1.9c-.1,.5,-.1,1.2,-.1,2.2c0,.8,0,1.6,0,2.4q-.1,0,-.1,0c-.3,0,-.7,0,-1.3,.1Zm77.6,0c0,-2.4,0,-4.4,0,-6c0,-.5,0,-1.1,0,-1.6c.3,-.1,.7,-.2,1.3,-.4v1.9c.2,-.6,.6,-1.1,1.1,-1.6c.5,-.5,1.1,-.7,1.6,-.7c0,0,.1,0,.2,0c-.1,.3,-.2,.7,-.3,1.3c-.3,0,-.5,.1,-.8,.1c-.3,.1,-.5,.2,-.7,.4c-.5,.4,-.8,1,-.9,1.9c-.2,.5,-.2,1.2,-.2,2.2c0,.8,0,1.6,0,2.4H420c-.2,0,-.7,0,-1.2,.1Zm-255.3,0c-1.3,0,-2,-.6,-2,-1.8v-5h-1.1v-.1l.2,-.7l.9,-.2v-1.8l1.3,-.4c0,.4,.1,1.1,.1,2.2h1.4c0,.2,0,.5,0,.9c-.2,0,-.7,0,-1.4,0v4.8c0,.8,.5,1.3,1.4,1.4v.5c-.3,.1,-.5,.2,-.8,.2Zm74,0c-1.3,0,-2,-.6,-2,-1.8v-5h-1v-.1l.1,-.7l.9,-.2v-1.8l1.4,-.4c0,.4,0,1.1,0,2.2h1.5c-.1,.2,-.1,.5,-.1,.9c-.2,0,-.6,0,-1.3,0l-.1,4.8c0,.8,.5,1.3,1.5,1.4v.5c-.3,.1,-.6,.2,-.9,.2Zm128.5,0c-1.3,0,-2,-.6,-2,-1.8v-5h-1.1v-.1l.2,-.7l.9,-.2v-1.8l1.3,-.4c0,.4,.1,1.1,.1,2.2h1.4c0,.2,0,.5,0,.9c-.2,0,-.7,0,-1.4,0v4.8c0,.8,.5,1.3,1.5,1.4l-.1,.5c-.3,.1,-.5,.2,-.8,.2Zm-231.6,-11v-.2c0,0,.1,0,.1,0l-.1,.2Zm212.4,1.7c0,-.4,.1,-1,.3,-1.8c.2,-.1,.7,-.1,1.3,-.1l-.7,1.7l-.1,.1c-.2,0,-.4,.1,-.8,.1Zm-136.7,9.3c-.9,0,-1.6,-.4,-2.1,-1.1c-.5,-.7,-.7,-1.5,-.7,-2.5c-.1,-1.4,.3,-2.4,1,-3.2c.7,-.8,1.8,-1.2,3.1,-1.2h.8c0,-.6,0,-1.2,0,-1.8c0,-.3,0,-.7,0,-1.2c.3,-.1,.8,-.2,1.4,-.4c-.2,2.5,-.2,5,-.2,7.6c0,1.3,0,2.5,0,3.5c-.3,0,-.5,0,-.8,-.2L212,868c-.8,.5,-1.4,.8,-1.9,.8Zm9.8,0c-.2,0,-.4,-.1,-.5,-.1c-.1,0,-.3,-.1,-.6,-.3c-.4,-.2,-.5,-.3,-.6,-.4c.1,-3.4,.2,-6.2,.2,-8.2c0,-.7,-.1,-1.3,-.1,-2l1.4,-.4v.1l-.1,4.2c.8,-.5,1.5,-.7,2.1,-.7c.8,0,1.6,.3,2.1,1c.4,.6,.7,1.4,.7,2.4c0,1,-.2,1.9,-.7,2.6c-.5,.8,-1.2,1.3,-2.2,1.6c-.5,.1,-1,.2,-1.7,.2Zm24.6,1v-1.1c.1,-1.6,0,-3.3,-.1,-5.1c-.1,-1.2,-.5,-1.7,-1.2,-1.7c-.5,0,-1.1,.3,-1.8,.9c0,1.1,0,2.2,0,3.1c0,.9,0,1.8,0,2.6c0,0,-.1,0,-.1,0c-.3,0,-.8,.1,-1.3,.1c0,-1.3,0,-3.3,0,-5.9v-3.1c0,-.6,0,-1.2,0,-1.8c.3,-.1,.9,-.2,1.4,-.4c0,1.2,0,2.7,0,4.6c1,-.7,1.9,-1,2.5,-1c1.3,0,1.9,.7,2,2.3c0,1.6,-.1,3.5,-.2,5.4c-.1,.6,-.5,1,-1.2,1.1Zm26.5,-1c.1,-3.7,.2,-6.4,.2,-8.1c-.1,-1,-.1,-2,-.2,-2.9c.4,-.1,.9,-.2,1.4,-.4c0,.6,0,2.3,0,5.4c0,2.4,0,4.4,0,5.9q-.1,0,-.1,0c-.3,0,-.8,0,-1.3,.1Zm101.9,1v-1.1c.1,-1.6,.1,-3.3,0,-5.1c-.2,-1.2,-.5,-1.7,-1.2,-1.7c-.5,0,-1.1,.3,-1.8,.9c0,1.1,0,2.2,0,3.1c0,.9,0,1.8,0,2.6q-.1,0,-.2,0c-.3,0,-.7,.1,-1.2,.1c0,-1.3,0,-3.3,0,-5.9v-3.1c0,-.6,0,-1.2,0,-1.8c.3,-.1,.8,-.2,1.4,-.4c0,1.2,0,2.7,0,4.6c1,-.7,1.8,-1,2.5,-1c1.2,0,1.9,.7,1.9,2.3c.1,1.6,0,3.5,-.1,5.4c-.1,.6,-.5,1,-1.3,1.1Zm21.4,-1c.1,-3.7,.2,-6.4,.1,-8.1c0,-1,-.1,-2,-.1,-2.9c.4,-.1,.8,-.2,1.3,-.4c0,.6,0,2.3,0,5.4c0,2.4,0,4.4,0,5.9h-.1c-.3,0,-.7,0,-1.2,.1Z"/></clipPath>
<clipPath id="cv_3"><path d="M134.4,890V875.8H415.6V890Z"/></clipPath>
<clipPath id="cw_3"><path d="M413.1,887.1v0c0,-.7,0,-1.3,0,-1.9c.6,-.1,1,-.1,1.4,-.1l.1,.1c-.1,.6,-.2,1.2,-.2,1.7l-1.3,.2Zm-75.2,-.9c.9,0,1.6,-.4,2.1,-1c.4,-.7,.7,-1.5,.7,-2.4c0,-.7,-.2,-1.3,-.5,-1.8c-.4,-.5,-.8,-.8,-1.5,-.8c-.4,0,-.9,.2,-1.6,.7v5.2c.4,0,.6,.1,.8,.1ZM210.2,886c1,-.1,1.8,-.4,2.3,-1c.5,-.6,.8,-1.4,.8,-2.5c0,-.6,-.2,-1.2,-.4,-1.6c-.4,-.6,-.8,-.8,-1.4,-.8c-.5,0,-1.1,.2,-1.7,.7c0,1.2,0,3,0,5.1h.1c.1,0,.2,.1,.3,.1Zm-37.8,-3.6l3.6,-1c-.6,-1,-1.1,-1.5,-1.7,-1.5c-.9,0,-1.6,.8,-1.9,2.5Zm13.4,0l3.6,-1c-.5,-1,-1,-1.5,-1.6,-1.5c-1,0,-1.6,.8,-2,2.5Zm17.7,3.9c1.4,0,2.1,-1.1,2,-3.3c-.1,-2.1,-.7,-3.1,-1.9,-3.1c-1.4,0,-2,1.2,-1.9,3.7c0,.7,.1,1.3,.4,1.8c.3,.6,.8,.9,1.4,.9Zm23.9,0c1.4,0,2,-1.1,2,-3.3c-.1,-2.1,-.7,-3.1,-1.9,-3.1c-1.4,0,-2,1.2,-2,3.7c.1,.7,.2,1.3,.4,1.8c.3,.6,.8,.9,1.5,.9Zm60,-3.9l3.6,-1c-.6,-1,-1.1,-1.5,-1.7,-1.5c-.9,0,-1.6,.8,-1.9,2.5Zm21.3,3.9c1.4,0,2.1,-1.1,2,-3.3c0,-2.1,-.7,-3.1,-1.8,-3.1c-1.5,0,-2.1,1.2,-2,3.7c0,.7,.2,1.3,.4,1.8c.3,.6,.8,.9,1.4,.9Zm35.8,-3.9l3.6,-1c-.6,-1,-1.1,-1.5,-1.6,-1.5c-1,0,-1.7,.8,-2,2.5Zm38.7,0l3.6,-1c-.6,-1,-1.1,-1.5,-1.6,-1.5c-1,0,-1.6,.8,-2,2.5Zm12.1,0l3.6,-1c-.5,-1,-1,-1.5,-1.6,-1.5c-1,0,-1.6,.8,-2,2.5Zm-255.2,4.7L140,887c-.3,-1.5,-.7,-3.7,-1.2,-6.6l-.8,3.4c-.1,.5,-.3,1.6,-.6,3l-.1,.1c-.1,0,-.3,0,-.4,0c-.4,0,-.8,0,-1.2,0c-.4,-1.5,-.8,-3.3,-1.3,-5.3v-2.3c.3,-.1,.6,-.1,.8,-.2v.1c.1,.8,.4,2,.7,3.4l.8,3.2c.3,-1.4,.8,-3.5,1.3,-6.3h.2c.3,0,.9,0,1.6,-.1c.3,1.5,.8,3.7,1.4,6.7c.3,-.6,.6,-1.7,.9,-3.4c.3,-1.6,.4,-2.8,.4,-3.4c.3,-.1,.8,-.1,1.4,-.2c-.1,.8,-.3,2,-.6,3.8c-.4,1.5,-.7,2.9,-1.2,4l-.1,.1c-.2,0,-.8,0,-1.9,.1Zm13.2,0c.1,-2.1,.2,-4,.2,-5.7c0,-.8,-.1,-1.4,-.1,-1.9c.5,-.1,1,-.3,1.4,-.4v.1c-.1,1.7,-.1,3.5,-.1,5.1c0,.9,0,1.8,0,2.7c0,0,-.1,0,-.1,0c-.5,0,-.9,.1,-1.3,.1Zm6.4,0c-1,0,-1.8,-.4,-2.4,-1.1c-.5,-.7,-.7,-1.5,-.8,-2.6c0,-1.1,.3,-2.1,1,-2.9c.7,-.9,1.6,-1.4,2.7,-1.4c.6,0,1.2,.1,1.6,.3c-.1,.4,-.1,.8,-.1,1.1c-.4,-.3,-.8,-.4,-1.3,-.4c-.8,0,-1.4,.3,-1.9,1.1c-.5,.6,-.6,1.3,-.6,2.2c0,.7,.2,1.4,.5,1.9c.4,.6,.9,.9,1.6,.9c.6,0,1.2,-.3,1.8,-.8c-.1,.4,-.1,.8,-.1,1.1c-.5,.4,-1.1,.6,-2,.6Zm14.9,0c-1.1,0,-2,-.3,-2.6,-1c-.6,-.6,-.9,-1.5,-.9,-2.5c0,-1.3,.2,-2.2,.7,-3c.6,-1,1.5,-1.5,2.6,-1.5c.7,0,1.3,.3,1.8,.7c.5,.4,.9,.9,1.1,1.6c-.1,.1,-.3,.3,-.5,.6c-1,.3,-2.4,.7,-4.4,1.3c.1,1.9,.9,2.9,2.3,2.9c.8,0,1.5,-.3,2.2,-1c0,.3,0,.8,-.1,1.2c-.2,.2,-.5,.4,-1,.5c-.5,.1,-.9,.2,-1.2,.2Zm5.3,0V887c-.8,-3.3,-1.4,-5.8,-2,-7.6c.4,-.1,.9,-.2,1.3,-.3l.1,.2l1.5,6.4c.5,-1.5,1.1,-3.5,1.9,-6.3v-.1c.4,0,.8,0,1.3,0c-.8,2.3,-1.5,4.8,-2.3,7.5l-.1,.1c-.2,0,-.7,.1,-1.7,.2Zm8.1,0c-1.1,0,-1.9,-.3,-2.5,-1c-.6,-.6,-.9,-1.5,-.9,-2.5c0,-1.3,.2,-2.2,.7,-3c.6,-1,1.4,-1.5,2.6,-1.5c.7,0,1.3,.3,1.8,.7c.5,.4,.8,.9,1,1.6c-.1,.1,-.2,.3,-.5,.6c-.9,.3,-2.4,.7,-4.3,1.3c.1,1.9,.9,2.9,2.3,2.9c.7,0,1.5,-.3,2.2,-1c0,.3,-.1,.8,-.1,1.2c-.2,.2,-.5,.4,-1.1,.5c-.4,.1,-.8,.2,-1.2,.2Zm15.5,0c-1,0,-1.8,-.4,-2.4,-1.1c-.5,-.6,-.8,-1.5,-.8,-2.5c0,-1.3,.2,-2.3,.7,-3.1c.6,-.8,1.6,-1.3,2.8,-1.3c1,0,1.8,.4,2.3,1.1c.5,.6,.7,1.5,.8,2.6c0,1.2,-.2,2.2,-.7,3c-.6,.8,-1.5,1.3,-2.7,1.3Zm4.9,2.9c.1,-3,.2,-5.7,.1,-8.1c0,-.8,0,-1.6,-.1,-2.5l.1,-.1c.5,.1,.9,.3,1.2,.5c.7,-.5,1.5,-.7,2.3,-.7c.8,0,1.5,.4,2,1.1c.4,.6,.6,1.4,.6,2.2c.1,1.4,-.4,2.5,-1.4,3.3c-.8,.7,-1.9,1,-3.2,1c-.1,0,-.2,0,-.2,0c-.1,1.1,-.1,2.2,0,3.1h-.1l-1.3,.2Zm12.5,-2.9c.2,-2.1,.2,-4,.2,-5.7c0,-.8,0,-1.4,-.1,-1.9c.5,-.1,1,-.3,1.4,-.4v.1c-.1,1.7,-.1,3.5,-.1,5.1c0,.9,0,1.8,0,2.7c-.5,0,-1,.1,-1.4,.1Zm6.5,0c-1.1,0,-1.9,-.4,-2.4,-1.1c-.6,-.6,-.8,-1.5,-.8,-2.5c-.1,-1.3,.2,-2.3,.7,-3.1c.6,-.8,1.5,-1.3,2.7,-1.3c1,0,1.8,.4,2.4,1.1c.4,.6,.7,1.5,.7,2.6c.1,1.2,-.2,2.2,-.7,3c-.6,.8,-1.4,1.3,-2.6,1.3Zm9.6,0v0c0,-.2,-.1,-1,-.2,-2.5c.1,-.7,.2,-1.6,.2,-2.5c0,-.6,-.1,-1,-.2,-1.4c-.3,-.4,-.6,-.6,-1,-.6c-.6,0,-1.2,.3,-1.9,.8c0,1.1,0,2.1,0,3c0,1.1,0,2.2,-.1,3.1h-.1c-.5,0,-.9,0,-1.3,.1c.1,-2.1,.1,-3.6,.1,-4.7c0,-1,-.1,-1.9,-.1,-2.8c0,-.1,.1,-.1,.1,-.1h.1c.1,0,.3,.1,.5,.1l.6,.3c.7,-.5,1.6,-.8,2.6,-.8c1.2,0,1.9,.8,1.9,2.4c0,.4,0,1.1,0,2c0,.5,0,1.2,0,2.1c0,.6,.1,1,.1,1.4c-.6,0,-.9,.1,-1.3,.1Zm7.1,0c.1,-2.1,.2,-4,.2,-5.7c-.1,-.8,-.1,-1.4,-.1,-1.9c.5,-.1,1,-.3,1.3,-.4l.1,.1c-.1,1.7,-.1,3.5,-.1,5.1c0,.9,0,1.8,0,2.7c0,0,-.1,0,-.1,0c-.5,0,-.9,.1,-1.3,.1Zm4.4,.4c-.4,0,-.8,0,-1.2,-.2c0,-.2,.1,-.6,.2,-1.2c.9,.3,1.4,.5,1.5,.5c.5,0,1,-.1,1.4,-.3c.5,-.3,.7,-.7,.7,-1.2c0,-.6,-.3,-.9,-.9,-1.1c-.3,-.2,-.9,-.4,-1.6,-.7c-.7,-.4,-1,-.9,-1,-1.7c0,-.8,.3,-1.5,1,-1.9c.5,-.4,1.3,-.6,2.2,-.6c.4,0,.9,.1,1.3,.3v1.1c-.5,-.3,-1,-.4,-1.5,-.4c-.4,0,-.8,0,-1.1,.2c-.4,.2,-.5,.5,-.5,.9c0,.5,.3,.9,.9,1.1l1.7,.6c.5,.3,.9,.9,.9,1.7c0,.6,-.3,1.3,-.9,1.9c-.7,.7,-1.7,1,-3.1,1Zm9.3,-.4c.2,-2.1,.2,-4,.2,-5.7c0,-.8,-.1,-1.4,-.1,-1.9c.5,-.1,1,-.3,1.4,-.4v.1c-.1,1.7,-.1,3.5,-.1,5.1c0,.9,0,1.8,0,2.7c-.5,0,-1,.1,-1.4,.1Zm8.5,0h-.1c0,-.2,0,-1,-.1,-2.5c.1,-.7,.2,-1.6,.2,-2.5c0,-.6,-.1,-1,-.3,-1.4c-.2,-.4,-.5,-.6,-.9,-.6c-.7,0,-1.3,.3,-1.9,.8c0,1.1,0,2.1,0,3c0,1.1,-.1,2.2,-.2,3.1c-.5,0,-.9,0,-1.3,.1c.1,-2.1,.1,-3.6,.1,-4.7c0,-1,-.1,-1.9,-.1,-2.8q0,-.1,.1,-.1c.2,0,.4,.1,.6,.1l.6,.3c.7,-.5,1.6,-.8,2.6,-.8c1.2,0,1.8,.8,1.9,2.4c0,.4,0,1.1,0,2c0,.5,0,1.2,0,2.1c0,.6,.1,1,.1,1.4h-.1c-.5,0,-.9,.1,-1.2,.1Zm23.3,0c-1.1,0,-1.9,-.3,-2.5,-1c-.6,-.6,-.9,-1.5,-1,-2.5c0,-1.3,.2,-2.2,.7,-3c.6,-1,1.5,-1.5,2.6,-1.5c.7,0,1.4,.3,1.9,.7c.4,.4,.8,.9,1,1.6c-.1,.1,-.3,.3,-.5,.6c-1,.3,-2.4,.7,-4.4,1.3c.1,1.9,.9,2.9,2.4,2.9c.7,0,1.4,-.3,2.2,-1c-.1,.3,-.1,.8,-.1,1.2c-.2,.2,-.6,.4,-1.1,.5c-.5,.1,-.9,.2,-1.2,.2Zm4.1,0c.1,-2.1,.2,-4,.1,-5.7c0,-.8,0,-1.4,-.1,-1.9c.6,-.1,1,-.3,1.4,-.4l.1,.1c-.1,1.7,-.1,3.5,-.1,5.1c0,.9,0,1.8,0,2.7q-.1,0,-.1,0c-.5,0,-.9,.1,-1.3,.1Zm15,0c-1,0,-1.8,-.4,-2.4,-1.1c-.5,-.6,-.7,-1.5,-.8,-2.5c0,-1.3,.2,-2.3,.8,-3.1c.5,-.8,1.5,-1.3,2.7,-1.3c1,0,1.8,.4,2.3,1.1c.5,.6,.8,1.5,.8,2.6c0,1.2,-.2,2.2,-.7,3c-.6,.8,-1.5,1.3,-2.7,1.3Zm10.3,0V887c-.3,-1.5,-.7,-3.7,-1.2,-6.6l-.8,3.4c-.1,.5,-.3,1.6,-.7,3v.1c-.1,0,-.3,0,-.4,0c-.5,0,-.9,0,-1.2,0h-.1c-.5,-2.1,-1,-4.6,-1.8,-7.5c.6,-.1,1.1,-.2,1.4,-.3v.1c.1,.8,.3,2,.7,3.4l.7,3.2c.4,-1.4,.8,-3.5,1.4,-6.3h.2c.3,0,.8,0,1.6,-.1c.3,1.5,.8,3.7,1.4,6.7c.3,-.6,.6,-1.7,.9,-3.4c.3,-1.6,.4,-2.8,.4,-3.4c.2,-.1,.7,-.1,1.4,-.2c-.2,.8,-.3,2,-.7,3.8c-.3,1.5,-.6,2.9,-1.2,4v.1h-.1c-.2,0,-.8,0,-1.9,.1Zm9.8,0v0c0,-.2,-.1,-1,-.2,-2.5c.2,-.7,.2,-1.6,.2,-2.5c0,-.6,-.1,-1,-.2,-1.4c-.3,-.4,-.6,-.6,-1,-.6c-.6,0,-1.2,.3,-1.9,.8c0,1.1,0,2.1,0,3c0,1.1,0,2.2,-.1,3.1c-.6,0,-1,0,-1.4,.1c.1,-2.1,.2,-3.6,.1,-4.7c0,-1,0,-1.9,-.1,-2.8c0,-.1,.1,-.1,.1,-.1c0,0,.1,0,.1,0c.1,0,.3,.1,.5,.1l.7,.3c.6,-.5,1.5,-.8,2.5,-.8c1.2,0,1.9,.8,1.9,2.4c0,.4,0,1.1,0,2c0,.5,0,1.2,0,2.1c0,.6,.1,1,.1,1.4c-.5,0,-.9,.1,-1.3,.1Zm17.9,0c-1.1,0,-1.9,-.3,-2.5,-1c-.6,-.6,-.9,-1.5,-1,-2.5c0,-1.3,.2,-2.2,.7,-3c.6,-1,1.5,-1.5,2.6,-1.5c.7,0,1.4,.3,1.9,.7c.4,.4,.8,.9,1,1.6c-.1,.1,-.3,.3,-.5,.6c-1,.3,-2.4,.7,-4.4,1.3c.1,1.9,.9,2.9,2.4,2.9c.7,0,1.4,-.3,2.2,-1c-.1,.3,-.1,.8,-.1,1.2c-.2,.2,-.6,.4,-1.1,.5c-.5,.1,-.9,.2,-1.2,.2Zm4.8,.4c-.4,0,-.7,0,-1.2,-.2c.1,-.2,.1,-.6,.2,-1.2c.9,.3,1.4,.5,1.5,.5c.5,0,1,-.1,1.4,-.3c.5,-.3,.8,-.7,.8,-1.2c-.1,-.6,-.4,-.9,-1,-1.1c-.3,-.2,-.9,-.4,-1.6,-.7c-.6,-.4,-.9,-.9,-1,-1.7c0,-.8,.3,-1.5,1,-1.9c.6,-.4,1.3,-.6,2.2,-.6c.5,0,.9,.1,1.3,.3h.1l-.1,1.1c-.5,-.3,-1,-.4,-1.5,-.4c-.4,0,-.8,0,-1.1,.2c-.3,.2,-.5,.5,-.5,.9c0,.5,.3,.9,.9,1.1l1.7,.6c.5,.3,.9,.9,.9,1.7c0,.6,-.2,1.3,-.8,1.9c-.7,.7,-1.8,1,-3.2,1Zm14.2,-.4c.1,-2.1,.1,-4,.1,-5.7c0,-.8,0,-1.4,-.1,-1.9c.5,-.1,1,-.3,1.4,-.4v.1c-.1,1.7,-.1,3.5,-.1,5.1c0,.9,0,1.8,0,2.7c-.5,0,-1,.1,-1.3,.1Zm8.4,0v0c0,-.2,-.1,-1,-.2,-2.5c.1,-.7,.2,-1.6,.2,-2.5c0,-.6,-.1,-1,-.2,-1.4c-.3,-.4,-.6,-.6,-1,-.6c-.6,0,-1.2,.3,-1.9,.8c0,1.1,0,2.1,0,3c0,1.1,0,2.2,-.2,3.1c-.5,0,-.9,0,-1.3,.1c.1,-2.1,.1,-3.6,.1,-4.7c0,-1,-.1,-1.9,-.1,-2.8c0,-.1,.1,-.1,.1,-.1h.1c.1,0,.3,.1,.5,.1l.6,.3c.7,-.5,1.6,-.8,2.6,-.8c1.2,0,1.9,.8,1.9,2.4c0,.4,0,1.1,0,2c0,.5,0,1.2,0,2.1c0,.6,.1,1,.1,1.4h-.1c-.5,0,-.8,.1,-1.2,.1Zm11.3,0c-1.1,0,-1.9,-.3,-2.5,-1c-.6,-.6,-.9,-1.5,-.9,-2.5c-.1,-1.3,.2,-2.2,.7,-3c.5,-1,1.4,-1.5,2.5,-1.5c.7,0,1.4,.3,1.9,.7c.4,.4,.8,.9,1,1.6c-.1,.1,-.2,.3,-.5,.6c-1,.3,-2.4,.7,-4.3,1.3c0,1.9,.8,2.9,2.3,2.9c.7,0,1.5,-.3,2.2,-1c-.1,.3,-.1,.8,-.1,1.2c-.2,.2,-.5,.4,-1.1,.5c-.5,.1,-.9,.2,-1.2,.2Zm12.1,0c-1.1,0,-1.9,-.3,-2.5,-1c-.6,-.6,-.9,-1.5,-.9,-2.5c0,-1.3,.2,-2.2,.7,-3c.5,-1,1.4,-1.5,2.6,-1.5c.7,0,1.3,.3,1.8,.7c.5,.4,.8,.9,1,1.6c-.1,.1,-.2,.3,-.5,.6c-.9,.3,-2.4,.7,-4.3,1.3c.1,1.9,.9,2.9,2.3,2.9c.7,0,1.5,-.3,2.2,-1c0,.3,-.1,.8,-.1,1.2c-.2,.2,-.5,.4,-1.1,.5c-.4,.1,-.8,.2,-1.2,.2Zm4.8,.4c-.3,0,-.7,0,-1.1,-.2c0,-.2,.1,-.6,.2,-1.2c.8,.3,1.3,.5,1.5,.5c.5,0,.9,-.1,1.3,-.3c.5,-.3,.8,-.7,.8,-1.2c0,-.6,-.3,-.9,-.9,-1.1c-.4,-.2,-.9,-.4,-1.7,-.7c-.6,-.4,-.9,-.9,-.9,-1.7c0,-.8,.3,-1.5,1,-1.9c.5,-.4,1.3,-.6,2.1,-.6c.5,0,1,.1,1.4,.3l-.1,1.1c-.5,-.3,-1,-.4,-1.5,-.4c-.4,0,-.7,0,-1,.2c-.4,.2,-.6,.5,-.5,.9c0,.5,.3,.9,.9,1.1l1.6,.6c.6,.3,.9,.9,1,1.7c0,.6,-.3,1.3,-.9,1.9c-.7,.7,-1.7,1,-3.2,1Zm-210.2,-.4c.1,-2.4,.1,-4.4,0,-6c0,-.5,0,-1,0,-1.6c.3,-.1,.8,-.2,1.4,-.4V881c.2,-.6,.6,-1.1,1.1,-1.5c.5,-.6,1,-.8,1.5,-.8c.1,0,.2,0,.2,0c0,.3,-.1,.7,-.2,1.3c-.3,0,-.5,.1,-.8,.2c-.3,0,-.5,.2,-.7,.4c-.5,.3,-.8,.9,-.9,1.8c-.2,.5,-.2,1.3,-.2,2.2c0,.8,0,1.6,0,2.4c0,0,-.1,0,-.1,0c-.3,0,-.7,.1,-1.3,.1Zm105.2,0c.1,-2.4,.1,-4.4,0,-6c0,-.5,0,-1,0,-1.6c.3,-.1,.8,-.2,1.4,-.4V881c.2,-.6,.6,-1.1,1.1,-1.5c.5,-.6,1,-.8,1.5,-.8c.1,0,.2,0,.3,0c-.1,.3,-.2,.7,-.3,1.3c-.3,0,-.5,.1,-.8,.2c-.3,0,-.5,.2,-.7,.4c-.5,.3,-.8,.9,-.9,1.8c-.2,.5,-.2,1.3,-.2,2.2c0,.8,0,1.6,0,2.4h-.1c-.3,0,-.7,.1,-1.3,.1Zm92.2,0c0,-2.4,0,-4.4,0,-6c0,-.5,0,-1,0,-1.6c.3,-.1,.7,-.2,1.4,-.4V881c.2,-.6,.5,-1.1,1,-1.5c.5,-.6,1.1,-.8,1.6,-.8c0,0,.1,0,.2,0c-.1,.3,-.1,.7,-.3,1.3c-.2,0,-.4,.1,-.7,.2c-.3,0,-.5,.2,-.8,.4c-.5,.3,-.7,.9,-.9,1.8c-.1,.5,-.1,1.3,-.1,2.2c0,.8,0,1.6,0,2.4q-.1,0,-.1,0c-.3,0,-.7,.1,-1.3,.1Zm-170.7,0c-1.4,0,-2,-.6,-2,-1.7v-5.1h-1.1v-.1l.1,-.7l1,-.2v-1.8l1.3,-.3c0,.3,0,1,0,2.1h1.5c-.1,.3,-.1,.6,-.1,.9c-.2,0,-.6,0,-1.3,0l-.1,4.9c0,.8,.5,1.3,1.5,1.4v.5c-.3,0,-.6,.1,-.8,.1Zm57.2,0c-1.3,0,-2,-.6,-2,-1.7v-5.1h-1.1v-.1l.2,-.7l.9,-.2v-1.8l1.3,-.3c0,.3,.1,1,.1,2.1h1.4c0,.3,0,.6,0,.9c-.2,0,-.7,0,-1.4,0v4.9c0,.8,.5,1.3,1.4,1.4v.5c-.3,0,-.5,.1,-.8,.1Zm83.7,0c-1.3,0,-2,-.6,-2,-1.7v-5.1h-1v-.1l.1,-.7l.9,-.2v-1.8l1.4,-.3c-.1,.3,0,1,0,2.1h1.5c-.1,.3,-.1,.6,-.1,.9c-.2,0,-.7,0,-1.4,0v4.9c0,.8,.5,1.3,1.5,1.4l-.1,.5c-.2,0,-.5,.1,-.8,.1Zm20.4,0c-1.4,0,-2,-.6,-2,-1.7v-5.1H377v-.1l.1,-.7l1,-.2v-1.8l1.3,-.3c0,.3,0,1,0,2.1h1.5c-.1,.3,0,.6,0,.9c-.3,0,-.7,0,-1.4,0l-.1,4.9c0,.8,.5,1.3,1.5,1.4v.5c-.3,0,-.5,.1,-.8,.1Zm30.5,0c-1.4,0,-2,-.6,-2,-1.7v-5.1h-1.1v-.1l.1,-.7l1,-.2v-1.8l1.3,-.3c0,.3,0,1,0,2.1h1.5c-.1,.3,0,.6,0,.9c-.3,0,-.7,0,-1.4,0l-.1,4.9c0,.8,.5,1.3,1.5,1.4v.5c-.3,0,-.6,.1,-.8,.1ZM153.7,877.9c0,-.5,.2,-1.1,.3,-1.9c.3,0,.7,0,1.3,-.1l-.6,1.7l-.1,.1c-.2,0,-.5,.1,-.9,.2Zm67.6,0c.1,-.5,.2,-1.1,.3,-1.9c.3,0,.7,0,1.3,-.1l-.6,1.7l-.1,.1c-.2,0,-.5,.1,-.9,.2Zm23.2,0c0,-.5,.2,-1.1,.3,-1.9c.2,0,.7,0,1.3,-.1l-.6,1.7l-.1,.1c-.2,0,-.5,.1,-.9,.2Zm13.7,0c.1,-.5,.2,-1.1,.3,-1.9c.3,0,.7,0,1.3,-.1l-.6,1.7l-.1,.1c-.2,0,-.5,.1,-.9,.2Zm35.9,0c0,-.5,.1,-1.1,.2,-1.9c.3,0,.8,0,1.4,-.1l-.7,1.7l-.1,.1c-.2,0,-.5,.1,-.8,.2Zm71.9,0c.1,-.5,.2,-1.1,.3,-1.9c.3,0,.8,0,1.3,-.1l-.6,1.7l-.1,.1c-.2,0,-.5,.1,-.9,.2ZM149.8,888.2v-1.1c.1,-1.7,.1,-3.4,-.1,-5.2c-.1,-1.1,-.5,-1.7,-1.1,-1.7c-.6,0,-1.1,.3,-1.8,.9c-.1,1.2,-.1,2.2,-.1,3.1c0,1,0,1.9,0,2.7c0,0,-.1,0,-.1,0c-.3,0,-.7,0,-1.2,0c0,-1.3,0,-3.3,0,-5.9v-3.1c0,-.6,-.1,-1.2,-.1,-1.8c.4,-.1,.9,-.2,1.5,-.3c0,1.1,0,2.6,-.1,4.5c1.1,-.7,1.9,-1,2.5,-1c1.3,0,2,.8,2,2.3c0,1.7,0,3.5,-.2,5.4c0,.6,-.4,1,-1.2,1.2Zm18.1,0v-1.1c.1,-1.7,.1,-3.4,-.1,-5.2c-.1,-1.1,-.4,-1.7,-1.1,-1.7c-.6,0,-1.1,.3,-1.8,.9c0,1.2,0,2.2,0,3.1c0,1,0,1.9,0,2.7q-.1,0,-.2,0c-.3,0,-.7,0,-1.2,0c0,-1.3,0,-3.3,0,-5.9v-3.1c0,-.6,0,-1.2,-.1,-1.8c.4,-.1,.9,-.2,1.5,-.3c0,1.1,0,2.6,0,4.5c1,-.7,1.8,-1,2.4,-1c1.3,0,2,.8,2,2.3c0,1.7,0,3.5,-.2,5.4c0,.6,-.4,1,-1.2,1.2Zm115,0v-1.1c.1,-1.7,.1,-3.4,-.1,-5.2c-.1,-1.1,-.4,-1.7,-1.1,-1.7c-.6,0,-1.1,.3,-1.8,.9c0,1.2,0,2.2,0,3.1c0,1,0,1.9,0,2.7q-.1,0,-.2,0c-.3,0,-.7,0,-1.2,0c0,-1.3,0,-3.3,0,-5.9v-3.1c0,-.6,0,-1.2,0,-1.8c.3,-.1,.8,-.2,1.4,-.3c0,1.1,0,2.6,0,4.5c1,-.7,1.8,-1,2.5,-1c1.2,0,1.9,.8,1.9,2.3c0,1.7,0,3.5,-.2,5.4c0,.6,-.4,1,-1.2,1.2Zm54.6,-1.1c-.3,0,-.4,0,-.5,0c-.1,-.1,-.3,-.2,-.6,-.4c-.4,-.2,-.5,-.3,-.6,-.4c.1,-3.4,.2,-6.2,.1,-8.2c0,-.6,0,-1.3,-.1,-2l1.5,-.3l-.2,4.2c.9,-.5,1.6,-.7,2.1,-.7c.9,0,1.6,.4,2.1,1.1c.5,.5,.7,1.4,.7,2.3c0,1,-.2,1.9,-.6,2.6c-.6,.8,-1.3,1.3,-2.2,1.6c-.5,.1,-1,.2,-1.7,.2Z"/></clipPath>
<clipPath id="cx_3"><path d="M477.3,812.4V798.2H647.8v14.2Z"/></clipPath>
<clipPath id="cy_3"><path d="M646.4,809.4v0c0,-.7,0,-1.2,0,-1.8v-.1c.6,0,1,0,1.4,0v.9c0,.3,0,.6,0,.8l-.1,.1l-1.3,.1Zm-49.9,-1.1c.9,0,1.7,-.3,2.3,-1c.5,-.6,.7,-1.4,.7,-2.4c0,-.7,-.1,-1.2,-.4,-1.7c-.3,-.5,-.8,-.8,-1.4,-.8c-.5,0,-1,.2,-1.6,.7c-.1,1.3,-.1,3,-.1,5.2c0,0,.1,0,.1,0c.2,0,.3,0,.4,0Zm7.7,0c1,0,1.8,-.3,2.3,-1c.5,-.6,.8,-1.4,.8,-2.4c0,-.7,-.2,-1.2,-.4,-1.7c-.4,-.5,-.8,-.8,-1.4,-.8c-.5,0,-1.1,.2,-1.7,.7c0,1.3,0,3,0,5.2h.1c.1,0,.2,0,.3,0Zm-123.7,.2c.5,0,1,-.2,1.5,-.8c0,-2.6,0,-4,0,-4.6c0,-.2,0,-.3,-.2,-.5c-.1,-.1,-.3,-.2,-.4,-.2q-.1,0,-.2,0c-.9,0,-1.4,.4,-1.9,1.1c-.4,.6,-.5,1.4,-.5,2.5c0,.6,.2,1.2,.4,1.7c.3,.5,.7,.8,1.3,.8Zm7.7,0c.5,0,1,-.2,1.5,-.8c0,-1.4,0,-2.9,0,-4.6c0,-.2,0,-.3,-.2,-.5c-.1,-.1,-.3,-.2,-.4,-.2q-.1,0,-.2,0c-.9,0,-1.4,.4,-1.9,1.1c-.4,.6,-.5,1.4,-.5,2.5c0,.6,.2,1.2,.4,1.7c.3,.5,.7,.8,1.3,.8Zm7.7,0c.5,0,1,-.2,1.5,-.8c0,-2.6,0,-4,0,-4.6c0,-.2,0,-.3,-.2,-.5c-.1,-.1,-.3,-.2,-.4,-.2q-.1,0,-.2,0c-.9,0,-1.4,.4,-1.9,1.1c-.4,.6,-.5,1.4,-.5,2.5c0,.6,.2,1.2,.4,1.7c.3,.5,.7,.8,1.3,.8Zm34.4,0c.5,0,1,-.2,1.4,-.8c.1,-2.6,.1,-4,.1,-4.6c0,-.2,-.1,-.3,-.2,-.5c-.2,-.1,-.3,-.2,-.5,-.2c0,0,-.1,0,-.1,0c-.9,0,-1.5,.4,-1.9,1.1c-.4,.6,-.5,1.4,-.5,2.5c0,.6,.1,1.2,.4,1.7c.2,.5,.7,.8,1.3,.8Zm39.9,0c.5,0,1,-.2,1.5,-.8c0,-2.6,0,-4,0,-4.6c0,-.2,-.1,-.3,-.2,-.5c-.2,-.1,-.3,-.2,-.5,-.2c0,0,-.1,0,-.1,0c-.9,0,-1.5,.4,-1.9,1.1c-.4,.6,-.5,1.4,-.5,2.5c0,.6,.1,1.2,.4,1.7c.2,.5,.7,.8,1.3,.8Zm19.6,.2c1.3,0,2,-1.1,1.9,-3.4c0,-2.1,-.6,-3,-1.8,-3c-1.4,0,-2.1,1.2,-2,3.6c0,.8,.2,1.4,.4,1.8c.3,.6,.8,1,1.5,1Zm23.1,0c1.4,0,2.1,-1.1,2,-3.4c-.1,-2.1,-.7,-3,-1.9,-3c-1.4,0,-2,1.2,-1.9,3.6c0,.8,.1,1.4,.4,1.8c.3,.6,.8,1,1.4,1Zm13.9,-4l3.7,-.9c-.6,-1.1,-1.1,-1.5,-1.7,-1.5c-.9,0,-1.6,.8,-2,2.4Zm-146.6,4.7c-.9,0,-1.6,-.3,-2.1,-1.1c-.4,-.6,-.6,-1.4,-.7,-2.3c0,-1.4,.3,-2.4,1,-3.3c.7,-.8,1.7,-1.2,3.1,-1.2c.6,0,1.1,.1,1.3,.2c.4,.2,.6,.6,.6,1.2c0,.1,0,.6,0,1.4v5.1c-.3,0,-.7,-.2,-1.3,-.7c-.7,.5,-1.3,.7,-1.9,.7Zm8.1,2.9c-.3,0,-.7,0,-1.1,0c-.6,-.1,-1,-.2,-1.3,-.4l.1,-1.3c.2,.2,.6,.4,1,.6c.3,.1,.7,.2,1,.2c.2,0,.4,0,.6,-.1c.7,-.3,1.1,-1.2,1.1,-2.6c-.6,.5,-1.3,.7,-1.9,.7c-.9,0,-1.5,-.3,-2,-1.1c-.4,-.6,-.6,-1.4,-.7,-2.3c0,-1.4,.3,-2.4,1,-3.3c.7,-.8,1.7,-1.2,3.1,-1.2c.6,0,1.1,.1,1.4,.2c.3,.2,.5,.6,.5,1.2c0,.5,0,1.5,0,2.8c0,.8,0,2,0,3.5c0,.9,-.3,1.6,-.8,2.2c-.2,.3,-.5,.5,-.8,.7c-.4,.1,-.7,.2,-1,.2q-.1,0,-.2,0Zm7.3,-2.9c-.9,0,-1.6,-.3,-2.1,-1.1c-.4,-.6,-.6,-1.4,-.7,-2.3c0,-1.4,.3,-2.4,1,-3.3c.7,-.8,1.7,-1.2,3.1,-1.2c.6,0,1.1,.1,1.3,.2c.4,.2,.6,.6,.6,1.2c0,.1,0,.6,0,1.4v5.1c-.3,0,-.7,-.2,-1.3,-.7c-.7,.5,-1.3,.7,-1.9,.7Zm5.2,0c.2,-2,.2,-3.9,.2,-5.7c0,-.7,-.1,-1.3,-.1,-1.9c.5,-.1,1,-.2,1.4,-.3c-.1,1.8,-.1,3.5,-.1,5.2c0,.8,0,1.8,0,2.7c-.5,0,-1,0,-1.4,0Zm8.5,0h-.1c0,-.2,0,-1,-.1,-2.5c.1,-.7,.2,-1.5,.2,-2.5c0,-.5,-.1,-1,-.3,-1.3c-.2,-.5,-.5,-.7,-.9,-.7c-.7,0,-1.3,.3,-1.9,.9c0,1,0,2.1,0,3c0,1.1,-.1,2.1,-.2,3c-.5,0,-.9,.1,-1.3,.1c.1,-2,.1,-3.6,.1,-4.7c0,-.9,-.1,-1.9,-.1,-2.8c0,0,0,-.1,.1,-.1c.2,0,.4,.1,.6,.2l.6,.3c.7,-.5,1.5,-.8,2.6,-.8c1.2,0,1.8,.8,1.9,2.3c0,.4,0,1.1,0,2.1c0,.5,0,1.2,0,2c0,.6,0,1.1,.1,1.4v.1h-.1c-.5,0,-.9,0,-1.2,0Zm4.1,.5c-.4,0,-.8,-.1,-1.2,-.2v-.1c0,-.2,.1,-.6,.2,-1.1c.8,.3,1.4,.5,1.5,.5c.5,0,1,-.1,1.4,-.3c.5,-.4,.7,-.8,.7,-1.3c0,-.5,-.3,-.8,-.9,-1.1c-.4,-.2,-.9,-.3,-1.7,-.6c-.6,-.4,-.9,-.9,-.9,-1.7c0,-.9,.3,-1.5,1,-2c.5,-.4,1.3,-.5,2.2,-.5c.4,0,.9,.1,1.3,.2v.1l-.1,1c-.5,-.3,-.9,-.4,-1.4,-.4c-.5,0,-.8,.1,-1.1,.3c-.4,.2,-.5,.5,-.5,.9c0,.4,.3,.8,.9,1l1.7,.6c.5,.4,.9,1,.9,1.8c0,.6,-.3,1.3,-.9,1.9c-.7,.6,-1.7,1,-3.1,1Zm16.6,-.5c-.9,0,-1.6,-.3,-2.1,-1.1c-.5,-.6,-.7,-1.4,-.7,-2.3c0,-1.4,.3,-2.4,1,-3.3c.7,-.8,1.7,-1.2,3,-1.2c.7,0,1.1,.1,1.4,.2c.4,.2,.6,.6,.6,1.2c0,.1,0,.6,0,1.4v5.1c-.3,0,-.7,-.2,-1.3,-.7c-.8,.5,-1.4,.7,-1.9,.7Zm19.1,0c-1.3,0,-1.9,-.7,-1.9,-2.2c0,-.4,0,-1.1,0,-2c0,-.7,0,-1.4,0,-2c0,-.6,0,-1.1,0,-1.5v-.1c.4,0,.9,0,1.5,-.1c0,.4,0,.9,-.1,1.5c0,.6,0,1.2,0,1.5c0,.8,0,1.6,0,2.1c0,.5,.1,.9,.2,1.3c.2,.4,.6,.6,1,.6c.5,0,1.1,-.3,1.8,-.9c0,-.2,0,-.7,0,-1.4c0,-.6,0,-1,0,-1.4c0,-1,.1,-2.1,.1,-3.1v-.1c.1,0,.5,0,1.3,-.1c0,1.8,0,3.5,0,4.9c0,1.1,0,2.1,0,3c-.3,0,-.5,-.1,-.7,-.3l-.7,-.5c-.8,.5,-1.6,.8,-2.5,.8Zm10.3,0c0,-2,0,-3.6,0,-4.8c0,-1.5,-.3,-2.2,-1,-2.2c-.6,0,-1.1,.3,-1.7,.9c0,1.3,0,2.6,0,3.6c0,1,0,1.8,0,2.4q-.1,0,-.1,0c-.4,0,-.8,.1,-1.3,.1c0,-1.7,0,-3.6,0,-5.8c0,-.7,0,-1.2,0,-1.7l.1,-.1c.2,0,.4,.1,.6,.2c.2,.1,.4,.2,.6,.3c.7,-.5,1.6,-.8,2.5,-.8c.6,0,1.2,.3,1.6,1.1c.8,-.8,1.7,-1.1,2.6,-1.1c1.3,0,1.9,.8,1.9,2.3v5.6h-.1c-.3,0,-.7,0,-1.2,0c0,-1.1,0,-2.8,0,-4.9c0,-1.4,-.5,-2.1,-1.3,-2.1c-.7,0,-1.2,.3,-1.8,.7c0,.7,0,1.7,0,3.2c0,1.3,0,2.3,0,3c-.3,0,-.7,.1,-1.4,.1Zm10.5,0c-.9,0,-1.6,-.3,-2.1,-1.1c-.5,-.6,-.7,-1.4,-.7,-2.3c0,-1.4,.3,-2.4,1,-3.3c.7,-.8,1.7,-1.2,3,-1.2c.7,0,1.1,.1,1.4,.2c.4,.2,.6,.6,.6,1.2c0,.1,0,.6,0,1.4v5.1c-.3,0,-.7,-.2,-1.3,-.7c-.7,.5,-1.3,.7,-1.9,.7Zm10,0v0c0,-.2,-.1,-1,-.2,-2.5c.1,-.7,.2,-1.5,.2,-2.5c0,-.5,-.1,-1,-.2,-1.3c-.3,-.5,-.6,-.7,-1,-.7c-.6,0,-1.2,.3,-1.9,.9c0,1,0,2.1,0,3c0,1.1,-.1,2.1,-.2,3c-.5,0,-.9,.1,-1.3,.1c.1,-2,.1,-3.6,.1,-4.7c0,-.9,-.1,-1.9,-.1,-2.8c0,0,.1,-.1,.1,-.1h.1c.1,0,.3,.1,.5,.2l.6,.3c.7,-.5,1.6,-.8,2.6,-.8c1.2,0,1.9,.8,1.9,2.3c0,.4,0,1.1,0,2.1c0,.5,0,1.2,0,2c0,.6,.1,1.1,.1,1.4v.1h-.1c-.5,0,-.8,0,-1.2,0Zm9.9,0c-1.1,0,-1.9,-.3,-2.5,-1c-.5,-.7,-.7,-1.5,-.8,-2.6c0,-1.3,.3,-2.3,.8,-3c.5,-.9,1.5,-1.3,2.7,-1.3c1,0,1.8,.3,2.4,1.1c.4,.5,.7,1.4,.7,2.5c.1,1.2,-.2,2.3,-.7,3c-.6,.9,-1.4,1.3,-2.6,1.3Zm4.8,2.9c.1,-2.9,.2,-5.6,.2,-8c0,-.8,-.1,-1.7,-.1,-2.6c.5,0,1,.2,1.3,.5c.6,-.5,1.4,-.7,2.2,-.7c.8,0,1.5,.3,2,1.1c.4,.5,.7,1.3,.7,2.2c0,1.4,-.5,2.5,-1.4,3.3c-.9,.7,-1.9,1,-3.2,1c-.1,0,-.2,0,-.3,0c0,1.1,0,2.1,0,3l-1.4,.2Zm7.8,0c.1,-2.9,.2,-5.6,.1,-8c0,-.8,0,-1.7,-.1,-2.6h.1c.5,0,.9,.2,1.3,.5c.6,-.5,1.4,-.7,2.2,-.7c.8,0,1.5,.3,2,1.1c.4,.5,.6,1.3,.7,2.2c0,1.4,-.5,2.5,-1.5,3.3c-.8,.7,-1.9,1,-3.2,1c0,0,-.1,0,-.2,0c0,1.1,0,2.1,0,3h-.1l-1.3,.2Zm10.5,-2.9c-1,0,-1.8,-.3,-2.4,-1c-.5,-.7,-.8,-1.5,-.8,-2.6c0,-1.3,.2,-2.3,.7,-3c.6,-.9,1.6,-1.3,2.8,-1.3c1,0,1.8,.3,2.3,1.1c.5,.5,.7,1.4,.8,2.5c0,1.2,-.2,2.3,-.7,3c-.6,.9,-1.5,1.3,-2.7,1.3Zm9.6,0v0c0,-.2,0,-1,-.1,-2.5c.1,-.7,.2,-1.5,.2,-2.5c-.1,-.5,-.1,-1,-.3,-1.3c-.2,-.5,-.5,-.7,-1,-.7c-.6,0,-1.2,.3,-1.8,.9c0,1,0,2.1,0,3c0,1.1,-.1,2.1,-.2,3c-.6,0,-1,.1,-1.4,.1c.1,-2,.2,-3.6,.2,-4.7c-.1,-.9,-.1,-1.9,-.2,-2.8c.1,0,.1,-.1,.1,-.1c0,0,.1,0,.1,0c.2,0,.4,.1,.6,.2l.6,.3c.6,-.5,1.5,-.8,2.5,-.8c1.2,0,1.9,.8,1.9,2.3c0,.4,0,1.1,0,2.1c0,.5,0,1.2,0,2c.1,.6,.1,1.1,.2,1.4v.1q-.1,0,-.1,0c-.5,0,-.9,0,-1.3,0Zm6.5,0c-1,0,-1.9,-.3,-2.5,-.9c-.6,-.7,-.9,-1.5,-.9,-2.6c0,-1.2,.2,-2.2,.7,-3c.6,-.9,1.5,-1.4,2.6,-1.4c.7,0,1.3,.2,1.8,.6c.5,.4,.9,1,1.1,1.6c-.1,.2,-.3,.4,-.5,.6c-1,.3,-2.5,.8,-4.4,1.4c.1,1.9,.9,2.8,2.3,2.8c.7,0,1.5,-.3,2.2,-.9c0,.3,0,.7,-.1,1.2c-.2,.1,-.5,.3,-1,.5c-.5,0,-.9,.1,-1.3,.1Zm8.9,0v0c0,-.2,-.1,-1,-.2,-2.5c.2,-.7,.2,-1.5,.2,-2.5c0,-.5,0,-1,-.2,-1.3c-.3,-.5,-.5,-.7,-1,-.7c-.6,0,-1.2,.3,-1.8,.9c-.1,1,-.1,2.1,-.1,3c0,1.1,0,2.1,-.1,3c-.6,0,-1,.1,-1.4,.1c.1,-2,.2,-3.6,.2,-4.7c-.1,-.9,-.1,-1.9,-.2,-2.8c.1,0,.1,-.1,.1,-.1q.1,0,.1,0c.1,0,.4,.1,.5,.2l.7,.3c.6,-.5,1.5,-.8,2.5,-.8c1.2,0,1.9,.8,1.9,2.3c0,.4,0,1.1,0,2.1c0,.5,0,1.2,0,2c0,.6,.1,1.1,.2,1.4v.1q-.1,0,-.1,0c-.5,0,-.9,0,-1.3,0Zm-116.3,0c-1.4,0,-2,-.5,-2,-1.7v-5.1h-1.1l.2,-.8l.9,-.2v-1.8l1.3,-.3c0,.3,.1,1.1,.1,2.1h1.4c0,.3,0,.6,0,1c-.3,0,-.7,0,-1.4,0v4.8c-.1,.8,.4,1.3,1.4,1.4v.5c-.3,.1,-.5,.1,-.8,.1Zm122.3,0c-1.3,0,-2,-.5,-2,-1.7v-5.1h-1.1l.2,-.8l.9,-.2v-1.8l1.3,-.3c0,.3,.1,1.1,.1,2.1h1.4c0,.3,0,.6,0,1c-.2,0,-.7,0,-1.4,0v4.8c0,.8,.5,1.3,1.5,1.4l-.1,.5c-.3,.1,-.5,.1,-.8,.1ZM501.2,800.2c.1,-.4,.2,-1,.3,-1.8c.3,-.1,.7,-.1,1.3,-.1l-.6,1.7l-.1,.1c-.2,0,-.5,.1,-.9,.1Zm42.5,10.3v-1.1c.1,-1.6,.1,-3.3,-.1,-5.1c-.1,-1.2,-.5,-1.7,-1.1,-1.7c-.6,0,-1.1,.3,-1.8,.9c-.1,1.1,-.1,2.1,-.1,3.1c0,.9,0,1.8,0,2.6c0,0,-.1,0,-.1,0c-.3,0,-.7,.1,-1.2,.1c0,-1.3,0,-3.3,0,-5.9v-3.1c0,-.7,-.1,-1.3,-.1,-1.8c.3,-.1,.8,-.2,1.4,-.3h.1c-.1,1.1,-.1,2.6,-.1,4.5c1.1,-.7,1.9,-1.1,2.5,-1.1c1.3,0,2,.8,2,2.4c0,1.6,0,3.4,-.2,5.4c0,.6,-.4,1,-1.2,1.1Z"/></clipPath>
<style type="text/css"><![CDATA[
.g0_3{
fill: none;
stroke: #680008;
stroke-width: 1.527;
stroke-linecap: butt;
stroke-linejoin: miter;
}
.g1_3{
fill: none;
stroke: #FFFFFF;
stroke-width: 1.909;
stroke-linecap: butt;
stroke-linejoin: miter;
}
.g2_3{
fill: none;
stroke: #000000;
stroke-width: 0.381;
stroke-linecap: butt;
stroke-linejoin: miter;
}
]]></style>
</defs>
<image clip-path="url(#c0_3)" preserveAspectRatio="none" x="0" y="-22" width="930" height="1329" xlink:href="img/1.jpg"/>
<image clip-path="url(#c1_3)" preserveAspectRatio="none" x="907" y="-22" width="933" height="1329" xlink:href="img/2.jpg"/>
<image clip-path="url(#c2_3)" preserveAspectRatio="none" x="61" y="135" width="787" height="46" xlink:href="img/3.jpg"/>
<image clip-path="url(#c3_3)" preserveAspectRatio="none" x="61" y="181" width="53" height="182" xlink:href="img/4.jpg"/>
<image clip-path="url(#c4_3)" preserveAspectRatio="none" x="795" y="181" width="53" height="182" xlink:href="img/5.jpg"/>
<image clip-path="url(#c5_3)" preserveAspectRatio="none" x="114" y="317" width="682" height="46" xlink:href="img/6.jpg"/>
<image clip-path="url(#c6_3)" preserveAspectRatio="none" x="64" y="138" width="363" height="220" xlink:href="img/7.jpg"/>
<image clip-path="url(#c7_3)" preserveAspectRatio="none" x="427" y="138" width="364" height="220" xlink:href="img/8.jpg"/>
<image clip-path="url(#c8_3)" preserveAspectRatio="none" x="790" y="138" width="52" height="220" xlink:href="img/9.jpg"/>
<image clip-path="url(#c9_3)" preserveAspectRatio="none" x="101" y="385" width="706" height="53" xlink:href="img/10.jpg"/>
<image clip-path="url(#ca_3)" preserveAspectRatio="none" x="101" y="580" width="706" height="53" xlink:href="img/11.jpg"/>
<image clip-path="url(#cb_3)" preserveAspectRatio="none" x="134" y="798" width="160" height="109" xlink:href="img/12.jpg"/>
<image clip-path="url(#cc_3)" preserveAspectRatio="none" x="294" y="798" width="160" height="109" xlink:href="img/13.jpg"/>
<image clip-path="url(#cd_3)" preserveAspectRatio="none" x="454" y="798" width="160" height="109" xlink:href="img/14.jpg"/>
<image clip-path="url(#ce_3)" preserveAspectRatio="none" x="614" y="798" width="160" height="109" xlink:href="img/15.jpg"/>
<image clip-path="url(#cf_3)" preserveAspectRatio="none" x="774" y="798" width="54" height="327" xlink:href="img/16.jpg"/>
<image clip-path="url(#cg_3)" preserveAspectRatio="none" x="134" y="906" width="160" height="110" xlink:href="img/17.jpg"/>
<g clip-path="url(#ch_3)">
<image preserveAspectRatio="none" x="294" y="906" width="160" height="110" xlink:href="img/18.jpg"/>
<image preserveAspectRatio="none" x="454" y="906" width="160" height="110" xlink:href="img/19.jpg"/>
<image preserveAspectRatio="none" x="614" y="906" width="160" height="110" xlink:href="img/20.jpg"/>
</g>
<image clip-path="url(#ci_3)" preserveAspectRatio="none" x="134" y="1016" width="160" height="109" xlink:href="img/21.jpg"/>
<g clip-path="url(#ch_3)">
<image preserveAspectRatio="none" x="294" y="1016" width="160" height="109" xlink:href="img/22.jpg"/>
<image preserveAspectRatio="none" x="454" y="1016" width="160" height="109" xlink:href="img/23.jpg"/>
<image preserveAspectRatio="none" x="614" y="1016" width="160" height="109" xlink:href="img/24.jpg"/>
</g>
<image clip-path="url(#cj_3)" preserveAspectRatio="none" x="134" y="1124" width="160" height="110" xlink:href="img/25.jpg"/>
<g clip-path="url(#ch_3)">
<image preserveAspectRatio="none" x="294" y="1124" width="160" height="110" xlink:href="img/26.jpg"/>
<image preserveAspectRatio="none" x="454" y="1124" width="160" height="110" xlink:href="img/27.jpg"/>
<image preserveAspectRatio="none" x="614" y="1124" width="160" height="110" xlink:href="img/28.jpg"/>
</g>
<image clip-path="url(#ck_3)" preserveAspectRatio="none" x="774" y="1124" width="54" height="164" xlink:href="img/29.jpg"/>
<image clip-path="url(#cl_3)" preserveAspectRatio="none" x="134" y="1234" width="320" height="54" xlink:href="img/30.jpg"/>
<image clip-path="url(#cm_3)" preserveAspectRatio="none" x="454" y="1234" width="320" height="54" xlink:href="img/31.jpg"/>
<image clip-path="url(#cn_3)" preserveAspectRatio="none" x="134" y="802" width="295" height="15" xlink:href="img/32.jpg"/>
<image clip-path="url(#co_3)" preserveAspectRatio="none" x="134" y="802" width="295" height="15" xlink:href="img/33.jpg"/>
<image clip-path="url(#cp_3)" preserveAspectRatio="none" x="134" y="821" width="295" height="13" xlink:href="img/34.jpg"/>
<image clip-path="url(#cq_3)" preserveAspectRatio="none" x="134" y="821" width="295" height="13" xlink:href="img/35.jpg"/>
<image clip-path="url(#cr_3)" preserveAspectRatio="none" x="134" y="838" width="296" height="15" xlink:href="img/36.jpg"/>
<image clip-path="url(#cs_3)" preserveAspectRatio="none" x="134" y="838" width="296" height="15" xlink:href="img/37.jpg"/>
<image clip-path="url(#ct_3)" preserveAspectRatio="none" x="134" y="857" width="295" height="15" xlink:href="img/38.jpg"/>
<image clip-path="url(#cu_3)" preserveAspectRatio="none" x="134" y="857" width="295" height="15" xlink:href="img/39.jpg"/>
<image clip-path="url(#cv_3)" preserveAspectRatio="none" x="134" y="876" width="282" height="14" xlink:href="img/40.jpg"/>
<image clip-path="url(#cw_3)" preserveAspectRatio="none" x="134" y="876" width="282" height="14" xlink:href="img/41.jpg"/>
<image clip-path="url(#cx_3)" preserveAspectRatio="none" x="477" y="798" width="171" height="15" xlink:href="img/42.jpg"/>
<image clip-path="url(#cy_3)" preserveAspectRatio="none" x="477" y="798" width="171" height="15" xlink:href="img/43.jpg"/>
<path d="M77,100.7H830.6" class="g0_3"/>
<g clip-path="url(#ch_3)">
<path d="M-10,-.8H-32.9m950.6,0h22.9M-10,1285.3H-32.9m950.6,0h22.9M-.8,-10V-32.9m0,1327.4v22.9M908.5,-10V-32.9m0,1327.4v22.9" class="g1_3"/>
<path d="M-10,-.8H-32.9m950.6,0h22.9M-10,1285.3H-32.9m950.6,0h22.9M-.8,-10V-32.9m0,1327.4v22.9M908.5,-10V-32.9m0,1327.4v22.9" class="g2_3"/>
</g>
</svg>