<?xml version="1.0" encoding="UTF-8" standalone="no"?>
<!DOCTYPE svg PUBLIC "-//W3C//DTD SVG 1.1//EN"
"http://www.w3.org/Graphics/SVG/1.1/DTD/svg11.dtd">
<svg viewBox="0 0 907 1284" version="1.1" xmlns="http://www.w3.org/2000/svg" xmlns:xlink="http://www.w3.org/1999/xlink">
<defs>
<clipPath id="c0_4"><path d="M0,1284.4V0H20.7V1284.4Z"/></clipPath>
<clipPath id="c1_4"><path d="M847.5,930.2V640.7H653.1V930.2ZM243.1,552.7V464.4H154.7v88.3Zm97.5,1.4V462.5H252.3v91.6ZM805.9,116V63.6H100V116ZM-1.4,1290.5V6H906.2V966.6H478.7v288H906.2v35.9Z"/></clipPath>
<clipPath id="c2_4"><path d="M156.2,546.7V458.3h88.4v88.4Z"/></clipPath>
<clipPath id="c3_4"><path d="M253.8,548V456.5h88.3V548Z"/></clipPath>
<clipPath id="c4_4"><path d="M101.5,109.9V57.5H807.4v52.4Z"/></clipPath>
<clipPath id="c5_4"><path d="M653,688.9V658.6h21.8V644.3H653v-3.6h97.3v48.2Z"/></clipPath>
<clipPath id="c6_4"><path d="M750.1,688.9V640.7h97.3v48.2Z"/></clipPath>
<clipPath id="c7_4"><path d="M653.1,737.3V688.8h97.3v48.5Z"/></clipPath>
<clipPath id="c8_4"><path d="M750.3,737.3V688.8h97.2v48.5Z"/></clipPath>
<clipPath id="c9_4"><path d="M653.1,785.5V737.1h97.3v48.4Z"/></clipPath>
<clipPath id="ca_4"><path d="M750.3,785.5V737.1h97.2v48.4Z"/></clipPath>
<clipPath id="cb_4"><path d="M653.1,833.8V785.4h97.3v48.4Z"/></clipPath>
<clipPath id="cc_4"><path d="M750.3,833.8V785.4h97.2v48.4Z"/></clipPath>
<clipPath id="cd_4"><path d="M653.1,882.1V833.7h97.3v48.4Z"/></clipPath>
<clipPath id="ce_4"><path d="M750.3,882.1V833.7h97.2v48.4Z"/></clipPath>
<clipPath id="cf_4"><path d="M680.9,930.2V916.6H653.1v-5.9H661V898.3h-7.9V882h97.3v48.2Z"/></clipPath>
<clipPath id="cg_4"><path d="M750.3,930.2V882h97.2v48.2Z"/></clipPath>
<clipPath id="ch_4"><path d="M480.3,1254.6v-288H907.7v288Z"/></clipPath>
<clipPath id="ci_4"><path d="M0,1284.4V0H907.6V1284.4Z"/></clipPath>
<style type="text/css"><![CDATA[
.g0_4{
fill: none;
stroke: #FFFFFF;
stroke-width: 1.145;
stroke-linecap: butt;
stroke-linejoin: miter;
}
.g1_4{
fill: none;
stroke: #FFFFFF;
stroke-width: 1.909;
stroke-linecap: butt;
stroke-linejoin: miter;
}
.g2_4{
fill: none;
stroke: #000000;
stroke-width: 0.381;
stroke-linecap: butt;
stroke-linejoin: miter;
}
]]></style>
</defs>
<image clip-path="url(#c0_4)" preserveAspectRatio="none" x="-23" y="-22" width="44" height="1329" xlink:href="img/1.webp"/>
<image clip-path="url(#c1_4)" preserveAspectRatio="none" x="-2" y="-15" width="931" height="1328" xlink:href="img/2.webp"/>
<image clip-path="url(#c2_4)" preserveAspectRatio="none" x="156" y="458" width="89" height="89" xlink:href="img/3.webp"/>
<image clip-path="url(#c3_4)" preserveAspectRatio="none" x="254" y="456" width="88" height="92" xlink:href="img/4.webp"/>
<image clip-path="url(#c4_4)" preserveAspectRatio="none" x="101" y="57" width="707" height="53" xlink:href="img/5.webp"/>
<image clip-path="url(#c5_4)" preserveAspectRatio="none" x="653" y="641" width="97" height="48" xlink:href="img/6.webp"/>
<image clip-path="url(#c6_4)" preserveAspectRatio="none" x="750" y="641" width="98" height="48" xlink:href="img/7.webp"/>
<image clip-path="url(#c7_4)" preserveAspectRatio="none" x="653" y="689" width="97" height="48" xlink:href="img/8.webp"/>
<image clip-path="url(#c8_4)" preserveAspectRatio="none" x="750" y="689" width="98" height="48" xlink:href="img/9.webp"/>
<image clip-path="url(#c9_4)" preserveAspectRatio="none" x="653" y="737" width="97" height="49" xlink:href="img/10.webp"/>
<image clip-path="url(#ca_4)" preserveAspectRatio="none" x="750" y="737" width="98" height="49" xlink:href="img/11.webp"/>
<image clip-path="url(#cb_4)" preserveAspectRatio="none" x="653" y="785" width="97" height="49" xlink:href="img/12.webp"/>
<image clip-path="url(#cc_4)" preserveAspectRatio="none" x="750" y="785" width="98" height="49" xlink:href="img/13.webp"/>
<image clip-path="url(#cd_4)" preserveAspectRatio="none" x="653" y="834" width="97" height="48" xlink:href="img/14.webp"/>
<image clip-path="url(#ce_4)" preserveAspectRatio="none" x="750" y="834" width="98" height="48" xlink:href="img/15.webp"/>
<image clip-path="url(#cf_4)" preserveAspectRatio="none" x="653" y="882" width="97" height="48" xlink:href="img/16.webp"/>
<image clip-path="url(#cg_4)" preserveAspectRatio="none" x="750" y="882" width="98" height="48" xlink:href="img/17.webp"/>
<image clip-path="url(#ch_4)" preserveAspectRatio="none" x="480" y="966" width="429" height="289" xlink:href="img/18.webp"/>
<path d="M499.7,1016.1H842.5" class="g0_4"/>
<g clip-path="url(#ci_4)">
<path d="M-10,-.8H-32.9m950.6,0h22.9M-10,1285.3H-32.9m950.6,0h22.9M-.8,-10V-32.9m0,1327.4v22.9M908.5,-10V-32.9m0,1327.4v22.9" class="g1_4"/>
<path d="M-10,-.8H-32.9m950.6,0h22.9M-10,1285.3H-32.9m950.6,0h22.9M-.8,-10V-32.9m0,1327.4v22.9M908.5,-10V-32.9m0,1327.4v22.9" class="g2_4"/>
</g>
</svg>