<?xml version="1.0" encoding="UTF-8" standalone="no"?>
<!DOCTYPE svg PUBLIC "-//W3C//DTD SVG 1.1//EN"
"http://www.w3.org/Graphics/SVG/1.1/DTD/svg11.dtd">
<svg viewBox="0 0 908 1285" version="1.1" xmlns="http://www.w3.org/2000/svg" xmlns:xlink="http://www.w3.org/1999/xlink">
<defs>
<clipPath id="c0_36"><path d="M-32.4,238V-32H292.3V238Z"/></clipPath>
<clipPath id="c1_36"><path d="M291.6,238V-32H617.1V238Z"/></clipPath>
<clipPath id="c2_36"><path d="M616.4,238V-32H941.1V238Z"/></clipPath>
<clipPath id="c3_36"><path d="M-32.4,508.2V237.3H292.3V508.2Z"/></clipPath>
<clipPath id="c4_36"><path d="M616.4,508.2V237.3H941.1V508.2Z"/></clipPath>
<clipPath id="c5_36"><path d="M-32.4,778V507.5H292.3V778Z"/></clipPath>
<clipPath id="c6_36"><path d="M291.6,778V507.5H617.1V778Z"/></clipPath>
<clipPath id="c7_36"><path d="M616.4,778V507.5H941.1V778Z"/></clipPath>
<clipPath id="c8_36"><path d="M-32.4,1048.1V777.3H292.3v270.8Z"/></clipPath>
<clipPath id="c9_36"><path d="M616.4,1048.1V777.3H941.1v270.8Z"/></clipPath>
<clipPath id="ca_36"><path d="M-32.4,1317.5V1047.4H292.3v270.1Z"/></clipPath>
<clipPath id="cb_36"><path d="M291.6,1317.5V1047.4H617.1v270.1Z"/></clipPath>
<clipPath id="cc_36"><path d="M616.4,1317.5V1047.4H941.1v270.1Z"/></clipPath>
</defs>
<image clip-path="url(#c0_36)" preserveAspectRatio="none" x="-32" y="-32" width="324" height="270" xlink:href="img/1.jpg"/>
<image clip-path="url(#c1_36)" preserveAspectRatio="none" x="292" y="-32" width="325" height="270" xlink:href="img/2.jpg"/>
<image clip-path="url(#c2_36)" preserveAspectRatio="none" x="616" y="-32" width="326" height="270" xlink:href="img/3.jpg"/>
<image clip-path="url(#c3_36)" preserveAspectRatio="none" x="-32" y="237" width="324" height="271" xlink:href="img/4.jpg"/>
<image preserveAspectRatio="none" x="292" y="237" width="325" height="271" xlink:href="img/5.jpg"/>
<image clip-path="url(#c4_36)" preserveAspectRatio="none" x="616" y="237" width="326" height="271" xlink:href="img/6.jpg"/>
<image clip-path="url(#c5_36)" preserveAspectRatio="none" x="-32" y="507" width="324" height="271" xlink:href="img/7.jpg"/>
<image clip-path="url(#c6_36)" preserveAspectRatio="none" x="292" y="507" width="325" height="271" xlink:href="img/8.jpg"/>
<image clip-path="url(#c7_36)" preserveAspectRatio="none" x="616" y="507" width="326" height="271" xlink:href="img/9.jpg"/>
<image clip-path="url(#c8_36)" preserveAspectRatio="none" x="-32" y="777" width="324" height="271" xlink:href="img/10.jpg"/>
<image preserveAspectRatio="none" x="292" y="777" width="325" height="271" xlink:href="img/11.jpg"/>
<image clip-path="url(#c9_36)" preserveAspectRatio="none" x="616" y="777" width="326" height="271" xlink:href="img/12.jpg"/>
<image clip-path="url(#ca_36)" preserveAspectRatio="none" x="-32" y="1047" width="324" height="271" xlink:href="img/13.jpg"/>
<image clip-path="url(#cb_36)" preserveAspectRatio="none" x="292" y="1047" width="325" height="271" xlink:href="img/14.jpg"/>
<image clip-path="url(#cc_36)" preserveAspectRatio="none" x="616" y="1047" width="326" height="271" xlink:href="img/15.jpg"/>
</svg>