<?xml version="1.0" encoding="UTF-8" standalone="no"?>
<!DOCTYPE svg PUBLIC "-//W3C//DTD SVG 1.1//EN"
"http://www.w3.org/Graphics/SVG/1.1/DTD/svg11.dtd">
<svg viewBox="0 0 908 1286" version="1.1" xmlns="http://www.w3.org/2000/svg" xmlns:xlink="http://www.w3.org/1999/xlink">
<defs>
<clipPath id="c0"><path d="M0,1285.7V0H909V1285.7Z"/></clipPath>
<clipPath id="c1"><path d="M771,741.6c-4.9,0,-8.8,-3.9,-8.8,-8.8c0,-4.8,3.9,-8.8,8.8,-8.8c4.8,0,8.7,4,8.7,8.8c0,4.9,-3.9,8.8,-8.7,8.8Z"/></clipPath>
<clipPath id="c2"><path d="M545.8,931V913.4h17.6V931Z"/></clipPath>
<clipPath id="c3"><path d="M469.7,796.5v-55h56.4v55Z"/></clipPath>
<clipPath id="c4"><path d="M56.3,231.5V176.6h56.4v54.9Z"/></clipPath>
<clipPath id="c5"><path d="M56.3,308.8v-55h56.4v55Z"/></clipPath>
<clipPath id="c6"><path d="M56.3,472V417h56.4v55Z"/></clipPath>
<clipPath id="c7"><path d="M56.3,384.1v-55h56.4v55Z"/></clipPath>
<clipPath id="c8"><path d="M56.3,555.3v-55h56.4v55Z"/></clipPath>
<clipPath id="c9"><path d="M56.3,692.5v-55h56.4v55Z"/></clipPath>
<clipPath id="ca"><path d="M56.3,822V767h56.4v55Z"/></clipPath>
<clipPath id="cb"><path d="M56.3,910V855.1h56.4V910Z"/></clipPath>
<clipPath id="cc"><path d="M56.3,1143.6v-55h56.4v55Z"/></clipPath>
<clipPath id="cd"><path d="M469.7,931.5v-55h56.4v55Z"/></clipPath>
<clipPath id="ce"><path d="M56.3,1225.7v-55h56.4v55Z"/></clipPath>
<clipPath id="cf"><path d="M469.7,300.5v-55h56.4v55Z"/></clipPath>
<clipPath id="cg"><path d="M469.7,399.4V344.5h56.4v54.9Z"/></clipPath>
<clipPath id="ch"><path d="M469.7,527.8V472.9h56.4v54.9Z"/></clipPath>
<clipPath id="ci"><path d="M469.7,653V598h56.4v55Z"/></clipPath>
<clipPath id="cj"><path d="M101.7,108.7V56.3H807.3v52.4Z"/></clipPath>
<clipPath id="ck"><path d="M56.3,1011.2V956.3h56.4v54.9Z"/></clipPath>
<clipPath id="cl"><path d="M469.7,187.1v-55h56.4v55Z"/></clipPath>
<clipPath id="cm"><path d="M469.7,1003.5V948.6h56.4v54.9Z"/></clipPath>
<clipPath id="cn"><path d="M469.7,1136.6v-55h56.4v55Z"/></clipPath>
<clipPath id="co"><path d="M469.7,1226.2v-52.9h56.4v52.9Z"/></clipPath>
<style type="text/css"><![CDATA[
.g0{
fill: #FFFFFF;
}
.g1{
fill: none;
stroke: #000000;
stroke-width: 0.916;
stroke-linecap: butt;
stroke-linejoin: miter;
}
.g2{
}
]]></style>
</defs>
<path d="M0,0H909V1285.7H0V0Z" class="g0"/>
<image clip-path="url(#c0)" preserveAspectRatio="none" x="-21" y="-21" width="932" height="1328" xlink:href="img/1.jpg"/>
<path d="M56.3,156.4H439.4M56.3,1068.5H439.4M469.7,219.4H852.8M469.7,679.1H852.8" class="g1"/>
<image clip-path="url(#c1)" preserveAspectRatio="none" x="761" y="723" width="20" height="19" xlink:href="img/2.jpg"/>
<image clip-path="url(#c2)" preserveAspectRatio="none" x="546" y="913" width="18" height="18" xlink:href="img/3.png"/>
<path d="M469.7,1054.8H852.8" class="g1"/>
<image clip-path="url(#c3)" preserveAspectRatio="none" x="469" y="741" width="57" height="56" xlink:href="img/4.png"/>
<image clip-path="url(#c4)" preserveAspectRatio="none" x="56" y="176" width="57" height="56" xlink:href="img/5.png"/>
<image clip-path="url(#c5)" preserveAspectRatio="none" x="56" y="254" width="57" height="55" xlink:href="img/6.png"/>
<image clip-path="url(#c6)" preserveAspectRatio="none" x="56" y="417" width="57" height="55" xlink:href="img/7.png"/>
<image clip-path="url(#c7)" preserveAspectRatio="none" x="56" y="329" width="57" height="55" xlink:href="img/8.png"/>
<image clip-path="url(#c8)" preserveAspectRatio="none" x="56" y="500" width="57" height="55" xlink:href="img/9.png"/>
<image clip-path="url(#c9)" preserveAspectRatio="none" x="56" y="637" width="57" height="56" xlink:href="img/10.png"/>
<image clip-path="url(#ca)" preserveAspectRatio="none" x="56" y="767" width="57" height="55" xlink:href="img/11.png"/>
<image clip-path="url(#cb)" preserveAspectRatio="none" x="56" y="855" width="57" height="55" xlink:href="img/12.png"/>
<image clip-path="url(#cc)" preserveAspectRatio="none" x="56" y="1088" width="57" height="56" xlink:href="img/13.png"/>
<image clip-path="url(#cd)" preserveAspectRatio="none" x="469" y="876" width="57" height="56" xlink:href="img/14.png"/>
<image clip-path="url(#ce)" preserveAspectRatio="none" x="56" y="1170" width="57" height="56" xlink:href="img/15.png"/>
<image clip-path="url(#cf)" preserveAspectRatio="none" x="469" y="245" width="57" height="56" xlink:href="img/16.png"/>
<image clip-path="url(#cg)" preserveAspectRatio="none" x="469" y="344" width="57" height="56" xlink:href="img/17.png"/>
<image clip-path="url(#ch)" preserveAspectRatio="none" x="469" y="473" width="57" height="55" xlink:href="img/18.png"/>
<image clip-path="url(#ci)" preserveAspectRatio="none" x="469" y="598" width="57" height="55" xlink:href="img/19.png"/>
<image clip-path="url(#cj)" preserveAspectRatio="none" x="102" y="56" width="705" height="53" xlink:href="img/20.png"/>
<image clip-path="url(#ck)" preserveAspectRatio="none" x="56" y="956" width="57" height="55" xlink:href="img/21.png"/>
<image clip-path="url(#cl)" preserveAspectRatio="none" x="469" y="132" width="57" height="55" xlink:href="img/22.png"/>
<image clip-path="url(#cm)" preserveAspectRatio="none" x="469" y="949" width="57" height="55" xlink:href="img/23.png"/>
<image clip-path="url(#cn)" preserveAspectRatio="none" x="469" y="1081" width="57" height="56" xlink:href="img/24.png"/>
<image clip-path="url(#co)" preserveAspectRatio="none" x="469" y="1173" width="57" height="54" xlink:href="img/25.png"/>
<path d="M29.6,1267.2v.1c.2,0,.3,-.3,.3,-.9c0,-.1,0,-.2,.1,-.4c0,-.1,.1,-.2,.1,-.3c0,-1,.1,-2.6,.1,-4.6c.1,-2,.1,-3.6,.1,-4.6v-1.1l-.1,-.2l-.2,-.1h-.4c0,0,-.1,-.1,-.2,-.1c0,-.1,-.1,-.2,-.2,-.2c-.2,0,-.3,0,-.3,.2c-.1,.1,-.2,.2,-.3,.2c-.2,0,-.3,.2,-.3,.4c0,-.2,0,0,0,.7v1.4c0,2.1,-.1,3.2,-.2,3.3c-.4,.1,-1,.2,-2,.4l-.2,-.1l-.1,-.2c-.2,-1.3,-.4,-3.2,-.7,-5.8v-.2l-.3,-.1l-.4,.2c-.1,-.1,-.2,-.1,-.4,-.2c-.3,-.1,-.5,.8,-.5,2.5c0,1,.1,2.5,.3,4.5l.2,.2l.2,.1l.2,-.1c.1,-.1,.2,-.1,.4,-.1c1.3,-.1,2.3,-.2,3.1,-.4h.2l.1,.3c0,1.5,-.1,3,-.3,4.5l.1,.3h.3c.2,0,.3,-.2,.3,-.6c0,-.3,0,-.6,0,-.9c0,-.6,.2,-.8,.4,-.8c.1,0,.2,.2,.3,.6c0,.2,0,.6,0,1.1c0,.6,0,.9,0,.7v.2l.3,.1Z" class="g2"/>
<path d="M37.1,1267.2v.1c.2,0,.3,-.3,.3,-.9c.1,-.1,.1,-.2,.1,-.4c.1,-.1,.1,-.2,.2,-.3c0,-1,0,-2.6,.1,-4.6c0,-2,0,-3.6,0,-4.6v-1.1l-.1,-.2l-.2,-.1h-.3c0,0,-.1,-.1,-.2,-.1c-.1,-.1,-.2,-.2,-.3,-.2c-.1,0,-.2,0,-.3,.2c0,.1,-.1,.2,-.2,.2c-.2,0,-.3,.2,-.3,.4c0,-.2,0,0,0,.7v1.4c0,2.1,-.1,3.2,-.3,3.3c-.3,.1,-1,.2,-2,.4l-.2,-.1l-.1,-.2c-.2,-1.3,-.4,-3.2,-.6,-5.8l-.1,-.2l-.2,-.1l-.5,.2c0,-.1,-.2,-.1,-.3,-.2c-.4,-.1,-.6,.8,-.6,2.5c0,1,.2,2.5,.4,4.5l.1,.2l.2,.1l.2,-.1c.1,-.1,.3,-.1,.5,-.1c1.2,-.1,2.3,-.2,3,-.4h.3l.1,.3c-.1,1.5,-.2,3,-.3,4.5l.1,.3h.2c.2,0,.3,-.2,.4,-.6c0,-.3,0,-.6,0,-.9c0,-.6,.1,-.8,.3,-.8c.2,0,.3,.2,.3,.6c.1,.2,.1,.6,.1,1.1c-.1,.6,-.1,.9,-.1,.7l.1,.2l.2,.1Z" class="g2"/>
</svg>