<?xml version="1.0" encoding="UTF-8" standalone="no"?>
<!DOCTYPE svg PUBLIC "-//W3C//DTD SVG 1.1//EN"
"http://www.w3.org/Graphics/SVG/1.1/DTD/svg11.dtd">
<svg viewBox="0 0 909 1286" version="1.1" xmlns="http://www.w3.org/2000/svg" xmlns:xlink="http://www.w3.org/1999/xlink">
<defs>
<style type="text/css"><![CDATA[
.g0_8{
fill: none;
stroke: #000000;
stroke-width: 0.916;
stroke-linecap: butt;
stroke-linejoin: miter;
stroke-miterlimit: 4;
}
.g1_8{
fill: none;
stroke: #87D1F1;
stroke-width: 1.833;
stroke-linecap: butt;
stroke-linejoin: miter;
stroke-miterlimit: 4;
}
]]></style>
</defs>
<image preserveAspectRatio="none" x="-21" y="-21" width="932" height="1329" xlink:href="../1/img/1.png"/>
<path d="M56.3,626.7H439.6M469.9,482.1H853.1" class="g0_8"/>
<image preserveAspectRatio="none" x="744" y="588" width="21" height="24" xlink:href="img/2.png"/>
<image preserveAspectRatio="none" x="647" y="925" width="20" height="24" xlink:href="img/3.png"/>
<image preserveAspectRatio="none" x="102" y="38" width="706" height="53" xlink:href="img/4.png"/>
<image preserveAspectRatio="none" x="102" y="394" width="706" height="53" xlink:href="img/5.png"/>
<image preserveAspectRatio="none" x="53" y="715" width="393" height="227" xlink:href="img/6.png"/>
<image preserveAspectRatio="none" x="56" y="715" width="383" height="219" xlink:href="img/7.png"/>
<image preserveAspectRatio="none" x="267" y="768" width="144" height="159" xlink:href="img/8.png"/>
<image preserveAspectRatio="none" x="222" y="708" width="180" height="198" xlink:href="img/9.png"/>
<image preserveAspectRatio="none" x="86" y="889" width="22" height="23" xlink:href="img/10.png"/>
<image preserveAspectRatio="none" x="86" y="887" width="19" height="20" xlink:href="img/11.png"/>
<image preserveAspectRatio="none" x="75" y="907" width="23" height="22" xlink:href="img/12.png"/>
<image preserveAspectRatio="none" x="75" y="904" width="19" height="21" xlink:href="img/13.png"/>
<image preserveAspectRatio="none" x="119" y="884" width="25" height="23" xlink:href="img/14.png"/>
<image preserveAspectRatio="none" x="120" y="882" width="18" height="19" xlink:href="img/15.png"/>
<image preserveAspectRatio="none" x="76" y="878" width="22" height="23" xlink:href="img/16.png"/>
<image preserveAspectRatio="none" x="74" y="876" width="21" height="20" xlink:href="img/17.png"/>
<image preserveAspectRatio="none" x="90" y="901" width="23" height="23" xlink:href="img/18.png"/>
<image preserveAspectRatio="none" x="91" y="899" width="19" height="20" xlink:href="img/19.png"/>
<image preserveAspectRatio="none" x="356" y="738" width="23" height="21" xlink:href="img/20.png"/>
<image preserveAspectRatio="none" x="356" y="735" width="19" height="20" xlink:href="img/21.png"/>
<image preserveAspectRatio="none" x="365" y="726" width="23" height="22" xlink:href="img/22.png"/>
<image preserveAspectRatio="none" x="367" y="724" width="16" height="17" xlink:href="img/23.png"/>
<image preserveAspectRatio="none" x="376" y="787" width="24" height="21" xlink:href="img/24.png"/>
<image preserveAspectRatio="none" x="378" y="786" width="15" height="14" xlink:href="img/25.png"/>
<image preserveAspectRatio="none" x="98" y="881" width="23" height="23" xlink:href="img/26.png"/>
<image preserveAspectRatio="none" x="99" y="883" width="15" height="13" xlink:href="img/27.png"/>
<image preserveAspectRatio="none" x="470" y="587" width="62" height="145" xlink:href="img/28.png"/>
<path d="M509.9,650c-2.3,.2,-3.7,.3,-4.4,.3c-.3,0,-.5,-.3,-.8,-.9v-.1l-.2,-.3c-.7,-.3,-1.2,-.4,-1.4,-.5l-.2,-.2c-.1,-.2,-.1,-.3,-.1,-.5c-.1,-.9,0,-1.4,.3,-1.7c.5,-.5,.9,-.9,1.2,-1.2c2.5,-2.1,4.4,-3.7,5.7,-4.8l.1,-.3c0,-1.7,-.1,-3.3,-.3,-4.9c-.2,-2.6,-.7,-3.8,-1.3,-3.8c-1.1,0,-1.7,.2,-1.9,.7c-.1,.2,-.1,.9,-.1,2.1c0,2.1,0,3.4,.1,3.9l-.1,.3l-.4,.3H506c-.2,0,-.4,-.4,-.6,-1l-.3,-.3c-.2,0,-.5,0,-.7,.1c-.2,0,-.4,0,-.6,.2c-.2,.2,-.3,.3,-.5,.3c-.3,0,-.5,-.1,-.5,-.5c0,-3.2,.2,-5.3,.4,-6.3l.2,-.4h.4c.2,0,.3,.2,.4,.4l.3,.3l.4,-.1c.4,-.3,.8,-.5,1.2,-.8c.4,0,1,0,1.9,-.2c.9,-.1,1.5,-.2,2,-.2c.9,0,2.1,.1,3.4,.3l.3,.2l.1,.4c-.2,.2,-.3,.5,-.4,.6v.4c.2,.3,.4,1.2,.4,2.9c0,.3,-.1,.8,-.2,1.4c-.1,.7,-.2,1.2,-.2,1.5c0,.3,-.1,.6,-.3,.9l-.1,.2c-2.2,1.9,-3.8,3.3,-4.8,4.3l-1.4,1.1l-.2,.4c.2,2.5,.4,3.8,.5,4v.4c.2,.1,.3,.2,.5,.2l4,-.3l.3,-.2l.1,-.4c-.1,-.1,-.1,-.3,-.2,-.3c-.2,-.1,-.3,-.1,-.5,-.1l-.3,-.3c0,-.1,-.1,-.1,-.3,-.2c-.3,-1,-.4,-1.7,-.4,-2.1l.2,-.4l.3,-.2c.3,.1,.5,0,.7,-.1c.1,-.1,.3,-.2,.4,-.2c0,0,.1,0,.3,.1c.1,0,.2,0,.2,0c.1,0,.2,0,.4,-.1c.1,-.2,.3,-.2,.4,-.2c.2,0,.4,.1,.4,.4l.1,.3l.3,1.1c.2,1.3,.4,2.2,.4,2.7c0,.3,-.2,.5,-.4,.6l-.4,.2c0,.1,-1.3,.3,-3.7,.6Zm2.1,31l-.4,.2c-1.1,.8,-2.8,1.2,-5,1.2c-.9,0,-1.5,-.1,-1.8,-.2l-.1,-.4c.1,-.2,.1,-.4,.1,-.6c-.1,-.3,-.2,-.5,-.4,-.5c-.2,0,-.4,.1,-.5,.3c-.2,.2,-.3,.4,-.5,.4c-.2,0,-.4,-.2,-.5,-.4c-.5,-1.8,-.8,-3,-.8,-3.6c0,-.4,.1,-.6,.2,-.8l.3,-.2c.2,0,.3,.1,.5,.2l.3,.2l.4,-.2l.2,-.3l.4,-.1l.4,.1c.2,.9,.3,1.8,.5,2.7c.3,1.5,.6,2.3,.9,2.3h.7c.7,0,1.1,0,1.3,-.1c.4,0,.7,-1.7,.7,-5.1c0,-.3,-.1,-.7,-.2,-1.2c0,-.5,-.1,-.9,-.1,-1.1c0,-.1,0,-.2,.1,-.4v-.2l-.3,-.3c-.1,0,-.2,-.1,-.3,-.1c-.2,-.1,-.3,-.2,-.4,-.2h-.4c-.9,.2,-1.6,.3,-2.2,.3l-.4,-.2l-.1,-.4l.2,-.3l.3,-.2c1.4,0,2.7,-.4,3.9,-1.1c.1,-.1,.2,-.7,.3,-1.8v-2.1c0,-2.8,-.2,-4.2,-.8,-4.2c-.7,-.1,-1.5,0,-2.3,.3l-.4,.3c-.2,1,-.3,2,-.3,3c0,1.2,-.2,1.8,-.7,1.8c-.3,0,-.5,-.2,-.6,-.8c-.1,-.5,-.3,-.8,-.6,-.8c-.2,0,-.4,.2,-.5,.7c0,.3,0,.6,0,1l-.2,.3l-.4,.1c-.4,-.1,-.6,-1,-.6,-2.7c0,-.3,0,-.8,0,-1.4v-1.3l.1,-.3l.4,-.2c.5,.1,.8,-.1,.9,-.5c.1,-.4,.3,-.6,.5,-.6c.2,0,.4,.1,.5,.4c.2,.2,.3,.3,.5,.3c.1,0,.2,-.1,.4,-.2c.1,-.2,.3,-.2,.4,-.2c0,0,.1,0,.5,0c.9,-.2,1.9,-.3,3,-.3c1.1,0,2.5,.1,4.4,.3c.3,0,.4,.2,.4,.6c0,.2,-.1,.3,-.4,.4c-.4,.1,-.5,.2,-.5,.4v7.6c0,.3,-.2,.5,-.5,.5c-.3,0,-.5,-.1,-.5,-.4l-.3,-.3h-.3c-1.3,.6,-2,1,-2,1.3c0,.1,.4,.4,1.3,.9c1,.6,1.6,.9,1.7,1c.5,.5,.8,1.8,.9,4.1c0,.5,0,1.5,-.1,3.1l-.1,.4l-.4,.1c-.2,0,-.4,-.1,-.5,-.2h.1L512,681Zm-.3,33.8l-.2,-.4c0,.2,.1,-.2,.1,-1.2c.1,-.8,0,-1.4,0,-1.8c-.1,-.7,-.3,-1,-.5,-1c-.4,0,-.5,.5,-.5,1.3c-.1,.5,-.1,1,-.1,1.5c0,.7,-.2,1,-.6,1l-.4,-.1l-.1,-.3c.2,-2.5,.4,-5,.5,-7.4l-.2,-.4l-.4,-.1c-1.2,.3,-2.9,.5,-4.9,.6c-.4,0,-.7,0,-.8,.2l-.3,.1l-.4,-.1l-.2,-.4c-.3,-3.1,-.5,-5.5,-.5,-7.1c0,-2.9,.3,-4.3,.8,-4.2c.3,.1,.5,.2,.6,.3l.7,-.3l.4,.2l.1,.3c.4,4.2,.7,7.4,1.1,9.4l.1,.3l.3,.1c1.7,-.1,2.8,-.3,3.3,-.5c.3,-.2,.4,-1.9,.4,-5.3v-3.4c.1,-.5,.2,-.7,.5,-.8c.2,0,.3,-.1,.5,-.3c.1,-.2,.2,-.3,.4,-.3c.2,0,.4,.1,.4,.3c.2,.1,.3,.2,.4,.2h.5l.4,.1l.1,.4v1.8c0,1.7,0,4.1,-.1,7.4c-.1,3.4,-.1,5.8,-.1,7.5c-.1,.2,-.2,.4,-.3,.6c0,.3,-.1,.5,-.1,.5c0,1,-.2,1.5,-.6,1.5l.1,-.1l-.4,-.1Z" class="g1_8"/>
<image preserveAspectRatio="none" x="480" y="579" width="39" height="40" xlink:href="img/29.png"/>
<image preserveAspectRatio="none" x="478" y="574" width="38" height="41" xlink:href="img/30.png"/>
<image preserveAspectRatio="none" x="470" y="895" width="62" height="151" xlink:href="img/31.png"/>
<path d="M505.3,950l.2,-.3l.4,-.1c.2,0,.3,.1,.4,.1c.1,0,.3,-.1,.4,-.3c.1,-.2,.2,-.2,.4,-.2c.1,0,.3,0,.4,.2c.2,.2,.3,.3,.5,.3c.5,0,1.3,-.2,2.5,-.4c1.1,-.3,2,-.5,2.5,-.5c.3,0,.5,.2,.5,.5c0,.1,-.1,.3,-.2,.4l-.1,.4c.6,2.9,.9,4.6,.9,5.1c0,.3,-.2,.5,-.5,.5c0,0,-.2,0,-.4,0c-.1,-.1,-.2,0,-.3,0c0,.1,-.1,.2,-.2,.4l-.3,.2H512l-.2,-.3c-.1,-.2,-.2,-.3,-.5,-.3c-.1,0,-.2,0,-.3,.1c-.2,.2,-.3,.2,-.4,.3l-.4,-.2l-.2,-.4v-4.7l-.1,-.3l-.4,-.1c-.8,.1,-1.4,.3,-1.8,.5c-.2,.1,-.5,1.2,-.7,3.4c-.1,1.6,-.2,2.9,-.2,4l.1,.3l.4,.1c1.9,-.3,3.5,-.5,4.9,-.6h1c.9,0,1.3,.3,1.3,1c0,.3,-.1,.6,-.4,.8c-.2,.2,-.3,.4,-.3,.5c0,.3,0,.8,.2,1.6c.1,.7,.2,1.3,.2,1.7v1.1c0,.6,0,.9,0,1.1c0,2.6,-.3,3.9,-.8,3.9c-.1,0,-.2,0,-.4,0c-.1,0,-.3,0,-.4,-.1c0,0,-.2,0,-.5,0c-.6,.2,-1.3,.3,-2.2,.3c-.6,0,-1.5,0,-2.7,-.2c-.1,0,-.2,0,-.3,.1c-.2,.1,-.3,.1,-.3,.1c-.2,0,-.4,0,-.5,-.2l-.3,-.1c-.6,0,-.9,-.2,-.9,-.5c0,-.4,-.1,-.6,-.3,-.7c-.1,0,-.4,-.1,-.8,-.2c-.1,-.5,-.2,-1.1,-.2,-1.8v-2.1l.2,-.4l.3,-.1l.4,.1l.1,.4c0,.5,.2,.7,.5,.7c.2,0,.4,-.2,.5,-.5c.1,-.3,.2,-.5,.5,-.5l.3,.1l.2,.4c0,2.7,.2,4.1,.6,4.1c1,.2,1.9,.3,2.5,.2l.4,.1l.3,-.2c.1,-.2,.1,-.3,.1,-.4c0,-3.7,-.3,-6.6,-.8,-8.7c-.1,-.2,-.3,-.3,-.4,-.3c-.6,0,-1.3,.1,-2.2,.4c-.1,.1,-.2,.3,-.4,.5c-.1,.3,-.2,.4,-.5,.4c-.3,-.2,-.5,-.3,-.6,-.3c-.1,0,-.5,.2,-1,.6h-.4l-.3,-.3v-.1q0,-.1,0,-.1l-.1,-.4c-.4,-4.5,-.6,-7.2,-.6,-8.1v-1.7l.1,-.3l.4,-.2l.4,.2l.1,.3c0,.5,.2,.8,.4,.8c.1,0,.3,0,.4,-.1l.2,-.4v-.1l.1,-.5Zm5.9,49.6c0,-5.3,-.4,-8,-1.1,-8c-.5,0,-1.2,.1,-2.2,.4c-1.1,.3,-1.6,.7,-1.6,1c0,1.8,.3,3.5,.8,5.3c0,.1,.2,.5,.6,1.1c.3,.6,.5,1,.5,1.2l.1,.4l.4,.1c.8,-.2,1.6,-.4,2.3,-.9l.2,-.4v-.2Zm1.2,1.1c0,0,-.6,.2,-1.8,.7c-1.3,.6,-2.5,.8,-3.4,.8c-1.7,0,-2.6,-.3,-2.6,-.8c0,0,0,-.1,.1,-.3c0,-.1,0,-.2,0,-.2c-1.2,-4.5,-1.9,-9.1,-1.9,-13.7c0,-3.2,.2,-5,.5,-5.4c.4,0,.6,0,.8,.2h.4l.3,-.4l.2,-.4c.5,0,.8,.2,.9,.4l.5,.1l.1,-.1l.3,-.2c0,-.2,.2,-.3,.5,-.3c.1,0,.2,.1,.3,.1l.3,.1c2,-.4,3.1,-.7,3.4,-.8l.4,.2c.7,.9,1.1,1.7,1.4,2.4c.1,.6,.4,1.4,.7,2.7l-.1,.4l-.4,.2h-.1c-.1,0,-.2,0,-.3,-.2l-.3,-.1l-.3,.1l-.4,.2c-.4,-.1,-.5,-.2,-.5,-.2c-.3,0,-.5,.2,-.5,.6l-.1,.4l-.4,.2c-.2,-.1,-.4,-.3,-.4,-.5c0,-.3,-.2,-1,-.5,-2.3c-.4,-1.2,-.7,-2,-.9,-2.2l-.4,-.1l-.5,.1l-.3,.3c-.8,2.4,-1.3,5.1,-1.3,7.9l.1,.3l.2,.4h.4c1.7,-.7,4.2,-1,7.4,-1c.4,0,.6,.1,.6,.4c0,.3,0,.5,.2,.7c.2,.1,.2,.3,.2,.4c0,3.2,-.5,6.2,-1.7,8.9l-.2,.2h-.4c-.2,-.1,-.3,-.2,-.5,-.2Zm2.7,14.8c0,.2,0,.4,0,.5c0,.5,-.8,3.1,-2.4,8c-1.7,5,-2.7,8.2,-2.9,9.5l-.2,.4l-.3,.1c-.4,-.3,-.7,-.4,-.7,-.4c-.4,0,-.5,.2,-.5,.6c-.1,.1,-.2,.2,-.4,.4c-.4,-.2,-.6,-.3,-.8,-.5c0,-1.2,.2,-2.7,.4,-4.3c.1,-.6,.3,-2.1,.7,-4.4c.2,-.9,.6,-2.5,1.3,-4.9c.5,-2,.9,-3.6,.9,-4.9v-.3l-.4,-.2c-.8,0,-1.4,0,-1.6,0c-1.8,0,-2.6,.2,-2.6,.6c0,.1,0,.2,.1,.3l.2,.4c0,1.6,0,2.1,0,1.3c0,.7,-.2,1,-.5,1l-.4,-.1c-.1,-.1,-.2,-.2,-.3,-.2c-.1,0,-.2,0,-.2,0l-.3,.4c0,.2,-.2,.3,-.4,.3c-1,0,-1.5,-.9,-1.5,-2.7c0,-.8,.1,-1.3,.5,-1.3c1.9,-.7,3.6,-1.1,5.1,-1.1c2.1,0,3,.1,2.8,.1c1.7,.1,2.9,.2,3.8,.3c.3,0,.5,.2,.5,.5c0,.2,0,.4,.1,.6Z" class="g1_8"/>
<image preserveAspectRatio="none" x="480" y="894" width="39" height="39" xlink:href="img/32.png"/>
<image preserveAspectRatio="none" x="478" y="889" width="38" height="41" xlink:href="img/33.png"/>
<image preserveAspectRatio="none" x="176" y="1011" width="211" height="187" xlink:href="img/34.png"/>
<image preserveAspectRatio="none" x="144" y="1005" width="243" height="225" xlink:href="img/35.png"/>
<image preserveAspectRatio="none" x="115" y="1011" width="210" height="187" xlink:href="img/36.png"/>
<image preserveAspectRatio="none" x="108" y="1005" width="244" height="225" xlink:href="img/37.png"/>
<image preserveAspectRatio="none" x="180" y="1063" width="139" height="139" xlink:href="img/38.png"/>
<image preserveAspectRatio="none" x="182" y="1064" width="131" height="130" xlink:href="img/39.png"/>
<image preserveAspectRatio="none" x="477" y="767" width="372" height="94" xlink:href="img/40.png"/>
<image preserveAspectRatio="none" x="478" y="766" width="367" height="88" xlink:href="img/41.png"/>
<image preserveAspectRatio="none" x="477" y="1144" width="372" height="95" xlink:href="img/42.png"/>
<image preserveAspectRatio="none" x="478" y="1143" width="367" height="89" xlink:href="img/43.png"/>
<image preserveAspectRatio="none" x="596" y="781" width="133" height="64" xlink:href="img/44.png"/>
<image preserveAspectRatio="none" x="599" y="782" width="125" height="57" xlink:href="img/45.png"/>
<image preserveAspectRatio="none" x="703" y="794" width="43" height="40" xlink:href="img/46.png"/>
<image preserveAspectRatio="none" x="700" y="787" width="45" height="47" xlink:href="img/47.png"/>
<image preserveAspectRatio="none" x="733" y="774" width="43" height="42" xlink:href="img/48.png"/>
<image preserveAspectRatio="none" x="729" y="768" width="46" height="47" xlink:href="img/49.png"/>
<image preserveAspectRatio="none" x="596" y="1158" width="133" height="64" xlink:href="img/50.png"/>
<image preserveAspectRatio="none" x="599" y="1159" width="125" height="57" xlink:href="img/51.png"/>
<image preserveAspectRatio="none" x="703" y="1172" width="43" height="39" xlink:href="img/52.png"/>
<image preserveAspectRatio="none" x="700" y="1164" width="46" height="48" xlink:href="img/53.png"/>
<image preserveAspectRatio="none" x="730" y="1149" width="43" height="41" xlink:href="img/54.png"/>
<image preserveAspectRatio="none" x="727" y="1142" width="46" height="47" xlink:href="img/55.png"/>
<image preserveAspectRatio="none" x="768" y="1164" width="42" height="43" xlink:href="img/56.png"/>
<image preserveAspectRatio="none" x="764" y="1159" width="47" height="46" xlink:href="img/57.png"/>
<image preserveAspectRatio="none" x="738" y="1187" width="40" height="46" xlink:href="img/58.png"/>
<image preserveAspectRatio="none" x="739" y="1187" width="33" height="37" xlink:href="img/59.png"/>
<image preserveAspectRatio="none" x="674" y="1150" width="39" height="41" xlink:href="img/60.png"/>
<image preserveAspectRatio="none" x="668" y="1143" width="48" height="46" xlink:href="img/61.png"/>
</svg>