<?xml version="1.0" encoding="UTF-8" standalone="no"?>
<!DOCTYPE svg PUBLIC "-//W3C//DTD SVG 1.1//EN"
"http://www.w3.org/Graphics/SVG/1.1/DTD/svg11.dtd">
<svg viewBox="0 0 909 1286" version="1.1" xmlns="http://www.w3.org/2000/svg" xmlns:xlink="http://www.w3.org/1999/xlink">
<defs>
<clipPath id="c0_4"><path d="M213.2,524.9c-2.5,0,-3.9,-2.4,-3.9,-2.4L192.7,493.8L172.6,459l-4.9,-8.5l-.9,-1.7c-2.3,-3.9,1.6,-6.2,1.6,-6.2l7.8,-4.5l10.9,-6.3L215,415.7c.9,-.5,1.7,-.7,2.4,-.7c2.4,0,3.8,2.4,3.8,2.4l13.6,23.5l16.8,29.2l12.2,21c2.2,4,-1.7,6.2,-1.7,6.2l-46.5,26.9c-.9,.5,-1.7,.7,-2.4,.7Z"/></clipPath>
<clipPath id="c1_4"><path d="M221.7,509.4c-4.5,0,-4.5,-4.4,-4.5,-4.6V419.7c0,-4.6,4.5,-4.6,4.5,-4.6h53.7c4.6,0,4.6,4.6,4.6,4.6v85.1c0,4.6,-4.6,4.6,-4.6,4.6Z"/></clipPath>
<clipPath id="c2_4"><path d="M284.2,524.9c-1.5,0,-2.6,-.7,-2.6,-.7L235.1,497.4c-3.8,-2.2,-1.8,-6,-1.7,-6.3l26.9,-46.5L276,417.5c1,-1.9,2.5,-2.4,3.7,-2.4c1.3,0,2.4,.6,2.5,.7l5,2.9l30.7,17.7l11,6.3c3.6,2.2,1.7,5.8,1.5,6.2l-42.6,73.8c-1,1.7,-2.4,2.2,-3.6,2.2Z"/></clipPath>
<clipPath id="c3_4"><path d="M283.7,546.4c-2.5,0,-3.9,-2.3,-3.9,-2.3L253,497.5c-2.3,-3.9,1.7,-6.2,1.7,-6.2L318,454.7l3.5,-2l6.6,-3.8l.3,-.2c.9,-.5,1.6,-.7,2.3,-.7c2.5,0,3.9,2.4,3.9,2.4L348,473.7L361.5,497c2.2,3.9,-1.7,6.2,-1.7,6.2l-27.1,15.6l-20.6,11.9L286,545.8c-.9,.5,-1.6,.6,-2.3,.6Z"/></clipPath>
<style type="text/css"><![CDATA[
.g0_4{
fill: none;
stroke: #000000;
stroke-width: 0.916;
stroke-linecap: butt;
stroke-linejoin: miter;
stroke-miterlimit: 4;
}
.g1_4{
}
.g2_4{
fill: none;
stroke: #FFFFFF;
stroke-width: 1.237;
stroke-linecap: butt;
stroke-linejoin: miter;
stroke-miterlimit: 4;
}
.g3_4{
fill: none;
stroke: #FFFFFF;
stroke-width: 1.375;
stroke-linecap: butt;
stroke-linejoin: miter;
stroke-miterlimit: 4;
}
.g4_4{
fill: #FFFFFF;
}
]]></style>
</defs>
<image preserveAspectRatio="none" x="-21" y="-21" width="932" height="1329" xlink:href="../1/img/1.webp"/>
<image preserveAspectRatio="none" x="273" y="1131" width="29" height="25" xlink:href="img/2.webp"/>
<image preserveAspectRatio="none" x="301" y="1187" width="15" height="24" xlink:href="img/3.webp"/>
<image preserveAspectRatio="none" x="807" y="988" width="29" height="21" xlink:href="img/4.webp"/>
<path d="M56.3,75.5H439.6" class="g0_4"/>
<image preserveAspectRatio="none" x="55" y="85" width="391" height="233" xlink:href="img/5.webp"/>
<image preserveAspectRatio="none" x="58" y="86" width="382" height="224" xlink:href="img/6.webp"/>
<path d="M56.3,403.6H439.6M469.9,75.5H853.1" class="g0_4"/>
<path d="M68.3,1023c6.6,0,11.9,-5.4,11.9,-12c0,-6.6,-5.3,-11.9,-11.9,-11.9c-6.6,0,-12,5.3,-12,11.9c0,6.6,5.4,12,12,12Z" class="g1_4"/>
<path d="M68.3,1050.1c6.6,0,11.9,-5.3,11.9,-11.9c0,-6.6,-5.3,-12,-11.9,-12c-6.6,0,-12,5.4,-12,12c0,6.6,5.4,11.9,12,11.9Z" class="g1_4"/>
<path d="M68.3,1077.3c6.6,0,11.9,-5.4,11.9,-12c0,-6.6,-5.3,-11.9,-11.9,-11.9c-6.6,0,-12,5.3,-12,11.9c0,6.6,5.4,12,12,12Z" class="g1_4"/>
<path d="M68.3,1104.4c6.6,0,11.9,-5.3,11.9,-11.9c0,-6.6,-5.3,-12,-11.9,-12c-6.6,0,-12,5.4,-12,12c0,6.6,5.4,11.9,12,11.9Z" class="g1_4"/>
<path d="M68.3,1130.5c6.6,0,11.9,-5.4,11.9,-12c0,-6.6,-5.3,-11.9,-11.9,-11.9c-6.6,0,-12,5.3,-12,11.9c0,6.6,5.4,12,12,12Z" class="g1_4"/>
<path d="M68.3,1158.5c6.6,0,11.9,-5.3,11.9,-11.9c0,-6.6,-5.3,-12,-11.9,-12c-6.6,0,-12,5.4,-12,12c0,6.6,5.4,11.9,12,11.9Z" class="g1_4"/>
<image preserveAspectRatio="none" x="159" y="724" width="183" height="270" xlink:href="img/7.webp"/>
<image preserveAspectRatio="none" x="161" y="724" width="174" height="261" xlink:href="img/8.webp"/>
<path d="M306.4,746.8c6.7,0,12.1,-5.4,12.1,-12.1c0,-6.6,-5.4,-12.1,-12.1,-12.1c-6.7,0,-12.1,5.5,-12.1,12.1c0,6.7,5.4,12.1,12.1,12.1Z" class="g1_4"/>
<path d="M306.4,746.8c6.7,0,12.1,-5.4,12.1,-12.1c0,-6.6,-5.4,-12.1,-12.1,-12.1c-6.7,0,-12.1,5.5,-12.1,12.1c0,6.7,5.4,12.1,12.1,12.1Z" class="g2_4"/>
<path d="M322.2,808c6.7,0,12.1,-5.4,12.1,-12.1c0,-6.7,-5.4,-12.1,-12.1,-12.1c-6.7,0,-12.1,5.4,-12.1,12.1c0,6.7,5.4,12.1,12.1,12.1Z" class="g1_4"/>
<path d="M322.2,808c6.7,0,12.1,-5.4,12.1,-12.1c0,-6.7,-5.4,-12.1,-12.1,-12.1c-6.7,0,-12.1,5.4,-12.1,12.1c0,6.7,5.4,12.1,12.1,12.1Z" class="g2_4"/>
<path d="M250,750.9c6.7,0,12.1,-5.4,12.1,-12.1c0,-6.7,-5.4,-12.1,-12.1,-12.1c-6.7,0,-12.1,5.4,-12.1,12.1c0,6.7,5.4,12.1,12.1,12.1Z" class="g1_4"/>
<path d="M250,750.9c6.7,0,12.1,-5.4,12.1,-12.1c0,-6.7,-5.4,-12.1,-12.1,-12.1c-6.7,0,-12.1,5.4,-12.1,12.1c0,6.7,5.4,12.1,12.1,12.1Z" class="g2_4"/>
<path d="M176,740.8c6.7,0,12.1,-5.4,12.1,-12.1c0,-6.7,-5.4,-12.1,-12.1,-12.1c-6.6,0,-12.1,5.4,-12.1,12.1c0,6.7,5.5,12.1,12.1,12.1Z" class="g1_4"/>
<path d="M176,740.8c6.7,0,12.1,-5.4,12.1,-12.1c0,-6.7,-5.4,-12.1,-12.1,-12.1c-6.6,0,-12.1,5.4,-12.1,12.1c0,6.7,5.5,12.1,12.1,12.1Z" class="g2_4"/>
<path d="M221.1,790.4c6.7,0,12.1,-5.4,12.1,-12.1c0,-6.7,-5.4,-12.1,-12.1,-12.1c-6.7,0,-12.1,5.4,-12.1,12.1c0,6.7,5.4,12.1,12.1,12.1Z" class="g1_4"/>
<path d="M221.1,790.4c6.7,0,12.1,-5.4,12.1,-12.1c0,-6.7,-5.4,-12.1,-12.1,-12.1c-6.7,0,-12.1,5.4,-12.1,12.1c0,6.7,5.4,12.1,12.1,12.1Z" class="g2_4"/>
<path d="M247.9,883.7c6.7,0,12.1,-5.5,12.1,-12.2c0,-6.6,-5.4,-12.1,-12.1,-12.1c-6.7,0,-12.1,5.5,-12.1,12.1c0,6.7,5.4,12.2,12.1,12.2Z" class="g1_4"/>
<image preserveAspectRatio="none" x="564" y="447" width="203" height="300" xlink:href="img/9.webp"/>
<image preserveAspectRatio="none" x="566" y="448" width="194" height="290" xlink:href="img/10.webp"/>
<path d="M579.9,469.6c7.4,0,13.4,-6,13.4,-13.4c0,-7.4,-6,-13.5,-13.4,-13.5c-7.5,0,-13.5,6.1,-13.5,13.5c0,7.4,6,13.4,13.5,13.4Z" class="g1_4"/>
<path d="M703,533.4c7.5,0,13.5,-6,13.5,-13.5c0,-7.4,-6,-13.4,-13.5,-13.4c-7.4,0,-13.4,6,-13.4,13.4c0,7.5,6,13.5,13.4,13.5Z" class="g1_4"/>
<path d="M724.1,698.1c7.4,0,13.4,-6.1,13.4,-13.5c0,-7.4,-6,-13.4,-13.4,-13.4c-7.5,0,-13.5,6,-13.5,13.4c0,7.4,6,13.5,13.5,13.5Z" class="g1_4"/>
<path d="M724.1,698.1c7.4,0,13.4,-6.1,13.4,-13.5c0,-7.4,-6,-13.4,-13.4,-13.4c-7.5,0,-13.5,6,-13.5,13.4c0,7.4,6,13.5,13.5,13.5Z" class="g3_4"/>
<path d="M576.7,519.9c7.5,0,13.5,-6,13.5,-13.4c0,-7.4,-6,-13.5,-13.5,-13.5c-7.4,0,-13.4,6.1,-13.4,13.5c0,7.4,6,13.4,13.4,13.4Z" class="g1_4"/>
<path d="M576.7,684.6c7.5,0,13.5,-6,13.5,-13.4c0,-7.5,-6,-13.5,-13.5,-13.5c-7.4,0,-13.4,6,-13.4,13.5c0,7.4,6,13.4,13.4,13.4Z" class="g1_4"/>
<path d="M576.7,599.6c7.5,0,13.5,-6,13.5,-13.4c0,-7.4,-6,-13.4,-13.5,-13.4c-7.4,0,-13.4,6,-13.4,13.4c0,7.4,6,13.4,13.4,13.4Z" class="g1_4"/>
<path d="M481.8,791.2c6.6,0,12,-5.3,12,-11.9c0,-6.6,-5.4,-12,-12,-12c-6.6,0,-11.9,5.4,-11.9,12c0,6.6,5.3,11.9,11.9,11.9Z" class="g1_4"/>
<path d="M481.8,819.7c6.6,0,12,-5.4,12,-12c0,-6.6,-5.4,-11.9,-12,-11.9c-6.6,0,-11.9,5.3,-11.9,11.9c0,6.6,5.3,12,11.9,12Z" class="g1_4"/>
<path d="M481.8,846c6.6,0,12,-5.4,12,-12c0,-6.6,-5.4,-11.9,-12,-11.9c-6.6,0,-11.9,5.3,-11.9,11.9c0,6.6,5.3,12,11.9,12Z" class="g1_4"/>
<path d="M481.8,920.3c6.6,0,12,-5.3,12,-11.9c0,-6.6,-5.4,-12,-12,-12c-6.6,0,-11.9,5.4,-11.9,12c0,6.6,5.3,11.9,11.9,11.9Z" class="g1_4"/>
<path d="M481.8,948.6c6.6,0,12,-5.4,12,-12c0,-6.6,-5.4,-11.9,-12,-11.9c-6.6,0,-11.9,5.3,-11.9,11.9c0,6.6,5.3,12,11.9,12Z" class="g1_4"/>
<path d="M481.8,976.4c6.6,0,12,-5.3,12,-12c0,-6.6,-5.4,-11.9,-12,-11.9c-6.6,0,-11.9,5.3,-11.9,11.9c0,6.7,5.3,12,11.9,12Z" class="g1_4"/>
<path d="M481.8,1149.2c6.6,0,12,-5.4,12,-12c0,-6.6,-5.4,-11.9,-12,-11.9c-6.6,0,-11.9,5.3,-11.9,11.9c0,6.6,5.3,12,11.9,12Z" class="g1_4"/>
<path d="M641.4,753.4c6.6,0,12,-5.3,12,-11.9c0,-6.6,-5.4,-12,-12,-12c-6.6,0,-11.9,5.4,-11.9,12c0,6.6,5.3,11.9,11.9,11.9Z" class="g1_4"/>
<image preserveAspectRatio="none" x="133" y="447" width="119" height="107" xlink:href="img/11.webp"/>
<image preserveAspectRatio="none" x="133" y="447" width="113" height="101" xlink:href="img/12.webp"/>
<image preserveAspectRatio="none" x="163" y="414" width="109" height="119" xlink:href="img/13.webp"/>
<g clip-path="url(#c0_4)">
<path d="M208.6,536.9L276,498L221.4,403.4L154,442.3Z" class="g4_4"/>
</g>
<image preserveAspectRatio="none" x="154" y="403" width="122" height="134" xlink:href="img/14.webp"/>
<image preserveAspectRatio="none" x="226" y="482" width="13" height="12" xlink:href="img/15.webp"/>
<image preserveAspectRatio="none" x="233" y="478" width="12" height="13" xlink:href="img/16.webp"/>
<image preserveAspectRatio="none" x="209" y="424" width="12" height="12" xlink:href="img/17.webp"/>
<image preserveAspectRatio="none" x="185" y="427" width="27" height="27" xlink:href="img/18.webp"/>
<image preserveAspectRatio="none" x="174" y="440" width="17" height="19" xlink:href="img/19.webp"/>
<image preserveAspectRatio="none" x="215" y="414" width="72" height="104" xlink:href="img/20.webp"/>
<g clip-path="url(#c1_4)">
<path d="M209.4,516.9h77.8V407.6H209.4V516.9Z" class="g4_4"/>
</g>
<image preserveAspectRatio="none" x="210" y="408" width="77" height="109" xlink:href="img/21.webp"/>
<image preserveAspectRatio="none" x="256" y="491" width="10" height="9" xlink:href="img/22.webp"/>
<image preserveAspectRatio="none" x="264" y="491" width="9" height="9" xlink:href="img/23.webp"/>
<image preserveAspectRatio="none" x="239" y="419" width="19" height="19" xlink:href="img/24.webp"/>
<image preserveAspectRatio="none" x="225" y="420" width="10" height="17" xlink:href="img/25.webp"/>
<image preserveAspectRatio="none" x="231" y="414" width="107" height="119" xlink:href="img/26.webp"/>
<g clip-path="url(#c2_4)">
<path d="M220.6,497.7l67.4,39L342.7,442L275.3,403.1Z" class="g4_4"/>
</g>
<image preserveAspectRatio="none" x="221" y="403" width="122" height="134" xlink:href="img/27.webp"/>
<image preserveAspectRatio="none" x="283" y="495" width="12" height="13" xlink:href="img/28.webp"/>
<image preserveAspectRatio="none" x="270" y="488" width="12" height="12" xlink:href="img/29.webp"/>
<image preserveAspectRatio="none" x="276" y="491" width="13" height="13" xlink:href="img/30.webp"/>
<image preserveAspectRatio="none" x="286" y="428" width="26" height="26" xlink:href="img/31.webp"/>
<image preserveAspectRatio="none" x="310" y="443" width="12" height="13" xlink:href="img/32.webp"/>
<image preserveAspectRatio="none" x="275" y="421" width="17" height="20" xlink:href="img/33.webp"/>
<image preserveAspectRatio="none" x="251" y="447" width="119" height="107" xlink:href="img/34.webp"/>
<g clip-path="url(#c3_4)">
<path d="M240.3,490.6L279.2,558l94.6,-54.6L334.9,436Z" class="g4_4"/>
</g>
<image preserveAspectRatio="none" x="240" y="436" width="134" height="122" xlink:href="img/35.webp"/>
<image preserveAspectRatio="none" x="287" y="508" width="12" height="12" xlink:href="img/36.webp"/>
<image preserveAspectRatio="none" x="291" y="514" width="12" height="13" xlink:href="img/37.webp"/>
<image preserveAspectRatio="none" x="323" y="467" width="27" height="27" xlink:href="img/38.webp"/>
<image preserveAspectRatio="none" x="318" y="456" width="20" height="17" xlink:href="img/39.webp"/>
<image preserveAspectRatio="none" x="532" y="130" width="133" height="119" xlink:href="img/40.webp"/>
<image preserveAspectRatio="none" x="532" y="128" width="127" height="114" xlink:href="img/41.webp"/>
<image preserveAspectRatio="none" x="567" y="91" width="119" height="133" xlink:href="img/42.webp"/>
<image preserveAspectRatio="none" x="567" y="91" width="115" height="128" xlink:href="img/43.webp"/>
<image preserveAspectRatio="none" x="623" y="91" width="81" height="117" xlink:href="img/44.webp"/>
<image preserveAspectRatio="none" x="626" y="93" width="71" height="106" xlink:href="img/45.webp"/>
<image preserveAspectRatio="none" x="642" y="91" width="119" height="133" xlink:href="img/46.webp"/>
<image preserveAspectRatio="none" x="642" y="91" width="114" height="127" xlink:href="img/47.webp"/>
<image preserveAspectRatio="none" x="663" y="128" width="133" height="121" xlink:href="img/48.webp"/>
<image preserveAspectRatio="none" x="664" y="128" width="127" height="114" xlink:href="img/49.webp"/>
</svg>