<?xml version="1.0" encoding="UTF-8" standalone="no"?>
<!DOCTYPE svg PUBLIC "-//W3C//DTD SVG 1.1//EN"
"http://www.w3.org/Graphics/SVG/1.1/DTD/svg11.dtd">
<svg viewBox="0 0 907 1284" version="1.1" xmlns="http://www.w3.org/2000/svg" xmlns:xlink="http://www.w3.org/1999/xlink">
<defs>
<clipPath id="c0_6"><path d="M475.4,159.9v-84H322.5c-3.6,-1.4,-7.6,-2.1,-11.8,-2.1c-4.2,0,-8.2,.7,-11.9,2.1H278.9V95.6c-1.4,3.6,-2.1,7.6,-2.1,11.6c0,4.1,.7,8.1,2.1,11.7v41ZM260.2,177.5V86.3h-.1V47.6H173.5V177.5h.1ZM0,1284.4V0H907.6V1284.4Z"/></clipPath>
<clipPath id="c1_6"><path d="M278.9,95.6V75.9h19.9c-3.2,1.2,-6.2,2.9,-8.9,4.9h-6.1v6c-2,2.7,-3.7,5.6,-4.9,8.8Zm0,64.3v-41c1.2,3.2,2.9,6.1,4.9,8.8v5.1h5c5.9,4.9,13.5,7.9,21.9,7.9c8.3,0,15.9,-3,21.8,-7.9h3.3v-3.1c5.4,-5.9,8.8,-13.8,8.8,-22.5c0,-8.6,-3.4,-16.5,-8.8,-22.4v-4h-4.3c-2.7,-2,-5.7,-3.7,-9,-4.9H475.4v84Z"/></clipPath>
<clipPath id="c2_6"><path d="M332.5,132.8c1.2,-1,2.3,-2,3.3,-3.1v3.1Zm-48.7,0v-5.1c1.5,1.8,3.2,3.6,5,5.1Zm0,-46v-6h6.1c-2.3,1.8,-4.3,3.8,-6.1,6Zm52,-2c-1.3,-1.4,-2.8,-2.8,-4.3,-4h4.3v4Z"/></clipPath>
<clipPath id="c3_6"><path d="M288.8,132.8c-1.8,-1.5,-3.5,-3.3,-5,-5.1V86.8c1.8,-2.2,3.8,-4.2,6.1,-6h41.6c1.5,1.2,3,2.6,4.3,4v44.9c-1,1.1,-2.1,2.1,-3.3,3.1Z"/></clipPath>
<clipPath id="c4_6"><path d="M84.7,194.1L40.2,72L121.6,42.4l44.5,122.1L84.7,194.1Z"/></clipPath>
<clipPath id="c5_6"><path d="M173.5,177.5V47.6h86.6V86.3H173.6v91.2Z"/></clipPath>
<clipPath id="c6_6"><path d="M173.6,177.5v0h86.5V86.3h.1v91.2Z"/></clipPath>
<clipPath id="c7_6"><path d="M173.6,177.5V86.3h86.5v91.2Z"/></clipPath>
<clipPath id="c8_6"><path d="M0,1284.4V0H907.6V1284.4Z"/></clipPath>
<style type="text/css"><![CDATA[
.g0_6{
fill: #FFFFFF;
}
.g1_6{
fill: none;
stroke: #FFFFFF;
stroke-width: 7.638;
stroke-linecap: butt;
stroke-linejoin: miter;
stroke-miterlimit: 4;
}
.g2_6{
fill: none;
stroke: #FFFFFF;
stroke-width: 1.909;
stroke-linecap: butt;
stroke-linejoin: miter;
}
.g3_6{
fill: none;
stroke: #000000;
stroke-width: 0.381;
stroke-linecap: butt;
stroke-linejoin: miter;
}
]]></style>
</defs>
<image clip-path="url(#c0_6)" preserveAspectRatio="none" x="0" y="-22" width="930" height="1329" xlink:href="img/1.jpg"/>
<image clip-path="url(#c1_6)" preserveAspectRatio="none" x="279" y="76" width="197" height="84" xlink:href="img/2.jpg"/>
<path d="M310.7,140.7c18.7,0,33.9,-15,33.9,-33.5c0,-18.4,-15.2,-33.4,-33.9,-33.4c-18.7,0,-33.9,15,-33.9,33.4c0,18.5,15.2,33.5,33.9,33.5Z" class="g0_6"/>
<path d="M341.9,104.8l98.8,-5.1" class="g1_6"/>
<path d="M457.9,98.8L427.6,89.5l1.2,21.6Z" class="g0_6"/>
<image clip-path="url(#c2_6)" preserveAspectRatio="none" x="284" y="81" width="52" height="52" xlink:href="img/3.jpg"/>
<image clip-path="url(#c3_6)" preserveAspectRatio="none" x="284" y="81" width="52" height="52" xlink:href="img/4.jpg"/>
<image clip-path="url(#c4_6)" preserveAspectRatio="none" x="40" y="42" width="126" height="152" xlink:href="img/5.png"/>
<image clip-path="url(#c5_6)" preserveAspectRatio="none" x="174" y="48" width="86" height="129" xlink:href="img/6.jpg"/>
<image clip-path="url(#c6_6)" preserveAspectRatio="none" x="173" y="86" width="87" height="92" xlink:href="img/7.jpg"/>
<image clip-path="url(#c7_6)" preserveAspectRatio="none" x="173" y="86" width="87" height="92" xlink:href="img/8.jpg"/>
<g clip-path="url(#c8_6)">
<path d="M-10,-.8H-32.9m950.6,0h22.9M-10,1285.3H-32.9m950.6,0h22.9M-.8,-10V-32.9m0,1327.4v22.9M908.5,-10V-32.9m0,1327.4v22.9" class="g2_6"/>
<path d="M-10,-.8H-32.9m950.6,0h22.9M-10,1285.3H-32.9m950.6,0h22.9M-.8,-10V-32.9m0,1327.4v22.9M908.5,-10V-32.9m0,1327.4v22.9" class="g3_6"/>
</g>
</svg>