<?xml version="1.0" encoding="UTF-8" standalone="no"?>
<!DOCTYPE svg PUBLIC "-//W3C//DTD SVG 1.1//EN"
"http://www.w3.org/Graphics/SVG/1.1/DTD/svg11.dtd">
<svg viewBox="0 0 909 1286" version="1.1" xmlns="http://www.w3.org/2000/svg" xmlns:xlink="http://www.w3.org/1999/xlink">
<defs>
<clipPath id="c0_10"><path d="M0,322.1V.1H428.3v322Z"/></clipPath>
<clipPath id="c1_10"><path d="M427.4,322.1V.1H856.5v322Z"/></clipPath>
<clipPath id="c2_10"><path d="M855.6,1286.2V.1H909V1286.2Z"/></clipPath>
<clipPath id="c3_10"><path d="M0,643.8V321.1H428.3V643.8Z"/></clipPath>
<clipPath id="c4_10"><path d="M427.5,643.7V321.2H856.4V643.7Z"/></clipPath>
<clipPath id="c5_10"><path d="M0,965.2V642.9H428.3V965.2Z"/></clipPath>
<clipPath id="c6_10"><path d="M427.5,965V643H856.4V965Z"/></clipPath>
<clipPath id="c7_10"><path d="M0,1286.2V964.3H428.3v321.9Z"/></clipPath>
<clipPath id="c8_10"><path d="M427.4,1286.2V964.3H856.5v321.9Z"/></clipPath>
</defs>
<image clip-path="url(#c0_10)" preserveAspectRatio="none" x="0" y="0" width="428" height="322" xlink:href="img/1.webp"/>
<image clip-path="url(#c1_10)" preserveAspectRatio="none" x="427" y="0" width="430" height="322" xlink:href="img/2.webp"/>
<image clip-path="url(#c2_10)" preserveAspectRatio="none" x="856" y="0" width="54" height="1287" xlink:href="img/3.webp"/>
<image clip-path="url(#c3_10)" preserveAspectRatio="none" x="0" y="321" width="428" height="323" xlink:href="img/4.webp"/>
<image clip-path="url(#c4_10)" preserveAspectRatio="none" x="427" y="321" width="430" height="323" xlink:href="img/5.webp"/>
<image clip-path="url(#c5_10)" preserveAspectRatio="none" x="0" y="643" width="428" height="322" xlink:href="img/6.webp"/>
<image clip-path="url(#c6_10)" preserveAspectRatio="none" x="427" y="643" width="430" height="322" xlink:href="img/7.webp"/>
<image clip-path="url(#c7_10)" preserveAspectRatio="none" x="0" y="964" width="428" height="323" xlink:href="img/8.webp"/>
<image clip-path="url(#c8_10)" preserveAspectRatio="none" x="427" y="964" width="430" height="323" xlink:href="img/9.webp"/>
</svg>