<?xml version="1.0" encoding="UTF-8" standalone="no"?>
<!DOCTYPE svg PUBLIC "-//W3C//DTD SVG 1.1//EN"
"http://www.w3.org/Graphics/SVG/1.1/DTD/svg11.dtd">
<svg viewBox="0 0 907 1284" version="1.1" xmlns="http://www.w3.org/2000/svg" xmlns:xlink="http://www.w3.org/1999/xlink">
<defs>
<clipPath id="c0_3"><path d="M808.3,634.3V581.9H102.4v52.4Zm0,-195V386.9H102.4v52.4Zm40.5,-75.4V137.3H63.4V363.9ZM1.5,1285.9V1.4H909.2V1285.9H837.5V799.3H127.3v486.6Z"/></clipPath>
<clipPath id="c1_3"><path d="M907.6,0V0h.1Z"/></clipPath>
<clipPath id="c2_3"><path d="M61.9,181.3V135.9H847.3v45.4h-5.5V138.7H64.5v42.6Z"/></clipPath>
<clipPath id="c3_3"><path d="M61.9,362.5V180.6h2.6V357.1h49.8v5.4Z"/></clipPath>
<clipPath id="c4_3"><path d="M794.8,362.5v-5.4h47V180.6h5.5V362.5Z"/></clipPath>
<clipPath id="c5_3"><path d="M113.5,362.5v-5.4h682v5.4Z"/></clipPath>
<clipPath id="c6_3"><path d="M64.5,357.1V138.7H427.4V357.1Z"/></clipPath>
<clipPath id="c7_3"><path d="M426.8,357.1V138.7H790.7V357.1Z"/></clipPath>
<clipPath id="c8_3"><path d="M790.1,357.1V138.7h51.7V357.1Z"/></clipPath>
<clipPath id="c9_3"><path d="M100.9,437.8V385.4H806.8v52.4Z"/></clipPath>
<clipPath id="ca_3"><path d="M100.9,632.8V580.4H806.8v52.4Z"/></clipPath>
<clipPath id="cb_3"><path d="M471.1,932.7V859H622.3v73.7Z"/></clipPath>
<clipPath id="cc_3"><path d="M128.8,1033.5v-59H319.9v59Z"/></clipPath>
<clipPath id="cd_3"><path d="M471,1034V933H717v101Z"/></clipPath>
<clipPath id="ce_3"><path d="M127.5,1134.6v-101H320.4v101Z"/></clipPath>
<clipPath id="cf_3"><path d="M320.1,1134.6v-101H471.6v101Z"/></clipPath>
<clipPath id="cg_3"><path d="M53.3,1280.8V96.5H890V1280.8Z"/></clipPath>
<clipPath id="ch_3"><path d="M622.5,1134.6v-101H773.9v101Z"/></clipPath>
<clipPath id="ci_3"><path d="M130.5,1235.4V1134.3H320.4v101.1Z"/></clipPath>
<clipPath id="cj_3"><path d="M320.1,1235.4V1134.3H471.6v101.1Z"/></clipPath>
<clipPath id="ck_3"><path d="M622.5,1235.4V1134.3H773.9v101.1Z"/></clipPath>
<clipPath id="cl_3"><path d="M773.8,1287.7V1167h63.4v120.7Z"/></clipPath>
<clipPath id="cm_3"><path d="M124.6,1283v-54.9H522V1283Z"/></clipPath>
<clipPath id="cn_3"><path d="M521.6,1283v-54.8H773.9V1283Z"/></clipPath>
<clipPath id="co_3"><path d="M0,1284.4V0H907.6V1284.4Z"/></clipPath>
<style type="text/css"><![CDATA[
.g0_3{
fill: none;
stroke: #5F0F13;
stroke-width: 1.527;
stroke-linecap: butt;
stroke-linejoin: miter;
}
.g1_3{
fill: none;
stroke: #FFFFFF;
stroke-width: 1.909;
stroke-linecap: butt;
stroke-linejoin: miter;
}
.g2_3{
fill: none;
stroke: #000000;
stroke-width: 0.381;
stroke-linecap: butt;
stroke-linejoin: miter;
}
]]></style>
</defs>
<image clip-path="url(#c0_3)" preserveAspectRatio="none" x="0" y="-20" width="932" height="1328" xlink:href="img/1.jpg"/>
<image clip-path="url(#c1_3)" preserveAspectRatio="none" x="907" y="-22" width="933" height="1329" xlink:href="img/2.jpg"/>
<image clip-path="url(#c2_3)" preserveAspectRatio="none" x="61" y="135" width="787" height="46" xlink:href="img/3.jpg"/>
<image clip-path="url(#c3_3)" preserveAspectRatio="none" x="61" y="181" width="53" height="182" xlink:href="img/4.jpg"/>
<image clip-path="url(#c4_3)" preserveAspectRatio="none" x="795" y="181" width="53" height="182" xlink:href="img/5.jpg"/>
<image clip-path="url(#c5_3)" preserveAspectRatio="none" x="114" y="317" width="682" height="46" xlink:href="img/6.jpg"/>
<image clip-path="url(#c6_3)" preserveAspectRatio="none" x="64" y="138" width="363" height="220" xlink:href="img/7.jpg"/>
<image clip-path="url(#c7_3)" preserveAspectRatio="none" x="427" y="138" width="364" height="220" xlink:href="img/8.jpg"/>
<image clip-path="url(#c8_3)" preserveAspectRatio="none" x="790" y="138" width="52" height="220" xlink:href="img/9.jpg"/>
<image clip-path="url(#c9_3)" preserveAspectRatio="none" x="101" y="385" width="706" height="53" xlink:href="img/10.jpg"/>
<image clip-path="url(#ca_3)" preserveAspectRatio="none" x="101" y="580" width="706" height="53" xlink:href="img/11.jpg"/>
<image clip-path="url(#cb_3)" preserveAspectRatio="none" x="471" y="832" width="152" height="101" xlink:href="img/12.jpg"/>
<image preserveAspectRatio="none" x="622" y="832" width="152" height="101" xlink:href="img/13.jpg"/>
<image preserveAspectRatio="none" x="773" y="832" width="62" height="353" xlink:href="img/14.jpg"/>
<image clip-path="url(#cc_3)" preserveAspectRatio="none" x="129" y="933" width="191" height="101" xlink:href="img/15.jpg"/>
<g clip-path="url(#cd_3)">
<image preserveAspectRatio="none" x="471" y="933" width="152" height="101" xlink:href="img/16.jpg"/>
<image preserveAspectRatio="none" x="622" y="933" width="152" height="101" xlink:href="img/17.jpg"/>
</g>
<image clip-path="url(#ce_3)" preserveAspectRatio="none" x="127" y="1034" width="193" height="101" xlink:href="img/18.jpg"/>
<image clip-path="url(#cf_3)" preserveAspectRatio="none" x="320" y="1034" width="151" height="101" xlink:href="img/19.jpg"/>
<image clip-path="url(#cg_3)" preserveAspectRatio="none" x="471" y="1034" width="152" height="101" xlink:href="img/20.jpg"/>
<image clip-path="url(#ch_3)" preserveAspectRatio="none" x="622" y="1034" width="152" height="101" xlink:href="img/21.jpg"/>
<image clip-path="url(#ci_3)" preserveAspectRatio="none" x="130" y="1134" width="190" height="101" xlink:href="img/22.jpg"/>
<image clip-path="url(#cj_3)" preserveAspectRatio="none" x="320" y="1134" width="151" height="101" xlink:href="img/23.jpg"/>
<image clip-path="url(#cg_3)" preserveAspectRatio="none" x="471" y="1134" width="152" height="101" xlink:href="img/24.jpg"/>
<image clip-path="url(#ck_3)" preserveAspectRatio="none" x="622" y="1134" width="152" height="101" xlink:href="img/25.jpg"/>
<image clip-path="url(#cl_3)" preserveAspectRatio="none" x="773" y="1167" width="64" height="127" xlink:href="img/26.jpg"/>
<image clip-path="url(#cm_3)" preserveAspectRatio="none" x="124" y="1228" width="398" height="61" xlink:href="img/27.jpg"/>
<image clip-path="url(#cn_3)" preserveAspectRatio="none" x="521" y="1228" width="253" height="61" xlink:href="img/28.jpg"/>
<path d="M77,100.7H830.6" class="g0_3"/>
<g clip-path="url(#co_3)">
<path d="M-10,-.8H-32.9m950.6,0h22.9M-10,1285.3H-32.9m950.6,0h22.9M-.8,-10V-32.9m0,1327.4v22.9M908.5,-10V-32.9m0,1327.4v22.9" class="g1_3"/>
<path d="M-10,-.8H-32.9m950.6,0h22.9M-10,1285.3H-32.9m950.6,0h22.9M-.8,-10V-32.9m0,1327.4v22.9M908.5,-10V-32.9m0,1327.4v22.9" class="g2_3"/>
</g>
</svg>