<?xml version="1.0" encoding="UTF-8" standalone="no"?>
<!DOCTYPE svg PUBLIC "-//W3C//DTD SVG 1.1//EN"
"http://www.w3.org/Graphics/SVG/1.1/DTD/svg11.dtd">
<svg viewBox="0 0 909 1286" version="1.1" xmlns="http://www.w3.org/2000/svg" xmlns:xlink="http://www.w3.org/1999/xlink">
<defs>
<clipPath id="c0_7"><path d="M0,321.9V.1H428.1V321.9Z"/></clipPath>
<clipPath id="c1_7"><path d="M427.2,321.9V.1H856.7V321.9Z"/></clipPath>
<clipPath id="c2_7"><path d="M855.8,1286.2V.1H909V1286.2Z"/></clipPath>
<clipPath id="c3_7"><path d="M0,643.6V321H428.1V643.6Z"/></clipPath>
<clipPath id="c4_7"><path d="M427.3,643.5V321H856.6V643.5Z"/></clipPath>
<clipPath id="c5_7"><path d="M0,965.4V642.7H428.1V965.4Z"/></clipPath>
<clipPath id="c6_7"><path d="M427.3,965.2V642.8H856.6V965.2Z"/></clipPath>
<clipPath id="c7_7"><path d="M0,1286.2V964.5H428.1v321.7Z"/></clipPath>
<clipPath id="c8_7"><path d="M427.2,1286.2V964.5H856.7v321.7Z"/></clipPath>
<clipPath id="c9_7"><path d="M36.7,119.5V89.7h148v29.8Z"/></clipPath>
<clipPath id="ca_7"><path d="M21.4,278V203.3H402.2V278Z"/></clipPath>
<clipPath id="cb_7"><path d="M402.9,264.9V206.6h39.7v58.3Z"/></clipPath>
<clipPath id="cc_7"><path d="M553.8,337.1V291.9H723.6v45.2Z"/></clipPath>
<clipPath id="cd_7"><path d="M36.7,368.8V338.9h148v29.9Z"/></clipPath>
<clipPath id="ce_7"><path d="M141.7,407V378.2H236V407Z"/></clipPath>
<clipPath id="cf_7"><path d="M31.3,495.6V385.9H140.9V495.6Z"/></clipPath>
<clipPath id="cg_7"><path d="M443.4,426.7V396.8H590.2v29.9Z"/></clipPath>
<clipPath id="ch_7"><path d="M427,739.3V663.5H808.8v75.8Z"/></clipPath>
<clipPath id="ci_7"><path d="M809.6,725.1V672.3h39.7v52.8Z"/></clipPath>
<clipPath id="cj_7"><path d="M443.4,830.1V800.2H590.2v29.9Z"/></clipPath>
<clipPath id="ck_7"><path d="M549.4,951.4V906.2H723.6v45.2Z"/></clipPath>
<clipPath id="cl_7"><path d="M443.4,1021.3V991.5H590.2v29.8Z"/></clipPath>
<clipPath id="cm_7"><path d="M21.4,1123v-75.8H402.2V1123Z"/></clipPath>
<clipPath id="cn_7"><path d="M402.9,1109.9v-58.3h39.7v58.3Z"/></clipPath>
<clipPath id="co_7"><path d="M36.7,1213.7v-29.9h148v29.9Z"/></clipPath>
<clipPath id="cp_7"><path d="M374.5,1248.7v-44.1H494v44.1Z"/></clipPath>
</defs>
<image clip-path="url(#c0_7)" preserveAspectRatio="none" x="0" y="0" width="428" height="322" xlink:href="img/1.webp"/>
<image clip-path="url(#c1_7)" preserveAspectRatio="none" x="427" y="0" width="430" height="322" xlink:href="img/2.webp"/>
<image clip-path="url(#c2_7)" preserveAspectRatio="none" x="856" y="0" width="54" height="1287" xlink:href="img/3.webp"/>
<image clip-path="url(#c3_7)" preserveAspectRatio="none" x="0" y="321" width="428" height="323" xlink:href="img/4.webp"/>
<image clip-path="url(#c4_7)" preserveAspectRatio="none" x="427" y="321" width="430" height="323" xlink:href="img/5.webp"/>
<image clip-path="url(#c5_7)" preserveAspectRatio="none" x="0" y="643" width="428" height="322" xlink:href="img/6.webp"/>
<image clip-path="url(#c6_7)" preserveAspectRatio="none" x="427" y="643" width="430" height="322" xlink:href="img/7.webp"/>
<image clip-path="url(#c7_7)" preserveAspectRatio="none" x="0" y="964" width="428" height="323" xlink:href="img/8.webp"/>
<image clip-path="url(#c8_7)" preserveAspectRatio="none" x="427" y="964" width="430" height="323" xlink:href="img/9.webp"/>
<image clip-path="url(#c9_7)" preserveAspectRatio="none" x="37" y="90" width="148" height="30" xlink:href="img/10.webp"/>
<image clip-path="url(#ca_7)" preserveAspectRatio="none" x="21" y="203" width="381" height="75" xlink:href="img/11.webp"/>
<image clip-path="url(#cb_7)" preserveAspectRatio="none" x="403" y="207" width="40" height="58" xlink:href="img/12.webp"/>
<image clip-path="url(#cc_7)" preserveAspectRatio="none" x="554" y="292" width="170" height="45" xlink:href="img/13.webp"/>
<image clip-path="url(#cd_7)" preserveAspectRatio="none" x="37" y="339" width="148" height="30" xlink:href="img/14.webp"/>
<image clip-path="url(#ce_7)" preserveAspectRatio="none" x="142" y="378" width="94" height="29" xlink:href="img/15.webp"/>
<image clip-path="url(#cf_7)" preserveAspectRatio="none" x="31" y="386" width="110" height="110" xlink:href="img/16.webp"/>
<image clip-path="url(#cg_7)" preserveAspectRatio="none" x="443" y="397" width="147" height="30" xlink:href="img/17.webp"/>
<image clip-path="url(#ch_7)" preserveAspectRatio="none" x="427" y="663" width="382" height="77" xlink:href="img/18.webp"/>
<image clip-path="url(#ci_7)" preserveAspectRatio="none" x="809" y="672" width="40" height="53" xlink:href="img/19.webp"/>
<image clip-path="url(#cj_7)" preserveAspectRatio="none" x="443" y="800" width="147" height="30" xlink:href="img/20.webp"/>
<image clip-path="url(#ck_7)" preserveAspectRatio="none" x="549" y="906" width="175" height="45" xlink:href="img/21.webp"/>
<image clip-path="url(#cl_7)" preserveAspectRatio="none" x="443" y="991" width="147" height="30" xlink:href="img/22.webp"/>
<image clip-path="url(#cm_7)" preserveAspectRatio="none" x="21" y="1047" width="381" height="76" xlink:href="img/23.webp"/>
<image clip-path="url(#cn_7)" preserveAspectRatio="none" x="403" y="1052" width="40" height="58" xlink:href="img/24.webp"/>
<image clip-path="url(#co_7)" preserveAspectRatio="none" x="37" y="1184" width="148" height="30" xlink:href="img/25.webp"/>
<image clip-path="url(#cp_7)" preserveAspectRatio="none" x="374" y="1204" width="120" height="45" xlink:href="img/26.webp"/>
</svg>