<?xml version="1.0" encoding="UTF-8" standalone="no"?>
<!DOCTYPE svg PUBLIC "-//W3C//DTD SVG 1.1//EN"
"http://www.w3.org/Graphics/SVG/1.1/DTD/svg11.dtd">
<svg viewBox="0 0 909 1286" version="1.1" xmlns="http://www.w3.org/2000/svg" xmlns:xlink="http://www.w3.org/1999/xlink">
<defs>
<style type="text/css"><![CDATA[
.g0{
fill: none;
stroke: #000000;
stroke-width: 0.916;
stroke-linecap: butt;
stroke-linejoin: miter;
stroke-miterlimit: 4;
}
]]></style>
</defs>
<image preserveAspectRatio="none" x="-21" y="-21" width="932" height="1329" xlink:href="../1/img/1.webp"/>
<path d="M56.3,156.5H439.6M56.3,1059.7H439.6M469.9,221.8H853.1M469.9,677.1H853.1" class="g0"/>
<image preserveAspectRatio="none" x="732" y="750" width="21" height="21" xlink:href="img/2.webp"/>
<image preserveAspectRatio="none" x="732" y="749" width="19" height="19" xlink:href="img/3.webp"/>
<image preserveAspectRatio="none" x="762" y="910" width="23" height="22" xlink:href="img/4.webp"/>
<image preserveAspectRatio="none" x="764" y="909" width="17" height="18" xlink:href="img/5.webp"/>
<path d="M469.9,1046.1H853.1" class="g0"/>
<image preserveAspectRatio="none" x="470" y="756" width="56" height="55" xlink:href="img/6.webp"/>
<image preserveAspectRatio="none" x="56" y="183" width="57" height="55" xlink:href="img/7.webp"/>
<image preserveAspectRatio="none" x="56" y="272" width="57" height="55" xlink:href="img/8.webp"/>
<image preserveAspectRatio="none" x="56" y="447" width="57" height="55" xlink:href="img/9.webp"/>
<image preserveAspectRatio="none" x="56" y="366" width="57" height="55" xlink:href="img/10.webp"/>
<image preserveAspectRatio="none" x="56" y="526" width="57" height="55" xlink:href="img/11.webp"/>
<image preserveAspectRatio="none" x="56" y="649" width="57" height="55" xlink:href="img/12.webp"/>
<image preserveAspectRatio="none" x="56" y="760" width="57" height="55" xlink:href="img/13.webp"/>
<image preserveAspectRatio="none" x="56" y="844" width="57" height="55" xlink:href="img/14.webp"/>
<image preserveAspectRatio="none" x="56" y="1075" width="57" height="55" xlink:href="img/15.webp"/>
<image preserveAspectRatio="none" x="470" y="879" width="56" height="55" xlink:href="img/16.webp"/>
<image preserveAspectRatio="none" x="56" y="1144" width="57" height="55" xlink:href="img/17.webp"/>
<image preserveAspectRatio="none" x="470" y="257" width="56" height="55" xlink:href="img/18.webp"/>
<image preserveAspectRatio="none" x="470" y="345" width="56" height="55" xlink:href="img/19.webp"/>
<image preserveAspectRatio="none" x="470" y="466" width="56" height="55" xlink:href="img/20.webp"/>
<image preserveAspectRatio="none" x="470" y="589" width="56" height="55" xlink:href="img/21.webp"/>
<image preserveAspectRatio="none" x="102" y="56" width="706" height="53" xlink:href="img/22.webp"/>
<image preserveAspectRatio="none" x="56" y="945" width="57" height="55" xlink:href="img/23.webp"/>
<image preserveAspectRatio="none" x="470" y="134" width="56" height="55" xlink:href="img/24.webp"/>
<image preserveAspectRatio="none" x="470" y="947" width="56" height="55" xlink:href="img/25.webp"/>
<image preserveAspectRatio="none" x="470" y="1077" width="56" height="55" xlink:href="img/26.webp"/>
<image preserveAspectRatio="none" x="470" y="1155" width="56" height="53" xlink:href="img/27.webp"/>
</svg>