<?xml version="1.0" encoding="UTF-8" standalone="no"?>
<!DOCTYPE svg PUBLIC "-//W3C//DTD SVG 1.1//EN"
"http://www.w3.org/Graphics/SVG/1.1/DTD/svg11.dtd">
<svg viewBox="0 0 909 1286" version="1.1" xmlns="http://www.w3.org/2000/svg" xmlns:xlink="http://www.w3.org/1999/xlink">
<defs>
<style type="text/css"><![CDATA[
.g0_3{
fill: none;
stroke: #000000;
stroke-width: 0.763;
stroke-linecap: butt;
stroke-linejoin: miter;
stroke-miterlimit: 4;
}
.g1_3{
}
.g2_3{
fill: none;
stroke: #FFFFFF;
stroke-width: 1.527;
stroke-linecap: butt;
stroke-linejoin: miter;
stroke-miterlimit: 4;
}
]]></style>
</defs>
<image preserveAspectRatio="none" x="-1" y="-21" width="932" height="1329" xlink:href="../1/img/1.webp"/>
<image preserveAspectRatio="none" x="0" y="803" width="944" height="506" xlink:href="img/2.webp"/>
<image preserveAspectRatio="none" x="102" y="26" width="706" height="52" xlink:href="img/3.webp"/>
<path d="M43.3,175.5H866.1" class="g0_3"/>
<path d="M58.2,257.4c8.3,0,15,-6.7,15,-14.9c0,-8.3,-6.7,-15,-15,-15c-8.2,0,-14.9,6.7,-14.9,15c0,8.2,6.7,14.9,14.9,14.9Z" class="g1_3"/>
<path d="M58.2,293c8.3,0,15,-6.7,15,-15c0,-8.2,-6.7,-14.9,-15,-14.9c-8.2,0,-14.9,6.7,-14.9,14.9c0,8.3,6.7,15,14.9,15Z" class="g1_3"/>
<path d="M58.2,346.9c8.3,0,15,-6.7,15,-14.9c0,-8.3,-6.7,-15,-15,-15c-8.2,0,-14.9,6.7,-14.9,15c0,8.2,6.7,14.9,14.9,14.9Z" class="g1_3"/>
<path d="M58.2,409.6c8.3,0,15,-6.7,15,-15c0,-8.2,-6.7,-14.9,-15,-14.9c-8.2,0,-14.9,6.7,-14.9,14.9c0,8.3,6.7,15,14.9,15Z" class="g1_3"/>
<path d="M58.2,454.9c8.3,0,15,-6.7,15,-15c0,-8.2,-6.7,-14.9,-15,-14.9c-8.2,0,-14.9,6.7,-14.9,14.9c0,8.3,6.7,15,14.9,15Z" class="g1_3"/>
<image preserveAspectRatio="none" x="564" y="220" width="224" height="331" xlink:href="img/4.webp"/>
<image preserveAspectRatio="none" x="566" y="220" width="215" height="323" xlink:href="img/5.webp"/>
<path d="M615.1,251.7c8.3,0,15,-6.7,15,-15c0,-8.2,-6.7,-14.9,-15,-14.9c-8.2,0,-14.9,6.7,-14.9,14.9c0,8.3,6.7,15,14.9,15Z" class="g1_3"/>
<path d="M625.5,329.2c7.9,0,14.3,-6.4,14.3,-14.4c0,-7.9,-6.4,-14.3,-14.3,-14.3c-7.9,0,-14.4,6.4,-14.4,14.3c0,8,6.5,14.4,14.4,14.4Z" class="g1_3"/>
<path d="M625.5,329.2c7.9,0,14.3,-6.4,14.3,-14.4c0,-7.9,-6.4,-14.3,-14.3,-14.3c-7.9,0,-14.4,6.4,-14.4,14.3c0,8,6.5,14.4,14.4,14.4Z" class="g2_3"/>
<path d="M722.5,297.1c8.3,0,15,-6.7,15,-14.9c0,-8.3,-6.7,-15,-15,-15c-8.2,0,-14.9,6.7,-14.9,15c0,8.2,6.7,14.9,14.9,14.9Z" class="g1_3"/>
<path d="M570.7,260.6c8.3,0,15,-6.7,15,-14.9c0,-8.3,-6.7,-14.9,-15,-14.9c-8.2,0,-14.9,6.6,-14.9,14.9c0,8.2,6.7,14.9,14.9,14.9Z" class="g1_3"/>
<path d="M570.7,260.6c8.3,0,15,-6.7,15,-14.9c0,-8.3,-6.7,-14.9,-15,-14.9c-8.2,0,-14.9,6.6,-14.9,14.9c0,8.2,6.7,14.9,14.9,14.9Z" class="g2_3"/>
<path d="M577.7,422.1c8.2,0,14.9,-6.7,14.9,-15c0,-8.2,-6.7,-14.9,-14.9,-14.9c-8.3,0,-15,6.7,-15,14.9c0,8.3,6.7,15,15,15Z" class="g1_3"/>
<path d="M577.7,521.1c8.2,0,14.9,-6.7,14.9,-14.9c0,-8.3,-6.7,-15,-14.9,-15c-8.3,0,-15,6.7,-15,15c0,8.2,6.7,14.9,15,14.9Z" class="g1_3"/>
<path d="M577.7,469.3c8.2,0,14.9,-6.7,14.9,-15c0,-8.2,-6.7,-14.9,-14.9,-14.9c-8.3,0,-15,6.7,-15,14.9c0,8.3,6.7,15,15,15Z" class="g1_3"/>
<path d="M728.7,537.8c7.9,0,14.3,-6.4,14.3,-14.3c0,-8,-6.4,-14.4,-14.3,-14.4c-8,0,-14.4,6.4,-14.4,14.4c0,7.9,6.4,14.3,14.4,14.3Z" class="g1_3"/>
<path d="M58.2,499c8.3,0,15,-6.7,15,-15c0,-8.2,-6.7,-14.9,-15,-14.9c-8.2,0,-14.9,6.7,-14.9,14.9c0,8.3,6.7,15,14.9,15Z" class="g1_3"/>
<path d="M57.7,541.9c7.9,0,14.3,-6.4,14.3,-14.3c0,-7.9,-6.4,-14.4,-14.3,-14.4c-8,0,-14.4,6.5,-14.4,14.4c0,7.9,6.4,14.3,14.4,14.3Z" class="g1_3"/>
<path d="M57.7,585.4C65.6,585.4,72,578.9,72,571c0,-7.9,-6.4,-14.3,-14.3,-14.3c-8,0,-14.4,6.4,-14.4,14.3c0,7.9,6.4,14.4,14.4,14.4Z" class="g1_3"/>
<image preserveAspectRatio="none" x="41" y="635" width="90" height="132" xlink:href="img/6.webp"/>
<image preserveAspectRatio="none" x="43" y="636" width="82" height="123" xlink:href="img/7.webp"/>
<path d="M43.3,617.6H866.1" class="g0_3"/>
<image preserveAspectRatio="none" x="102" y="789" width="706" height="53" xlink:href="img/8.webp"/>
</svg>