<?xml version="1.0" encoding="UTF-8" standalone="no"?>
<!DOCTYPE svg PUBLIC "-//W3C//DTD SVG 1.1//EN"
"http://www.w3.org/Graphics/SVG/1.1/DTD/svg11.dtd">
<svg viewBox="0 0 908 1285" version="1.1" xmlns="http://www.w3.org/2000/svg" xmlns:xlink="http://www.w3.org/1999/xlink">
<defs>
<clipPath id="c0_9"><path d="M-32.4,183.8v-216H183.9v216Z"/></clipPath>
<clipPath id="c1_9"><path d="M183.3,183.8v-216H400.5v216Z"/></clipPath>
<clipPath id="c2_9"><path d="M400,183.8v-216H616.9v216Z"/></clipPath>
<clipPath id="c3_9"><path d="M616.4,183.8v-216H833.5v216Z"/></clipPath>
<clipPath id="c4_9"><path d="M833,453.8v-486H941.2v486Z"/></clipPath>
<clipPath id="c5_9"><path d="M-32.4,399.9V183.3H183.9V399.9Z"/></clipPath>
<clipPath id="c6_9"><path d="M616.4,399.9V183.3H833.5V399.9Z"/></clipPath>
<clipPath id="c7_9"><path d="M-32.4,616.1V399.4H183.9V616.1Z"/></clipPath>
<clipPath id="c8_9"><path d="M616.4,616.1V399.4H833.5V616.1Z"/></clipPath>
<clipPath id="c9_9"><path d="M833,940.1V453.3H941.2V940.1Z"/></clipPath>
<clipPath id="ca_9"><path d="M-32.4,832.2V615.5H183.9V832.2Z"/></clipPath>
<clipPath id="cb_9"><path d="M616.4,832.2V615.5H833.5V832.2Z"/></clipPath>
<clipPath id="cc_9"><path d="M-32.4,1048V831.7H183.9V1048Z"/></clipPath>
<clipPath id="cd_9"><path d="M616.4,1048V831.7H833.5V1048Z"/></clipPath>
<clipPath id="ce_9"><path d="M833,1317.7V939.6H941.2v378.1Z"/></clipPath>
<clipPath id="cf_9"><path d="M-32.4,1264.1V1047.5H183.9v216.6Z"/></clipPath>
<clipPath id="cg_9"><path d="M616.4,1264.1V1047.5H833.5v216.6Z"/></clipPath>
<clipPath id="ch_9"><path d="M-32.4,1317.7v-54.1H833.5v54.1Z"/></clipPath>
</defs>
<image clip-path="url(#c0_9)" preserveAspectRatio="none" x="-32" y="-32" width="216" height="216" xlink:href="img/1.webp"/>
<image clip-path="url(#c1_9)" preserveAspectRatio="none" x="183" y="-32" width="217" height="216" xlink:href="img/2.webp"/>
<image clip-path="url(#c2_9)" preserveAspectRatio="none" x="400" y="-32" width="217" height="216" xlink:href="img/3.webp"/>
<image clip-path="url(#c3_9)" preserveAspectRatio="none" x="616" y="-32" width="218" height="216" xlink:href="img/4.webp"/>
<image clip-path="url(#c4_9)" preserveAspectRatio="none" x="833" y="-32" width="109" height="486" xlink:href="img/5.webp"/>
<image clip-path="url(#c5_9)" preserveAspectRatio="none" x="-32" y="183" width="216" height="217" xlink:href="img/6.webp"/>
<image preserveAspectRatio="none" x="183" y="183" width="217" height="217" xlink:href="img/7.webp"/>
<image preserveAspectRatio="none" x="400" y="183" width="217" height="217" xlink:href="img/8.webp"/>
<image clip-path="url(#c6_9)" preserveAspectRatio="none" x="616" y="183" width="218" height="217" xlink:href="img/9.webp"/>
<image clip-path="url(#c7_9)" preserveAspectRatio="none" x="-32" y="399" width="216" height="217" xlink:href="img/10.webp"/>
<image preserveAspectRatio="none" x="183" y="399" width="217" height="217" xlink:href="img/11.webp"/>
<image preserveAspectRatio="none" x="400" y="399" width="217" height="217" xlink:href="img/12.webp"/>
<image clip-path="url(#c8_9)" preserveAspectRatio="none" x="616" y="399" width="218" height="217" xlink:href="img/13.webp"/>
<image clip-path="url(#c9_9)" preserveAspectRatio="none" x="833" y="453" width="109" height="487" xlink:href="img/14.webp"/>
<image clip-path="url(#ca_9)" preserveAspectRatio="none" x="-32" y="616" width="216" height="216" xlink:href="img/15.webp"/>
<image preserveAspectRatio="none" x="183" y="616" width="217" height="216" xlink:href="img/16.webp"/>
<image preserveAspectRatio="none" x="400" y="616" width="217" height="216" xlink:href="img/17.webp"/>
<image clip-path="url(#cb_9)" preserveAspectRatio="none" x="616" y="616" width="218" height="216" xlink:href="img/18.webp"/>
<image clip-path="url(#cc_9)" preserveAspectRatio="none" x="-32" y="832" width="216" height="216" xlink:href="img/19.webp"/>
<image preserveAspectRatio="none" x="183" y="832" width="217" height="216" xlink:href="img/20.webp"/>
<image preserveAspectRatio="none" x="400" y="832" width="217" height="216" xlink:href="img/21.webp"/>
<image clip-path="url(#cd_9)" preserveAspectRatio="none" x="616" y="832" width="218" height="216" xlink:href="img/22.webp"/>
<image clip-path="url(#ce_9)" preserveAspectRatio="none" x="833" y="940" width="109" height="378" xlink:href="img/23.webp"/>
<image clip-path="url(#cf_9)" preserveAspectRatio="none" x="-32" y="1048" width="216" height="216" xlink:href="img/24.webp"/>
<image preserveAspectRatio="none" x="183" y="1048" width="217" height="216" xlink:href="img/25.webp"/>
<image preserveAspectRatio="none" x="400" y="1048" width="217" height="216" xlink:href="img/26.webp"/>
<image clip-path="url(#cg_9)" preserveAspectRatio="none" x="616" y="1048" width="218" height="216" xlink:href="img/27.webp"/>
<image clip-path="url(#ch_9)" preserveAspectRatio="none" x="-32" y="1264" width="866" height="54" xlink:href="img/28.webp"/>
</svg>