<?xml version="1.0" encoding="UTF-8" standalone="no"?>
<!DOCTYPE svg PUBLIC "-//W3C//DTD SVG 1.1//EN"
"http://www.w3.org/Graphics/SVG/1.1/DTD/svg11.dtd">
<svg viewBox="0 0 909 1286" version="1.1" xmlns="http://www.w3.org/2000/svg" xmlns:xlink="http://www.w3.org/1999/xlink">
<defs>
<clipPath id="c0_4"><path d="M172.8,985.2c-11.8,0,-11.9,-11.8,-11.9,-11.9V736.2c0,-11.9,11.9,-11.9,11.9,-11.9H323c11.9,0,11.9,11.9,11.9,11.9V973.3c0,11.9,-11.9,11.9,-11.9,11.9Z"/></clipPath>
<clipPath id="c1_4"><path d="M579.4,738.4c-12.9,-.2,-13,-13.1,-13,-13.2V461.6c0,-13.2,13.2,-13.2,13.2,-13.2H746.5c13.2,0,13.2,13.2,13.2,13.2V725.2c0,12.5,-11.9,13.1,-13.1,13.2Z"/></clipPath>
<clipPath id="c2_4"><path d="M213.6,546.4c-1.3,0,-2.4,-.5,-2.5,-.6l-50.2,-29L137.4,503.3c-3.8,-2.3,-1.8,-6.1,-1.7,-6.3l26.9,-46.6c1.1,-1.8,2.5,-2.3,3.7,-2.3c1.3,0,2.4,.6,2.5,.7l25.9,14.9l47.8,27.6c4,2.3,1.7,6.3,1.7,6.3l-26.8,46.5c-1.1,1.8,-2.5,2.3,-3.8,2.3Z"/></clipPath>
<clipPath id="c3_4"><path d="M213.2,524.9c-2.5,0,-3.9,-2.4,-3.9,-2.4L181.7,474.7l-15,-25.9c-2.2,-3.9,1.7,-6.2,1.7,-6.2l23.3,-13.5L215,415.7c.9,-.5,1.7,-.7,2.4,-.7c2.4,0,3.8,2.4,3.8,2.4l13.6,23.5l29,50.2c2.2,4,-1.7,6.2,-1.7,6.2l-46.5,26.9c-.9,.5,-1.7,.7,-2.4,.7Z"/></clipPath>
<clipPath id="c4_4"><path d="M221.7,509.4c-4.5,0,-4.5,-4.5,-4.5,-4.6V419.7c0,-4.6,4.5,-4.6,4.5,-4.6h53.7c4.6,0,4.6,4.6,4.6,4.6v85.1c0,4.6,-4.6,4.6,-4.6,4.6Z"/></clipPath>
<clipPath id="c5_4"><path d="M284.2,524.9c-1.5,0,-2.6,-.7,-2.6,-.7L235.1,497.4c-3.8,-2.2,-1.8,-6,-1.7,-6.3l26.9,-46.5L276,417.5c1,-1.9,2.5,-2.4,3.7,-2.4c1.3,0,2.4,.6,2.5,.7l46.6,26.9c3.7,2.2,1.8,5.9,1.6,6.2l-42.6,73.8c-1,1.7,-2.4,2.2,-3.6,2.2Z"/></clipPath>
<clipPath id="c6_4"><path d="M283.7,546.4c-2.5,0,-3.9,-2.3,-3.9,-2.3L253,497.5c-2.3,-3.9,1.7,-6.2,1.7,-6.2l45.2,-26.2l28.5,-16.4c.8,-.5,1.6,-.7,2.3,-.7c2.5,0,3.9,2.4,3.9,2.4L348,473.7L361.5,497c2.2,3.9,-1.7,6.2,-1.7,6.2l-27.1,15.6l-46.7,27c-.8,.5,-1.6,.6,-2.3,.6Z"/></clipPath>
<style type="text/css"><![CDATA[
.g0_4{
fill: none;
stroke: #000000;
stroke-width: 0.916;
stroke-linecap: butt;
stroke-linejoin: miter;
stroke-miterlimit: 4;
}
.g1_4{
}
.g2_4{
fill: #FFFFFF;
}
.g3_4{
fill: none;
stroke: #FFFFFF;
stroke-width: 1.237;
stroke-linecap: butt;
stroke-linejoin: miter;
stroke-miterlimit: 4;
}
.g4_4{
fill: none;
stroke: #FFFFFF;
stroke-width: 0.974;
stroke-linecap: butt;
stroke-linejoin: miter;
stroke-miterlimit: 4;
}
.g5_4{
fill: none;
stroke: #FFFFFF;
stroke-width: 1.375;
stroke-linecap: butt;
stroke-linejoin: miter;
stroke-miterlimit: 4;
}
]]></style>
</defs>
<image preserveAspectRatio="none" x="-21" y="-21" width="932" height="1329" xlink:href="../1/img/1.webp"/>
<image preserveAspectRatio="none" x="136" y="1131" width="28" height="25" xlink:href="img/2.webp"/>
<image preserveAspectRatio="none" x="368" y="1169" width="15" height="24" xlink:href="img/3.webp"/>
<image preserveAspectRatio="none" x="649" y="975" width="28" height="21" xlink:href="img/4.webp"/>
<path d="M56.3,75.5H439.6" class="g0_4"/>
<image preserveAspectRatio="none" x="55" y="85" width="391" height="233" xlink:href="img/5.webp"/>
<image preserveAspectRatio="none" x="58" y="86" width="382" height="224" xlink:href="img/6.webp"/>
<path d="M56.3,403.6H439.6M469.9,75.5H853.1" class="g0_4"/>
<path d="M68.3,1023c6.6,0,11.9,-5.4,11.9,-12c0,-6.6,-5.3,-11.9,-11.9,-11.9c-6.6,0,-12,5.3,-12,11.9c0,6.6,5.4,12,12,12Z" class="g1_4"/>
<path d="M68.3,1050.1c6.6,0,11.9,-5.3,11.9,-11.9c0,-6.6,-5.3,-12,-11.9,-12c-6.6,0,-12,5.4,-12,12c0,6.6,5.4,11.9,12,11.9Z" class="g1_4"/>
<path d="M68.3,1077.3c6.6,0,11.9,-5.4,11.9,-12c0,-6.6,-5.3,-11.9,-11.9,-11.9c-6.6,0,-12,5.3,-12,11.9c0,6.6,5.4,12,12,12Z" class="g1_4"/>
<path d="M68.3,1104.4c6.6,0,11.9,-5.3,11.9,-11.9c0,-6.6,-5.3,-12,-11.9,-12c-6.6,0,-12,5.4,-12,12c0,6.6,5.4,11.9,12,11.9Z" class="g1_4"/>
<path d="M68.3,1130.5c6.6,0,11.9,-5.4,11.9,-12c0,-6.6,-5.3,-11.9,-11.9,-11.9c-6.6,0,-12,5.3,-12,11.9c0,6.6,5.4,12,12,12Z" class="g1_4"/>
<path d="M68.3,1158.5c6.6,0,11.9,-5.3,11.9,-11.9c0,-6.6,-5.3,-12,-11.9,-12c-6.6,0,-12,5.4,-12,12c0,6.6,5.4,11.9,12,11.9Z" class="g1_4"/>
<image preserveAspectRatio="none" x="159" y="724" width="183" height="270" xlink:href="img/7.webp"/>
<g clip-path="url(#c0_4)">
<path d="M139.4,1006H354.8V703.6H139.4V1006Z" class="g2_4"/>
</g>
<image preserveAspectRatio="none" x="140" y="704" width="216" height="302" xlink:href="img/8.webp"/>
<image preserveAspectRatio="none" x="221" y="735" width="54" height="53" xlink:href="img/9.webp"/>
<image preserveAspectRatio="none" x="246" y="868" width="24" height="24" xlink:href="img/10.webp"/>
<image preserveAspectRatio="none" x="207" y="868" width="24" height="24" xlink:href="img/11.webp"/>
<image preserveAspectRatio="none" x="227" y="868" width="24" height="24" xlink:href="img/12.webp"/>
<image preserveAspectRatio="none" x="279" y="745" width="24" height="27" xlink:href="img/13.webp"/>
<image preserveAspectRatio="none" x="308" y="746" width="16" height="25" xlink:href="img/14.webp"/>
<image preserveAspectRatio="none" x="184" y="737" width="28" height="47" xlink:href="img/15.webp"/>
<path d="M306.4,746.8c6.7,0,12.1,-5.4,12.1,-12.1c0,-6.6,-5.4,-12.1,-12.1,-12.1c-6.7,0,-12.1,5.5,-12.1,12.1c0,6.7,5.4,12.1,12.1,12.1Z" class="g1_4"/>
<path d="M306.4,746.8c6.7,0,12.1,-5.4,12.1,-12.1c0,-6.6,-5.4,-12.1,-12.1,-12.1c-6.7,0,-12.1,5.5,-12.1,12.1c0,6.7,5.4,12.1,12.1,12.1Z" class="g3_4"/>
<path d="M322.2,808c6.7,0,12.1,-5.4,12.1,-12.1c0,-6.7,-5.4,-12.1,-12.1,-12.1c-6.7,0,-12.1,5.4,-12.1,12.1c0,6.7,5.4,12.1,12.1,12.1Z" class="g1_4"/>
<path d="M322.2,808c6.7,0,12.1,-5.4,12.1,-12.1c0,-6.7,-5.4,-12.1,-12.1,-12.1c-6.7,0,-12.1,5.4,-12.1,12.1c0,6.7,5.4,12.1,12.1,12.1Z" class="g3_4"/>
<path d="M250,750.9c6.7,0,12.1,-5.4,12.1,-12.1c0,-6.7,-5.4,-12.1,-12.1,-12.1c-6.7,0,-12.1,5.4,-12.1,12.1c0,6.7,5.4,12.1,12.1,12.1Z" class="g1_4"/>
<path d="M250,750.9c6.7,0,12.1,-5.4,12.1,-12.1c0,-6.7,-5.4,-12.1,-12.1,-12.1c-6.7,0,-12.1,5.4,-12.1,12.1c0,6.7,5.4,12.1,12.1,12.1Z" class="g3_4"/>
<path d="M176,740.8c6.7,0,12.1,-5.4,12.1,-12.1c0,-6.7,-5.4,-12.1,-12.1,-12.1c-6.6,0,-12.1,5.4,-12.1,12.1c0,6.7,5.5,12.1,12.1,12.1Z" class="g1_4"/>
<path d="M176,740.8c6.7,0,12.1,-5.4,12.1,-12.1c0,-6.7,-5.4,-12.1,-12.1,-12.1c-6.6,0,-12.1,5.4,-12.1,12.1c0,6.7,5.5,12.1,12.1,12.1Z" class="g3_4"/>
<path d="M221.1,790.4c6.7,0,12.1,-5.4,12.1,-12.1c0,-6.7,-5.4,-12.1,-12.1,-12.1c-6.7,0,-12.1,5.4,-12.1,12.1c0,6.7,5.4,12.1,12.1,12.1Z" class="g1_4"/>
<path d="M221.1,790.4c6.7,0,12.1,-5.4,12.1,-12.1c0,-6.7,-5.4,-12.1,-12.1,-12.1c-6.7,0,-12.1,5.4,-12.1,12.1c0,6.7,5.4,12.1,12.1,12.1Z" class="g3_4"/>
<path d="M247.9,883.7c6.7,0,12.1,-5.5,12.1,-12.2c0,-6.6,-5.4,-12.1,-12.1,-12.1c-6.7,0,-12.1,5.5,-12.1,12.1c0,6.7,5.4,12.2,12.1,12.2Z" class="g1_4"/>
<image preserveAspectRatio="none" x="564" y="447" width="203" height="300" xlink:href="img/16.webp"/>
<g clip-path="url(#c1_4)">
<path d="M555.4,753.6H771.7V431.4H555.4V753.6Z" class="g2_4"/>
</g>
<image preserveAspectRatio="none" x="554" y="433" width="218" height="321" opacity="0.800003" xlink:href="img/17.webp"/>
<image preserveAspectRatio="none" x="543" y="425" width="240" height="336" opacity="0.350006" xlink:href="img/18.webp"/>
<image preserveAspectRatio="none" x="584" y="455" width="159" height="32" xlink:href="img/19.webp"/>
<image preserveAspectRatio="none" x="723" y="691" width="23" height="33" xlink:href="img/20.webp"/>
<image preserveAspectRatio="none" x="580" y="475" width="60" height="59" xlink:href="img/21.webp"/>
<image preserveAspectRatio="none" x="596" y="520" width="66" height="40" xlink:href="img/22.webp"/>
<image preserveAspectRatio="none" x="622" y="521" width="35" height="36" xlink:href="img/23.webp"/>
<image preserveAspectRatio="none" x="580" y="559" width="60" height="59" xlink:href="img/24.webp"/>
<image preserveAspectRatio="none" x="596" y="604" width="66" height="40" xlink:href="img/25.webp"/>
<image preserveAspectRatio="none" x="622" y="605" width="35" height="36" xlink:href="img/26.webp"/>
<image preserveAspectRatio="none" x="580" y="644" width="60" height="59" xlink:href="img/27.webp"/>
<image preserveAspectRatio="none" x="596" y="689" width="107" height="42" xlink:href="img/28.webp"/>
<image preserveAspectRatio="none" x="658" y="693" width="41" height="31" xlink:href="img/29.webp"/>
<image preserveAspectRatio="none" x="622" y="690" width="35" height="36" xlink:href="img/30.webp"/>
<g clip-path="url(#c1_4)">
<path d="M589.9,464.8c-.2,-.3,-.5,-.6,-1,-.8c-.4,-.2,-1,-.4,-1.7,-.5c-.8,-.1,-1.6,-.1,-2.6,-.1c-.3,0,-.6,.1,-1,.1c-.4,0,-.8,0,-1.3,0c-.6,.1,-1.2,.1,-2,.1c.1,.7,.1,1.3,.1,1.8c0,.5,.1,.9,.1,1.3c0,.4,0,.8,0,1.1c0,.3,0,.6,0,1c0,.4,0,.8,-.1,1.3c0,.4,0,.9,-.1,1.5l3.1,.1c0,-.7,-.1,-1.3,-.1,-1.8c0,-.5,0,-.9,0,-1.2c0,-.4,0,-.7,0,-.9v-2.3c.5,0,.9,-.1,1.3,-.1c.4,0,.7,0,1,0c.2,0,.5,.1,.6,.1c.2,0,.4,.1,.5,.2c.3,.1,.4,.3,.5,.5c-.1,.2,-.2,.4,-.5,.6c-.2,.1,-.6,.2,-1.1,.3c-.5,.1,-1.2,.2,-2.1,.1l1.3,1.6c.6,0,1.2,0,1.8,-.1c.5,0,.9,-.1,1.3,-.2c.4,-.2,.7,-.3,1,-.5c.2,-.2,.5,-.4,.6,-.5c.4,-.5,.7,-1,.7,-1.6c0,-.4,-.1,-.8,-.3,-1.1Zm10.7,6.1c-.5,-.7,-1,-1.3,-1.5,-1.9c-.4,-.6,-.8,-1.1,-1.1,-1.5c-.4,-.5,-.7,-.9,-1,-1.3c-.3,-.4,-.5,-.8,-.8,-1.3c-.3,-.4,-.5,-.8,-.8,-1.3c-.3,-.4,-.6,-.9,-.9,-1.4l-2.6,.9l.8,1.3c-.2,.5,-.4,.9,-.6,1.3c-.2,.4,-.4,.7,-.6,1c-.2,.4,-.4,.7,-.6,1c-.2,.3,-.5,.6,-.7,.9c-.2,.3,-.5,.6,-.8,1c-.3,.3,-.7,.7,-1.1,1.1l2.2,1.3l1.2,-1.2h5.5l.9,1.3l2.5,-1.2ZM595.9,469H593c.1,-.2,.2,-.3,.3,-.5c0,-.1,.1,-.2,.2,-.3c.1,-.1,.1,-.2,.2,-.3c0,-.1,.1,-.2,.2,-.4c0,-.1,.1,-.2,.2,-.3c.1,-.2,.1,-.3,.2,-.5l1.6,2.3Zm17.6,4.6c-.8,-.4,-1.4,-.8,-1.9,-1.2c-.5,-.4,-.9,-.7,-1.2,-.9c-.4,-.3,-.7,-.6,-.9,-.9c-.2,-.2,-.5,-.5,-.7,-.7c-.2,-.2,-.3,-.5,-.6,-.7c-.2,-.2,-.3,-.5,-.5,-.7c.8,-.2,1.4,-.4,1.8,-.8c.4,-.3,.7,-.6,.9,-.8c.3,-.4,.4,-.7,.4,-1.1c0,-.3,-.1,-.6,-.3,-.9c-.1,-.2,-.4,-.4,-.7,-.6c-.3,-.2,-.7,-.3,-1.1,-.4c-.4,-.1,-.9,-.2,-1.3,-.3c-.5,0,-.9,-.1,-1.4,-.1c-.4,0,-.9,0,-1.3,0c-.2,0,-.5,0,-.8,0c-.3,0,-.6,.1,-1,.1c-.4,0,-.7,.1,-1.1,.1c-.4,0,-.7,0,-1,0c0,.6,.1,1.1,.2,1.5c0,.5,.1,.9,.1,1.2c0,.4,0,.7,0,1c0,.3,0,.7,0,1.1c0,.4,0,.8,0,1.3c-.1,.6,-.1,1.2,-.1,1.9h3c0,-1.3,-.1,-2.2,-.1,-2.8c0,-.4,0,-.7,0,-1c0,-.2,0,-.5,0,-.8c0,-.2,0,-.4,.1,-.7c0,-.3,0,-.5,0,-.8c.5,-.1,.9,-.1,1.3,-.2c.3,0,.6,0,.9,0c.2,0,.5,0,.7,.1c.1,0,.3,0,.4,.1c.3,.1,.4,.2,.5,.4c0,.3,-.1,.5,-.3,.6c-.2,.2,-.4,.4,-.6,.5c-.3,.1,-.6,.2,-.9,.3c-.3,0,-.6,.1,-.8,.1c-.3,0,-.5,.1,-.7,.1c-.1,0,-.2,0,-.2,0c.3,.6,.5,1.2,.8,1.7c.3,.4,.6,.8,.8,1.2c.2,.3,.5,.7,.8,.9c.4,.4,.8,.8,1.2,1.1c.2,.2,.4,.3,.6,.5c.2,.1,.3,.2,.5,.4c.2,.1,.4,.2,.5,.3c.2,0,.3,.1,.4,.1l3.6,-.2Zm11,0c-.7,-.4,-1.3,-.8,-1.8,-1.2c-.6,-.4,-1,-.7,-1.3,-.9c-.4,-.3,-.7,-.6,-.9,-.9c-.2,-.2,-.4,-.5,-.6,-.7c-.2,-.2,-.4,-.5,-.6,-.7c-.2,-.2,-.4,-.5,-.6,-.7c.8,-.2,1.4,-.4,1.8,-.8c.5,-.3,.8,-.6,1,-.8c.2,-.4,.3,-.7,.4,-1.1c0,-.3,-.1,-.6,-.3,-.9c-.2,-.2,-.5,-.4,-.8,-.6c-.3,-.2,-.7,-.3,-1.1,-.4c-.4,-.1,-.8,-.2,-1.3,-.3c-.4,0,-.9,-.1,-1.4,-.1c-.4,0,-.9,0,-1.3,0c-.2,0,-.4,0,-.8,0c-.3,0,-.6,.1,-1,.1c-.4,0,-.7,.1,-1.1,.1c-.4,0,-.7,0,-1,0c.1,.6,.1,1.1,.2,1.5c0,.5,.1,.9,.1,1.2c0,.4,0,.7,0,1c0,.3,0,.7,0,1.1c0,.4,0,.8,0,1.3c0,.6,-.1,1.2,-.1,1.9h3c0,-1.3,0,-2.2,-.1,-2.8c0,-.4,0,-.7,0,-1c0,-.2,0,-.5,0,-.8c.1,-.2,.1,-.4,.1,-.7c0,-.3,0,-.5,0,-.8c.5,-.1,.9,-.1,1.3,-.2c.3,0,.6,0,.9,0c.3,0,.5,0,.7,.1c.2,0,.3,0,.4,.1c.3,.1,.4,.2,.5,.4c0,.3,-.1,.5,-.3,.6c-.1,.2,-.4,.4,-.6,.5c-.3,.1,-.6,.2,-.9,.3c-.3,0,-.5,.1,-.8,.1c-.3,0,-.5,.1,-.6,.1c-.2,0,-.3,0,-.3,0c.3,.6,.6,1.2,.8,1.7c.3,.4,.6,.8,.8,1.2c.3,.3,.5,.7,.8,.9c.4,.4,.8,.8,1.2,1.1c.2,.2,.4,.3,.6,.5c.2,.1,.4,.2,.5,.4c.2,.1,.4,.2,.5,.3c.2,0,.3,.1,.4,.1l3.6,-.2Zm8.4,-8.9l-2.5,-1.1c-.2,.2,-.3,.4,-.5,.7c-.2,.2,-.4,.4,-.5,.6c-.2,.2,-.3,.4,-.5,.6c-.1,.2,-.3,.4,-.4,.6c-.2,.2,-.3,.4,-.4,.6c-.2,.2,-.3,.4,-.4,.6c-.2,-.2,-.3,-.3,-.5,-.5c-.1,-.2,-.3,-.4,-.4,-.5c-.1,-.2,-.2,-.4,-.3,-.6c-.2,-.2,-.3,-.4,-.4,-.6c-.1,-.2,-.2,-.5,-.3,-.8c-.1,-.4,-.2,-.8,-.4,-1.2c-.5,.2,-.9,.3,-1.2,.5c-.2,0,-.3,.1,-.4,.2c-.1,0,-.3,.1,-.4,.2c-.1,.1,-.3,.2,-.4,.3c-.2,.1,-.3,.3,-.5,.5c.2,.3,.4,.7,.6,1c.2,.3,.4,.6,.5,.8c.2,.3,.4,.5,.5,.8c.2,.2,.4,.4,.6,.7c.2,.2,.4,.4,.6,.7c.3,.3,.5,.6,.8,.9c-.2,.2,-.4,.5,-.5,.7c-.2,.3,-.3,.5,-.4,.7c-.1,.2,-.2,.4,-.4,.5c-.1,.2,-.2,.4,-.3,.6c-.1,.2,-.3,.4,-.4,.7c-.2,.2,-.3,.5,-.5,.8c.2,.1,.4,.2,.6,.2c.1,.1,.3,.1,.4,.1c.1,.1,.2,.1,.4,.2c.1,0,.2,0,.3,.1c.1,0,.3,.1,.4,.1c.2,.1,.4,.1,.6,.2c.3,-.7,.6,-1.3,1,-1.9c.3,-.6,.7,-1.2,1,-1.7c.3,-.6,.6,-1.1,1,-1.6c.3,-.5,.7,-1.1,1,-1.6c.4,-.4,.8,-.9,1.2,-1.5c.4,-.5,.9,-1.1,1.4,-1.6Zm3.5,6.7v-7.9l-3.2,.4c0,.5,.1,1,.1,1.5c0,.4,.1,.8,.1,1.1c0,.4,0,.8,0,1.1c0,.4,0,.7,0,1.1c0,.4,0,.8,-.1,1.3c0,.5,0,1.1,-.1,1.7l3.2,-.3Zm12.7,-6.9l-2.9,-1c-.1,.3,-.1,.5,-.2,.8c0,.2,-.1,.5,-.1,.7c0,.2,-.1,.4,-.1,.6c0,.2,0,.5,-.1,.7c0,.2,0,.5,0,.7c-.1,.3,-.1,.6,-.1,.9l-5.2,-4.5l-2.8,.6c.1,.6,.1,1.2,.2,1.6c0,.5,0,.9,.1,1.2c0,.3,0,.6,0,.9c0,.2,0,.6,0,1c-.1,.3,-.1,.7,-.1,1.2c0,.5,-.1,1.2,-.1,1.9l2.9,-.4v-4l5.8,4.7l1.9,-.8v-3.1c0,-.3,0,-.6,.1,-.9c0,-.3,.1,-.7,.2,-1.2c.1,-.5,.3,-1,.5,-1.6Zm15.3,3c-.3,-.2,-.5,-.4,-.9,-.6c-.3,-.1,-.7,-.3,-1.1,-.4c-.5,-.1,-.9,-.2,-1.3,-.3c-.5,0,-.9,-.1,-1.3,-.1c-.3,-.1,-.7,-.1,-.9,-.1c-.3,0,-.7,.1,-1.1,.1c-.3,.1,-.7,.1,-1.1,.3c-.4,.1,-.9,.2,-1.4,.5l.4,1c.4,-.2,.8,-.4,1.1,-.5c.4,-.1,.7,-.1,1,-.2c.3,0,.7,0,1,-.1c.2,0,.5,.1,.7,.2c.3,0,.5,.1,.7,.2c.2,.2,.4,.3,.5,.4c.1,.2,.2,.3,.2,.5c0,.3,-.2,.6,-.4,.8c-.3,.3,-.6,.5,-1,.6c-.4,.1,-.7,.3,-1.2,.3c-.4,.1,-.7,.1,-1.1,.1c-.2,0,-.4,0,-.7,-.1c-.3,-.1,-.6,-.2,-1,-.3c-.3,-.1,-.6,-.3,-.9,-.5c-.3,-.2,-.6,-.4,-.8,-.6c-.3,-.3,-.5,-.5,-.6,-.8c-.2,-.3,-.2,-.6,-.2,-.9c0,-.3,.1,-.6,.3,-.8c.2,-.3,.6,-.5,1,-.7c.4,-.2,.9,-.4,1.5,-.5c.6,-.1,1.2,-.2,1.9,-.2c.3,0,.7,0,1.2,.1c.3,0,.8,.1,1.3,.1c.5,.1,1.1,.2,1.7,.3l.6,-1.2c-.7,-.2,-1.3,-.3,-2,-.4c-.7,0,-1.3,-.1,-1.9,-.1c-.6,-.1,-1.3,-.1,-1.8,-.1c-.6,0,-1.1,0,-1.7,.1c-.6,.1,-1.1,.3,-1.7,.4c-.6,.2,-1.1,.4,-1.7,.6c-.5,.2,-1,.5,-1.4,.8c-.4,.2,-.7,.5,-.9,.8c-.3,.3,-.4,.7,-.4,1c0,.4,.2,.8,.5,1.1c.4,.4,.8,.8,1.3,1.1c.5,.4,1.1,.7,1.8,1c.6,.3,1.3,.5,1.9,.7c.6,.2,1.1,.4,1.7,.5c.5,.1,.8,.2,1.1,.2c.2,0,.5,-.1,.9,-.1c.5,-.1,1,-.2,1.5,-.3c.5,-.2,1.1,-.3,1.7,-.5c.6,-.2,1.1,-.4,1.6,-.7c.5,-.3,.9,-.6,1.2,-.9c.3,-.4,.5,-.8,.5,-1.2c0,-.2,-.1,-.4,-.3,-.6Zm8.7,-4c-.6,0,-1.3,0,-2.1,.1c-.7,0,-1.4,0,-2.1,.1c.1,.7,.1,1.4,.2,2c0,.7,0,1.3,0,2c0,.7,0,1.3,0,2c-.1,.7,-.1,1.3,-.1,2c.6,0,1.2,.1,1.8,.1c.6,.1,1.2,.1,1.9,0c.5,0,1,-.1,1.5,-.1c.5,-.1,1,-.1,1.4,-.3c.5,-.1,1,-.2,1.5,-.4c.4,-.2,.9,-.4,1.3,-.7c.4,-.3,.7,-.6,1,-1c.3,-.4,.4,-.8,.4,-1.2c0,-.4,-.1,-.7,-.2,-1.1c-.1,-.4,-.3,-.9,-.5,-1.3c-.2,-.4,-.5,-.8,-.7,-1.2c-.3,-.3,-.6,-.7,-.8,-1h-4.5Zm-1.1,2.4h3.9c.1,0,.2,.1,.2,.2c.1,.2,.2,.3,.3,.5c.1,.4,.2,.8,.3,1.2c0,.2,-.1,.3,-.3,.5c-.1,.1,-.2,.2,-.4,.3c-.1,.1,-.3,.2,-.5,.3c-.2,.1,-.4,.1,-.5,.2c-.5,.1,-1,.3,-1.5,.3c-.5,.1,-1,.2,-1.5,.2v-3.7Zm20.5,5c-.6,-.7,-1.1,-1.3,-1.5,-1.9c-.5,-.6,-.8,-1.1,-1.1,-1.5c-.4,-.5,-.7,-.9,-1,-1.3c-.3,-.4,-.6,-.8,-.8,-1.3c-.3,-.4,-.6,-.8,-.8,-1.3c-.3,-.4,-.6,-.9,-.9,-1.4l-2.7,.9l.9,1.3c-.2,.5,-.4,.9,-.6,1.3c-.3,.4,-.5,.7,-.6,1c-.2,.4,-.4,.7,-.6,1c-.2,.3,-.5,.6,-.7,.9c-.3,.3,-.5,.6,-.8,1c-.4,.3,-.7,.7,-1.1,1.1l2.2,1.3l1.2,-1.2h5.5l.9,1.3l2.5,-1.2ZM687.8,469h-3c.1,-.2,.2,-.3,.3,-.5c.1,-.1,.2,-.2,.3,-.3c0,-.1,.1,-.2,.2,-.3c0,-.1,.1,-.2,.1,-.4c.1,-.1,.2,-.2,.3,-.3c0,-.2,.1,-.3,.2,-.5l1.6,2.3Zm18.7,-1.5c-.2,-.2,-.5,-.4,-.8,-.6c-.4,-.1,-.8,-.3,-1.2,-.4c-.4,-.1,-.9,-.2,-1.3,-.3c-.4,0,-.8,-.1,-1.2,-.1c-.4,-.1,-.7,-.1,-1,-.1c-.3,0,-.7,.1,-1,.1c-.4,.1,-.7,.1,-1.2,.3c-.4,.1,-.9,.2,-1.4,.5l.4,1c.4,-.2,.8,-.4,1.2,-.5c.3,-.1,.7,-.1,.9,-.2c.4,0,.7,0,1,-.1c.2,0,.5,.1,.7,.2c.3,0,.5,.1,.7,.2c.2,.2,.4,.3,.5,.4c.1,.2,.2,.3,.2,.5c0,.3,-.1,.6,-.4,.8c-.3,.3,-.6,.5,-.9,.6c-.4,.1,-.8,.3,-1.2,.3c-.4,.1,-.8,.1,-1.1,.1c-.2,0,-.5,0,-.8,-.1c-.3,-.1,-.6,-.2,-.9,-.3c-.3,-.1,-.7,-.3,-1,-.5c-.3,-.2,-.6,-.4,-.8,-.6c-.2,-.3,-.4,-.5,-.6,-.8c-.1,-.3,-.2,-.6,-.2,-.9c0,-.3,.1,-.6,.3,-.8c.3,-.3,.6,-.5,1,-.7c.4,-.2,.9,-.4,1.5,-.5c.6,-.1,1.2,-.2,1.9,-.2c.4,0,.8,0,1.2,.1c.4,0,.8,.1,1.3,.1c.5,.1,1.1,.2,1.7,.3l.7,-1.2c-.7,-.2,-1.4,-.3,-2.1,-.4c-.7,0,-1.3,-.1,-1.9,-.1c-.6,-.1,-1.2,-.1,-1.8,-.1c-.5,0,-1.1,0,-1.6,.1c-.6,.1,-1.2,.3,-1.8,.4c-.6,.2,-1.1,.4,-1.6,.6c-.6,.2,-1,.5,-1.4,.8c-.4,.2,-.8,.5,-1,.8c-.2,.3,-.4,.7,-.4,1c0,.4,.2,.8,.6,1.1c.3,.4,.7,.8,1.3,1.1c.5,.4,1.1,.7,1.7,1c.7,.3,1.3,.5,1.9,.7c.6,.2,1.2,.4,1.7,.5c.5,.1,.9,.2,1.1,.2c.2,0,.5,-.1,1,-.1c.4,-.1,.9,-.2,1.4,-.3c.6,-.2,1.1,-.3,1.7,-.5c.6,-.2,1.2,-.4,1.6,-.7c.5,-.3,.9,-.6,1.2,-.9c.3,-.4,.5,-.8,.5,-1.2c0,-.2,-.1,-.4,-.3,-.6Zm15.8,0c-.2,-.2,-.5,-.4,-.8,-.6c-.3,-.1,-.7,-.3,-1.2,-.4c-.4,-.1,-.8,-.2,-1.3,-.3c-.4,0,-.8,-.1,-1.2,-.1c-.4,-.1,-.7,-.1,-1,-.1c-.3,0,-.6,.1,-1,.1c-.3,.1,-.7,.1,-1.1,.3c-.4,.1,-.9,.2,-1.4,.5l.4,1c.4,-.2,.7,-.4,1.1,-.5c.4,-.1,.7,-.1,1,-.2c.3,0,.6,0,.9,-.1c.3,0,.5,.1,.8,.2c.2,0,.5,.1,.7,.2c.2,.2,.3,.3,.5,.4c.1,.2,.1,.3,.1,.5c0,.3,-.1,.6,-.3,.8c-.3,.3,-.6,.5,-1,.6c-.4,.1,-.8,.3,-1.2,.3c-.4,.1,-.8,.1,-1.1,.1c-.2,0,-.4,0,-.8,-.1c-.3,-.1,-.6,-.2,-.9,-.3c-.3,-.1,-.6,-.3,-.9,-.5c-.3,-.2,-.6,-.4,-.9,-.6c-.2,-.3,-.4,-.5,-.5,-.8c-.2,-.3,-.3,-.6,-.3,-.9c0,-.3,.1,-.6,.4,-.8c.2,-.3,.5,-.5,1,-.7c.4,-.2,.9,-.4,1.5,-.5c.5,-.1,1.2,-.2,1.9,-.2c.3,0,.7,0,1.1,.1c.4,0,.8,.1,1.4,.1c.5,.1,1,.2,1.7,.3l.6,-1.2c-.7,-.2,-1.4,-.3,-2.1,-.4c-.6,0,-1.3,-.1,-1.8,-.1c-.7,-.1,-1.3,-.1,-1.9,-.1c-.5,0,-1,0,-1.6,.1c-.6,.1,-1.2,.3,-1.7,.4c-.6,.2,-1.2,.4,-1.7,.6c-.5,.2,-1,.5,-1.4,.8c-.4,.2,-.7,.5,-1,.8c-.2,.3,-.3,.7,-.3,1c0,.4,.2,.8,.5,1.1c.3,.4,.8,.8,1.3,1.1c.5,.4,1.1,.7,1.8,1c.6,.3,1.2,.5,1.8,.7c.7,.2,1.2,.4,1.7,.5c.5,.1,.9,.2,1.2,.2c.1,0,.5,-.1,.9,-.1c.4,-.1,.9,-.2,1.5,-.3c.5,-.2,1.1,-.3,1.7,-.5c.6,-.2,1.1,-.4,1.6,-.7c.5,-.3,.9,-.6,1.2,-.9c.3,-.4,.4,-.8,.4,-1.2c0,-.2,-.1,-.4,-.3,-.6Zm12.6,1.9c-.5,.1,-1,.1,-1.4,.2c-.5,0,-.8,0,-1.1,.1c-.4,0,-.7,0,-1,0c-.5,0,-1,0,-1.5,0c-.5,-.1,-.9,-.2,-1.4,-.3c-.5,-.1,-.9,-.2,-1.2,-.4c-.4,-.2,-.7,-.4,-.9,-.6h4.1v-1.7h-4.1c0,0,.1,-.1,.1,-.1q0,-.1,0,-.2q.1,0,.1,-.1c0,0,.1,-.1,.1,-.1c0,-.1,.1,-.1,.1,-.2c0,0,.1,0,.1,-.1h5.6l1.1,-2.3h-8.3c-.6,.5,-1,1.1,-1.3,1.7c-.3,.6,-.6,1.1,-.7,1.5c-.2,.5,-.3,1.1,-.3,1.5c0,.4,.1,.7,.4,1c.2,.3,.5,.6,.8,.8c.4,.3,.9,.5,1.4,.7c.5,.2,1,.3,1.6,.5c.5,.1,1.1,.2,1.7,.3c.6,.1,1.2,.2,1.7,.2c.6,.1,1.1,.1,1.6,.1c.5,0,.9,0,1.3,0l1.4,-2.5Zm12.8,4.2c-.8,-.4,-1.4,-.8,-1.9,-1.2c-.5,-.4,-.9,-.7,-1.2,-.9c-.4,-.3,-.7,-.6,-.9,-.9c-.3,-.2,-.5,-.5,-.7,-.7c-.2,-.2,-.4,-.5,-.6,-.7c-.2,-.2,-.4,-.5,-.5,-.7c.8,-.2,1.4,-.4,1.8,-.8c.4,-.3,.7,-.6,.9,-.8c.3,-.4,.4,-.7,.4,-1.1c0,-.3,-.1,-.6,-.3,-.9c-.2,-.2,-.4,-.4,-.7,-.6c-.3,-.2,-.7,-.3,-1.1,-.4c-.4,-.1,-.9,-.2,-1.3,-.3c-.5,0,-.9,-.1,-1.4,-.1c-.5,0,-.9,0,-1.3,0c-.2,0,-.5,0,-.8,0c-.3,0,-.7,.1,-1,.1c-.4,0,-.8,.1,-1.1,.1c-.4,0,-.8,0,-1.1,0c.1,.6,.2,1.1,.3,1.5c0,.5,0,.9,.1,1.2c0,.4,0,.7,0,1c0,.3,0,.7,0,1.1c0,.4,0,.8,0,1.3c-.1,.6,-.1,1.2,-.1,1.9h3c-.1,-1.3,-.1,-2.2,-.1,-2.8c0,-.4,0,-.7,0,-1c0,-.2,0,-.5,0,-.8c0,-.2,0,-.4,0,-.7c.1,-.3,.1,-.5,.1,-.8c.5,-.1,.9,-.1,1.2,-.2c.4,0,.7,0,1,0c.2,0,.5,0,.6,.1c.2,0,.4,0,.5,.1c.3,.1,.4,.2,.5,.4c0,.3,-.1,.5,-.3,.6c-.2,.2,-.4,.4,-.6,.5c-.3,.1,-.6,.2,-.9,.3c-.3,0,-.6,.1,-.8,.1c-.3,0,-.5,.1,-.7,.1c-.1,0,-.2,0,-.2,0c.3,.6,.5,1.2,.8,1.7c.3,.4,.5,.8,.8,1.2c.2,.3,.5,.7,.8,.9c.4,.4,.8,.8,1.2,1.1c.2,.2,.4,.3,.6,.5c.1,.1,.3,.2,.5,.4c.2,.1,.3,.2,.5,.3c.2,0,.3,.1,.4,.1l3.6,-.2Z" class="g4_4"/>
</g>
<image x="580" y="463" width="11" height="10" xlink:href="shade/1.webp"/>
<image x="588" y="462" width="13" height="12" xlink:href="shade/2.webp"/>
<image x="600" y="463" width="13" height="11" xlink:href="shade/3.webp"/>
<image x="611" y="463" width="13" height="11" xlink:href="shade/4.webp"/>
<image x="622" y="463" width="11" height="13" xlink:href="shade/5.webp"/>
<image x="633" y="463" width="4" height="10" xlink:href="shade/6.webp"/>
<image x="637" y="463" width="12" height="11" xlink:href="shade/7.webp"/>
<image x="649" y="463" width="17" height="10" xlink:href="shade/8.webp"/>
<image x="668" y="463" width="12" height="10" xlink:href="shade/9.webp"/>
<image x="680" y="462" width="13" height="12" xlink:href="shade/10.webp"/>
<image x="691" y="463" width="16" height="10" xlink:href="shade/11.webp"/>
<image x="706" y="463" width="17" height="10" xlink:href="shade/12.webp"/>
<image x="723" y="463" width="12" height="10" xlink:href="shade/13.webp"/>
<image x="734" y="463" width="13" height="11" xlink:href="shade/14.webp"/>
<image x="679" y="485" width="60" height="244" xlink:href="shade/15.webp"/>
<image preserveAspectRatio="none" x="665" y="485" width="72" height="238" xlink:href="img/31.webp"/>
<path d="M579.9,469.6c7.4,0,13.4,-6,13.4,-13.4c0,-7.4,-6,-13.5,-13.4,-13.5c-7.5,0,-13.5,6.1,-13.5,13.5c0,7.4,6,13.4,13.5,13.4Z" class="g1_4"/>
<path d="M703,533.4c7.5,0,13.5,-6,13.5,-13.5c0,-7.4,-6,-13.4,-13.5,-13.4c-7.4,0,-13.4,6,-13.4,13.4c0,7.5,6,13.5,13.4,13.5Z" class="g1_4"/>
<path d="M724.1,698.1c7.4,0,13.4,-6.1,13.4,-13.5c0,-7.4,-6,-13.4,-13.4,-13.4c-7.5,0,-13.5,6,-13.5,13.4c0,7.4,6,13.5,13.5,13.5Z" class="g1_4"/>
<path d="M724.1,698.1c7.4,0,13.4,-6.1,13.4,-13.5c0,-7.4,-6,-13.4,-13.4,-13.4c-7.5,0,-13.5,6,-13.5,13.4c0,7.4,6,13.5,13.5,13.5Z" class="g5_4"/>
<path d="M576.7,519.9c7.5,0,13.5,-6,13.5,-13.4c0,-7.4,-6,-13.5,-13.5,-13.5c-7.4,0,-13.4,6.1,-13.4,13.5c0,7.4,6,13.4,13.4,13.4Z" class="g1_4"/>
<path d="M576.7,684.6c7.5,0,13.5,-6,13.5,-13.4c0,-7.5,-6,-13.5,-13.5,-13.5c-7.4,0,-13.4,6,-13.4,13.5c0,7.4,6,13.4,13.4,13.4Z" class="g1_4"/>
<path d="M576.7,599.6c7.5,0,13.5,-6,13.5,-13.4c0,-7.4,-6,-13.4,-13.5,-13.4c-7.4,0,-13.4,6,-13.4,13.4c0,7.4,6,13.4,13.4,13.4Z" class="g1_4"/>
<path d="M481.8,798.8c6.6,0,12,-5.4,12,-12c0,-6.6,-5.4,-11.9,-12,-11.9c-6.6,0,-11.9,5.3,-11.9,11.9c0,6.6,5.3,12,11.9,12Z" class="g1_4"/>
<path d="M481.8,826.2c6.6,0,12,-5.4,12,-12c0,-6.6,-5.4,-11.9,-12,-11.9c-6.6,0,-11.9,5.3,-11.9,11.9c0,6.6,5.3,12,11.9,12Z" class="g1_4"/>
<path d="M481.8,854.6c6.6,0,12,-5.3,12,-11.9c0,-6.6,-5.4,-12,-12,-12c-6.6,0,-11.9,5.4,-11.9,12c0,6.6,5.3,11.9,11.9,11.9Z" class="g1_4"/>
<path d="M481.8,906.2c6.6,0,12,-5.3,12,-11.9c0,-6.6,-5.4,-12,-12,-12c-6.6,0,-11.9,5.4,-11.9,12c0,6.6,5.3,11.9,11.9,11.9Z" class="g1_4"/>
<path d="M481.8,934.5c6.6,0,12,-5.4,12,-12c0,-6.6,-5.4,-11.9,-12,-11.9c-6.6,0,-11.9,5.3,-11.9,11.9c0,6.6,5.3,12,11.9,12Z" class="g1_4"/>
<path d="M481.8,962.3c6.6,0,12,-5.3,12,-11.9c0,-6.6,-5.4,-12,-12,-12c-6.6,0,-11.9,5.4,-11.9,12c0,6.6,5.3,11.9,11.9,11.9Z" class="g1_4"/>
<path d="M481.8,1099.4c6.6,0,12,-5.4,12,-12c0,-6.6,-5.4,-11.9,-12,-11.9c-6.6,0,-11.9,5.3,-11.9,11.9c0,6.6,5.3,12,11.9,12Z" class="g1_4"/>
<path d="M641.4,753.4c6.6,0,12,-5.3,12,-11.9c0,-6.6,-5.4,-12,-12,-12c-6.6,0,-11.9,5.4,-11.9,12c0,6.6,5.3,11.9,11.9,11.9Z" class="g1_4"/>
<image preserveAspectRatio="none" x="471" y="1164" width="377" height="70" xlink:href="img/32.webp"/>
<image preserveAspectRatio="none" x="459" y="1123" width="412" height="137" xlink:href="img/33.webp"/>
<image preserveAspectRatio="none" x="133" y="447" width="119" height="107" xlink:href="img/34.webp"/>
<g clip-path="url(#c2_4)">
<path d="M123.1,504l94.6,54.6l38.9,-67.4L162,436.6Z" class="g2_4"/>
</g>
<image preserveAspectRatio="none" x="123" y="436" width="134" height="122" xlink:href="img/35.webp"/>
<image preserveAspectRatio="none" x="147" y="467" width="27" height="27" xlink:href="img/36.webp"/>
<image preserveAspectRatio="none" x="194" y="493" width="12" height="12" xlink:href="img/37.webp"/>
<image preserveAspectRatio="none" x="187" y="505" width="12" height="12" xlink:href="img/38.webp"/>
<image preserveAspectRatio="none" x="190" y="499" width="12" height="12" xlink:href="img/39.webp"/>
<image preserveAspectRatio="none" x="161" y="460" width="13" height="13" xlink:href="img/40.webp"/>
<image preserveAspectRatio="none" x="167" y="454" width="10" height="9" xlink:href="img/41.webp"/>
<image preserveAspectRatio="none" x="141" y="487" width="20" height="18" xlink:href="img/42.webp"/>
<image preserveAspectRatio="none" x="163" y="414" width="109" height="119" xlink:href="img/43.webp"/>
<g clip-path="url(#c3_4)">
<path d="M154,442.3l54.6,94.6L276,498L221.4,403.4Z" class="g2_4"/>
</g>
<image preserveAspectRatio="none" x="154" y="403" width="122" height="134" xlink:href="img/44.webp"/>
<image preserveAspectRatio="none" x="202" y="471" width="13" height="12" xlink:href="img/45.webp"/>
<image preserveAspectRatio="none" x="209" y="467" width="12" height="13" xlink:href="img/46.webp"/>
<image preserveAspectRatio="none" x="209" y="424" width="12" height="12" xlink:href="img/47.webp"/>
<image preserveAspectRatio="none" x="185" y="427" width="27" height="27" xlink:href="img/48.webp"/>
<image preserveAspectRatio="none" x="174" y="440" width="17" height="19" xlink:href="img/49.webp"/>
<image preserveAspectRatio="none" x="215" y="414" width="72" height="104" xlink:href="img/50.webp"/>
<g clip-path="url(#c4_4)">
<path d="M209.4,516.9h77.8V407.6H209.4V516.9Z" class="g2_4"/>
</g>
<image preserveAspectRatio="none" x="210" y="408" width="77" height="109" xlink:href="img/51.webp"/>
<image preserveAspectRatio="none" x="225" y="459" width="7" height="7" xlink:href="img/52.webp"/>
<image preserveAspectRatio="none" x="231" y="459" width="7" height="7" xlink:href="img/53.webp"/>
<image preserveAspectRatio="none" x="239" y="419" width="19" height="19" xlink:href="img/54.webp"/>
<image preserveAspectRatio="none" x="225" y="420" width="10" height="17" xlink:href="img/55.webp"/>
<image preserveAspectRatio="none" x="231" y="414" width="107" height="119" xlink:href="img/56.webp"/>
<g clip-path="url(#c5_4)">
<path d="M275.3,403.1l-54.7,94.6l67.4,39L342.7,442Z" class="g2_4"/>
</g>
<image preserveAspectRatio="none" x="221" y="403" width="122" height="134" xlink:href="img/57.webp"/>
<image preserveAspectRatio="none" x="276" y="467" width="9" height="9" xlink:href="img/58.webp"/>
<image preserveAspectRatio="none" x="267" y="461" width="9" height="9" xlink:href="img/59.webp"/>
<image preserveAspectRatio="none" x="271" y="464" width="9" height="9" xlink:href="img/60.webp"/>
<image preserveAspectRatio="none" x="286" y="428" width="26" height="26" xlink:href="img/61.webp"/>
<image preserveAspectRatio="none" x="310" y="443" width="12" height="13" xlink:href="img/62.webp"/>
<image preserveAspectRatio="none" x="275" y="421" width="17" height="20" xlink:href="img/63.webp"/>
<image preserveAspectRatio="none" x="249" y="447" width="121" height="107" xlink:href="img/64.webp"/>
<g clip-path="url(#c6_4)">
<path d="M334.9,436l-94.6,54.6L279.2,558l94.6,-54.6Z" class="g2_4"/>
</g>
<image preserveAspectRatio="none" x="240" y="436" width="134" height="122" xlink:href="img/65.webp"/>
<image preserveAspectRatio="none" x="294" y="484" width="12" height="13" xlink:href="img/66.webp"/>
<image preserveAspectRatio="none" x="298" y="491" width="12" height="12" xlink:href="img/67.webp"/>
<image preserveAspectRatio="none" x="323" y="467" width="27" height="27" xlink:href="img/68.webp"/>
<image preserveAspectRatio="none" x="318" y="456" width="20" height="17" xlink:href="img/69.webp"/>
<image preserveAspectRatio="none" x="532" y="130" width="133" height="119" xlink:href="img/70.webp"/>
<image preserveAspectRatio="none" x="532" y="128" width="127" height="114" xlink:href="img/71.webp"/>
<image preserveAspectRatio="none" x="567" y="91" width="119" height="133" xlink:href="img/72.webp"/>
<image preserveAspectRatio="none" x="567" y="91" width="114" height="127" xlink:href="img/73.webp"/>
<image preserveAspectRatio="none" x="623" y="91" width="81" height="115" xlink:href="img/74.webp"/>
<image preserveAspectRatio="none" x="626" y="93" width="71" height="105" xlink:href="img/75.webp"/>
<image preserveAspectRatio="none" x="642" y="91" width="119" height="133" xlink:href="img/76.webp"/>
<image preserveAspectRatio="none" x="642" y="91" width="114" height="127" xlink:href="img/77.webp"/>
<image preserveAspectRatio="none" x="663" y="128" width="133" height="121" xlink:href="img/78.webp"/>
<image preserveAspectRatio="none" x="664" y="128" width="127" height="114" xlink:href="img/79.webp"/>
</svg>