<?xml version="1.0" encoding="UTF-8" standalone="no"?>
<!DOCTYPE svg PUBLIC "-//W3C//DTD SVG 1.1//EN"
"http://www.w3.org/Graphics/SVG/1.1/DTD/svg11.dtd">
<svg viewBox="0 0 909 1286" version="1.1" xmlns="http://www.w3.org/2000/svg" xmlns:xlink="http://www.w3.org/1999/xlink">
<defs>
<clipPath id="c0_7"><path d="M0,322.1V.1H428.3v322Z"/></clipPath>
<clipPath id="c1_7"><path d="M427.4,322.1V.1H856.5v322Z"/></clipPath>
<clipPath id="c2_7"><path d="M855.6,1286.2V.1H909V1286.2Z"/></clipPath>
<clipPath id="c3_7"><path d="M0,643.8V321.1H428.3V643.8Z"/></clipPath>
<clipPath id="c4_7"><path d="M427.5,643.7V321.2H856.4V643.7Z"/></clipPath>
<clipPath id="c5_7"><path d="M0,965.2V642.9H428.3V965.2Z"/></clipPath>
<clipPath id="c6_7"><path d="M427.5,965V643H856.4V965Z"/></clipPath>
<clipPath id="c7_7"><path d="M0,1286.2V964.3H428.3v321.9Z"/></clipPath>
<clipPath id="c8_7"><path d="M427.4,1286.2V964.3H856.5v321.9Z"/></clipPath>
<clipPath id="c9_7"><path d="M427.2,113.2V54.9h36.4v58.3Z"/></clipPath>
<clipPath id="ca_7"><path d="M36.9,100V70.2h113V100Z"/></clipPath>
<clipPath id="cb_7"><path d="M21.6,259.6V183.9H402.4v75.7Z"/></clipPath>
<clipPath id="cc_7"><path d="M403.1,245.4V186H555.4v59.4Z"/></clipPath>
<clipPath id="cd_7"><path d="M36.9,330.7V300.8h113v29.9Z"/></clipPath>
<clipPath id="ce_7"><path d="M36.9,368.9V339.1H154.2v29.8Z"/></clipPath>
<clipPath id="cf_7"><path d="M42.4,485.9V375.1H152.1V485.9Z"/></clipPath>
<clipPath id="cg_7"><path d="M552.9,471.7V425.4H723.7v46.3Z"/></clipPath>
<clipPath id="ch_7"><path d="M442.5,560.2V530.4H555.4v29.8Z"/></clipPath>
<clipPath id="ci_7"><path d="M442.5,943.9V914H555.4v29.9Z"/></clipPath>
<clipPath id="cj_7"><path d="M551.8,1066.3v-46.2H725.9v46.2Z"/></clipPath>
<clipPath id="ck_7"><path d="M442.5,1136.3v-29.9H555.4v29.9Z"/></clipPath>
<clipPath id="cl_7"><path d="M374.7,1248.9v-44.1H494.2v44.1Z"/></clipPath>
<clipPath id="cm_7"><path d="M466.5,125.2V49.4h383v75.8Z"/></clipPath>
<clipPath id="cn_7"><path d="M427.2,854.3V778.5H849.5v75.8Z"/></clipPath>
</defs>
<image clip-path="url(#c0_7)" preserveAspectRatio="none" x="0" y="0" width="428" height="322" xlink:href="img/1.jpg"/>
<image clip-path="url(#c1_7)" preserveAspectRatio="none" x="427" y="0" width="430" height="322" xlink:href="img/2.jpg"/>
<image clip-path="url(#c2_7)" preserveAspectRatio="none" x="856" y="0" width="54" height="1287" xlink:href="img/3.jpg"/>
<image clip-path="url(#c3_7)" preserveAspectRatio="none" x="0" y="321" width="428" height="323" xlink:href="img/4.jpg"/>
<image clip-path="url(#c4_7)" preserveAspectRatio="none" x="427" y="321" width="430" height="323" xlink:href="img/5.jpg"/>
<image clip-path="url(#c5_7)" preserveAspectRatio="none" x="0" y="643" width="428" height="322" xlink:href="img/6.jpg"/>
<image clip-path="url(#c6_7)" preserveAspectRatio="none" x="427" y="643" width="430" height="322" xlink:href="img/7.jpg"/>
<image clip-path="url(#c7_7)" preserveAspectRatio="none" x="0" y="964" width="428" height="323" xlink:href="img/8.jpg"/>
<image clip-path="url(#c8_7)" preserveAspectRatio="none" x="427" y="964" width="430" height="323" xlink:href="img/9.jpg"/>
<image clip-path="url(#c9_7)" preserveAspectRatio="none" x="427" y="55" width="37" height="58" xlink:href="img/10.jpg"/>
<image clip-path="url(#ca_7)" preserveAspectRatio="none" x="37" y="70" width="113" height="30" xlink:href="img/11.jpg"/>
<image clip-path="url(#cb_7)" preserveAspectRatio="none" x="21" y="184" width="381" height="76" xlink:href="img/12.jpg"/>
<image clip-path="url(#cc_7)" preserveAspectRatio="none" x="403" y="186" width="153" height="60" xlink:href="img/13.jpg"/>
<image clip-path="url(#cd_7)" preserveAspectRatio="none" x="37" y="301" width="113" height="30" xlink:href="img/14.jpg"/>
<image clip-path="url(#ce_7)" preserveAspectRatio="none" x="37" y="339" width="117" height="30" xlink:href="img/15.jpg"/>
<image clip-path="url(#cf_7)" preserveAspectRatio="none" x="42" y="375" width="110" height="111" xlink:href="img/16.jpg"/>
<image clip-path="url(#cg_7)" preserveAspectRatio="none" x="553" y="425" width="171" height="47" xlink:href="img/17.jpg"/>
<image clip-path="url(#ch_7)" preserveAspectRatio="none" x="442" y="530" width="114" height="30" xlink:href="img/18.jpg"/>
<image clip-path="url(#ci_7)" preserveAspectRatio="none" x="442" y="914" width="114" height="30" xlink:href="img/19.jpg"/>
<image clip-path="url(#cj_7)" preserveAspectRatio="none" x="552" y="1020" width="174" height="46" xlink:href="img/20.jpg"/>
<image clip-path="url(#ck_7)" preserveAspectRatio="none" x="442" y="1106" width="114" height="30" xlink:href="img/21.jpg"/>
<image clip-path="url(#cl_7)" preserveAspectRatio="none" x="375" y="1205" width="119" height="44" xlink:href="img/22.jpg"/>
<image clip-path="url(#cm_7)" preserveAspectRatio="none" x="466" y="49" width="384" height="76" xlink:href="img/23.jpg"/>
<image clip-path="url(#cn_7)" preserveAspectRatio="none" x="427" y="778" width="423" height="76" xlink:href="img/24.jpg"/>
</svg>