<?xml version="1.0" encoding="UTF-8" standalone="no"?>
<!DOCTYPE svg PUBLIC "-//W3C//DTD SVG 1.1//EN"
"http://www.w3.org/Graphics/SVG/1.1/DTD/svg11.dtd">
<svg viewBox="0 0 909 1286" version="1.1" xmlns="http://www.w3.org/2000/svg" xmlns:xlink="http://www.w3.org/1999/xlink">
<defs>
<clipPath id="c0_3"><path d="M0,375.2V.1H374.4V375.2Z"/></clipPath>
<clipPath id="c1_3"><path d="M373.5,375.2V.1H749.7V375.2Z"/></clipPath>
<clipPath id="c2_3"><path d="M748.7,857.9V.1H909V857.9Z"/></clipPath>
<clipPath id="c3_3"><path d="M0,750.9V374.3H374.4V750.9Z"/></clipPath>
<clipPath id="c4_3"><path d="M373.6,750.8V374.5h376V750.8Z"/></clipPath>
<clipPath id="c5_3"><path d="M0,1126.2V750H374.4v376.2Z"/></clipPath>
<clipPath id="c6_3"><path d="M373.6,1126V750.1h376V1126Z"/></clipPath>
<clipPath id="c7_3"><path d="M748.7,1286.2V857H909v429.2Z"/></clipPath>
<clipPath id="c8_3"><path d="M0,1286.2v-161H749.7v161Z"/></clipPath>
</defs>
<image clip-path="url(#c0_3)" preserveAspectRatio="none" x="0" y="0" width="374" height="375" xlink:href="img/1.webp"/>
<image clip-path="url(#c1_3)" preserveAspectRatio="none" x="373" y="0" width="377" height="375" xlink:href="img/2.webp"/>
<image clip-path="url(#c2_3)" preserveAspectRatio="none" x="749" y="0" width="161" height="858" xlink:href="img/3.webp"/>
<image clip-path="url(#c3_3)" preserveAspectRatio="none" x="0" y="374" width="374" height="377" xlink:href="img/4.webp"/>
<image clip-path="url(#c4_3)" preserveAspectRatio="none" x="373" y="374" width="377" height="377" xlink:href="img/5.webp"/>
<image clip-path="url(#c5_3)" preserveAspectRatio="none" x="0" y="750" width="374" height="376" xlink:href="img/6.webp"/>
<image clip-path="url(#c6_3)" preserveAspectRatio="none" x="373" y="750" width="377" height="376" xlink:href="img/7.webp"/>
<image clip-path="url(#c7_3)" preserveAspectRatio="none" x="749" y="857" width="161" height="430" xlink:href="img/8.webp"/>
<image clip-path="url(#c8_3)" preserveAspectRatio="none" x="0" y="1125" width="750" height="162" xlink:href="img/9.webp"/>
</svg>