<?xml version="1.0" encoding="UTF-8" standalone="no"?>
<!DOCTYPE svg PUBLIC "-//W3C//DTD SVG 1.1//EN"
"http://www.w3.org/Graphics/SVG/1.1/DTD/svg11.dtd">
<svg viewBox="0 0 909 1286" version="1.1" xmlns="http://www.w3.org/2000/svg" xmlns:xlink="http://www.w3.org/1999/xlink">
<defs>
<clipPath id="c0_12"><path d="M0,268.2V.1H321V268.2Z"/></clipPath>
<clipPath id="c1_12"><path d="M320.3,268.2V.1H642.6V268.2Z"/></clipPath>
<clipPath id="c2_12"><path d="M641.7,321.7V.1H909V321.7Z"/></clipPath>
<clipPath id="c3_12"><path d="M0,536.2V267.4H321V536.2Z"/></clipPath>
<clipPath id="c4_12"><path d="M320.3,536V267.4H642.4V536Z"/></clipPath>
<clipPath id="c5_12"><path d="M641.7,643.6V320.8H909V643.6Z"/></clipPath>
<clipPath id="c6_12"><path d="M0,804.4V535.3H321V804.4Z"/></clipPath>
<clipPath id="c7_12"><path d="M320.3,804.3V535.4H642.4V804.3Z"/></clipPath>
<clipPath id="c8_12"><path d="M641.7,965.4V642.9H909V965.4Z"/></clipPath>
<clipPath id="c9_12"><path d="M0,1072.6V803.7H321v268.9Z"/></clipPath>
<clipPath id="ca_12"><path d="M320.3,1072.6V803.7H642.4v268.9Z"/></clipPath>
<clipPath id="cb_12"><path d="M641.7,1286.2V964.6H909v321.6Z"/></clipPath>
<clipPath id="cc_12"><path d="M0,1286.2V1071.9H428.1v214.3Z"/></clipPath>
<clipPath id="cd_12"><path d="M427.2,1286.2V1071.9H642.6v214.3Z"/></clipPath>
</defs>
<image clip-path="url(#c0_12)" preserveAspectRatio="none" x="0" y="0" width="321" height="268" xlink:href="img/1.webp"/>
<image clip-path="url(#c1_12)" preserveAspectRatio="none" x="320" y="0" width="323" height="268" xlink:href="img/2.webp"/>
<image clip-path="url(#c2_12)" preserveAspectRatio="none" x="642" y="0" width="268" height="322" xlink:href="img/3.webp"/>
<image clip-path="url(#c3_12)" preserveAspectRatio="none" x="0" y="267" width="321" height="269" xlink:href="img/4.webp"/>
<image clip-path="url(#c4_12)" preserveAspectRatio="none" x="320" y="267" width="323" height="269" xlink:href="img/5.webp"/>
<image clip-path="url(#c5_12)" preserveAspectRatio="none" x="642" y="321" width="268" height="323" xlink:href="img/6.webp"/>
<image clip-path="url(#c6_12)" preserveAspectRatio="none" x="0" y="535" width="321" height="269" xlink:href="img/7.webp"/>
<image clip-path="url(#c7_12)" preserveAspectRatio="none" x="320" y="535" width="323" height="269" xlink:href="img/8.webp"/>
<image clip-path="url(#c8_12)" preserveAspectRatio="none" x="642" y="643" width="268" height="322" xlink:href="img/9.webp"/>
<image clip-path="url(#c9_12)" preserveAspectRatio="none" x="0" y="804" width="321" height="269" xlink:href="img/10.webp"/>
<image clip-path="url(#ca_12)" preserveAspectRatio="none" x="320" y="804" width="323" height="269" xlink:href="img/11.webp"/>
<image clip-path="url(#cb_12)" preserveAspectRatio="none" x="642" y="965" width="268" height="322" xlink:href="img/12.webp"/>
<image clip-path="url(#cc_12)" preserveAspectRatio="none" x="0" y="1072" width="428" height="215" xlink:href="img/13.webp"/>
<image clip-path="url(#cd_12)" preserveAspectRatio="none" x="427" y="1072" width="216" height="215" xlink:href="img/14.webp"/>
</svg>