<?xml version="1.0" encoding="UTF-8" standalone="no"?>
<!DOCTYPE svg PUBLIC "-//W3C//DTD SVG 1.1//EN"
"http://www.w3.org/Graphics/SVG/1.1/DTD/svg11.dtd">
<svg viewBox="0 0 908 1286" version="1.1" xmlns="http://www.w3.org/2000/svg" xmlns:xlink="http://www.w3.org/1999/xlink">
<defs>
<clipPath id="c0_2"><path d="M0,1285.7V0H909V1285.7Z"/></clipPath>
<clipPath id="c1_2"><path d="M43.3,863V379.9h824V863Z"/></clipPath>
<clipPath id="c2_2"><path d="M384.4,599.7V459.1H529.3V599.7Z"/></clipPath>
<clipPath id="c3_2"><path d="M67,599.2V458.9H360.8V599.2Z"/></clipPath>
<clipPath id="c4_2"><path d="M551.7,599.2V458.9H845.5V599.2Z"/></clipPath>
<clipPath id="c5_2"><path d="M343.9,446.3v-53h53v53Z"/></clipPath>
<clipPath id="c6_2"><path d="M429.7,446.3v-53h52.9v53Z"/></clipPath>
<clipPath id="c7_2"><path d="M513.3,446.4V393.3h54v53.1Z"/></clipPath>
<clipPath id="c8_2"><path d="M111.9,688.4c-14.9,0,-27,-12,-27.1,-26.9v-.4c.1,-14.9,12.2,-26.9,27.1,-26.9c15,0,27.1,12.1,27.1,27v.2c0,14.9,-12.1,27,-27.1,27Z"/></clipPath>
<clipPath id="c9_2"><path d="M204.2,686.8c-14.5,0,-26.3,-11.8,-26.3,-26.3c0,-14.5,11.8,-26.3,26.3,-26.3c14.6,0,26.3,11.7,26.4,26.3v.1c-.1,14.5,-11.8,26.2,-26.4,26.2Z"/></clipPath>
<clipPath id="ca_2"><path d="M296.3,687.7c-14.4,-.2,-26,-11.9,-26.1,-26.3v-.2C270.3,646.7,282,635,296.6,635c14.4,0,26.2,11.7,26.3,26.1v.4c-.1,14.4,-11.7,26,-26.1,26.2Z"/></clipPath>
<clipPath id="cb_2"><path d="M388.9,686.8c-14.6,0,-26.3,-11.8,-26.3,-26.3c0,-14.5,11.7,-26.3,26.3,-26.3c14.5,0,26.3,11.8,26.3,26.3c0,14.5,-11.8,26.3,-26.3,26.3Z"/></clipPath>
<clipPath id="cc_2"><path d="M480.2,687.7c-14.4,-.2,-26.1,-11.9,-26.1,-26.3v-.2c0,-14.5,11.8,-26.2,26.3,-26.2c14.5,0,26.2,11.7,26.3,26.1v.4c-.1,14.4,-11.7,26,-26.1,26.2Z"/></clipPath>
<clipPath id="cd_2"><path d="M572.7,687.7c-14.4,-.2,-26.1,-11.9,-26.1,-26.3v-.2c0,-14.5,11.8,-26.2,26.3,-26.2c14.5,0,26.2,11.7,26.3,26.2v.3c-.1,14.4,-11.7,26,-26.1,26.2Z"/></clipPath>
<clipPath id="ce_2"><path d="M664.3,687.7c-14.4,-.2,-26.1,-11.9,-26.1,-26.4C638.2,646.8,650,635,664.6,635c14.4,0,26.2,11.7,26.3,26.1v.4c-.1,14.4,-11.7,26,-26.1,26.2Z"/></clipPath>
<clipPath id="cf_2"><path d="M756.8,687.7c-14.4,-.2,-26,-11.9,-26.1,-26.3v-.2c.1,-14.5,11.8,-26.2,26.4,-26.2c14.4,0,26.2,11.7,26.3,26.1v.4c-.1,14.4,-11.7,26,-26.1,26.2Z"/></clipPath>
<clipPath id="cg_2"><path d="M735.8,840.5c-8.6,0,-8.6,-8.5,-8.6,-8.7V709.5c0,-8.7,8.6,-8.7,8.6,-8.7h75.9c8.6,0,8.6,8.7,8.6,8.7V831.8c0,8.7,-8.6,8.7,-8.6,8.7Z"/></clipPath>
<clipPath id="ch_2"><path d="M101.7,367.1V314.7H807.3v52.4Z"/></clipPath>
<clipPath id="ci_2"><path d="M130.5,517.5L115.8,492l3,-1.8L138.2,479l14.7,25.6l-22.4,12.9Z"/></clipPath>
<clipPath id="cj_2"><path d="M226.2,594.4l-7.4,-10.2L211,573.4l4.3,-3l19.6,-14.3l5.9,8.2l9.3,12.7l-23.9,17.4Z"/></clipPath>
<clipPath id="ck_2"><path d="M302.7,538.8L287.5,517.9l9.9,-7.2l13.9,-10.1l5.3,7.2l10,13.7l-14,10.2l-9.9,7.1Z"/></clipPath>
<clipPath id="cl_2"><path d="M113.4,553.3l-2.6,-9.2l-4.5,-15.7l28.3,-8.1l7.2,24.8l-20.2,5.8l-8.2,2.4Zm21.2,-33v0Z"/></clipPath>
<clipPath id="cm_2"><path d="M221.4,500.6l-24.6,-8l9.1,-28.1l13.1,4.3l11.5,3.7l-2.9,9l-6.2,19.1Z"/></clipPath>
<clipPath id="cn_2"><path d="M208.5,538.9L184.8,525.3L183,524.2l9.8,-17l3.1,-5.4l25.6,14.7l-3.5,6l-9.5,16.4Z"/></clipPath>
<clipPath id="co_2"><path d="M257.8,565.3l-6.5,-3.7l-19,-11l12.9,-22.4l11.3,6.5l14.2,8.2l-9.9,17.3l-3,5.1Z"/></clipPath>
<clipPath id="cp_2"><path d="M191.5,572.4l-4.1,-29.2L213,539.6l4.1,29.2l-18.5,2.6l-7.1,1Z"/></clipPath>
<clipPath id="cq_2"><path d="M258.5,511.7L232.9,497l13,-22.4l25.5,14.7l-12.9,22.4Z"/></clipPath>
<clipPath id="cr_2"><path d="M197.9,511.7l-29.5,-1l1,-25.9l29.4,1.1l-.9,25.8Z"/></clipPath>
<clipPath id="cs_2"><path d="M229.1,536.8L214.6,511.7l-.3,-.5l5.5,-3.1l17,-9.8l14.7,25.5l-22.4,13Z"/></clipPath>
<clipPath id="ct_2"><path d="M167.2,570l-24.6,-8l9.1,-28.1l13.5,4.4l11.1,3.6l-3.2,9.9L167.2,570Z"/></clipPath>
<clipPath id="cu_2"><path d="M100.4,115.7V63.3H806v52.4Z"/></clipPath>
<style type="text/css"><![CDATA[
.g0_2{
fill: #FFFFFF;
}
.g1_2{
}
.g2_2{
fill: none;
stroke: #FFFFFF;
stroke-width: 1.527;
stroke-linecap: butt;
stroke-linejoin: miter;
}
.g3_2{
fill: none;
stroke: #8E1537;
stroke-width: 0.799;
stroke-linecap: butt;
stroke-linejoin: miter;
}
]]></style>
</defs>
<g clip-path="url(#c0_2)">
<path d="M0,522.1H909V1807.8H0V522.1Z" class="g0_2"/>
<image preserveAspectRatio="none" x="-21" y="-21" width="932" height="1328" xlink:href="img/1.webp"/>
</g>
<path d="M30.8,1266.2l.2,-.2c.2,0,.2,-.1,.2,-.3c0,-.4,0,-.9,-.2,-1.7l-.2,-.7v-.2c0,-.1,-.1,-.2,-.3,-.2q-.1,0,-.2,.1c-.1,.1,-.2,.1,-.3,.1c0,0,-.1,0,-.1,-.1c-.1,0,-.2,0,-.2,0c-.1,0,-.1,.1,-.2,.1c-.1,.1,-.3,.1,-.5,.1l-.2,.1l-.1,.2c0,.3,.1,.8,.3,1.4c.1,0,.2,0,.2,.1l.1,.2c.2,0,.3,0,.3,0c.1,.1,.2,.1,.2,.2l-.1,.2l-.2,.2l-2.4,.2c-.1,0,-.2,-.1,-.3,-.2v-.2c-.1,-.1,-.2,-1,-.3,-2.5l.1,-.2l.8,-.7c.7,-.6,1.7,-1.5,3,-2.6l.1,-.1c0,0,0,-.1,.1,-.2c0,-.1,0,-.2,0,-.4c0,-.2,.1,-.5,.1,-.9c.1,-.4,.2,-.7,.2,-.9c0,-1,-.1,-1.6,-.3,-1.8v-.2c.1,-.1,.2,-.2,.3,-.4l-.1,-.3l-.2,-.1c-.8,-.1,-1.5,-.1,-2.1,-.1c-.2,0,-.6,0,-1.2,.1c-.5,.1,-.9,.1,-1.2,.1c-.2,.2,-.4,.3,-.7,.5h-.2l-.2,-.1c-.1,-.2,-.1,-.3,-.3,-.3h-.2l-.1,.2c-.2,.7,-.3,2,-.3,4c0,.2,.1,.3,.3,.3c.1,0,.2,-.1,.4,-.2c.1,-.1,.2,-.2,.3,-.1c.1,-.1,.3,-.1,.5,-.1l.1,.2c.1,.4,.3,.6,.4,.6h.1l.2,-.2v-.2c0,-.3,0,-1.1,0,-2.4c0,-.7,0,-1.2,0,-1.3c.2,-.3,.6,-.4,1.2,-.4c.4,0,.7,.8,.9,2.4c.1,.9,.1,1.9,.1,2.9l-.1,.3c-.7,.6,-1.9,1.6,-3.4,2.9c-.2,.2,-.5,.4,-.8,.7c-.1,.2,-.2,.5,-.2,1.1c0,.1,0,.2,.1,.3l.1,.1c.1,0,.4,.1,.9,.3l.1,.2v.1c.2,.3,.3,.5,.5,.5c.4,0,1.3,-.1,2.7,-.2c1.5,-.2,2.2,-.3,2.3,-.3Z" class="g1_2"/>
<image clip-path="url(#c1_2)" preserveAspectRatio="none" x="43" y="380" width="825" height="483" xlink:href="img/2.webp"/>
<image clip-path="url(#c0_2)" preserveAspectRatio="none" x="70" y="701" width="90" height="139" xlink:href="img/3.webp"/>
<image clip-path="url(#c2_2)" preserveAspectRatio="none" x="384" y="459" width="145" height="141" xlink:href="img/4.webp"/>
<image clip-path="url(#c3_2)" preserveAspectRatio="none" x="67" y="459" width="294" height="140" xlink:href="img/5.webp"/>
<image clip-path="url(#c4_2)" preserveAspectRatio="none" x="551" y="459" width="295" height="140" xlink:href="img/6.webp"/>
<image clip-path="url(#c5_2)" preserveAspectRatio="none" x="344" y="393" width="53" height="54" xlink:href="img/7.webp"/>
<image clip-path="url(#c6_2)" preserveAspectRatio="none" x="429" y="393" width="54" height="54" xlink:href="img/8.webp"/>
<image clip-path="url(#c7_2)" preserveAspectRatio="none" x="513" y="393" width="55" height="54" xlink:href="img/9.webp"/>
<image clip-path="url(#c8_2)" preserveAspectRatio="none" x="85" y="634" width="54" height="55" xlink:href="img/10.webp"/>
<image clip-path="url(#c9_2)" preserveAspectRatio="none" x="178" y="634" width="53" height="53" xlink:href="img/11.webp"/>
<image clip-path="url(#ca_2)" preserveAspectRatio="none" x="270" y="635" width="53" height="53" xlink:href="img/12.webp"/>
<image clip-path="url(#cb_2)" preserveAspectRatio="none" x="362" y="634" width="53" height="53" xlink:href="img/13.webp"/>
<image clip-path="url(#cc_2)" preserveAspectRatio="none" x="454" y="635" width="53" height="53" xlink:href="img/14.webp"/>
<image clip-path="url(#cd_2)" preserveAspectRatio="none" x="546" y="635" width="53" height="53" xlink:href="img/15.webp"/>
<image clip-path="url(#ce_2)" preserveAspectRatio="none" x="638" y="635" width="53" height="53" xlink:href="img/16.webp"/>
<image clip-path="url(#cf_2)" preserveAspectRatio="none" x="730" y="635" width="54" height="53" xlink:href="img/17.webp"/>
<image clip-path="url(#cg_2)" preserveAspectRatio="none" x="727" y="701" width="93" height="140" xlink:href="img/18.webp"/>
<image clip-path="url(#ch_2)" preserveAspectRatio="none" x="102" y="315" width="705" height="52" xlink:href="img/19.webp"/>
<path d="M317.4,434.4c8.3,0,14.9,-6.7,14.9,-15c0,-8.2,-6.6,-14.9,-14.9,-14.9c-8.2,0,-14.9,6.7,-14.9,14.9c0,8.3,6.7,15,14.9,15Z" class="g1_2"/>
<path d="M317.4,434.4c8.3,0,14.9,-6.7,14.9,-15c0,-8.2,-6.6,-14.9,-14.9,-14.9c-8.2,0,-14.9,6.7,-14.9,14.9c0,8.3,6.7,15,14.9,15Z" class="g2_2"/>
<path d="M75.8,483.7c8.2,0,14.9,-6.7,14.9,-15c0,-8.2,-6.7,-14.9,-14.9,-14.9c-8.3,0,-15,6.7,-15,14.9c0,8.3,6.7,15,15,15Z" class="g1_2"/>
<path d="M75.8,483.7c8.2,0,14.9,-6.7,14.9,-15c0,-8.2,-6.7,-14.9,-14.9,-14.9c-8.3,0,-15,6.7,-15,14.9c0,8.3,6.7,15,15,15Z" class="g2_2"/>
<path d="M554,483.7c8.2,0,14.9,-6.7,14.9,-15c0,-8.2,-6.7,-14.9,-14.9,-14.9c-8.3,0,-14.9,6.7,-14.9,14.9c0,8.3,6.6,15,14.9,15Z" class="g1_2"/>
<path d="M554,483.7c8.2,0,14.9,-6.7,14.9,-15c0,-8.2,-6.7,-14.9,-14.9,-14.9c-8.3,0,-14.9,6.7,-14.9,14.9c0,8.3,6.6,15,14.9,15Z" class="g2_2"/>
<path d="M387.3,483.7c8.2,0,14.9,-6.7,14.9,-15c0,-8.2,-6.7,-14.9,-14.9,-14.9c-8.3,0,-15,6.7,-15,14.9c0,8.3,6.7,15,15,15Z" class="g1_2"/>
<path d="M387.3,483.7c8.2,0,14.9,-6.7,14.9,-15c0,-8.2,-6.7,-14.9,-14.9,-14.9c-8.3,0,-15,6.7,-15,14.9c0,8.3,6.7,15,15,15Z" class="g2_2"/>
<path d="M63.5,677.8c8.2,0,14.9,-6.6,14.9,-14.9C78.4,654.7,71.7,648,63.5,648c-8.3,0,-15,6.7,-15,14.9c0,8.3,6.7,14.9,15,14.9Z" class="g1_2"/>
<path d="M63.5,677.8c8.2,0,14.9,-6.6,14.9,-14.9C78.4,654.7,71.7,648,63.5,648c-8.3,0,-15,6.7,-15,14.9c0,8.3,6.7,14.9,15,14.9Z" class="g2_2"/>
<path d="M44.4,731.5c8.2,0,14.9,-6.7,14.9,-14.9c0,-8.3,-6.7,-15,-14.9,-15c-8.3,0,-15,6.7,-15,15c0,8.2,6.7,14.9,15,14.9Z" class="g1_2"/>
<path d="M44.4,731.5c8.2,0,14.9,-6.7,14.9,-14.9c0,-8.3,-6.7,-15,-14.9,-15c-8.3,0,-15,6.7,-15,15c0,8.2,6.7,14.9,15,14.9Z" class="g2_2"/>
<path d="M115.8,784.3c8.2,0,14.9,-6.7,14.9,-14.9c0,-8.3,-6.7,-15,-14.9,-15c-8.3,0,-15,6.7,-15,15c0,8.2,6.7,14.9,15,14.9Z" class="g1_2"/>
<path d="M115.8,784.3c8.2,0,14.9,-6.7,14.9,-14.9c0,-8.3,-6.7,-15,-14.9,-15c-8.3,0,-15,6.7,-15,15c0,8.2,6.7,14.9,15,14.9Z" class="g2_2"/>
<image clip-path="url(#ci_2)" preserveAspectRatio="none" x="115" y="479" width="38" height="39" xlink:href="img/20.webp"/>
<image clip-path="url(#cj_2)" preserveAspectRatio="none" x="211" y="556" width="39" height="39" xlink:href="img/21.webp"/>
<image clip-path="url(#ck_2)" preserveAspectRatio="none" x="287" y="501" width="40" height="38" xlink:href="img/22.webp"/>
<image clip-path="url(#cl_2)" preserveAspectRatio="none" x="106" y="520" width="36" height="33" xlink:href="img/23.webp"/>
<image clip-path="url(#cm_2)" preserveAspectRatio="none" x="197" y="464" width="34" height="37" xlink:href="img/24.webp"/>
<image clip-path="url(#cn_2)" preserveAspectRatio="none" x="183" y="502" width="38" height="37" xlink:href="img/25.webp"/>
<image clip-path="url(#co_2)" preserveAspectRatio="none" x="232" y="528" width="39" height="37" xlink:href="img/26.webp"/>
<image clip-path="url(#cp_2)" preserveAspectRatio="none" x="187" y="539" width="30" height="34" xlink:href="img/27.webp"/>
<image clip-path="url(#cq_2)" preserveAspectRatio="none" x="233" y="474" width="39" height="38" xlink:href="img/28.webp"/>
<image clip-path="url(#cr_2)" preserveAspectRatio="none" x="168" y="485" width="31" height="27" xlink:href="img/29.webp"/>
<image clip-path="url(#cs_2)" preserveAspectRatio="none" x="214" y="498" width="38" height="39" xlink:href="img/30.webp"/>
<image clip-path="url(#ct_2)" preserveAspectRatio="none" x="142" y="534" width="34" height="36" xlink:href="img/31.webp"/>
<path d="M192,48.1h87.1" class="g3_2"/>
<image clip-path="url(#cu_2)" preserveAspectRatio="none" x="100" y="63" width="706" height="53" xlink:href="img/32.webp"/>
<path d="M50.8,939c4.1,0,7.4,-3.4,7.4,-7.5c0,-4.1,-3.3,-7.5,-7.4,-7.5c-4.2,0,-7.5,3.4,-7.5,7.5c0,4.1,3.3,7.5,7.5,7.5Z" class="g1_2"/>
<path d="M50.8,1039.2c4.1,0,7.4,-3.3,7.4,-7.4c0,-4.2,-3.3,-7.5,-7.4,-7.5c-4.2,0,-7.5,3.3,-7.5,7.5c0,4.1,3.3,7.4,7.5,7.4Z" class="g1_2"/>
<path d="M50.8,1139.5c4.1,0,7.4,-3.3,7.4,-7.4c0,-4.2,-3.3,-7.5,-7.4,-7.5c-4.2,0,-7.5,3.3,-7.5,7.5c0,4.1,3.3,7.4,7.5,7.4Z" class="g1_2"/>
<path d="M477.1,898c4.2,0,7.5,-3.4,7.5,-7.5c0,-4.1,-3.3,-7.4,-7.5,-7.4c-4.1,0,-7.4,3.3,-7.4,7.4c0,4.1,3.3,7.5,7.4,7.5Z" class="g1_2"/>
<path d="M477.1,996c4.2,0,7.5,-3.4,7.5,-7.5c0,-4.1,-3.3,-7.5,-7.5,-7.5c-4.1,0,-7.4,3.4,-7.4,7.5c0,4.1,3.3,7.5,7.4,7.5Z" class="g1_2"/>
<path d="M477.1,1075.7c4.2,0,7.5,-3.4,7.5,-7.5c0,-4.1,-3.3,-7.5,-7.5,-7.5c-4.1,0,-7.4,3.4,-7.4,7.5c0,4.1,3.3,7.5,7.4,7.5Z" class="g1_2"/>
<path d="M477.1,1137c4.2,0,7.5,-3.3,7.5,-7.5c0,-4.1,-3.3,-7.4,-7.5,-7.4c-4.1,0,-7.4,3.3,-7.4,7.4c0,4.2,3.3,7.5,7.4,7.5Z" class="g1_2"/>
<g clip-path="url(#c0_2)">
<image preserveAspectRatio="none" x="162" y="701" width="92" height="138" xlink:href="img/33.webp"/>
<image preserveAspectRatio="none" x="256" y="701" width="92" height="139" xlink:href="img/34.webp"/>
<image preserveAspectRatio="none" x="351" y="701" width="90" height="138" xlink:href="img/35.webp"/>
<image preserveAspectRatio="none" x="444" y="701" width="91" height="140" xlink:href="img/36.webp"/>
<image preserveAspectRatio="none" x="537" y="701" width="93" height="140" xlink:href="img/37.webp"/>
<image preserveAspectRatio="none" x="632" y="701" width="93" height="140" xlink:href="img/38.webp"/>
</g>
</svg>