<?xml version="1.0" encoding="UTF-8" standalone="no"?>
<!DOCTYPE svg PUBLIC "-//W3C//DTD SVG 1.1//EN"
"http://www.w3.org/Graphics/SVG/1.1/DTD/svg11.dtd">
<svg viewBox="0 0 908 1285" version="1.1" xmlns="http://www.w3.org/2000/svg" xmlns:xlink="http://www.w3.org/1999/xlink">
<defs>
<clipPath id="c0_11"><path d="M-33,291.5V-32.9H292.2V291.5Z"/></clipPath>
<clipPath id="c1_11"><path d="M291.5,291.5V-32.9H617.2V291.5Z"/></clipPath>
<clipPath id="c2_11"><path d="M616.4,291.5V-32.9H941.7V291.5Z"/></clipPath>
<clipPath id="c3_11"><path d="M-33,616.1V290.8H292.2V616.1Z"/></clipPath>
<clipPath id="c4_11"><path d="M616.4,616.1V290.8H941.7V616.1Z"/></clipPath>
<clipPath id="c5_11"><path d="M-33,940.7V615.4H292.2V940.7Z"/></clipPath>
<clipPath id="c6_11"><path d="M291.5,940.7V615.4H617.2V940.7Z"/></clipPath>
<clipPath id="c7_11"><path d="M616.4,940.7V615.4H941.7V940.7Z"/></clipPath>
<clipPath id="c8_11"><path d="M-33,1265.3V940H292.2v325.3Z"/></clipPath>
<clipPath id="c9_11"><path d="M616.4,1265.3V940H941.7v325.3Z"/></clipPath>
<clipPath id="ca_11"><path d="M-33,1318.5v-54H941.7v54Z"/></clipPath>
</defs>
<image clip-path="url(#c0_11)" preserveAspectRatio="none" x="-33" y="-33" width="325" height="325" xlink:href="img/1.jpg"/>
<image clip-path="url(#c1_11)" preserveAspectRatio="none" x="291" y="-33" width="326" height="325" xlink:href="img/2.jpg"/>
<image clip-path="url(#c2_11)" preserveAspectRatio="none" x="616" y="-33" width="326" height="325" xlink:href="img/3.jpg"/>
<image clip-path="url(#c3_11)" preserveAspectRatio="none" x="-33" y="291" width="325" height="325" xlink:href="img/4.jpg"/>
<image preserveAspectRatio="none" x="291" y="291" width="326" height="325" xlink:href="img/5.jpg"/>
<image clip-path="url(#c4_11)" preserveAspectRatio="none" x="616" y="291" width="326" height="325" xlink:href="img/6.jpg"/>
<image clip-path="url(#c5_11)" preserveAspectRatio="none" x="-33" y="615" width="325" height="326" xlink:href="img/7.jpg"/>
<image clip-path="url(#c6_11)" preserveAspectRatio="none" x="291" y="615" width="326" height="326" xlink:href="img/8.jpg"/>
<image clip-path="url(#c7_11)" preserveAspectRatio="none" x="616" y="615" width="326" height="326" xlink:href="img/9.jpg"/>
<image clip-path="url(#c8_11)" preserveAspectRatio="none" x="-33" y="940" width="325" height="325" xlink:href="img/10.jpg"/>
<image preserveAspectRatio="none" x="291" y="940" width="326" height="325" xlink:href="img/11.jpg"/>
<image clip-path="url(#c9_11)" preserveAspectRatio="none" x="616" y="940" width="326" height="325" xlink:href="img/12.jpg"/>
<image clip-path="url(#ca_11)" preserveAspectRatio="none" x="-33" y="1265" width="975" height="54" xlink:href="img/13.jpg"/>
</svg>