<?xml version="1.0" encoding="UTF-8" standalone="no"?>
<!DOCTYPE svg PUBLIC "-//W3C//DTD SVG 1.1//EN"
"http://www.w3.org/Graphics/SVG/1.1/DTD/svg11.dtd">
<svg viewBox="0 0 909 1286" version="1.1" xmlns="http://www.w3.org/2000/svg" xmlns:xlink="http://www.w3.org/1999/xlink">
<defs>
<style type="text/css"><![CDATA[
.g0_2{
}
.g1_2{
fill: none;
stroke: #FFFFFF;
stroke-width: 1.527;
stroke-linecap: butt;
stroke-linejoin: miter;
stroke-miterlimit: 4;
}
.g2_2{
fill: none;
stroke: #8E1537;
stroke-width: 1.069;
stroke-linecap: butt;
stroke-linejoin: miter;
}
]]></style>
</defs>
<image preserveAspectRatio="none" x="-21" y="-21" width="932" height="1329" xlink:href="../1/img/1.png"/>
<image preserveAspectRatio="none" x="41" y="379" width="833" height="492" xlink:href="img/2.png"/>
<image preserveAspectRatio="none" x="43" y="380" width="825" height="483" xlink:href="img/3.png"/>
<image preserveAspectRatio="none" x="385" y="459" width="145" height="141" xlink:href="img/4.png"/>
<image preserveAspectRatio="none" x="67" y="459" width="294" height="140" xlink:href="img/5.png"/>
<image preserveAspectRatio="none" x="552" y="459" width="294" height="140" xlink:href="img/6.png"/>
<image preserveAspectRatio="none" x="342" y="393" width="55" height="54" xlink:href="img/7.png"/>
<image preserveAspectRatio="none" x="430" y="393" width="53" height="53" xlink:href="img/8.png"/>
<image preserveAspectRatio="none" x="514" y="393" width="54" height="54" xlink:href="img/9.png"/>
<image preserveAspectRatio="none" x="85" y="634" width="54" height="55" xlink:href="img/10.png"/>
<image preserveAspectRatio="none" x="178" y="634" width="53" height="53" xlink:href="img/11.png"/>
<image preserveAspectRatio="none" x="270" y="635" width="53" height="53" xlink:href="img/12.png"/>
<image preserveAspectRatio="none" x="363" y="634" width="52" height="53" xlink:href="img/13.png"/>
<image preserveAspectRatio="none" x="454" y="635" width="53" height="53" xlink:href="img/14.png"/>
<image preserveAspectRatio="none" x="547" y="635" width="53" height="53" xlink:href="img/15.png"/>
<image preserveAspectRatio="none" x="639" y="635" width="52" height="53" xlink:href="img/16.png"/>
<image preserveAspectRatio="none" x="731" y="635" width="53" height="53" xlink:href="img/17.png"/>
<image preserveAspectRatio="none" x="66" y="701" width="93" height="140" xlink:href="img/18.png"/>
<image preserveAspectRatio="none" x="160" y="701" width="93" height="140" xlink:href="img/19.png"/>
<image preserveAspectRatio="none" x="254" y="701" width="94" height="140" xlink:href="img/20.png"/>
<image preserveAspectRatio="none" x="349" y="701" width="93" height="140" xlink:href="img/21.png"/>
<image preserveAspectRatio="none" x="443" y="701" width="93" height="140" xlink:href="img/22.png"/>
<image preserveAspectRatio="none" x="537" y="701" width="93" height="140" xlink:href="img/23.png"/>
<image preserveAspectRatio="none" x="631" y="701" width="93" height="140" xlink:href="img/24.png"/>
<image preserveAspectRatio="none" x="725" y="701" width="93" height="140" xlink:href="img/25.png"/>
<image preserveAspectRatio="none" x="102" y="303" width="706" height="53" xlink:href="img/26.png"/>
<path d="M317.6,434.5c8.2,0,14.9,-6.6,14.9,-14.9c0,-8.3,-6.7,-14.9,-14.9,-14.9c-8.3,0,-15,6.6,-15,14.9c0,8.3,6.7,14.9,15,14.9Z" class="g0_2"/>
<path d="M317.6,434.5c8.2,0,14.9,-6.6,14.9,-14.9c0,-8.3,-6.7,-14.9,-14.9,-14.9c-8.3,0,-15,6.6,-15,14.9c0,8.3,6.7,14.9,15,14.9Z" class="g1_2"/>
<path d="M75.8,483.9c8.3,0,14.9,-6.7,14.9,-15C90.7,460.7,84.1,454,75.8,454c-8.3,0,-14.9,6.7,-14.9,14.9c0,8.3,6.6,15,14.9,15Z" class="g0_2"/>
<path d="M75.8,483.9c8.3,0,14.9,-6.7,14.9,-15C90.7,460.7,84.1,454,75.8,454c-8.3,0,-14.9,6.7,-14.9,14.9c0,8.3,6.6,15,14.9,15Z" class="g1_2"/>
<path d="M554.3,483.9c8.2,0,14.9,-6.7,14.9,-15c0,-8.2,-6.7,-14.9,-14.9,-14.9c-8.3,0,-15,6.7,-15,14.9c0,8.3,6.7,15,15,15Z" class="g0_2"/>
<path d="M554.3,483.9c8.2,0,14.9,-6.7,14.9,-15c0,-8.2,-6.7,-14.9,-14.9,-14.9c-8.3,0,-15,6.7,-15,14.9c0,8.3,6.7,15,15,15Z" class="g1_2"/>
<path d="M387.5,483.9c8.2,0,14.9,-6.7,14.9,-15c0,-8.2,-6.7,-14.9,-14.9,-14.9c-8.3,0,-15,6.7,-15,14.9c0,8.3,6.7,15,15,15Z" class="g0_2"/>
<path d="M387.5,483.9c8.2,0,14.9,-6.7,14.9,-15c0,-8.2,-6.7,-14.9,-14.9,-14.9c-8.3,0,-15,6.7,-15,14.9c0,8.3,6.7,15,15,15Z" class="g1_2"/>
<path d="M63.5,678.1c8.3,0,14.9,-6.7,14.9,-14.9c0,-8.3,-6.6,-15,-14.9,-15c-8.3,0,-14.9,6.7,-14.9,15c0,8.2,6.6,14.9,14.9,14.9Z" class="g0_2"/>
<path d="M63.5,678.1c8.3,0,14.9,-6.7,14.9,-14.9c0,-8.3,-6.6,-15,-14.9,-15c-8.3,0,-14.9,6.7,-14.9,15c0,8.2,6.6,14.9,14.9,14.9Z" class="g1_2"/>
<path d="M44.4,731.8c8.2,0,14.9,-6.7,14.9,-14.9c0,-8.3,-6.7,-15,-14.9,-15c-8.3,0,-15,6.7,-15,15c0,8.2,6.7,14.9,15,14.9Z" class="g0_2"/>
<path d="M44.4,731.8c8.2,0,14.9,-6.7,14.9,-14.9c0,-8.3,-6.7,-15,-14.9,-15c-8.3,0,-15,6.7,-15,15c0,8.2,6.7,14.9,15,14.9Z" class="g1_2"/>
<path d="M115.8,784.6c8.3,0,15,-6.6,15,-14.9c0,-8.2,-6.7,-14.9,-15,-14.9c-8.2,0,-14.9,6.7,-14.9,14.9c0,8.3,6.7,14.9,14.9,14.9Z" class="g0_2"/>
<path d="M115.8,784.6c8.3,0,15,-6.6,15,-14.9c0,-8.2,-6.7,-14.9,-15,-14.9c-8.2,0,-14.9,6.7,-14.9,14.9c0,8.3,6.7,14.9,14.9,14.9Z" class="g1_2"/>
<image preserveAspectRatio="none" x="118" y="484" width="36" height="35" xlink:href="img/27.png"/>
<image preserveAspectRatio="none" x="116" y="479" width="37" height="39" xlink:href="img/28.png"/>
<image preserveAspectRatio="none" x="217" y="561" width="34" height="35" xlink:href="img/29.png"/>
<image preserveAspectRatio="none" x="211" y="556" width="39" height="39" xlink:href="img/30.png"/>
<image preserveAspectRatio="none" x="293" y="506" width="34" height="35" xlink:href="img/31.png"/>
<image preserveAspectRatio="none" x="288" y="501" width="39" height="38" xlink:href="img/32.png"/>
<image preserveAspectRatio="none" x="108" y="522" width="37" height="37" xlink:href="img/33.png"/>
<image preserveAspectRatio="none" x="106" y="520" width="36" height="33" xlink:href="img/34.png"/>
<image preserveAspectRatio="none" x="199" y="469" width="35" height="37" xlink:href="img/35.png"/>
<image preserveAspectRatio="none" x="197" y="465" width="34" height="36" xlink:href="img/36.png"/>
<image preserveAspectRatio="none" x="186" y="506" width="36" height="36" xlink:href="img/37.png"/>
<image preserveAspectRatio="none" x="183" y="502" width="39" height="37" xlink:href="img/38.png"/>
<image preserveAspectRatio="none" x="237" y="531" width="35" height="39" xlink:href="img/39.png"/>
<image preserveAspectRatio="none" x="232" y="528" width="39" height="38" xlink:href="img/40.png"/>
<image preserveAspectRatio="none" x="186" y="541" width="36" height="38" xlink:href="img/41.png"/>
<image preserveAspectRatio="none" x="187" y="540" width="30" height="33" xlink:href="img/42.png"/>
<image preserveAspectRatio="none" x="237" y="478" width="35" height="37" xlink:href="img/43.png"/>
<image preserveAspectRatio="none" x="233" y="475" width="39" height="37" xlink:href="img/44.png"/>
<image preserveAspectRatio="none" x="168" y="486" width="37" height="33" xlink:href="img/45.png"/>
<image preserveAspectRatio="none" x="169" y="485" width="30" height="27" xlink:href="img/46.png"/>
<image preserveAspectRatio="none" x="217" y="504" width="35" height="35" xlink:href="img/47.png"/>
<image preserveAspectRatio="none" x="214" y="498" width="38" height="39" xlink:href="img/48.png"/>
<image preserveAspectRatio="none" x="144" y="538" width="36" height="36" xlink:href="img/49.png"/>
<image preserveAspectRatio="none" x="143" y="534" width="33" height="36" xlink:href="img/50.png"/>
<path d="M155.9,48.1H272.3" class="g2_2"/>
<image preserveAspectRatio="none" x="100" y="63" width="706" height="53" xlink:href="img/51.png"/>
<path d="M50.8,939.3c4.1,0,7.4,-3.3,7.4,-7.4c0,-4.1,-3.3,-7.5,-7.4,-7.5c-4.1,0,-7.5,3.4,-7.5,7.5c0,4.1,3.4,7.4,7.5,7.4Z" class="g0_2"/>
<path d="M50.8,1039.7c4.1,0,7.4,-3.4,7.4,-7.5c0,-4.1,-3.3,-7.5,-7.4,-7.5c-4.1,0,-7.5,3.4,-7.5,7.5c0,4.1,3.4,7.5,7.5,7.5Z" class="g0_2"/>
<path d="M50.8,1140c4.1,0,7.4,-3.3,7.4,-7.5c0,-4.1,-3.3,-7.4,-7.4,-7.4c-4.1,0,-7.5,3.3,-7.5,7.4c0,4.2,3.4,7.5,7.5,7.5Z" class="g0_2"/>
<path d="M477.4,898.4c4.1,0,7.4,-3.4,7.4,-7.5c0,-4.1,-3.3,-7.5,-7.4,-7.5c-4.2,0,-7.5,3.4,-7.5,7.5c0,4.1,3.3,7.5,7.5,7.5Z" class="g0_2"/>
<path d="M477.4,1017c4.1,0,7.4,-3.3,7.4,-7.4c0,-4.2,-3.3,-7.5,-7.4,-7.5c-4.2,0,-7.5,3.3,-7.5,7.5c0,4.1,3.3,7.4,7.5,7.4Z" class="g0_2"/>
<path d="M477.4,1099c4.1,0,7.4,-3.3,7.4,-7.5c0,-4.1,-3.3,-7.4,-7.4,-7.4c-4.2,0,-7.5,3.3,-7.5,7.4c0,4.2,3.3,7.5,7.5,7.5Z" class="g0_2"/>
<path d="M477.4,1144.3c4.1,0,7.4,-3.3,7.4,-7.4c0,-4.1,-3.3,-7.5,-7.4,-7.5c-4.2,0,-7.5,3.4,-7.5,7.5c0,4.1,3.3,7.4,7.5,7.4Z" class="g0_2"/>
</svg>