<?xml version="1.0" encoding="UTF-8" standalone="no"?>
<!DOCTYPE svg PUBLIC "-//W3C//DTD SVG 1.1//EN"
"http://www.w3.org/Graphics/SVG/1.1/DTD/svg11.dtd">
<svg viewBox="0 0 908 1285" version="1.1" xmlns="http://www.w3.org/2000/svg" xmlns:xlink="http://www.w3.org/1999/xlink">
<defs>
<clipPath id="c0_28"><path d="M-32.9,237.4V-32.7H237.9V237.4Z"/></clipPath>
<clipPath id="c1_28"><path d="M237.3,237.4V-32.7H508.7V237.4Z"/></clipPath>
<clipPath id="c2_28"><path d="M508.1,237.4V-32.7H779.9V237.4Z"/></clipPath>
<clipPath id="c3_28"><path d="M779.2,453.7V-32.7H941.6V453.7Z"/></clipPath>
<clipPath id="c4_28"><path d="M-32.9,507.9V236.8H237.9V507.9Z"/></clipPath>
<clipPath id="c5_28"><path d="M779.2,940.5V453.1H941.6V940.5Z"/></clipPath>
<clipPath id="c6_28"><path d="M-32.9,778.1V507.3H237.9V778.1Z"/></clipPath>
<clipPath id="c7_28"><path d="M-32.9,1048.7V777.5H237.9v271.2Z"/></clipPath>
<clipPath id="c8_28"><path d="M779.2,1318.3V939.9H941.6v378.4Z"/></clipPath>
<clipPath id="c9_28"><path d="M-32.9,1318.3V1048H237.9v270.3Z"/></clipPath>
<clipPath id="ca_28"><path d="M237.3,1318.3V1048H508.7v270.3Z"/></clipPath>
<clipPath id="cb_28"><path d="M508.1,1318.3V1048H779.9v270.3Z"/></clipPath>
</defs>
<image clip-path="url(#c0_28)" preserveAspectRatio="none" x="-33" y="-32" width="271" height="269" xlink:href="img/1.webp"/>
<image clip-path="url(#c1_28)" preserveAspectRatio="none" x="237" y="-32" width="272" height="269" xlink:href="img/2.webp"/>
<image clip-path="url(#c2_28)" preserveAspectRatio="none" x="508" y="-32" width="272" height="269" xlink:href="img/3.webp"/>
<image clip-path="url(#c3_28)" preserveAspectRatio="none" x="779" y="-32" width="163" height="486" xlink:href="img/4.webp"/>
<image clip-path="url(#c4_28)" preserveAspectRatio="none" x="-33" y="237" width="271" height="271" xlink:href="img/5.webp"/>
<image preserveAspectRatio="none" x="237" y="237" width="272" height="271" xlink:href="img/6.webp"/>
<image preserveAspectRatio="none" x="508" y="237" width="272" height="271" xlink:href="img/7.webp"/>
<image clip-path="url(#c5_28)" preserveAspectRatio="none" x="779" y="453" width="163" height="488" xlink:href="img/8.webp"/>
<image clip-path="url(#c6_28)" preserveAspectRatio="none" x="-33" y="507" width="271" height="271" xlink:href="img/9.webp"/>
<image preserveAspectRatio="none" x="237" y="507" width="272" height="271" xlink:href="img/10.webp"/>
<image preserveAspectRatio="none" x="508" y="507" width="272" height="271" xlink:href="img/11.webp"/>
<image clip-path="url(#c7_28)" preserveAspectRatio="none" x="-33" y="778" width="271" height="271" xlink:href="img/12.webp"/>
<image preserveAspectRatio="none" x="237" y="778" width="272" height="271" xlink:href="img/13.webp"/>
<image preserveAspectRatio="none" x="508" y="778" width="272" height="271" xlink:href="img/14.webp"/>
<image clip-path="url(#c8_28)" preserveAspectRatio="none" x="779" y="940" width="163" height="379" xlink:href="img/15.webp"/>
<image clip-path="url(#c9_28)" preserveAspectRatio="none" x="-33" y="1048" width="271" height="271" xlink:href="img/16.webp"/>
<image clip-path="url(#ca_28)" preserveAspectRatio="none" x="237" y="1048" width="272" height="271" xlink:href="img/17.webp"/>
<image clip-path="url(#cb_28)" preserveAspectRatio="none" x="508" y="1048" width="272" height="271" xlink:href="img/18.webp"/>
</svg>