<?xml version="1.0" encoding="UTF-8" standalone="no"?>
<!DOCTYPE svg PUBLIC "-//W3C//DTD SVG 1.1//EN"
"http://www.w3.org/Graphics/SVG/1.1/DTD/svg11.dtd">
<svg viewBox="0 0 909 1286" version="1.1" xmlns="http://www.w3.org/2000/svg" xmlns:xlink="http://www.w3.org/1999/xlink">
<defs>
<clipPath id="c0_5"><path d="M0,375.6V.3H374.7V375.6Z"/></clipPath>
<clipPath id="c1_5"><path d="M373.8,375.6V.3H749.3V375.6Z"/></clipPath>
<clipPath id="c2_5"><path d="M748.4,857.9V.3H909V857.9Z"/></clipPath>
<clipPath id="c3_5"><path d="M0,750.9V374.7H374.7V750.9Z"/></clipPath>
<clipPath id="c4_5"><path d="M374,750.8v-376H749.2v376Z"/></clipPath>
<clipPath id="c5_5"><path d="M0,1126.2V750H374.7v376.2Z"/></clipPath>
<clipPath id="c6_5"><path d="M374,1126V750.1H749.2V1126Z"/></clipPath>
<clipPath id="c7_5"><path d="M748.4,1286V857H909v429Z"/></clipPath>
<clipPath id="c8_5"><path d="M0,1286V1125.2H749.3V1286Z"/></clipPath>
</defs>
<image clip-path="url(#c0_5)" preserveAspectRatio="none" x="0" y="0" width="375" height="376" xlink:href="img/1.jpg"/>
<image clip-path="url(#c1_5)" preserveAspectRatio="none" x="374" y="0" width="375" height="376" xlink:href="img/2.jpg"/>
<image clip-path="url(#c2_5)" preserveAspectRatio="none" x="748" y="0" width="162" height="858" xlink:href="img/3.jpg"/>
<image clip-path="url(#c3_5)" preserveAspectRatio="none" x="0" y="375" width="375" height="376" xlink:href="img/4.jpg"/>
<image clip-path="url(#c4_5)" preserveAspectRatio="none" x="374" y="375" width="375" height="376" xlink:href="img/5.jpg"/>
<image clip-path="url(#c5_5)" preserveAspectRatio="none" x="0" y="750" width="375" height="376" xlink:href="img/6.jpg"/>
<image clip-path="url(#c6_5)" preserveAspectRatio="none" x="374" y="750" width="375" height="376" xlink:href="img/7.jpg"/>
<image clip-path="url(#c7_5)" preserveAspectRatio="none" x="748" y="857" width="162" height="430" xlink:href="img/8.jpg"/>
<image clip-path="url(#c8_5)" preserveAspectRatio="none" x="0" y="1125" width="749" height="162" xlink:href="img/9.jpg"/>
</svg>