<?xml version="1.0" encoding="UTF-8" standalone="no"?>
<!DOCTYPE svg PUBLIC "-//W3C//DTD SVG 1.1//EN"
"http://www.w3.org/Graphics/SVG/1.1/DTD/svg11.dtd">
<svg viewBox="0 0 909 1286" version="1.1" xmlns="http://www.w3.org/2000/svg" xmlns:xlink="http://www.w3.org/1999/xlink">
<defs>
<clipPath id="c0_5"><path d="M164.1,827c-11.8,0,-11.8,-11.7,-11.8,-11.8V580.7c0,-11.8,11.8,-11.8,11.8,-11.8H312.7c11.7,0,11.7,11.8,11.7,11.8V815.2c0,11.8,-11.7,11.8,-11.7,11.8Z"/></clipPath>
<clipPath id="c1_5"><path d="M165.7,365.7c-12.9,0,-12.9,-12.8,-12.9,-12.9V94.7c0,-13,12.9,-13,12.9,-13H329.3c12.9,0,12.9,13,12.9,13V352.8c0,12.9,-12.9,12.9,-12.9,12.9Z"/></clipPath>
<clipPath id="c2_5"><path d="M797.9,398.2c-19.4,0,-35.1,-15.7,-35.1,-35.1c0,-19.4,15.7,-35.1,35.1,-35.1c19.4,0,35.1,15.7,35.1,35.1c0,19.4,-15.7,35.1,-35.1,35.1Z"/></clipPath>
<style type="text/css"><![CDATA[
.g0_5{
}
.g1_5{
fill: #FFFFFF;
}
.g2_5{
fill: none;
stroke: #000000;
stroke-width: 2.892;
stroke-linecap: butt;
stroke-linejoin: miter;
stroke-miterlimit: 4;
}
.g3_5{
fill: none;
stroke: #FFFFFF;
stroke-width: 0.867;
stroke-linecap: butt;
stroke-linejoin: miter;
stroke-miterlimit: 4;
}
.g4_5{
fill: none;
stroke: #000000;
stroke-width: 0.916;
stroke-linecap: butt;
stroke-linejoin: miter;
stroke-miterlimit: 4;
}
.g5_5{
fill: none;
stroke: #000000;
stroke-width: 0.152;
stroke-linecap: butt;
stroke-linejoin: miter;
}
.g6_5{
fill: none;
stroke: #FFFFFF;
stroke-width: 0.954;
stroke-linecap: butt;
stroke-linejoin: miter;
stroke-miterlimit: 4;
}
.g7_5{
fill: none;
stroke: #FFFFFF;
stroke-width: 1.347;
stroke-linecap: butt;
stroke-linejoin: miter;
stroke-miterlimit: 4;
}
.g8_5{
fill: none;
stroke: #FFFFFF;
stroke-width: 0.916;
stroke-linecap: butt;
stroke-linejoin: miter;
stroke-miterlimit: 4;
}
]]></style>
</defs>
<image preserveAspectRatio="none" x="-1" y="-21" width="932" height="1329" xlink:href="../1/img/1.webp"/>
<path d="M68.3,394c6.6,0,11.9,-5.4,11.9,-12c0,-6.6,-5.3,-11.9,-11.9,-11.9c-6.6,0,-12,5.3,-12,11.9c0,6.6,5.4,12,12,12Z" class="g0_5"/>
<path d="M68.3,421.1c6.6,0,11.9,-5.3,11.9,-11.9c0,-6.6,-5.3,-12,-11.9,-12c-6.6,0,-12,5.4,-12,12c0,6.6,5.4,11.9,12,11.9Z" class="g0_5"/>
<path d="M68.3,448.3c6.6,0,11.9,-5.4,11.9,-12c0,-6.6,-5.3,-11.9,-11.9,-11.9c-6.6,0,-12,5.3,-12,11.9c0,6.6,5.4,12,12,12Z" class="g0_5"/>
<path d="M68.3,476.5c6.6,0,11.9,-5.3,11.9,-11.9c0,-6.6,-5.3,-12,-11.9,-12c-6.6,0,-12,5.4,-12,12c0,6.6,5.4,11.9,12,11.9Z" class="g0_5"/>
<image preserveAspectRatio="none" x="-1" y="507" width="450" height="497" xlink:href="img/2.webp"/>
<image preserveAspectRatio="none" x="150" y="568" width="182" height="268" xlink:href="img/3.webp"/>
<g clip-path="url(#c0_5)">
<path d="M142.5,840.7H335.1V553.8H142.5V840.7Z" class="g1_5"/>
</g>
<image preserveAspectRatio="none" x="141" y="555" width="195" height="286" opacity="0.800003" xlink:href="img/4.webp"/>
<image preserveAspectRatio="none" x="130" y="695" width="216" height="85" xlink:href="img/5.webp"/>
<image preserveAspectRatio="none" x="188" y="718" width="81" height="37" xlink:href="img/6.webp"/>
<image preserveAspectRatio="none" x="259" y="718" width="45" height="39" xlink:href="img/7.webp"/>
<g clip-path="url(#c0_5)">
<path d="M284.7,748.4c-2.5,.2,-4.1,.3,-4.8,.3c-.3,.1,-.6,-.2,-.8,-.9v-.1l-.3,-.3c-.8,-.3,-1.3,-.5,-1.6,-.6l-.2,-.2c0,-.2,-.1,-.4,-.1,-.6c0,-.9,.1,-1.5,.4,-1.8c.6,-.5,1,-1,1.3,-1.3c2.7,-2.4,4.8,-4.1,6.2,-5.2l.1,-.4c0,-1.8,-.1,-3.6,-.3,-5.3c-.3,-2.8,-.8,-4.2,-1.5,-4.2c-1.1,0,-1.8,.2,-2,.7c-.1,.3,-.2,1,-.2,2.4c0,2.3,.1,3.7,.2,4.2l-.1,.4l-.4,.2h-.1c-.3,0,-.5,-.3,-.7,-1l-.3,-.4c-.3,0,-.6,.1,-.8,.2c-.2,-.1,-.4,0,-.6,.2c-.2,.2,-.4,.3,-.6,.3c-.3,0,-.5,-.1,-.5,-.5c0,-3.6,.1,-5.9,.4,-7l.2,-.3l.4,-.1c.3,.1,.4,.2,.5,.5l.3,.3l.4,-.1c.5,-.3,.9,-.6,1.3,-.8c.5,0,1.2,-.1,2.1,-.3c1,-.1,1.7,-.2,2.2,-.2c1,0,2.3,.1,3.7,.3l.3,.2l.2,.4c-.2,.3,-.4,.6,-.5,.7v.4c.3,.4,.4,1.4,.4,3.2c0,.3,0,.9,-.2,1.6c-.1,.7,-.2,1.3,-.2,1.6c0,.3,-.1,.7,-.3,1l-.1,.2c-2.4,2.1,-4.1,3.6,-5.3,4.7l-1.5,1.2l-.1,.5c.2,2.6,.3,4.1,.5,4.3v.4c.1,.2,.3,.3,.5,.3l4.3,-.4l.4,-.2l.1,-.4c-.1,-.2,-.1,-.3,-.3,-.4c-.1,0,-.3,-.1,-.5,-.1l-.3,-.3c0,-.1,-.1,-.1,-.3,-.2c-.3,-1,-.5,-1.8,-.5,-2.3l.2,-.4l.4,-.2c.3,0,.5,0,.7,-.2c.2,-.1,.3,-.2,.4,-.2c.1,0,.2,0,.4,.1c.1,0,.2,.1,.2,.1c.2,0,.3,-.1,.5,-.2c.1,-.2,.3,-.2,.4,-.2c.3,0,.4,.1,.5,.4v.1l.1,.3l.2,1.2c.3,1.3,.5,2.3,.5,3c0,.3,-.2,.5,-.5,.5l-.3,.3c-.1,.1,-1.5,.3,-4.1,.6Z" class="g2_5"/>
</g>
<image preserveAspectRatio="none" x="132" y="548" width="213" height="300" opacity="0.350006" xlink:href="img/8.webp"/>
<image preserveAspectRatio="none" x="167" y="574" width="142" height="29" xlink:href="img/9.webp"/>
<image preserveAspectRatio="none" x="291" y="785" width="21" height="30" xlink:href="img/10.webp"/>
<g clip-path="url(#c0_5)">
<path d="M199.3,589H196c0,-.5,.1,-.9,.1,-1.3c0,-.4,0,-.8,0,-1.1c0,-.4,0,-.7,0,-1.1c0,-.3,0,-.7,0,-1.2c0,-.4,0,-.9,0,-1.4c0,-.5,0,-1.2,0,-1.8l-2.8,1.1c0,.5,.1,1,.1,1.5c0,.5,0,.9,0,1.3c0,.4,0,.8,0,1.2c0,.3,0,.8,0,1.2c0,.5,-.1,.9,-.1,1.5c0,.6,-.1,1.2,-.2,1.9c.4,-.1,.8,-.1,1.1,-.1c.3,0,.6,0,.9,-.1c.3,0,.6,0,.9,0h1.6c.3,0,.6,0,.9,0l.8,-1.6Zm3.2,1.4v-7.2l-2.9,.3c.1,.5,.1,1,.1,1.4c.1,.4,.1,.8,.1,1.1c0,.3,0,.7,0,1c0,.3,0,.6,0,1c0,.3,0,.7,0,1.2c0,.4,-.1,.9,-.1,1.5l2.8,-.3Zm8.9,-7.2c-.5,0,-1,0,-1.5,0c-.6,.1,-1,.1,-1.4,.1c-.5,0,-.9,0,-1.3,0c-.5,0,-.9,0,-1.3,0c-.4,0,-.8,0,-1.2,-.1c-.5,0,-.9,0,-1.4,0c.1,.1,.1,.3,.1,.5c.1,.2,.1,.4,.1,.6c0,.3,.1,.5,.1,.8c0,.2,0,.5,0,.8c.1,.5,.1,1.2,.1,1.8c0,.7,0,1.4,-.1,2c0,.3,0,.6,0,.9c0,.3,0,.7,0,1c0,.3,-.1,.6,-.1,.9c0,.3,0,.6,-.1,.9l2.6,-.9l.2,-4.1h3.2v-1.6h-3.2v-1.4h4.3l.9,-2.2Zm10.1,5.4c-.5,.1,-.9,.1,-1.3,.1c-.4,.1,-.7,.1,-1,.1c-.3,0,-.6,0,-.9,0c-.4,.1,-.8,.1,-1.3,0c-.4,0,-.8,-.1,-1.2,-.2c-.5,-.1,-.8,-.2,-1.2,-.4c-.3,-.1,-.5,-.3,-.7,-.5h3.6v-1.6h-3.6c0,0,0,-.1,.1,-.1q0,-.1,0,-.1c0,-.1,.1,-.1,.1,-.1q0,-.1,.1,-.2c0,0,0,-.1,0,-.1c.1,0,.1,-.1,.1,-.1h5l1,-2.2h-7.4c-.5,.6,-.9,1.1,-1.2,1.6c-.2,.5,-.4,1,-.6,1.4c-.1,.5,-.2,1,-.2,1.4c0,.3,.1,.7,.3,.9c.2,.3,.4,.5,.8,.8c.3,.2,.7,.4,1.1,.6c.5,.1,1,.3,1.5,.4c.5,.1,1,.2,1.5,.3c.5,.1,1.1,.2,1.6,.2c.5,.1,.9,.1,1.4,.1c.4,0,.8,0,1.1,0l1.3,-2.3Zm14.2,-4.2c-.2,-.3,-.5,-.6,-.9,-.8c-.4,-.2,-.9,-.3,-1.5,-.4c-.7,-.1,-1.4,-.1,-2.3,-.1c-.3,0,-.6,0,-.9,0c-.3,.1,-.7,.1,-1.2,.1c-.5,0,-1.1,.1,-1.7,.1c0,.6,0,1.1,.1,1.6c0,.5,0,.9,0,1.2c0,.4,0,.7,0,1c0,.3,0,.6,0,1c0,.3,0,.7,0,1.1c0,.4,-.1,.9,-.1,1.4l2.7,.1c0,-.6,0,-1.2,0,-1.7c0,-.4,0,-.8,-.1,-1.1c0,-.3,0,-.6,0,-.8V585c.5,0,.8,-.1,1.2,-.1c.3,0,.6,0,.8,0c.3,0,.5,.1,.6,.1c.2,.1,.3,.1,.5,.2c.2,.1,.3,.2,.4,.4c-.1,.2,-.2,.4,-.4,.6c-.2,.1,-.6,.2,-1,.3c-.5,.1,-1.1,.1,-1.9,.1l1.1,1.4c.6,.1,1.2,0,1.6,0c.5,-.1,.9,-.2,1.2,-.3c.4,-.1,.6,-.2,.9,-.4c.2,-.2,.4,-.3,.6,-.5c.3,-.4,.5,-.9,.6,-1.4c0,-.4,-.1,-.7,-.3,-1Zm10.4,.9c-.1,-.2,-.3,-.4,-.6,-.6c-.2,-.3,-.5,-.5,-.9,-.7c-.4,-.2,-.8,-.3,-1.3,-.5c-.5,-.2,-1,-.3,-1.7,-.4c-.7,.1,-1.2,.3,-1.8,.4c-.5,.2,-.9,.4,-1.3,.6c-.4,.2,-.7,.4,-.9,.6c-.3,.2,-.5,.4,-.7,.7c-.4,.5,-.6,1.1,-.7,1.7c.1,.5,.3,1.1,.7,1.6c.2,.2,.4,.5,.7,.7c.2,.2,.5,.4,.9,.6c.4,.2,.8,.4,1.3,.6c.6,.1,1.1,.2,1.8,.3c.7,0,1.2,-.2,1.7,-.3c.5,-.2,.9,-.3,1.3,-.5c.4,-.3,.7,-.5,.9,-.7c.3,-.2,.5,-.5,.6,-.7c.4,-.5,.6,-1.1,.7,-1.7c-.1,-.6,-.3,-1.2,-.7,-1.7Zm-2.3,2.4c-.1,.2,-.3,.4,-.6,.6c-.2,.1,-.5,.3,-.8,.3c-.2,.1,-.5,.2,-.8,.2c-.2,0,-.5,-.1,-.8,-.2c-.3,-.1,-.5,-.2,-.8,-.4c-.2,-.1,-.4,-.3,-.6,-.5c-.1,-.2,-.2,-.5,-.2,-.7c0,-.2,.1,-.4,.3,-.7c.1,-.2,.3,-.3,.6,-.5c.2,-.1,.5,-.3,.7,-.3c.3,-.1,.6,-.2,.8,-.2c.3,0,.6,.1,.9,.1c.3,.1,.6,.2,.8,.4c.2,.1,.4,.3,.5,.5c.2,.2,.2,.5,.2,.7c0,.3,0,.5,-.2,.7Zm14.1,-4.6h-10l-1.4,2.1h2.7c-.3,.3,-.5,.6,-.6,.9c-.1,.2,-.2,.5,-.3,.7c-.1,.3,-.1,.6,-.1,.8c0,.7,.3,1.4,.8,1.9c.2,.3,.4,.5,.8,.7c.3,.2,.7,.4,1.1,.6c.5,.2,1,.3,1.7,.4c.6,0,1.3,0,2.1,0l1.5,-2.1c-.7,.1,-1.3,.1,-1.7,.1c-.5,0,-1,0,-1.3,-.1c-.4,-.1,-.7,-.2,-.9,-.3c-.3,-.1,-.5,-.2,-.7,-.4c-.3,-.3,-.6,-.7,-.6,-1.2c0,-.1,.1,-.3,.1,-.5c.1,-.2,.3,-.4,.4,-.7c.2,-.2,.4,-.5,.7,-.8h3.6l2.1,-2.1Zm2.9,7.3v-7.2l-2.9,.3c.1,.5,.1,1,.1,1.4c.1,.4,.1,.8,.1,1.1c0,.3,0,.7,0,1c0,.3,0,.6,0,1c0,.3,0,.7,0,1.2c0,.4,-.1,.9,-.1,1.5l2.8,-.3Zm11,-5.1c-.2,-.2,-.4,-.4,-.6,-.6c-.3,-.3,-.6,-.5,-.9,-.7c-.4,-.2,-.8,-.3,-1.3,-.5c-.5,-.2,-1.1,-.3,-1.7,-.4c-.7,.1,-1.3,.3,-1.8,.4c-.5,.2,-1,.4,-1.3,.6c-.4,.2,-.7,.4,-1,.6c-.2,.2,-.5,.4,-.6,.7c-.4,.5,-.7,1.1,-.7,1.7c0,.5,.3,1.1,.7,1.6c.1,.2,.4,.5,.6,.7c.3,.2,.6,.4,1,.6c.3,.2,.8,.4,1.3,.6c.5,.1,1.1,.2,1.8,.3c.6,0,1.2,-.2,1.7,-.3c.5,-.2,.9,-.3,1.3,-.5c.3,-.3,.6,-.5,.9,-.7c.2,-.2,.4,-.5,.6,-.7c.4,-.5,.6,-1.1,.6,-1.7c0,-.6,-.2,-1.2,-.6,-1.7Zm-2.3,2.4c-.2,.2,-.4,.4,-.6,.6c-.2,.1,-.5,.3,-.8,.3c-.3,.1,-.6,.2,-.8,.2c-.3,0,-.6,-.1,-.8,-.2c-.3,-.1,-.6,-.2,-.8,-.4c-.2,-.1,-.4,-.3,-.6,-.5c-.1,-.2,-.2,-.5,-.2,-.7c0,-.2,.1,-.4,.2,-.7c.2,-.2,.4,-.3,.6,-.5c.3,-.1,.5,-.3,.8,-.3c.3,-.1,.5,-.2,.7,-.2c.4,0,.7,.1,1,.1c.3,.1,.5,.2,.8,.4c.2,.1,.4,.3,.5,.5c.1,.2,.2,.5,.2,.7c0,.3,-.1,.5,-.2,.7Zm13.6,-3.6l-2.6,-.9c0,.2,-.1,.5,-.1,.7c-.1,.2,-.1,.4,-.2,.6c0,.2,0,.4,0,.6c0,.2,-.1,.4,-.1,.7c0,.2,0,.4,-.1,.6c0,.3,0,.5,-.1,.8l-4.6,-4.1l-2.4,.5c0,.6,.1,1.1,.1,1.5c0,.4,.1,.8,.1,1.1c0,.3,0,.6,0,.8c0,.3,0,.6,0,.9c0,.3,0,.7,-.1,1.2c0,.4,0,1,-.1,1.7l2.6,-.4v-3.7l5.2,4.3l1.7,-.6v-2.9c0,-.3,0,-.5,.1,-.9c0,-.2,.1,-.6,.2,-1c.1,-.5,.2,-1,.4,-1.5Z" class="g3_5"/>
</g>
<image x="193" y="581" width="7" height="11" xlink:href="shade/1.webp"/>
<image x="199" y="583" width="4" height="9" xlink:href="shade/2.webp"/>
<image x="203" y="583" width="9" height="11" xlink:href="shade/3.webp"/>
<image x="210" y="583" width="11" height="9" xlink:href="shade/4.webp"/>
<image x="227" y="583" width="10" height="9" xlink:href="shade/5.webp"/>
<image x="236" y="583" width="12" height="10" xlink:href="shade/6.webp"/>
<image x="246" y="583" width="12" height="10" xlink:href="shade/7.webp"/>
<image x="257" y="583" width="5" height="9" xlink:href="shade/8.webp"/>
<image x="261" y="583" width="12" height="10" xlink:href="shade/9.webp"/>
<image x="272" y="583" width="12" height="10" xlink:href="shade/10.webp"/>
<image preserveAspectRatio="none" x="208" y="595" width="67" height="106" xlink:href="img/11.webp"/>
<path d="M56.3,1031.4H439.6" class="g4_5"/>
<image preserveAspectRatio="none" x="136" y="1045" width="217" height="130" xlink:href="img/12.webp"/>
<image preserveAspectRatio="none" x="128" y="1036" width="229" height="140" xlink:href="img/13.webp"/>
<image preserveAspectRatio="none" x="143" y="1084" width="13" height="13" xlink:href="img/14.webp"/>
<path d="M158.5,1087.9h20.9" class="g5_5"/>
<image preserveAspectRatio="none" x="245" y="1087" width="13" height="12" xlink:href="img/15.webp"/>
<path d="M260.3,1088.8h19.5" class="g5_5"/>
<image preserveAspectRatio="none" x="290" y="1097" width="4" height="5" xlink:href="img/16.webp"/>
<image preserveAspectRatio="none" x="143" y="1128" width="13" height="12" xlink:href="img/17.webp"/>
<path d="M158.5,1127.5h23" class="g5_5"/>
<image preserveAspectRatio="none" x="245" y="1105" width="13" height="12" xlink:href="img/18.webp"/>
<path d="M260.3,1110.4h18.8" class="g5_5"/>
<image preserveAspectRatio="none" x="245" y="1123" width="13" height="13" xlink:href="img/19.webp"/>
<path d="M260.3,1127h23.3" class="g5_5"/>
<image preserveAspectRatio="none" x="245" y="1069" width="13" height="13" xlink:href="img/20.webp"/>
<path d="M260.3,1071.3H292" class="g5_5"/>
<image preserveAspectRatio="none" x="261" y="1079" width="5" height="5" xlink:href="img/21.webp"/>
<image preserveAspectRatio="none" x="266" y="1079" width="4" height="5" xlink:href="img/22.webp"/>
<image preserveAspectRatio="none" x="270" y="1079" width="5" height="5" xlink:href="img/23.webp"/>
<image preserveAspectRatio="none" x="143" y="1147" width="13" height="13" xlink:href="img/24.webp"/>
<path d="M158.5,1151.3h21.9" class="g5_5"/>
<image preserveAspectRatio="none" x="143" y="1104" width="13" height="13" xlink:href="img/25.webp"/>
<path d="M158.5,1102.6h18.3m-18.3,-31.4h10" class="g5_5"/>
<image preserveAspectRatio="none" x="143" y="1069" width="13" height="13" xlink:href="img/26.webp"/>
<image preserveAspectRatio="none" x="151" y="81" width="199" height="293" xlink:href="img/27.webp"/>
<g clip-path="url(#c1_5)">
<path d="M141.9,380.8H354V65H141.9V380.8Z" class="g1_5"/>
</g>
<image preserveAspectRatio="none" x="141" y="67" width="213" height="315" opacity="0.800003" xlink:href="img/28.webp"/>
<image preserveAspectRatio="none" x="130" y="59" width="235" height="329" opacity="0.350006" xlink:href="img/29.webp"/>
<image preserveAspectRatio="none" x="170" y="89" width="156" height="31" xlink:href="img/30.webp"/>
<image preserveAspectRatio="none" x="163" y="296" width="54" height="53" xlink:href="img/31.webp"/>
<image preserveAspectRatio="none" x="205" y="322" width="99" height="37" xlink:href="img/32.webp"/>
<image preserveAspectRatio="none" x="273" y="326" width="25" height="29" xlink:href="img/33.webp"/>
<image preserveAspectRatio="none" x="206" y="323" width="35" height="35" xlink:href="img/34.webp"/>
<image preserveAspectRatio="none" x="240" y="323" width="35" height="35" xlink:href="img/35.webp"/>
<image preserveAspectRatio="none" x="306" y="320" width="23" height="32" xlink:href="img/36.webp"/>
<g clip-path="url(#c1_5)">
<path d="M195.1,103.4c-.5,.1,-1,.1,-1.4,.1c-.5,.1,-.8,.1,-1.1,.1c-.4,.1,-.7,.1,-1,.1c-.4,0,-.9,0,-1.4,-.1c-.5,0,-1,-.1,-1.4,-.2c-.5,-.1,-.9,-.3,-1.2,-.4c-.4,-.2,-.7,-.4,-.9,-.6h4v-1.7h-4q.1,-.1,.1,-.2c0,0,0,-.1,.1,-.1q0,-.1,0,-.1c0,-.1,.1,-.1,.1,-.2c0,0,.1,-.1,.1,-.1c0,-.1,.1,-.1,.1,-.1h5.5l1,-2.4h-8.1c-.5,.6,-1,1.1,-1.3,1.7c-.3,.6,-.5,1.1,-.6,1.6c-.2,.5,-.3,1,-.3,1.5c0,.4,.1,.7,.3,1c.3,.3,.5,.6,.9,.8c.4,.3,.8,.5,1.3,.7c.5,.2,1,.3,1.6,.5c.5,.1,1.1,.2,1.7,.3c.6,.1,1.1,.2,1.7,.2c.5,.1,1,.1,1.5,.1c.5,0,.9,0,1.3,0l1.4,-2.5Zm10.1,-4.9L203,96.9c-.2,.1,-.4,.3,-.7,.5c-.2,.2,-.4,.4,-.6,.5c-.2,.2,-.4,.4,-.6,.5c-.2,.2,-.4,.3,-.5,.5c-.2,.1,-.3,.3,-.5,.4c-.2,.2,-.3,.3,-.4,.4c-.2,-.2,-.5,-.5,-.7,-.7c-.2,-.3,-.4,-.5,-.5,-.6c-.2,-.2,-.4,-.4,-.5,-.6c-.2,-.1,-.3,-.3,-.5,-.5c-.1,-.1,-.2,-.2,-.4,-.4c-.1,-.1,-.3,-.3,-.4,-.4c-.1,.1,-.2,.3,-.3,.4c-.1,.1,-.2,.2,-.3,.3c-.1,.2,-.2,.3,-.3,.4c-.1,.1,-.2,.2,-.3,.3c-.1,.1,-.2,.2,-.3,.3c-.1,.1,-.2,.2,-.3,.3c.2,.2,.4,.4,.6,.5c.2,.2,.3,.3,.5,.5c.1,.1,.3,.2,.4,.4c.1,.1,.3,.3,.4,.5c.2,.1,.3,.3,.5,.5c.2,.2,.4,.4,.6,.7l-3.3,3.5c.2,.1,.3,.2,.5,.3c.1,0,.2,.1,.4,.2c.1,0,.2,.1,.3,.1c.1,.1,.2,.2,.3,.2c.1,.1,.2,.2,.4,.2c.1,.1,.3,.2,.5,.3c.2,-.2,.4,-.4,.5,-.6c.2,-.2,.4,-.4,.5,-.6c.1,-.2,.3,-.3,.4,-.5c.1,-.1,.2,-.2,.4,-.4c.1,-.1,.2,-.3,.4,-.5c.1,-.1,.3,-.3,.5,-.5l3.1,3.1c.1,-.1,.2,-.2,.4,-.4c.1,-.1,.2,-.2,.3,-.3l.2,-.2c.1,-.1,.2,-.2,.3,-.3c.1,0,.2,-.1,.3,-.2c.1,-.1,.2,-.2,.3,-.4c-.3,-.2,-.5,-.5,-.8,-.7c-.2,-.2,-.4,-.4,-.6,-.5l-.4,-.4c-.2,-.1,-.3,-.3,-.4,-.4c-.3,-.3,-.6,-.6,-1,-1c.2,-.2,.3,-.4,.5,-.6c.2,-.2,.4,-.4,.6,-.5c.2,-.2,.4,-.4,.6,-.5c.2,-.2,.4,-.4,.6,-.5c.2,-.2,.4,-.3,.7,-.5c.2,-.2,.5,-.3,.8,-.5Zm9.8,.2c-.2,-.3,-.5,-.6,-1,-.8c-.4,-.2,-1,-.4,-1.7,-.5c-.7,-.1,-1.5,-.1,-2.5,0c-.3,0,-.6,0,-1,0c-.3,0,-.7,0,-1.3,.1c-.5,0,-1.1,0,-1.9,.1c.1,.6,.1,1.2,.1,1.7c.1,.5,.1,1,.1,1.3c0,.5,0,.8,0,1.1c0,.4,0,.7,0,1.1c0,.4,0,.8,-.1,1.2c0,.5,0,1,-.1,1.6l3,.1c0,-.7,0,-1.3,0,-1.8c0,-.5,0,-1,0,-1.3c0,-.3,0,-.6,0,-.9V99.5c.4,-.1,.9,-.1,1.2,-.2c.4,0,.7,0,1,0c.2,.1,.5,.1,.6,.1c.2,.1,.4,.1,.5,.2c.3,.1,.4,.3,.5,.5c-.1,.2,-.2,.4,-.5,.6c-.2,.2,-.6,.3,-1.1,.4c-.5,.1,-1.2,.1,-2.1,.1l1.3,1.6c.7,0,1.2,0,1.7,-.1c.6,-.1,1,-.1,1.4,-.3c.3,-.1,.7,-.3,.9,-.4c.3,-.2,.5,-.4,.7,-.6c.3,-.4,.6,-1,.6,-1.5c0,-.5,-.1,-.8,-.3,-1.2Zm7.4,5.1h-3.6c.1,-.5,.1,-.9,.1,-1.4c0,-.4,0,-.8,.1,-1.2c0,-.4,0,-.8,0,-1.2c0,-.4,0,-.8,0,-1.4c-.1,-.4,-.1,-.9,-.1,-1.5c0,-.6,0,-1.3,0,-2l-3,1.3c0,.5,0,1.1,0,1.6c0,.5,.1,1,.1,1.4c0,.5,0,.9,0,1.3c0,.4,0,.9,-.1,1.4c0,.5,0,1,0,1.6c-.1,.6,-.1,1.3,-.2,2.1c.4,-.1,.8,-.1,1.1,-.1c.4,0,.7,0,1.1,-.1c.3,0,.6,0,1,0h1.7c.3,0,.6,0,.9,0l.9,-1.8Zm10.7,-4c-.1,-.3,-.3,-.5,-.6,-.8c-.3,-.2,-.6,-.4,-1,-.6c-.4,-.3,-.9,-.5,-1.4,-.6c-.6,-.2,-1.2,-.3,-1.9,-.4c-.8,.1,-1.4,.2,-2,.4c-.5,.2,-1,.4,-1.4,.6c-.5,.2,-.8,.5,-1.1,.7c-.3,.2,-.5,.5,-.7,.7c-.4,.6,-.7,1.2,-.8,1.9c.1,.6,.4,1.2,.8,1.8c.2,.3,.4,.5,.7,.7c.3,.3,.6,.5,1.1,.8c.4,.2,.9,.4,1.4,.5c.6,.2,1.2,.4,2,.5c.7,-.1,1.3,-.2,1.9,-.4c.5,-.2,1,-.4,1.4,-.6c.4,-.2,.7,-.5,1,-.7c.3,-.3,.5,-.5,.6,-.8c.5,-.6,.7,-1.2,.7,-1.9c0,-.7,-.2,-1.3,-.7,-1.8Zm-2.5,2.6c-.2,.3,-.4,.5,-.6,.6c-.3,.2,-.6,.3,-.9,.4c-.3,.1,-.6,.2,-.9,.2c-.3,0,-.6,-.1,-.9,-.2c-.3,-.1,-.6,-.2,-.9,-.4c-.2,-.2,-.4,-.4,-.6,-.6c-.2,-.3,-.3,-.5,-.3,-.8c0,-.2,.1,-.5,.3,-.7c.2,-.2,.4,-.4,.7,-.6c.2,-.2,.5,-.3,.8,-.4c.3,-.1,.6,-.1,.8,-.1c.4,0,.7,0,1.1,.1c.3,.1,.6,.2,.8,.4c.3,.1,.5,.3,.6,.6c.2,.2,.2,.5,.2,.7c0,.3,0,.6,-.2,.8Zm12.5,-.4c-.3,-.3,-.7,-.6,-1.2,-.8c-.4,-.3,-1,-.4,-1.5,-.5c-.5,-.1,-1.1,-.2,-1.5,-.3c-.5,0,-.9,-.1,-1.2,-.2c-.3,-.1,-.5,-.3,-.5,-.5c.1,-.1,.3,-.2,.6,-.2c.3,-.1,.7,-.1,1.4,-.1c.6,.1,1.5,.1,2.6,.3l1.7,-2.2c-.8,0,-1.5,-.1,-2.1,-.1c-.6,0,-1.1,-.1,-1.5,-.1c-.4,0,-.8,0,-1.2,0c-.2,0,-.5,0,-.8,0c-.4,0,-.7,.1,-1.1,.1c-.4,.1,-.7,.2,-1.1,.3c-.3,.1,-.6,.2,-.9,.4c-.3,.2,-.5,.4,-.7,.7c-.1,.2,-.2,.6,-.2,.9c0,.6,.1,1,.4,1.4c.4,.3,.8,.6,1.2,.8c.5,.2,1,.4,1.6,.5c.5,.1,1,.2,1.5,.2c.5,.1,.9,.2,1.2,.3c.3,0,.4,.2,.4,.4c0,.1,-.2,.2,-.6,.3c-.1,0,-.3,0,-.5,0c-.3,0,-.5,0,-.9,0c-.3,0,-.7,-.1,-1.1,-.1c-.5,-.1,-1,-.2,-1.6,-.3l-1.5,2.4c.6,0,1.1,0,1.7,.1c.5,0,1,0,1.4,0c.5,0,1,.1,1.4,.1c.5,0,1,0,1.7,-.1c.6,0,1.1,-.1,1.6,-.3c.5,-.1,.9,-.4,1.3,-.7c.3,-.3,.5,-.7,.5,-1.2c0,-.6,-.2,-1.1,-.5,-1.5Zm4.4,3.4V97.5l-3.2,.3c0,.5,.1,1,.1,1.5c0,.5,.1,.9,.1,1.2c0,.4,0,.7,0,1.1c0,.3,0,.7,0,1.1c0,.4,0,.8,-.1,1.3c0,.5,0,1.1,-.1,1.7l3.2,-.3Zm12.2,-6.5c-.1,-.2,-.2,-.3,-.3,-.4c-.1,-.2,-.2,-.3,-.3,-.4c-.1,-.1,-.2,-.2,-.4,-.3c-.1,-.1,-.2,-.2,-.3,-.3c-.2,-.1,-.3,-.2,-.5,-.3l-3.5,5.1c-.2,-.1,-.4,-.3,-.6,-.6c-.2,-.2,-.4,-.4,-.5,-.7c-.2,-.2,-.4,-.5,-.5,-.8c-.1,-.3,-.3,-.6,-.4,-.9c-.2,-.3,-.3,-.6,-.5,-1c-.1,-.3,-.2,-.7,-.4,-1.1c-.2,0,-.5,.1,-.7,.2c-.2,.1,-.3,.1,-.5,.2c-.1,.1,-.3,.1,-.4,.2c-.1,.1,-.2,.1,-.4,.2c-.1,.1,-.2,.2,-.4,.4c-.1,.1,-.3,.2,-.5,.4c.3,.6,.6,1.2,.9,1.7c.3,.4,.5,.9,.7,1.2c.2,.4,.4,.8,.6,1.1c.3,.3,.6,.6,.9,.9c.3,.3,.7,.7,1.1,1c.4,.4,.9,.8,1.5,1.2c.5,-.5,.9,-.9,1.3,-1.3c.4,-.3,.7,-.7,1,-.9c.3,-.3,.6,-.6,.8,-.9c.2,-.3,.5,-.6,.8,-1c.2,-.3,.5,-.6,.8,-1c.3,-.5,.7,-.9,1.1,-1.4c-.1,-.2,-.3,-.4,-.4,-.5Zm11.8,4.5c-.5,.1,-1,.1,-1.4,.1c-.4,.1,-.8,.1,-1.1,.1c-.3,.1,-.6,.1,-.9,.1c-.5,0,-1,0,-1.4,-.1c-.5,0,-1,-.1,-1.5,-.2c-.4,-.1,-.8,-.3,-1.2,-.4c-.4,-.2,-.6,-.4,-.8,-.6h4v-1.7h-4q0,-.1,.1,-.2c0,0,0,-.1,0,-.1c0,-.1,.1,-.1,.1,-.1q0,-.1,.1,-.2c0,0,0,-.1,.1,-.1q0,-.1,.1,-.1h5.5l1,-2.4h-8.1c-.6,.6,-1,1.1,-1.3,1.7c-.3,.6,-.5,1.1,-.7,1.6c-.1,.5,-.2,1,-.2,1.5c0,.4,.1,.7,.3,1c.2,.3,.5,.6,.9,.8c.3,.3,.8,.5,1.3,.7c.4,.2,1,.3,1.5,.5c.6,.1,1.1,.2,1.7,.3c.6,.1,1.2,.2,1.7,.2c.6,.1,1.1,.1,1.6,.1c.5,0,.9,0,1.3,0l1.3,-2.5Zm17,-3.6c-.1,-.3,-.4,-.5,-.6,-.8c-.3,-.2,-.6,-.4,-1,-.6c-.4,-.3,-.9,-.5,-1.4,-.6c-.6,-.2,-1.2,-.3,-1.9,-.4c-.8,.1,-1.4,.2,-2,.4c-.5,.2,-1,.4,-1.4,.6c-.5,.2,-.8,.5,-1.1,.7c-.3,.2,-.5,.5,-.7,.7c-.5,.6,-.7,1.2,-.8,1.9c.1,.6,.3,1.2,.8,1.8c.2,.3,.4,.5,.7,.7c.3,.3,.6,.5,1.1,.8c.4,.2,.9,.4,1.4,.5c.6,.2,1.2,.4,2,.5c.7,-.1,1.3,-.2,1.9,-.4c.5,-.2,1,-.4,1.4,-.6c.4,-.2,.7,-.5,1,-.7c.2,-.3,.5,-.5,.6,-.8c.5,-.6,.7,-1.2,.7,-1.9c0,-.7,-.2,-1.3,-.7,-1.8Zm-2.5,2.6c-.2,.3,-.4,.5,-.6,.6c-.3,.2,-.6,.3,-.9,.4c-.3,.1,-.6,.2,-.9,.2c-.3,0,-.6,-.1,-.9,-.2c-.3,-.1,-.6,-.2,-.9,-.4c-.2,-.2,-.4,-.4,-.6,-.6c-.2,-.3,-.3,-.5,-.3,-.8c0,-.2,.1,-.5,.3,-.7c.2,-.2,.4,-.4,.7,-.6c.2,-.2,.5,-.3,.8,-.4c.3,-.1,.6,-.1,.8,-.1c.4,0,.7,0,1.1,.1c.3,.1,.6,.2,.8,.4c.3,.1,.5,.3,.6,.6c.2,.2,.2,.5,.2,.7c0,.3,0,.6,-.2,.8Zm15.9,5.2c-.7,-.4,-1.3,-.8,-1.8,-1.2c-.5,-.4,-.9,-.7,-1.2,-.9c-.4,-.4,-.7,-.6,-.9,-.9c-.2,-.2,-.4,-.5,-.6,-.7c-.2,-.2,-.4,-.5,-.6,-.7c-.2,-.3,-.4,-.5,-.6,-.7c.8,-.2,1.4,-.5,1.8,-.8c.4,-.3,.7,-.6,.9,-.9c.3,-.3,.4,-.7,.4,-1c0,-.4,-.1,-.7,-.3,-.9c-.1,-.3,-.4,-.5,-.7,-.7c-.3,-.1,-.7,-.3,-1.1,-.4c-.4,-.1,-.8,-.2,-1.2,-.2c-.5,-.1,-.9,-.2,-1.4,-.2c-.4,0,-.9,0,-1.3,0c-.2,0,-.4,0,-.7,0c-.4,.1,-.7,.1,-1.1,.1c-.3,.1,-.7,.1,-1,.1c-.4,0,-.7,.1,-1.1,.1c.1,.5,.2,1,.3,1.5c0,.4,0,.8,.1,1.2c0,.3,0,.7,0,1c0,.3,0,.7,0,1.1c0,.3,0,.8,0,1.3c-.1,.6,-.1,1.2,-.1,1.9h2.9c0,-1.3,0,-2.2,0,-2.9c-.1,-.4,-.1,-.7,-.1,-.9c0,-.3,0,-.5,.1,-.8c0,-.2,0,-.5,0,-.7c0,-.3,0,-.6,.1,-.9c.4,0,.8,-.1,1.2,-.1c.3,0,.6,-.1,.9,-.1c.2,0,.4,.1,.6,.1c.2,0,.3,.1,.5,.1c.2,.1,.4,.3,.4,.5c0,.2,-.1,.4,-.2,.6c-.2,.2,-.4,.3,-.7,.4c-.2,.2,-.5,.2,-.8,.3c-.3,.1,-.6,.1,-.8,.2c-.3,0,-.5,0,-.6,0c-.2,0,-.3,0,-.3,0c.3,.7,.6,1.3,.8,1.7c.3,.5,.6,.9,.8,1.2c.2,.4,.5,.7,.7,1c.5,.4,.9,.8,1.3,1.2c.2,.1,.3,.2,.5,.4c.2,.1,.4,.3,.5,.4c.2,.1,.4,.2,.5,.3c.2,.1,.3,.1,.4,.1l3.5,-.2Zm8.6,-5.3c-.1,-.2,-.3,-.4,-.5,-.6c-.3,-.2,-.6,-.4,-1.1,-.4c.2,-.1,.3,-.3,.4,-.4c.1,-.2,.2,-.4,.2,-.5c.1,-.2,.1,-.4,.1,-.7c0,-.3,-.1,-.7,-.4,-.9c-.3,-.3,-.6,-.6,-1.1,-.8c-.5,-.2,-1.1,-.3,-1.8,-.4c-.7,-.1,-1.4,-.2,-2.2,-.1c-.6,0,-1.1,0,-1.6,0c-.5,0,-.9,0,-1.4,0c-.5,0,-.8,.1,-1.2,.1c.1,.6,.1,1.1,.1,1.6c0,.5,.1,.9,.1,1.3c0,.4,0,.7,0,1c0,.4,0,.7,0,1.2c0,.3,0,.8,0,1.3c-.1,.5,-.1,1.1,-.1,1.7c.2,0,.5,0,.8,0c.3,.1,.6,.1,.9,.1c.3,0,.7,0,1,0c.3,0,.6,0,.9,0c.7,0,1.4,0,2.1,0c1.7,.1,3,-.1,3.8,-.6c.8,-.5,1.2,-1.1,1.2,-2c0,-.3,-.1,-.6,-.2,-.9Zm-3.8,1.5c-.3,.2,-1,.2,-1.8,.2c-.2,0,-.4,0,-.6,0c-.2,0,-.4,0,-.7,-.1c-.2,0,-.5,0,-.7,0c0,-.4,0,-.7,0,-1V99.6c.7,-.1,1.3,-.2,1.9,-.2c.2,0,.5,0,.7,.1c.2,0,.4,0,.6,.1c.2,.1,.3,.1,.4,.2c.1,.2,.2,.3,.2,.5c-.1,.1,-.2,.3,-.3,.5c-.2,.1,-.5,.2,-.8,.3c-.3,.1,-.8,.1,-1.4,.1l1.2,1.5c.1,0,.2,0,.3,0c.1,0,.2,0,.3,-.1c.1,0,.2,0,.2,0c.1,0,.2,0,.3,-.1c0,0,.1,0,.2,0c.1,-.1,.2,-.1,.3,-.1c.1,0,.2,.1,.2,.3c0,.1,0,.2,0,.2c0,.4,-.1,.7,-.5,.9Z" class="g6_5"/>
</g>
<image x="183" y="97" width="12" height="10" xlink:href="shade/11.webp"/>
<image x="194" y="96" width="12" height="11" xlink:href="shade/12.webp"/>
<image x="205" y="97" width="11" height="9" xlink:href="shade/13.webp"/>
<image x="215" y="95" width="8" height="12" xlink:href="shade/14.webp"/>
<image x="222" y="97" width="13" height="10" xlink:href="shade/15.webp"/>
<image x="233" y="97" width="10" height="9" xlink:href="shade/16.webp"/>
<image x="244" y="97" width="5" height="9" xlink:href="shade/17.webp"/>
<image x="248" y="97" width="13" height="10" xlink:href="shade/18.webp"/>
<image x="259" y="97" width="12" height="10" xlink:href="shade/19.webp"/>
<image x="277" y="97" width="13" height="10" xlink:href="shade/20.webp"/>
<image x="289" y="97" width="14" height="12" xlink:href="shade/21.webp"/>
<image x="299" y="97" width="12" height="9" xlink:href="shade/22.webp"/>
<image x="185" y="146" width="134" height="133" xlink:href="shade/23.webp"/>
<image preserveAspectRatio="none" x="173" y="114" width="154" height="195" xlink:href="img/37.webp"/>
<path d="M178.7,102.6c7.3,0,13.2,-5.9,13.2,-13.2c0,-7.3,-5.9,-13.2,-13.2,-13.2c-7.3,0,-13.2,5.9,-13.2,13.2c0,7.3,5.9,13.2,13.2,13.2Z" class="g0_5"/>
<path d="M218.2,159.5c7.3,0,13.2,-5.9,13.2,-13.2c0,-7.3,-5.9,-13.2,-13.2,-13.2c-7.3,0,-13.2,5.9,-13.2,13.2c0,7.3,5.9,13.2,13.2,13.2Z" class="g0_5"/>
<path d="M307.3,326.4c7.3,0,13.2,-5.9,13.2,-13.2c0,-7.2,-5.9,-13.1,-13.2,-13.1c-7.3,0,-13.2,5.9,-13.2,13.1c0,7.3,5.9,13.2,13.2,13.2Z" class="g0_5"/>
<path d="M307.3,326.4c7.3,0,13.2,-5.9,13.2,-13.2c0,-7.2,-5.9,-13.1,-13.2,-13.1c-7.3,0,-13.2,5.9,-13.2,13.1c0,7.3,5.9,13.2,13.2,13.2Z" class="g7_5"/>
<path d="M162.9,313.2c7.3,0,13.2,-5.9,13.2,-13.1c0,-7.3,-5.9,-13.2,-13.2,-13.2c-7.3,0,-13.2,5.9,-13.2,13.2c0,7.2,5.9,13.1,13.2,13.1Z" class="g0_5"/>
<path d="M469.7,75.2H853" class="g4_5"/>
<image preserveAspectRatio="none" x="546" y="79" width="231" height="131" xlink:href="img/38.webp"/>
<image preserveAspectRatio="none" x="669" y="327" width="80" height="79" xlink:href="img/39.webp"/>
<image preserveAspectRatio="none" x="670" y="326" width="74" height="74" xlink:href="img/40.webp"/>
<image preserveAspectRatio="none" x="487" y="327" width="80" height="79" xlink:href="img/41.webp"/>
<image preserveAspectRatio="none" x="488" y="326" width="74" height="74" xlink:href="img/42.webp"/>
<image preserveAspectRatio="none" x="579" y="327" width="79" height="79" xlink:href="img/43.webp"/>
<image preserveAspectRatio="none" x="579" y="326" width="74" height="74" xlink:href="img/44.webp"/>
<image preserveAspectRatio="none" x="761" y="327" width="79" height="79" xlink:href="img/45.webp"/>
<g clip-path="url(#c2_5)">
<path d="M641.3,676H919.8V266.2H641.3V676Z" class="g1_5"/>
</g>
<image preserveAspectRatio="none" x="640" y="266" width="280" height="413" opacity="0.800003" xlink:href="img/46.webp"/>
<image preserveAspectRatio="none" x="678" y="293" width="205" height="42" xlink:href="img/47.webp"/>
<image preserveAspectRatio="none" x="720" y="330" width="179" height="309" xlink:href="img/48.webp"/>
<path d="M469.9,321.1H853.1M469.7,567.6H853m-383.1,363H853.1M469.9,738.8H853.1" class="g4_5"/>
<image preserveAspectRatio="none" x="625" y="576" width="79" height="79" xlink:href="img/49.webp"/>
<image preserveAspectRatio="none" x="625" y="574" width="73" height="74" xlink:href="img/50.webp"/>
<image preserveAspectRatio="none" x="518" y="751" width="84" height="83" xlink:href="img/51.webp"/>
<image preserveAspectRatio="none" x="516" y="748" width="83" height="83" xlink:href="img/52.webp"/>
<image preserveAspectRatio="none" x="608" y="944" width="112" height="67" xlink:href="img/53.webp"/>
<image preserveAspectRatio="none" x="609" y="943" width="104" height="61" xlink:href="img/54.webp"/>
<path d="M469.9,1103.7H853.1" class="g4_5"/>
<image preserveAspectRatio="none" x="616" y="1114" width="96" height="68" xlink:href="img/55.webp"/>
<image preserveAspectRatio="none" x="618" y="1115" width="87" height="59" xlink:href="img/56.webp"/>
<image preserveAspectRatio="none" x="688" y="751" width="82" height="83" xlink:href="img/57.webp"/>
<image preserveAspectRatio="none" x="685" y="748" width="83" height="83" xlink:href="img/58.webp"/>
<path d="M56.3,561.1H439.6" class="g8_5"/>
</svg>