<?xml version="1.0" encoding="UTF-8" standalone="no"?>
<!DOCTYPE svg PUBLIC "-//W3C//DTD SVG 1.1//EN"
"http://www.w3.org/Graphics/SVG/1.1/DTD/svg11.dtd">
<svg viewBox="0 0 909 1286" version="1.1" xmlns="http://www.w3.org/2000/svg" xmlns:xlink="http://www.w3.org/1999/xlink">
<defs>
<style type="text/css"><![CDATA[
.g0_20{
fill: none;
stroke: #CD071E;
stroke-width: 6.111;
stroke-linecap: butt;
stroke-linejoin: miter;
stroke-miterlimit: 4;
}
.g1_20{
fill: none;
stroke: #FFFFFF;
stroke-width: 1.527;
stroke-linecap: butt;
stroke-linejoin: miter;
stroke-miterlimit: 4;
}
]]></style>
</defs>
<image preserveAspectRatio="none" x="-21" y="-21" width="932" height="1329" xlink:href="../1/img/1.png"/>
<image preserveAspectRatio="none" x="93" y="30" width="723" height="53" xlink:href="img/2.png"/>
<image preserveAspectRatio="none" x="56" y="201" width="384" height="252" xlink:href="img/3.png"/>
<image preserveAspectRatio="none" x="53" y="1042" width="392" height="194" xlink:href="img/4.png"/>
<image preserveAspectRatio="none" x="56" y="1044" width="384" height="185" xlink:href="img/5.png"/>
<image preserveAspectRatio="none" x="390" y="1078" width="41" height="43" xlink:href="img/6.png"/>
<path d="M410.4,1115.8c9.2,0,16.6,-7.4,16.6,-16.5c0,-9.2,-7.4,-16.6,-16.6,-16.6c-9.1,0,-16.5,7.4,-16.5,16.6c0,9.1,7.4,16.5,16.5,16.5Z" class="g0_20"/>
<image preserveAspectRatio="none" x="163" y="1169" width="55" height="29" xlink:href="img/7.png"/>
<image preserveAspectRatio="none" x="166" y="1171" width="48" height="21" xlink:href="img/8.png"/>
<image preserveAspectRatio="none" x="518" y="889" width="287" height="341" xlink:href="img/9.png"/>
<image preserveAspectRatio="none" x="468" y="614" width="387" height="254" xlink:href="img/10.png"/>
<image preserveAspectRatio="none" x="473" y="744" width="123" height="118" xlink:href="img/11.png"/>
<image preserveAspectRatio="none" x="552" y="818" width="41" height="41" xlink:href="img/12.png"/>
<path d="M486.4,814.9l.2,-.3l.5,-.1c.2,0,.3,.1,.4,.1c.2,0,.3,-.1,.5,-.3c.1,-.2,.3,-.3,.5,-.3c.1,0,.3,.1,.5,.3c.1,.2,.3,.3,.5,.3c.5,0,1.5,-.2,2.8,-.5c1.4,-.3,2.3,-.5,3,-.5c.3,0,.5,.2,.5,.5c0,.2,-.1,.4,-.2,.5l-.1,.5c.6,3.3,1,5.2,1,5.9c0,.3,-.2,.5,-.5,.5c-.1,0,-.2,0,-.5,0c-.1,-.1,-.3,0,-.3,0c-.1,.1,-.2,.2,-.3,.4l-.3,.4l-.5,-.1l-.3,-.4c0,-.2,-.2,-.3,-.5,-.3c-.1,0,-.2,0,-.4,.2c-.2,.1,-.3,.2,-.5,.2l-.4,-.1l-.2,-.5v-5.4l-.1,-.4l-.5,-.1c-.9,.2,-1.6,.3,-2,.5c-.3,.2,-.6,1.5,-.8,4c-.2,1.9,-.3,3.4,-.3,4.6l.2,.4l.4,.1c2.1,-.3,4,-.6,5.6,-.8h1.2c1,0,1.5,.4,1.5,1.3c0,.3,-.2,.6,-.4,.9c-.3,.2,-.4,.4,-.4,.5c0,.4,0,1,.2,1.8c.1,.9,.2,1.6,.2,2.1v1.3c0,.6,.1,1,.1,1.2c0,3,-.4,4.5,-1,4.5c-.1,0,-.2,0,-.4,0c-.2,0,-.3,-.1,-.5,-.1c-.1,0,-.3,0,-.6,0c-.7,.2,-1.5,.4,-2.5,.4c-.7,0,-1.7,-.1,-3.2,-.3c0,0,-.1,0,-.3,.1c-.2,.1,-.3,.2,-.4,.2c-.2,0,-.4,-.1,-.5,-.3l-.4,-.1c-.6,0,-1,-.2,-1,-.6c0,-.4,-.1,-.7,-.3,-.8c-.1,0,-.4,-.1,-1,-.3c-.1,-.6,-.2,-1.2,-.2,-2v-2.5l.2,-.4l.4,-.1l.4,.1l.2,.5c0,.5,.2,.7,.5,.7c.3,0,.5,-.1,.6,-.5c.1,-.4,.3,-.6,.6,-.6l.4,.2l.2,.4c0,3.1,.2,4.7,.6,4.8c1.2,.1,2.2,.2,3,.2h.4l.4,-.2c0,-.2,0,-.3,0,-.5c0,-4.2,-.3,-7.6,-.9,-9.9c-.1,-.3,-.3,-.4,-.5,-.4c-.6,0,-1.5,.2,-2.4,.5c-.2,.1,-.3,.2,-.5,.5c-.1,.3,-.3,.5,-.6,.5c-.4,-.2,-.6,-.3,-.7,-.3c-.1,0,-.5,.2,-1.1,.6h-.5l-.4,-.3v-.1q0,-.1,0,-.2l-.1,-.4c-.5,-5.2,-.7,-8.3,-.7,-9.4v-1.9l.2,-.4l.4,-.2l.5,.2l.1,.4c0,.6,.2,.9,.5,.9c.1,0,.3,0,.4,-.1l.3,-.4v-.2l.1,-.6Z" class="g1_20"/>
<image preserveAspectRatio="none" x="498" y="629" width="64" height="133" xlink:href="img/13.png"/>
<image preserveAspectRatio="none" x="502" y="631" width="56" height="126" xlink:href="img/14.png"/>
<image preserveAspectRatio="none" x="510" y="620" width="43" height="41" xlink:href="img/15.png"/>
<image preserveAspectRatio="none" x="507" y="614" width="46" height="47" xlink:href="img/16.png"/>
<image preserveAspectRatio="none" x="510" y="675" width="43" height="44" xlink:href="img/17.png"/>
<image preserveAspectRatio="none" x="511" y="674" width="38" height="42" xlink:href="img/18.png"/>
<image preserveAspectRatio="none" x="487" y="649" width="43" height="43" xlink:href="img/19.png"/>
<image preserveAspectRatio="none" x="487" y="648" width="43" height="40" xlink:href="img/20.png"/>
<image preserveAspectRatio="none" x="530" y="646" width="41" height="44" xlink:href="img/21.png"/>
<image preserveAspectRatio="none" x="531" y="646" width="38" height="41" xlink:href="img/22.png"/>
<image preserveAspectRatio="none" x="469" y="199" width="386" height="254" xlink:href="img/23.png"/>
<image preserveAspectRatio="none" x="658" y="327" width="77" height="70" xlink:href="img/24.png"/>
<image preserveAspectRatio="none" x="654" y="318" width="87" height="81" xlink:href="img/25.png"/>
<image preserveAspectRatio="none" x="474" y="330" width="123" height="118" xlink:href="img/26.png"/>
<path d="M494.6,424l-.1,-.4c0,.3,0,-.2,.1,-1.4c0,-.9,0,-1.6,-.1,-2.1c-.1,-.7,-.3,-1.1,-.6,-1.1c-.4,0,-.6,.5,-.6,1.5c0,.5,0,1.1,0,1.7c-.1,.8,-.3,1.2,-.7,1.2l-.4,-.1l-.2,-.4c.3,-2.9,.4,-5.7,.6,-8.6l-.2,-.4l-.5,-.1c-1.4,.3,-3.4,.5,-5.7,.7c-.4,-.1,-.7,0,-.8,.1l-.4,.2l-.5,-.1l-.2,-.4c-.4,-3.7,-.6,-6.5,-.6,-8.3c0,-3.3,.3,-4.9,1,-4.8c.3,.2,.5,.3,.7,.3l.8,-.3l.4,.2l.1,.4c.5,4.8,.9,8.5,1.2,10.9l.2,.3l.4,.1c1.9,-.2,3.2,-.4,3.8,-.7c.3,-.1,.5,-2.1,.5,-6v-4c0,-.5,.2,-.8,.5,-.9c.2,0,.4,-.1,.5,-.4c.2,-.2,.3,-.3,.5,-.3c.3,.1,.4,.2,.5,.4c.2,.1,.4,.2,.4,.2h.6l.4,.2l.2,.4v2.1c0,1.9,0,4.8,-.1,8.6c-.1,3.8,-.2,6.7,-.2,8.5c0,.3,-.1,.6,-.2,.7c-.1,.4,-.2,.6,-.2,.7c0,1.1,-.2,1.6,-.7,1.6h.1l-.5,-.2Z" class="g1_20"/>
<image preserveAspectRatio="none" x="52" y="554" width="393" height="196" xlink:href="img/27.png"/>
<image preserveAspectRatio="none" x="56" y="557" width="384" height="186" xlink:href="img/28.png"/>
<image preserveAspectRatio="none" x="53" y="761" width="392" height="194" xlink:href="img/29.png"/>
<image preserveAspectRatio="none" x="56" y="762" width="384" height="186" xlink:href="img/30.png"/>
<image preserveAspectRatio="none" x="383" y="753" width="42" height="41" xlink:href="img/31.png"/>
<path d="M404.6,789.5c9.1,0,16.5,-7.4,16.5,-16.6c0,-9.1,-7.4,-16.5,-16.5,-16.5c-9.1,0,-16.6,7.4,-16.6,16.5c0,9.2,7.5,16.6,16.6,16.6Z" class="g0_20"/>
<image preserveAspectRatio="none" x="162" y="887" width="56" height="29" xlink:href="img/32.png"/>
<image preserveAspectRatio="none" x="165" y="889" width="48" height="21" xlink:href="img/33.png"/>
<image preserveAspectRatio="none" x="388" y="547" width="41" height="41" xlink:href="img/34.png"/>
<path d="M409.6,583.1c9.2,0,16.6,-7.4,16.6,-16.5c0,-9.2,-7.4,-16.6,-16.6,-16.6c-9.1,0,-16.5,7.4,-16.5,16.6c0,9.1,7.4,16.5,16.5,16.5Z" class="g0_20"/>
<image preserveAspectRatio="none" x="162" y="684" width="56" height="29" xlink:href="img/35.png"/>
<image preserveAspectRatio="none" x="165" y="685" width="48" height="22" xlink:href="img/36.png"/>
</svg>