<?xml version="1.0" encoding="UTF-8" standalone="no"?>
<!DOCTYPE svg PUBLIC "-//W3C//DTD SVG 1.1//EN"
"http://www.w3.org/Graphics/SVG/1.1/DTD/svg11.dtd">
<svg viewBox="0 0 909 1286" version="1.1" xmlns="http://www.w3.org/2000/svg" xmlns:xlink="http://www.w3.org/1999/xlink">
<defs>
<style type="text/css"><![CDATA[
.g0_13{
fill: none;
stroke: #000000;
stroke-width: 0.763;
stroke-linecap: butt;
stroke-linejoin: miter;
}
.g1_13{
}
.g2_13{
fill: none;
stroke: #FFFFFF;
stroke-width: 0.611;
stroke-linecap: butt;
stroke-linejoin: miter;
stroke-miterlimit: 1;
}
.g3_13{
fill: none;
stroke: #FFFFFF;
stroke-width: 0.534;
stroke-linecap: butt;
stroke-linejoin: miter;
stroke-miterlimit: 1;
}
.g4_13{
fill: none;
stroke: #FFFFFF;
stroke-width: 0.763;
stroke-linecap: butt;
stroke-linejoin: miter;
stroke-miterlimit: 4;
}
.g5_13{
fill: none;
stroke: #FFFFFF;
stroke-width: 0.763;
stroke-linecap: butt;
stroke-linejoin: miter;
stroke-miterlimit: 1;
}
.g6_13{
fill: none;
stroke: #FFFFFF;
stroke-width: 0.545;
stroke-linecap: butt;
stroke-linejoin: miter;
stroke-miterlimit: 1;
}
]]></style>
</defs>
<image preserveAspectRatio="none" x="-1" y="-21" width="932" height="1329" xlink:href="../1/img/1.webp"/>
<path d="M43.3,922.2H439.6" class="g0_13"/>
<path d="M52.6,952.1c4.9,0,8.9,-4,8.9,-9c0,-4.9,-4,-9,-8.9,-9c-5,0,-9,4.1,-9,9c0,5,4,9,9,9Z" class="g1_13"/>
<path d="M52.6,952.1c4.9,0,8.9,-4,8.9,-9c0,-4.9,-4,-9,-8.9,-9c-5,0,-9,4.1,-9,9c0,5,4,9,9,9Z" class="g2_13"/>
<path d="M52.6,1005.3c4.9,0,8.9,-4,8.9,-9c0,-4.9,-4,-8.9,-8.9,-8.9c-5,0,-9,4,-9,8.9c0,5,4,9,9,9Z" class="g1_13"/>
<path d="M52.6,1005.3c4.9,0,8.9,-4,8.9,-9c0,-4.9,-4,-8.9,-8.9,-8.9c-5,0,-9,4,-9,8.9c0,5,4,9,9,9Z" class="g2_13"/>
<path d="M52.6,1027.7c4.9,0,8.9,-4.1,8.9,-9c0,-5,-4,-9,-8.9,-9c-5,0,-9,4,-9,9c0,4.9,4,9,9,9Z" class="g1_13"/>
<path d="M52.6,1027.7c4.9,0,8.9,-4.1,8.9,-9c0,-5,-4,-9,-8.9,-9c-5,0,-9,4,-9,9c0,4.9,4,9,9,9Z" class="g2_13"/>
<path d="M52.6,1050c4.9,0,8.9,-4,8.9,-8.9c0,-5,-4,-9,-8.9,-9c-5,0,-9,4,-9,9c0,4.9,4,8.9,9,8.9Z" class="g1_13"/>
<path d="M52.6,1050c4.9,0,8.9,-4,8.9,-8.9c0,-5,-4,-9,-8.9,-9c-5,0,-9,4,-9,9c0,4.9,4,8.9,9,8.9Z" class="g2_13"/>
<path d="M52.6,1072.4c4.9,0,8.9,-4,8.9,-9c0,-4.9,-4,-8.9,-8.9,-8.9c-5,0,-9,4,-9,8.9c0,5,4,9,9,9Z" class="g1_13"/>
<path d="M52.6,1072.4c4.9,0,8.9,-4,8.9,-9c0,-4.9,-4,-8.9,-8.9,-8.9c-5,0,-9,4,-9,8.9c0,5,4,9,9,9Z" class="g2_13"/>
<path d="M52.6,1127.8c4.9,0,9,-4,9,-9c0,-5,-4.1,-9,-9,-9c-5,0,-9,4,-9,9c0,5,4,9,9,9Z" class="g1_13"/>
<path d="M52.6,1127.8c4.9,0,9,-4,9,-9c0,-5,-4.1,-9,-9,-9c-5,0,-9,4,-9,9c0,5,4,9,9,9Z" class="g3_13"/>
<image preserveAspectRatio="none" x="231" y="1110" width="19" height="18" xlink:href="img/2.webp"/>
<path d="M240.4,1126.6c4.2,0,7.6,-3.4,7.6,-7.6c0,-4.1,-3.4,-7.5,-7.6,-7.5c-4.2,0,-7.6,3.4,-7.6,7.5c0,4.2,3.4,7.6,7.6,7.6Z" class="g4_13"/>
<path d="M43.3,60.1H439.6" class="g0_13"/>
<path d="M52.6,85.6c4.9,0,8.9,-4,8.9,-8.9c0,-5,-4,-9,-8.9,-9c-5,0,-9,4,-9,9c0,4.9,4,8.9,9,8.9Z" class="g1_13"/>
<path d="M52.6,85.6c4.9,0,8.9,-4,8.9,-8.9c0,-5,-4,-9,-8.9,-9c-5,0,-9,4,-9,9c0,4.9,4,8.9,9,8.9Z" class="g2_13"/>
<path d="M52.6,122.3c4.9,0,8.9,-4,8.9,-8.9c0,-4.9,-4,-8.9,-8.9,-8.9c-4.9,0,-8.9,4,-8.9,8.9c0,4.9,4,8.9,8.9,8.9Z" class="g1_13"/>
<path d="M52.6,122.3c4.9,0,8.9,-4,8.9,-8.9c0,-4.9,-4,-8.9,-8.9,-8.9c-4.9,0,-8.9,4,-8.9,8.9c0,4.9,4,8.9,8.9,8.9Z" class="g5_13"/>
<path d="M52.6,160.1c4.9,0,8.9,-4,8.9,-8.9c0,-5,-4,-9,-8.9,-9c-5,0,-9,4,-9,9c0,4.9,4,8.9,9,8.9Z" class="g1_13"/>
<path d="M52.6,160.1c4.9,0,8.9,-4,8.9,-8.9c0,-5,-4,-9,-8.9,-9c-5,0,-9,4,-9,9c0,4.9,4,8.9,9,8.9Z" class="g2_13"/>
<path d="M52.6,217.4c4.9,0,9,-4.1,9,-9c0,-5,-4.1,-9,-9,-9c-5,0,-9,4,-9,9c0,4.9,4,9,9,9Z" class="g1_13"/>
<path d="M52.6,217.4c4.9,0,9,-4.1,9,-9c0,-5,-4.1,-9,-9,-9c-5,0,-9,4,-9,9c0,4.9,4,9,9,9Z" class="g3_13"/>
<path d="M52.6,255.2c4.9,0,9,-4.1,9,-9.1c0,-4.9,-4.1,-9,-9,-9c-5,0,-9,4.1,-9,9c0,5,4,9.1,9,9.1Z" class="g1_13"/>
<path d="M52.6,255.2c4.9,0,9,-4.1,9,-9.1c0,-4.9,-4.1,-9,-9,-9c-5,0,-9,4.1,-9,9c0,5,4,9.1,9,9.1Z" class="g3_13"/>
<image preserveAspectRatio="none" x="73" y="254" width="22" height="22" xlink:href="img/3.webp"/>
<image preserveAspectRatio="none" x="95" y="254" width="22" height="22" xlink:href="img/4.webp"/>
<image preserveAspectRatio="none" x="271" y="254" width="22" height="22" xlink:href="img/5.webp"/>
<path d="M52.6,310c4.9,0,9,-4,9,-9c0,-5,-4.1,-9,-9,-9c-5,0,-9,4,-9,9c0,5,4,9,9,9Z" class="g1_13"/>
<path d="M52.6,310c4.9,0,9,-4,9,-9c0,-5,-4.1,-9,-9,-9c-5,0,-9,4,-9,9c0,5,4,9,9,9Z" class="g3_13"/>
<image preserveAspectRatio="none" x="281" y="292" width="19" height="18" xlink:href="img/6.webp"/>
<path d="M290.4,308.8c4.2,0,7.5,-3.4,7.5,-7.6c0,-4.2,-3.3,-7.5,-7.5,-7.5c-4.2,0,-7.6,3.3,-7.6,7.5c0,4.2,3.4,7.6,7.6,7.6Z" class="g4_13"/>
<path d="M43.3,491.1H439.6" class="g0_13"/>
<path d="M52.6,521c4.9,0,8.9,-4,8.9,-9c0,-4.9,-4,-8.9,-8.9,-8.9c-5,0,-9,4,-9,8.9c0,5,4,9,9,9Z" class="g1_13"/>
<path d="M52.6,521c4.9,0,8.9,-4,8.9,-9c0,-4.9,-4,-8.9,-8.9,-8.9c-5,0,-9,4,-9,8.9c0,5,4,9,9,9Z" class="g2_13"/>
<path d="M52.6,574.2c4.9,0,8.9,-4,8.9,-8.9c0,-5,-4,-9,-8.9,-9c-5,0,-9,4,-9,9c0,4.9,4,8.9,9,8.9Z" class="g1_13"/>
<path d="M52.6,574.2c4.9,0,8.9,-4,8.9,-8.9c0,-5,-4,-9,-8.9,-9c-5,0,-9,4,-9,9c0,4.9,4,8.9,9,8.9Z" class="g2_13"/>
<path d="M52.6,613.1c4.9,0,8.9,-4,8.9,-9c0,-4.9,-4,-8.9,-8.9,-8.9c-5,0,-9,4,-9,8.9c0,5,4,9,9,9Z" class="g1_13"/>
<path d="M52.6,613.1c4.9,0,8.9,-4,8.9,-9c0,-4.9,-4,-8.9,-8.9,-8.9c-5,0,-9,4,-9,8.9c0,5,4,9,9,9Z" class="g2_13"/>
<image preserveAspectRatio="none" x="467" y="38" width="404" height="348" xlink:href="img/7.webp"/>
<path d="M712.4,110.1c4.4,0,8,-3.6,8,-8c0,-4.4,-3.6,-8,-8,-8c-4.4,0,-8,3.6,-8,8c0,4.4,3.6,8,8,8Z" class="g1_13"/>
<path d="M712.4,110.1c4.4,0,8,-3.6,8,-8c0,-4.4,-3.6,-8,-8,-8c-4.4,0,-8,3.6,-8,8c0,4.4,3.6,8,8,8Z" class="g6_13"/>
<path d="M803.6,191.7c4.4,0,8,-3.6,8,-8c0,-4.4,-3.6,-8,-8,-8c-4.4,0,-8,3.6,-8,8c0,4.4,3.6,8,8,8Z" class="g1_13"/>
<path d="M803.6,191.7c4.4,0,8,-3.6,8,-8c0,-4.4,-3.6,-8,-8,-8c-4.4,0,-8,3.6,-8,8c0,4.4,3.6,8,8,8Z" class="g6_13"/>
<path d="M800.8,256c4.4,0,8,-3.6,8,-8c0,-4.4,-3.6,-8,-8,-8c-4.4,0,-8,3.6,-8,8c0,4.4,3.6,8,8,8Z" class="g1_13"/>
<path d="M800.8,256c4.4,0,8,-3.6,8,-8c0,-4.4,-3.6,-8,-8,-8c-4.4,0,-8,3.6,-8,8c0,4.4,3.6,8,8,8Z" class="g6_13"/>
<path d="M715.5,332.7c4.4,0,8,-3.6,8,-8c0,-4.4,-3.6,-8,-8,-8c-4.4,0,-8,3.6,-8,8c0,4.4,3.6,8,8,8Z" class="g1_13"/>
<path d="M715.5,332.7c4.4,0,8,-3.6,8,-8c0,-4.4,-3.6,-8,-8,-8c-4.4,0,-8,3.6,-8,8c0,4.4,3.6,8,8,8Z" class="g6_13"/>
<path d="M628.3,329.6c4.4,0,8,-3.6,8,-8c0,-4.4,-3.6,-8,-8,-8c-4.4,0,-8,3.6,-8,8c0,4.4,3.6,8,8,8Z" class="g1_13"/>
<path d="M628.3,329.6c4.4,0,8,-3.6,8,-8c0,-4.4,-3.6,-8,-8,-8c-4.4,0,-8,3.6,-8,8c0,4.4,3.6,8,8,8Z" class="g6_13"/>
<path d="M535.5,249.8c4.4,0,8,-3.5,8,-8c0,-4.4,-3.6,-8,-8,-8c-4.4,0,-8,3.6,-8,8c0,4.5,3.6,8,8,8Z" class="g1_13"/>
<path d="M535.5,249.8c4.4,0,8,-3.5,8,-8c0,-4.4,-3.6,-8,-8,-8c-4.4,0,-8,3.6,-8,8c0,4.5,3.6,8,8,8Z" class="g6_13"/>
<path d="M660.5,279.2c4.4,0,8,-3.6,8,-8c0,-4.4,-3.6,-8,-8,-8c-4.4,0,-8,3.6,-8,8c0,4.4,3.6,8,8,8Z" class="g1_13"/>
<path d="M660.5,279.2c4.4,0,8,-3.6,8,-8c0,-4.4,-3.6,-8,-8,-8c-4.4,0,-8,3.6,-8,8c0,4.4,3.6,8,8,8Z" class="g6_13"/>
<path d="M740.2,258.1c4.4,0,8,-3.6,8,-8c0,-4.4,-3.6,-8,-8,-8c-4.4,0,-8,3.6,-8,8c0,4.4,3.6,8,8,8Z" class="g1_13"/>
<path d="M740.2,258.1c4.4,0,8,-3.6,8,-8c0,-4.4,-3.6,-8,-8,-8c-4.4,0,-8,3.6,-8,8c0,4.4,3.6,8,8,8Z" class="g6_13"/>
<path d="M675.5,379.1c4.4,0,8,-3.6,8,-8c0,-4.4,-3.6,-8,-8,-8c-4.4,0,-8,3.6,-8,8c0,4.4,3.6,8,8,8Z" class="g1_13"/>
<path d="M675.5,379.1c4.4,0,8,-3.6,8,-8c0,-4.4,-3.6,-8,-8,-8c-4.4,0,-8,3.6,-8,8c0,4.4,3.6,8,8,8Z" class="g6_13"/>
<path d="M856.5,378c4.4,0,8,-3.6,8,-8c0,-4.4,-3.6,-8,-8,-8c-4.4,0,-8,3.6,-8,8c0,4.4,3.6,8,8,8Z" class="g1_13"/>
<path d="M856.5,378c4.4,0,8,-3.6,8,-8c0,-4.4,-3.6,-8,-8,-8c-4.4,0,-8,3.6,-8,8c0,4.4,3.6,8,8,8Z" class="g6_13"/>
<path d="M850.5,210.6c4.4,0,8,-3.6,8,-8c0,-4.4,-3.6,-8,-8,-8c-4.5,0,-8,3.6,-8,8c0,4.4,3.5,8,8,8Z" class="g1_13"/>
<path d="M850.5,210.6c4.4,0,8,-3.6,8,-8c0,-4.4,-3.6,-8,-8,-8c-4.5,0,-8,3.6,-8,8c0,4.4,3.5,8,8,8Z" class="g6_13"/>
<path d="M483,378c4.4,0,8,-3.6,8,-8c0,-4.4,-3.6,-8,-8,-8c-4.5,0,-8,3.6,-8,8c0,4.4,3.5,8,8,8Z" class="g1_13"/>
<path d="M483,378c4.4,0,8,-3.6,8,-8c0,-4.4,-3.6,-8,-8,-8c-4.5,0,-8,3.6,-8,8c0,4.4,3.5,8,8,8Z" class="g6_13"/>
<path d="M489.8,248.9c4.4,0,8,-3.6,8,-8c0,-4.4,-3.6,-8,-8,-8c-4.5,0,-8,3.6,-8,8c0,4.4,3.5,8,8,8Z" class="g1_13"/>
<path d="M489.8,248.9c4.4,0,8,-3.6,8,-8c0,-4.4,-3.6,-8,-8,-8c-4.5,0,-8,3.6,-8,8c0,4.4,3.5,8,8,8Z" class="g6_13"/>
<path d="M499.5,120.3c4.4,0,8,-3.6,8,-8c0,-4.4,-3.6,-8,-8,-8c-4.4,0,-8,3.6,-8,8c0,4.4,3.6,8,8,8Z" class="g1_13"/>
<path d="M499.5,120.3c4.4,0,8,-3.6,8,-8c0,-4.4,-3.6,-8,-8,-8c-4.4,0,-8,3.6,-8,8c0,4.4,3.6,8,8,8Z" class="g6_13"/>
<path d="M524.4,69.9c4.4,0,8,-3.6,8,-8c0,-4.4,-3.6,-8,-8,-8c-4.4,0,-8,3.6,-8,8c0,4.4,3.6,8,8,8Z" class="g1_13"/>
<path d="M524.4,69.9c4.4,0,8,-3.6,8,-8c0,-4.4,-3.6,-8,-8,-8c-4.4,0,-8,3.6,-8,8c0,4.4,3.6,8,8,8Z" class="g6_13"/>
<path d="M688,63.9c4.4,0,8,-3.6,8,-8c0,-4.5,-3.6,-8,-8,-8c-4.5,0,-8,3.5,-8,8c0,4.4,3.5,8,8,8Z" class="g1_13"/>
<path d="M688,63.9c4.4,0,8,-3.6,8,-8c0,-4.5,-3.6,-8,-8,-8c-4.5,0,-8,3.5,-8,8c0,4.4,3.5,8,8,8Z" class="g6_13"/>
<path d="M853.9,63.1c4.4,0,8,-3.6,8,-8c0,-4.4,-3.6,-8,-8,-8c-4.5,0,-8,3.6,-8,8c0,4.4,3.5,8,8,8Z" class="g1_13"/>
<path d="M853.9,63.1c4.4,0,8,-3.6,8,-8c0,-4.4,-3.6,-8,-8,-8c-4.5,0,-8,3.6,-8,8c0,4.4,3.5,8,8,8Z" class="g6_13"/>
<image preserveAspectRatio="none" x="471" y="473" width="397" height="340" xlink:href="img/8.webp"/>
<path d="M524.9,766.8c4.4,0,8,-3.6,8,-8c0,-4.4,-3.6,-8,-8,-8c-4.4,0,-8,3.6,-8,8c0,4.4,3.6,8,8,8Z" class="g1_13"/>
<path d="M524.9,766.8c4.4,0,8,-3.6,8,-8c0,-4.4,-3.6,-8,-8,-8c-4.4,0,-8,3.6,-8,8c0,4.4,3.6,8,8,8Z" class="g6_13"/>
<path d="M647,762.2c4.4,0,8,-3.6,8,-8c0,-4.4,-3.6,-8,-8,-8c-4.4,0,-8,3.6,-8,8c0,4.4,3.6,8,8,8Z" class="g1_13"/>
<path d="M647,762.2c4.4,0,8,-3.6,8,-8c0,-4.4,-3.6,-8,-8,-8c-4.4,0,-8,3.6,-8,8c0,4.4,3.6,8,8,8Z" class="g6_13"/>
<path d="M803,765.2c4.4,0,8,-3.6,8,-8c0,-4.4,-3.6,-8,-8,-8c-4.5,0,-8,3.6,-8,8c0,4.4,3.5,8,8,8Z" class="g1_13"/>
<path d="M803,765.2c4.4,0,8,-3.6,8,-8c0,-4.4,-3.6,-8,-8,-8c-4.5,0,-8,3.6,-8,8c0,4.4,3.5,8,8,8Z" class="g6_13"/>
<path d="M530.1,632.5c4.4,0,8,-3.6,8,-8c0,-4.4,-3.6,-8,-8,-8c-4.4,0,-8,3.6,-8,8c0,4.4,3.6,8,8,8Z" class="g1_13"/>
<path d="M530.1,632.5c4.4,0,8,-3.6,8,-8c0,-4.4,-3.6,-8,-8,-8c-4.4,0,-8,3.6,-8,8c0,4.4,3.6,8,8,8Z" class="g6_13"/>
<path d="M580.7,618.1c4.4,0,8,-3.6,8,-8c0,-4.4,-3.6,-8,-8,-8c-4.4,0,-8,3.6,-8,8c0,4.4,3.6,8,8,8Z" class="g1_13"/>
<path d="M580.7,618.1c4.4,0,8,-3.6,8,-8c0,-4.4,-3.6,-8,-8,-8c-4.4,0,-8,3.6,-8,8c0,4.4,3.6,8,8,8Z" class="g6_13"/>
<path d="M726,617.9c4.4,0,8,-3.6,8,-8c0,-4.4,-3.6,-8,-8,-8c-4.4,0,-8,3.6,-8,8c0,4.4,3.6,8,8,8Z" class="g1_13"/>
<path d="M726,617.9c4.4,0,8,-3.6,8,-8c0,-4.4,-3.6,-8,-8,-8c-4.4,0,-8,3.6,-8,8c0,4.4,3.6,8,8,8Z" class="g6_13"/>
<path d="M651.5,675.6c4.4,0,8,-3.6,8,-8.1c0,-4.4,-3.6,-8,-8,-8c-4.4,0,-8,3.6,-8,8c0,4.5,3.6,8.1,8,8.1Z" class="g1_13"/>
<path d="M651.5,675.6c4.4,0,8,-3.6,8,-8.1c0,-4.4,-3.6,-8,-8,-8c-4.4,0,-8,3.6,-8,8c0,4.5,3.6,8.1,8,8.1Z" class="g6_13"/>
<image preserveAspectRatio="none" x="465" y="898" width="408" height="352" xlink:href="img/9.webp"/>
<path d="M685.5,978.8c4.4,0,8,-3.6,8,-8c0,-4.4,-3.6,-8,-8,-8c-4.4,0,-8,3.6,-8,8c0,4.4,3.6,8,8,8Z" class="g1_13"/>
<path d="M685.5,978.8c4.4,0,8,-3.6,8,-8c0,-4.4,-3.6,-8,-8,-8c-4.4,0,-8,3.6,-8,8c0,4.4,3.6,8,8,8Z" class="g6_13"/>
<path d="M712.5,985.5c4.5,0,8,-3.5,8,-8c0,-4.4,-3.5,-8,-8,-8c-4.4,0,-8,3.6,-8,8c0,4.5,3.6,8,8,8Z" class="g1_13"/>
<path d="M712.5,985.5c4.5,0,8,-3.5,8,-8c0,-4.4,-3.5,-8,-8,-8c-4.4,0,-8,3.6,-8,8c0,4.5,3.6,8,8,8Z" class="g6_13"/>
<path d="M600,1052.8c4.4,0,8,-3.6,8,-8c0,-4.4,-3.6,-8,-8,-8c-4.4,0,-8,3.6,-8,8c0,4.4,3.6,8,8,8Z" class="g1_13"/>
<path d="M600,1052.8c4.4,0,8,-3.6,8,-8c0,-4.4,-3.6,-8,-8,-8c-4.4,0,-8,3.6,-8,8c0,4.4,3.6,8,8,8Z" class="g6_13"/>
<path d="M600.1,1052.7c4.4,0,8,-3.6,8,-8c0,-4.4,-3.6,-8,-8,-8c-4.4,0,-8,3.6,-8,8c0,4.4,3.6,8,8,8Z" class="g1_13"/>
<path d="M600.1,1052.7c4.4,0,8,-3.6,8,-8c0,-4.4,-3.6,-8,-8,-8c-4.4,0,-8,3.6,-8,8c0,4.4,3.6,8,8,8Z" class="g6_13"/>
<path d="M686.6,1090.3c4.4,0,8,-3.6,8,-8c0,-4.4,-3.6,-8,-8,-8c-4.5,0,-8,3.6,-8,8c0,4.4,3.5,8,8,8Z" class="g1_13"/>
<path d="M686.6,1090.3c4.4,0,8,-3.6,8,-8c0,-4.4,-3.6,-8,-8,-8c-4.5,0,-8,3.6,-8,8c0,4.4,3.5,8,8,8Z" class="g6_13"/>
<path d="M538.1,1087.3c4.5,0,8,-3.6,8,-8c0,-4.4,-3.5,-8,-8,-8c-4.4,0,-8,3.6,-8,8c0,4.4,3.6,8,8,8Z" class="g1_13"/>
<path d="M538.1,1087.3c4.5,0,8,-3.6,8,-8c0,-4.4,-3.5,-8,-8,-8c-4.4,0,-8,3.6,-8,8c0,4.4,3.6,8,8,8Z" class="g6_13"/>
<path d="M566.9,1098.6c4.4,0,8,-3.6,8,-8c0,-4.4,-3.6,-8,-8,-8c-4.4,0,-8,3.6,-8,8c0,4.4,3.6,8,8,8Z" class="g1_13"/>
<path d="M566.9,1098.6c4.4,0,8,-3.6,8,-8c0,-4.4,-3.6,-8,-8,-8c-4.4,0,-8,3.6,-8,8c0,4.4,3.6,8,8,8Z" class="g6_13"/>
<path d="M614.7,1186.6c4.4,0,8,-3.6,8,-8c0,-4.5,-3.6,-8,-8,-8c-4.4,0,-8,3.5,-8,8c0,4.4,3.6,8,8,8Z" class="g1_13"/>
<path d="M614.7,1186.6c4.4,0,8,-3.6,8,-8c0,-4.5,-3.6,-8,-8,-8c-4.4,0,-8,3.5,-8,8c0,4.4,3.6,8,8,8Z" class="g6_13"/>
<path d="M728.8,1159.8c4.4,0,8,-3.6,8,-8c0,-4.4,-3.6,-8,-8,-8c-4.4,0,-8,3.6,-8,8c0,4.4,3.6,8,8,8Z" class="g1_13"/>
<path d="M728.8,1159.8c4.4,0,8,-3.6,8,-8c0,-4.4,-3.6,-8,-8,-8c-4.4,0,-8,3.6,-8,8c0,4.4,3.6,8,8,8Z" class="g6_13"/>
<path d="M778.4,1102.6c4.4,0,8,-3.6,8,-8c0,-4.4,-3.6,-8,-8,-8c-4.4,0,-8,3.6,-8,8c0,4.4,3.6,8,8,8Z" class="g1_13"/>
<path d="M778.4,1102.6c4.4,0,8,-3.6,8,-8c0,-4.4,-3.6,-8,-8,-8c-4.4,0,-8,3.6,-8,8c0,4.4,3.6,8,8,8Z" class="g6_13"/>
<path d="M616.6,1158c4.5,0,8,-3.6,8,-8c0,-4.5,-3.5,-8,-8,-8c-4.4,0,-8,3.5,-8,8c0,4.4,3.6,8,8,8Z" class="g1_13"/>
<path d="M616.6,1158c4.5,0,8,-3.6,8,-8c0,-4.5,-3.5,-8,-8,-8c-4.4,0,-8,3.5,-8,8c0,4.4,3.6,8,8,8Z" class="g6_13"/>
<path d="M829.3,1072.8c4.4,0,8,-3.6,8,-8c0,-4.4,-3.6,-8,-8,-8c-4.4,0,-8,3.6,-8,8c0,4.4,3.6,8,8,8Z" class="g1_13"/>
<path d="M829.3,1072.8c4.4,0,8,-3.6,8,-8c0,-4.4,-3.6,-8,-8,-8c-4.4,0,-8,3.6,-8,8c0,4.4,3.6,8,8,8Z" class="g6_13"/>
<path d="M740.2,1224.7c4.4,0,8,-3.6,8,-8c0,-4.4,-3.6,-8,-8,-8c-4.4,0,-8,3.6,-8,8c0,4.4,3.6,8,8,8Z" class="g1_13"/>
<path d="M740.2,1224.7c4.4,0,8,-3.6,8,-8c0,-4.4,-3.6,-8,-8,-8c-4.4,0,-8,3.6,-8,8c0,4.4,3.6,8,8,8Z" class="g6_13"/>
<path d="M482.5,1083.3c4.4,0,8,-3.6,8,-8c0,-4.4,-3.6,-8,-8,-8c-4.4,0,-8,3.6,-8,8c0,4.4,3.6,8,8,8Z" class="g1_13"/>
<path d="M482.5,1083.3c4.4,0,8,-3.6,8,-8c0,-4.4,-3.6,-8,-8,-8c-4.4,0,-8,3.6,-8,8c0,4.4,3.6,8,8,8Z" class="g6_13"/>
<path d="M669.2,927.3c4.4,0,8,-3.6,8,-8c0,-4.4,-3.6,-8,-8,-8c-4.4,0,-8,3.6,-8,8c0,4.4,3.6,8,8,8Z" class="g1_13"/>
<path d="M669.2,927.3c4.4,0,8,-3.6,8,-8c0,-4.4,-3.6,-8,-8,-8c-4.4,0,-8,3.6,-8,8c0,4.4,3.6,8,8,8Z" class="g6_13"/>
<path d="M626.5,1102.6c4.4,0,8,-3.6,8,-8c0,-4.4,-3.6,-8,-8,-8c-4.5,0,-8,3.6,-8,8c0,4.4,3.5,8,8,8Z" class="g1_13"/>
<path d="M626.5,1102.6c4.4,0,8,-3.6,8,-8c0,-4.4,-3.6,-8,-8,-8c-4.5,0,-8,3.6,-8,8c0,4.4,3.5,8,8,8Z" class="g6_13"/>
<path d="M714.8,1110.9c4.4,0,8,-3.6,8,-8c0,-4.4,-3.6,-8,-8,-8c-4.4,0,-8,3.6,-8,8c0,4.4,3.6,8,8,8Z" class="g1_13"/>
<path d="M714.8,1110.9c4.4,0,8,-3.6,8,-8c0,-4.4,-3.6,-8,-8,-8c-4.4,0,-8,3.6,-8,8c0,4.4,3.6,8,8,8Z" class="g6_13"/>
<path d="M626.5,1022.4c4.4,0,8,-3.6,8,-8c0,-4.5,-3.6,-8,-8,-8c-4.5,0,-8,3.5,-8,8c0,4.4,3.5,8,8,8Z" class="g1_13"/>
<path d="M626.5,1022.4c4.4,0,8,-3.6,8,-8c0,-4.5,-3.6,-8,-8,-8c-4.5,0,-8,3.5,-8,8c0,4.4,3.5,8,8,8Z" class="g6_13"/>
<path d="M633.2,1216.4c4.4,0,8,-3.6,8,-8c0,-4.4,-3.6,-8,-8,-8c-4.4,0,-8,3.6,-8,8c0,4.4,3.6,8,8,8Z" class="g1_13"/>
<path d="M633.2,1216.4c4.4,0,8,-3.6,8,-8c0,-4.4,-3.6,-8,-8,-8c-4.4,0,-8,3.6,-8,8c0,4.4,3.6,8,8,8Z" class="g6_13"/>
<path d="M570.6,1032.3c4.4,0,8,-3.6,8,-8c0,-4.5,-3.6,-8,-8,-8c-4.4,0,-8,3.5,-8,8c0,4.4,3.6,8,8,8Z" class="g1_13"/>
<path d="M570.6,1032.3c4.4,0,8,-3.6,8,-8c0,-4.5,-3.6,-8,-8,-8c-4.4,0,-8,3.5,-8,8c0,4.4,3.6,8,8,8Z" class="g6_13"/>
<path d="M798.3,1214.1c4.5,0,8.1,-3.6,8.1,-8c0,-4.4,-3.6,-8,-8.1,-8c-4.4,0,-8,3.6,-8,8c0,4.4,3.6,8,8,8Z" class="g1_13"/>
<path d="M798.3,1214.1c4.5,0,8.1,-3.6,8.1,-8c0,-4.4,-3.6,-8,-8.1,-8c-4.4,0,-8,3.6,-8,8c0,4.4,3.6,8,8,8Z" class="g6_13"/>
<path d="M485.1,1166.2c4.4,0,8,-3.5,8,-8c0,-4.4,-3.6,-8,-8,-8c-4.4,0,-8,3.6,-8,8c0,4.5,3.6,8,8,8Z" class="g1_13"/>
<path d="M485.1,1166.2c4.4,0,8,-3.5,8,-8c0,-4.4,-3.6,-8,-8,-8c-4.4,0,-8,3.6,-8,8c0,4.5,3.6,8,8,8Z" class="g6_13"/>
<path d="M488.7,964.2c4.4,0,8,-3.5,8,-8c0,-4.4,-3.6,-8,-8,-8c-4.5,0,-8,3.6,-8,8c0,4.5,3.5,8,8,8Z" class="g1_13"/>
<path d="M488.7,964.2c4.4,0,8,-3.5,8,-8c0,-4.4,-3.6,-8,-8,-8c-4.5,0,-8,3.6,-8,8c0,4.5,3.5,8,8,8Z" class="g6_13"/>
<path d="M543.2,1170c4.5,0,8,-3.6,8,-8c0,-4.4,-3.5,-8,-8,-8c-4.4,0,-8,3.6,-8,8c0,4.4,3.6,8,8,8Z" class="g1_13"/>
<path d="M543.2,1170c4.5,0,8,-3.6,8,-8c0,-4.4,-3.5,-8,-8,-8c-4.4,0,-8,3.6,-8,8c0,4.4,3.6,8,8,8Z" class="g6_13"/>
<path d="M677.4,1222.4c4.5,0,8,-3.6,8,-8c0,-4.5,-3.5,-8,-8,-8c-4.4,0,-8,3.5,-8,8c0,4.4,3.6,8,8,8Z" class="g1_13"/>
<path d="M677.4,1222.4c4.5,0,8,-3.6,8,-8c0,-4.5,-3.5,-8,-8,-8c-4.4,0,-8,3.5,-8,8c0,4.4,3.6,8,8,8Z" class="g6_13"/>
<path d="M538.1,1002.1c4.5,0,8,-3.6,8,-8c0,-4.4,-3.5,-8,-8,-8c-4.4,0,-8,3.6,-8,8c0,4.4,3.6,8,8,8Z" class="g1_13"/>
<path d="M538.1,1002.1c4.5,0,8,-3.6,8,-8c0,-4.4,-3.5,-8,-8,-8c-4.4,0,-8,3.6,-8,8c0,4.4,3.6,8,8,8Z" class="g6_13"/>
<path d="M645.3,942c4.4,0,8,-3.6,8,-8c0,-4.4,-3.6,-8,-8,-8c-4.4,0,-8,3.6,-8,8c0,4.4,3.6,8,8,8Z" class="g1_13"/>
<path d="M645.3,942c4.4,0,8,-3.6,8,-8c0,-4.4,-3.6,-8,-8,-8c-4.4,0,-8,3.6,-8,8c0,4.4,3.6,8,8,8Z" class="g6_13"/>
<path d="M698.2,935.6c4.5,0,8,-3.6,8,-8c0,-4.5,-3.5,-8,-8,-8c-4.4,0,-8,3.5,-8,8c0,4.4,3.6,8,8,8Z" class="g1_13"/>
<path d="M698.2,935.6c4.5,0,8,-3.6,8,-8c0,-4.5,-3.5,-8,-8,-8c-4.4,0,-8,3.5,-8,8c0,4.4,3.6,8,8,8Z" class="g6_13"/>
<image preserveAspectRatio="none" x="716" y="1185" width="18" height="19" xlink:href="img/10.webp"/>
<path d="M724.9,1202c4.2,0,7.6,-3.4,7.6,-7.6c0,-4.2,-3.4,-7.6,-7.6,-7.6c-4.1,0,-7.5,3.4,-7.5,7.6c0,4.2,3.4,7.6,7.5,7.6Z" class="g4_13"/>
<image preserveAspectRatio="none" x="758" y="185" width="18" height="19" xlink:href="img/11.webp"/>
<path d="M766.7,202.2c4.2,0,7.6,-3.4,7.6,-7.6c0,-4.2,-3.4,-7.6,-7.6,-7.6c-4.2,0,-7.6,3.4,-7.6,7.6c0,4.2,3.4,7.6,7.6,7.6Z" class="g4_13"/>
<image preserveAspectRatio="none" x="822" y="243" width="18" height="19" xlink:href="img/12.webp"/>
<path d="M831.2,260.2c4.2,0,7.6,-3.4,7.6,-7.6c0,-4.1,-3.4,-7.5,-7.6,-7.5c-4.2,0,-7.6,3.4,-7.6,7.5c0,4.2,3.4,7.6,7.6,7.6Z" class="g4_13"/>
<image preserveAspectRatio="none" x="526" y="155" width="19" height="18" xlink:href="img/13.webp"/>
<path d="M535.5,171.4c4.2,0,7.6,-3.4,7.6,-7.5c0,-4.2,-3.4,-7.6,-7.6,-7.6c-4.1,0,-7.5,3.4,-7.5,7.6c0,4.1,3.4,7.5,7.5,7.5Z" class="g4_13"/>
<image preserveAspectRatio="none" x="563" y="87" width="18" height="18" xlink:href="img/14.webp"/>
<path d="M571.8,103.6c4.2,0,7.6,-3.4,7.6,-7.5c0,-4.2,-3.4,-7.6,-7.6,-7.6c-4.1,0,-7.5,3.4,-7.5,7.6c0,4.1,3.4,7.5,7.5,7.5Z" class="g4_13"/>
</svg>