<?xml version="1.0" encoding="UTF-8" standalone="no"?>
<!DOCTYPE svg PUBLIC "-//W3C//DTD SVG 1.1//EN"
"http://www.w3.org/Graphics/SVG/1.1/DTD/svg11.dtd">
<svg viewBox="0 0 909 1286" version="1.1" xmlns="http://www.w3.org/2000/svg" xmlns:xlink="http://www.w3.org/1999/xlink">
<defs>
<style type="text/css"><![CDATA[
.g0_6{
fill: none;
stroke: #000000;
stroke-width: 0.916;
stroke-linecap: butt;
stroke-linejoin: miter;
stroke-miterlimit: 4;
}
]]></style>
</defs>
<image preserveAspectRatio="none" x="-21" y="-21" width="932" height="1329" xlink:href="../1/img/1.png"/>
<image preserveAspectRatio="none" x="379" y="44" width="64" height="64" xlink:href="img/2.png"/>
<image preserveAspectRatio="none" x="356" y="12" width="115" height="116" xlink:href="img/3.png"/>
<image preserveAspectRatio="none" x="325" y="66" width="65" height="64" xlink:href="img/4.png"/>
<image preserveAspectRatio="none" x="307" y="44" width="102" height="92" xlink:href="img/5.png"/>
<image preserveAspectRatio="none" x="373" y="91" width="65" height="65" xlink:href="img/6.png"/>
<image preserveAspectRatio="none" x="353" y="73" width="99" height="87" xlink:href="img/7.png"/>
<image preserveAspectRatio="none" x="712" y="790" width="144" height="145" xlink:href="img/8.png"/>
<image preserveAspectRatio="none" x="700" y="777" width="168" height="153" xlink:href="img/9.png"/>
<image preserveAspectRatio="none" x="804" y="44" width="65" height="64" xlink:href="img/10.png"/>
<image preserveAspectRatio="none" x="791" y="30" width="89" height="75" xlink:href="img/11.png"/>
<image preserveAspectRatio="none" x="804" y="131" width="65" height="64" xlink:href="img/12.png"/>
<image preserveAspectRatio="none" x="791" y="117" width="89" height="74" xlink:href="img/13.png"/>
<image preserveAspectRatio="none" x="325" y="171" width="65" height="64" xlink:href="img/14.png"/>
<image preserveAspectRatio="none" x="307" y="150" width="87" height="99" xlink:href="img/15.png"/>
<image preserveAspectRatio="none" x="377" y="189" width="66" height="64" xlink:href="img/16.png"/>
<image preserveAspectRatio="none" x="356" y="159" width="115" height="114" xlink:href="img/17.png"/>
<image preserveAspectRatio="none" x="344" y="209" width="64" height="64" xlink:href="img/18.png"/>
<image preserveAspectRatio="none" x="324" y="189" width="99" height="87" xlink:href="img/19.png"/>
<image preserveAspectRatio="none" x="325" y="315" width="65" height="65" xlink:href="img/20.png"/>
<image preserveAspectRatio="none" x="313" y="302" width="89" height="75" xlink:href="img/21.png"/>
<image preserveAspectRatio="none" x="377" y="287" width="65" height="64" xlink:href="img/22.png"/>
<image preserveAspectRatio="none" x="356" y="255" width="115" height="116" xlink:href="img/23.png"/>
<image preserveAspectRatio="none" x="374" y="331" width="66" height="65" xlink:href="img/24.png"/>
<image preserveAspectRatio="none" x="359" y="315" width="81" height="93" xlink:href="img/25.png"/>
<image preserveAspectRatio="none" x="377" y="444" width="66" height="65" xlink:href="img/26.png"/>
<image preserveAspectRatio="none" x="359" y="425" width="99" height="88" xlink:href="img/27.png"/>
<image preserveAspectRatio="none" x="338" y="409" width="64" height="64" xlink:href="img/28.png"/>
<image preserveAspectRatio="none" x="315" y="380" width="113" height="109" xlink:href="img/29.png"/>
<image preserveAspectRatio="none" x="325" y="458" width="65" height="64" xlink:href="img/30.png"/>
<image preserveAspectRatio="none" x="295" y="426" width="116" height="115" xlink:href="img/31.png"/>
<image preserveAspectRatio="none" x="325" y="553" width="65" height="64" xlink:href="img/32.png"/>
<image preserveAspectRatio="none" x="304" y="531" width="102" height="92" xlink:href="img/33.png"/>
<image preserveAspectRatio="none" x="377" y="531" width="66" height="65" xlink:href="img/34.png"/>
<image preserveAspectRatio="none" x="361" y="512" width="100" height="88" xlink:href="img/35.png"/>
<image preserveAspectRatio="none" x="370" y="580" width="64" height="65" xlink:href="img/36.png"/>
<image preserveAspectRatio="none" x="348" y="550" width="113" height="114" xlink:href="img/37.png"/>
<image preserveAspectRatio="none" x="325" y="698" width="65" height="64" xlink:href="img/38.png"/>
<image preserveAspectRatio="none" x="304" y="677" width="102" height="91" xlink:href="img/39.png"/>
<image preserveAspectRatio="none" x="339" y="657" width="64" height="64" xlink:href="img/40.png"/>
<image preserveAspectRatio="none" x="316" y="626" width="116" height="112" xlink:href="img/41.png"/>
<image preserveAspectRatio="none" x="379" y="690" width="64" height="65" xlink:href="img/42.png"/>
<image preserveAspectRatio="none" x="370" y="672" width="90" height="101" xlink:href="img/43.png"/>
<image preserveAspectRatio="none" x="379" y="822" width="64" height="64" xlink:href="img/44.png"/>
<image preserveAspectRatio="none" x="356" y="793" width="115" height="111" xlink:href="img/45.png"/>
<image preserveAspectRatio="none" x="367" y="777" width="64" height="65" xlink:href="img/46.png"/>
<image preserveAspectRatio="none" x="342" y="751" width="109" height="101" xlink:href="img/47.png"/>
<image preserveAspectRatio="none" x="325" y="808" width="65" height="64" xlink:href="img/48.png"/>
<image preserveAspectRatio="none" x="295" y="785" width="110" height="113" xlink:href="img/49.png"/>
<image preserveAspectRatio="none" x="325" y="903" width="65" height="64" xlink:href="img/50.png"/>
<image preserveAspectRatio="none" x="309" y="884" width="94" height="86" xlink:href="img/51.png"/>
<image preserveAspectRatio="none" x="335" y="939" width="65" height="66" xlink:href="img/52.png"/>
<image preserveAspectRatio="none" x="318" y="923" width="85" height="96" xlink:href="img/53.png"/>
<image preserveAspectRatio="none" x="379" y="913" width="64" height="65" xlink:href="img/54.png"/>
<image preserveAspectRatio="none" x="356" y="883" width="115" height="113" xlink:href="img/55.png"/>
<image preserveAspectRatio="none" x="359" y="1025" width="64" height="64" xlink:href="img/56.png"/>
<image preserveAspectRatio="none" x="338" y="999" width="110" height="104" xlink:href="img/57.png"/>
<image preserveAspectRatio="none" x="379" y="1057" width="64" height="64" xlink:href="img/58.png"/>
<image preserveAspectRatio="none" x="351" y="1042" width="109" height="102" xlink:href="img/59.png"/>
<image preserveAspectRatio="none" x="325" y="1062" width="66" height="64" xlink:href="img/60.png"/>
<image preserveAspectRatio="none" x="301" y="1037" width="108" height="99" xlink:href="img/61.png"/>
<image preserveAspectRatio="none" x="327" y="1155" width="64" height="64" xlink:href="img/62.png"/>
<image preserveAspectRatio="none" x="303" y="1132" width="105" height="95" xlink:href="img/63.png"/>
<image preserveAspectRatio="none" x="351" y="1182" width="66" height="66" xlink:href="img/64.png"/>
<image preserveAspectRatio="none" x="335" y="1155" width="107" height="113" xlink:href="img/65.png"/>
<image preserveAspectRatio="none" x="379" y="1149" width="64" height="64" xlink:href="img/66.png"/>
<image preserveAspectRatio="none" x="358" y="1123" width="108" height="101" xlink:href="img/67.png"/>
<image preserveAspectRatio="none" x="743" y="295" width="68" height="68" xlink:href="img/68.png"/>
<image preserveAspectRatio="none" x="729" y="281" width="94" height="81" xlink:href="img/69.png"/>
<image preserveAspectRatio="none" x="798" y="311" width="71" height="72" xlink:href="img/70.png"/>
<image preserveAspectRatio="none" x="784" y="296" width="99" height="89" xlink:href="img/71.png"/>
<image preserveAspectRatio="none" x="768" y="336" width="75" height="75" xlink:href="img/72.png"/>
<image preserveAspectRatio="none" x="750" y="318" width="107" height="96" xlink:href="img/73.png"/>
<image preserveAspectRatio="none" x="767" y="426" width="102" height="66" xlink:href="img/74.png"/>
<image preserveAspectRatio="none" x="756" y="412" width="126" height="78" xlink:href="img/75.png"/>
<image preserveAspectRatio="none" x="732" y="460" width="105" height="71" xlink:href="img/76.png"/>
<image preserveAspectRatio="none" x="720" y="446" width="128" height="85" xlink:href="img/77.png"/>
<image preserveAspectRatio="none" x="692" y="405" width="110" height="93" xlink:href="img/78.png"/>
<image preserveAspectRatio="none" x="680" y="388" width="137" height="113" xlink:href="img/79.png"/>
<image preserveAspectRatio="none" x="629" y="608" width="133" height="133" xlink:href="img/80.png"/>
<image preserveAspectRatio="none" x="607" y="583" width="177" height="167" xlink:href="img/81.png"/>
<image preserveAspectRatio="none" x="724" y="643" width="132" height="131" xlink:href="img/82.png"/>
<image preserveAspectRatio="none" x="701" y="608" width="187" height="195" xlink:href="img/83.png"/>
<image preserveAspectRatio="none" x="697" y="542" width="133" height="132" xlink:href="img/84.png"/>
<image preserveAspectRatio="none" x="681" y="525" width="149" height="161" xlink:href="img/85.png"/>
<image preserveAspectRatio="none" x="628" y="1017" width="232" height="152" xlink:href="img/86.png"/>
<image preserveAspectRatio="none" x="613" y="1004" width="258" height="163" xlink:href="img/87.png"/>
<image preserveAspectRatio="none" x="526" y="1028" width="226" height="141" xlink:href="img/88.png"/>
<image preserveAspectRatio="none" x="513" y="1014" width="251" height="153" xlink:href="img/89.png"/>
<image preserveAspectRatio="none" x="617" y="947" width="242" height="186" xlink:href="img/90.png"/>
<image preserveAspectRatio="none" x="599" y="930" width="272" height="205" xlink:href="img/91.png"/>
<path d="M43.3,108.7H320.5M43.3,230.6H320.5M43.3,350.3H320.5M43.3,474.3H320.5M43.3,596.2H320.5M43.3,719.1H320.5M43.3,841H320.5M43.3,962.8H320.5M43.3,1084.7H320.5M43.3,1206.5H320.5m148.9,0H866.1M469.4,84.9H799M469.7,171.8H799M469.7,325.3H738.4M469.7,440.2H686.4m-217,238H623.6M469.4,869.4H707.2M469.4,993.3H658.3" class="g0_6"/>
<image preserveAspectRatio="none" x="804" y="217" width="65" height="64" xlink:href="img/92.png"/>
<image preserveAspectRatio="none" x="791" y="205" width="89" height="73" xlink:href="img/93.png"/>
<path d="M469.7,258.4H799" class="g0_6"/>
</svg>