<?xml version="1.0" encoding="UTF-8" standalone="no"?>
<!DOCTYPE svg PUBLIC "-//W3C//DTD SVG 1.1//EN"
"http://www.w3.org/Graphics/SVG/1.1/DTD/svg11.dtd">
<svg viewBox="0 0 907 1284" version="1.1" xmlns="http://www.w3.org/2000/svg" xmlns:xlink="http://www.w3.org/1999/xlink">
<defs>
<clipPath id="c0_7"><path d="M397.1,954.3V932.7H319.2v21.6ZM0,1284.4v-20.7H427.4V1094.8H0V0H907.6V43H468.3V474.2H907.6v16.7H468.3v751.7H907.6v41.8Z"/></clipPath>
<clipPath id="c1_7"><path d="M319.2,954.3V932.8h26v21.5Z"/></clipPath>
<clipPath id="c2_7"><path d="M319.2,932.8v-.1h26v.1Z"/></clipPath>
<clipPath id="c3_7"><path d="M345.2,954.3V932.8h25.9v21.5Z"/></clipPath>
<clipPath id="c4_7"><path d="M345.2,932.8v-.1h25.9v.1Z"/></clipPath>
<clipPath id="c5_7"><path d="M357,932.7v-.2h.3v.2Z"/></clipPath>
<clipPath id="c6_7"><path d="M371.1,954.3V932.8h26v21.5Z"/></clipPath>
<clipPath id="c7_7"><path d="M371.1,932.8v-.1h26v.1Z"/></clipPath>
<clipPath id="c8_7"><path d="M377.1,932.7v-.2h.3v.2Z"/></clipPath>
<clipPath id="c9_7"><path d="M468.3,705.9v-215H664.1v215Z"/></clipPath>
<clipPath id="ca_7"><path d="M663.7,705.9v-215H860v215Z"/></clipPath>
<clipPath id="cb_7"><path d="M859.6,1242.6V490.9h48v751.7Z"/></clipPath>
<clipPath id="cc_7"><path d="M468.3,920.7V705.5H664.1V920.7Z"/></clipPath>
<clipPath id="cd_7"><path d="M0,1284.4V0H907.6V1284.4Z"/></clipPath>
<clipPath id="ce_7"><path d="M468.3,1135.7V920.3H664.1v215.4Z"/></clipPath>
<clipPath id="cf_7"><path d="M468.3,1242.6V1135.3H860v107.3Z"/></clipPath>
<clipPath id="cg_7"><path d="M565.3,421.1V43H907.6V421.1Z"/></clipPath>
<clipPath id="ch_7"><path d="M468.3,474.2V43h97.8V474.2Z"/></clipPath>
<clipPath id="ci_7"><path d="M565.3,474.2V420.4H907.6v53.8Z"/></clipPath>
<clipPath id="cj_7"><path d="M0,1263.7V1094.8H272v168.9H35.8v-10H23.3v10Z"/></clipPath>
<clipPath id="ck_7"><path d="M271.6,1263.7V1094.8H427.4v168.9Z"/></clipPath>
<clipPath id="cl_7"><path d="M23.3,1263.7v-10H35.8v10Z"/></clipPath>
<clipPath id="cm_7"><path d="M28.9,1263.7c-.1,-.3,-.1,-.6,-.2,-.8c-.1,-1.1,-.2,-2.1,-.2,-3c0,-.7,0,-1.7,.2,-2.7c.1,-1.3,.2,-2.3,.5,-2.8h.2c.2,0,.3,0,.3,.1l.2,.2h.2c1.1,-.5,2,-.8,2.8,-.8H33c.3,0,.6,0,.9,.1l.2,.2c.1,.1,.1,.2,.2,.2c0,0,0,-.1,.1,-.1q.1,0,.2,.1q0,-.1,0,-.1c.1,0,.1,.1,.2,.1c0,0,0,.1,.1,.2c0,0,0,.2,0,.6c.5,2.4,.7,4.4,.8,6.1c0,.3,-.1,.8,-.2,1.6c0,.3,-.1,.5,-.1,.8H33.5c0,-.1,0,-.2,-.1,-.4c.1,-.5,0,-1.9,-.2,-4.2c-.3,-2.1,-.5,-3.6,-.7,-4.2c0,-.2,-.1,-.2,-.3,-.2c-.2,0,-.5,0,-.9,.2c-.5,.2,-.8,.3,-.7,.5c-.1,1.5,-.2,2.6,-.2,3.4c0,.9,.1,2.1,.4,3.7c.1,.4,.2,.8,.3,1.2Zm-3.7,0c0,-.1,0,-.2,0,-.3c0,0,-.1,-.5,0,-1.5c0,-.3,0,-1.4,0,-3.4c0,-1.4,0,-2.5,0,-3.4l-.1,-.2h-.3c-.6,.3,-1,.5,-1.3,.7l-.2,-.1v-.4c.2,-.3,.6,-.6,1.4,-.8c.9,-.4,1.5,-.6,1.9,-.6q.1,0,.2,.2l.2,.1l.5,-.2c.2,0,.2,.1,.3,.3c0,2.5,-.1,5.7,-.3,9.6Z"/></clipPath>
<style type="text/css"><![CDATA[
.g0_7{
fill: none;
stroke: #231916;
stroke-width: 0.763;
stroke-linecap: butt;
stroke-linejoin: miter;
}
.g1_7{
fill: none;
stroke: #FFFFFF;
stroke-width: 1.145;
stroke-linecap: butt;
stroke-linejoin: miter;
}
.g2_7{
fill: none;
stroke: #FFFFFF;
stroke-width: 1.909;
stroke-linecap: butt;
stroke-linejoin: miter;
}
.g3_7{
fill: none;
stroke: #000000;
stroke-width: 0.381;
stroke-linecap: butt;
stroke-linejoin: miter;
}
]]></style>
</defs>
<image clip-path="url(#c0_7)" preserveAspectRatio="none" x="-22" y="-22" width="931" height="1329" xlink:href="img/1.jpg"/>
<image clip-path="url(#c1_7)" preserveAspectRatio="none" x="319" y="933" width="26" height="22" xlink:href="img/2.jpg"/>
<image clip-path="url(#c2_7)" preserveAspectRatio="none" x="319" y="932" width="26" height="1" xlink:href="img/3.jpg"/>
<image clip-path="url(#c3_7)" preserveAspectRatio="none" x="345" y="933" width="26" height="22" xlink:href="img/4.jpg"/>
<image clip-path="url(#c4_7)" preserveAspectRatio="none" x="345" y="932" width="26" height="1" xlink:href="img/5.jpg"/>
<image clip-path="url(#c5_7)" preserveAspectRatio="none" x="345" y="932" width="26" height="1" xlink:href="img/6.jpg"/>
<image clip-path="url(#c6_7)" preserveAspectRatio="none" x="371" y="933" width="26" height="22" xlink:href="img/7.jpg"/>
<image clip-path="url(#c7_7)" preserveAspectRatio="none" x="371" y="932" width="26" height="1" xlink:href="img/8.jpg"/>
<image clip-path="url(#c8_7)" preserveAspectRatio="none" x="371" y="932" width="26" height="1" xlink:href="img/9.jpg"/>
<image clip-path="url(#c9_7)" preserveAspectRatio="none" x="468" y="491" width="196" height="215" xlink:href="img/10.jpg"/>
<image clip-path="url(#ca_7)" preserveAspectRatio="none" x="664" y="491" width="196" height="215" xlink:href="img/11.jpg"/>
<image clip-path="url(#cb_7)" preserveAspectRatio="none" x="860" y="491" width="49" height="752" xlink:href="img/12.jpg"/>
<image clip-path="url(#cc_7)" preserveAspectRatio="none" x="468" y="705" width="196" height="216" xlink:href="img/13.jpg"/>
<image clip-path="url(#cd_7)" preserveAspectRatio="none" x="664" y="705" width="196" height="216" xlink:href="img/14.jpg"/>
<image clip-path="url(#ce_7)" preserveAspectRatio="none" x="468" y="920" width="196" height="216" xlink:href="img/15.jpg"/>
<image clip-path="url(#cd_7)" preserveAspectRatio="none" x="664" y="920" width="196" height="216" xlink:href="img/16.jpg"/>
<image clip-path="url(#cf_7)" preserveAspectRatio="none" x="468" y="1135" width="392" height="108" xlink:href="img/17.jpg"/>
<path d="M480.2,601.5H838.6M480.2,801.2H838.6" class="g0_7"/>
<image clip-path="url(#cg_7)" preserveAspectRatio="none" x="565" y="42" width="344" height="379" xlink:href="img/18.jpg"/>
<image clip-path="url(#ch_7)" preserveAspectRatio="none" x="467" y="42" width="99" height="433" xlink:href="img/19.jpg"/>
<image clip-path="url(#ci_7)" preserveAspectRatio="none" x="565" y="420" width="344" height="55" xlink:href="img/20.jpg"/>
<path d="M496.2,110.2H842.5" class="g1_7"/>
<image clip-path="url(#cj_7)" preserveAspectRatio="none" x="0" y="1094" width="272" height="170" xlink:href="img/21.jpg"/>
<image clip-path="url(#ck_7)" preserveAspectRatio="none" x="272" y="1094" width="156" height="170" xlink:href="img/22.jpg"/>
<image clip-path="url(#cl_7)" preserveAspectRatio="none" x="23" y="1254" width="13" height="10" xlink:href="img/23.jpg"/>
<image clip-path="url(#cm_7)" preserveAspectRatio="none" x="23" y="1254" width="13" height="10" xlink:href="img/24.jpg"/>
<path d="M63,1129.1H407.3" class="g1_7"/>
<g clip-path="url(#cd_7)">
<path d="M-10,-.8H-32.9m950.6,0h22.9M-10,1285.3H-32.9m950.6,0h22.9M-.8,-10V-32.9m0,1327.4v22.9M908.5,-10V-32.9m0,1327.4v22.9" class="g2_7"/>
<path d="M-10,-.8H-32.9m950.6,0h22.9M-10,1285.3H-32.9m950.6,0h22.9M-.8,-10V-32.9m0,1327.4v22.9M908.5,-10V-32.9m0,1327.4v22.9" class="g3_7"/>
</g>
</svg>