<?xml version="1.0" encoding="UTF-8" standalone="no"?>
<!DOCTYPE svg PUBLIC "-//W3C//DTD SVG 1.1//EN"
"http://www.w3.org/Graphics/SVG/1.1/DTD/svg11.dtd">
<svg viewBox="0 0 909 1286" version="1.1" xmlns="http://www.w3.org/2000/svg" xmlns:xlink="http://www.w3.org/1999/xlink">
<defs>
<clipPath id="c0_4"><path d="M0,321.8V.3H374.5V321.8Z"/></clipPath>
<clipPath id="c1_4"><path d="M373.8,321.8V.3H749.1V321.8Z"/></clipPath>
<clipPath id="c2_4"><path d="M786.2,593.1v-1.4h-7.8v1.4Zm5.2,0v-1.4h-5v1.4Zm-43,157.5V.3H909V750.6Z"/></clipPath>
<clipPath id="c3_4"><path d="M0,643.6V321.1H374.5V643.6Z"/></clipPath>
<clipPath id="c4_4"><path d="M373.8,643.6V321.1H749.1V643.6Z"/></clipPath>
<clipPath id="c5_4"><path d="M0,965.1V643H374.5V965.1Z"/></clipPath>
<clipPath id="c6_4"><path d="M373.8,965.1V643H749.1V965.1Z"/></clipPath>
<clipPath id="c7_4"><path d="M748.4,1285.9v-536H909v536Z"/></clipPath>
<clipPath id="c8_4"><path d="M0,1285.9V964.4H374.5v321.5Z"/></clipPath>
<clipPath id="c9_4"><path d="M373.8,1285.9V964.4H749.1v321.5Z"/></clipPath>
<clipPath id="ca_4"><path d="M778.4,593.1v-1.4h7.8v1.4Z"/></clipPath>
<clipPath id="cb_4"><path d="M786.4,593.1v-1.4h5v1.4Z"/></clipPath>
</defs>
<image clip-path="url(#c0_4)" preserveAspectRatio="none" x="0" y="0" width="375" height="322" xlink:href="img/1.webp"/>
<image clip-path="url(#c1_4)" preserveAspectRatio="none" x="374" y="0" width="375" height="322" xlink:href="img/2.webp"/>
<image clip-path="url(#c2_4)" preserveAspectRatio="none" x="748" y="0" width="162" height="751" xlink:href="img/3.webp"/>
<image clip-path="url(#c3_4)" preserveAspectRatio="none" x="0" y="321" width="375" height="323" xlink:href="img/4.webp"/>
<image clip-path="url(#c4_4)" preserveAspectRatio="none" x="374" y="321" width="375" height="323" xlink:href="img/5.webp"/>
<image clip-path="url(#c5_4)" preserveAspectRatio="none" x="0" y="643" width="375" height="322" xlink:href="img/6.webp"/>
<image clip-path="url(#c6_4)" preserveAspectRatio="none" x="374" y="643" width="375" height="322" xlink:href="img/7.webp"/>
<image clip-path="url(#c7_4)" preserveAspectRatio="none" x="748" y="750" width="162" height="537" xlink:href="img/8.webp"/>
<image clip-path="url(#c8_4)" preserveAspectRatio="none" x="0" y="964" width="375" height="323" xlink:href="img/9.webp"/>
<image clip-path="url(#c9_4)" preserveAspectRatio="none" x="374" y="964" width="375" height="323" xlink:href="img/10.webp"/>
<image clip-path="url(#ca_4)" preserveAspectRatio="none" x="778" y="592" width="9" height="1" xlink:href="img/11.webp"/>
<image clip-path="url(#cb_4)" preserveAspectRatio="none" x="786" y="592" width="6" height="1" xlink:href="img/12.webp"/>
</svg>