<?xml version="1.0" encoding="UTF-8" standalone="no"?>
<!DOCTYPE svg PUBLIC "-//W3C//DTD SVG 1.1//EN"
"http://www.w3.org/Graphics/SVG/1.1/DTD/svg11.dtd">
<svg viewBox="0 0 909 1286" version="1.1" xmlns="http://www.w3.org/2000/svg" xmlns:xlink="http://www.w3.org/1999/xlink">
<defs>
<clipPath id="c0_20"><path d="M0,321.9V.1H428.3V321.9Z"/></clipPath>
<clipPath id="c1_20"><path d="M427.4,321.9V.1H856.5V321.9Z"/></clipPath>
<clipPath id="c2_20"><path d="M855.6,1286.2V.1H909V1286.2Z"/></clipPath>
<clipPath id="c3_20"><path d="M0,643.6V321H428.3V643.6Z"/></clipPath>
<clipPath id="c4_20"><path d="M427.5,643.5V321H856.4V643.5Z"/></clipPath>
<clipPath id="c5_20"><path d="M0,965.4V642.7H428.3V965.4Z"/></clipPath>
<clipPath id="c6_20"><path d="M427.5,965.2V642.8H856.4V965.2Z"/></clipPath>
<clipPath id="c7_20"><path d="M0,1286.2V964.5H428.3v321.7Z"/></clipPath>
<clipPath id="c8_20"><path d="M427.4,1286.2V964.5H856.5v321.7Z"/></clipPath>
<clipPath id="c9_20"><path d="M75.2,177.5V147.6H223.1v29.9Z"/></clipPath>
<clipPath id="ca_20"><path d="M466.5,279.1V203.3H847.3v75.8Z"/></clipPath>
<clipPath id="cb_20"><path d="M848,264.9V206.6h39.7v58.3Z"/></clipPath>
<clipPath id="cc_20"><path d="M481.8,350.2V320.3H629.7v29.9Z"/></clipPath>
<clipPath id="cd_20"><path d="M75.2,561.2V531.3h95.4v29.9Z"/></clipPath>
<clipPath id="ce_20"><path d="M75.2,790.7V760.8h95.4v29.9Z"/></clipPath>
<clipPath id="cf_20"><path d="M75.2,1021.3V991.5H223.1v29.8Z"/></clipPath>
<clipPath id="cg_20"><path d="M412.9,1248.7v-44.1H533.5v44.1Z"/></clipPath>
<clipPath id="ch_20"><path d="M59.9,106.4V30.6H482.2v75.8Z"/></clipPath>
<clipPath id="ci_20"><path d="M59.9,503.2V387H759.8V503.2Z"/></clipPath>
<clipPath id="cj_20"><path d="M59.9,719.6V643.9H482.2v75.7Z"/></clipPath>
<clipPath id="ck_20"><path d="M59.9,950.3V874.5H482.2v75.8Z"/></clipPath>
</defs>
<image clip-path="url(#c0_20)" preserveAspectRatio="none" x="0" y="0" width="428" height="322" xlink:href="img/1.webp"/>
<image clip-path="url(#c1_20)" preserveAspectRatio="none" x="427" y="0" width="430" height="322" xlink:href="img/2.webp"/>
<image clip-path="url(#c2_20)" preserveAspectRatio="none" x="856" y="0" width="54" height="1287" xlink:href="img/3.webp"/>
<image clip-path="url(#c3_20)" preserveAspectRatio="none" x="0" y="321" width="428" height="323" xlink:href="img/4.webp"/>
<image clip-path="url(#c4_20)" preserveAspectRatio="none" x="427" y="321" width="430" height="323" xlink:href="img/5.webp"/>
<image clip-path="url(#c5_20)" preserveAspectRatio="none" x="0" y="643" width="428" height="322" xlink:href="img/6.webp"/>
<image clip-path="url(#c6_20)" preserveAspectRatio="none" x="427" y="643" width="430" height="322" xlink:href="img/7.webp"/>
<image clip-path="url(#c7_20)" preserveAspectRatio="none" x="0" y="964" width="428" height="323" xlink:href="img/8.webp"/>
<image clip-path="url(#c8_20)" preserveAspectRatio="none" x="427" y="964" width="430" height="323" xlink:href="img/9.webp"/>
<image clip-path="url(#c9_20)" preserveAspectRatio="none" x="75" y="148" width="148" height="30" xlink:href="img/10.webp"/>
<image clip-path="url(#ca_20)" preserveAspectRatio="none" x="466" y="203" width="381" height="76" xlink:href="img/11.webp"/>
<image clip-path="url(#cb_20)" preserveAspectRatio="none" x="848" y="207" width="40" height="58" xlink:href="img/12.webp"/>
<image clip-path="url(#cc_20)" preserveAspectRatio="none" x="482" y="320" width="148" height="30" xlink:href="img/13.webp"/>
<image clip-path="url(#cd_20)" preserveAspectRatio="none" x="75" y="531" width="96" height="30" xlink:href="img/14.webp"/>
<image clip-path="url(#ce_20)" preserveAspectRatio="none" x="75" y="761" width="96" height="30" xlink:href="img/15.webp"/>
<image clip-path="url(#cf_20)" preserveAspectRatio="none" x="75" y="991" width="148" height="30" xlink:href="img/16.webp"/>
<image clip-path="url(#cg_20)" preserveAspectRatio="none" x="413" y="1204" width="121" height="45" xlink:href="img/17.webp"/>
<image clip-path="url(#ch_20)" preserveAspectRatio="none" x="60" y="31" width="422" height="75" xlink:href="img/18.webp"/>
<image clip-path="url(#ci_20)" preserveAspectRatio="none" x="60" y="387" width="700" height="116" xlink:href="img/19.webp"/>
<image clip-path="url(#cj_20)" preserveAspectRatio="none" x="60" y="644" width="422" height="76" xlink:href="img/20.webp"/>
<image clip-path="url(#ck_20)" preserveAspectRatio="none" x="60" y="874" width="422" height="76" xlink:href="img/21.webp"/>
</svg>