<?xml version="1.0" encoding="UTF-8" standalone="no"?>
<!DOCTYPE svg PUBLIC "-//W3C//DTD SVG 1.1//EN"
"http://www.w3.org/Graphics/SVG/1.1/DTD/svg11.dtd">
<svg viewBox="0 0 908 1286" version="1.1" xmlns="http://www.w3.org/2000/svg" xmlns:xlink="http://www.w3.org/1999/xlink">
<defs>
<clipPath id="c0_15"><path d="M0,1285.7V0H909V1285.7Z"/></clipPath>
<clipPath id="c1_15"><path d="M61.3,189.2V70.8H183.7V189.2Z"/></clipPath>
<clipPath id="c2_15"><path d="M192.8,769.8v-8.5H210v8.5Z"/></clipPath>
<style type="text/css"><![CDATA[
.g0_15{
fill: #FFFFFF;
}
.g1_15{
fill: none;
stroke: #FFFFFF;
stroke-width: 1.527;
stroke-linecap: butt;
stroke-linejoin: miter;
}
.g2_15{
fill: #CF0E1C;
}
.g3_15{
}
.g4_15{
fill: none;
stroke: #FFFFFF;
stroke-width: 1.305;
stroke-linecap: butt;
stroke-linejoin: miter;
}
.g5_15{
fill: none;
stroke: #000000;
stroke-width: 0.916;
stroke-linecap: butt;
stroke-linejoin: miter;
}
]]></style>
</defs>
<g clip-path="url(#c0_15)">
<path d="M0,522.1H909V1807.8H0V522.1Z" class="g0_15"/>
<image preserveAspectRatio="none" x="-1" y="0" width="909" height="1285" xlink:href="img/1.webp"/>
</g>
<image clip-path="url(#c1_15)" preserveAspectRatio="none" x="61" y="71" width="123" height="118" xlink:href="img/2.webp"/>
<path d="M169.7,181.9l.6,-.4c.4,-.1,.7,-.4,.7,-.9c0,-1.1,-.3,-2.7,-.7,-4.9l-.4,-2l-.2,-.4v-.1c-.1,-.5,-.4,-.7,-.8,-.7c-.2,0,-.4,.1,-.7,.3c-.3,.2,-.5,.3,-.7,.3c-.1,0,-.2,0,-.5,-.1c-.1,-.1,-.3,-.1,-.4,-.1c-.2,0,-.4,.1,-.7,.4c-.3,.1,-.7,.2,-1.2,.2l-.6,.2l-.3,.7c0,.8,.2,2.1,.7,3.8c.3,.1,.5,.2,.6,.3l.4,.5c.4,.1,.7,.1,.8,.2c.3,.1,.4,.3,.5,.6l-.2,.6l-.5,.4l-7.1,.6c-.3,0,-.6,-.1,-.8,-.4v-.7c-.2,-.4,-.5,-2.7,-.8,-7l.2,-.7l2.4,-2c1.9,-1.7,4.7,-4.3,8.5,-7.7l.2,-.3c0,0,.1,-.1,.3,-.4c.2,-.3,.3,-.7,.3,-1.2c0,-.5,.1,-1.4,.3,-2.6c.2,-1.1,.3,-2,.3,-2.6c0,-2.9,-.2,-4.6,-.6,-5.1l-.1,-.6c.3,-.3,.5,-.7,.8,-1.2l-.2,-.7l-.6,-.3c-2.3,-.3,-4.3,-.5,-5.9,-.5c-.8,0,-2,.1,-3.6,.4c-1.5,.3,-2.7,.4,-3.4,.4c-.6,.4,-1.3,.9,-2.1,1.4l-.7,.1l-.5,-.5c-.1,-.4,-.3,-.7,-.7,-.8l-.6,.1l-.5,.6c-.4,1.8,-.6,5.5,-.6,11.2c0,.6,.3,.9,.9,.9c.2,0,.5,-.1,.9,-.4c.3,-.4,.6,-.6,.9,-.5c.5,-.1,.9,-.2,1.4,-.2l.5,.6c.3,1.1,.6,1.7,1,1.7h.2l.7,-.5l.1,-.6c-.1,-.8,-.2,-3.1,-.2,-6.8c0,-2.2,.1,-3.4,.2,-3.8c.4,-.8,1.6,-1.3,3.4,-1.3c1.1,0,1.9,2.3,2.4,6.9c.3,2.8,.5,5.7,.5,8.5l-.2,.7c-2.3,1.9,-5.6,4.7,-10.1,8.5c-.5,.5,-1.2,1.2,-2.1,2.1c-.5,.4,-.7,1.4,-.6,2.9c0,.3,.1,.6,.2,.9l.3,.4c.5,.1,1.3,.4,2.5,.9l.5,.6v.1c.4,1.1,.8,1.6,1.4,1.5c1.1,0,3.7,-.1,7.7,-.5c4.3,-.4,6.5,-.8,6.6,-1Z" class="g0_15"/>
<path d="M82.9,163.8l-.1,-.4c0,.3,0,-.2,.1,-1.4c0,-.9,0,-1.6,-.1,-2.1c-.1,-.7,-.3,-1.1,-.6,-1.1c-.4,0,-.6,.5,-.6,1.5c0,.5,0,1.1,0,1.7c-.1,.8,-.3,1.2,-.7,1.2l-.4,-.1l-.2,-.4c.3,-2.9,.4,-5.7,.6,-8.6l-.2,-.4l-.5,-.1c-1.4,.3,-3.4,.5,-5.7,.7c-.4,0,-.7,0,-.8,.2l-.4,.1l-.5,-.1l-.2,-.4c-.4,-3.7,-.6,-6.4,-.6,-8.3c0,-3.3,.3,-4.9,1,-4.8c.3,.2,.5,.3,.7,.4l.7,-.4l.5,.2l.1,.4c.5,4.9,.9,8.5,1.2,10.9l.2,.3l.4,.1c1.9,-.2,3.1,-.4,3.8,-.6c.3,-.2,.4,-2.2,.4,-6.1v-4c.1,-.5,.3,-.8,.6,-.8c.2,-.1,.4,-.2,.5,-.4c.1,-.3,.3,-.4,.5,-.4c.3,.1,.4,.2,.5,.4c.2,.1,.4,.2,.4,.3h.4l.2,-.1l.4,.2l.2,.4v2.1c0,1.9,0,4.8,-.1,8.6c-.1,3.8,-.2,6.7,-.2,8.6c-.1,.2,-.1,.5,-.2,.6c-.1,.4,-.2,.6,-.2,.7c0,1.1,-.2,1.6,-.7,1.6h.1l-.5,-.2Z" class="g1_15"/>
<path d="M83.4,164h-.1c.5,0,.7,-.5,.7,-1.6c0,-.1,.1,-.3,.2,-.7c.1,-.1,.1,-.4,.2,-.6c0,-1.9,.1,-4.8,.2,-8.6c.1,-3.8,.1,-6.7,.1,-8.6v-2.1l-.2,-.4l-.4,-.2l-.2,.1h-.4c0,-.1,-.2,-.2,-.4,-.3c-.1,-.2,-.3,-.3,-.5,-.4c-.2,0,-.4,.1,-.5,.4c-.2,.2,-.3,.3,-.5,.4c-.4,0,-.6,.3,-.6,.8c0,-.5,0,-.1,0,1.3v2.7c0,3.9,-.1,5.9,-.4,6.1c-.7,.2,-1.9,.4,-3.8,.6l-.4,-.1l-.2,-.3c-.3,-2.4,-.7,-6,-1.2,-10.9l-.1,-.4l-.5,-.2l-.7,.4c-.2,-.1,-.4,-.2,-.7,-.4c-.7,-.1,-1,1.5,-1,4.8c0,1.9,.2,4.6,.6,8.3l.2,.4l.5,.1l.4,-.1c.1,-.2,.4,-.2,.8,-.2c2.3,-.2,4.3,-.4,5.7,-.7l.5,.1l.2,.4c-.2,2.9,-.3,5.7,-.6,8.6l.2,.4l.4,.1c.4,0,.6,-.4,.7,-1.2c0,-.6,0,-1.2,0,-1.7c0,-1,.2,-1.5,.6,-1.5c.3,0,.5,.4,.6,1.1c.1,.5,.1,1.2,.1,2.1c-.1,1.2,-.1,1.7,-.1,1.4l.1,.4l.5,.2Z" class="g2_15"/>
<path d="M61.9,186.6c8.2,0,14.9,-6.7,14.9,-14.9c0,-8.3,-6.7,-15,-14.9,-15c-8.3,0,-15,6.7,-15,15c0,8.2,6.7,14.9,15,14.9Z" class="g3_15"/>
<path d="M61.9,186.6c8.2,0,14.9,-6.7,14.9,-14.9c0,-8.3,-6.7,-15,-14.9,-15c-8.3,0,-15,6.7,-15,15c0,8.2,6.7,14.9,15,14.9Z" class="g1_15"/>
<path d="M138.9,151.9c8.3,0,15,-6.7,15,-15c0,-8.2,-6.7,-14.9,-15,-14.9c-8.2,0,-14.9,6.7,-14.9,14.9c0,8.3,6.7,15,14.9,15Z" class="g3_15"/>
<path d="M138.9,151.9c8.3,0,15,-6.7,15,-15c0,-8.2,-6.7,-14.9,-15,-14.9c-8.2,0,-14.9,6.7,-14.9,14.9c0,8.3,6.7,15,14.9,15Z" class="g1_15"/>
<image clip-path="url(#c2_15)" preserveAspectRatio="none" x="193" y="761" width="17" height="9" xlink:href="img/3.webp"/>
<path d="M163.3,396c7,0,12.7,-5.7,12.7,-12.8c0,-7,-5.7,-12.8,-12.7,-12.8c-7.1,0,-12.8,5.8,-12.8,12.8c0,7.1,5.7,12.8,12.8,12.8Z" class="g3_15"/>
<path d="M163.3,396c7,0,12.7,-5.7,12.7,-12.8c0,-7,-5.7,-12.8,-12.7,-12.8c-7.1,0,-12.8,5.8,-12.8,12.8c0,7.1,5.7,12.8,12.8,12.8Z" class="g4_15"/>
<path d="M756.9,396c7,0,12.7,-5.7,12.7,-12.8c0,-7,-5.7,-12.8,-12.7,-12.8c-7.1,0,-12.8,5.8,-12.8,12.8c0,7.1,5.7,12.8,12.8,12.8Z" class="g3_15"/>
<path d="M756.9,396c7,0,12.7,-5.7,12.7,-12.8c0,-7,-5.7,-12.8,-12.7,-12.8c-7.1,0,-12.8,5.8,-12.8,12.8c0,7.1,5.7,12.8,12.8,12.8Z" class="g4_15"/>
<path d="M47.8,53.1H844.3" class="g5_15"/>
</svg>