<?xml version="1.0" encoding="UTF-8" standalone="no"?>
<!DOCTYPE svg PUBLIC "-//W3C//DTD SVG 1.1//EN"
"http://www.w3.org/Graphics/SVG/1.1/DTD/svg11.dtd">
<svg viewBox="0 0 908 1285" version="1.1" xmlns="http://www.w3.org/2000/svg" xmlns:xlink="http://www.w3.org/1999/xlink">
<defs>
<clipPath id="c0_2"><path d="M-33.8,236.9v-271H291.9v271Z"/></clipPath>
<clipPath id="c1_2"><path d="M291.2,236.9v-271H617.4v271Z"/></clipPath>
<clipPath id="c2_2"><path d="M616.7,236.9v-271H942.6v271Z"/></clipPath>
<clipPath id="c3_2"><path d="M-33.8,507.5V236.2H291.9V507.5Z"/></clipPath>
<clipPath id="c4_2"><path d="M616.7,507.5V236.2H942.6V507.5Z"/></clipPath>
<clipPath id="c5_2"><path d="M-33.8,778.6V506.9H291.9V778.6Z"/></clipPath>
<clipPath id="c6_2"><path d="M616.7,778.6V506.9H942.6V778.6Z"/></clipPath>
<clipPath id="c7_2"><path d="M-33.8,1049.3V777.9H291.9v271.4Z"/></clipPath>
<clipPath id="c8_2"><path d="M616.7,1049.3V777.9H942.6v271.4Z"/></clipPath>
<clipPath id="c9_2"><path d="M-33.8,1319.6v-271H291.9v271Z"/></clipPath>
<clipPath id="ca_2"><path d="M291.2,1319.6v-271H617.4v271Z"/></clipPath>
<clipPath id="cb_2"><path d="M616.7,1319.6v-271H942.6v271Z"/></clipPath>
</defs>
<image clip-path="url(#c0_2)" preserveAspectRatio="none" x="-34" y="-34" width="326" height="271" xlink:href="img/1.jpg"/>
<image clip-path="url(#c1_2)" preserveAspectRatio="none" x="291" y="-34" width="326" height="271" xlink:href="img/2.jpg"/>
<image clip-path="url(#c2_2)" preserveAspectRatio="none" x="617" y="-34" width="326" height="271" xlink:href="img/3.jpg"/>
<image clip-path="url(#c3_2)" preserveAspectRatio="none" x="-34" y="236" width="326" height="272" xlink:href="img/4.jpg"/>
<image preserveAspectRatio="none" x="291" y="236" width="326" height="272" xlink:href="img/5.jpg"/>
<image clip-path="url(#c4_2)" preserveAspectRatio="none" x="617" y="236" width="326" height="272" xlink:href="img/6.jpg"/>
<image clip-path="url(#c5_2)" preserveAspectRatio="none" x="-34" y="507" width="326" height="272" xlink:href="img/7.jpg"/>
<image preserveAspectRatio="none" x="291" y="507" width="326" height="272" xlink:href="img/8.jpg"/>
<image clip-path="url(#c6_2)" preserveAspectRatio="none" x="617" y="507" width="326" height="272" xlink:href="img/9.jpg"/>
<image clip-path="url(#c7_2)" preserveAspectRatio="none" x="-34" y="778" width="326" height="271" xlink:href="img/10.jpg"/>
<image preserveAspectRatio="none" x="291" y="778" width="326" height="271" xlink:href="img/11.jpg"/>
<image clip-path="url(#c8_2)" preserveAspectRatio="none" x="617" y="778" width="326" height="271" xlink:href="img/12.jpg"/>
<image clip-path="url(#c9_2)" preserveAspectRatio="none" x="-34" y="1049" width="326" height="271" xlink:href="img/13.jpg"/>
<image clip-path="url(#ca_2)" preserveAspectRatio="none" x="291" y="1049" width="326" height="271" xlink:href="img/14.jpg"/>
<image clip-path="url(#cb_2)" preserveAspectRatio="none" x="617" y="1049" width="326" height="271" xlink:href="img/15.jpg"/>
<image preserveAspectRatio="none" x="746" y="211" width="122" height="122" xlink:href="img/16.jpg"/>
<image preserveAspectRatio="none" x="395" y="233" width="95" height="35" xlink:href="img/17.jpg"/>
<image preserveAspectRatio="none" x="615" y="306" width="84" height="84" xlink:href="img/18.jpg"/>
<image preserveAspectRatio="none" x="835" y="552" width="32" height="33" xlink:href="img/19.jpg"/>
<image preserveAspectRatio="none" x="839" y="612" width="32" height="65" xlink:href="img/20.jpg"/>
<image preserveAspectRatio="none" x="548" y="768" width="15" height="162" xlink:href="img/21.jpg"/>
<image preserveAspectRatio="none" x="214" y="912" width="136" height="92" xlink:href="img/22.jpg"/>
<image preserveAspectRatio="none" x="402" y="943" width="61" height="48" xlink:href="img/23.jpg"/>
<image preserveAspectRatio="none" x="385" y="949" width="15" height="40" xlink:href="img/24.jpg"/>
<image preserveAspectRatio="none" x="417" y="1206" width="113" height="41" xlink:href="img/25.jpg"/>
<image preserveAspectRatio="none" x="385" y="769" width="158" height="148" xlink:href="img/26.jpg"/>
<image preserveAspectRatio="none" x="520" y="943" width="43" height="46" xlink:href="img/27.jpg"/>
<image x="109" y="19" width="16" height="26" xlink:href="shade/1.png"/>
<image x="129" y="19" width="22" height="26" xlink:href="shade/2.png"/>
<image x="154" y="19" width="18" height="26" xlink:href="shade/3.png"/>
<image x="176" y="19" width="21" height="26" xlink:href="shade/4.png"/>
<image x="209" y="19" width="17" height="26" xlink:href="shade/5.png"/>
<image x="231" y="19" width="19" height="26" xlink:href="shade/6.png"/>
<image x="266" y="19" width="16" height="26" xlink:href="shade/7.png"/>
<image x="286" y="19" width="16" height="26" xlink:href="shade/8.png"/>
<image x="306" y="19" width="22" height="26" xlink:href="shade/9.png"/>
<image x="332" y="19" width="20" height="26" xlink:href="shade/10.png"/>
<image x="356" y="19" width="19" height="26" xlink:href="shade/11.png"/>
<image x="109" y="19" width="16" height="26" xlink:href="shade/12.png"/>
<image x="129" y="19" width="22" height="26" xlink:href="shade/13.png"/>
<image x="154" y="19" width="18" height="26" xlink:href="shade/14.png"/>
<image x="176" y="19" width="21" height="26" xlink:href="shade/15.png"/>
<image x="209" y="19" width="17" height="26" xlink:href="shade/16.png"/>
<image x="231" y="19" width="19" height="26" xlink:href="shade/17.png"/>
<image x="266" y="19" width="16" height="26" xlink:href="shade/18.png"/>
<image x="286" y="19" width="16" height="26" xlink:href="shade/19.png"/>
<image x="306" y="19" width="22" height="26" xlink:href="shade/20.png"/>
<image x="332" y="19" width="20" height="26" xlink:href="shade/21.png"/>
<image x="356" y="19" width="19" height="26" xlink:href="shade/22.png"/>
<image x="356" y="19" width="19" height="26" xlink:href="shade/23.png"/>
<image x="356" y="19" width="19" height="26" xlink:href="shade/24.png"/>
<image x="109" y="19" width="16" height="26" xlink:href="shade/25.png"/>
<image x="109" y="19" width="16" height="26" xlink:href="shade/26.png"/>
<image x="129" y="19" width="22" height="26" xlink:href="shade/27.png"/>
<image x="129" y="19" width="22" height="26" xlink:href="shade/28.png"/>
<image x="154" y="19" width="18" height="26" xlink:href="shade/29.png"/>
<image x="154" y="19" width="18" height="26" xlink:href="shade/30.png"/>
<image x="176" y="19" width="21" height="26" xlink:href="shade/31.png"/>
<image x="176" y="19" width="21" height="26" xlink:href="shade/32.png"/>
<image x="209" y="19" width="17" height="26" xlink:href="shade/33.png"/>
<image x="231" y="19" width="19" height="26" xlink:href="shade/34.png"/>
<image x="266" y="19" width="16" height="26" xlink:href="shade/35.png"/>
<image x="286" y="19" width="16" height="26" xlink:href="shade/36.png"/>
<image x="306" y="19" width="22" height="26" xlink:href="shade/37.png"/>
<image x="332" y="19" width="20" height="26" xlink:href="shade/38.png"/>
<image x="129" y="19" width="22" height="26" xlink:href="shade/39.png"/>
<image x="176" y="19" width="21" height="26" xlink:href="shade/40.png"/>
<image x="231" y="19" width="19" height="26" xlink:href="shade/41.png"/>
<image x="266" y="19" width="16" height="26" xlink:href="shade/42.png"/>
<image x="306" y="19" width="22" height="26" xlink:href="shade/43.png"/>
</svg>