<?xml version="1.0" encoding="UTF-8" standalone="no"?>
<!DOCTYPE svg PUBLIC "-//W3C//DTD SVG 1.1//EN"
"http://www.w3.org/Graphics/SVG/1.1/DTD/svg11.dtd">
<svg viewBox="0 0 908 1286" version="1.1" xmlns="http://www.w3.org/2000/svg" xmlns:xlink="http://www.w3.org/1999/xlink">
<defs>
<clipPath id="c0_7"><path d="M0,1285.7V0H909V1285.7Z"/></clipPath>
<clipPath id="c1_7"><path d="M56.3,556.1V100.6H852.8V556.1Z"/></clipPath>
<clipPath id="c2_7"><path d="M460.6,1249.5v-142H909v142Z"/></clipPath>
<style type="text/css"><![CDATA[
.g0_7{
fill: #FFFFFF;
}
.g1_7{
fill: none;
stroke: #000000;
stroke-width: 0.916;
stroke-linecap: butt;
stroke-linejoin: miter;
}
.g2_7{
}
.g3_7{
fill: none;
stroke: #FFFFFF;
stroke-width: 1.527;
stroke-linecap: butt;
stroke-linejoin: miter;
}
.g4_7{
fill: none;
stroke: #CD071E;
stroke-width: 3.054;
stroke-linecap: butt;
stroke-linejoin: miter;
}
.g5_7{
fill: none;
stroke: #CF0E1C;
stroke-width: 3.054;
stroke-linecap: butt;
stroke-linejoin: miter;
}
.g6_7{
fill: none;
stroke: #FFFFFF;
stroke-width: 0.916;
stroke-linecap: butt;
stroke-linejoin: miter;
}
]]></style>
</defs>
<path d="M0,0H909V1285.7H0V0Z" class="g0_7"/>
<image clip-path="url(#c0_7)" preserveAspectRatio="none" x="-1" y="-21" width="932" height="1328" xlink:href="img/1.webp"/>
<path d="M56.3,75.5H852.8" class="g1_7"/>
<image clip-path="url(#c1_7)" preserveAspectRatio="none" x="56" y="101" width="797" height="455" xlink:href="img/2.webp"/>
<path d="M69.7,686.8c8.2,0,14.9,-6.8,14.9,-15.1c0,-8.3,-6.7,-15,-14.9,-15c-8.3,0,-15,6.7,-15,15c0,8.3,6.7,15.1,15,15.1Z" class="g2_7"/>
<path d="M69.7,686.8c8.2,0,14.9,-6.8,14.9,-15.1c0,-8.3,-6.7,-15,-14.9,-15c-8.3,0,-15,6.7,-15,15c0,8.3,6.7,15.1,15,15.1Z" class="g3_7"/>
<path d="M69.7,838.4c8.2,0,14.9,-6.8,14.9,-15.1c0,-8.3,-6.7,-15.1,-14.9,-15.1c-8.3,0,-15,6.8,-15,15.1c0,8.3,6.7,15.1,15,15.1Z" class="g2_7"/>
<path d="M69.7,838.4c8.2,0,14.9,-6.8,14.9,-15.1c0,-8.3,-6.7,-15.1,-14.9,-15.1c-8.3,0,-15,6.8,-15,15.1c0,8.3,6.7,15.1,15,15.1Z" class="g3_7"/>
<path d="M397.2,328.3h383V103.4h-383V328.3Z" class="g4_7"/>
<path d="M396.6,228.7c8.3,0,15,-6.7,15,-15c0,-8.2,-6.7,-14.9,-15,-14.9c-8.2,0,-14.9,6.7,-14.9,14.9c0,8.3,6.7,15,14.9,15Z" class="g2_7"/>
<path d="M396.6,228.7c8.3,0,15,-6.7,15,-15c0,-8.2,-6.7,-14.9,-15,-14.9c-8.2,0,-14.9,6.7,-14.9,14.9c0,8.3,6.7,15,14.9,15ZM787.2,360.8h52.4V99.5H787.2V360.8Z" class="g4_7"/>
<path d="M813.3,108.9c8.2,0,14.9,-6.7,14.9,-14.9c0,-8.3,-6.7,-15,-14.9,-15c-8.3,0,-15,6.7,-15,15c0,8.2,6.7,14.9,15,14.9Z" class="g2_7"/>
<path d="M813.3,108.9c8.2,0,14.9,-6.7,14.9,-14.9c0,-8.3,-6.7,-15,-14.9,-15c-8.3,0,-15,6.7,-15,15c0,8.2,6.7,14.9,15,14.9Z" class="g4_7"/>
<path d="M69.7,935.3c8.2,0,14.9,-6.8,14.9,-15.1c0,-8.3,-6.7,-15.1,-14.9,-15.1c-8.3,0,-15,6.8,-15,15.1c0,8.3,6.7,15.1,15,15.1Z" class="g2_7"/>
<path d="M69.7,935.3c8.2,0,14.9,-6.8,14.9,-15.1c0,-8.3,-6.7,-15.1,-14.9,-15.1c-8.3,0,-15,6.8,-15,15.1c0,8.3,6.7,15.1,15,15.1Z" class="g3_7"/>
<path d="M69.7,1013.8c8.2,0,14.9,-6.8,14.9,-15.1c0,-8.3,-6.7,-15.1,-14.9,-15.1c-8.3,0,-15,6.8,-15,15.1c0,8.3,6.7,15.1,15,15.1Z" class="g2_7"/>
<path d="M69.7,1013.8c8.2,0,14.9,-6.8,14.9,-15.1c0,-8.3,-6.7,-15.1,-14.9,-15.1c-8.3,0,-15,6.8,-15,15.1c0,8.3,6.7,15.1,15,15.1Z" class="g3_7"/>
<path d="M69.7,1126.1c8.2,0,14.9,-6.8,14.9,-15.1c0,-8.3,-6.7,-15.1,-14.9,-15.1c-8.3,0,-15,6.8,-15,15.1c0,8.3,6.7,15.1,15,15.1Z" class="g2_7"/>
<path d="M69.7,1126.1c8.2,0,14.9,-6.8,14.9,-15.1c0,-8.3,-6.7,-15.1,-14.9,-15.1c-8.3,0,-15,6.8,-15,15.1c0,8.3,6.7,15.1,15,15.1Z" class="g3_7"/>
<path d="M485.4,592.1c8.2,0,14.9,-6.7,14.9,-15c0,-8.3,-6.7,-15.1,-14.9,-15.1c-8.3,0,-15,6.8,-15,15.1c0,8.3,6.7,15,15,15Z" class="g2_7"/>
<path d="M485.4,592.1c8.2,0,14.9,-6.7,14.9,-15c0,-8.3,-6.7,-15.1,-14.9,-15.1c-8.3,0,-15,6.8,-15,15.1c0,8.3,6.7,15,15,15Z" class="g3_7"/>
<path d="M485.4,724.6c8.2,0,14.9,-6.7,14.9,-15c0,-8.4,-6.7,-15.1,-14.9,-15.1c-8.3,0,-15,6.7,-15,15.1c0,8.3,6.7,15,15,15Z" class="g2_7"/>
<path d="M485.4,724.6c8.2,0,14.9,-6.7,14.9,-15c0,-8.4,-6.7,-15.1,-14.9,-15.1c-8.3,0,-15,6.7,-15,15.1c0,8.3,6.7,15,15,15Z" class="g3_7"/>
<path d="M485.4,876.8c8.2,0,14.9,-6.8,14.9,-15.1c0,-8.3,-6.7,-15.1,-14.9,-15.1c-8.3,0,-15,6.8,-15,15.1c0,8.3,6.7,15.1,15,15.1Z" class="g2_7"/>
<path d="M485.4,876.8c8.2,0,14.9,-6.8,14.9,-15.1c0,-8.3,-6.7,-15.1,-14.9,-15.1c-8.3,0,-15,6.8,-15,15.1c0,8.3,6.7,15.1,15,15.1Z" class="g3_7"/>
<image clip-path="url(#c2_7)" preserveAspectRatio="none" x="461" y="1107" width="448" height="143" xlink:href="img/3.webp"/>
<path d="M340.2,393.3h32.5V348.7H340.2v44.6ZM377.9,411H701.5V343.9H377.9V411ZM709.1,343.9V411h125V369.9l-69.7,-.2l.1,-25.8H709.1ZM65.6,545.2H312.3V417.5H65.6V545.2Zm265.6,0H577.9V417.5H331.2V545.2Zm265.5,0H843.4V417.5H596.7V545.2Z" class="g4_7"/>
<path d="M333.9,356.3c8.2,0,14.9,-6.7,14.9,-15c0,-8.2,-6.7,-14.9,-14.9,-14.9c-8.3,0,-15,6.7,-15,14.9c0,8.3,6.7,15,15,15Z" class="g2_7"/>
<path d="M333.9,356.3c8.2,0,14.9,-6.7,14.9,-15c0,-8.2,-6.7,-14.9,-14.9,-14.9c-8.3,0,-15,6.7,-15,14.9c0,8.3,6.7,15,15,15Z" class="g4_7"/>
<path d="M405.6,363.3c8.2,0,14.9,-6.7,14.9,-14.9c0,-8.3,-6.7,-15,-14.9,-15c-8.2,0,-14.9,6.7,-14.9,15c0,8.2,6.7,14.9,14.9,14.9Z" class="g2_7"/>
<path d="M405.6,363.3c8.2,0,14.9,-6.7,14.9,-14.9c0,-8.3,-6.7,-15,-14.9,-15c-8.2,0,-14.9,6.7,-14.9,15c0,8.2,6.7,14.9,14.9,14.9Z" class="g4_7"/>
<path d="M841.2,404.7c8.2,0,14.9,-6.7,14.9,-14.9c0,-8.3,-6.7,-15,-14.9,-15c-8.3,0,-15,6.7,-15,15c0,8.2,6.7,14.9,15,14.9Z" class="g2_7"/>
<path d="M841.2,404.7c8.2,0,14.9,-6.7,14.9,-14.9c0,-8.3,-6.7,-15,-14.9,-15c-8.3,0,-15,6.7,-15,15c0,8.2,6.7,14.9,15,14.9Z" class="g4_7"/>
<path d="M73.8,496.3c8.3,0,15,-6.7,15,-14.9c0,-8.3,-6.7,-15,-15,-15c-8.2,0,-14.9,6.7,-14.9,15c0,8.2,6.7,14.9,14.9,14.9Z" class="g2_7"/>
<path d="M73.8,496.3c8.3,0,15,-6.7,15,-14.9c0,-8.3,-6.7,-15,-15,-15c-8.2,0,-14.9,6.7,-14.9,15c0,8.2,6.7,14.9,14.9,14.9Z" class="g5_7"/>
<path d="M340,496.3c8.3,0,15,-6.7,15,-14.9c0,-8.3,-6.7,-15,-15,-15c-8.2,0,-14.9,6.7,-14.9,15c0,8.2,6.7,14.9,14.9,14.9Z" class="g2_7"/>
<path d="M340,496.3c8.3,0,15,-6.7,15,-14.9c0,-8.3,-6.7,-15,-15,-15c-8.2,0,-14.9,6.7,-14.9,15c0,8.2,6.7,14.9,14.9,14.9Z" class="g4_7"/>
<path d="M605.2,496.3c8.2,0,14.9,-6.7,14.9,-14.9c0,-8.3,-6.7,-15,-14.9,-15c-8.3,0,-15,6.7,-15,15c0,8.2,6.7,14.9,15,14.9Z" class="g2_7"/>
<path d="M605.2,496.3c8.2,0,14.9,-6.7,14.9,-14.9c0,-8.3,-6.7,-15,-14.9,-15c-8.3,0,-15,6.7,-15,15c0,8.2,6.7,14.9,15,14.9Z" class="g4_7"/>
<path d="M469.7,1139.4H852.8" class="g6_7"/>
<path d="M881.5,1254.4v0c0,-.2,0,-.3,-.2,-.3c-.6,-.1,-1.3,-.1,-2.4,-.2c.1,0,-.4,0,-1.7,0c-.9,0,-2,.2,-3.2,.6c-.2,0,-.3,.3,-.3,.8c0,1.1,.3,1.7,1,1.7c.1,0,.2,-.1,.2,-.2l.2,-.2c0,0,.1,0,.1,0c.1,0,.2,0,.2,0l.2,.1c.2,0,.4,-.2,.4,-.6c0,.5,0,.2,0,-.8l-.1,-.2q-.1,-.1,-.1,-.2c0,-.2,.5,-.4,1.6,-.4c.1,0,.5,0,1,0l.2,.1v.2c0,.8,-.2,1.8,-.6,3.1c-.4,1.4,-.6,2.4,-.7,3c-.3,1.4,-.4,2.3,-.5,2.6c-.1,1,-.2,1.9,-.2,2.7c.1,.1,.3,.2,.5,.3c.1,-.1,.2,-.2,.2,-.2c0,-.3,.1,-.4,.3,-.4c0,0,.2,.1,.4,.2h.3l.1,-.2c.1,-.8,.7,-2.8,1.7,-5.9c1,-3,1.5,-4.6,1.5,-4.9c0,-.1,0,-.2,0,-.3c0,-.2,-.1,-.3,-.1,-.4Z" class="g2_7"/>
</svg>