<?xml version="1.0" encoding="UTF-8" standalone="no"?>
<!DOCTYPE svg PUBLIC "-//W3C//DTD SVG 1.1//EN"
"http://www.w3.org/Graphics/SVG/1.1/DTD/svg11.dtd">
<svg viewBox="0 0 908 1286" version="1.1" xmlns="http://www.w3.org/2000/svg" xmlns:xlink="http://www.w3.org/1999/xlink">
<defs>
<clipPath id="c0_3"><path d="M0,1285.7V0H909V1285.7Z"/></clipPath>
<clipPath id="c1_3"><path d="M101.7,78.4V26H807.3V78.4Z"/></clipPath>
<clipPath id="c2_3"><path d="M225.8,299.4V143.5H373.5V299.4Z"/></clipPath>
<clipPath id="c3_3"><path d="M119,299.4V139.6H219.8V299.4Z"/></clipPath>
<clipPath id="c4_3"><path d="M317.1,774.6l-40.2,-4.2l.7,-6.7l3,-28.6l.7,.1l39.5,4.2l-1.2,11.2l-2.5,24Z"/></clipPath>
<clipPath id="c5_3"><path d="M143.1,815.6L126.4,784.4l35.7,-19l16.6,31.3l-35.6,18.9Z"/></clipPath>
<clipPath id="c6_3"><path d="M227.9,821.2l-7.3,-34.6l21.1,-4.5L260,778.2l.8,3.7l6.6,30.9l-39.5,8.4Z"/></clipPath>
<clipPath id="c7_3"><path d="M326.1,756.3L309.5,725l23.1,-12.3l12.5,-6.6l16.6,31.2l-21.4,11.4l-14.2,7.6Z"/></clipPath>
<clipPath id="c8_3"><path d="M328.5,819.4l-11.7,-1.2l-28.4,-3l.3,-2.7L292.1,780l40.1,4.2l-3.7,35.2Z"/></clipPath>
<clipPath id="c9_3"><path d="M223.3,810.3l-2.7,-.3l-37.4,-4l2.6,-25.4l1.1,-9.8L227,775l-3.7,35.3Z"/></clipPath>
<clipPath id="ca_3"><path d="M232.2,743.9L205.1,721.2l25.9,-31L258.1,713L245,728.7l-12.8,15.2Z"/></clipPath>
<clipPath id="cb_3"><path d="M268.8,781.7v0L244,749.9l27.9,-21.8l18,23.1l6.8,8.7l-25.2,19.6l-2.7,2.2Z"/></clipPath>
<clipPath id="cc_3"><path d="M178.7,750.9l-4.2,-40.2L209.7,707l.1,1.1l4.1,39.1l-25,2.6l-10.2,1.1Z"/></clipPath>
<clipPath id="cd_3"><path d="M260.9,815.8l-7.4,-34.6l12.9,-2.8L293,772.8l7.4,34.6l-39.5,8.4Z"/></clipPath>
<clipPath id="ce_3"><path d="M311.4,743.3l-12.9,-9.4L278.8,719.5l20.8,-28.6l16.8,12.2l15.8,11.5l-20.8,28.7Z"/></clipPath>
<clipPath id="cf_3"><path d="M237.3,800.5L205.5,785l17.7,-36.3l9.6,4.7L255,764.2l-9.8,20.2l-7.9,16.1Z"/></clipPath>
<clipPath id="cg_3"><path d="M235.5,739.7l-1.3,-35.4l10.2,-.4l30.2,-1l1.2,35.4l-40.3,1.4Z"/></clipPath>
<clipPath id="ch_3"><path d="M177,780L161.5,750.9l-1.2,-2.2l21.4,-11.3L196,729.8l9.6,18l7,13.2L177,780Z"/></clipPath>
<clipPath id="ci_3"><path d="M126.4,1056.3V937.7H365.9v118.6Z"/></clipPath>
<clipPath id="cj_3"><path d="M489.1,624.4V426.6H834V624.4Z"/></clipPath>
<clipPath id="ck_3"><path d="M661.2,827.7c-17.3,0,-31.4,-14,-31.4,-31.4c0,-17.3,14.1,-31.4,31.4,-31.4c17.4,0,31.4,14.1,31.4,31.4c0,17.4,-14,31.4,-31.4,31.4Z"/></clipPath>
<clipPath id="cl_3"><path d="M723.2,1076.4c-4.2,0,-4.3,-4.1,-4.3,-4.3V944.4c0,-4.3,4.3,-4.3,4.3,-4.3h82.3c4.3,0,4.3,4.3,4.3,4.3v127.7c0,4.3,-4.3,4.3,-4.3,4.3Z"/></clipPath>
<clipPath id="cm_3"><path d="M178.6,585L148.3,453.8l92.8,-21.5l30.3,131.2L178.6,585Z"/></clipPath>
<clipPath id="cn_3"><path d="M488.2,299.4L478.6,142.7L661.4,131.5l9.5,156.7L488.2,299.4Z"/></clipPath>
<clipPath id="co_3"><path d="M832.7,303.1L645,291.7l9.9,-161.6l187.7,11.5l-9.9,161.5Z"/></clipPath>
<clipPath id="cp_3"><path d="M157.9,493l-8.5,-36.8L241.1,435l8.5,36.8L157.9,493Z"/></clipPath>
<clipPath id="cq_3"><path d="M258.4,561.9v0l-3.3,-14.3l7.5,-1.7l3.3,14.2l-7.5,1.8Z"/></clipPath>
<style type="text/css"><![CDATA[
.g0_3{
fill: #FFFFFF;
}
.g1_3{
fill: none;
stroke: #000000;
stroke-width: 0.916;
stroke-linecap: butt;
stroke-linejoin: miter;
}
.g2_3{
}
]]></style>
</defs>
<path d="M0,0H909V1285.7H0V0Z" class="g0_3"/>
<image clip-path="url(#c0_3)" preserveAspectRatio="none" x="-1" y="-21" width="932" height="1328" xlink:href="img/1.jpg"/>
<image clip-path="url(#c1_3)" preserveAspectRatio="none" x="102" y="26" width="705" height="52" xlink:href="img/2.png"/>
<image clip-path="url(#c2_3)" preserveAspectRatio="none" x="225" y="143" width="149" height="157" xlink:href="img/3.png"/>
<image clip-path="url(#c3_3)" preserveAspectRatio="none" x="119" y="139" width="101" height="161" xlink:href="img/4.png"/>
<g clip-path="url(#c4_3)">
<image preserveAspectRatio="none" x="277" y="735" width="44" height="40" xlink:href="img/5.png"/>
<image preserveAspectRatio="none" x="277" y="735" width="44" height="40" xlink:href="img/6.png"/>
</g>
<image clip-path="url(#c5_3)" preserveAspectRatio="none" x="126" y="765" width="53" height="51" xlink:href="img/7.png"/>
<image clip-path="url(#c6_3)" preserveAspectRatio="none" x="220" y="778" width="48" height="43" xlink:href="img/8.png"/>
<image clip-path="url(#c7_3)" preserveAspectRatio="none" x="309" y="706" width="53" height="50" xlink:href="img/9.png"/>
<image clip-path="url(#c8_3)" preserveAspectRatio="none" x="288" y="780" width="45" height="39" xlink:href="img/10.png"/>
<image clip-path="url(#c9_3)" preserveAspectRatio="none" x="183" y="771" width="44" height="39" xlink:href="img/11.png"/>
<image clip-path="url(#ca_3)" preserveAspectRatio="none" x="205" y="690" width="54" height="54" xlink:href="img/12.png"/>
<image clip-path="url(#cb_3)" preserveAspectRatio="none" x="244" y="728" width="53" height="54" xlink:href="img/13.png"/>
<image clip-path="url(#cc_3)" preserveAspectRatio="none" x="174" y="707" width="40" height="44" xlink:href="img/14.png"/>
<image clip-path="url(#cd_3)" preserveAspectRatio="none" x="253" y="773" width="48" height="43" xlink:href="img/15.png"/>
<image clip-path="url(#ce_3)" preserveAspectRatio="none" x="279" y="691" width="54" height="53" xlink:href="img/16.png"/>
<image clip-path="url(#cf_3)" preserveAspectRatio="none" x="205" y="748" width="50" height="53" xlink:href="img/17.png"/>
<image clip-path="url(#cg_3)" preserveAspectRatio="none" x="234" y="703" width="42" height="37" xlink:href="img/18.png"/>
<image clip-path="url(#ch_3)" preserveAspectRatio="none" x="160" y="730" width="53" height="50" xlink:href="img/19.png"/>
<path d="M56.3,123.4H439.4M56.3,424.2H439.4M56.3,680.7H439.4M56.3,917.7H439.4M469.7,123.4H852.8" class="g1_3"/>
<image clip-path="url(#ci_3)" preserveAspectRatio="none" x="126" y="938" width="240" height="118" xlink:href="img/20.png"/>
<image clip-path="url(#cj_3)" preserveAspectRatio="none" x="488" y="425" width="348" height="201" xlink:href="img/21.jpg"/>
<path d="M469.7,414.5H852.8M469.7,746.7H852.8" class="g1_3"/>
<image clip-path="url(#ck_3)" preserveAspectRatio="none" x="630" y="765" width="63" height="63" xlink:href="img/22.png"/>
<path d="M469.7,931.4H852.8" class="g1_3"/>
<image clip-path="url(#cl_3)" preserveAspectRatio="none" x="719" y="940" width="91" height="136" xlink:href="img/23.jpg"/>
<g clip-path="url(#cm_3)">
<image preserveAspectRatio="none" x="148" y="430" width="126" height="157" xlink:href="img/24.png"/>
<image preserveAspectRatio="none" x="148" y="432" width="124" height="153" xlink:href="img/25.png"/>
</g>
<path d="M880.1,1266.2v0c.1,0,.1,.1,.3,.1h.2l.1,-.3c.1,-1,.1,-1.6,.1,-1.9c-.1,-1.4,-.3,-2.2,-.6,-2.5c-.1,-.1,-.4,-.3,-1,-.6c-.6,-.3,-.8,-.5,-.8,-.6c0,-.2,.4,-.4,1.2,-.8h.2l.2,.2c0,.2,.1,.2,.3,.2c.2,0,.3,-.1,.3,-.3v-4.6c0,-.1,.1,-.2,.3,-.3c.2,0,.3,-.1,.3,-.2c0,-.3,-.1,-.4,-.3,-.4c-1.2,-.1,-2.1,-.2,-2.7,-.2c-.7,0,-1.3,.1,-1.9,.2c-.2,0,-.3,0,-.2,0c-.1,0,-.2,0,-.3,.1c-.1,.1,-.2,.1,-.3,.1c-.1,0,-.2,0,-.3,-.1c-.1,-.2,-.2,-.3,-.3,-.3c-.1,0,-.2,.2,-.3,.4c-.1,.3,-.2,.4,-.6,.3l-.2,.1v.2c0,.2,0,.5,0,.8c-.1,.4,-.1,.7,-.1,.9c0,1,.2,1.6,.4,1.6h.2l.2,-.2c0,-.2,0,-.5,0,-.7c.1,-.2,.2,-.4,.3,-.4c.2,0,.3,.2,.4,.5c.1,.4,.2,.5,.3,.5c.3,0,.5,-.3,.5,-1.1c0,-.6,0,-1.2,.2,-1.8l.2,-.2c.5,-.2,1,-.2,1.4,-.2c.4,0,.5,.9,.5,2.6c0,.4,0,.9,0,1.3c0,.7,-.1,1,-.2,1.1c-.7,.5,-1.5,.7,-2.4,.7l-.2,.1l-.1,.2l.1,.2l.2,.1c.4,0,.8,0,1.4,-.2l.2,.1q.1,0,.2,0c.1,.1,.2,.1,.2,.1l.2,.2c0,0,0,.1,0,.2c0,0,0,.1,0,.2c0,.1,0,.3,.1,.7c0,.3,0,.5,0,.7c0,2.1,-.1,3.2,-.4,3.2c-.1,0,-.4,0,-.7,0c-.3,0,-.5,0,-.5,0c-.2,0,-.3,-.4,-.5,-1.4c-.2,-.5,-.3,-1.1,-.4,-1.7l-.2,-.1l-.2,.1l-.2,.2l-.2,.1l-.2,-.1c-.1,0,-.2,-.1,-.3,-.1l-.2,.1c-.1,.1,-.1,.3,-.1,.5c0,.4,.1,1.1,.5,2.2c0,.2,.1,.2,.3,.2c.1,0,.2,0,.3,-.2c.1,-.1,.2,-.2,.3,-.2c.1,0,.2,.1,.2,.3c0,.2,0,.3,0,.4l.1,.3c.1,0,.5,.1,1,.1c1.4,0,2.4,-.3,3.1,-.8l.2,-.1l.2,.2Z" class="g2_3"/>
<image clip-path="url(#cn_3)" preserveAspectRatio="none" x="478" y="131" width="193" height="169" xlink:href="img/26.png"/>
<image clip-path="url(#co_3)" preserveAspectRatio="none" x="645" y="130" width="198" height="173" xlink:href="img/27.png"/>
<image clip-path="url(#cp_3)" preserveAspectRatio="none" x="149" y="435" width="101" height="58" xlink:href="img/28.png"/>
<image clip-path="url(#cq_3)" preserveAspectRatio="none" x="255" y="546" width="11" height="16" xlink:href="img/29.png"/>
<g clip-path="url(#c0_3)">
<image preserveAspectRatio="none" x="512" y="939" width="91" height="138" xlink:href="img/30.jpg"/>
<image preserveAspectRatio="none" x="616" y="940" width="89" height="133" xlink:href="img/31.jpg"/>
<image preserveAspectRatio="none" x="224" y="434" width="122" height="148" xlink:href="img/32.png"/>
</g>
</svg>