<?xml version="1.0" encoding="UTF-8" standalone="no"?>
<!DOCTYPE svg PUBLIC "-//W3C//DTD SVG 1.1//EN"
"http://www.w3.org/Graphics/SVG/1.1/DTD/svg11.dtd">
<svg viewBox="0 0 908 1285" version="1.1" xmlns="http://www.w3.org/2000/svg" xmlns:xlink="http://www.w3.org/1999/xlink">
<defs>
<clipPath id="c0"><path d="M-34,290.8V-34.3H291.9V290.8Z"/></clipPath>
<clipPath id="c1"><path d="M291.2,290.8V-34.3H617.5V290.8Z"/></clipPath>
<clipPath id="c2"><path d="M616.8,290.8V-34.3H942.7V290.8Z"/></clipPath>
<clipPath id="c3"><path d="M-34,616V290.1H291.9V616Z"/></clipPath>
<clipPath id="c4"><path d="M616.8,616V290.1H942.7V616Z"/></clipPath>
<clipPath id="c5"><path d="M-34,941.3v-326H291.9v326Z"/></clipPath>
<clipPath id="c6"><path d="M291.2,941.3v-326H617.5v326Z"/></clipPath>
<clipPath id="c7"><path d="M616.8,941.3v-326H942.7v326Z"/></clipPath>
<clipPath id="c8"><path d="M-34,1266.5v-326H291.9v326Z"/></clipPath>
<clipPath id="c9"><path d="M291.2,1266.5v-326H617.5v326Z"/></clipPath>
<clipPath id="ca"><path d="M616.8,1266.5v-326H942.7v326Z"/></clipPath>
<clipPath id="cb"><path d="M-34,1319.8v-54.1H942.7v54.1Z"/></clipPath>
</defs>
<image clip-path="url(#c0)" preserveAspectRatio="none" x="-34" y="-34" width="326" height="325" xlink:href="img/1.webp"/>
<image clip-path="url(#c1)" preserveAspectRatio="none" x="291" y="-34" width="326" height="325" xlink:href="img/2.webp"/>
<image clip-path="url(#c2)" preserveAspectRatio="none" x="617" y="-34" width="326" height="325" xlink:href="img/3.webp"/>
<image clip-path="url(#c3)" preserveAspectRatio="none" x="-34" y="290" width="326" height="326" xlink:href="img/4.webp"/>
<image preserveAspectRatio="none" x="291" y="290" width="326" height="326" xlink:href="img/5.webp"/>
<image clip-path="url(#c4)" preserveAspectRatio="none" x="617" y="290" width="326" height="326" xlink:href="img/6.webp"/>
<image clip-path="url(#c5)" preserveAspectRatio="none" x="-34" y="615" width="326" height="326" xlink:href="img/7.webp"/>
<image clip-path="url(#c6)" preserveAspectRatio="none" x="291" y="615" width="326" height="326" xlink:href="img/8.webp"/>
<image clip-path="url(#c7)" preserveAspectRatio="none" x="617" y="615" width="326" height="326" xlink:href="img/9.webp"/>
<image clip-path="url(#c8)" preserveAspectRatio="none" x="-34" y="941" width="326" height="325" xlink:href="img/10.webp"/>
<image clip-path="url(#c9)" preserveAspectRatio="none" x="291" y="941" width="326" height="325" xlink:href="img/11.webp"/>
<image clip-path="url(#ca)" preserveAspectRatio="none" x="617" y="941" width="326" height="325" xlink:href="img/12.webp"/>
<image clip-path="url(#cb)" preserveAspectRatio="none" x="-34" y="1266" width="977" height="55" xlink:href="img/13.webp"/>
<image preserveAspectRatio="none" x="71" y="55" width="61" height="65" xlink:href="img/14.webp"/>
<image preserveAspectRatio="none" x="-8" y="64" width="47" height="48" xlink:href="img/15.webp"/>
<image preserveAspectRatio="none" x="155" y="351" width="128" height="69" xlink:href="img/16.webp"/>
<image preserveAspectRatio="none" x="442" y="456" width="107" height="65" xlink:href="img/17.webp"/>
<image preserveAspectRatio="none" x="74" y="626" width="61" height="30" xlink:href="img/18.webp"/>
<image preserveAspectRatio="none" x="74" y="703" width="120" height="30" xlink:href="img/19.webp"/>
<image preserveAspectRatio="none" x="74" y="819" width="68" height="29" xlink:href="img/20.webp"/>
<image preserveAspectRatio="none" x="466" y="836" width="102" height="69" xlink:href="img/21.webp"/>
<image preserveAspectRatio="none" x="849" y="841" width="40" height="58" xlink:href="img/22.webp"/>
<image preserveAspectRatio="none" x="59" y="914" width="102" height="66" xlink:href="img/23.webp"/>
<image preserveAspectRatio="none" x="442" y="917" width="40" height="59" xlink:href="img/24.webp"/>
<image preserveAspectRatio="none" x="481" y="1011" width="61" height="30" xlink:href="img/25.webp"/>
<image preserveAspectRatio="none" x="481" y="1068" width="119" height="30" xlink:href="img/26.webp"/>
<image preserveAspectRatio="none" x="74" y="1107" width="61" height="30" xlink:href="img/27.webp"/>
<image preserveAspectRatio="none" x="74" y="1165" width="120" height="30" xlink:href="img/28.webp"/>
<image preserveAspectRatio="none" x="416" y="1205" width="114" height="43" xlink:href="img/29.webp"/>
<image preserveAspectRatio="none" x="59" y="452" width="102" height="67" xlink:href="img/30.webp"/>
</svg>