<?xml version="1.0" encoding="UTF-8" standalone="no"?>
<!DOCTYPE svg PUBLIC "-//W3C//DTD SVG 1.1//EN"
"http://www.w3.org/Graphics/SVG/1.1/DTD/svg11.dtd">
<svg viewBox="0 0 908 1285" version="1.1" xmlns="http://www.w3.org/2000/svg" xmlns:xlink="http://www.w3.org/1999/xlink">
<defs>
<clipPath id="c0_18"><path d="M-34.2,182.1V-34.7H183.1V182.1Z"/></clipPath>
<clipPath id="c1_18"><path d="M182.6,182.1V-34.7H400.2V182.1Z"/></clipPath>
<clipPath id="c2_18"><path d="M399.7,182.1V-34.7H617.6V182.1Z"/></clipPath>
<clipPath id="c3_18"><path d="M617.1,182.1V-34.7H834.8V182.1Z"/></clipPath>
<clipPath id="c4_18"><path d="M834.3,453.2V-34.7H943V453.2Z"/></clipPath>
<clipPath id="c5_18"><path d="M-34.2,399V181.6H183.1V399Z"/></clipPath>
<clipPath id="c6_18"><path d="M617.1,399V181.6H834.8V399Z"/></clipPath>
<clipPath id="c7_18"><path d="M-34.2,615.9V398.5H183.1V615.9Z"/></clipPath>
<clipPath id="c8_18"><path d="M617.1,615.9V398.5H834.8V615.9Z"/></clipPath>
<clipPath id="c9_18"><path d="M834.3,941.2V452.7H943V941.2Z"/></clipPath>
<clipPath id="ca_18"><path d="M-34.2,832.7V615.3H183.1V832.7Z"/></clipPath>
<clipPath id="cb_18"><path d="M617.1,832.7V615.3H834.8V832.7Z"/></clipPath>
<clipPath id="cc_18"><path d="M-34.2,1049.6V832.2H183.1v217.4Z"/></clipPath>
<clipPath id="cd_18"><path d="M617.1,1049.6V832.2H834.8v217.4Z"/></clipPath>
<clipPath id="ce_18"><path d="M834.3,1320.2V940.7H943v379.5Z"/></clipPath>
<clipPath id="cf_18"><path d="M-34.2,1266.5V1049.1H183.1v217.4Z"/></clipPath>
<clipPath id="cg_18"><path d="M617.1,1266.5V1049.1H834.8v217.4Z"/></clipPath>
<clipPath id="ch_18"><path d="M-34.2,1320.2V1266h869v54.2Z"/></clipPath>
</defs>
<image clip-path="url(#c0_18)" preserveAspectRatio="none" x="-34" y="-34" width="217" height="216" xlink:href="img/1.jpg"/>
<image clip-path="url(#c1_18)" preserveAspectRatio="none" x="183" y="-34" width="217" height="216" xlink:href="img/2.jpg"/>
<image clip-path="url(#c2_18)" preserveAspectRatio="none" x="400" y="-34" width="218" height="216" xlink:href="img/3.jpg"/>
<image clip-path="url(#c3_18)" preserveAspectRatio="none" x="617" y="-34" width="218" height="216" xlink:href="img/4.jpg"/>
<image clip-path="url(#c4_18)" preserveAspectRatio="none" x="834" y="-34" width="109" height="487" xlink:href="img/5.jpg"/>
<image clip-path="url(#c5_18)" preserveAspectRatio="none" x="-34" y="182" width="217" height="217" xlink:href="img/6.jpg"/>
<image preserveAspectRatio="none" x="183" y="182" width="217" height="217" xlink:href="img/7.jpg"/>
<image preserveAspectRatio="none" x="400" y="182" width="218" height="217" xlink:href="img/8.jpg"/>
<image clip-path="url(#c6_18)" preserveAspectRatio="none" x="617" y="182" width="218" height="217" xlink:href="img/9.jpg"/>
<image clip-path="url(#c7_18)" preserveAspectRatio="none" x="-34" y="398" width="217" height="218" xlink:href="img/10.jpg"/>
<image preserveAspectRatio="none" x="183" y="398" width="217" height="218" xlink:href="img/11.jpg"/>
<image preserveAspectRatio="none" x="400" y="398" width="218" height="218" xlink:href="img/12.jpg"/>
<image clip-path="url(#c8_18)" preserveAspectRatio="none" x="617" y="398" width="218" height="218" xlink:href="img/13.jpg"/>
<image clip-path="url(#c9_18)" preserveAspectRatio="none" x="834" y="453" width="109" height="488" xlink:href="img/14.jpg"/>
<image clip-path="url(#ca_18)" preserveAspectRatio="none" x="-34" y="615" width="217" height="218" xlink:href="img/15.jpg"/>
<image preserveAspectRatio="none" x="183" y="615" width="217" height="218" xlink:href="img/16.jpg"/>
<image preserveAspectRatio="none" x="400" y="615" width="218" height="218" xlink:href="img/17.jpg"/>
<image clip-path="url(#cb_18)" preserveAspectRatio="none" x="617" y="615" width="218" height="218" xlink:href="img/18.jpg"/>
<image clip-path="url(#cc_18)" preserveAspectRatio="none" x="-34" y="832" width="217" height="218" xlink:href="img/19.jpg"/>
<image preserveAspectRatio="none" x="183" y="832" width="217" height="218" xlink:href="img/20.jpg"/>
<image preserveAspectRatio="none" x="400" y="832" width="218" height="218" xlink:href="img/21.jpg"/>
<image clip-path="url(#cd_18)" preserveAspectRatio="none" x="617" y="832" width="218" height="218" xlink:href="img/22.jpg"/>
<image clip-path="url(#ce_18)" preserveAspectRatio="none" x="834" y="941" width="109" height="380" xlink:href="img/23.jpg"/>
<image clip-path="url(#cf_18)" preserveAspectRatio="none" x="-34" y="1049" width="217" height="218" xlink:href="img/24.jpg"/>
<image preserveAspectRatio="none" x="183" y="1049" width="217" height="218" xlink:href="img/25.jpg"/>
<image preserveAspectRatio="none" x="400" y="1049" width="218" height="218" xlink:href="img/26.jpg"/>
<image clip-path="url(#cg_18)" preserveAspectRatio="none" x="617" y="1049" width="218" height="218" xlink:href="img/27.jpg"/>
<image clip-path="url(#ch_18)" preserveAspectRatio="none" x="-34" y="1266" width="869" height="55" xlink:href="img/28.jpg"/>
</svg>