<?xml version="1.0" encoding="UTF-8" standalone="no"?>
<!DOCTYPE svg PUBLIC "-//W3C//DTD SVG 1.1//EN"
"http://www.w3.org/Graphics/SVG/1.1/DTD/svg11.dtd">
<svg viewBox="0 0 912 1290" version="1.1" xmlns="http://www.w3.org/2000/svg" xmlns:xlink="http://www.w3.org/1999/xlink">
<defs>
</defs>
<image preserveAspectRatio="none" x="-31" y="-33" width="975" height="1353" xlink:href="img/1.jpg"/>
<image preserveAspectRatio="none" x="-31" y="-33" width="975" height="1353" xlink:href="img/2.png"/>
<image preserveAspectRatio="none" x="748" y="211" width="122" height="123" xlink:href="img/3.jpg"/>
<image preserveAspectRatio="none" x="397" y="233" width="94" height="36" xlink:href="img/4.jpg"/>
<image preserveAspectRatio="none" x="616" y="307" width="84" height="84" xlink:href="img/5.jpg"/>
<image preserveAspectRatio="none" x="836" y="553" width="33" height="32" xlink:href="img/6.jpg"/>
<image preserveAspectRatio="none" x="841" y="613" width="31" height="64" xlink:href="img/7.jpg"/>
<image preserveAspectRatio="none" x="550" y="768" width="15" height="163" xlink:href="img/8.jpg"/>
<image preserveAspectRatio="none" x="216" y="913" width="136" height="91" xlink:href="img/9.jpg"/>
<image preserveAspectRatio="none" x="403" y="944" width="61" height="48" xlink:href="img/10.jpg"/>
<image preserveAspectRatio="none" x="535" y="944" width="30" height="46" xlink:href="img/11.jpg"/>
<image preserveAspectRatio="none" x="386" y="949" width="15" height="41" xlink:href="img/12.jpg"/>
<image preserveAspectRatio="none" x="496" y="964" width="17" height="24" xlink:href="img/13.jpg"/>
<image preserveAspectRatio="none" x="419" y="1207" width="113" height="40" xlink:href="img/14.jpg"/>
<image preserveAspectRatio="none" x="386" y="769" width="158" height="148" xlink:href="img/15.jpg"/>
<image x="162" y="19" width="16" height="27" xlink:href="shade/1.png"/>
<image x="182" y="19" width="22" height="27" xlink:href="shade/2.png"/>
<image x="208" y="19" width="18" height="27" xlink:href="shade/3.png"/>
<image x="229" y="19" width="21" height="27" xlink:href="shade/4.png"/>
<image x="263" y="19" width="18" height="27" xlink:href="shade/5.png"/>
<image x="285" y="19" width="19" height="27" xlink:href="shade/6.png"/>
<image x="320" y="19" width="16" height="27" xlink:href="shade/7.png"/>
<image x="340" y="19" width="16" height="27" xlink:href="shade/8.png"/>
<image x="360" y="19" width="22" height="27" xlink:href="shade/9.png"/>
<image x="386" y="19" width="20" height="27" xlink:href="shade/10.png"/>
<image x="410" y="19" width="19" height="27" xlink:href="shade/11.png"/>
<image x="162" y="19" width="16" height="27" xlink:href="shade/12.png"/>
<image x="182" y="19" width="22" height="27" xlink:href="shade/13.png"/>
<image x="208" y="19" width="18" height="27" xlink:href="shade/14.png"/>
<image x="229" y="19" width="21" height="27" xlink:href="shade/15.png"/>
<image x="263" y="19" width="18" height="27" xlink:href="shade/16.png"/>
<image x="285" y="19" width="19" height="27" xlink:href="shade/17.png"/>
<image x="320" y="19" width="16" height="27" xlink:href="shade/18.png"/>
<image x="340" y="19" width="16" height="27" xlink:href="shade/19.png"/>
<image x="360" y="19" width="22" height="27" xlink:href="shade/20.png"/>
<image x="386" y="19" width="20" height="27" xlink:href="shade/21.png"/>
<image x="410" y="19" width="19" height="27" xlink:href="shade/22.png"/>
<image x="340" y="19" width="16" height="27" xlink:href="shade/23.png"/>
<image x="360" y="19" width="22" height="27" xlink:href="shade/24.png"/>
<image x="360" y="19" width="22" height="27" xlink:href="shade/25.png"/>
<image x="386" y="19" width="20" height="27" xlink:href="shade/26.png"/>
<image x="386" y="19" width="20" height="27" xlink:href="shade/27.png"/>
<image x="410" y="19" width="19" height="27" xlink:href="shade/28.png"/>
<image x="410" y="19" width="19" height="27" xlink:href="shade/29.png"/>
<image x="360" y="19" width="22" height="27" xlink:href="shade/30.png"/>
<image x="410" y="19" width="19" height="27" xlink:href="shade/31.png"/>
<image x="162" y="19" width="16" height="27" xlink:href="shade/32.png"/>
<image x="182" y="19" width="22" height="27" xlink:href="shade/33.png"/>
<image x="182" y="19" width="22" height="27" xlink:href="shade/34.png"/>
<image x="208" y="19" width="18" height="27" xlink:href="shade/35.png"/>
<image x="229" y="19" width="21" height="27" xlink:href="shade/36.png"/>
<image x="263" y="19" width="18" height="27" xlink:href="shade/37.png"/>
<image x="285" y="19" width="19" height="27" xlink:href="shade/38.png"/>
<image x="320" y="19" width="16" height="27" xlink:href="shade/39.png"/>
<image x="320" y="19" width="16" height="27" xlink:href="shade/40.png"/>
<image x="340" y="19" width="16" height="27" xlink:href="shade/41.png"/>
<image x="182" y="19" width="22" height="27" xlink:href="shade/42.png"/>
<image x="229" y="19" width="21" height="27" xlink:href="shade/43.png"/>
<image x="263" y="19" width="18" height="27" xlink:href="shade/44.png"/>
<image x="320" y="19" width="16" height="27" xlink:href="shade/45.png"/>
</svg>