<?xml version="1.0" encoding="UTF-8" standalone="no"?>
<!DOCTYPE svg PUBLIC "-//W3C//DTD SVG 1.1//EN"
"http://www.w3.org/Graphics/SVG/1.1/DTD/svg11.dtd">
<svg viewBox="0 0 909 1286" version="1.1" xmlns="http://www.w3.org/2000/svg" xmlns:xlink="http://www.w3.org/1999/xlink">
<defs>
<style type="text/css"><![CDATA[
.g0_4{
fill: none;
stroke: #000000;
stroke-width: 0.916;
stroke-linecap: butt;
stroke-linejoin: miter;
stroke-miterlimit: 4;
}
]]></style>
</defs>
<image preserveAspectRatio="none" x="-21" y="-21" width="932" height="1329" xlink:href="../1/img/1.webp"/>
<image preserveAspectRatio="none" x="102" y="26" width="706" height="52" xlink:href="img/2.webp"/>
<path d="M43.3,748.6H866.1" class="g0_4"/>
<image preserveAspectRatio="none" x="21" y="779" width="871" height="290" xlink:href="img/3.webp"/>
<image preserveAspectRatio="none" x="23" y="780" width="863" height="280" xlink:href="img/4.webp"/>
<image preserveAspectRatio="none" x="442" y="797" width="432" height="251" xlink:href="img/5.webp"/>
<image preserveAspectRatio="none" x="442" y="797" width="427" height="244" xlink:href="img/6.webp"/>
<image preserveAspectRatio="none" x="484" y="898" width="77" height="104" xlink:href="img/7.webp"/>
<image preserveAspectRatio="none" x="484" y="909" width="60" height="59" xlink:href="img/8.webp"/>
<image preserveAspectRatio="none" x="486" y="910" width="51" height="51" xlink:href="img/9.webp"/>
<image preserveAspectRatio="none" x="35" y="417" width="836" height="252" xlink:href="img/10.webp"/>
<image preserveAspectRatio="none" x="36" y="417" width="829" height="245" xlink:href="img/11.webp"/>
<image preserveAspectRatio="none" x="379" y="497" width="146" height="141" xlink:href="img/12.webp"/>
<image preserveAspectRatio="none" x="60" y="497" width="295" height="141" xlink:href="img/13.webp"/>
<image preserveAspectRatio="none" x="548" y="497" width="295" height="141" xlink:href="img/14.webp"/>
<image preserveAspectRatio="none" x="509" y="431" width="54" height="53" xlink:href="img/15.webp"/>
<image preserveAspectRatio="none" x="93" y="524" width="48" height="44" xlink:href="img/16.webp"/>
<image preserveAspectRatio="none" x="90" y="515" width="52" height="54" xlink:href="img/17.webp"/>
<image preserveAspectRatio="none" x="134" y="564" width="45" height="44" xlink:href="img/18.webp"/>
<image preserveAspectRatio="none" x="127" y="556" width="54" height="55" xlink:href="img/19.webp"/>
<image preserveAspectRatio="none" x="217" y="530" width="47" height="47" xlink:href="img/20.webp"/>
<image preserveAspectRatio="none" x="212" y="527" width="51" height="48" xlink:href="img/21.webp"/>
<image preserveAspectRatio="none" x="759" y="518" width="51" height="46" xlink:href="img/22.webp"/>
<image preserveAspectRatio="none" x="761" y="518" width="43" height="39" xlink:href="img/23.webp"/>
<image preserveAspectRatio="none" x="182" y="573" width="46" height="43" xlink:href="img/24.webp"/>
<image preserveAspectRatio="none" x="178" y="564" width="52" height="54" xlink:href="img/25.webp"/>
<image preserveAspectRatio="none" x="156" y="525" width="44" height="46" xlink:href="img/26.webp"/>
<image preserveAspectRatio="none" x="150" y="517" width="54" height="52" xlink:href="img/27.webp"/>
<image preserveAspectRatio="none" x="761" y="565" width="49" height="46" xlink:href="img/28.webp"/>
<image preserveAspectRatio="none" x="760" y="564" width="46" height="41" xlink:href="img/29.webp"/>
<image preserveAspectRatio="none" x="798" y="586" width="47" height="46" xlink:href="img/30.webp"/>
<image preserveAspectRatio="none" x="793" y="579" width="51" height="53" xlink:href="img/31.webp"/>
<image preserveAspectRatio="none" x="21" y="403" width="871" height="280" xlink:href="img/32.webp"/>
<image preserveAspectRatio="none" x="23" y="402" width="863" height="273" xlink:href="img/33.webp"/>
<image preserveAspectRatio="none" x="296" y="531" width="407" height="153" xlink:href="img/34.webp"/>
<image preserveAspectRatio="none" x="297" y="533" width="399" height="143" xlink:href="img/35.webp"/>
<image preserveAspectRatio="none" x="602" y="585" width="47" height="44" xlink:href="img/36.webp"/>
<image preserveAspectRatio="none" x="599" y="577" width="52" height="54" xlink:href="img/37.webp"/>
<image preserveAspectRatio="none" x="576" y="619" width="46" height="47" xlink:href="img/38.webp"/>
<image preserveAspectRatio="none" x="569" y="611" width="54" height="53" xlink:href="img/39.webp"/>
<image preserveAspectRatio="none" x="576" y="550" width="46" height="47" xlink:href="img/40.webp"/>
<image preserveAspectRatio="none" x="569" y="543" width="55" height="53" xlink:href="img/41.webp"/>
<image preserveAspectRatio="none" x="633" y="551" width="44" height="46" xlink:href="img/42.webp"/>
<image preserveAspectRatio="none" x="625" y="545" width="54" height="53" xlink:href="img/43.webp"/>
<image preserveAspectRatio="none" x="634" y="612" width="49" height="46" xlink:href="img/44.webp"/>
<image preserveAspectRatio="none" x="633" y="611" width="46" height="42" xlink:href="img/45.webp"/>
<path d="M43.3,286.5H866.1M43.3,1114.1H866.1" class="g0_4"/>
</svg>