<?xml version="1.0" encoding="UTF-8" standalone="no"?>
<!DOCTYPE svg PUBLIC "-//W3C//DTD SVG 1.1//EN"
"http://www.w3.org/Graphics/SVG/1.1/DTD/svg11.dtd">
<svg viewBox="0 0 909 1286" version="1.1" xmlns="http://www.w3.org/2000/svg" xmlns:xlink="http://www.w3.org/1999/xlink">
<defs>
<clipPath id="c0_14"><path d="M0,322.2V.3H428.3V322.2Z"/></clipPath>
<clipPath id="c1_14"><path d="M427.4,322.2V.3H856.5V322.2Z"/></clipPath>
<clipPath id="c2_14"><path d="M855.6,1286V.3H909V1286Z"/></clipPath>
<clipPath id="c3_14"><path d="M0,643.6V321.3H428.3V643.6Z"/></clipPath>
<clipPath id="c4_14"><path d="M427.5,643.5V321.4H856.4V643.5Z"/></clipPath>
<clipPath id="c5_14"><path d="M0,965.4V642.7H428.3V965.4Z"/></clipPath>
<clipPath id="c6_14"><path d="M427.5,965.2V642.8H856.4V965.2Z"/></clipPath>
<clipPath id="c7_14"><path d="M0,1286V964.5H428.3V1286Z"/></clipPath>
<clipPath id="c8_14"><path d="M427.4,1286V964.5H856.5V1286Z"/></clipPath>
</defs>
<image clip-path="url(#c0_14)" preserveAspectRatio="none" x="0" y="0" width="428" height="322" xlink:href="img/1.jpg"/>
<image clip-path="url(#c1_14)" preserveAspectRatio="none" x="427" y="0" width="430" height="322" xlink:href="img/2.jpg"/>
<image clip-path="url(#c2_14)" preserveAspectRatio="none" x="856" y="0" width="54" height="1287" xlink:href="img/3.jpg"/>
<image clip-path="url(#c3_14)" preserveAspectRatio="none" x="0" y="321" width="428" height="323" xlink:href="img/4.jpg"/>
<image clip-path="url(#c4_14)" preserveAspectRatio="none" x="427" y="321" width="430" height="323" xlink:href="img/5.jpg"/>
<image clip-path="url(#c5_14)" preserveAspectRatio="none" x="0" y="643" width="428" height="322" xlink:href="img/6.jpg"/>
<image clip-path="url(#c6_14)" preserveAspectRatio="none" x="427" y="643" width="430" height="322" xlink:href="img/7.jpg"/>
<image clip-path="url(#c7_14)" preserveAspectRatio="none" x="0" y="964" width="428" height="323" xlink:href="img/8.jpg"/>
<image clip-path="url(#c8_14)" preserveAspectRatio="none" x="427" y="964" width="430" height="323" xlink:href="img/9.jpg"/>
</svg>