<?xml version="1.0" encoding="UTF-8" standalone="no"?>
<!DOCTYPE svg PUBLIC "-//W3C//DTD SVG 1.1//EN"
"http://www.w3.org/Graphics/SVG/1.1/DTD/svg11.dtd">
<svg viewBox="0 0 907 1284" version="1.1" xmlns="http://www.w3.org/2000/svg" xmlns:xlink="http://www.w3.org/1999/xlink">
<defs>
<clipPath id="c0_7"><path d="M245.2,965.2V943.7H167.3v21.5ZM0,1284.4v-17.5H427.4V1098H0V0H907.6V43.5H480.8V420.2H907.6V463H468.3v710.2H907.6v111.2Z"/></clipPath>
<clipPath id="c1_7"><path d="M167.3,965.2V943.7h26v21.5Z"/></clipPath>
<clipPath id="c2_7"><path d="M167.3,943.7v0h26Z"/></clipPath>
<clipPath id="c3_7"><path d="M193.3,965.2V943.7h25.9v21.5Z"/></clipPath>
<clipPath id="c4_7"><path d="M193.3,943.7v0h25.9Z"/></clipPath>
<clipPath id="c5_7"><path d="M219.2,965.2V943.7h26v21.5Z"/></clipPath>
<clipPath id="c6_7"><path d="M219.2,943.7v0h26Z"/></clipPath>
<clipPath id="c7_7"><path d="M468.3,627V463H713.1V627Z"/></clipPath>
<clipPath id="c8_7"><path d="M712.7,627V463H907.6V627Z"/></clipPath>
<clipPath id="c9_7"><path d="M468.3,790.9V626.6H713.1V790.9Z"/></clipPath>
<clipPath id="ca_7"><path d="M712.7,790.9V626.6H907.6V790.9Z"/></clipPath>
<clipPath id="cb_7"><path d="M468.3,955V790.5H713.1V955Z"/></clipPath>
<clipPath id="cc_7"><path d="M712.7,955V790.5H907.6V955Z"/></clipPath>
<clipPath id="cd_7"><path d="M468.3,1119V954.7H713.1V1119Z"/></clipPath>
<clipPath id="ce_7"><path d="M712.7,1119V954.7H907.6V1119Z"/></clipPath>
<clipPath id="cf_7"><path d="M468.3,1173.2v-54.6H907.6v54.6Z"/></clipPath>
<clipPath id="cg_7"><path d="M480.8,367.2V43.5H907.6V367.2Z"/></clipPath>
<clipPath id="ch_7"><path d="M480.8,420.2V366.5H907.6v53.7Z"/></clipPath>
<clipPath id="ci_7"><path d="M35.8,1266.3v-12.6H23.3v12.6ZM0,1266.9V1098H272v168.9Z"/></clipPath>
<clipPath id="cj_7"><path d="M271.6,1266.9V1098H427.4v168.9Z"/></clipPath>
<clipPath id="ck_7"><path d="M23.3,1266.3v-12.6H35.8v12.6Z"/></clipPath>
<clipPath id="cl_7"><path d="M32,1265.4c.3,0,.7,-.1,1.2,-.3c0,0,.1,-.3,.2,-.7c.1,-.3,.1,-.6,.1,-.7c0,-.1,0,-.2,-.1,-.4c.1,-.5,0,-1.9,-.2,-4.2c-.3,-2.1,-.5,-3.6,-.7,-4.2c0,-.2,-.1,-.2,-.3,-.2c-.2,0,-.5,0,-.9,.2c-.5,.2,-.8,.3,-.7,.5c-.1,1.5,-.2,2.6,-.2,3.4c0,.9,.1,2.1,.4,3.7c.4,2,.8,2.9,1.2,2.9Zm-1,.9c-.1,0,-.2,-.1,-.4,-.2c-.1,-.2,-.3,-.3,-.5,-.3H30c0,0,-.1,0,-.1,0c-.1,0,-.2,0,-.3,-.2c-.4,-.6,-.7,-1.6,-.9,-2.7c-.1,-1.1,-.2,-2.1,-.2,-3c0,-.7,0,-1.7,.2,-2.7c.1,-1.3,.2,-2.3,.5,-2.8h.2c.2,0,.3,0,.3,.1l.2,.2h.2c1.1,-.5,2,-.8,2.8,-.8H33c.3,0,.6,0,.9,.1l.2,.2c.1,.1,.1,.2,.2,.2c0,0,0,-.1,.1,-.1q.1,0,.2,.1q0,-.1,0,-.1c.1,0,.1,.1,.2,.1c0,0,0,.1,.1,.2c0,0,0,.2,0,.6c.5,2.4,.7,4.4,.8,6.1c0,.3,-.1,.8,-.2,1.6c-.1,.7,-.1,1.2,-.1,1.6v.1c-.1,.3,-.2,.5,-.2,.7l-.3,.1c-.2,-.1,-.4,-.2,-.4,-.2c-1.7,.7,-2.9,1.1,-3.5,1.1Zm-4,-.2l-.2,-.1l-.1,-.3c0,0,0,-.1,.1,-.2c0,-.1,-.1,-.2,0,-.2l-.1,-.3h-.3c-.1,0,-.2,.1,-.2,.3c-.1,.2,-.2,.3,-.4,.3c-.2,0,-.3,-.1,-.3,-.3c0,-.3,0,-.6,-.1,-1c-.2,-.4,-.3,-.7,-.2,-.9c0,0,-.1,-.5,0,-1.5c0,-.3,0,-1.4,0,-3.4c0,-1.4,0,-2.5,0,-3.4l-.1,-.2h-.3c-.6,.3,-1,.5,-1.3,.7l-.2,-.1v-.4c.2,-.3,.6,-.6,1.4,-.8c.9,-.4,1.5,-.6,1.9,-.6q.1,0,.2,.2l.2,.1l.5,-.2c.2,0,.2,.1,.3,.3c0,3,-.2,6.9,-.5,11.8l-.1,.2H27Z"/></clipPath>
<clipPath id="cm_7"><path d="M0,1284.4V0H907.6V1284.4Z"/></clipPath>
<style type="text/css"><![CDATA[
.g0_7{
fill: none;
stroke: #231916;
stroke-width: 0.763;
stroke-linecap: butt;
stroke-linejoin: miter;
}
.g1_7{
fill: none;
stroke: #231916;
stroke-width: 1.527;
stroke-linecap: butt;
stroke-linejoin: miter;
}
.g2_7{
fill: none;
stroke: #FFFFFF;
stroke-width: 1.145;
stroke-linecap: butt;
stroke-linejoin: miter;
}
.g3_7{
fill: none;
stroke: #FFFFFF;
stroke-width: 1.909;
stroke-linecap: butt;
stroke-linejoin: miter;
}
.g4_7{
fill: none;
stroke: #000000;
stroke-width: 0.381;
stroke-linecap: butt;
stroke-linejoin: miter;
}
]]></style>
</defs>
<image clip-path="url(#c0_7)" preserveAspectRatio="none" x="-22" y="-22" width="931" height="1329" xlink:href="img/1.jpg"/>
<image clip-path="url(#c1_7)" preserveAspectRatio="none" x="167" y="944" width="26" height="22" xlink:href="img/2.jpg"/>
<image clip-path="url(#c2_7)" preserveAspectRatio="none" x="167" y="943" width="26" height="1" xlink:href="img/3.jpg"/>
<image clip-path="url(#c3_7)" preserveAspectRatio="none" x="193" y="944" width="26" height="22" xlink:href="img/4.jpg"/>
<image clip-path="url(#c4_7)" preserveAspectRatio="none" x="193" y="943" width="26" height="1" xlink:href="img/5.jpg"/>
<image clip-path="url(#c5_7)" preserveAspectRatio="none" x="219" y="944" width="26" height="22" xlink:href="img/6.jpg"/>
<image clip-path="url(#c6_7)" preserveAspectRatio="none" x="219" y="943" width="26" height="1" xlink:href="img/7.jpg"/>
<image clip-path="url(#c7_7)" preserveAspectRatio="none" x="468" y="463" width="245" height="164" xlink:href="img/8.jpg"/>
<image clip-path="url(#c8_7)" preserveAspectRatio="none" x="713" y="463" width="196" height="164" xlink:href="img/9.jpg"/>
<image clip-path="url(#c9_7)" preserveAspectRatio="none" x="468" y="627" width="245" height="164" xlink:href="img/10.jpg"/>
<image clip-path="url(#ca_7)" preserveAspectRatio="none" x="713" y="627" width="196" height="164" xlink:href="img/11.jpg"/>
<image clip-path="url(#cb_7)" preserveAspectRatio="none" x="468" y="791" width="245" height="164" xlink:href="img/12.jpg"/>
<image clip-path="url(#cc_7)" preserveAspectRatio="none" x="713" y="791" width="196" height="164" xlink:href="img/13.jpg"/>
<image clip-path="url(#cd_7)" preserveAspectRatio="none" x="468" y="955" width="245" height="164" xlink:href="img/14.jpg"/>
<image clip-path="url(#ce_7)" preserveAspectRatio="none" x="713" y="955" width="196" height="164" xlink:href="img/15.jpg"/>
<image clip-path="url(#cf_7)" preserveAspectRatio="none" x="468" y="1119" width="441" height="55" xlink:href="img/16.jpg"/>
<path d="M480.2,566.9H838.6" class="g0_7"/>
<path d="M480.2,566.8H838.6" class="g1_7"/>
<path d="M480.2,766.6H838.6" class="g0_7"/>
<path d="M480.2,766.5H675.9" class="g1_7"/>
<image clip-path="url(#cg_7)" preserveAspectRatio="none" x="480" y="43" width="429" height="324" xlink:href="img/17.jpg"/>
<image clip-path="url(#ch_7)" preserveAspectRatio="none" x="480" y="366" width="429" height="55" xlink:href="img/18.jpg"/>
<path d="M507.9,89.3H842.5" class="g2_7"/>
<image clip-path="url(#ci_7)" preserveAspectRatio="none" x="0" y="1097" width="272" height="170" xlink:href="img/19.jpg"/>
<image clip-path="url(#cj_7)" preserveAspectRatio="none" x="272" y="1097" width="156" height="170" xlink:href="img/20.jpg"/>
<image clip-path="url(#ck_7)" preserveAspectRatio="none" x="23" y="1253" width="13" height="14" xlink:href="img/21.jpg"/>
<image clip-path="url(#cl_7)" preserveAspectRatio="none" x="23" y="1253" width="13" height="14" xlink:href="img/22.jpg"/>
<path d="M63,1143.2H407.3" class="g2_7"/>
<g clip-path="url(#cm_7)">
<path d="M-10,-.8H-32.9m950.6,0h22.9M-10,1285.3H-32.9m950.6,0h22.9M-.8,-10V-32.9m0,1327.4v22.9M908.5,-10V-32.9m0,1327.4v22.9" class="g3_7"/>
<path d="M-10,-.8H-32.9m950.6,0h22.9M-10,1285.3H-32.9m950.6,0h22.9M-.8,-10V-32.9m0,1327.4v22.9M908.5,-10V-32.9m0,1327.4v22.9" class="g4_7"/>
</g>
</svg>