<?xml version="1.0" standalone="no"?>
<!DOCTYPE svg PUBLIC "-//W3C//DTD SVG 20010904//EN"
 "http://www.w3.org/TR/2001/REC-SVG-20010904/DTD/svg10.dtd">
<svg version="1.0" xmlns="http://www.w3.org/2000/svg"
 width="260.000000pt" height="260.000000pt" viewBox="0 0 260.000000 260.000000"
 preserveAspectRatio="xMidYMid meet">
<metadata>
Created by potrace 1.11, written by Peter Selinger 2001-2013
</metadata>
<g transform="translate(0.000000,260.000000) scale(0.100000,-0.100000)"
fill="#000000" stroke="none">
<path d="M117 2275 c26 -22 60 -52 75 -67 16 -14 28 -24 28 -22 0 3 11 -5 24
-18 13 -13 41 -37 62 -55 43 -34 62 -50 143 -121 30 -26 68 -57 85 -70 28 -21
65 -92 48 -92 -9 0 -7 -214 2 -229 4 -6 3 -11 -1 -11 -10 0 -8 -213 1 -229 4
-6 3 -11 -1 -11 -10 0 -8 -213 1 -229 4 -6 3 -11 -1 -11 -10 0 -8 -213 1 -229
4 -6 3 -11 -1 -11 -10 0 -9 -173 1 -189 4 -6 3 -11 -2 -11 -11 0 -9 -50 2 -68
4 -7 3 -12 -2 -12 -11 0 -9 -50 2 -68 4 -7 3 -12 -2 -12 -11 0 -9 -50 1 -68 4
-5 2 -12 -4 -14 -5 -2 -7 -11 -4 -20 6 -15 57 -16 631 -15 343 1 624 -2 624
-6 0 -5 4 -6 9 -3 5 3 9 -14 9 -39 1 -24 -3 -47 -9 -51 -6 -4 -4 -15 6 -31 10
-14 13 -23 7 -19 -6 3 -8 -2 -5 -13 3 -13 11 -17 24 -14 11 3 19 0 19 -6 0 -8
5 -9 19 -2 15 8 20 7 25 -5 5 -13 9 -14 21 -4 10 8 15 9 15 2 0 -7 7 -9 17 -5
11 4 14 3 9 -5 -5 -8 -2 -10 9 -6 8 4 23 0 32 -7 12 -10 15 -10 9 -1 -4 7 -2
12 8 12 8 0 18 -5 21 -10 5 -8 11 -7 21 1 8 6 14 7 14 2 0 -5 14 -10 32 -11
17 -2 38 -8 47 -15 11 -9 13 -9 8 0 -5 8 -1 11 12 10 11 0 18 -4 15 -8 -2 -4
12 -6 31 -6 24 1 34 5 31 14 -3 6 1 10 7 7 7 -2 23 5 35 16 12 11 22 18 22 15
0 -3 6 0 14 7 8 7 11 18 8 23 -3 6 3 3 13 -5 11 -9 16 -10 11 -2 -7 11 5 17
28 13 5 -1 6 5 2 14 -3 9 -2 14 3 10 5 -3 16 8 24 25 9 16 12 32 8 35 -4 2 -8
105 -8 229 -1 124 -4 230 -8 235 -3 6 0 11 7 11 10 0 10 2 -1 9 -11 7 -11 9 0
14 8 3 9 6 4 6 -6 1 -9 21 -6 47 2 32 -1 49 -10 55 -10 6 -11 9 -1 9 15 0 17
66 2 75 -6 4 -7 12 -3 18 13 21 14 49 1 65 -10 12 -10 14 -1 8 9 -5 11 -2 7 8
-3 9 -11 16 -18 16 -6 0 -18 9 -26 19 -7 11 -17 18 -22 15 -4 -3 -8 0 -8 6 0
6 -4 9 -8 6 -5 -3 -15 4 -22 15 -8 10 -19 19 -25 19 -5 0 -23 11 -39 25 -16
14 -33 25 -37 25 -4 0 -20 11 -34 25 -14 14 -25 22 -25 18 0 -4 -7 0 -14 10
-8 10 -18 19 -23 20 -4 1 -7 5 -5 10 4 14 -23 2 -36 -15 -18 -25 -25 -23 -92
22 -32 22 -64 40 -69 40 -23 0 -9 16 34 39 42 22 60 35 110 80 28 25 55 60 55
70 0 5 7 14 15 21 8 7 12 16 9 21 -3 5 -1 9 4 9 17 0 43 131 41 204 -1 39 -8
94 -16 121 -7 28 -15 59 -18 70 -3 11 -9 21 -15 23 -5 2 -10 10 -10 18 0 8 -4
14 -10 14 -5 0 -10 5 -10 11 0 6 -20 31 -45 56 -25 24 -45 42 -45 39 0 -3 -12
6 -26 19 -15 14 -30 23 -34 20 -4 -3 -13 2 -20 10 -7 8 -16 15 -21 15 -4 0
-20 5 -36 12 -15 6 -31 11 -35 10 -5 -1 -8 3 -8 10 0 6 -2 9 -6 6 -3 -3 -22
-1 -42 4 -20 5 -50 11 -67 14 -16 3 -400 6 -853 8 l-823 2 48 -41z m1371 -399
c7 -4 12 -2 12 4 0 8 6 8 20 0 11 -6 20 -8 20 -4 0 3 7 1 15 -6 8 -7 15 -9 15
-6 0 4 18 -3 39 -15 41 -23 71 -73 76 -127 4 -52 -35 -113 -91 -142 -47 -24
-56 -25 -270 -28 -213 -4 -221 -3 -226 16 -3 11 -2 26 3 33 4 7 5 18 1 24 -9
14 -9 36 0 63 4 12 4 22 -1 22 -9 0 -8 31 3 48 4 7 2 12 -4 12 -7 0 -8 6 -1
19 6 10 7 21 4 25 -10 10 -12 36 -3 36 4 0 6 8 3 18 -4 17 8 18 184 17 104 -1
194 -4 201 -9z m118 -709 c62 -15 138 -62 128 -79 -3 -4 -1 -8 4 -8 9 0 23
-45 26 -85 2 -20 0 -24 -25 -79 -15 -32 -84 -80 -104 -72 -7 2 -18 -1 -24 -7
-8 -8 -89 -12 -260 -13 -237 -2 -250 -1 -254 17 -3 11 -1 16 5 13 6 -4 6 1 -1
13 -7 14 -7 23 1 31 7 7 8 12 2 12 -10 0 -11 121 0 138 3 6 2 13 -2 16 -10 6
-8 48 2 65 4 5 2 13 -4 16 -7 5 -8 11 -1 19 7 9 73 11 248 10 131 -1 247 -4
259 -7z"/>
</g>
</svg>
