<?xml version="1.0" encoding="UTF-8" standalone="no"?>
<!DOCTYPE svg PUBLIC "-//W3C//DTD SVG 1.1//EN"
"http://www.w3.org/Graphics/SVG/1.1/DTD/svg11.dtd">
<svg viewBox="0 0 908 1285" version="1.1" xmlns="http://www.w3.org/2000/svg" xmlns:xlink="http://www.w3.org/1999/xlink">
<defs>
<clipPath id="c0_16"><path d="M-32.8,183.6V-32.7H183.7V183.6Z"/></clipPath>
<clipPath id="c1_16"><path d="M183.2,183.6V-32.7H400.4V183.6Z"/></clipPath>
<clipPath id="c2_16"><path d="M399.8,183.6V-32.7H617V183.6Z"/></clipPath>
<clipPath id="c3_16"><path d="M616.5,183.6V-32.7H833.6V183.6Z"/></clipPath>
<clipPath id="c4_16"><path d="M833.1,453.8V-32.7H941.5V453.8Z"/></clipPath>
<clipPath id="c5_16"><path d="M-32.8,399.7V183.1H183.7V399.7Z"/></clipPath>
<clipPath id="c6_16"><path d="M-32.8,616.1V399.2H183.7V616.1Z"/></clipPath>
<clipPath id="c7_16"><path d="M833.1,940.3v-487H941.5v487Z"/></clipPath>
<clipPath id="c8_16"><path d="M-32.8,832.2V615.5H183.7V832.2Z"/></clipPath>
<clipPath id="c9_16"><path d="M-32.8,1048.5V831.6H183.7v216.9Z"/></clipPath>
<clipPath id="ca_16"><path d="M833.1,1318.2V939.8H941.5v378.4Z"/></clipPath>
<clipPath id="cb_16"><path d="M-32.8,1264.6V1048H183.7v216.6Z"/></clipPath>
<clipPath id="cc_16"><path d="M-32.8,1318.2v-54.1H833.6v54.1Z"/></clipPath>
</defs>
<image clip-path="url(#c0_16)" preserveAspectRatio="none" x="-32" y="-32" width="216" height="216" xlink:href="img/1.jpg"/>
<image clip-path="url(#c1_16)" preserveAspectRatio="none" x="183" y="-32" width="217" height="216" xlink:href="img/2.jpg"/>
<image clip-path="url(#c2_16)" preserveAspectRatio="none" x="400" y="-32" width="217" height="216" xlink:href="img/3.jpg"/>
<image clip-path="url(#c3_16)" preserveAspectRatio="none" x="616" y="-32" width="218" height="216" xlink:href="img/4.jpg"/>
<image clip-path="url(#c4_16)" preserveAspectRatio="none" x="833" y="-32" width="109" height="486" xlink:href="img/5.jpg"/>
<image clip-path="url(#c5_16)" preserveAspectRatio="none" x="-32" y="183" width="216" height="217" xlink:href="img/6.jpg"/>
<image preserveAspectRatio="none" x="183" y="183" width="217" height="217" xlink:href="img/7.jpg"/>
<image preserveAspectRatio="none" x="400" y="183" width="217" height="217" xlink:href="img/8.jpg"/>
<image preserveAspectRatio="none" x="616" y="183" width="218" height="217" xlink:href="img/9.jpg"/>
<image clip-path="url(#c6_16)" preserveAspectRatio="none" x="-32" y="399" width="216" height="217" xlink:href="img/10.jpg"/>
<image preserveAspectRatio="none" x="183" y="399" width="217" height="217" xlink:href="img/11.jpg"/>
<image preserveAspectRatio="none" x="400" y="399" width="217" height="217" xlink:href="img/12.jpg"/>
<image preserveAspectRatio="none" x="616" y="399" width="218" height="217" xlink:href="img/13.jpg"/>
<image clip-path="url(#c7_16)" preserveAspectRatio="none" x="833" y="453" width="109" height="487" xlink:href="img/14.jpg"/>
<image clip-path="url(#c8_16)" preserveAspectRatio="none" x="-32" y="616" width="216" height="216" xlink:href="img/15.jpg"/>
<image preserveAspectRatio="none" x="183" y="616" width="217" height="216" xlink:href="img/16.jpg"/>
<image preserveAspectRatio="none" x="400" y="616" width="217" height="216" xlink:href="img/17.jpg"/>
<image preserveAspectRatio="none" x="616" y="616" width="218" height="216" xlink:href="img/18.jpg"/>
<image clip-path="url(#c9_16)" preserveAspectRatio="none" x="-32" y="832" width="216" height="217" xlink:href="img/19.jpg"/>
<image preserveAspectRatio="none" x="183" y="832" width="217" height="217" xlink:href="img/20.jpg"/>
<image preserveAspectRatio="none" x="400" y="832" width="217" height="217" xlink:href="img/21.jpg"/>
<image preserveAspectRatio="none" x="616" y="832" width="218" height="217" xlink:href="img/22.jpg"/>
<image clip-path="url(#ca_16)" preserveAspectRatio="none" x="833" y="940" width="109" height="379" xlink:href="img/23.jpg"/>
<image clip-path="url(#cb_16)" preserveAspectRatio="none" x="-32" y="1048" width="216" height="217" xlink:href="img/24.jpg"/>
<image preserveAspectRatio="none" x="183" y="1048" width="217" height="217" xlink:href="img/25.jpg"/>
<image preserveAspectRatio="none" x="400" y="1048" width="217" height="217" xlink:href="img/26.jpg"/>
<image preserveAspectRatio="none" x="616" y="1048" width="218" height="217" xlink:href="img/27.jpg"/>
<image clip-path="url(#cc_16)" preserveAspectRatio="none" x="-32" y="1264" width="866" height="55" xlink:href="img/28.jpg"/>
</svg>