<?xml version="1.0" encoding="UTF-8" standalone="no"?>
<!DOCTYPE svg PUBLIC "-//W3C//DTD SVG 1.1//EN"
"http://www.w3.org/Graphics/SVG/1.1/DTD/svg11.dtd">
<svg viewBox="0 0 909 1286" version="1.1" xmlns="http://www.w3.org/2000/svg" xmlns:xlink="http://www.w3.org/1999/xlink">
<defs>
<clipPath id="c0_6"><path d="M0,322.1V.5H428.1V322.1Z"/></clipPath>
<clipPath id="c1_6"><path d="M427.2,322.1V.5H856.4V322.1Z"/></clipPath>
<clipPath id="c2_6"><path d="M855.4,1285.8V.5H909V1285.8Z"/></clipPath>
<clipPath id="c3_6"><path d="M0,643.8V321.1H428.1V643.8Z"/></clipPath>
<clipPath id="c4_6"><path d="M427.3,643.7V321.2H856.2V643.7Z"/></clipPath>
<clipPath id="c5_6"><path d="M0,965.2V642.9H428.1V965.2Z"/></clipPath>
<clipPath id="c6_6"><path d="M427.3,965V643H856.2V965Z"/></clipPath>
<clipPath id="c7_6"><path d="M0,1285.8V964.3H428.1v321.5Z"/></clipPath>
<clipPath id="c8_6"><path d="M427.2,1285.8V964.3H856.4v321.5Z"/></clipPath>
</defs>
<image clip-path="url(#c0_6)" preserveAspectRatio="none" x="0" y="0" width="428" height="322" xlink:href="img/1.jpg"/>
<image clip-path="url(#c1_6)" preserveAspectRatio="none" x="427" y="0" width="429" height="322" xlink:href="img/2.jpg"/>
<image clip-path="url(#c2_6)" preserveAspectRatio="none" x="855" y="0" width="55" height="1287" xlink:href="img/3.jpg"/>
<image clip-path="url(#c3_6)" preserveAspectRatio="none" x="0" y="321" width="428" height="323" xlink:href="img/4.jpg"/>
<image clip-path="url(#c4_6)" preserveAspectRatio="none" x="427" y="321" width="429" height="323" xlink:href="img/5.jpg"/>
<image clip-path="url(#c5_6)" preserveAspectRatio="none" x="0" y="643" width="428" height="322" xlink:href="img/6.jpg"/>
<image clip-path="url(#c6_6)" preserveAspectRatio="none" x="427" y="643" width="429" height="322" xlink:href="img/7.jpg"/>
<image clip-path="url(#c7_6)" preserveAspectRatio="none" x="0" y="964" width="428" height="323" xlink:href="img/8.jpg"/>
<image clip-path="url(#c8_6)" preserveAspectRatio="none" x="427" y="964" width="429" height="323" xlink:href="img/9.jpg"/>
</svg>