<?xml version="1.0" encoding="UTF-8" standalone="no"?>
<!DOCTYPE svg PUBLIC "-//W3C//DTD SVG 1.1//EN"
"http://www.w3.org/Graphics/SVG/1.1/DTD/svg11.dtd">
<svg viewBox="0 0 909 1286" version="1.1" xmlns="http://www.w3.org/2000/svg" xmlns:xlink="http://www.w3.org/1999/xlink">
<defs>
<clipPath id="c0_9"><path d="M603.1,808.5V616.9H873.7V808.5Z"/></clipPath>
<clipPath id="c1_9"><path d="M784.7,955.3c-4.3,0,-4.3,-4.2,-4.3,-4.3V823.3c0,-4.4,4.3,-4.4,4.3,-4.4H867c4.3,0,4.3,4.4,4.3,4.4V951c0,4.3,-4.3,4.3,-4.3,4.3Z"/></clipPath>
<style type="text/css"><![CDATA[
.g0_9{
fill: none;
stroke: #FFFFFF;
stroke-width: 1.527;
stroke-linecap: butt;
stroke-linejoin: miter;
stroke-miterlimit: 4;
}
.g1_9{
}
.g2_9{
fill: none;
stroke: #000000;
stroke-width: 0.916;
stroke-linecap: butt;
stroke-linejoin: miter;
stroke-miterlimit: 4;
}
.g3_9{
fill: none;
stroke: #FFFFFF;
stroke-width: 1.122;
stroke-linecap: butt;
stroke-linejoin: miter;
stroke-miterlimit: 4;
}
.g4_9{
fill: none;
stroke: #FFFFFF;
stroke-width: 1.179;
stroke-linecap: butt;
stroke-linejoin: miter;
stroke-miterlimit: 4;
}
.g5_9{
fill: none;
stroke: #FFFFFF;
stroke-width: 1.298;
stroke-linecap: butt;
stroke-linejoin: miter;
}
.g6_9{
fill: none;
stroke: #000000;
stroke-width: 0.259;
stroke-linecap: butt;
stroke-linejoin: miter;
}
.g7_9{
fill: none;
stroke: #FFFFFF;
stroke-width: 1.375;
stroke-linecap: butt;
stroke-linejoin: miter;
stroke-miterlimit: 3;
}
.g8_9{
fill: #FFFFFF;
}
.g9_9{
fill: none;
stroke: #FFFFFF;
stroke-width: 0.458;
stroke-linecap: butt;
stroke-linejoin: miter;
stroke-miterlimit: 4;
}
.ga_9{
fill: none;
stroke: #CD071E;
stroke-width: 3.055;
stroke-linecap: butt;
stroke-linejoin: miter;
stroke-miterlimit: 4;
}
.gb_9{
fill: none;
stroke: #FFFFFF;
stroke-width: 0.916;
stroke-linecap: butt;
stroke-linejoin: miter;
stroke-miterlimit: 4;
}
]]></style>
</defs>
<image preserveAspectRatio="none" x="-1" y="-21" width="932" height="1329" xlink:href="../1/img/1.webp"/>
<image preserveAspectRatio="none" x="69" y="397" width="123" height="118" xlink:href="img/2.webp"/>
<image preserveAspectRatio="none" x="148" y="471" width="41" height="41" xlink:href="img/3.webp"/>
<path d="M82.3,467.4l.3,-.3L83,467c.2,0,.3,.1,.4,.1c.2,0,.4,-.1,.5,-.3c.2,-.2,.3,-.3,.5,-.3c.2,0,.3,.1,.5,.3c.2,.2,.4,.3,.5,.3c.6,0,1.5,-.2,2.9,-.5c1.3,-.3,2.3,-.5,2.9,-.5c.4,0,.5,.2,.5,.6c0,.1,0,.3,-.2,.5l-.1,.4c.7,3.3,1,5.2,1,5.9c0,.4,-.1,.5,-.5,.5c0,0,-.2,0,-.4,0c-.2,0,-.3,0,-.4,0c-.1,.1,-.1,.2,-.2,.4l-.4,.4l-.4,-.1l-.3,-.3c-.1,-.3,-.3,-.4,-.5,-.4c-.1,0,-.3,.1,-.5,.2c-.1,.1,-.3,.2,-.4,.2l-.4,-.1l-.2,-.4v-5.5l-.2,-.4l-.5,-.1c-.8,.2,-1.5,.4,-2,.5c-.3,.2,-.6,1.5,-.8,4c-.2,1.9,-.3,3.4,-.3,4.6l.2,.4l.5,.1c2.1,-.3,3.9,-.6,5.6,-.8h1.2c.9,0,1.4,.5,1.4,1.3c0,.3,-.1,.6,-.4,.9c-.3,.2,-.4,.4,-.4,.5c0,.4,.1,1,.2,1.9c.2,.8,.3,1.5,.3,2v1.3c0,.6,0,1,0,1.2c0,3,-.3,4.6,-1,4.6c-.1,0,-.2,-.1,-.4,-.1c-.2,0,-.3,-.1,-.4,-.1c-.1,0,-.3,0,-.7,0c-.6,.2,-1.5,.4,-2.4,.4c-.8,0,-1.8,-.1,-3.2,-.3c-.1,0,-.2,.1,-.4,.1c-.2,.1,-.3,.2,-.3,.2c-.3,0,-.4,-.1,-.6,-.2l-.4,-.2c-.6,0,-.9,-.2,-.9,-.6c0,-.4,-.1,-.7,-.4,-.8c-.1,0,-.4,-.1,-1,-.3c-.1,-.6,-.1,-1.2,-.1,-2V484l.1,-.3l.5,-.2l.4,.2l.2,.4c0,.5,.1,.8,.5,.8c.2,0,.4,-.2,.5,-.6c.1,-.4,.3,-.6,.7,-.6l.3,.2l.2,.4c0,3.1,.2,4.7,.7,4.8c1.2,.2,2.2,.2,2.9,.2h.4l.4,-.2c.1,-.2,.1,-.3,.1,-.4c0,-4.3,-.3,-7.7,-.9,-10c-.1,-.3,-.3,-.4,-.5,-.4c-.7,0,-1.5,.2,-2.5,.5c-.2,.1,-.3,.2,-.4,.6c-.1,.3,-.3,.4,-.6,.4c-.4,-.2,-.7,-.3,-.7,-.3c-.2,0,-.6,.2,-1.2,.6h-.4l-.4,-.3v-.1c0,-.1,-.1,-.1,-.1,-.2l-.1,-.4c-.4,-5.2,-.6,-8.3,-.6,-9.4v-1.9l.1,-.4l.5,-.1l.4,.1l.2,.4c0,.6,.1,.9,.5,.9c.1,0,.2,0,.4,-.1l.2,-.4V468l.1,-.6Z" class="g0_9"/>
<path d="M72,521.1c8.3,0,14.9,-6.7,14.9,-14.9c0,-8.3,-6.6,-15,-14.9,-15c-8.2,0,-14.9,6.7,-14.9,15c0,8.2,6.7,14.9,14.9,14.9Z" class="g1_9"/>
<path d="M72,521.1c8.3,0,14.9,-6.7,14.9,-14.9c0,-8.3,-6.6,-15,-14.9,-15c-8.2,0,-14.9,6.7,-14.9,15c0,8.2,6.7,14.9,14.9,14.9Z" class="g0_9"/>
<path d="M149.1,486.4c8.2,0,14.9,-6.7,14.9,-15c0,-8.2,-6.7,-14.9,-14.9,-14.9c-8.3,0,-15,6.7,-15,14.9c0,8.3,6.7,15,15,15Z" class="g1_9"/>
<path d="M149.1,486.4c8.2,0,14.9,-6.7,14.9,-15c0,-8.2,-6.7,-14.9,-14.9,-14.9c-8.3,0,-15,6.7,-15,14.9c0,8.3,6.7,15,15,15Z" class="g0_9"/>
<path d="M56.3,73.3H439.6M56.3,384.8H439.6" class="g2_9"/>
<path d="M745.5,158.9c6.1,0,11,-4.9,11,-11c0,-6,-4.9,-11,-11,-11c-6,0,-11,5,-11,11c0,6.1,5,11,11,11Z" class="g1_9"/>
<path d="M745.5,158.9c6.1,0,11,-4.9,11,-11c0,-6,-4.9,-11,-11,-11c-6,0,-11,5,-11,11c0,6.1,5,11,11,11Z" class="g3_9"/>
<path d="M708.8,335c6.4,0,11.6,-5.2,11.6,-11.5c0,-6.4,-5.2,-11.6,-11.6,-11.6c-6.3,0,-11.5,5.2,-11.5,11.6c0,6.3,5.2,11.5,11.5,11.5Z" class="g1_9"/>
<path d="M708.8,335c6.4,0,11.6,-5.2,11.6,-11.5c0,-6.4,-5.2,-11.6,-11.6,-11.6c-6.3,0,-11.5,5.2,-11.5,11.6c0,6.3,5.2,11.5,11.5,11.5Z" class="g4_9"/>
<image preserveAspectRatio="none" x="26" y="1151" width="885" height="97" xlink:href="img/4.webp"/>
<image preserveAspectRatio="none" x="26" y="523" width="885" height="75" xlink:href="img/5.webp"/>
<image preserveAspectRatio="none" x="-997" y="-452" width="2060" height="1765" xlink:href="img/6.webp"/>
<image preserveAspectRatio="none" x="770" y="645" width="17" height="17" xlink:href="img/7.webp"/>
<g clip-path="url(#c0_9)">
<path d="M-1004.6,-453.1h-15.6m2089.3,0h15.5M-1004.6,1313.6h-15.6m2089.3,0h15.5M-998.4,-459.3v-15.6m0,1794.8v15.5M1062.8,-459.3v-15.6m0,1794.8v15.5" class="g5_9"/>
<path d="M-1004.6,-453.1h-15.6m2089.3,0h15.5M-1004.6,1313.6h-15.6m2089.3,0h15.5M-998.4,-459.3v-15.6m0,1794.8v15.5M1062.8,-459.3v-15.6m0,1794.8v15.5" class="g6_9"/>
</g>
<image preserveAspectRatio="none" x="20" y="606" width="874" height="544" xlink:href="img/8.webp"/>
<image preserveAspectRatio="none" x="23" y="607" width="864" height="535" xlink:href="img/9.webp"/>
<image preserveAspectRatio="none" x="723" y="690" width="104" height="106" xlink:href="img/10.webp"/>
<image preserveAspectRatio="none" x="692" y="671" width="143" height="143" xlink:href="img/11.webp"/>
<image preserveAspectRatio="none" x="640" y="641" width="93" height="100" xlink:href="img/12.webp"/>
<image preserveAspectRatio="none" x="625" y="621" width="114" height="122" xlink:href="img/13.webp"/>
<image preserveAspectRatio="none" x="135" y="785" width="26" height="26" xlink:href="img/14.webp"/>
<image preserveAspectRatio="none" x="159" y="785" width="26" height="26" xlink:href="img/15.webp"/>
<image preserveAspectRatio="none" x="491" y="864" width="26" height="26" xlink:href="img/16.webp"/>
<image preserveAspectRatio="none" x="493" y="713" width="111" height="107" xlink:href="img/17.webp"/>
<image preserveAspectRatio="none" x="564" y="780" width="37" height="37" xlink:href="img/18.webp"/>
<path d="M514.1,797l-.1,-.4c0,.3,0,-.1,.1,-1.2c0,-.8,0,-1.4,-.1,-1.9c0,-.7,-.2,-1,-.5,-1c-.3,0,-.5,.4,-.5,1.3c-.1,.5,-.1,1,-.1,1.5c0,.8,-.2,1.2,-.6,1.2l-.4,-.2l-.1,-.3c.2,-2.6,.4,-5.1,.5,-7.7l-.2,-.4l-.4,-.1c-1.3,.3,-3,.5,-5.2,.7c-.3,-.1,-.6,-.1,-.7,.1l-.4,.1l-.3,-.1l-.3,-.3c-.3,-3.3,-.5,-5.8,-.5,-7.5c0,-3,.3,-4.4,.9,-4.3c.3,.1,.5,.2,.6,.3l.7,-.3l.4,.2l.1,.3c.4,4.4,.8,7.6,1.1,9.8l.2,.3l.3,.1c1.7,-.2,2.8,-.4,3.4,-.6c.3,-.1,.4,-1.9,.4,-5.5v-3.5c.1,-.5,.2,-.7,.6,-.8c.1,0,.3,-.2,.4,-.4c.1,-.2,.3,-.3,.5,-.3c.2,.1,.3,.2,.4,.4c.2,.1,.3,.1,.4,.2h.5l.4,.1l.1,.4v1.9c0,1.7,0,4.3,-.1,7.7c-.1,3.4,-.1,6,-.1,7.7c-.1,.3,-.2,.5,-.3,.6c0,.3,-.1,.5,-.1,.6c0,1,-.2,1.5,-.6,1.5l-.4,-.2Z" class="g7_9"/>
<image preserveAspectRatio="none" x="239" y="459" width="644" height="381" xlink:href="img/19.webp"/>
<image preserveAspectRatio="none" x="259" y="717" width="604" height="101" xlink:href="img/20.webp"/>
<image preserveAspectRatio="none" x="390" y="730" width="133" height="64" xlink:href="img/21.webp"/>
<image preserveAspectRatio="none" x="394" y="732" width="125" height="57" xlink:href="img/22.webp"/>
<image preserveAspectRatio="none" x="353" y="771" width="43" height="40" xlink:href="img/23.webp"/>
<image preserveAspectRatio="none" x="351" y="764" width="46" height="48" xlink:href="img/24.webp"/>
<image preserveAspectRatio="none" x="380" y="744" width="43" height="41" xlink:href="img/25.webp"/>
<image preserveAspectRatio="none" x="376" y="737" width="46" height="48" xlink:href="img/26.webp"/>
<image preserveAspectRatio="none" x="403" y="1052" width="25" height="26" xlink:href="img/27.webp"/>
<image preserveAspectRatio="none" x="463" y="941" width="78" height="81" xlink:href="img/28.webp"/>
<image preserveAspectRatio="none" x="465" y="942" width="68" height="71" xlink:href="img/29.webp"/>
<image preserveAspectRatio="none" x="270" y="933" width="78" height="80" xlink:href="img/30.webp"/>
<image preserveAspectRatio="none" x="273" y="933" width="68" height="71" xlink:href="img/31.webp"/>
<image preserveAspectRatio="none" x="319" y="958" width="78" height="79" xlink:href="img/32.webp"/>
<image preserveAspectRatio="none" x="322" y="958" width="68" height="72" xlink:href="img/33.webp"/>
<image preserveAspectRatio="none" x="779" y="819" width="95" height="140" xlink:href="img/34.webp"/>
<g clip-path="url(#c1_9)">
<path d="M775.2,962.5H877V810.9H775.2V962.5Z" class="g8_9"/>
</g>
<image preserveAspectRatio="none" x="775" y="812" width="102" height="151" opacity="0.800003" xlink:href="img/35.webp"/>
<image preserveAspectRatio="none" x="770" y="808" width="112" height="158" opacity="0.350006" xlink:href="img/36.webp"/>
<image preserveAspectRatio="none" x="788" y="822" width="76" height="15" xlink:href="img/37.webp"/>
<image preserveAspectRatio="none" x="854" y="933" width="11" height="16" xlink:href="img/38.webp"/>
<image preserveAspectRatio="none" x="787" y="869" width="28" height="27" xlink:href="img/39.webp"/>
<image preserveAspectRatio="none" x="794" y="890" width="33" height="19" xlink:href="img/40.webp"/>
<image preserveAspectRatio="none" x="806" y="891" width="17" height="17" xlink:href="img/41.webp"/>
<image preserveAspectRatio="none" x="787" y="911" width="28" height="28" xlink:href="img/42.webp"/>
<image preserveAspectRatio="none" x="794" y="932" width="51" height="20" xlink:href="img/43.webp"/>
<image preserveAspectRatio="none" x="823" y="934" width="20" height="15" xlink:href="img/44.webp"/>
<image preserveAspectRatio="none" x="806" y="933" width="17" height="16" xlink:href="img/45.webp"/>
<g clip-path="url(#c1_9)">
<path d="M822.2,830.2l-1.9,-1.6l1.8,-.8l-.9,-.8c-.2,.1,-.3,.2,-.5,.3c-.2,.1,-.3,.1,-.4,.2c-.2,.1,-.3,.1,-.4,.2c-.2,.1,-.4,.1,-.6,.2c-.2,0,-.3,.1,-.4,.1c.1,0,.1,-.1,.1,-.2v-.1c0,-.2,0,-.4,-.1,-.7c0,-.2,0,-.4,0,-.7c0,-.3,0,-.6,0,-1l-1.4,.6c0,.3,0,.6,0,.8c0,.3,0,.5,0,.7c0,.2,0,.4,0,.6c0,.2,0,.4,0,.7c0,.2,0,.5,0,.8c0,.3,-.1,.6,-.1,1l1.5,-.1v-.9c0,0,0,-.1,0,-.1q0,-.1,0,-.2c0,0,0,-.1,0,-.1l.3,-.1l1.9,1.6l1.1,-.4Zm6,1.1c-.3,-.2,-.6,-.3,-.8,-.5c-.3,-.2,-.5,-.4,-.6,-.5c-.2,-.1,-.3,-.3,-.4,-.4c-.1,-.1,-.2,-.2,-.3,-.3c-.1,-.2,-.2,-.3,-.3,-.4c-.1,-.1,-.2,-.2,-.3,-.3c.4,-.1,.7,-.2,.9,-.4c.2,-.1,.3,-.3,.4,-.4c.1,-.2,.2,-.3,.2,-.5c0,-.2,0,-.3,-.1,-.4c-.1,-.2,-.2,-.3,-.4,-.4c-.1,0,-.3,-.1,-.5,-.2c-.2,0,-.4,-.1,-.6,-.1c-.2,0,-.4,0,-.7,0c-.2,-.1,-.4,-.1,-.6,-.1c-.1,0,-.2,0,-.3,.1c-.2,0,-.4,0,-.5,0c-.2,0,-.4,0,-.6,0c-.1,.1,-.3,.1,-.4,.1c0,.2,0,.5,.1,.7c0,.2,0,.4,0,.6c0,.1,0,.3,0,.5c0,.1,0,.3,0,.5c0,.2,0,.4,0,.6c0,.3,0,.6,0,.9h1.4c0,-.6,0,-1,0,-1.3c-.1,-.2,-.1,-.4,-.1,-.5c0,-.1,0,-.3,.1,-.4c0,-.1,0,-.2,0,-.3c0,-.2,0,-.3,0,-.4c.2,-.1,.4,-.1,.6,-.1c.1,0,.3,0,.4,0c.1,0,.2,0,.3,0c.1,0,.2,0,.2,.1c.2,0,.2,.1,.3,.2c0,.1,-.1,.2,-.2,.3c0,.1,-.1,.1,-.3,.2c-.1,0,-.2,.1,-.4,.1c-.1,.1,-.2,.1,-.4,.1c-.1,0,-.2,0,-.3,0c0,0,-.1,0,-.1,0c.2,.3,.3,.6,.4,.8c.1,.3,.3,.5,.4,.6c.1,.2,.2,.4,.3,.5c.3,.2,.4,.4,.6,.5c.1,.1,.2,.2,.3,.2c.1,.1,.2,.2,.2,.2c.1,.1,.2,.1,.3,.2q.1,0,.2,.1l1.6,-.2Zm.7,-1v-3.8l-1.5,.1c0,.3,0,.5,.1,.8c0,.2,0,.4,0,.5c0,.2,0,.4,0,.6c0,.1,0,.3,0,.5c0,.2,0,.4,0,.6c0,.3,-.1,.5,-.1,.8l1.5,-.1Zm4.9,-1.6c-.2,-.2,-.3,-.4,-.6,-.5c-.2,-.1,-.4,-.1,-.7,-.2c-.3,0,-.5,-.1,-.7,-.1c-.3,0,-.5,-.1,-.6,-.1q-.2,-.1,-.2,-.2c0,-.1,.1,-.1,.2,-.2c.2,0,.4,0,.7,0c.3,0,.7,.1,1.3,.2l.8,-1.1c-.4,0,-.7,0,-1,-.1c-.3,0,-.5,0,-.7,0c-.3,0,-.4,0,-.6,0c-.1,0,-.3,0,-.4,0c-.2,0,-.4,0,-.5,.1c-.2,0,-.4,0,-.5,.1c-.2,0,-.4,.1,-.5,.2c-.1,.1,-.2,.2,-.3,.3c-.1,.1,-.1,.3,-.1,.5c0,.2,0,.4,.2,.6c.1,.2,.3,.3,.6,.4c.2,.1,.4,.2,.7,.2c.3,.1,.5,.1,.7,.2c.3,0,.4,0,.6,.1c.1,0,.2,.1,.2,.2c0,0,-.1,.1,-.3,.1c0,0,-.1,0,-.2,0c-.2,0,-.3,0,-.4,0c-.2,0,-.4,0,-.6,0c-.2,-.1,-.5,-.1,-.8,-.2l-.7,1.2c.3,0,.6,0,.8,0c.3,0,.5,0,.7,0c.3,0,.5,.1,.7,.1c.2,0,.5,0,.8,-.1c.3,0,.5,0,.8,-.1c.2,-.1,.4,-.2,.6,-.3c.1,-.2,.2,-.4,.2,-.6c0,-.3,-.1,-.6,-.2,-.7Z" class="g9_9"/>
</g>
<image x="817" y="825" width="5" height="7" xlink:href="shade/1.webp"/>
<image x="822" y="826" width="7" height="6" xlink:href="shade/2.webp"/>
<image x="827" y="826" width="3" height="5" xlink:href="shade/3.webp"/>
<image x="829" y="826" width="6" height="5" xlink:href="shade/4.webp"/>
<image preserveAspectRatio="none" x="808" y="831" width="56" height="107" xlink:href="img/46.webp"/>
<path d="M794,909h32.5V888.7H794V909Z" class="ga_9"/>
<path d="M56.3,561.3H853.1M56.3,1189.2H853.1" class="gb_9"/>
<image preserveAspectRatio="none" x="472" y="403" width="377" height="70" xlink:href="img/47.webp"/>
<image preserveAspectRatio="none" x="461" y="362" width="412" height="137" xlink:href="img/48.webp"/>
</svg>