<?xml version="1.0" encoding="UTF-8" standalone="no"?>
<!DOCTYPE svg PUBLIC "-//W3C//DTD SVG 1.1//EN"
"http://www.w3.org/Graphics/SVG/1.1/DTD/svg11.dtd">
<svg viewBox="0 0 909 1286" version="1.1" xmlns="http://www.w3.org/2000/svg" xmlns:xlink="http://www.w3.org/1999/xlink">
<defs>
<clipPath id="c0_3"><path d="M517.9,1083.7c-4.3,0,-4.4,-4.2,-4.4,-4.3V951.7c0,-4.4,4.4,-4.4,4.4,-4.4h82.2c4.4,0,4.4,4.4,4.4,4.4v127.7c0,4.3,-4.4,4.3,-4.4,4.3Z"/></clipPath>
<clipPath id="c1_3"><path d="M620.7,1083.7c-4.3,0,-4.3,-4.2,-4.3,-4.3V951.7c0,-4.4,4.3,-4.4,4.3,-4.4H703c4.3,0,4.3,4.4,4.3,4.4v127.7c0,4.3,-4.3,4.3,-4.3,4.3Z"/></clipPath>
<style type="text/css"><![CDATA[
.g0_3{
fill: none;
stroke: #000000;
stroke-width: 0.916;
stroke-linecap: butt;
stroke-linejoin: miter;
stroke-miterlimit: 4;
}
.g1_3{
fill: #FFFFFF;
}
.g2_3{
fill: none;
stroke: #FFFFFF;
stroke-width: 0.763;
stroke-linecap: butt;
stroke-linejoin: miter;
stroke-miterlimit: 4;
}
.g3_3{
fill: none;
stroke: #FFFFFF;
stroke-width: 0.458;
stroke-linecap: butt;
stroke-linejoin: miter;
stroke-miterlimit: 4;
}
]]></style>
</defs>
<image preserveAspectRatio="none" x="-1" y="-21" width="932" height="1329" xlink:href="../1/img/1.png"/>
<image preserveAspectRatio="none" x="0" y="586" width="14" height="725" xlink:href="img/2.png"/>
<image preserveAspectRatio="none" x="102" y="26" width="706" height="52" xlink:href="img/3.png"/>
<image preserveAspectRatio="none" x="228" y="148" width="148" height="156" xlink:href="img/4.png"/>
<image preserveAspectRatio="none" x="226" y="144" width="148" height="155" xlink:href="img/5.png"/>
<image preserveAspectRatio="none" x="121" y="143" width="102" height="161" xlink:href="img/6.png"/>
<image preserveAspectRatio="none" x="119" y="140" width="101" height="159" xlink:href="img/7.png"/>
<image preserveAspectRatio="none" x="277" y="736" width="48" height="46" xlink:href="img/8.png"/>
<image preserveAspectRatio="none" x="277" y="735" width="44" height="40" xlink:href="img/9.png"/>
<image preserveAspectRatio="none" x="277" y="736" width="48" height="46" xlink:href="img/10.png"/>
<image preserveAspectRatio="none" x="277" y="735" width="44" height="40" xlink:href="img/11.png"/>
<image preserveAspectRatio="none" x="133" y="771" width="44" height="45" xlink:href="img/12.png"/>
<image preserveAspectRatio="none" x="126" y="766" width="53" height="50" xlink:href="img/13.png"/>
<image preserveAspectRatio="none" x="223" y="781" width="47" height="45" xlink:href="img/14.png"/>
<image preserveAspectRatio="none" x="221" y="778" width="47" height="44" xlink:href="img/15.png"/>
<image preserveAspectRatio="none" x="316" y="712" width="45" height="44" xlink:href="img/16.png"/>
<image preserveAspectRatio="none" x="310" y="706" width="52" height="51" xlink:href="img/17.png"/>
<image preserveAspectRatio="none" x="289" y="781" width="47" height="45" xlink:href="img/18.png"/>
<image preserveAspectRatio="none" x="289" y="780" width="43" height="40" xlink:href="img/19.png"/>
<image preserveAspectRatio="none" x="183" y="773" width="48" height="44" xlink:href="img/20.png"/>
<image preserveAspectRatio="none" x="183" y="771" width="44" height="40" xlink:href="img/21.png"/>
<image preserveAspectRatio="none" x="211" y="698" width="47" height="44" xlink:href="img/22.png"/>
<image preserveAspectRatio="none" x="205" y="691" width="53" height="53" xlink:href="img/23.png"/>
<image preserveAspectRatio="none" x="252" y="738" width="44" height="44" xlink:href="img/24.png"/>
<image preserveAspectRatio="none" x="244" y="728" width="53" height="54" xlink:href="img/25.png"/>
<image preserveAspectRatio="none" x="174" y="709" width="46" height="49" xlink:href="img/26.png"/>
<image preserveAspectRatio="none" x="175" y="707" width="39" height="44" xlink:href="img/27.png"/>
<image preserveAspectRatio="none" x="255" y="776" width="49" height="44" xlink:href="img/28.png"/>
<image preserveAspectRatio="none" x="254" y="773" width="46" height="43" xlink:href="img/29.png"/>
<image preserveAspectRatio="none" x="286" y="698" width="44" height="47" xlink:href="img/30.png"/>
<image preserveAspectRatio="none" x="279" y="691" width="53" height="53" xlink:href="img/31.png"/>
<image preserveAspectRatio="none" x="209" y="756" width="48" height="46" xlink:href="img/32.png"/>
<image preserveAspectRatio="none" x="206" y="749" width="49" height="52" xlink:href="img/33.png"/>
<image preserveAspectRatio="none" x="232" y="703" width="49" height="44" xlink:href="img/34.png"/>
<image preserveAspectRatio="none" x="234" y="703" width="42" height="37" xlink:href="img/35.png"/>
<image preserveAspectRatio="none" x="167" y="735" width="45" height="46" xlink:href="img/36.png"/>
<image preserveAspectRatio="none" x="160" y="730" width="53" height="50" xlink:href="img/37.png"/>
<path d="M56.3,123.4H439.6M56.3,422.2H439.6M56.3,682.1H439.6M56.3,920.3H439.6M469.9,123.4H853.1" class="g0_3"/>
<image preserveAspectRatio="none" x="134" y="949" width="228" height="105" xlink:href="img/38.png"/>
<image preserveAspectRatio="none" x="126" y="938" width="240" height="119" xlink:href="img/39.png"/>
<image preserveAspectRatio="none" x="487" y="435" width="355" height="206" xlink:href="img/40.png"/>
<image preserveAspectRatio="none" x="488" y="434" width="348" height="202" xlink:href="img/41.png"/>
<path d="M469.9,414.7H853.1M469.9,743.8H853.1" class="g0_3"/>
<image preserveAspectRatio="none" x="628" y="765" width="72" height="72" xlink:href="img/42.png"/>
<image preserveAspectRatio="none" x="630" y="765" width="63" height="63" xlink:href="img/43.png"/>
<path d="M469.9,927.2H853.1" class="g0_3"/>
<image preserveAspectRatio="none" x="510" y="947" width="101" height="145" xlink:href="img/44.png"/>
<g clip-path="url(#c0_3)">
<path d="M508.1,1090.2h102v-150h-102v150Z" class="g1_3"/>
</g>
<image preserveAspectRatio="none" x="508" y="940" width="102" height="151" opacity="0.800003" xlink:href="img/45.png"/>
<image preserveAspectRatio="none" x="503" y="937" width="112" height="158" opacity="0.350006" xlink:href="img/46.png"/>
<image preserveAspectRatio="none" x="503" y="937" width="112" height="158" xlink:href="img/47.png"/>
<image preserveAspectRatio="none" x="517" y="937" width="106" height="145" xlink:href="img/48.png"/>
<image preserveAspectRatio="none" x="521" y="950" width="76" height="15" xlink:href="img/49.png"/>
<image preserveAspectRatio="none" x="532" y="1059" width="40" height="20" xlink:href="img/50.png"/>
<image preserveAspectRatio="none" x="520" y="1059" width="20" height="19" xlink:href="img/51.png"/>
<image preserveAspectRatio="none" x="538" y="1060" width="17" height="16" xlink:href="img/52.png"/>
<image preserveAspectRatio="none" x="554" y="1060" width="17" height="16" xlink:href="img/53.png"/>
<image preserveAspectRatio="none" x="536" y="1017" width="14" height="17" xlink:href="img/54.png"/>
<image preserveAspectRatio="none" x="520" y="1016" width="20" height="19" xlink:href="img/55.png"/>
<image preserveAspectRatio="none" x="536" y="1038" width="14" height="17" xlink:href="img/56.png"/>
<image preserveAspectRatio="none" x="520" y="1037" width="20" height="20" xlink:href="img/57.png"/>
<image preserveAspectRatio="none" x="521" y="1010" width="20" height="3" xlink:href="img/58.png"/>
<image preserveAspectRatio="none" x="520" y="988" width="20" height="19" xlink:href="img/59.png"/>
<image preserveAspectRatio="none" x="585" y="1060" width="14" height="17" xlink:href="img/60.png"/>
<g clip-path="url(#c0_3)">
<path d="M592.6,1075.4l-.1,.2h-.1l-.1,-.1l-.1,-.1c0,0,0,-.1,0,-.2v-.3H592c-.1,0,-.1,.1,-.1,.2q-.1,.2,-.2,.2c-.2,0,-.2,-.1,-.2,-.2c0,-.1,-.1,-.3,-.1,-.6c-.1,-.2,-.2,-.4,-.2,-.6v-.9c0,-.2,0,-.9,.1,-2.1c0,-.9,0,-1.6,-.1,-2.2v-.1H591c-.4,.2,-.6,.3,-.8,.5l-.1,-.1l-.1,-.1c0,-.2,.3,-.4,.9,-.7c.6,-.2,1,-.3,1.2,-.3q.1,0,.1,.1h.2l.3,-.1c.1,0,.1,.1,.1,.2c0,1.9,0,4.3,-.2,7.3Z" class="g2_3"/>
<path d="M534.8,955.5c-.1,-.2,-.2,-.3,-.4,-.4c-.3,-.1,-.5,-.2,-.9,-.2c-.3,-.1,-.7,-.1,-1.2,-.1c-.1,0,-.3,0,-.5,.1c-.1,0,-.3,0,-.6,0c-.2,0,-.5,0,-.9,0c0,.4,.1,.6,.1,.9c0,.2,0,.4,0,.6c0,.2,0,.4,0,.5c0,.2,0,.4,0,.6c0,.1,0,.3,0,.5c0,.3,0,.5,-.1,.8l1.5,.1c-.1,-.4,-.1,-.7,-.1,-.9c0,-.3,0,-.5,0,-.6c0,-.2,0,-.4,0,-.5v-1c.3,-.1,.5,-.1,.6,-.1c.2,0,.4,0,.5,0c.1,0,.2,0,.3,0c.1,.1,.2,.1,.2,.1c.2,.1,.2,.2,.3,.3c-.1,.1,-.1,.2,-.3,.3c-.1,0,-.3,.1,-.5,.1c-.2,.1,-.6,.1,-1,.1l.6,.7c.3,.1,.6,0,.9,0c.2,0,.4,-.1,.6,-.1c.2,-.1,.3,-.2,.4,-.2c.2,-.1,.3,-.2,.4,-.3c.1,-.2,.2,-.5,.3,-.8c0,-.2,-.1,-.3,-.2,-.5Zm1.8,3.2v-3.8l-1.5,.2c0,.2,.1,.5,.1,.7c0,.2,0,.4,0,.5c0,.2,0,.4,0,.6c0,.1,0,.3,0,.5c0,.2,0,.4,0,.6c0,.3,0,.6,-.1,.9l1.5,-.2Zm5.4,-3.8h-3.9c-.2,.3,-.4,.6,-.6,.9c-.1,.2,-.2,.5,-.3,.7c-.1,.2,-.1,.4,-.1,.6c0,.3,.1,.5,.2,.7c.2,.2,.4,.4,.7,.5c.2,.2,.5,.3,.8,.4c.3,.1,.6,.2,.8,.2c.3,.1,.5,.1,.7,.1c.2,.1,.3,.1,.4,.1l1.1,-1.2c-.4,0,-.8,0,-1.1,-.1c-.3,0,-.6,0,-.8,-.1c-.2,0,-.4,-.1,-.6,-.1c-.1,-.1,-.3,-.1,-.4,-.2c-.2,-.1,-.3,-.3,-.4,-.4c0,-.1,.1,-.2,.1,-.4c0,-.1,.1,-.2,.1,-.2c.1,-.1,.1,-.2,.2,-.3h2.6l.5,-1.2Zm5.8,-.1h-5.2l-.8,1.1h1.5c-.2,.2,-.3,.3,-.4,.5c0,.1,-.1,.3,-.1,.4c-.1,.1,-.1,.3,-.1,.4c.1,.4,.2,.7,.4,1c.2,.1,.3,.3,.5,.4c.1,.1,.3,.2,.6,.3c.2,.1,.5,.1,.8,.2c.4,0,.8,0,1.2,0l.7,-1.1c-.3,0,-.6,.1,-.9,.1c-.2,0,-.4,-.1,-.6,-.1c-.2,0,-.4,-.1,-.5,-.2c-.1,0,-.3,-.1,-.3,-.2c-.2,-.1,-.4,-.3,-.4,-.6c0,-.1,0,-.2,.1,-.3c0,-.1,.1,-.2,.2,-.3c.1,-.2,.2,-.3,.4,-.5h1.8l1.1,-1.1Zm8.3,.2l-1.5,.1l.1,1.4h-2.5V955l-1.5,.1c0,.2,0,.5,0,.7c0,.2,.1,.4,.1,.5c0,.2,0,.4,0,.6c0,.2,0,.4,0,.6c0,.2,-.1,.4,-.1,.6c0,.3,0,.6,0,.9l1.5,-.2v-1.5l2.5,.1l-.1,1.6l1.5,-.2V955Zm4.9,3.8v-4l-1.3,.1l.1,2.9c-.3,-.1,-.6,-.1,-.8,-.2c-.2,-.1,-.4,-.2,-.5,-.3c-.2,-.2,-.4,-.3,-.5,-.4c0,-.1,-.1,-.3,-.1,-.5c-.1,-.1,-.1,-.3,-.1,-.6c0,-.2,0,-.5,.1,-.9h-1.2c-.1,.5,-.1,.9,-.1,1.3c0,.3,.1,.6,.2,.8c.1,.3,.2,.5,.3,.7c.2,.2,.5,.4,.7,.6c.1,.1,.2,.1,.3,.2c.1,.1,.2,.1,.3,.2c.2,0,.3,.1,.4,.1c.1,0,.2,0,.3,0l.7,-.5v.6l1.2,-.1Zm5.8,-3.5l-1.3,-.4c-.1,.1,-.1,.2,-.1,.4c0,.1,-.1,.2,-.1,.3c0,.1,0,.2,0,.3c0,.1,0,.2,-.1,.3c0,.1,0,.3,0,.4c0,.1,0,.2,0,.4l-2.5,-2.2l-1.3,.3c.1,.3,.1,.6,.1,.8c0,.2,0,.4,0,.5c0,.2,.1,.4,.1,.5c0,.1,-.1,.3,-.1,.5c0,.1,0,.3,0,.6c0,.2,0,.5,-.1,.9l1.4,-.2v-1.9l2.8,2.2l.8,-.3v-1.6c0,-.1,.1,-.2,.1,-.4c0,-.1,0,-.3,.1,-.6c.1,-.2,.1,-.5,.2,-.8Zm5.9,-.5h-5.2l-.8,1.1h1.4c-.1,.2,-.2,.3,-.3,.5c-.1,.1,-.1,.3,-.1,.4c-.1,.1,-.1,.3,-.1,.4c0,.4,.2,.7,.4,1c.1,.1,.3,.3,.4,.4c.2,.1,.4,.2,.7,.3c.2,.1,.5,.1,.8,.2c.3,0,.7,0,1.2,0l.7,-1.1c-.3,0,-.6,.1,-.9,.1c-.2,0,-.5,-.1,-.7,-.1c-.2,0,-.3,-.1,-.4,-.2c-.2,0,-.3,-.1,-.4,-.2c-.2,-.1,-.3,-.3,-.3,-.6c0,-.1,0,-.2,.1,-.3c0,-.1,.1,-.2,.2,-.3c.1,-.2,.2,-.3,.3,-.5h1.9l1.1,-1.1Zm4.9,2.9c-.2,.1,-.4,.1,-.6,.1c-.2,0,-.4,0,-.6,.1c-.1,0,-.3,0,-.4,0c-.2,0,-.5,0,-.7,0c-.2,-.1,-.5,-.1,-.7,-.2c-.2,0,-.4,-.1,-.6,-.2c-.1,0,-.3,-.1,-.4,-.2h1.9v-.9h-1.9q.1,0,.1,0q0,-.1,0,-.1v-.1c0,0,.1,0,.1,0q0,-.1,0,-.1h2.7l.5,-1.2h-3.9c-.3,.3,-.5,.6,-.6,.8c-.2,.3,-.3,.6,-.3,.8c-.1,.2,-.1,.5,-.2,.7c0,.2,.1,.4,.2,.5c.1,.1,.2,.3,.4,.4c.2,.1,.4,.2,.6,.3c.3,.1,.5,.2,.8,.2c.3,.1,.5,.2,.8,.2c.3,0,.6,.1,.8,.1c.3,0,.5,0,.8,.1c.2,0,.4,0,.6,0l.6,-1.3Zm6,2.1c-.3,-.2,-.6,-.4,-.8,-.6c-.3,-.2,-.5,-.3,-.6,-.5c-.2,-.1,-.3,-.3,-.4,-.4c-.1,-.1,-.2,-.2,-.3,-.3c-.1,-.1,-.2,-.2,-.3,-.4c-.1,-.1,-.2,-.2,-.3,-.3c.4,-.1,.7,-.2,.9,-.4c.2,-.1,.3,-.3,.4,-.4c.1,-.2,.2,-.3,.2,-.5c0,-.2,-.1,-.3,-.1,-.4c-.1,-.1,-.2,-.3,-.4,-.3c-.1,-.1,-.3,-.2,-.5,-.2c-.2,-.1,-.4,-.1,-.6,-.2c-.2,0,-.5,0,-.7,0c-.2,0,-.4,0,-.6,0c-.1,0,-.2,0,-.4,0c-.1,0,-.3,0,-.4,0c-.2,0,-.4,.1,-.6,.1c-.1,0,-.3,0,-.5,0c.1,.3,.1,.5,.2,.7c0,.2,0,.4,0,.6c0,.2,0,.3,0,.5c0,.1,0,.3,0,.5c0,.2,0,.4,0,.6c0,.3,0,.6,0,.9l1.4,.1c0,-.7,-.1,-1.1,-.1,-1.4c0,-.2,0,-.4,0,-.5c0,-.1,0,-.2,0,-.4c0,-.1,.1,-.2,.1,-.3c0,-.2,0,-.3,0,-.4c.2,0,.4,-.1,.6,-.1c.1,0,.3,0,.4,0c.1,0,.2,0,.3,0c.1,0,.2,.1,.2,.1c.2,0,.2,.1,.2,.2c0,.1,0,.2,-.1,.3c-.1,.1,-.2,.1,-.3,.2c-.1,.1,-.2,.1,-.4,.1c-.1,.1,-.2,.1,-.4,.1c-.1,0,-.2,0,-.3,0c0,0,-.1,0,-.1,0c.1,.4,.3,.6,.4,.9c.1,.2,.3,.4,.4,.5c.1,.2,.2,.4,.3,.5c.2,.2,.4,.4,.6,.6c.1,0,.2,.1,.3,.2c.1,0,.2,.1,.2,.2c.1,0,.2,.1,.3,.1c0,0,.1,.1,.2,.1l1.6,-.1Zm3.5,-2.7c-.1,-.2,-.3,-.3,-.5,-.4c-.3,-.1,-.5,-.2,-.8,-.3c-.2,0,-.5,0,-.7,-.1c-.2,0,-.4,-.1,-.6,-.1c-.1,0,-.2,-.1,-.2,-.2c0,-.1,.1,-.1,.3,-.1c.1,-.1,.3,-.1,.6,-.1c.3,0,.7,.1,1.3,.2l.8,-1.1c-.4,0,-.7,0,-1,0c-.3,-.1,-.5,-.1,-.7,-.1c-.2,0,-.4,0,-.6,0c-.1,0,-.2,0,-.4,0c-.2,0,-.3,0,-.5,.1c-.2,0,-.3,0,-.5,.1c-.2,0,-.3,.1,-.5,.2c-.1,.1,-.2,.2,-.3,.3c-.1,.2,-.1,.3,-.1,.5c0,.2,.1,.5,.2,.6c.2,.2,.4,.3,.6,.4c.2,.1,.5,.2,.7,.2c.3,.1,.5,.1,.8,.2c.2,0,.4,0,.5,.1c.2,0,.2,.1,.2,.2c0,0,-.1,.1,-.2,.1c-.1,0,-.2,0,-.3,0c-.1,.1,-.3,0,-.4,0c-.2,0,-.4,0,-.6,0c-.2,-.1,-.5,-.1,-.7,-.2l-.8,1.2c.3,0,.6,0,.9,0c.2,0,.4,0,.6,.1c.3,0,.5,0,.7,0c.2,0,.5,0,.8,0c.3,-.1,.6,-.1,.8,-.2c.2,-.1,.4,-.2,.6,-.3c.2,-.2,.2,-.4,.2,-.6c0,-.3,0,-.5,-.2,-.7Z" class="g3_3"/>
</g>
<image x="530" y="954" width="5" height="5" xlink:href="shade/1.png"/>
<image x="535" y="954" width="2" height="5" xlink:href="shade/2.png"/>
<image x="537" y="954" width="6" height="6" xlink:href="shade/3.png"/>
<image x="541" y="954" width="8" height="6" xlink:href="shade/4.png"/>
<image x="550" y="954" width="7" height="6" xlink:href="shade/5.png"/>
<image x="556" y="954" width="5" height="5" xlink:href="shade/6.png"/>
<image x="561" y="954" width="7" height="6" xlink:href="shade/7.png"/>
<image x="566" y="954" width="8" height="6" xlink:href="shade/8.png"/>
<image x="572" y="954" width="7" height="6" xlink:href="shade/9.png"/>
<image x="577" y="954" width="7" height="6" xlink:href="shade/10.png"/>
<image x="582" y="954" width="6" height="6" xlink:href="shade/11.png"/>
<image preserveAspectRatio="none" x="614" y="947" width="101" height="145" xlink:href="img/61.png"/>
<g clip-path="url(#c1_3)">
<path d="M611,1090.2H713v-150H611v150Z" class="g1_3"/>
</g>
<image preserveAspectRatio="none" x="611" y="940" width="102" height="151" opacity="0.800003" xlink:href="img/62.png"/>
<image preserveAspectRatio="none" x="606" y="937" width="112" height="158" opacity="0.350006" xlink:href="img/63.png"/>
<image preserveAspectRatio="none" x="603" y="933" width="117" height="165" opacity="0.60000604" xlink:href="img/64.png"/>
<image preserveAspectRatio="none" x="624" y="950" width="75" height="15" xlink:href="img/65.png"/>
<image preserveAspectRatio="none" x="603" y="942" width="103" height="135" xlink:href="img/66.png"/>
<image preserveAspectRatio="none" x="638" y="1017" width="15" height="17" xlink:href="img/67.png"/>
<image preserveAspectRatio="none" x="623" y="1016" width="19" height="19" xlink:href="img/68.png"/>
<image preserveAspectRatio="none" x="623" y="967" width="19" height="19" xlink:href="img/69.png"/>
<image preserveAspectRatio="none" x="623" y="988" width="19" height="19" xlink:href="img/70.png"/>
<image preserveAspectRatio="none" x="638" y="1038" width="15" height="17" xlink:href="img/71.png"/>
<image preserveAspectRatio="none" x="623" y="1037" width="19" height="20" xlink:href="img/72.png"/>
<image preserveAspectRatio="none" x="624" y="1010" width="20" height="3" xlink:href="img/73.png"/>
<image preserveAspectRatio="none" x="632" y="1059" width="59" height="19" xlink:href="img/74.png"/>
<image preserveAspectRatio="none" x="623" y="1059" width="19" height="19" xlink:href="img/75.png"/>
<image preserveAspectRatio="none" x="672" y="1060" width="17" height="16" xlink:href="img/76.png"/>
<image preserveAspectRatio="none" x="641" y="1060" width="17" height="16" xlink:href="img/77.png"/>
<image preserveAspectRatio="none" x="657" y="1060" width="16" height="16" xlink:href="img/78.png"/>
<g clip-path="url(#c1_3)">
<path d="M640.8,956.8c-.1,-.1,-.2,-.2,-.4,-.3c-.1,0,-.3,-.1,-.5,-.2c-.2,0,-.4,-.1,-.6,-.1c-.2,0,-.4,-.1,-.6,-.1c-.2,0,-.3,0,-.5,0c-.1,0,-.3,0,-.4,0c-.2,.1,-.4,.1,-.6,.2c-.2,0,-.4,.1,-.6,.2l.2,.5c.1,-.1,.3,-.2,.5,-.2c.2,-.1,.3,-.1,.4,-.1c.2,0,.4,-.1,.5,-.1c.1,0,.2,.1,.3,.1c.2,0,.3,.1,.4,.1c.1,.1,.1,.2,.2,.2c.1,.1,.1,.2,.1,.2c0,.2,-.1,.3,-.2,.4c-.1,.2,-.3,.3,-.4,.3c-.2,.1,-.4,.1,-.6,.2c-.2,0,-.4,0,-.5,0c-.1,0,-.2,0,-.4,0c-.1,-.1,-.3,-.1,-.4,-.2c-.2,0,-.3,-.1,-.5,-.2c-.1,-.1,-.2,-.2,-.4,-.3c-.1,-.1,-.2,-.3,-.2,-.4c-.1,-.1,-.1,-.3,-.1,-.4c0,-.2,0,-.3,.1,-.4c.1,-.2,.3,-.3,.5,-.4c.2,-.1,.4,-.1,.7,-.2c.3,-.1,.6,-.1,.9,-.1c.2,0,.3,0,.5,0c.2,.1,.4,.1,.7,.1c.2,0,.5,.1,.8,.2l.3,-.7c-.4,0,-.7,-.1,-1,-.1c-.3,-.1,-.6,-.1,-.9,-.1c-.3,0,-.6,0,-.8,0c-.3,0,-.5,0,-.8,0c-.3,.1,-.6,.1,-.8,.2c-.3,.1,-.6,.2,-.8,.3c-.3,.1,-.5,.2,-.7,.4c-.2,.1,-.3,.2,-.4,.4c-.1,.1,-.2,.3,-.2,.5c0,.1,.1,.3,.2,.5c.2,.2,.4,.4,.7,.6c.2,.1,.5,.3,.8,.4c.3,.1,.6,.3,.9,.4c.3,.1,.5,.1,.8,.2c.2,.1,.4,.1,.5,.1c.1,0,.2,0,.4,-.1c.3,0,.5,0,.7,-.1c.3,-.1,.6,-.2,.8,-.2c.3,-.1,.6,-.3,.8,-.4c.2,-.1,.4,-.3,.6,-.4c.1,-.2,.2,-.4,.2,-.6c0,-.1,-.1,-.2,-.2,-.3Zm2,1.9v-3.8l-1.5,.2c0,.2,0,.5,0,.7c0,.2,.1,.4,.1,.5c0,.2,0,.4,0,.6c0,.1,0,.3,0,.5c0,.2,0,.4,-.1,.6c0,.3,0,.6,0,.9l1.5,-.2Zm6.1,-.3c-.3,-.3,-.5,-.6,-.7,-.9c-.2,-.2,-.4,-.5,-.6,-.7c-.1,-.2,-.3,-.4,-.4,-.6c-.1,-.2,-.3,-.4,-.4,-.6c-.1,-.2,-.3,-.4,-.4,-.7c-.1,-.2,-.3,-.4,-.4,-.7l-1.2,.5l.4,.6c-.1,.2,-.2,.4,-.3,.6c-.1,.2,-.2,.4,-.3,.5c-.1,.2,-.2,.4,-.3,.5c-.1,.1,-.2,.3,-.3,.5c-.1,.1,-.3,.2,-.4,.4c-.2,.2,-.3,.4,-.5,.5l1,.7l.6,-.6h2.6l.4,.6l1.2,-.6Zm-2.3,-.9h-1.3c0,0,.1,-.1,.1,-.2q.1,-.1,.1,-.2c.1,0,.1,-.1,.1,-.1c0,-.1,.1,-.1,.1,-.2c0,0,.1,-.1,.1,-.1c0,-.1,.1,-.2,.1,-.3l.7,1.1Zm7.8,-2.2l-1.4,-.4c0,.1,-.1,.2,-.1,.4c0,.1,0,.2,0,.3c-.1,.1,-.1,.2,-.1,.3c0,.1,0,.2,0,.3c0,.1,0,.3,-.1,.4c0,.1,0,.2,0,.4l-2.4,-2.2l-1.3,.3c0,.3,0,.6,0,.8c.1,.2,.1,.4,.1,.5c0,.2,0,.4,0,.5c0,.1,0,.3,0,.5c0,.1,0,.3,-.1,.6c0,.2,0,.5,0,.9l1.4,-.2v-1.9l2.7,2.2l.9,-.3v-1.6c0,-.1,0,-.2,0,-.4c0,-.1,.1,-.3,.1,-.6c.1,-.2,.2,-.5,.3,-.8Zm5.9,-.5H655l-.8,1.1h1.5c-.2,.2,-.3,.3,-.3,.5c-.1,.1,-.2,.3,-.2,.4c0,.1,-.1,.3,-.1,.4c.1,.4,.2,.7,.5,1c.1,.1,.2,.3,.4,.4c.1,.1,.3,.2,.6,.3c.2,.1,.5,.1,.9,.2c.3,0,.7,0,1.1,0l.8,-1.1c-.4,0,-.7,.1,-.9,.1c-.3,0,-.5,-.1,-.7,-.1c-.2,0,-.4,-.1,-.5,-.2c-.1,0,-.2,-.1,-.3,-.2c-.2,-.1,-.3,-.3,-.4,-.6c0,-.1,.1,-.2,.1,-.3c0,-.1,.1,-.2,.2,-.3c.1,-.2,.2,-.3,.4,-.5h1.8l1.2,-1.1Zm7.4,2.3c-.2,-.2,-.4,-.3,-.6,-.4c-.2,-.1,-.5,-.2,-.7,-.3c-.3,0,-.5,0,-.8,-.1c-.2,0,-.4,-.1,-.5,-.1c-.2,0,-.3,-.1,-.3,-.2q.1,-.1,.3,-.1c.1,-.1,.4,-.1,.7,-.1c.3,0,.7,.1,1.2,.2l.8,-1.1c-.4,0,-.7,0,-1,0c-.2,-.1,-.5,-.1,-.7,-.1c-.2,0,-.4,0,-.5,0c-.2,0,-.3,0,-.5,0c-.1,0,-.3,0,-.5,.1c-.1,0,-.3,0,-.5,.1c-.1,0,-.3,.1,-.4,.2c-.2,.1,-.3,.2,-.3,.3c-.1,.2,-.2,.3,-.2,.5c0,.2,.1,.5,.3,.6c.1,.2,.3,.3,.5,.4c.3,.1,.5,.2,.8,.2c.2,.1,.5,.1,.7,.2c.2,0,.4,0,.6,.1c.1,0,.2,.1,.2,.2c0,0,-.1,.1,-.3,.1c-.1,0,-.2,0,-.3,0c-.1,.1,-.2,0,-.4,0c-.1,0,-.3,0,-.5,0c-.3,-.1,-.5,-.1,-.8,-.2l-.7,1.2c.3,0,.5,0,.8,0c.3,0,.5,0,.7,.1c.2,0,.4,0,.6,0c.3,0,.6,0,.8,0c.3,-.1,.6,-.1,.8,-.2c.3,-.1,.5,-.2,.6,-.3c.2,-.2,.3,-.4,.3,-.6c0,-.3,-.1,-.5,-.2,-.7Zm5.8,-1.8l-1.3,-.4c-.1,.1,-.1,.2,-.1,.4c-.1,.1,-.1,.2,-.1,.3c0,.1,0,.2,0,.3c0,.1,0,.2,-.1,.3c0,.1,0,.3,0,.4c0,.1,0,.2,0,.4l-2.5,-2.2l-1.3,.3c.1,.3,.1,.6,.1,.8c0,.2,0,.4,0,.5c0,.2,0,.4,0,.5c0,.1,0,.3,0,.5c0,.1,0,.3,0,.6c0,.2,0,.5,-.1,.9l1.4,-.2v-1.9l2.8,2.2l.8,-.3v-1.6c0,-.1,.1,-.2,.1,-.4c0,-.1,0,-.3,.1,-.6c0,-.2,.1,-.5,.2,-.8Zm5.6,3.1c-.3,-.3,-.5,-.6,-.7,-.9c-.2,-.2,-.4,-.5,-.6,-.7c-.1,-.2,-.3,-.4,-.4,-.6c-.1,-.2,-.3,-.4,-.4,-.6c-.1,-.2,-.2,-.4,-.4,-.7c-.1,-.2,-.3,-.4,-.4,-.7l-1.2,.5l.4,.6c-.1,.2,-.2,.4,-.3,.6c-.1,.2,-.2,.4,-.3,.5c-.1,.2,-.2,.4,-.3,.5c-.1,.1,-.2,.3,-.3,.5c-.1,.1,-.3,.2,-.4,.4c-.1,.2,-.3,.4,-.5,.5l1,.7l.6,-.6h2.6l.4,.6l1.2,-.6Zm-2.2,-.9h-1.4c0,0,.1,-.1,.1,-.2q.1,-.1,.1,-.2c.1,0,.1,-.1,.1,-.1q.1,-.1,.1,-.2c0,0,.1,-.1,.1,-.1c0,-.1,.1,-.2,.1,-.3l.8,1.1Zm7.2,1.1L682.2,957l1.8,-.8l-.9,-.8c-.2,.1,-.4,.2,-.5,.3c-.2,.1,-.3,.2,-.4,.2c-.2,.1,-.3,.1,-.4,.2c-.2,.1,-.4,.1,-.6,.2c-.2,.1,-.3,.1,-.4,.1c0,0,0,-.1,0,-.1v-.2c0,-.2,0,-.4,0,-.7c0,-.2,0,-.4,0,-.7c0,-.3,0,-.6,0,-.9l-1.4,.6c0,.2,0,.5,0,.7c0,.3,0,.5,0,.7c0,.2,0,.4,0,.6c0,.2,0,.5,0,.7c0,.2,0,.5,0,.8c0,.3,-.1,.6,-.1,1l1.5,-.1v-.9c0,0,0,-.1,0,-.1q0,-.1,0,-.2c0,0,0,-.1,0,-.1l.2,-.1l1.9,1.6l1.2,-.4Zm5.5,-.9c-.3,.1,-.5,.1,-.7,.1c-.2,0,-.4,0,-.5,.1c-.2,0,-.3,0,-.5,0c-.2,0,-.4,0,-.7,0c-.2,-.1,-.4,-.1,-.6,-.2c-.3,0,-.5,-.1,-.6,-.2c-.2,0,-.3,-.1,-.4,-.2h1.9v-.9h-1.9q0,-.1,0,-.1c0,0,.1,0,.1,-.1q0,-.1,.1,-.1h2.6l.5,-1.2H685c-.2,.3,-.4,.6,-.6,.8c-.1,.3,-.2,.6,-.3,.8c-.1,.2,-.1,.5,-.1,.7c0,.2,0,.4,.1,.5c.1,.1,.3,.3,.5,.4c.1,.1,.3,.2,.6,.3c.2,.1,.5,.2,.7,.2c.3,.1,.6,.2,.8,.2c.3,0,.6,.1,.9,.1c.2,0,.5,0,.7,.1c.2,0,.4,0,.6,0l.7,-1.3Z" class="g3_3"/>
</g>
<image x="633" y="954" width="9" height="5" xlink:href="shade/12.png"/>
<image x="641" y="954" width="3" height="5" xlink:href="shade/13.png"/>
<image x="643" y="954" width="8" height="6" xlink:href="shade/14.png"/>
<image x="648" y="954" width="7" height="6" xlink:href="shade/15.png"/>
<image x="654" y="954" width="7" height="6" xlink:href="shade/16.png"/>
<image x="663" y="954" width="5" height="6" xlink:href="shade/17.png"/>
<image x="668" y="954" width="6" height="6" xlink:href="shade/18.png"/>
<image x="673" y="954" width="7" height="6" xlink:href="shade/19.png"/>
<image x="679" y="953" width="6" height="7" xlink:href="shade/20.png"/>
<image x="683" y="954" width="7" height="6" xlink:href="shade/21.png"/>
<image preserveAspectRatio="none" x="717" y="947" width="100" height="145" xlink:href="img/79.png"/>
<image preserveAspectRatio="none" x="719" y="947" width="91" height="137" xlink:href="img/80.png"/>
<image preserveAspectRatio="none" x="150" y="434" width="130" height="157" xlink:href="img/81.png"/>
<image preserveAspectRatio="none" x="152" y="434" width="121" height="148" xlink:href="img/82.png"/>
<image preserveAspectRatio="none" x="222" y="434" width="129" height="157" xlink:href="img/83.png"/>
<image preserveAspectRatio="none" x="223" y="434" width="121" height="149" xlink:href="img/84.png"/>
<image preserveAspectRatio="none" x="477" y="131" width="201" height="177" xlink:href="img/85.png"/>
<image preserveAspectRatio="none" x="476" y="129" width="198" height="173" xlink:href="img/86.png"/>
<image preserveAspectRatio="none" x="643" y="130" width="206" height="181" xlink:href="img/87.png"/>
<image preserveAspectRatio="none" x="645" y="130" width="198" height="173" xlink:href="img/88.png"/>
</svg>