<?xml version="1.0" encoding="UTF-8" standalone="no"?>
<!DOCTYPE svg PUBLIC "-//W3C//DTD SVG 1.1//EN"
"http://www.w3.org/Graphics/SVG/1.1/DTD/svg11.dtd">
<svg viewBox="0 0 909 1286" version="1.1" xmlns="http://www.w3.org/2000/svg" xmlns:xlink="http://www.w3.org/1999/xlink">
<defs>
<clipPath id="c0_9"><path d="M0,321.7V.1H428.3V321.7Z"/></clipPath>
<clipPath id="c1_9"><path d="M427.4,321.7V.1H856.9V321.7Z"/></clipPath>
<clipPath id="c2_9"><path d="M856,1286.2V.1h53V1286.2Z"/></clipPath>
<clipPath id="c3_9"><path d="M0,643.8v-323H428.3v323Z"/></clipPath>
<clipPath id="c4_9"><path d="M427.5,643.7V320.9H856.7V643.7Z"/></clipPath>
<clipPath id="c5_9"><path d="M0,965.6V642.9H428.3V965.6Z"/></clipPath>
<clipPath id="c6_9"><path d="M427.5,965.4V642.9H856.7V965.4Z"/></clipPath>
<clipPath id="c7_9"><path d="M0,1286.2V964.6H428.3v321.6Z"/></clipPath>
<clipPath id="c8_9"><path d="M427.4,1286.2V964.6H856.9v321.6Z"/></clipPath>
</defs>
<image clip-path="url(#c0_9)" preserveAspectRatio="none" x="0" y="0" width="428" height="322" xlink:href="img/1.jpg"/>
<image clip-path="url(#c1_9)" preserveAspectRatio="none" x="427" y="0" width="430" height="322" xlink:href="img/2.jpg"/>
<image clip-path="url(#c2_9)" preserveAspectRatio="none" x="856" y="0" width="54" height="1287" xlink:href="img/3.jpg"/>
<image clip-path="url(#c3_9)" preserveAspectRatio="none" x="0" y="321" width="428" height="323" xlink:href="img/4.jpg"/>
<image clip-path="url(#c4_9)" preserveAspectRatio="none" x="427" y="321" width="430" height="323" xlink:href="img/5.jpg"/>
<image clip-path="url(#c5_9)" preserveAspectRatio="none" x="0" y="643" width="428" height="323" xlink:href="img/6.jpg"/>
<image clip-path="url(#c6_9)" preserveAspectRatio="none" x="427" y="643" width="430" height="323" xlink:href="img/7.jpg"/>
<image clip-path="url(#c7_9)" preserveAspectRatio="none" x="0" y="965" width="428" height="322" xlink:href="img/8.jpg"/>
<image clip-path="url(#c8_9)" preserveAspectRatio="none" x="427" y="965" width="430" height="322" xlink:href="img/9.jpg"/>
</svg>