<?xml version="1.0" encoding="UTF-8" standalone="no"?>
<!DOCTYPE svg PUBLIC "-//W3C//DTD SVG 1.1//EN"
"http://www.w3.org/Graphics/SVG/1.1/DTD/svg11.dtd">
<svg viewBox="0 0 909 1286" version="1.1" xmlns="http://www.w3.org/2000/svg" xmlns:xlink="http://www.w3.org/1999/xlink">
<defs>
<clipPath id="c0_19"><path d="M38,976.3V625.5H877.1V976.3Z"/></clipPath>
<clipPath id="c1_19"><path d="M739.5,1103c-3.6,0,-6.4,-1.1,-6.4,-1.1l-113,-44.5c-14.2,-5.6,-8.6,-19.9,-8.6,-19.9L665.1,901.3l18.7,-47.5c3.2,-7.9,9,-9.6,13.5,-9.6c3.4,0,6.1,1,6.3,1.1l113.2,44.5c13.8,5.6,8.7,19.2,8.5,19.8l-72.4,183.8c-3.1,7.9,-8.9,9.6,-13.4,9.6Z"/></clipPath>
<clipPath id="c2_19"><path d="M215.6,1171.6c-15.2,0,-15.3,-15.1,-15.3,-15.3V959c0,-15.3,15.3,-15.3,15.3,-15.3H337.1c15.3,0,15.3,15.3,15.3,15.3v197.3c0,15.3,-15.3,15.3,-15.3,15.3Z"/></clipPath>
<clipPath id="c3_19"><path d="M443.7,1171.6c-15.2,0,-15.3,-15.1,-15.3,-15.3V959c0,-15.3,15.3,-15.3,15.3,-15.3H565.2c15.3,0,15.3,15.3,15.3,15.3v197.3c0,15.3,-15.3,15.3,-15.3,15.3Z"/></clipPath>
<style type="text/css"><![CDATA[
.g0_19{
fill: none;
stroke: #FFFFFF;
stroke-width: 1.527;
stroke-linecap: butt;
stroke-linejoin: miter;
stroke-miterlimit: 4;
}
.g1_19{
fill: none;
stroke: #FFFFFF;
stroke-width: 1.833;
stroke-linecap: butt;
stroke-linejoin: miter;
stroke-miterlimit: 4;
}
.g2_19{
fill: none;
stroke: #FFFFFF;
stroke-width: 1.767;
stroke-linecap: butt;
stroke-linejoin: miter;
}
.g3_19{
fill: none;
stroke: #000000;
stroke-width: 0.352;
stroke-linecap: butt;
stroke-linejoin: miter;
}
.g4_19{
fill: #FFFFFF;
}
.g5_19{
fill: none;
stroke: #FFFFFF;
stroke-width: 0.766;
stroke-linecap: butt;
stroke-linejoin: miter;
stroke-miterlimit: 4;
}
.g6_19{
fill: none;
stroke: #CD071E;
stroke-width: 4.583;
stroke-linecap: butt;
stroke-linejoin: miter;
stroke-miterlimit: 4;
}
.g7_19{
fill: none;
stroke: #FFFFFF;
stroke-width: 0.916;
stroke-linecap: butt;
stroke-linejoin: miter;
stroke-miterlimit: 4;
}
]]></style>
</defs>
<image preserveAspectRatio="none" x="-1" y="-21" width="932" height="1329" xlink:href="../1/img/1.png"/>
<image preserveAspectRatio="none" x="-1" y="797" width="3" height="491" xlink:href="img/2.png"/>
<image preserveAspectRatio="none" x="102" y="56" width="706" height="53" xlink:href="img/3.png"/>
<image preserveAspectRatio="none" x="56" y="361" width="57" height="54" xlink:href="img/4.png"/>
<image preserveAspectRatio="none" x="97" y="398" width="28" height="35" xlink:href="img/5.png"/>
<path d="M114.3,424.6c0,-6.1,-.4,-9.2,-1.3,-9.2c-.6,0,-1.4,.1,-2.5,.4c-1.3,.4,-1.9,.8,-1.9,1.2c0,2,.3,4.1,.9,6.1c.1,.1,.3,.6,.7,1.3c.4,.7,.6,1.1,.6,1.4l.2,.4l.4,.1c1,-.2,1.9,-.5,2.7,-1l.2,-.4v-.3Zm1.3,1.2c.1,.1,-.6,.4,-2,.9c-1.5,.6,-2.9,.9,-4,.9c-1.9,0,-2.9,-.3,-2.9,-.9c0,-.1,0,-.2,0,-.3c.1,-.2,.1,-.3,.1,-.3c-1.4,-5.2,-2.2,-10.5,-2.2,-15.8c0,-3.6,.2,-5.7,.5,-6.3c.5,0,.8,.1,1,.3h.5l.3,-.4l.3,-.6c.5,.1,.8,.3,1,.5l.5,.1h.2l.3,-.3c0,-.2,.2,-.3,.5,-.3c.2,0,.3,0,.4,.1l.4,.1c2.3,-.5,3.6,-.8,3.9,-.9l.5,.2c.7,1.1,1.2,2,1.5,2.8c.2,.6,.5,1.6,.8,3.1v.5l-.5,.2h-.1c-.1,0,-.2,-.1,-.4,-.2l-.3,-.1l-.4,.1l-.4,.1c-.4,-.1,-.6,-.1,-.6,-.1c-.3,0,-.5,.2,-.5,.7l-.1,.4l-.5,.2c-.3,-.1,-.5,-.3,-.5,-.6c0,-.3,-.2,-1.1,-.6,-2.6c-.4,-1.4,-.8,-2.3,-1,-2.6l-.4,-.1l-.6,.2l-.4,.3c-1,2.8,-1.5,5.9,-1.5,9.1l.1,.4l.2,.4h.5c1.9,-.8,4.8,-1.2,8.6,-1.2c.4,0,.6,.2,.6,.6c0,.3,.1,.6,.3,.7c.1,.2,.2,.4,.2,.6c0,3.6,-.6,7,-2,10.1l-.3,.3h-.4c-.1,-.1,-.3,-.2,-.6,-.3Z" class="g0_19"/>
<image preserveAspectRatio="none" x="470" y="135" width="56" height="55" xlink:href="img/6.png"/>
<image preserveAspectRatio="none" x="519" y="160" width="85" height="52" xlink:href="img/7.png"/>
<path d="M557.3,180c0,-4.1,-.3,-6.2,-.9,-6.2c-.3,0,-.9,.1,-1.6,.3c-.9,.3,-1.3,.5,-1.3,.8c0,1.3,.2,2.7,.7,4c0,.1,.1,.4,.4,.9c.3,.4,.4,.8,.4,.9l.1,.3l.3,.1c.6,-.1,1.2,-.3,1.8,-.7l.1,-.3V180Zm.9,.8c0,0,-.4,.2,-1.3,.5c-1.1,.5,-2,.7,-2.7,.7c-1.3,0,-2,-.3,-2,-.7c0,0,0,-.1,.1,-.2q0,-.1,0,-.2c-.9,-3.4,-1.4,-6.9,-1.4,-10.5c0,-2.4,.1,-3.8,.3,-4.2c.3,0,.5,.1,.7,.2h.3l.2,-.3l.2,-.3c.3,0,.5,.1,.7,.3l.3,.1l.1,-.1l.2,-.2c0,-.1,.2,-.2,.4,-.2c.1,0,.2,.1,.2,.1l.3,.1c1.5,-.4,2.4,-.6,2.6,-.6l.3,.1c.5,.7,.8,1.3,1,1.9c.2,.4,.4,1.1,.6,2l-.1,.3l-.2,.2h-.2c0,0,-.1,0,-.2,-.1l-.2,-.1l-.2,.1l-.3,.1c-.3,-.1,-.5,-.1,-.4,-.1c-.3,0,-.4,.1,-.4,.4l-.1,.3l-.3,.1c-.2,0,-.3,-.1,-.3,-.3c0,-.2,-.2,-.8,-.4,-1.8c-.3,-.9,-.5,-1.5,-.7,-1.7l-.3,-.1l-.4,.1l-.2,.2c-.7,1.9,-1,4,-1,6.1l.1,.3l.1,.2l.3,.1c1.3,-.6,3.2,-.8,5.8,-.8c.2,0,.4,.1,.4,.3c0,.2,0,.4,.1,.5c.2,.1,.2,.3,.2,.4c0,2.4,-.4,4.7,-1.3,6.8l-.2,.2h-.3c-.1,-.1,-.2,-.2,-.4,-.2Z" class="g0_19"/>
<path d="M590.4,180.5c-.2,.5,-.4,.8,-.6,.8c-.1,0,-.2,0,-.3,-.2l-.3,-.2l-.2,.1c-.1,0,-.2,.2,-.4,.4c-.1,.2,-.3,.3,-.5,.3h-.3c-.7,.4,-1.2,.6,-1.4,.5h-.3l-.3,-.1c-.3,-.4,-.4,-.6,-.5,-.6c-.2,.1,-.4,.2,-.4,.4l-.2,.2l-.3,.1c-.1,0,-.2,-.1,-.3,-.2c-.1,-.1,-.2,-.6,-.5,-1.5c-.2,-.9,-.3,-1.4,-.3,-1.7v-.1l.1,-.3l.3,-.1c.1,0,.2,.1,.3,.2c.1,.1,.2,.2,.3,.2c.1,0,.2,-.1,.4,-.2c.1,-.1,.2,-.2,.3,-.2c.2,0,.5,.4,.7,1.2c.3,1.1,.4,1.6,.5,1.7l.3,.2c.1,0,.5,-.2,1.4,-.7l.1,-.2c.7,-3.1,1.1,-5.2,1.1,-6.2c.1,-.3,-.1,-.4,-.3,-.4q-.1,0,-.2,0c-1.1,.5,-2.2,.7,-3.4,.7c-.5,0,-1,-.1,-1.5,-.2c-.5,-.1,-.8,-1.1,-.8,-3c0,-.6,.1,-1.6,.3,-3c.3,-1.5,.6,-2.4,.9,-2.7h.3c.2,0,.3,.1,.3,.3c0,.3,.1,.5,.3,.5c.1,0,.5,-.1,1.1,-.3c.6,-.2,1.1,-.3,1.4,-.3c.5,0,.9,.1,1.2,.1c.1,0,.2,0,.3,0c.1,-.1,.2,-.1,.3,-.1c.2,0,.3,.1,.4,.2l.2,.2c.7,.3,1.1,.5,1.3,.6l.4,.3h.2l.2,.2l.2,.2v.3c0,4.5,-.6,8.7,-1.8,12.6ZM588,173.3c.7,-.3,1.1,-.6,1.2,-.9c.1,-.2,.1,-.6,.1,-1.5c0,-2.6,-.2,-3.9,-.5,-4c-.2,-.1,-.6,-.2,-1.2,-.2c-.5,0,-.9,.1,-1.2,.2c-.3,.1,-.6,1.3,-.6,3.7c-.1,2.1,.1,3.1,.6,3.1c.5,0,1,-.1,1.6,-.4Z" class="g1_19"/>
<image preserveAspectRatio="none" x="524" y="166" width="12" height="16" xlink:href="img/8.png"/>
<image preserveAspectRatio="none" x="56" y="242" width="29" height="42" xlink:href="img/9.png"/>
<path d="M66.5,280l-.2,.5h-.5l-.3,-.2l-.2,-.4c0,-.1,.1,-.2,.1,-.4v-.4l-.2,-.5l-.5,-.1c-.2,.1,-.3,.3,-.4,.6c-.1,.4,-.3,.6,-.6,.6c-.4,0,-.6,-.2,-.6,-.6c0,-.4,-.1,-1,-.3,-1.8c-.2,-.8,-.4,-1.4,-.4,-1.8v-2.8c0,-.4,0,-2.5,.1,-6.4c.1,-2.5,0,-4.6,0,-6.3l-.3,-.4h-.5c-1,.5,-1.8,1,-2.4,1.3l-.4,-.2l-.2,-.4c0,-.5,1,-1.2,2.8,-1.9c1.7,-.7,2.9,-1,3.6,-1c.2,0,.3,.1,.3,.2l.4,.3l.9,-.4c.4,0,.6,.2,.6,.6c0,5.5,-.3,12.8,-.8,21.9Zm11.5,.6c-2.6,.3,-4.3,.4,-5,.4c-.4,.1,-.7,-.3,-.9,-1v-.1l-.3,-.4c-.8,-.3,-1.4,-.5,-1.6,-.5l-.3,-.3c0,-.2,-.1,-.4,-.1,-.6c0,-1,.1,-1.6,.4,-1.9c.6,-.6,1.1,-1,1.4,-1.4c2.9,-2.5,5.1,-4.3,6.5,-5.5l.2,-.4c0,-1.9,-.1,-3.8,-.4,-5.6c-.3,-3,-.8,-4.5,-1.5,-4.5c-1.2,0,-1.9,.3,-2.2,.8c-.1,.3,-.1,1.1,-.1,2.5c0,2.4,0,3.9,.1,4.5l-.1,.4l-.4,.3h-.2c-.2,0,-.5,-.4,-.6,-1.1l-.4,-.4c-.3,0,-.6,0,-.8,.1c-.2,0,-.5,0,-.7,.3c-.2,.2,-.4,.3,-.6,.3c-.3,0,-.5,-.2,-.5,-.6c0,-3.7,.1,-6.1,.4,-7.3l.3,-.4l.4,-.1c.2,.1,.4,.3,.4,.5l.4,.4l.4,-.1c.5,-.3,1,-.6,1.4,-.9c.5,0,1.2,-.1,2.2,-.3c1,-.1,1.8,-.2,2.3,-.2c1.1,0,2.4,.1,3.9,.3l.4,.2l.1,.5c-.2,.3,-.3,.5,-.5,.7l.1,.4c.2,.4,.4,1.5,.4,3.4c0,.4,-.1,.9,-.2,1.7c-.2,.8,-.2,1.3,-.2,1.7c0,.3,-.1,.7,-.4,1l-.1,.2c-2.5,2.2,-4.4,3.9,-5.6,5l-1.5,1.3l-.2,.5c.2,2.8,.4,4.3,.5,4.5v.5c.2,.2,.4,.3,.5,.3l4.7,-.4l.3,-.3l.1,-.4c0,-.2,-.1,-.3,-.2,-.3c-.2,-.1,-.4,-.2,-.6,-.2l-.3,-.4c0,0,-.2,-.1,-.3,-.1c-.3,-1.1,-.5,-2,-.5,-2.5l.2,-.4l.3,-.2c.4,0,.7,0,.9,-.2c.1,-.1,.3,-.2,.4,-.2c.1,0,.2,0,.3,.1c.2,0,.3,.1,.3,.1c.1,0,.3,-.1,.5,-.2c.1,-.2,.3,-.2,.4,-.2c.3,0,.5,.1,.5,.4v.1l.1,.3l.3,1.3c.3,1.4,.5,2.5,.5,3.1c0,.4,-.2,.6,-.5,.6l-.4,.3c0,.1,-1.5,.4,-4.3,.6Z" class="g0_19"/>
<image preserveAspectRatio="none" x="-1033" y="-445" width="2805" height="2404" xlink:href="img/10.png"/>
<image preserveAspectRatio="none" x="653" y="686" width="24" height="24" xlink:href="img/11.png"/>
<image preserveAspectRatio="none" x="31" y="612" width="23" height="24" xlink:href="img/12.png"/>
<g clip-path="url(#c0_19)">
<path d="M-1042.8,-446.1H-1064m2844.2,0h21.2M-1042.8,1959.1H-1064m2844.2,0h21.2M-1034.3,-454.6v-21.2m0,2443.3v21.2m2806,-2443.3v-21.2m0,2443.3v21.2" class="g2_19"/>
<path d="M-1042.8,-446.1H-1064m2844.2,0h21.2M-1042.8,1959.1H-1064m2844.2,0h21.2M-1034.3,-454.6v-21.2m0,2443.3v21.2m2806,-2443.3v-21.2m0,2443.3v21.2" class="g3_19"/>
</g>
<image preserveAspectRatio="none" x="21" y="483" width="876" height="727" xlink:href="img/13.png"/>
<image preserveAspectRatio="none" x="24" y="484" width="866" height="717" xlink:href="img/14.png"/>
<image preserveAspectRatio="none" x="729" y="673" width="135" height="194" xlink:href="img/15.png"/>
<image preserveAspectRatio="none" x="284" y="686" width="95" height="122" xlink:href="img/16.png"/>
<image preserveAspectRatio="none" x="272" y="669" width="120" height="140" xlink:href="img/17.png"/>
<image preserveAspectRatio="none" x="773" y="655" width="96" height="121" xlink:href="img/18.png"/>
<image preserveAspectRatio="none" x="764" y="650" width="101" height="118" xlink:href="img/19.png"/>
<image preserveAspectRatio="none" x="281" y="797" width="93" height="126" xlink:href="img/20.png"/>
<image preserveAspectRatio="none" x="277" y="792" width="89" height="122" xlink:href="img/21.png"/>
<image preserveAspectRatio="none" x="379" y="811" width="95" height="119" xlink:href="img/22.png"/>
<image preserveAspectRatio="none" x="349" y="790" width="129" height="143" xlink:href="img/23.png"/>
<image preserveAspectRatio="none" x="684" y="666" width="92" height="108" xlink:href="img/24.png"/>
<image preserveAspectRatio="none" x="682" y="664" width="86" height="99" xlink:href="img/25.png"/>
<image preserveAspectRatio="none" x="611" y="846" width="232" height="275" xlink:href="img/26.png"/>
<g clip-path="url(#c1_19)">
<path d="M686.2,824l-92.9,235.8l158.4,62.4L844.6,886.4Z" class="g4_19"/>
</g>
<image preserveAspectRatio="none" x="592" y="825" width="252" height="298" opacity="0.800003" xlink:href="img/27.png"/>
<image preserveAspectRatio="none" x="582" y="816" width="272" height="315" opacity="0.350006" xlink:href="img/28.png"/>
<image preserveAspectRatio="none" x="691" y="850" width="126" height="69" xlink:href="img/29.png"/>
<image preserveAspectRatio="none" x="724" y="1062" width="27" height="32" xlink:href="img/30.png"/>
<image preserveAspectRatio="none" x="625" y="989" width="61" height="61" xlink:href="img/31.png"/>
<image preserveAspectRatio="none" x="647" y="1033" width="41" height="38" xlink:href="img/32.png"/>
<image preserveAspectRatio="none" x="650" y="1034" width="36" height="36" xlink:href="img/33.png"/>
<g clip-path="url(#c1_19)">
<path d="M726.5,867.9l-6.1,-2.4c-.6,.3,-1.1,.6,-1.5,1c-.3,.3,-.6,.6,-.9,.9c-.2,.3,-.4,.6,-.6,.9c-.1,.4,-.1,.8,0,1.2c.1,.4,.4,.8,.7,1.2c.3,.4,.6,.7,1.1,1.1c.4,.3,.8,.6,1.1,.9c.4,.2,.7,.4,1,.6c.3,.1,.4,.2,.5,.2l2.5,-1.2c-.7,-.2,-1.2,-.5,-1.7,-.7c-.4,-.2,-.8,-.4,-1.2,-.6c-.3,-.2,-.6,-.4,-.8,-.6c-.2,-.2,-.3,-.3,-.5,-.5c-.2,-.3,-.4,-.7,-.3,-1c.1,-.1,.2,-.3,.3,-.4c.1,-.2,.2,-.3,.4,-.4c.1,-.1,.2,-.2,.3,-.3c.1,0,.1,-.1,.1,-.1l4.1,1.7l1.5,-1.5Zm8.7,3.5l-2.4,-.7l-.7,2.2l-3.9,-1.5l.9,-2.4l-2.4,-.7c-.1,.4,-.2,.8,-.3,1.1c-.2,.3,-.3,.6,-.3,.9c-.1,.3,-.2,.6,-.4,.8c-.1,.3,-.2,.6,-.3,1c-.2,.2,-.3,.6,-.5,1c-.2,.4,-.3,.8,-.6,1.2l2.5,.8l.9,-2.4l3.8,1.6l-1.1,2.5l2.4,.6l2.4,-6Zm7.1,9.1c-.2,-.7,-.4,-1.3,-.5,-1.9c-.2,-.5,-.3,-1,-.4,-1.4c-.1,-.5,-.3,-.9,-.3,-1.3c-.1,-.4,-.2,-.8,-.3,-1.2c0,-.4,-.1,-.8,-.2,-1.2c-.1,-.4,-.1,-.9,-.2,-1.3l-2.2,-.1l.3,1.2c-.3,.3,-.6,.6,-.9,.8c-.3,.2,-.5,.4,-.7,.6c-.3,.2,-.5,.4,-.8,.6c-.2,.1,-.5,.3,-.8,.5c-.2,.1,-.5,.3,-.8,.4c-.4,.2,-.7,.4,-1.1,.6l1.1,1.6l1.3,-.6l4,1.6l.3,1.2l2.2,-.1Zm-2.9,-2.8l-2.1,-.9c.1,-.1,.2,-.1,.3,-.2c.1,-.1,.2,-.2,.3,-.2c.1,-.1,.2,-.1,.2,-.2c.1,-.1,.2,-.1,.3,-.2c0,-.1,.1,-.1,.2,-.2c.1,-.1,.2,-.2,.3,-.3l.5,2.2Zm5.4,4.2l2.3,-5.9l-2.5,-.7c-.1,.4,-.2,.8,-.3,1.2c-.1,.3,-.2,.6,-.3,.9c-.1,.3,-.2,.5,-.3,.8c-.1,.2,-.2,.5,-.3,.8c-.2,.3,-.3,.6,-.5,1c-.1,.4,-.3,.8,-.5,1.2l2.4,.7Zm11.3,-1.6l-1.8,-1.5c-.1,.2,-.3,.3,-.4,.5c-.1,.2,-.2,.3,-.3,.5c-.1,.2,-.2,.3,-.2,.5c-.1,.1,-.2,.3,-.3,.5c-.1,.1,-.2,.3,-.3,.5c-.1,.2,-.2,.4,-.3,.6L750.1,877l-2.2,-.3c-.2,.5,-.3,.9,-.4,1.2c-.1,.4,-.2,.7,-.3,.9c-.1,.3,-.2,.5,-.2,.7c-.1,.2,-.2,.5,-.4,.7c-.1,.3,-.2,.6,-.4,1c-.1,.4,-.4,.8,-.6,1.3l2.2,.6l1.2,-3l2.9,5.2h1.6l.9,-2.4c.1,-.2,.2,-.4,.4,-.7c.1,-.2,.3,-.4,.5,-.8c.2,-.3,.5,-.7,.8,-1.1Zm15.5,12.1c.1,-.4,.1,-.7,.2,-1.1c.1,-.3,.2,-.6,.2,-.9c.1,-.3,.2,-.6,.3,-.9c.1,-.2,.2,-.5,.3,-.8c.1,-.3,.2,-.6,.4,-1c.1,-.4,.2,-.7,.4,-1.1l-1.8,-1.3c-.3,.2,-.5,.4,-.8,.5c-.2,.2,-.5,.3,-.7,.4c-.2,.2,-.5,.3,-.7,.4c-.2,.1,-.5,.2,-.9,.4c-.2,.1,-.6,.2,-1,.4c-.4,.2,-.8,.3,-1.4,.5c-.3,-.6,-.6,-1.2,-.8,-1.7c-.2,-.4,-.4,-.8,-.5,-1.1c-.1,-.3,-.2,-.6,-.3,-.8c-.1,-.2,-.1,-.4,-.2,-.6c0,-.2,-.1,-.4,-.1,-.6c-.1,-.3,-.2,-.5,-.2,-.8l-2.3,-.4c-.1,.4,-.2,.7,-.3,1c-.1,.3,-.3,.5,-.4,.8c-.1,.3,-.2,.5,-.4,.8c-.1,.2,-.3,.5,-.5,.8c-.1,.3,-.3,.6,-.6,1c-.2,.3,-.5,.7,-.8,1.1l2.1,1.3c.2,-.2,.3,-.4,.4,-.6c.2,-.2,.3,-.3,.4,-.5c.1,-.2,.2,-.4,.3,-.5c.1,-.2,.2,-.4,.4,-.6c.1,-.2,.2,-.4,.3,-.6c.1,-.2,.2,-.4,.3,-.6l2.3,5l5.1,-2.1c-.1,.2,-.1,.4,-.2,.6c0,.2,-.1,.4,-.1,.6c-.1,.2,-.1,.3,-.2,.5c0,.2,-.1,.4,-.1,.6c0,.2,-.1,.5,-.1,.7c-.1,.3,-.2,.5,-.2,.8l2.2,.4Zm9.3,3.3c-.2,-.7,-.4,-1.3,-.5,-1.9c-.2,-.5,-.3,-1,-.4,-1.4c-.2,-.5,-.3,-.9,-.3,-1.3c-.1,-.4,-.2,-.8,-.3,-1.2c-.1,-.4,-.1,-.8,-.2,-1.2c-.1,-.4,-.1,-.9,-.2,-1.3l-2.2,-.1l.2,1.2c-.2,.3,-.5,.6,-.8,.8c-.3,.2,-.5,.4,-.8,.6c-.2,.2,-.5,.4,-.7,.6c-.2,.1,-.5,.3,-.8,.5c-.2,.1,-.5,.3,-.8,.4c-.4,.2,-.8,.4,-1.2,.6l1.2,1.6l1.3,-.6l4,1.6l.3,1.2l2.2,-.1ZM778,892.9l-2.2,-.9c.2,-.1,.3,-.1,.4,-.2c.1,-.1,.2,-.2,.3,-.2q.1,-.1,.2,-.2c.1,-.1,.2,-.1,.2,-.2c.1,-.1,.2,-.1,.3,-.2c.1,-.1,.2,-.2,.3,-.3l.5,2.2Zm5.4,4.2l2.3,-5.9l-2.5,-.7c-.1,.4,-.2,.8,-.3,1.2c-.1,.3,-.2,.6,-.3,.9c-.1,.3,-.2,.5,-.3,.8c-.1,.2,-.2,.5,-.4,.8c-.1,.3,-.2,.6,-.4,1c-.1,.4,-.3,.8,-.6,1.2l2.5,.7Zm6.4,1.2l-2.7,-1.1c.2,-.3,.4,-.7,.5,-1c.1,-.3,.3,-.6,.4,-.9c.1,-.3,.2,-.6,.3,-.9c.2,-.3,.3,-.6,.4,-1c.2,-.3,.3,-.7,.5,-1.2c.1,-.4,.3,-.9,.5,-1.5l-2.6,.1c-.1,.4,-.3,.8,-.4,1.2c-.2,.4,-.3,.8,-.4,1.1c-.2,.3,-.3,.6,-.4,1c-.1,.3,-.3,.6,-.4,1c-.2,.3,-.4,.7,-.6,1.2c-.2,.4,-.4,.9,-.7,1.5c.3,0,.6,.1,.9,.2c.3,.1,.5,.2,.8,.3c.2,.1,.5,.2,.7,.3l.7,.2c.1,.1,.3,.2,.6,.3c.2,.1,.5,.2,.7,.3l1.2,-1.1Z" class="g5_19"/>
</g>
<image x="716" y="864" width="9" height="8" xlink:href="shade/1.png"/>
<image x="724" y="868" width="9" height="7" xlink:href="shade/2.png"/>
<image x="732" y="870" width="11" height="9" xlink:href="shade/3.png"/>
<image x="742" y="875" width="4" height="8" xlink:href="shade/4.png"/>
<image x="745" y="876" width="10" height="8" xlink:href="shade/5.png"/>
<image x="758" y="881" width="14" height="7" xlink:href="shade/6.png"/>
<image x="771" y="885" width="10" height="9" xlink:href="shade/7.png"/>
<image x="780" y="890" width="3" height="8" xlink:href="shade/8.png"/>
<image x="784" y="889" width="6" height="9" xlink:href="shade/9.png"/>
<image preserveAspectRatio="none" x="666" y="883" width="127" height="171" xlink:href="img/34.png"/>
<image preserveAspectRatio="none" x="56" y="1026" width="57" height="55" xlink:href="img/35.png"/>
<image preserveAspectRatio="none" x="98" y="1063" width="28" height="35" xlink:href="img/36.png"/>
<path d="M108,1069.7l.2,-.4h.5c.2,0,.3,0,.4,0c.2,0,.3,-.1,.5,-.3c.1,-.2,.3,-.2,.4,-.2c.2,0,.4,0,.6,.2c.1,.2,.3,.3,.5,.3c.5,0,1.5,-.1,2.8,-.4c1.4,-.4,2.3,-.5,3,-.5c.3,0,.5,.2,.5,.5c0,.2,-.1,.4,-.2,.5l-.1,.5c.6,3.3,1,5.2,1,5.9c0,.3,-.2,.5,-.5,.5c-.1,0,-.2,0,-.5,0c-.1,-.1,-.3,0,-.3,0c-.1,.1,-.2,.2,-.3,.4l-.3,.3h-.5l-.3,-.4c-.1,-.2,-.2,-.3,-.5,-.3c-.1,0,-.2,0,-.4,.2c-.2,.1,-.3,.2,-.5,.2l-.4,-.2l-.2,-.4v-5.4l-.1,-.4l-.5,-.1c-.9,.2,-1.6,.3,-2,.5c-.4,.1,-.6,1.5,-.8,4c-.2,1.9,-.3,3.4,-.3,4.5l.2,.5l.4,.1c2.1,-.3,4,-.6,5.6,-.8h1.2c1,0,1.5,.4,1.5,1.3c0,.3,-.2,.6,-.4,.8c-.3,.3,-.5,.5,-.5,.6c0,.3,.1,1,.3,1.8c.1,.9,.2,1.6,.2,2.1v1.3c0,.6,.1,1,.1,1.2c0,3,-.4,4.5,-1,4.5c-.1,0,-.2,0,-.4,0c-.2,0,-.4,-.1,-.5,-.1c-.1,0,-.3,-.1,-.6,-.1c-.7,.3,-1.5,.5,-2.5,.5c-.7,0,-1.8,-.1,-3.2,-.3c0,0,-.1,0,-.3,.1c-.2,.1,-.3,.2,-.4,.2c-.2,0,-.4,-.1,-.5,-.3l-.4,-.2c-.7,0,-1,-.2,-1,-.5c0,-.4,-.1,-.7,-.3,-.8c-.1,-.1,-.5,-.2,-1,-.3c-.1,-.6,-.2,-1.3,-.2,-2v-2.5l.2,-.4l.4,-.1l.4,.1l.2,.5c0,.5,.2,.7,.5,.7c.3,0,.5,-.2,.6,-.5c.1,-.4,.3,-.6,.6,-.6l.4,.2l.2,.4c0,3.1,.2,4.7,.6,4.7c1.2,.2,2.2,.3,3,.3h.4l.4,-.2c0,-.2,0,-.3,0,-.5c0,-4.3,-.3,-7.6,-.9,-10c-.1,-.2,-.3,-.3,-.5,-.3c-.6,0,-1.5,.1,-2.5,.5c-.1,0,-.2,.2,-.4,.5c-.1,.3,-.3,.5,-.6,.5c-.4,-.2,-.6,-.3,-.7,-.3c-.1,0,-.5,.2,-1.1,.6h-.5l-.4,-.3v-.1c0,-.1,0,-.2,0,-.2l-.1,-.4c-.5,-5.2,-.7,-8.4,-.7,-9.4v-1.9l.2,-.4l.4,-.2l.5,.2l.1,.4c0,.6,.2,.9,.5,.9c.1,0,.3,0,.4,-.1l.2,-.5l.1,-.1l.1,-.6Z" class="g0_19"/>
<image preserveAspectRatio="none" x="200" y="946" width="170" height="244" xlink:href="img/37.png"/>
<g clip-path="url(#c2_19)">
<path d="M191.6,1183.7H361.8V930.3H191.6v253.4Z" class="g4_19"/>
</g>
<image preserveAspectRatio="none" x="191" y="931" width="171" height="253" opacity="0.800003" xlink:href="img/38.png"/>
<image preserveAspectRatio="none" x="182" y="926" width="188" height="264" opacity="0.350006" xlink:href="img/39.png"/>
<image preserveAspectRatio="none" x="214" y="949" width="125" height="25" xlink:href="img/40.png"/>
<image preserveAspectRatio="none" x="323" y="1135" width="19" height="26" xlink:href="img/41.png"/>
<image preserveAspectRatio="none" x="211" y="1027" width="47" height="46" xlink:href="img/42.png"/>
<image preserveAspectRatio="none" x="224" y="1062" width="54" height="33" xlink:href="img/43.png"/>
<image preserveAspectRatio="none" x="244" y="1064" width="28" height="28" xlink:href="img/44.png"/>
<image preserveAspectRatio="none" x="211" y="1098" width="47" height="46" xlink:href="img/45.png"/>
<image preserveAspectRatio="none" x="224" y="1133" width="84" height="33" xlink:href="img/46.png"/>
<image preserveAspectRatio="none" x="272" y="1136" width="33" height="25" xlink:href="img/47.png"/>
<image preserveAspectRatio="none" x="244" y="1134" width="28" height="28" xlink:href="img/48.png"/>
<g clip-path="url(#c2_19)">
<path d="M270.2,962.5L267,959.9l3,-1.4l-1.4,-1.4c-.3,.2,-.6,.4,-.9,.5c-.3,.2,-.5,.3,-.7,.4c-.2,.1,-.5,.2,-.6,.3c-.4,.1,-.7,.3,-1,.4c-.3,.1,-.5,.1,-.6,.2c0,-.1,0,-.2,0,-.3v-.3c0,-.3,0,-.7,0,-1.1c0,-.3,-.1,-.7,-.1,-1.2c0,-.5,0,-1,0,-1.6l-2.4,1c0,.4,.1,.9,.1,1.3c0,.4,0,.8,0,1.1c0,.4,0,.7,0,1.1c0,.3,0,.7,0,1.1c0,.4,-.1,.8,-.1,1.3c0,.5,-.1,1,-.1,1.7l2.5,-.2v-1.4c0,-.1,0,-.2,0,-.3q0,-.1,0,-.2c0,-.1,0,-.2,0,-.3l.4,-.1l3.2,2.7l1.9,-.7Zm10.1,1.9c-.6,-.3,-1,-.6,-1.4,-.9c-.4,-.3,-.8,-.6,-1,-.8c-.3,-.2,-.5,-.5,-.7,-.7c-.2,-.2,-.4,-.4,-.5,-.6c-.2,-.1,-.3,-.3,-.5,-.5c-.2,-.2,-.3,-.4,-.4,-.6c.6,-.2,1.1,-.4,1.4,-.6c.3,-.3,.6,-.5,.7,-.7c.2,-.3,.3,-.6,.3,-.9c0,-.2,0,-.5,-.2,-.7c-.1,-.2,-.3,-.3,-.6,-.5c-.2,-.1,-.5,-.2,-.8,-.3c-.4,-.1,-.7,-.2,-1.1,-.2c-.3,-.1,-.7,-.1,-1.1,-.1c-.3,-.1,-.7,-.1,-1,-.1c-.1,0,-.3,0,-.6,.1c-.3,0,-.5,0,-.8,0c-.3,.1,-.6,.1,-.9,.1c-.3,0,-.6,0,-.8,0c.1,.5,.1,.9,.2,1.3c0,.3,0,.6,.1,.9c0,.3,0,.6,0,.8c0,.3,0,.6,0,.9c0,.3,0,.7,0,1.1c-.1,.4,-.1,.9,-.1,1.5h2.4c-.1,-1,-.1,-1.8,-.1,-2.3c0,-.3,0,-.6,0,-.8c0,-.2,0,-.4,0,-.6c0,-.2,0,-.4,0,-.6c0,-.2,.1,-.4,.1,-.6c.3,-.1,.7,-.1,1,-.2c.2,0,.5,0,.7,0c.2,0,.4,0,.5,0c.1,.1,.3,.1,.4,.1c.2,.1,.3,.2,.3,.4c0,.2,0,.4,-.2,.5c-.1,.1,-.3,.3,-.5,.4c-.2,0,-.4,.1,-.6,.2c-.3,0,-.5,.1,-.7,.1c-.2,0,-.4,0,-.5,0c-.1,.1,-.2,.1,-.2,.1c.2,.5,.4,.9,.6,1.3c.3,.4,.5,.7,.6,1c.2,.3,.5,.6,.7,.8c.3,.3,.6,.6,.9,.9c.2,.1,.3,.2,.5,.3c.1,.1,.3,.2,.4,.3c.1,.1,.3,.2,.4,.3c.1,0,.2,.1,.3,.1l2.8,-.2Zm1.1,-1.8v-6.3l-2.5,.3c0,.4,.1,.8,.1,1.2c0,.3,0,.7,0,.9c.1,.3,.1,.6,.1,.9c0,.3,0,.6,0,.9c-.1,.3,-.1,.6,-.1,1c0,.5,0,.9,-.1,1.4l2.5,-.3Zm8.2,-2.7c-.3,-.3,-.6,-.5,-1,-.7c-.3,-.1,-.7,-.2,-1.2,-.3c-.4,-.1,-.8,-.2,-1.2,-.2c-.4,-.1,-.7,-.2,-1,-.2c-.2,-.1,-.3,-.2,-.3,-.4c0,-.1,.1,-.2,.4,-.2c.2,0,.6,0,1.1,0c.5,0,1.2,.1,2.1,.2l1.4,-1.8c-.7,0,-1.2,0,-1.7,-.1c-.5,0,-.8,0,-1.2,0c-.3,0,-.7,0,-.9,0c-.2,-.1,-.5,0,-.7,0c-.3,0,-.6,0,-.9,.1c-.3,0,-.5,.1,-.8,.2c-.3,0,-.6,.2,-.8,.3c-.2,.2,-.4,.3,-.5,.6c-.2,.2,-.2,.4,-.2,.7c0,.4,.1,.8,.4,1.1c.2,.3,.5,.5,.9,.7c.4,.1,.8,.2,1.2,.3c.5,.1,.9,.2,1.3,.2c.3,.1,.7,.1,.9,.2c.3,.1,.4,.2,.4,.3c0,.2,-.2,.2,-.5,.3c-.1,0,-.3,0,-.4,0c-.2,0,-.5,0,-.7,0c-.3,0,-.6,0,-1,-.1c-.3,-.1,-.8,-.1,-1.2,-.2l-1.2,1.9c.4,0,.9,0,1.3,.1c.5,0,.9,0,1.2,0c.4,0,.7,0,1.1,0c.4,.1,.8,0,1.3,0c.5,0,.9,-.1,1.3,-.2c.5,-.1,.8,-.3,1.1,-.6c.2,-.2,.4,-.6,.4,-1c0,-.5,-.2,-.9,-.4,-1.2Z" class="g5_19"/>
</g>
<image x="262" y="954" width="9" height="10" xlink:href="shade/10.png"/>
<image x="270" y="956" width="12" height="9" xlink:href="shade/11.png"/>
<image x="278" y="956" width="4" height="8" xlink:href="shade/12.png"/>
<image x="282" y="956" width="9" height="8" xlink:href="shade/13.png"/>
<image preserveAspectRatio="none" x="246" y="964" width="95" height="179" xlink:href="img/49.png"/>
<image preserveAspectRatio="none" x="429" y="946" width="168" height="244" xlink:href="img/50.png"/>
<g clip-path="url(#c3_19)">
<path d="M419.7,1183.7H589.9V930.3H419.7v253.4Z" class="g4_19"/>
</g>
<image preserveAspectRatio="none" x="419" y="931" width="171" height="253" opacity="0.800003" xlink:href="img/51.png"/>
<image preserveAspectRatio="none" x="410" y="926" width="189" height="264" opacity="0.350006" xlink:href="img/52.png"/>
<image preserveAspectRatio="none" x="442" y="949" width="125" height="25" xlink:href="img/53.png"/>
<image preserveAspectRatio="none" x="551" y="1135" width="19" height="26" xlink:href="img/54.png"/>
<image preserveAspectRatio="none" x="452" y="1133" width="54" height="32" xlink:href="img/55.png"/>
<image preserveAspectRatio="none" x="439" y="1098" width="47" height="46" xlink:href="img/56.png"/>
<image preserveAspectRatio="none" x="452" y="1133" width="52" height="31" xlink:href="img/57.png"/>
<image preserveAspectRatio="none" x="472" y="1134" width="28" height="28" xlink:href="img/58.png"/>
<g clip-path="url(#c3_19)">
<path d="M474.9,956.3h-6.5c-.4,.5,-.8,1,-1,1.5c-.3,.4,-.4,.8,-.5,1.1c-.2,.4,-.2,.8,-.2,1.1c0,.4,.1,.8,.4,1.2c.3,.3,.6,.6,1,.8c.5,.3,.9,.5,1.4,.6c.5,.2,1,.3,1.4,.4c.5,.1,.9,.2,1.2,.2c.3,.1,.5,.1,.5,.1l1.9,-2c-.7,0,-1.3,0,-1.8,-.1c-.5,0,-1,-.1,-1.3,-.2c-.4,0,-.7,-.1,-1,-.2c-.3,-.1,-.5,-.2,-.6,-.3c-.4,-.2,-.7,-.5,-.7,-.7c0,-.2,0,-.4,.1,-.6c0,-.2,.1,-.3,.2,-.5c.1,-.1,.1,-.2,.2,-.3c.1,-.1,.1,-.2,.1,-.2h4.4l.8,-1.9Zm10.4,8.1c-.6,-.3,-1.1,-.6,-1.5,-.9c-.4,-.3,-.7,-.6,-.9,-.8c-.3,-.2,-.6,-.5,-.8,-.7c-.1,-.2,-.3,-.4,-.5,-.6c-.1,-.1,-.3,-.3,-.4,-.5c-.2,-.2,-.3,-.4,-.5,-.6c.6,-.2,1.1,-.4,1.5,-.6c.3,-.3,.5,-.5,.7,-.7c.2,-.3,.3,-.6,.3,-.9c0,-.2,-.1,-.5,-.2,-.7c-.2,-.2,-.4,-.3,-.6,-.5c-.3,-.1,-.6,-.2,-.9,-.3c-.3,-.1,-.7,-.2,-1,-.2c-.4,-.1,-.7,-.1,-1.1,-.1c-.4,-.1,-.7,-.1,-1,-.1c-.2,0,-.4,0,-.6,.1c-.3,0,-.6,0,-.9,0c-.2,.1,-.5,.1,-.8,.1c-.3,0,-.6,0,-.8,0c0,.5,.1,.9,.1,1.3c.1,.3,.1,.6,.1,.9c0,.3,.1,.6,.1,.8c0,.3,-.1,.6,-.1,.9c0,.3,0,.7,0,1.1c0,.4,0,.9,-.1,1.5h2.4c0,-1,0,-1.8,0,-2.3c-.1,-.3,-.1,-.6,-.1,-.8c0,-.2,0,-.4,.1,-.6c0,-.2,0,-.4,0,-.6c0,-.2,0,-.4,0,-.6c.4,-.1,.7,-.1,1,-.2c.3,0,.5,0,.7,0c.2,0,.4,0,.6,0c.1,.1,.2,.1,.3,.1c.2,.1,.4,.2,.4,.4c0,.2,-.1,.4,-.2,.5c-.2,.1,-.3,.3,-.5,.4c-.2,0,-.4,.1,-.7,.2c-.2,0,-.4,.1,-.6,.1c-.3,0,-.4,0,-.6,0c-.1,.1,-.2,.1,-.1,.1c.2,.5,.4,.9,.6,1.3c.2,.4,.4,.7,.6,1c.2,.3,.4,.6,.6,.8c.4,.3,.7,.6,1,.9c.1,.1,.3,.2,.4,.3c.2,.1,.3,.2,.5,.3c.1,.1,.2,.2,.4,.3c.1,0,.2,.1,.3,.1l2.8,-.2Zm6.7,-6.3c-.2,-.2,-.4,-.4,-.6,-.5c-.2,-.2,-.5,-.4,-.8,-.6c-.3,-.2,-.7,-.3,-1.1,-.5c-.5,-.1,-1,-.2,-1.5,-.3c-.6,.1,-1.1,.2,-1.6,.4c-.4,.1,-.8,.3,-1.2,.4c-.3,.2,-.6,.4,-.8,.6c-.2,.2,-.4,.4,-.6,.6c-.3,.5,-.5,.9,-.6,1.5c.1,.5,.3,1,.6,1.4c.2,.2,.4,.4,.6,.6c.2,.2,.5,.4,.8,.6c.4,.2,.8,.3,1.2,.5c.5,.1,1,.2,1.6,.3c.5,-.1,1,-.2,1.5,-.3c.4,-.1,.8,-.3,1.1,-.5c.3,-.2,.6,-.3,.8,-.5c.2,-.3,.4,-.5,.6,-.7c.3,-.4,.5,-.9,.5,-1.5c0,-.5,-.2,-1,-.5,-1.5Zm-2.1,2.2c-.1,.2,-.3,.3,-.5,.5c-.2,.1,-.4,.2,-.7,.3c-.3,0,-.5,.1,-.7,.1c-.3,0,-.5,-.1,-.8,-.1c-.2,-.1,-.4,-.2,-.6,-.4c-.2,-.1,-.4,-.3,-.5,-.5c-.2,-.2,-.2,-.4,-.2,-.6c0,-.2,0,-.4,.2,-.5c.1,-.2,.3,-.4,.5,-.5c.2,-.2,.4,-.3,.7,-.3c.2,-.1,.5,-.2,.6,-.2c.3,0,.6,.1,.9,.2c.2,0,.5,.1,.7,.3c.1,.1,.3,.2,.4,.4c.1,.2,.2,.4,.2,.6c0,.3,-.1,.5,-.2,.7Zm10.1,-.4c-.3,-.3,-.6,-.5,-1,-.7c-.4,-.1,-.8,-.2,-1.2,-.3c-.5,-.1,-.9,-.2,-1.3,-.2c-.3,-.1,-.6,-.2,-.9,-.2c-.3,-.1,-.4,-.2,-.4,-.4c.1,-.1,.2,-.2,.5,-.2c.2,0,.6,0,1.1,0c.5,0,1.2,.1,2.1,.2l1.3,-1.8c-.6,0,-1.2,0,-1.6,-.1c-.5,0,-.9,0,-1.2,0c-.4,0,-.7,0,-.9,0c-.3,-.1,-.5,0,-.8,0c-.2,0,-.5,0,-.8,.1c-.3,0,-.6,.1,-.9,.2c-.2,0,-.5,.2,-.7,.3c-.2,.2,-.4,.3,-.6,.6c-.1,.2,-.2,.4,-.2,.7c0,.4,.2,.8,.4,1.1c.3,.3,.6,.5,1,.7c.3,.1,.8,.2,1.2,.3c.4,.1,.9,.2,1.2,.2c.4,.1,.7,.1,1,.2c.2,.1,.4,.2,.4,.3c-.1,.2,-.2,.2,-.5,.3c-.1,0,-.3,0,-.5,0c-.2,0,-.4,0,-.7,0c-.2,0,-.5,0,-.9,-.1c-.4,-.1,-.8,-.1,-1.3,-.2l-1.2,1.9c.5,0,1,0,1.4,.1c.4,0,.8,0,1.2,0c.3,0,.7,0,1,0c.4,.1,.9,0,1.4,0c.5,0,.9,-.1,1.3,-.2c.4,-.1,.8,-.3,1,-.6c.3,-.2,.4,-.6,.4,-1c0,-.5,-.1,-.9,-.3,-1.2Zm7.4,0c-.2,-.3,-.6,-.5,-.9,-.7c-.4,-.1,-.8,-.2,-1.3,-.3c-.4,-.1,-.8,-.2,-1.2,-.2c-.4,-.1,-.7,-.2,-.9,-.2c-.3,-.1,-.4,-.2,-.4,-.4c0,-.1,.2,-.2,.4,-.2c.3,0,.6,0,1.1,0c.5,0,1.3,.1,2.2,.2l1.3,-1.8c-.6,0,-1.2,0,-1.7,-.1c-.4,0,-.8,0,-1.1,0c-.4,0,-.7,0,-1,0c-.2,-.1,-.4,0,-.7,0c-.3,0,-.6,0,-.8,.1c-.3,0,-.6,.1,-.9,.2c-.3,0,-.5,.2,-.8,.3c-.2,.2,-.4,.3,-.5,.6c-.1,.2,-.2,.4,-.2,.7c0,.4,.1,.8,.4,1.1c.2,.3,.6,.5,.9,.7c.4,.1,.8,.2,1.3,.3c.4,.1,.8,.2,1.2,.2c.4,.1,.7,.1,.9,.2c.3,.1,.4,.2,.4,.3c0,.2,-.2,.2,-.5,.3c-.1,0,-.2,0,-.4,0c-.2,0,-.4,0,-.7,0c-.3,0,-.6,0,-.9,-.1c-.4,-.1,-.8,-.1,-1.3,-.2l-1.2,1.9c.5,0,.9,0,1.4,.1c.4,0,.8,0,1.1,0c.4,0,.8,0,1.1,0c.4,.1,.9,0,1.3,0c.5,0,1,-.1,1.4,-.2c.4,-.1,.7,-.3,1,-.6c.3,-.2,.4,-.6,.4,-1c0,-.5,-.1,-.9,-.4,-1.2Zm9.6,.3c-.1,-.2,-.2,-.4,-.4,-.5c-.2,-.2,-.5,-.3,-.9,-.3c.2,-.1,.3,-.2,.3,-.4c.1,-.1,.2,-.3,.2,-.4c0,-.1,.1,-.3,.1,-.5c0,-.3,-.1,-.5,-.4,-.8c-.2,-.2,-.5,-.4,-.9,-.6c-.4,-.1,-.8,-.2,-1.4,-.3c-.5,-.1,-1.1,-.1,-1.8,-.1c-.4,0,-.8,0,-1.2,0c-.4,0,-.8,0,-1.1,0c-.4,.1,-.7,.1,-1,.1c0,.5,.1,.9,.1,1.3c0,.4,0,.7,0,1c.1,.3,.1,.6,.1,.9c0,.2,0,.5,-.1,.9c0,.2,0,.6,0,1c0,.4,0,.9,-.1,1.4c.3,0,.5,0,.7,0c.3,0,.5,.1,.8,.1c.2,0,.5,0,.7,0c.3,0,.5,0,.8,0c.5,0,1.1,0,1.6,0c1.4,0,2.4,-.1,3.1,-.5c.6,-.4,1,-.9,1,-1.6c0,-.3,-.1,-.5,-.2,-.7Zm-3.1,1.2c-.2,.1,-.7,.2,-1.4,.1c-.2,0,-.3,0,-.5,0c-.2,0,-.3,0,-.5,0c-.2,0,-.4,0,-.6,-.1c0,-.2,0,-.5,0,-.7V958c.6,-.1,1.1,-.1,1.5,-.1c.2,0,.4,0,.6,0c.1,0,.3,.1,.4,.1c.2,.1,.3,.1,.4,.2c.1,.1,.1,.2,.1,.3c0,.2,-.1,.3,-.2,.4c-.2,.1,-.4,.2,-.6,.3c-.3,.1,-.7,.1,-1.2,.1l1,1.2c.1,0,.2,0,.3,0q.1,0,.2,-.1q.1,0,.2,0c0,0,.1,0,.2,0c0,-.1,.1,-.1,.1,-.1c.1,0,.2,0,.3,-.1c.1,.1,.1,.2,.2,.3q0,.1,0,.2c0,.3,-.2,.5,-.5,.7ZM526,958.1c-.2,-.2,-.4,-.4,-.6,-.5c-.2,-.2,-.5,-.4,-.8,-.6c-.3,-.2,-.7,-.3,-1.1,-.5c-.4,-.1,-.9,-.2,-1.5,-.3c-.6,.1,-1.1,.2,-1.6,.4c-.4,.1,-.8,.3,-1.2,.4c-.3,.2,-.6,.4,-.8,.6c-.2,.2,-.4,.4,-.6,.6c-.3,.5,-.5,.9,-.6,1.5c.1,.5,.3,1,.6,1.4c.2,.2,.4,.4,.6,.6c.2,.2,.5,.4,.8,.6c.4,.2,.8,.3,1.2,.5c.5,.1,1,.2,1.6,.3c.6,-.1,1.1,-.2,1.5,-.3c.4,-.1,.8,-.3,1.1,-.5c.3,-.2,.6,-.3,.8,-.5c.2,-.3,.4,-.5,.6,-.7c.3,-.4,.5,-.9,.5,-1.5c0,-.5,-.2,-1,-.5,-1.5Zm-2.1,2.2c-.1,.2,-.3,.3,-.5,.5c-.2,.1,-.4,.2,-.7,.3c-.2,0,-.5,.1,-.7,.1c-.3,0,-.5,-.1,-.7,-.1c-.3,-.1,-.5,-.2,-.7,-.4c-.2,-.1,-.4,-.3,-.5,-.5c-.2,-.2,-.2,-.4,-.2,-.6c0,-.2,0,-.4,.2,-.5c.1,-.2,.3,-.4,.5,-.5c.2,-.2,.4,-.3,.7,-.3c.2,-.1,.5,-.2,.6,-.2c.3,0,.6,.1,.9,.2c.2,0,.5,.1,.7,.3c.2,.1,.3,.2,.4,.4c.2,.2,.2,.4,.2,.6c0,.3,-.1,.5,-.2,.7Zm16.6,-3.2c-.2,0,-.3,-.1,-.4,-.1c-.1,-.1,-.3,-.1,-.4,-.1c-.1,-.1,-.3,-.1,-.4,-.1c-.2,0,-.3,0,-.5,0c-.2,-.1,-.4,-.1,-.6,-.1c0,.4,0,.7,0,1c-.1,.2,-.1,.5,-.1,.7c-.1,.2,-.1,.4,-.2,.6c0,.2,-.1,.4,-.2,.6c0,.2,-.1,.4,-.2,.6c-.1,.2,-.3,.4,-.4,.6c-.2,-.1,-.5,-.3,-.7,-.4c-.2,-.2,-.4,-.4,-.5,-.6c-.2,-.2,-.4,-.4,-.5,-.6c-.1,-.2,-.3,-.4,-.4,-.7c-.1,-.2,-.1,-.4,-.2,-.7c-.1,-.2,-.1,-.5,-.1,-.8l-2,.2c0,.2,-.1,.4,-.2,.7c0,.2,-.1,.5,-.2,.7c-.1,.2,-.2,.4,-.4,.6c-.1,.2,-.3,.4,-.5,.6c-.1,.2,-.3,.4,-.5,.6c-.2,.1,-.5,.3,-.7,.4c-.1,-.2,-.3,-.4,-.4,-.6c-.1,-.2,-.1,-.4,-.2,-.6c-.1,-.2,-.2,-.4,-.2,-.6c-.1,-.2,-.1,-.4,-.2,-.6c0,-.2,0,-.5,-.1,-.7c0,-.3,0,-.6,0,-1c-.2,0,-.4,0,-.6,.1c-.1,0,-.3,0,-.4,0c-.2,0,-.4,0,-.5,.1c-.1,0,-.3,0,-.4,.1c-.1,0,-.2,.1,-.4,.1c-.1,.1,-.2,.2,-.3,.2c.1,.5,.2,1,.3,1.3c.1,.4,.2,.7,.3,1c.1,.3,.2,.6,.3,.8c.1,.2,.2,.4,.3,.7c.2,.2,.3,.5,.5,.8c.2,.3,.4,.7,.7,1.1c.4,-.1,.8,-.1,1.2,-.3c.4,-.1,.7,-.3,.9,-.4c.3,-.2,.6,-.4,.8,-.7c.3,-.2,.5,-.4,.7,-.7c.2,-.2,.4,-.4,.6,-.6c.2,-.2,.4,-.5,.6,-.7c.1,.2,.3,.5,.5,.7c.2,.2,.4,.4,.6,.6c.2,.3,.4,.5,.7,.7c.2,.3,.5,.5,.8,.7c.3,.1,.6,.3,.9,.4c.4,.2,.8,.2,1.2,.3c.3,-.4,.5,-.8,.7,-1.1c.2,-.3,.3,-.6,.5,-.8c.1,-.3,.3,-.5,.4,-.7c0,-.2,.1,-.5,.2,-.8c.1,-.3,.2,-.6,.3,-1c.1,-.3,.2,-.8,.3,-1.3c-.1,0,-.2,-.1,-.3,-.2Z" class="g5_19"/>
</g>
<image x="466" y="956" width="9" height="8" xlink:href="shade/14.png"/>
<image x="475" y="956" width="11" height="9" xlink:href="shade/15.png"/>
<image x="483" y="956" width="10" height="8" xlink:href="shade/16.png"/>
<image x="492" y="956" width="9" height="8" xlink:href="shade/17.png"/>
<image x="500" y="956" width="9" height="8" xlink:href="shade/18.png"/>
<image x="508" y="956" width="10" height="8" xlink:href="shade/19.png"/>
<image x="517" y="956" width="11" height="8" xlink:href="shade/20.png"/>
<image x="526" y="956" width="16" height="7" xlink:href="shade/21.png"/>
<image preserveAspectRatio="none" x="429" y="966" width="174" height="179" xlink:href="img/59.png"/>
<path d="M332,1173.2c13.5,0,24.4,-10.8,24.4,-24.3c0,-13.4,-10.9,-24.3,-24.4,-24.3c-13.4,0,-24.3,10.9,-24.3,24.3c0,13.5,10.9,24.3,24.3,24.3Zm227.3,0c13.4,0,24.3,-10.8,24.3,-24.3c0,-13.4,-10.9,-24.3,-24.3,-24.3c-13.4,0,-24.3,10.9,-24.3,24.3c0,13.5,10.9,24.3,24.3,24.3Zm176.4,-70.8c13.5,0,24.4,-10.9,24.4,-24.4c0,-13.4,-10.9,-24.3,-24.4,-24.3c-13.4,0,-24.3,10.9,-24.3,24.3c0,13.5,10.9,24.4,24.3,24.4Z" class="g6_19"/>
<image preserveAspectRatio="none" x="457" y="312" width="454" height="151" xlink:href="img/60.png"/>
<path d="M469.9,352.1H853.1" class="g7_19"/>
</svg>