<?xml version="1.0" encoding="UTF-8" standalone="no"?>
<!DOCTYPE svg PUBLIC "-//W3C//DTD SVG 1.1//EN"
"http://www.w3.org/Graphics/SVG/1.1/DTD/svg11.dtd">
<svg viewBox="0 0 909 1286" version="1.1" xmlns="http://www.w3.org/2000/svg" xmlns:xlink="http://www.w3.org/1999/xlink">
<defs>
<clipPath id="c0_16"><path d="M0,268.5V.5H267.5v268Z"/></clipPath>
<clipPath id="c1_16"><path d="M266.8,268.5V.5H535.2v268Z"/></clipPath>
<clipPath id="c2_16"><path d="M534.4,268.5V.5H802.6v268Z"/></clipPath>
<clipPath id="c3_16"><path d="M801.9,697.2V.5H909V697.2Z"/></clipPath>
<clipPath id="c4_16"><path d="M0,536.2V267.8H267.5V536.2Z"/></clipPath>
<clipPath id="c5_16"><path d="M266.9,536.1V267.9H535.1V536.1Z"/></clipPath>
<clipPath id="c6_16"><path d="M534.5,536.1V267.9h268V536.1Z"/></clipPath>
<clipPath id="c7_16"><path d="M0,804.2V535.5H267.5V804.2Z"/></clipPath>
<clipPath id="c8_16"><path d="M266.9,804.1V535.6H535.1V804.1Z"/></clipPath>
<clipPath id="c9_16"><path d="M534.5,804.1V535.6h268V804.1Z"/></clipPath>
<clipPath id="ca_16"><path d="M801.9,1285.8V696.4H909v589.4Z"/></clipPath>
<clipPath id="cb_16"><path d="M0,1072.1V803.5H267.5v268.6Z"/></clipPath>
<clipPath id="cc_16"><path d="M266.9,1072V803.5H535.1V1072Z"/></clipPath>
<clipPath id="cd_16"><path d="M534.5,1072V803.5h268V1072Z"/></clipPath>
<clipPath id="ce_16"><path d="M0,1285.8V1071.3H321.2v214.5Z"/></clipPath>
<clipPath id="cf_16"><path d="M320.5,1285.8V1071.3H642.2v214.5Z"/></clipPath>
<clipPath id="cg_16"><path d="M641.5,1285.8V1071.3H802.6v214.5Z"/></clipPath>
</defs>
<image clip-path="url(#c0_16)" preserveAspectRatio="none" x="0" y="0" width="268" height="269" xlink:href="img/1.jpg"/>
<image clip-path="url(#c1_16)" preserveAspectRatio="none" x="267" y="0" width="268" height="269" xlink:href="img/2.jpg"/>
<image clip-path="url(#c2_16)" preserveAspectRatio="none" x="534" y="0" width="269" height="269" xlink:href="img/3.jpg"/>
<image clip-path="url(#c3_16)" preserveAspectRatio="none" x="802" y="0" width="108" height="697" xlink:href="img/4.jpg"/>
<image clip-path="url(#c4_16)" preserveAspectRatio="none" x="0" y="268" width="268" height="268" xlink:href="img/5.jpg"/>
<image clip-path="url(#c5_16)" preserveAspectRatio="none" x="267" y="268" width="268" height="268" xlink:href="img/6.jpg"/>
<image clip-path="url(#c6_16)" preserveAspectRatio="none" x="534" y="268" width="269" height="268" xlink:href="img/7.jpg"/>
<image clip-path="url(#c7_16)" preserveAspectRatio="none" x="0" y="535" width="268" height="269" xlink:href="img/8.jpg"/>
<image clip-path="url(#c8_16)" preserveAspectRatio="none" x="267" y="535" width="268" height="269" xlink:href="img/9.jpg"/>
<image clip-path="url(#c9_16)" preserveAspectRatio="none" x="534" y="535" width="269" height="269" xlink:href="img/10.jpg"/>
<image clip-path="url(#ca_16)" preserveAspectRatio="none" x="802" y="696" width="108" height="590" xlink:href="img/11.jpg"/>
<image clip-path="url(#cb_16)" preserveAspectRatio="none" x="0" y="803" width="268" height="269" xlink:href="img/12.jpg"/>
<image clip-path="url(#cc_16)" preserveAspectRatio="none" x="267" y="803" width="268" height="269" xlink:href="img/13.jpg"/>
<image clip-path="url(#cd_16)" preserveAspectRatio="none" x="534" y="803" width="269" height="269" xlink:href="img/14.jpg"/>
<image clip-path="url(#ce_16)" preserveAspectRatio="none" x="0" y="1071" width="321" height="215" xlink:href="img/15.jpg"/>
<image clip-path="url(#cf_16)" preserveAspectRatio="none" x="320" y="1071" width="322" height="215" xlink:href="img/16.jpg"/>
<image clip-path="url(#cg_16)" preserveAspectRatio="none" x="641" y="1071" width="162" height="215" xlink:href="img/17.jpg"/>
</svg>