<?xml version="1.0" encoding="UTF-8" standalone="no"?>
<!DOCTYPE svg PUBLIC "-//W3C//DTD SVG 1.1//EN"
"http://www.w3.org/Graphics/SVG/1.1/DTD/svg11.dtd">
<svg viewBox="0 0 908 1285" version="1.1" xmlns="http://www.w3.org/2000/svg" xmlns:xlink="http://www.w3.org/1999/xlink">
<defs>
<clipPath id="c0_25"><path d="M-33.1,237.3V-33.1H292.2V237.3Z"/></clipPath>
<clipPath id="c1_25"><path d="M291.5,237.3V-33.1H617.2V237.3Z"/></clipPath>
<clipPath id="c2_25"><path d="M616.5,237.3V-33.1H941.8V237.3Z"/></clipPath>
<clipPath id="c3_25"><path d="M-33.1,507.8V236.6H292.2V507.8Z"/></clipPath>
<clipPath id="c4_25"><path d="M616.5,507.8V236.6H941.8V507.8Z"/></clipPath>
<clipPath id="c5_25"><path d="M-33.1,778.3V507.1H292.2V778.3Z"/></clipPath>
<clipPath id="c6_25"><path d="M616.5,778.3V507.1H941.8V778.3Z"/></clipPath>
<clipPath id="c7_25"><path d="M-33.1,1048.8V777.6H292.2v271.2Z"/></clipPath>
<clipPath id="c8_25"><path d="M616.5,1048.8V777.6H941.8v271.2Z"/></clipPath>
<clipPath id="c9_25"><path d="M-33.1,1318.7V1048.2H292.2v270.5Z"/></clipPath>
<clipPath id="ca_25"><path d="M291.5,1318.7V1048.2H617.2v270.5Z"/></clipPath>
<clipPath id="cb_25"><path d="M616.5,1318.7V1048.2H941.8v270.5Z"/></clipPath>
</defs>
<image clip-path="url(#c0_25)" preserveAspectRatio="none" x="-33" y="-33" width="325" height="270" xlink:href="img/1.jpg"/>
<image clip-path="url(#c1_25)" preserveAspectRatio="none" x="291" y="-33" width="326" height="270" xlink:href="img/2.jpg"/>
<image clip-path="url(#c2_25)" preserveAspectRatio="none" x="617" y="-33" width="326" height="270" xlink:href="img/3.jpg"/>
<image clip-path="url(#c3_25)" preserveAspectRatio="none" x="-33" y="237" width="325" height="271" xlink:href="img/4.jpg"/>
<image preserveAspectRatio="none" x="291" y="237" width="326" height="271" xlink:href="img/5.jpg"/>
<image clip-path="url(#c4_25)" preserveAspectRatio="none" x="617" y="237" width="326" height="271" xlink:href="img/6.jpg"/>
<image clip-path="url(#c5_25)" preserveAspectRatio="none" x="-33" y="507" width="325" height="271" xlink:href="img/7.jpg"/>
<image preserveAspectRatio="none" x="291" y="507" width="326" height="271" xlink:href="img/8.jpg"/>
<image clip-path="url(#c6_25)" preserveAspectRatio="none" x="617" y="507" width="326" height="271" xlink:href="img/9.jpg"/>
<image clip-path="url(#c7_25)" preserveAspectRatio="none" x="-33" y="778" width="325" height="271" xlink:href="img/10.jpg"/>
<image preserveAspectRatio="none" x="291" y="778" width="326" height="271" xlink:href="img/11.jpg"/>
<image clip-path="url(#c8_25)" preserveAspectRatio="none" x="617" y="778" width="326" height="271" xlink:href="img/12.jpg"/>
<image clip-path="url(#c9_25)" preserveAspectRatio="none" x="-33" y="1048" width="325" height="271" xlink:href="img/13.jpg"/>
<image clip-path="url(#ca_25)" preserveAspectRatio="none" x="291" y="1048" width="326" height="271" xlink:href="img/14.jpg"/>
<image clip-path="url(#cb_25)" preserveAspectRatio="none" x="617" y="1048" width="326" height="271" xlink:href="img/15.jpg"/>
<image preserveAspectRatio="none" x="35" y="50" width="89" height="54" xlink:href="img/16.jpg"/>
<image preserveAspectRatio="none" x="697" y="124" width="150" height="124" xlink:href="img/17.jpg"/>
<image preserveAspectRatio="none" x="36" y="128" width="34" height="27" xlink:href="img/18.jpg"/>
<image preserveAspectRatio="none" x="36" y="205" width="34" height="26" xlink:href="img/19.jpg"/>
<image preserveAspectRatio="none" x="36" y="282" width="34" height="26" xlink:href="img/20.jpg"/>
<image preserveAspectRatio="none" x="21" y="351" width="82" height="79" xlink:href="img/21.jpg"/>
<image preserveAspectRatio="none" x="402" y="369" width="41" height="59" xlink:href="img/22.jpg"/>
<image preserveAspectRatio="none" x="290" y="931" width="151" height="128" xlink:href="img/23.jpg"/>
<image preserveAspectRatio="none" x="290" y="1108" width="202" height="139" xlink:href="img/24.jpg"/>
<image preserveAspectRatio="none" x="35" y="644" width="406" height="204" xlink:href="img/25.jpg"/>
</svg>