<?xml version="1.0" encoding="UTF-8" standalone="no"?>
<!DOCTYPE svg PUBLIC "-//W3C//DTD SVG 1.1//EN"
"http://www.w3.org/Graphics/SVG/1.1/DTD/svg11.dtd">
<svg viewBox="0 0 909 1286" version="1.1" xmlns="http://www.w3.org/2000/svg" xmlns:xlink="http://www.w3.org/1999/xlink">
<defs>
<style type="text/css"><![CDATA[
.g0{
fill: none;
stroke: #000000;
stroke-width: 0.916;
stroke-linecap: butt;
stroke-linejoin: miter;
stroke-miterlimit: 4;
}
]]></style>
</defs>
<image preserveAspectRatio="none" x="-21" y="-21" width="932" height="1329" xlink:href="../1/img/1.png"/>
<path d="M56.3,130.3H439.6M56.3,976.5H439.6M469.9,130.3H853.1m-383.2,450H853.1" class="g0"/>
<image preserveAspectRatio="none" x="717" y="635" width="21" height="22" xlink:href="img/2.png"/>
<image preserveAspectRatio="none" x="717" y="634" width="19" height="19" xlink:href="img/3.png"/>
<image preserveAspectRatio="none" x="681" y="817" width="23" height="23" xlink:href="img/4.png"/>
<image preserveAspectRatio="none" x="683" y="817" width="18" height="17" xlink:href="img/5.png"/>
<path d="M469.9,976.2H853.1" class="g0"/>
<image preserveAspectRatio="none" x="470" y="661" width="56" height="55" xlink:href="img/6.png"/>
<image preserveAspectRatio="none" x="56" y="139" width="57" height="55" xlink:href="img/7.png"/>
<image preserveAspectRatio="none" x="56" y="206" width="57" height="55" xlink:href="img/8.png"/>
<image preserveAspectRatio="none" x="56" y="359" width="57" height="55" xlink:href="img/9.png"/>
<image preserveAspectRatio="none" x="56" y="281" width="57" height="55" xlink:href="img/10.png"/>
<image preserveAspectRatio="none" x="56" y="444" width="57" height="55" xlink:href="img/11.png"/>
<image preserveAspectRatio="none" x="56" y="566" width="57" height="55" xlink:href="img/12.png"/>
<image preserveAspectRatio="none" x="56" y="681" width="57" height="55" xlink:href="img/13.png"/>
<image preserveAspectRatio="none" x="56" y="756" width="57" height="55" xlink:href="img/14.png"/>
<image preserveAspectRatio="none" x="56" y="1001" width="57" height="55" xlink:href="img/15.png"/>
<image preserveAspectRatio="none" x="470" y="797" width="56" height="55" xlink:href="img/16.png"/>
<image preserveAspectRatio="none" x="56" y="1079" width="57" height="55" xlink:href="img/17.png"/>
<image preserveAspectRatio="none" x="470" y="165" width="56" height="55" xlink:href="img/18.png"/>
<image preserveAspectRatio="none" x="470" y="251" width="56" height="55" xlink:href="img/19.png"/>
<image preserveAspectRatio="none" x="470" y="374" width="56" height="55" xlink:href="img/20.png"/>
<image preserveAspectRatio="none" x="470" y="488" width="56" height="55" xlink:href="img/21.png"/>
<image preserveAspectRatio="none" x="102" y="30" width="706" height="53" xlink:href="img/22.png"/>
<image preserveAspectRatio="none" x="56" y="862" width="57" height="55" xlink:href="img/23.png"/>
<image preserveAspectRatio="none" x="56" y="1147" width="57" height="55" xlink:href="img/24.png"/>
<image preserveAspectRatio="none" x="470" y="879" width="56" height="55" xlink:href="img/25.png"/>
<image preserveAspectRatio="none" x="470" y="1002" width="56" height="55" xlink:href="img/26.png"/>
<image preserveAspectRatio="none" x="470" y="1072" width="56" height="53" xlink:href="img/27.png"/>
</svg>