<?xml version="1.0" encoding="UTF-8" standalone="no"?>
<!DOCTYPE svg PUBLIC "-//W3C//DTD SVG 1.1//EN"
"http://www.w3.org/Graphics/SVG/1.1/DTD/svg11.dtd">
<svg viewBox="0 0 908 1285" version="1.1" xmlns="http://www.w3.org/2000/svg" xmlns:xlink="http://www.w3.org/1999/xlink">
<defs>
<clipPath id="c0_14"><path d="M-32.8,183.5V-32.8H183.7V183.5Z"/></clipPath>
<clipPath id="c1_14"><path d="M183.2,183.5V-32.8H400.4V183.5Z"/></clipPath>
<clipPath id="c2_14"><path d="M399.8,183.5V-32.8H617V183.5Z"/></clipPath>
<clipPath id="c3_14"><path d="M616.5,183.5V-32.8H833.6V183.5Z"/></clipPath>
<clipPath id="c4_14"><path d="M833.1,453.7V-32.8H941.5V453.7Z"/></clipPath>
<clipPath id="c5_14"><path d="M-32.8,399.6V182.9H183.7V399.6Z"/></clipPath>
<clipPath id="c6_14"><path d="M-32.8,615.9V399H183.7V615.9Z"/></clipPath>
<clipPath id="c7_14"><path d="M833.1,940.5V453.1H941.5V940.5Z"/></clipPath>
<clipPath id="c8_14"><path d="M-32.8,832.3V615.4H183.7V832.3Z"/></clipPath>
<clipPath id="c9_14"><path d="M-32.8,1048.4V831.8H183.7v216.6Z"/></clipPath>
<clipPath id="ca_14"><path d="M833.1,1318.3V939.9H941.5v378.4Z"/></clipPath>
<clipPath id="cb_14"><path d="M-32.8,1264.7V1047.9H183.7v216.8Z"/></clipPath>
<clipPath id="cc_14"><path d="M-32.8,1318.3v-54.1H833.6v54.1Z"/></clipPath>
</defs>
<image clip-path="url(#c0_14)" preserveAspectRatio="none" x="-32" y="-32" width="216" height="215" xlink:href="img/1.jpg"/>
<image clip-path="url(#c1_14)" preserveAspectRatio="none" x="183" y="-32" width="217" height="215" xlink:href="img/2.jpg"/>
<image clip-path="url(#c2_14)" preserveAspectRatio="none" x="400" y="-32" width="217" height="215" xlink:href="img/3.jpg"/>
<image clip-path="url(#c3_14)" preserveAspectRatio="none" x="616" y="-32" width="218" height="215" xlink:href="img/4.jpg"/>
<image clip-path="url(#c4_14)" preserveAspectRatio="none" x="833" y="-32" width="109" height="486" xlink:href="img/5.jpg"/>
<image clip-path="url(#c5_14)" preserveAspectRatio="none" x="-32" y="183" width="216" height="217" xlink:href="img/6.jpg"/>
<image preserveAspectRatio="none" x="183" y="183" width="217" height="217" xlink:href="img/7.jpg"/>
<image preserveAspectRatio="none" x="400" y="183" width="217" height="217" xlink:href="img/8.jpg"/>
<image preserveAspectRatio="none" x="616" y="183" width="218" height="217" xlink:href="img/9.jpg"/>
<image clip-path="url(#c6_14)" preserveAspectRatio="none" x="-32" y="399" width="216" height="217" xlink:href="img/10.jpg"/>
<image preserveAspectRatio="none" x="183" y="399" width="217" height="217" xlink:href="img/11.jpg"/>
<image preserveAspectRatio="none" x="400" y="399" width="217" height="217" xlink:href="img/12.jpg"/>
<image preserveAspectRatio="none" x="616" y="399" width="218" height="217" xlink:href="img/13.jpg"/>
<image clip-path="url(#c7_14)" preserveAspectRatio="none" x="833" y="453" width="109" height="487" xlink:href="img/14.jpg"/>
<image clip-path="url(#c8_14)" preserveAspectRatio="none" x="-32" y="615" width="216" height="217" xlink:href="img/15.jpg"/>
<image preserveAspectRatio="none" x="183" y="615" width="217" height="217" xlink:href="img/16.jpg"/>
<image preserveAspectRatio="none" x="400" y="615" width="217" height="217" xlink:href="img/17.jpg"/>
<image preserveAspectRatio="none" x="616" y="615" width="218" height="217" xlink:href="img/18.jpg"/>
<image clip-path="url(#c9_14)" preserveAspectRatio="none" x="-32" y="832" width="216" height="216" xlink:href="img/19.jpg"/>
<image preserveAspectRatio="none" x="183" y="832" width="217" height="216" xlink:href="img/20.jpg"/>
<image preserveAspectRatio="none" x="400" y="832" width="217" height="216" xlink:href="img/21.jpg"/>
<image preserveAspectRatio="none" x="616" y="832" width="218" height="216" xlink:href="img/22.jpg"/>
<image clip-path="url(#ca_14)" preserveAspectRatio="none" x="833" y="940" width="109" height="379" xlink:href="img/23.jpg"/>
<image clip-path="url(#cb_14)" preserveAspectRatio="none" x="-32" y="1048" width="216" height="217" xlink:href="img/24.jpg"/>
<image preserveAspectRatio="none" x="183" y="1048" width="217" height="217" xlink:href="img/25.jpg"/>
<image preserveAspectRatio="none" x="400" y="1048" width="217" height="217" xlink:href="img/26.jpg"/>
<image preserveAspectRatio="none" x="616" y="1048" width="218" height="217" xlink:href="img/27.jpg"/>
<image clip-path="url(#cc_14)" preserveAspectRatio="none" x="-32" y="1264" width="866" height="55" xlink:href="img/28.jpg"/>
</svg>