<?xml version="1.0" encoding="UTF-8" standalone="no"?>
<!DOCTYPE svg PUBLIC "-//W3C//DTD SVG 1.1//EN"
"http://www.w3.org/Graphics/SVG/1.1/DTD/svg11.dtd">
<svg viewBox="0 0 909 1286" version="1.1" xmlns="http://www.w3.org/2000/svg" xmlns:xlink="http://www.w3.org/1999/xlink">
<defs>
<style type="text/css"><![CDATA[
.g0_8{
fill: none;
stroke: #FFFFFF;
stroke-width: 0.763;
stroke-linecap: butt;
stroke-linejoin: miter;
}
.g1_8{
fill: none;
stroke: #FFFFFF;
stroke-width: 0.916;
stroke-linecap: butt;
stroke-linejoin: miter;
stroke-miterlimit: 4;
}
.g2_8{
fill: #FFFFFF;
}
.g3_8{
fill: none;
stroke: #000000;
stroke-width: 1.375;
stroke-linecap: butt;
stroke-linejoin: miter;
stroke-miterlimit: 4;
}
.g4_8{
fill: none;
stroke: #000000;
stroke-width: 1.237;
stroke-linecap: butt;
stroke-linejoin: miter;
stroke-miterlimit: 4;
}
.g5_8{
fill: none;
stroke: #000000;
stroke-width: 1.527;
stroke-linecap: butt;
stroke-linejoin: miter;
stroke-miterlimit: 4;
}
.g6_8{
fill: none;
stroke: #000000;
stroke-width: 0.916;
stroke-linecap: butt;
stroke-linejoin: miter;
stroke-miterlimit: 4;
}
]]></style>
</defs>
<image preserveAspectRatio="none" x="-21" y="-21" width="932" height="1329" xlink:href="../1/img/1.png"/>
<image preserveAspectRatio="none" x="-1" y="771" width="912" height="517" xlink:href="img/2.png"/>
<image preserveAspectRatio="none" x="-1" y="398" width="891" height="610" xlink:href="img/3.png"/>
<path d="M673.3,648.5H827.5" class="g0_8"/>
<path d="M43.3,438.9H866.1m-683,104h683m-683,189.3h683" class="g1_8"/>
<image preserveAspectRatio="none" x="643" y="767" width="22" height="23" xlink:href="img/4.png"/>
<path d="M183.1,903.1h683" class="g1_8"/>
<image preserveAspectRatio="none" x="43" y="545" width="123" height="120" xlink:href="img/5.png"/>
<image preserveAspectRatio="none" x="43" y="717" width="123" height="121" xlink:href="img/6.png"/>
<image preserveAspectRatio="none" x="43" y="871" width="123" height="121" xlink:href="img/7.png"/>
<path d="M514.5,116.2c5.3,0,9.6,-4.3,9.6,-9.7c0,-5.3,-4.3,-9.7,-9.6,-9.7c-5.4,0,-9.7,4.4,-9.7,9.7c0,5.4,4.3,9.7,9.7,9.7Z" class="g2_8"/>
<path d="M514.5,116.2c5.3,0,9.6,-4.3,9.6,-9.7c0,-5.3,-4.3,-9.7,-9.6,-9.7c-5.4,0,-9.7,4.4,-9.7,9.7c0,5.4,4.3,9.7,9.7,9.7Z" class="g3_8"/>
<image preserveAspectRatio="none" x="466" y="233" width="15" height="24" xlink:href="img/8.png"/>
<path d="M742.2,329.8c5.4,0,9.7,-4.3,9.7,-9.6c0,-5.4,-4.3,-9.7,-9.7,-9.7c-5.3,0,-9.6,4.3,-9.6,9.7c0,5.3,4.3,9.6,9.6,9.6Z" class="g2_8"/>
<path d="M742.2,329.8c5.4,0,9.7,-4.3,9.7,-9.6c0,-5.4,-4.3,-9.7,-9.7,-9.7c-5.3,0,-9.6,4.3,-9.6,9.7c0,5.3,4.3,9.6,9.6,9.6Z" class="g4_8"/>
<image preserveAspectRatio="none" x="44" y="85" width="129" height="187" xlink:href="img/9.png"/>
<image preserveAspectRatio="none" x="46" y="86" width="119" height="178" xlink:href="img/10.png"/>
<image preserveAspectRatio="none" x="263" y="177" width="183" height="93" xlink:href="img/11.png"/>
<image preserveAspectRatio="none" x="265" y="178" width="174" height="84" xlink:href="img/12.png"/>
<image preserveAspectRatio="none" x="73" y="59" width="285" height="274" xlink:href="img/13.png"/>
<image preserveAspectRatio="none" x="105" y="177" width="31" height="29" xlink:href="img/14.png"/>
<image preserveAspectRatio="none" x="103" y="172" width="31" height="32" xlink:href="img/15.png"/>
<path d="M92.9,131.9c5.9,0,10.7,-4.8,10.7,-10.8c0,-5.9,-4.8,-10.7,-10.7,-10.7c-6,0,-10.8,4.8,-10.8,10.7c0,6,4.8,10.8,10.8,10.8Z" class="g2_8"/>
<path d="M92.9,131.9c5.9,0,10.7,-4.8,10.7,-10.8c0,-5.9,-4.8,-10.7,-10.7,-10.7c-6,0,-10.8,4.8,-10.8,10.7c0,6,4.8,10.8,10.8,10.8Z" class="g3_8"/>
<path d="M51.1,101.7C57,101.7,61.8,96.9,61.8,91C61.8,85,57,80.2,51.1,80.2C45.1,80.2,40.3,85,40.3,91c0,5.9,4.8,10.7,10.8,10.7Z" class="g2_8"/>
<path d="M51.1,101.7C57,101.7,61.8,96.9,61.8,91C61.8,85,57,80.2,51.1,80.2C45.1,80.2,40.3,85,40.3,91c0,5.9,4.8,10.7,10.8,10.7Z" class="g5_8"/>
<image preserveAspectRatio="none" x="95" y="156" width="30" height="30" xlink:href="img/16.png"/>
<image preserveAspectRatio="none" x="93" y="153" width="30" height="28" xlink:href="img/17.png"/>
<image preserveAspectRatio="none" x="83" y="176" width="29" height="32" xlink:href="img/18.png"/>
<image preserveAspectRatio="none" x="79" y="172" width="32" height="32" xlink:href="img/19.png"/>
<image preserveAspectRatio="none" x="261" y="78" width="185" height="93" xlink:href="img/20.png"/>
<image preserveAspectRatio="none" x="264" y="79" width="175" height="84" xlink:href="img/21.png"/>
<image preserveAspectRatio="none" x="119" y="-2" width="294" height="295" xlink:href="img/22.png"/>
<image preserveAspectRatio="none" x="368" y="119" width="32" height="31" xlink:href="img/23.png"/>
<image preserveAspectRatio="none" x="366" y="114" width="31" height="32" xlink:href="img/24.png"/>
<image preserveAspectRatio="none" x="359" y="98" width="31" height="30" xlink:href="img/25.png"/>
<image preserveAspectRatio="none" x="357" y="95" width="29" height="28" xlink:href="img/26.png"/>
<image preserveAspectRatio="none" x="345" y="117" width="31" height="33" xlink:href="img/27.png"/>
<image preserveAspectRatio="none" x="343" y="114" width="32" height="32" xlink:href="img/28.png"/>
<path d="M43.3,62H866.1" class="g6_8"/>
</svg>