<?xml version="1.0" encoding="UTF-8" standalone="no"?>
<!DOCTYPE svg PUBLIC "-//W3C//DTD SVG 1.1//EN"
"http://www.w3.org/Graphics/SVG/1.1/DTD/svg11.dtd">
<svg viewBox="0 0 908 1285" version="1.1" xmlns="http://www.w3.org/2000/svg" xmlns:xlink="http://www.w3.org/1999/xlink">
<defs>
<clipPath id="c0_39"><path d="M-32.4,183.8V-32.1H184.1V183.8Z"/></clipPath>
<clipPath id="c1_39"><path d="M183.5,183.8V-32.1H400.4V183.8Z"/></clipPath>
<clipPath id="c2_39"><path d="M399.9,183.8V-32.1H617V183.8Z"/></clipPath>
<clipPath id="c3_39"><path d="M616.4,183.8V-32.1H833.6V183.8Z"/></clipPath>
<clipPath id="c4_39"><path d="M833,454V-32.2H941.2V454Z"/></clipPath>
<clipPath id="c5_39"><path d="M-32.4,399.9V183.3H184.1V399.9Z"/></clipPath>
<clipPath id="c6_39"><path d="M-32.4,615.9V399.3H184.1V615.9Z"/></clipPath>
<clipPath id="c7_39"><path d="M833,940.2V453.4H941.2V940.2Z"/></clipPath>
<clipPath id="c8_39"><path d="M-32.4,832V615.4H184.1V832Z"/></clipPath>
<clipPath id="c9_39"><path d="M-32.4,1048.1V831.5H184.1v216.6Z"/></clipPath>
<clipPath id="ca_39"><path d="M833,1317.7V939.6H941.2v378.1Z"/></clipPath>
<clipPath id="cb_39"><path d="M-32.4,1264.1V1047.5H184.1v216.6Z"/></clipPath>
<clipPath id="cc_39"><path d="M-32.4,1317.7v-54.1h866v54.1Z"/></clipPath>
</defs>
<image clip-path="url(#c0_39)" preserveAspectRatio="none" x="-32" y="-32" width="216" height="216" xlink:href="img/1.webp"/>
<image clip-path="url(#c1_39)" preserveAspectRatio="none" x="184" y="-32" width="216" height="216" xlink:href="img/2.webp"/>
<image clip-path="url(#c2_39)" preserveAspectRatio="none" x="400" y="-32" width="217" height="216" xlink:href="img/3.webp"/>
<image clip-path="url(#c3_39)" preserveAspectRatio="none" x="616" y="-32" width="218" height="216" xlink:href="img/4.webp"/>
<image clip-path="url(#c4_39)" preserveAspectRatio="none" x="833" y="-32" width="109" height="486" xlink:href="img/5.webp"/>
<image clip-path="url(#c5_39)" preserveAspectRatio="none" x="-32" y="183" width="216" height="217" xlink:href="img/6.webp"/>
<image preserveAspectRatio="none" x="184" y="183" width="216" height="217" xlink:href="img/7.webp"/>
<image preserveAspectRatio="none" x="400" y="183" width="217" height="217" xlink:href="img/8.webp"/>
<image preserveAspectRatio="none" x="616" y="183" width="218" height="217" xlink:href="img/9.webp"/>
<image clip-path="url(#c6_39)" preserveAspectRatio="none" x="-32" y="399" width="216" height="217" xlink:href="img/10.webp"/>
<image preserveAspectRatio="none" x="184" y="399" width="216" height="217" xlink:href="img/11.webp"/>
<image preserveAspectRatio="none" x="400" y="399" width="217" height="217" xlink:href="img/12.webp"/>
<image preserveAspectRatio="none" x="616" y="399" width="218" height="217" xlink:href="img/13.webp"/>
<image clip-path="url(#c7_39)" preserveAspectRatio="none" x="833" y="453" width="109" height="487" xlink:href="img/14.webp"/>
<image clip-path="url(#c8_39)" preserveAspectRatio="none" x="-32" y="615" width="216" height="217" xlink:href="img/15.webp"/>
<image preserveAspectRatio="none" x="184" y="615" width="216" height="217" xlink:href="img/16.webp"/>
<image preserveAspectRatio="none" x="400" y="615" width="217" height="217" xlink:href="img/17.webp"/>
<image preserveAspectRatio="none" x="616" y="615" width="218" height="217" xlink:href="img/18.webp"/>
<image clip-path="url(#c9_39)" preserveAspectRatio="none" x="-32" y="831" width="216" height="217" xlink:href="img/19.webp"/>
<image preserveAspectRatio="none" x="184" y="831" width="216" height="217" xlink:href="img/20.webp"/>
<image preserveAspectRatio="none" x="400" y="831" width="217" height="217" xlink:href="img/21.webp"/>
<image preserveAspectRatio="none" x="616" y="831" width="218" height="217" xlink:href="img/22.webp"/>
<image clip-path="url(#ca_39)" preserveAspectRatio="none" x="833" y="940" width="109" height="378" xlink:href="img/23.webp"/>
<image clip-path="url(#cb_39)" preserveAspectRatio="none" x="-32" y="1048" width="216" height="216" xlink:href="img/24.webp"/>
<image preserveAspectRatio="none" x="184" y="1048" width="216" height="216" xlink:href="img/25.webp"/>
<image preserveAspectRatio="none" x="400" y="1048" width="217" height="216" xlink:href="img/26.webp"/>
<image preserveAspectRatio="none" x="616" y="1048" width="218" height="216" xlink:href="img/27.webp"/>
<image clip-path="url(#cc_39)" preserveAspectRatio="none" x="-32" y="1264" width="866" height="54" xlink:href="img/28.webp"/>
</svg>