<?xml version="1.0" encoding="UTF-8" standalone="no"?>
<!DOCTYPE svg PUBLIC "-//W3C//DTD SVG 1.1//EN"
"http://www.w3.org/Graphics/SVG/1.1/DTD/svg11.dtd">
<svg viewBox="0 0 908 1285" version="1.1" xmlns="http://www.w3.org/2000/svg" xmlns:xlink="http://www.w3.org/1999/xlink">
<defs>
<clipPath id="c0_10"><path d="M-33.1,237.3V-33h271V237.3Z"/></clipPath>
<clipPath id="c1_10"><path d="M237.3,237.3V-33H508.7V237.3Z"/></clipPath>
<clipPath id="c2_10"><path d="M508.1,237.3V-33H779.8V237.3Z"/></clipPath>
<clipPath id="c3_10"><path d="M779.2,453.6V-33H941.8V453.6Z"/></clipPath>
<clipPath id="c4_10"><path d="M-33.1,507.8V236.7h271V507.8Z"/></clipPath>
<clipPath id="c5_10"><path d="M237.3,507.8V236.7H508.7V507.8Z"/></clipPath>
<clipPath id="c6_10"><path d="M508.1,507.8V236.7H779.8V507.8Z"/></clipPath>
<clipPath id="c7_10"><path d="M779.2,940.6V453H941.8V940.6Z"/></clipPath>
<clipPath id="c8_10"><path d="M-33.1,778.3V507.2h271V778.3Z"/></clipPath>
<clipPath id="c9_10"><path d="M237.3,778.3V507.2H508.7V778.3Z"/></clipPath>
<clipPath id="ca_10"><path d="M508.1,778.3V507.2H779.8V778.3Z"/></clipPath>
<clipPath id="cb_10"><path d="M-33.1,1048.7V777.6h271v271.1Z"/></clipPath>
<clipPath id="cc_10"><path d="M237.3,1048.7V777.6H508.7v271.1Z"/></clipPath>
<clipPath id="cd_10"><path d="M508.1,1048.7V777.6H779.8v271.1Z"/></clipPath>
<clipPath id="ce_10"><path d="M779.2,1318.5V940H941.8v378.5Z"/></clipPath>
<clipPath id="cf_10"><path d="M-33.1,1318.5V1048.1h271v270.4Z"/></clipPath>
<clipPath id="cg_10"><path d="M237.3,1318.5V1048.1H508.7v270.4Z"/></clipPath>
<clipPath id="ch_10"><path d="M508.1,1318.5V1048.1H779.8v270.4Z"/></clipPath>
</defs>
<image clip-path="url(#c0_10)" preserveAspectRatio="none" x="-33" y="-33" width="271" height="270" xlink:href="img/1.webp"/>
<image clip-path="url(#c1_10)" preserveAspectRatio="none" x="237" y="-33" width="272" height="270" xlink:href="img/2.webp"/>
<image clip-path="url(#c2_10)" preserveAspectRatio="none" x="508" y="-33" width="272" height="270" xlink:href="img/3.webp"/>
<image clip-path="url(#c3_10)" preserveAspectRatio="none" x="779" y="-33" width="163" height="487" xlink:href="img/4.webp"/>
<image clip-path="url(#c4_10)" preserveAspectRatio="none" x="-33" y="237" width="271" height="271" xlink:href="img/5.webp"/>
<image clip-path="url(#c5_10)" preserveAspectRatio="none" x="237" y="237" width="272" height="271" xlink:href="img/6.webp"/>
<image clip-path="url(#c6_10)" preserveAspectRatio="none" x="508" y="237" width="272" height="271" xlink:href="img/7.webp"/>
<image clip-path="url(#c7_10)" preserveAspectRatio="none" x="779" y="453" width="163" height="488" xlink:href="img/8.webp"/>
<image clip-path="url(#c8_10)" preserveAspectRatio="none" x="-33" y="507" width="271" height="271" xlink:href="img/9.webp"/>
<image clip-path="url(#c9_10)" preserveAspectRatio="none" x="237" y="507" width="272" height="271" xlink:href="img/10.webp"/>
<image clip-path="url(#ca_10)" preserveAspectRatio="none" x="508" y="507" width="272" height="271" xlink:href="img/11.webp"/>
<image clip-path="url(#cb_10)" preserveAspectRatio="none" x="-33" y="778" width="271" height="271" xlink:href="img/12.webp"/>
<image clip-path="url(#cc_10)" preserveAspectRatio="none" x="237" y="778" width="272" height="271" xlink:href="img/13.webp"/>
<image clip-path="url(#cd_10)" preserveAspectRatio="none" x="508" y="778" width="272" height="271" xlink:href="img/14.webp"/>
<image clip-path="url(#ce_10)" preserveAspectRatio="none" x="779" y="940" width="163" height="379" xlink:href="img/15.webp"/>
<image clip-path="url(#cf_10)" preserveAspectRatio="none" x="-33" y="1048" width="271" height="271" xlink:href="img/16.webp"/>
<image clip-path="url(#cg_10)" preserveAspectRatio="none" x="237" y="1048" width="272" height="271" xlink:href="img/17.webp"/>
<image clip-path="url(#ch_10)" preserveAspectRatio="none" x="508" y="1048" width="272" height="271" xlink:href="img/18.webp"/>
</svg>