<?xml version="1.0" encoding="UTF-8" standalone="no"?>
<!DOCTYPE svg PUBLIC "-//W3C//DTD SVG 1.1//EN"
"http://www.w3.org/Graphics/SVG/1.1/DTD/svg11.dtd">
<svg viewBox="0 0 909 1286" version="1.1" xmlns="http://www.w3.org/2000/svg" xmlns:xlink="http://www.w3.org/1999/xlink">
<defs>
<clipPath id="c0_4"><path d="M0,321.8V.2H374.9V321.8Z"/></clipPath>
<clipPath id="c1_4"><path d="M374.2,321.8V.2H750.3V321.8Z"/></clipPath>
<clipPath id="c2_4"><path d="M791.4,606v-1.3h-7.9V606Zm5.4,0v-1.3h-5.2V606ZM749.6,804.5V.2H909V804.5Z"/></clipPath>
<clipPath id="c3_4"><path d="M0,643.5V321.1H374.9V643.5Z"/></clipPath>
<clipPath id="c4_4"><path d="M374.2,643.5V321.1H750.3V643.5Z"/></clipPath>
<clipPath id="c5_4"><path d="M0,965.5V642.8H374.9V965.5Z"/></clipPath>
<clipPath id="c6_4"><path d="M374.2,965.5V642.8H750.3V965.5Z"/></clipPath>
<clipPath id="c7_4"><path d="M749.6,1286.1V803.8H909v482.3Z"/></clipPath>
<clipPath id="c8_4"><path d="M0,1286.1V964.8H374.9v321.3Z"/></clipPath>
<clipPath id="c9_4"><path d="M374.2,1286.1V964.8H750.3v321.3Z"/></clipPath>
<clipPath id="ca_4"><path d="M783.5,606v-1.3h7.9V606Z"/></clipPath>
<clipPath id="cb_4"><path d="M791.6,606v-1.3h5.2V606Z"/></clipPath>
</defs>
<image clip-path="url(#c0_4)" preserveAspectRatio="none" x="0" y="0" width="375" height="322" xlink:href="img/1.jpg"/>
<image clip-path="url(#c1_4)" preserveAspectRatio="none" x="374" y="0" width="376" height="322" xlink:href="img/2.jpg"/>
<image clip-path="url(#c2_4)" preserveAspectRatio="none" x="749" y="0" width="162" height="805" xlink:href="img/3.jpg"/>
<image clip-path="url(#c3_4)" preserveAspectRatio="none" x="0" y="321" width="375" height="323" xlink:href="img/4.jpg"/>
<image clip-path="url(#c4_4)" preserveAspectRatio="none" x="374" y="321" width="376" height="323" xlink:href="img/5.jpg"/>
<image clip-path="url(#c5_4)" preserveAspectRatio="none" x="0" y="643" width="375" height="323" xlink:href="img/6.jpg"/>
<image clip-path="url(#c6_4)" preserveAspectRatio="none" x="374" y="643" width="376" height="323" xlink:href="img/7.jpg"/>
<image clip-path="url(#c7_4)" preserveAspectRatio="none" x="749" y="804" width="162" height="483" xlink:href="img/8.jpg"/>
<image clip-path="url(#c8_4)" preserveAspectRatio="none" x="0" y="965" width="375" height="322" xlink:href="img/9.jpg"/>
<image clip-path="url(#c9_4)" preserveAspectRatio="none" x="374" y="965" width="376" height="322" xlink:href="img/10.jpg"/>
<image clip-path="url(#ca_4)" preserveAspectRatio="none" x="783" y="604" width="9" height="2" xlink:href="img/11.jpg"/>
<image clip-path="url(#cb_4)" preserveAspectRatio="none" x="791" y="604" width="6" height="2" xlink:href="img/12.jpg"/>
</svg>