<?xml version="1.0" encoding="UTF-8" standalone="no"?>
<!DOCTYPE svg PUBLIC "-//W3C//DTD SVG 1.1//EN"
"http://www.w3.org/Graphics/SVG/1.1/DTD/svg11.dtd">
<svg viewBox="0 0 909 1286" version="1.1" xmlns="http://www.w3.org/2000/svg" xmlns:xlink="http://www.w3.org/1999/xlink">
<defs>
<style type="text/css"><![CDATA[
.g0_13{
fill: none;
stroke: #FFFFFF;
stroke-width: 0.916;
stroke-linecap: butt;
stroke-linejoin: miter;
stroke-miterlimit: 4;
}
.g1_13{
}
.g2_13{
fill: none;
stroke: #FFFFFF;
stroke-width: 1.116;
stroke-linecap: butt;
stroke-linejoin: miter;
stroke-miterlimit: 4;
}
.g3_13{
fill: none;
stroke: #FFFFFF;
stroke-width: 1.375;
stroke-linecap: butt;
stroke-linejoin: miter;
stroke-miterlimit: 3;
}
.g4_13{
fill: none;
stroke: #FFFFFF;
stroke-width: 1.375;
stroke-linecap: butt;
stroke-linejoin: miter;
stroke-miterlimit: 4;
}
.g5_13{
fill: none;
stroke: #000000;
stroke-width: 0.916;
stroke-linecap: butt;
stroke-linejoin: miter;
stroke-miterlimit: 4;
}
]]></style>
</defs>
<image preserveAspectRatio="none" x="-1" y="-21" width="932" height="1329" xlink:href="../1/img/1.png"/>
<image preserveAspectRatio="none" x="0" y="79" width="49" height="242" xlink:href="img/2.png"/>
<image preserveAspectRatio="none" x="-165" y="110" width="167" height="201" xlink:href="img/3.png"/>
<image preserveAspectRatio="none" x="0" y="996" width="69" height="101" xlink:href="img/4.png"/>
<image preserveAspectRatio="none" x="0" y="446" width="944" height="460" xlink:href="img/5.png"/>
<image preserveAspectRatio="none" x="29" y="437" width="882" height="99" xlink:href="img/6.png"/>
<image preserveAspectRatio="none" x="25" y="812" width="886" height="437" xlink:href="img/7.png"/>
<path d="M56.3,873.5H853.1M56.3,1035.7H853.1" class="g0_13"/>
<image preserveAspectRatio="none" x="820" y="1051" width="19" height="23" xlink:href="img/8.png"/>
<path d="M56.3,1119.5H853.1" class="g0_13"/>
<path d="M480.8,130.7c6,0,10.9,-4.8,10.9,-10.9c0,-6,-4.9,-10.9,-10.9,-10.9c-6,0,-10.9,4.9,-10.9,10.9c0,6.1,4.9,10.9,10.9,10.9Z" class="g1_13"/>
<path d="M480.8,130.7c6,0,10.9,-4.8,10.9,-10.9c0,-6,-4.9,-10.9,-10.9,-10.9c-6,0,-10.9,4.9,-10.9,10.9c0,6.1,4.9,10.9,10.9,10.9Z" class="g2_13"/>
<path d="M823.5,321.7c6.1,0,11,-4.9,11,-11c0,-6,-4.9,-10.9,-11,-10.9c-6,0,-10.9,4.9,-10.9,10.9c0,6.1,4.9,11,10.9,11Z" class="g1_13"/>
<path d="M823.5,321.7c6.1,0,11,-4.9,11,-11c0,-6,-4.9,-10.9,-11,-10.9c-6,0,-10.9,4.9,-10.9,10.9c0,6.1,4.9,11,10.9,11Z" class="g2_13"/>
<image preserveAspectRatio="none" x="73" y="82" width="110" height="106" xlink:href="img/9.png"/>
<image preserveAspectRatio="none" x="144" y="149" width="36" height="37" xlink:href="img/10.png"/>
<path d="M92.5,165.1l-.4,.1c-1.1,.8,-2.8,1.3,-5.2,1.3c-.9,0,-1.5,-.1,-1.8,-.2l-.1,-.4c0,-.2,.1,-.4,.1,-.7c-.1,-.3,-.2,-.5,-.5,-.5c-.2,0,-.3,.2,-.5,.4c-.1,.2,-.3,.3,-.5,.3c-.2,0,-.4,-.1,-.5,-.3c-.6,-1.9,-.9,-3.2,-.9,-3.8c.1,-.4,.2,-.7,.2,-.8l.4,-.3c.2,.1,.4,.2,.5,.3l.3,.2l.4,-.2l.3,-.3l.3,-.2l.4,.1l.1,.1c.1,.9,.3,1.8,.5,2.8c.3,1.5,.7,2.3,1,2.3h.7c.6,0,1.1,0,1.3,0c.5,-.1,.7,-1.9,.7,-5.4c0,-.2,-.1,-.7,-.1,-1.2c-.1,-.5,-.2,-.9,-.2,-1.2c0,-.1,.1,-.2,.1,-.3v-.3l-.3,-.2c-.1,-.1,-.2,-.2,-.3,-.2c-.2,-.1,-.3,-.1,-.4,-.2h-.5c-.8,.2,-1.6,.3,-2.2,.3l-.4,-.2l-.1,-.4l.1,-.3l.4,-.2c1.4,0,2.8,-.4,4,-1.2c.2,-.1,.3,-.7,.3,-1.9v-2.1c.1,-2.9,-.2,-4.4,-.7,-4.4c-.8,0,-1.6,.1,-2.5,.3l-.3,.4c-.3,1,-.4,2,-.4,3c0,1.3,-.3,2,-.7,2c-.3,0,-.5,-.3,-.6,-.9c-.1,-.6,-.4,-.8,-.7,-.8c-.2,0,-.4,.2,-.5,.7c0,.3,0,.7,0,1l-.2,.4h-.5c-.4,0,-.6,-1,-.6,-2.7c0,-.4,0,-.8,.1,-1.5v-1.3l.1,-.4l.4,-.2c.5,.1,.8,-.1,.9,-.5c.1,-.4,.3,-.6,.5,-.6c.2,0,.4,.1,.6,.3c.1,.3,.3,.4,.5,.4c.1,0,.2,-.1,.4,-.2c.1,-.2,.3,-.2,.4,-.2c0,0,.1,0,.5,0c.9,-.2,2,-.3,3.1,-.3c1.1,0,2.6,.1,4.6,.3c.3,0,.5,.2,.5,.6c0,.2,-.2,.4,-.5,.4c-.4,.1,-.5,.3,-.5,.5v7.8c0,.4,-.2,.6,-.6,.6c-.2,0,-.4,-.2,-.5,-.4l-.2,-.3h-.4c-1.3,.6,-2,1,-2,1.3c0,.1,.4,.4,1.3,.9c1.1,.6,1.6,1,1.8,1.1c.5,.5,.9,1.9,.9,4.2c0,.5,0,1.6,-.1,3.3l-.1,.3l-.5,.2c-.2,-.1,-.3,-.2,-.4,-.3l-.3,-.2Z" class="g3_13"/>
<path d="M76.5,190.4c7.4,0,13.4,-6,13.4,-13.5c0,-7.4,-6,-13.4,-13.4,-13.4c-7.5,0,-13.5,6,-13.5,13.4c0,7.5,6,13.5,13.5,13.5Z" class="g1_13"/>
<path d="M76.5,190.4c7.4,0,13.4,-6,13.4,-13.5c0,-7.4,-6,-13.4,-13.4,-13.4c-7.5,0,-13.5,6,-13.5,13.4c0,7.5,6,13.5,13.5,13.5Z" class="g4_13"/>
<path d="M145.8,159.1c7.5,0,13.5,-6,13.5,-13.4c0,-7.5,-6,-13.5,-13.5,-13.5c-7.4,0,-13.4,6,-13.4,13.5c0,7.4,6,13.4,13.4,13.4Z" class="g1_13"/>
<path d="M145.8,159.1c7.5,0,13.5,-6,13.5,-13.4c0,-7.5,-6,-13.5,-13.5,-13.5c-7.4,0,-13.4,6,-13.4,13.5c0,7.4,6,13.4,13.4,13.4Z" class="g4_13"/>
<path d="M56.3,75.2H853.1" class="g5_13"/>
<path d="M56.3,480.1H853.1" class="g0_13"/>
<image preserveAspectRatio="none" x="469" y="350" width="377" height="68" xlink:href="img/11.png"/>
<image preserveAspectRatio="none" x="458" y="307" width="412" height="138" xlink:href="img/12.png"/>
</svg>