<?xml version="1.0" encoding="UTF-8" standalone="no"?>
<!DOCTYPE svg PUBLIC "-//W3C//DTD SVG 1.1//EN"
"http://www.w3.org/Graphics/SVG/1.1/DTD/svg11.dtd">
<svg viewBox="0 0 908 1285" version="1.1" xmlns="http://www.w3.org/2000/svg" xmlns:xlink="http://www.w3.org/1999/xlink">
<defs>
<clipPath id="c0_4"><path d="M-33.5,182.9V-33.6h217V182.9Z"/></clipPath>
<clipPath id="c1_4"><path d="M183,182.9V-33.6H400.3V182.9Z"/></clipPath>
<clipPath id="c2_4"><path d="M399.8,182.9V-33.6H617.4V182.9Z"/></clipPath>
<clipPath id="c3_4"><path d="M616.9,182.9V-33.6H834.2V182.9Z"/></clipPath>
<clipPath id="c4_4"><path d="M833.7,399.5V-33.6H942.2V399.5Z"/></clipPath>
<clipPath id="c5_4"><path d="M-33.5,399.5V182.4h217V399.5Z"/></clipPath>
<clipPath id="c6_4"><path d="M-33.5,615.8V399h217V615.8Z"/></clipPath>
<clipPath id="c7_4"><path d="M833.7,832.4V399H942.2V832.4Z"/></clipPath>
<clipPath id="c8_4"><path d="M-33.5,832.4V615.3h217V832.4Z"/></clipPath>
<clipPath id="c9_4"><path d="M-33.5,1049V831.9h217V1049Z"/></clipPath>
<clipPath id="ca_4"><path d="M833.7,1265.6V831.9H942.2v433.7Z"/></clipPath>
<clipPath id="cb_4"><path d="M-33.5,1265.6V1048.5h217v217.1Z"/></clipPath>
<clipPath id="cc_4"><path d="M-33.5,1319.1v-54h922v54Z"/></clipPath>
<clipPath id="cd_4"><path d="M888,1319.1v-54h54.2v54Z"/></clipPath>
</defs>
<image clip-path="url(#c0_4)" preserveAspectRatio="none" x="-33" y="-33" width="216" height="216" xlink:href="img/1.jpg"/>
<image clip-path="url(#c1_4)" preserveAspectRatio="none" x="183" y="-33" width="217" height="216" xlink:href="img/2.jpg"/>
<image clip-path="url(#c2_4)" preserveAspectRatio="none" x="400" y="-33" width="217" height="216" xlink:href="img/3.jpg"/>
<image clip-path="url(#c3_4)" preserveAspectRatio="none" x="617" y="-33" width="217" height="216" xlink:href="img/4.jpg"/>
<image clip-path="url(#c4_4)" preserveAspectRatio="none" x="834" y="-33" width="109" height="432" xlink:href="img/5.jpg"/>
<image clip-path="url(#c5_4)" preserveAspectRatio="none" x="-33" y="182" width="216" height="217" xlink:href="img/6.jpg"/>
<image preserveAspectRatio="none" x="183" y="182" width="217" height="217" xlink:href="img/7.jpg"/>
<image preserveAspectRatio="none" x="400" y="182" width="217" height="217" xlink:href="img/8.jpg"/>
<image preserveAspectRatio="none" x="617" y="182" width="217" height="217" xlink:href="img/9.jpg"/>
<image clip-path="url(#c6_4)" preserveAspectRatio="none" x="-33" y="399" width="216" height="217" xlink:href="img/10.jpg"/>
<image preserveAspectRatio="none" x="183" y="399" width="217" height="217" xlink:href="img/11.jpg"/>
<image preserveAspectRatio="none" x="400" y="399" width="217" height="217" xlink:href="img/12.jpg"/>
<image preserveAspectRatio="none" x="617" y="399" width="217" height="217" xlink:href="img/13.jpg"/>
<image clip-path="url(#c7_4)" preserveAspectRatio="none" x="834" y="399" width="109" height="433" xlink:href="img/14.jpg"/>
<image clip-path="url(#c8_4)" preserveAspectRatio="none" x="-33" y="615" width="216" height="217" xlink:href="img/15.jpg"/>
<image preserveAspectRatio="none" x="183" y="615" width="217" height="217" xlink:href="img/16.jpg"/>
<image preserveAspectRatio="none" x="400" y="615" width="217" height="217" xlink:href="img/17.jpg"/>
<image preserveAspectRatio="none" x="617" y="615" width="217" height="217" xlink:href="img/18.jpg"/>
<image clip-path="url(#c9_4)" preserveAspectRatio="none" x="-33" y="832" width="216" height="217" xlink:href="img/19.jpg"/>
<image preserveAspectRatio="none" x="183" y="832" width="217" height="217" xlink:href="img/20.jpg"/>
<image preserveAspectRatio="none" x="400" y="832" width="217" height="217" xlink:href="img/21.jpg"/>
<image preserveAspectRatio="none" x="617" y="832" width="217" height="217" xlink:href="img/22.jpg"/>
<image clip-path="url(#ca_4)" preserveAspectRatio="none" x="834" y="832" width="109" height="434" xlink:href="img/23.jpg"/>
<image clip-path="url(#cb_4)" preserveAspectRatio="none" x="-33" y="1048" width="216" height="218" xlink:href="img/24.jpg"/>
<image preserveAspectRatio="none" x="183" y="1048" width="217" height="218" xlink:href="img/25.jpg"/>
<image preserveAspectRatio="none" x="400" y="1048" width="217" height="218" xlink:href="img/26.jpg"/>
<image preserveAspectRatio="none" x="617" y="1048" width="217" height="218" xlink:href="img/27.jpg"/>
<image clip-path="url(#cc_4)" preserveAspectRatio="none" x="-33" y="1265" width="921" height="55" xlink:href="img/28.jpg"/>
<image clip-path="url(#cd_4)" preserveAspectRatio="none" x="888" y="1265" width="55" height="55" xlink:href="img/29.jpg"/>
</svg>