<?xml version="1.0" encoding="UTF-8" standalone="no"?>
<!DOCTYPE svg PUBLIC "-//W3C//DTD SVG 1.1//EN"
"http://www.w3.org/Graphics/SVG/1.1/DTD/svg11.dtd">
<svg viewBox="0 0 908 1286" version="1.1" xmlns="http://www.w3.org/2000/svg" xmlns:xlink="http://www.w3.org/1999/xlink">
<defs>
<clipPath id="c0_9"><path d="M0,1285.7V0H909V1285.7Z"/></clipPath>
<clipPath id="c1_9"><path d="M69.3,523.9V405.5H191.7V523.9Z"/></clipPath>
<clipPath id="c2_9"><path d="M148.1,520.9v-41h41v41Z"/></clipPath>
<clipPath id="c3_9"><path d="M26.3,1247.5v-97.4H909v97.4Z"/></clipPath>
<clipPath id="c4_9"><path d="M26.3,604.7V529.6H909v75.1Z"/></clipPath>
<clipPath id="c5_9"><path d="M602.8,808.2V616.6H873.3V808.2Z"/></clipPath>
<clipPath id="c6_9"><path d="M769.5,662.1V644.9h17.2v17.2Z"/></clipPath>
<clipPath id="c7_9"><path d="M22.6,1141.1V606.9H886.4v534.2Z"/></clipPath>
<clipPath id="c8_9"><path d="M751.8,813.4L717.4,779.5L691.7,754.3l82.7,-84.1l60,59.1l-82.6,84.1ZM774.4,670.2v0Z"/></clipPath>
<clipPath id="c9_9"><path d="M703,742.4L624.7,712.3l35.2,-91.8l32.3,12.4l46.1,17.7l-19.9,51.9L703,742.4Z"/></clipPath>
<clipPath id="ca_9"><path d="M64.9,810.6V784.7H90.8v25.9Z"/></clipPath>
<clipPath id="cb_9"><path d="M88.4,810.6V784.7h25.9v25.9Z"/></clipPath>
<clipPath id="cc_9"><path d="M377,887.1v-26h25.9v26Z"/></clipPath>
<clipPath id="cd_9"><path d="M493.2,819.5V713H603.4V819.5Z"/></clipPath>
<clipPath id="ce_9"><path d="M564.2,816.8V779.9h36.9v36.9Z"/></clipPath>
<clipPath id="cf_9"><path d="M259.7,813.6V718.4H451.5v95.2Z"/></clipPath>
<clipPath id="cg_9"><path d="M264.6,813.7V718.5H456.4v95.2Z"/></clipPath>
<clipPath id="ch_9"><path d="M393.5,788.7V732H518.6v56.7Z"/></clipPath>
<clipPath id="ci_9"><path d="M368.7,811.3L350.6,779.9l9,-5.3l18.6,-10.7l18.1,31.5l-27.6,15.9Z"/></clipPath>
<clipPath id="cj_9"><path d="M403.6,784.2L380.1,770.6L376,768.3l6.1,-10.6l12,-20.9l27.6,15.9l-18.1,31.5Z"/></clipPath>
<clipPath id="ck_9"><path d="M478.5,1077.2v-25.9h25.9v25.9Z"/></clipPath>
<clipPath id="cl_9"><path d="M428.3,1012.5V941.8h68v70.7Z"/></clipPath>
<clipPath id="cm_9"><path d="M236.4,1003.6V933.1h68v70.5Z"/></clipPath>
<clipPath id="cn_9"><path d="M285,1028.3V957.6h67.9v70.7Z"/></clipPath>
<clipPath id="co_9"><path d="M784.4,954.9c-4.3,0,-4.4,-4.2,-4.4,-4.3V822.9c0,-4.3,4.4,-4.3,4.4,-4.3h82.2c4.3,0,4.3,4.3,4.3,4.3V950.6c0,4.3,-4.3,4.3,-4.3,4.3Z"/></clipPath>
<clipPath id="cp_9"><path d="M788.1,836.9V821.8h75.1v15.1Z"/></clipPath>
<clipPath id="cq_9"><path d="M855.8,948.4V932.7h10.9v15.7Z"/></clipPath>
<clipPath id="cr_9"><path d="M786.7,954.9c-4.3,0,-4.4,-4.2,-4.4,-4.3V822.9c0,-4.3,4.4,-4.3,4.4,-4.3h82.2c4.3,0,4.3,4.3,4.3,4.3V950.6c0,4.3,-4.3,4.3,-4.3,4.3Z"/></clipPath>
<clipPath id="cs_9"><path d="M786.5,896.1V868.6h28.2v27.5Z"/></clipPath>
<clipPath id="ct_9"><path d="M794.7,908.3V889.5h30.9v18.8Z"/></clipPath>
<clipPath id="cu_9"><path d="M806.1,907.5V890.7h16.8v16.8Z"/></clipPath>
<clipPath id="cv_9"><path d="M788.8,938.2V910.7H817v27.5Z"/></clipPath>
<clipPath id="cw_9"><path d="M796.4,951.4V931.6h50.2v19.8Z"/></clipPath>
<clipPath id="cx_9"><path d="M825.2,948.2V933.6h19.4v14.6Z"/></clipPath>
<clipPath id="cy_9"><path d="M808.4,949V932.2h16.7V949Z"/></clipPath>
<clipPath id="cz_9"><path d="M837.3,937.8l-5.8,-19.1L807.2,839.2L833.7,831l13.7,44.6l16.5,54.1l-22.9,7l-3.7,1.1Z"/></clipPath>
<clipPath id="c10_9"><path d="M460.5,511.9V385.6H872.7V511.9Z"/></clipPath>
<style type="text/css"><![CDATA[
.g0_9{
fill: #FFFFFF;
}
.g1_9{
fill: none;
stroke: #FFFFFF;
stroke-width: 1.527;
stroke-linecap: butt;
stroke-linejoin: miter;
}
.g2_9{
fill: #CF0E1C;
}
.g3_9{
}
.g4_9{
fill: none;
stroke: #000000;
stroke-width: 0.916;
stroke-linecap: butt;
stroke-linejoin: miter;
}
.g5_9{
fill: none;
stroke: #FFFFFF;
stroke-width: 1.122;
stroke-linecap: butt;
stroke-linejoin: miter;
}
.g6_9{
fill: none;
stroke: #FFFFFF;
stroke-width: 1.178;
stroke-linecap: butt;
stroke-linejoin: miter;
}
.g7_9{
fill: none;
stroke: #FFFFFF;
stroke-width: 1.298;
stroke-linecap: butt;
stroke-linejoin: miter;
}
.g8_9{
fill: none;
stroke: #000000;
stroke-width: 0.259;
stroke-linecap: butt;
stroke-linejoin: miter;
}
.g9_9{
fill: none;
stroke: #FFFFFF;
stroke-width: 1.374;
stroke-linecap: butt;
stroke-linejoin: miter;
}
.ga_9{
fill: none;
stroke: #FFFFFF;
stroke-width: 0.458;
stroke-linecap: butt;
stroke-linejoin: miter;
}
.gb_9{
fill: none;
stroke: #CD071E;
stroke-width: 3.054;
stroke-linecap: butt;
stroke-linejoin: miter;
}
.gc_9{
fill: none;
stroke: #FFFFFF;
stroke-width: 0.916;
stroke-linecap: butt;
stroke-linejoin: miter;
}
]]></style>
</defs>
<path d="M0,0H909V1285.7H0V0Z" class="g0_9"/>
<image clip-path="url(#c0_9)" preserveAspectRatio="none" x="-1" y="-21" width="932" height="1328" xlink:href="img/1.webp"/>
<image clip-path="url(#c1_9)" preserveAspectRatio="none" x="69" y="405" width="123" height="119" xlink:href="img/2.webp"/>
<image clip-path="url(#c2_9)" preserveAspectRatio="none" x="148" y="480" width="41" height="41" xlink:href="img/3.webp"/>
<path d="M82.3,476.4l.2,-.4l.5,-.1c.2,.1,.3,.1,.4,.1c.2,0,.3,-.1,.5,-.3c.1,-.2,.3,-.3,.5,-.3c.1,0,.3,.1,.5,.3c.1,.2,.3,.3,.5,.3c.5,0,1.5,-.1,2.8,-.4c1.4,-.4,2.3,-.5,3,-.5c.3,0,.5,.2,.5,.5c0,.2,-.1,.3,-.2,.5l-.1,.5c.6,3.3,1,5.2,1,5.9c0,.3,-.2,.5,-.5,.5c-.1,0,-.2,0,-.5,0c-.1,-.1,-.3,-.1,-.3,0c-.1,.1,-.2,.2,-.3,.4l-.3,.3H90l-.3,-.4c0,-.2,-.2,-.3,-.5,-.3c-.1,0,-.2,0,-.4,.2c-.2,.1,-.3,.2,-.5,.2l-.4,-.2l-.2,-.4v-5.4l-.1,-.4l-.5,-.1c-.9,.1,-1.6,.3,-2,.5c-.3,.1,-.6,1.4,-.8,4c-.2,1.8,-.3,3.4,-.3,4.5l.2,.4l.4,.2c2.1,-.4,4,-.6,5.6,-.8h1.2c1,0,1.5,.4,1.5,1.2c0,.4,-.2,.7,-.4,.9c-.3,.3,-.4,.4,-.4,.6c0,.3,0,.9,.2,1.8c.1,.9,.2,1.6,.2,2.1v1.2c0,.7,.1,1.1,.1,1.3c0,3,-.4,4.5,-1,4.5c-.1,0,-.2,0,-.4,0c-.2,-.1,-.3,-.1,-.5,-.1c-.1,-.1,-.3,-.1,-.6,-.1c-.7,.3,-1.5,.4,-2.5,.4c-.7,0,-1.7,0,-3.1,-.2c-.1,0,-.2,0,-.4,.1c-.2,.1,-.3,.1,-.4,.1c-.2,0,-.4,0,-.5,-.2l-.4,-.2c-.6,0,-1,-.2,-1,-.6c0,-.4,-.1,-.6,-.3,-.7c-.1,-.1,-.4,-.2,-1,-.3c-.1,-.6,-.2,-1.3,-.2,-2V493l.2,-.4l.4,-.2l.4,.2l.2,.4c0,.6,.2,.8,.5,.8c.3,0,.5,-.2,.6,-.6c.1,-.3,.3,-.5,.6,-.5l.4,.2l.2,.4c0,3.1,.2,4.7,.7,4.7c1.1,.2,2.1,.3,2.9,.3h.4l.4,-.2c0,-.2,.1,-.4,.1,-.5c0,-4.3,-.4,-7.6,-1,-10c-.1,-.2,-.3,-.3,-.5,-.3c-.6,0,-1.5,.1,-2.4,.5c-.2,0,-.3,.2,-.5,.5c-.1,.3,-.3,.5,-.5,.5c-.5,-.2,-.7,-.3,-.8,-.3c-.1,0,-.5,.2,-1.1,.6H81l-.4,-.3v-.2c0,0,0,-.1,0,-.1l-.1,-.5c-.4,-5.1,-.7,-8.3,-.7,-9.3v-1.9l.2,-.4l.4,-.2l.5,.2l.1,.4c0,.6,.2,.8,.5,.8c.1,.1,.3,0,.4,0l.3,-.5V477l.1,-.6Z" class="g1_9"/>
<path d="M82.2,477v.1l-.3,.5c-.1,0,-.3,.1,-.4,0c-.3,0,-.5,-.2,-.5,-.8l-.1,-.4l-.5,-.2l-.4,.2l-.2,.4v1.9c0,1,.3,4.2,.7,9.3l.1,.5c0,0,0,.1,0,.1q0,.1,0,.2l.4,.3h.5c.6,-.4,1,-.6,1.1,-.6c.1,0,.3,.1,.8,.3c.2,0,.4,-.2,.5,-.5c.2,-.3,.3,-.5,.5,-.5c.9,-.4,1.8,-.5,2.4,-.5c.2,0,.4,.1,.5,.3c.6,2.4,1,5.8,1,10.1c0,.1,-.1,.2,-.1,.4l-.4,.3l-.4,-.1c-.8,0,-1.8,0,-2.9,-.2c-.5,-.1,-.7,-1.7,-.7,-4.8l-.2,-.4l-.4,-.2c-.3,0,-.5,.2,-.6,.6c-.1,.3,-.3,.5,-.6,.5c-.3,0,-.5,-.2,-.5,-.8l-.2,-.4l-.4,-.2l-.4,.2l-.2,.4c0,0,0,.8,0,2.5c0,.7,.1,1.4,.2,2c.6,.1,.9,.2,1,.3c.2,.1,.3,.3,.3,.7c0,.4,.4,.6,1,.6l.4,.2c.1,.2,.3,.2,.5,.2c.1,0,.2,0,.4,-.1c.2,-.1,.3,-.1,.4,-.1c1.4,.1,2.4,.2,3.1,.2c1,0,1.8,-.1,2.5,-.4c.3,0,.5,0,.6,.1c.1,0,.3,0,.5,.1c.2,0,.3,0,.4,0c.6,0,1,-1.5,1,-4.5c0,-.2,-.1,-.6,-.1,-1.3c0,-.5,0,-.9,0,-1.2c0,-.5,-.1,-1.2,-.2,-2.1c-.2,-.8,-.2,-1.5,-.2,-1.8c0,-.2,.1,-.3,.4,-.5c.2,-.3,.4,-.6,.4,-1c0,-.8,-.5,-1.2,-1.5,-1.2H90.2c-1.6,.2,-3.5,.4,-5.6,.8l-.4,-.2l-.2,-.4c0,-1.1,.1,-2.7,.3,-4.5c.2,-2.6,.5,-3.9,.8,-4c.4,-.2,1.1,-.4,2,-.5l.5,.1l.1,.4v5.4l.2,.4l.4,.2c.2,0,.3,-.1,.5,-.2c.2,-.2,.3,-.2,.4,-.2c.3,0,.5,.1,.5,.3l.3,.4h.5l.3,-.3c.1,-.2,.2,-.3,.2,-.4c.1,-.1,.3,-.1,.4,0c.3,0,.4,0,.5,0c.3,0,.5,-.2,.5,-.5c0,-.7,-.4,-2.6,-1,-5.9l.1,-.5c.1,-.2,.2,-.3,.2,-.5c0,-.3,-.2,-.5,-.5,-.5c-.7,0,-1.6,.1,-3,.5c-1.3,.3,-2.3,.4,-2.8,.4c-.2,0,-.4,-.1,-.5,-.2c-.2,-.2,-.4,-.4,-.5,-.4c-.2,0,-.4,.2,-.5,.4c-.2,.1,-.3,.2,-.5,.2c-.1,0,-.2,0,-.4,-.1l-.5,.1l-.2,.4l-.1,.6Z" class="g2_9"/>
<path d="M72,527.8c8.2,0,14.9,-6.7,14.9,-15c0,-8.2,-6.7,-14.9,-14.9,-14.9c-8.3,0,-15,6.7,-15,14.9c0,8.3,6.7,15,15,15Z" class="g3_9"/>
<path d="M72,527.8c8.2,0,14.9,-6.7,14.9,-15c0,-8.2,-6.7,-14.9,-14.9,-14.9c-8.3,0,-15,6.7,-15,14.9c0,8.3,6.7,15,15,15Z" class="g1_9"/>
<path d="M149,495.3c8.3,0,15,-6.6,15,-14.9c0,-8.2,-6.7,-14.9,-15,-14.9c-8.2,0,-14.9,6.7,-14.9,14.9c0,8.3,6.7,14.9,14.9,14.9Z" class="g3_9"/>
<path d="M149,495.3c8.3,0,15,-6.6,15,-14.9c0,-8.2,-6.7,-14.9,-15,-14.9c-8.2,0,-14.9,6.7,-14.9,14.9c0,8.3,6.7,14.9,14.9,14.9Z" class="g1_9"/>
<path d="M56.3,73.3H439.4M56.3,402.9H439.4" class="g4_9"/>
<path d="M671.4,153.3c6.1,0,11,-4.9,11,-10.9c0,-6.1,-4.9,-11,-11,-11c-6.1,0,-11,4.9,-11,11c0,6,4.9,10.9,11,10.9Z" class="g3_9"/>
<path d="M671.4,153.3c6.1,0,11,-4.9,11,-10.9c0,-6.1,-4.9,-11,-11,-11c-6.1,0,-11,4.9,-11,11c0,6,4.9,10.9,11,10.9Z" class="g5_9"/>
<path d="M548.5,382.2c6.4,0,11.6,-5.2,11.6,-11.6c0,-6.3,-5.2,-11.5,-11.6,-11.5c-6.3,0,-11.5,5.2,-11.5,11.5c0,6.4,5.2,11.6,11.5,11.6Z" class="g3_9"/>
<path d="M548.5,382.2c6.4,0,11.6,-5.2,11.6,-11.6c0,-6.3,-5.2,-11.5,-11.6,-11.5c-6.3,0,-11.5,5.2,-11.5,11.5c0,6.4,5.2,11.6,11.5,11.6Z" class="g6_9"/>
<image clip-path="url(#c3_9)" preserveAspectRatio="none" x="26" y="1150" width="883" height="98" xlink:href="img/4.webp"/>
<image clip-path="url(#c4_9)" preserveAspectRatio="none" x="26" y="529" width="883" height="76" xlink:href="img/5.webp"/>
<image clip-path="url(#c5_9)" preserveAspectRatio="none" x="-997" y="-452" width="2059" height="1765" xlink:href="img/6.webp"/>
<image clip-path="url(#c6_9)" preserveAspectRatio="none" x="769" y="645" width="18" height="17" xlink:href="img/7.webp"/>
<g clip-path="url(#c5_9)">
<path d="M-1004.1,-452.9h-15.6m2088.3,0h15.5m-2088.2,1766h-15.6m2088.3,0h15.5M-997.9,-459.1v-15.6m0,1794v15.6m2060.2,-1794v-15.6m0,1794v15.6" class="g7_9"/>
<path d="M-1004.1,-452.9h-15.6m2088.3,0h15.5m-2088.2,1766h-15.6m2088.3,0h15.5M-997.9,-459.1v-15.6m0,1794v15.6m2060.2,-1794v-15.6m0,1794v15.6" class="g8_9"/>
</g>
<image clip-path="url(#c7_9)" preserveAspectRatio="none" x="22" y="607" width="865" height="534" xlink:href="img/8.webp"/>
<image clip-path="url(#c8_9)" preserveAspectRatio="none" x="692" y="670" width="143" height="144" xlink:href="img/9.webp"/>
<image clip-path="url(#c9_9)" preserveAspectRatio="none" x="624" y="620" width="114" height="123" xlink:href="img/10.webp"/>
<image clip-path="url(#ca_9)" preserveAspectRatio="none" x="65" y="784" width="26" height="27" xlink:href="img/11.webp"/>
<image clip-path="url(#cb_9)" preserveAspectRatio="none" x="88" y="784" width="26" height="27" xlink:href="img/12.webp"/>
<image clip-path="url(#cc_9)" preserveAspectRatio="none" x="377" y="861" width="26" height="26" xlink:href="img/13.webp"/>
<image clip-path="url(#cd_9)" preserveAspectRatio="none" x="493" y="713" width="111" height="106" xlink:href="img/14.webp"/>
<image clip-path="url(#ce_9)" preserveAspectRatio="none" x="564" y="780" width="37" height="37" xlink:href="img/15.webp"/>
<path d="M544.1,796.7l-.1,-.4c0,.2,0,-.2,.1,-1.2c0,-.8,0,-1.5,-.1,-1.9c0,-.7,-.2,-1,-.5,-1c-.4,0,-.5,.4,-.5,1.3c-.1,.5,-.1,1,-.1,1.5c0,.8,-.2,1.1,-.6,1.1l-.4,-.1l-.1,-.4c.2,-2.5,.4,-5.1,.5,-7.6l-.2,-.4l-.4,-.1c-1.3,.2,-3.1,.5,-5.2,.6c-.4,0,-.6,0,-.7,.2l-.4,.1l-.4,-.1l-.2,-.4c-.3,-3.3,-.5,-5.8,-.5,-7.4c0,-3,.3,-4.4,.9,-4.4c.2,.2,.4,.3,.6,.4l.7,-.3l.4,.1l.1,.4c.4,4.4,.8,7.6,1.1,9.8l.2,.3l.3,.1c1.7,-.2,2.8,-.4,3.4,-.6c.3,-.1,.4,-2,.4,-5.5v-3.6c.1,-.4,.2,-.7,.6,-.7c.1,-.1,.3,-.2,.4,-.4c.1,-.2,.3,-.3,.5,-.3c.2,.1,.3,.2,.4,.3c.2,.1,.3,.2,.4,.3h.3l.2,-.1l.4,.2l.1,.4v1.8c0,1.8,0,4.3,-.1,7.8c-.1,3.4,-.1,6,-.1,7.7c-.1,.2,-.2,.4,-.3,.6c-.1,.3,-.1,.5,-.1,.6c0,1,-.2,1.5,-.6,1.5v-.1l-.4,-.1Z" class="g9_9"/>
<path d="M544.5,796.8v.1c.4,0,.6,-.5,.6,-1.5c0,-.1,0,-.3,.1,-.6c.1,-.2,.2,-.4,.3,-.6c0,-1.7,0,-4.3,.1,-7.7c.1,-3.5,.1,-6,.1,-7.8v-1.8l-.1,-.4l-.4,-.2l-.2,.1h-.3c-.1,-.1,-.2,-.2,-.4,-.3c-.1,-.1,-.3,-.2,-.5,-.3c-.2,0,-.3,.1,-.5,.3c-.1,.2,-.2,.3,-.4,.4c-.3,0,-.5,.3,-.5,.7c0,-.4,0,0,0,1.2v2.4c0,3.5,-.1,5.4,-.4,5.5c-.6,.2,-1.7,.4,-3.4,.6l-.3,-.1l-.2,-.3c-.3,-2.2,-.7,-5.4,-1.1,-9.8l-.1,-.4l-.4,-.1l-.7,.3c-.2,-.1,-.4,-.2,-.6,-.4c-.6,0,-.9,1.4,-.9,4.4c0,1.6,.2,4.1,.5,7.4l.2,.4l.4,.1l.4,-.1c.1,-.2,.3,-.2,.7,-.2c2.1,-.1,3.9,-.4,5.2,-.6l.4,.1l.2,.4c-.1,2.5,-.3,5.1,-.5,7.6l.1,.4l.4,.1c.4,0,.6,-.3,.6,-1.1c0,-.5,0,-1,.1,-1.5c0,-.9,.1,-1.3,.5,-1.3c.3,0,.5,.3,.5,1c.1,.4,.1,1.1,.1,1.9c-.1,1,-.1,1.4,-.1,1.2l.1,.4l.4,.1Z" class="g2_9"/>
<image clip-path="url(#cf_9)" preserveAspectRatio="none" x="260" y="718" width="192" height="96" xlink:href="img/16.webp"/>
<image clip-path="url(#cg_9)" preserveAspectRatio="none" x="264" y="718" width="192" height="96" xlink:href="img/17.webp"/>
<path d="M272.4,796.7c0,-.3,-.1,-.4,-.3,-.4l-.6,.2l-.3,-.1c0,-.1,-.1,-.2,-.2,-.2c-.5,0,-1.3,.2,-2.4,.7c-1.3,.5,-1.9,.9,-1.9,1.3l.1,.3l.3,.1c.3,-.2,.9,-.5,1.6,-.9h.3l.2,.3c0,1.1,.1,2.5,0,4.2c0,2.6,-.1,4.1,-.1,4.3c0,1.3,0,2,0,2c.1,.2,.2,.6,.3,1.2c.1,.5,.2,.9,.2,1.2c0,.3,.1,.4,.4,.4c.2,0,.4,-.1,.4,-.4c.1,-.2,.2,-.4,.3,-.4l.3,.1l.2,.3c0,0,0,.1,0,.2c-.1,.2,-.1,.3,-.1,.3l.1,.3l.3,.2l.3,-.1l.1,-.3c.4,-6.1,.5,-11.1,.5,-14.8Z" class="g0_9"/>
<path d="M277.9,811.1c-.6,0,-1.1,-1.3,-1.5,-3.8c-.4,-1.9,-.5,-3.5,-.6,-4.7c.1,-.9,.2,-2.4,.2,-4.3c0,-.2,.3,-.4,.9,-.6c.6,-.2,1,-.3,1.2,-.3c.3,0,.4,.1,.4,.3c.2,.8,.5,2.6,.8,5.4c.4,2.9,.5,4.7,.4,5.3c.1,.2,.1,.4,.1,.4c0,.2,0,.5,-.2,1c-.1,.5,-.2,.8,-.3,.8c-.6,.3,-1.1,.5,-1.4,.5Zm4.2,-1.2c0,-.5,.1,-1.2,.2,-2.1c.1,-.9,.2,-1.6,.2,-2c0,-2.1,-.3,-4.7,-.9,-7.8c-.1,-.4,-.1,-.6,-.1,-.7c0,-.1,-.1,-.2,-.2,-.3c0,0,-.1,0,-.2,0c-.2,0,-.3,0,-.3,0c-.1,0,-.2,0,-.3,-.1l-.2,-.3c-.4,-.1,-.8,-.1,-1.2,-.1c-1.1,0,-2.3,.3,-3.7,.9l-.3,.1l-.2,-.2c0,-.2,-.1,-.3,-.3,-.3l-.3,.1c-.3,.7,-.5,1.8,-.7,3.5c-.2,1.3,-.2,2.5,-.2,3.5c0,1.2,.1,2.4,.3,3.7c.3,1.6,.6,2.8,1.1,3.6c.2,.2,.3,.3,.5,.2c.3,0,.6,.1,.8,.3c.2,.2,.3,.3,.5,.3c.7,0,2.2,-.5,4.4,-1.4c.1,0,.3,0,.6,.2l.3,-.1c0,-.2,.1,-.5,.3,-.8l-.1,-.2Z" class="g0_9"/>
<image clip-path="url(#ch_9)" preserveAspectRatio="none" x="393" y="732" width="126" height="57" xlink:href="img/18.webp"/>
<image clip-path="url(#ci_9)" preserveAspectRatio="none" x="351" y="764" width="45" height="47" xlink:href="img/19.webp"/>
<image clip-path="url(#cj_9)" preserveAspectRatio="none" x="376" y="737" width="46" height="47" xlink:href="img/20.webp"/>
<image clip-path="url(#ck_9)" preserveAspectRatio="none" x="478" y="1051" width="27" height="26" xlink:href="img/21.webp"/>
<image clip-path="url(#cl_9)" preserveAspectRatio="none" x="428" y="942" width="68" height="71" xlink:href="img/22.webp"/>
<image clip-path="url(#cm_9)" preserveAspectRatio="none" x="236" y="933" width="69" height="71" xlink:href="img/23.webp"/>
<image clip-path="url(#cn_9)" preserveAspectRatio="none" x="285" y="957" width="68" height="72" xlink:href="img/24.webp"/>
<path clip-path="url(#co_9)" d="M774.8,962.1H876.6V810.6H774.8V962.1Z" class="g0_9"/>
<image clip-path="url(#cp_9)" preserveAspectRatio="none" x="788" y="822" width="76" height="15" xlink:href="img/25.webp"/>
<image clip-path="url(#cq_9)" preserveAspectRatio="none" x="855" y="932" width="12" height="17" xlink:href="img/26.webp"/>
<path clip-path="url(#cr_9)" d="M862.4,938.1c0,-.1,0,-.2,-.2,-.2l-.3,.1l-.2,-.1c0,0,-.1,-.1,-.1,-.1c-.3,0,-.8,.2,-1.4,.4c-.8,.3,-1.2,.6,-1.2,.8l.1,.2h.2c.2,-.1,.5,-.3,.9,-.5h.2l.1,.2c.1,.6,.1,1.5,0,2.5c0,1.5,0,2.4,0,2.5c0,.8,0,1.2,0,1.2c0,.1,.1,.4,.1,.7c.1,.3,.2,.5,.2,.7c0,.2,.1,.2,.2,.2c.1,0,.2,0,.2,-.2c.1,-.1,.1,-.2,.2,-.2h.2l.1,.2c0,0,0,.1,0,.2c0,0,0,.1,0,.1v.2l.2,.1l.2,-.1v-.1c.2,-3.7,.3,-6.6,.3,-8.8Z" class="g0_9"/>
<image clip-path="url(#cs_9)" preserveAspectRatio="none" x="786" y="868" width="29" height="28" xlink:href="img/27.webp"/>
<image clip-path="url(#ct_9)" preserveAspectRatio="none" x="795" y="889" width="31" height="20" xlink:href="img/28.webp"/>
<image clip-path="url(#cu_9)" preserveAspectRatio="none" x="806" y="891" width="17" height="16" xlink:href="img/29.webp"/>
<image clip-path="url(#cv_9)" preserveAspectRatio="none" x="789" y="910" width="28" height="28" xlink:href="img/30.webp"/>
<image clip-path="url(#cw_9)" preserveAspectRatio="none" x="796" y="931" width="51" height="20" xlink:href="img/31.webp"/>
<image clip-path="url(#cx_9)" preserveAspectRatio="none" x="825" y="934" width="20" height="15" xlink:href="img/32.webp"/>
<image clip-path="url(#cy_9)" preserveAspectRatio="none" x="808" y="932" width="17" height="17" xlink:href="img/33.webp"/>
<path clip-path="url(#co_9)" d="M819.6,829.8l-1.9,-1.5l1.8,-.8l-.9,-.9c-.2,.1,-.3,.2,-.5,.3c-.2,.1,-.3,.2,-.4,.3c-.2,0,-.3,.1,-.4,.1c-.2,.1,-.4,.2,-.6,.2c-.2,.1,-.3,.1,-.4,.2q0,-.1,0,-.2v-.2c0,-.2,0,-.4,0,-.6c0,-.2,0,-.5,0,-.7c0,-.3,0,-.7,0,-1l-1.4,.6c0,.3,0,.5,0,.8c0,.2,0,.5,0,.6c0,.3,0,.5,0,.7c0,.2,0,.4,0,.7c0,.2,0,.4,0,.7c0,.3,-.1,.7,-.1,1l1.5,-.1v-.8q0,-.1,0,-.2c0,0,0,-.1,0,-.1q0,-.1,0,-.2h.2l2,1.6l1.1,-.5Zm6,1.2c-.3,-.2,-.6,-.4,-.8,-.6c-.3,-.1,-.5,-.3,-.6,-.4c-.2,-.2,-.3,-.3,-.4,-.4c-.2,-.2,-.3,-.3,-.4,-.4c0,-.1,-.1,-.2,-.2,-.3c-.1,-.1,-.2,-.3,-.3,-.4c.4,-.1,.7,-.2,.9,-.3c.2,-.2,.3,-.3,.4,-.5c.1,-.1,.2,-.3,.2,-.5c0,-.1,-.1,-.3,-.1,-.4c-.1,-.1,-.3,-.2,-.4,-.3c-.1,-.1,-.3,-.1,-.5,-.2c-.2,-.1,-.4,-.1,-.6,-.1c-.2,-.1,-.5,-.1,-.7,-.1c-.2,0,-.4,0,-.6,0c-.1,0,-.2,0,-.4,0c-.1,0,-.3,0,-.4,.1c-.2,0,-.4,0,-.6,0c-.1,0,-.3,0,-.5,0c.1,.3,.1,.5,.2,.8c0,.2,0,.4,0,.5c0,.2,0,.4,0,.5c0,.2,0,.3,0,.5c0,.2,0,.4,0,.7c0,.2,0,.5,0,.9h1.4c0,-.6,-.1,-1.1,-.1,-1.4c0,-.2,0,-.3,0,-.5c0,-.1,0,-.2,0,-.3c0,-.1,.1,-.2,.1,-.4c0,-.1,0,-.2,0,-.4c.2,0,.4,0,.6,0c.1,-.1,.3,-.1,.4,-.1c.1,0,.2,0,.3,.1c.1,0,.2,0,.2,0q.2,.1,.2,.2c0,.2,0,.3,-.1,.3c-.1,.1,-.2,.2,-.3,.2c-.1,.1,-.2,.1,-.4,.2c-.1,0,-.2,0,-.4,.1c-.1,0,-.2,0,-.3,0c0,0,-.1,0,-.1,0c.1,.3,.3,.6,.4,.8c.1,.2,.3,.4,.4,.6c.1,.2,.2,.3,.3,.4c.2,.2,.4,.4,.6,.6c.1,.1,.2,.1,.3,.2q.1,.1,.2,.2c.1,0,.2,.1,.3,.1c0,.1,.1,.1,.2,.1l1.6,-.1Zm.7,-1.1v-3.8l-1.5,.2c0,.3,0,.5,0,.7c.1,.2,.1,.4,.1,.6c0,.2,0,.4,0,.5c0,.2,0,.4,0,.6c0,.1,0,.3,0,.6c-.1,.2,-.1,.5,-.1,.8l1.5,-.2Zm4.9,-1.6c-.2,-.2,-.4,-.3,-.6,-.4c-.2,-.1,-.5,-.2,-.7,-.2c-.3,-.1,-.5,-.1,-.8,-.1c-.2,-.1,-.4,-.1,-.5,-.2c-.2,0,-.3,-.1,-.3,-.2c.1,0,.2,-.1,.3,-.1c.2,0,.4,0,.7,0c.3,0,.7,0,1.3,.1l.7,-1c-.3,-.1,-.7,-.1,-.9,-.1c-.3,0,-.6,0,-.8,0c-.2,0,-.4,0,-.5,0c-.1,0,-.3,0,-.4,0c-.2,0,-.4,0,-.5,0c-.2,0,-.4,.1,-.6,.1c-.1,.1,-.3,.2,-.4,.3c-.1,0,-.2,.1,-.3,.3c-.1,.1,-.2,.2,-.2,.4c0,.3,.1,.5,.3,.7c.1,.1,.3,.3,.5,.4c.3,.1,.5,.1,.8,.2c.2,0,.5,.1,.7,.1c.2,0,.4,.1,.6,.1c.1,.1,.2,.1,.2,.2c0,.1,-.1,.1,-.3,.2q-.1,0,-.3,0c-.1,0,-.2,0,-.4,0c-.1,0,-.3,-.1,-.5,-.1c-.2,0,-.5,-.1,-.8,-.1l-.7,1.1c.3,0,.6,.1,.8,.1c.3,0,.5,0,.7,0c.2,0,.5,0,.7,0c.2,0,.5,0,.8,0c.2,0,.5,-.1,.8,-.1c.2,-.1,.4,-.2,.6,-.4c.1,-.1,.2,-.3,.2,-.6c0,-.3,-.1,-.5,-.2,-.7Zm4.4,0c-.1,-.2,-.3,-.3,-.5,-.4c-.3,-.1,-.5,-.2,-.8,-.2c-.2,-.1,-.5,-.1,-.7,-.1c-.2,-.1,-.4,-.1,-.6,-.2c-.1,0,-.2,-.1,-.2,-.2c0,0,.1,-.1,.3,-.1c.1,0,.3,0,.6,0c.3,0,.8,0,1.3,.1l.8,-1c-.4,-.1,-.7,-.1,-1,-.1c-.3,0,-.5,0,-.7,0c-.2,0,-.4,0,-.6,0c-.1,0,-.2,0,-.4,0c-.1,0,-.3,0,-.5,0c-.2,0,-.3,.1,-.5,.1c-.2,.1,-.3,.2,-.4,.3c-.2,0,-.3,.1,-.4,.3c-.1,.1,-.1,.2,-.1,.4c0,.3,.1,.5,.2,.7c.2,.1,.4,.3,.6,.4c.2,.1,.5,.1,.7,.2c.3,0,.5,.1,.8,.1c.2,0,.4,.1,.5,.1c.2,.1,.3,.1,.3,.2c-.1,.1,-.2,.1,-.3,.2c-.1,0,-.2,0,-.3,0c-.1,0,-.2,0,-.4,0c-.2,0,-.4,-.1,-.6,-.1c-.2,0,-.4,-.1,-.7,-.1l-.7,1.1c.2,0,.5,.1,.8,.1c.2,0,.5,0,.7,0c.2,0,.4,0,.6,0c.3,0,.5,0,.8,0c.3,0,.6,-.1,.8,-.1c.3,-.1,.5,-.2,.6,-.4c.2,-.1,.3,-.3,.3,-.6c0,-.3,-.1,-.5,-.3,-.7Z" class="ga_9"/>
<image x="814" y="824" width="6" height="6" xlink:href="shade/1.webp"/>
<image x="819" y="826" width="7" height="7" xlink:href="shade/2.webp"/>
<image x="824" y="826" width="3" height="5" xlink:href="shade/3.webp"/>
<image x="826" y="826" width="5" height="5" xlink:href="shade/4.webp"/>
<image x="831" y="826" width="5" height="5" xlink:href="shade/5.webp"/>
<image clip-path="url(#cz_9)" preserveAspectRatio="none" x="807" y="831" width="57" height="107" xlink:href="img/34.webp"/>
<path d="M793.7,908.6h32.4V888.3H793.7v20.3Z" class="gb_9"/>
<path d="M56.3,567.9H852.8M56.3,1188.7H852.8" class="gc_9"/>
<image clip-path="url(#c10_9)" preserveAspectRatio="none" x="461" y="385" width="412" height="127" xlink:href="img/35.webp"/>
<path d="M880.9,1255.8v-.3l-.1,-.2l-.2,-.1h-.2c0,0,-.1,-.1,-.3,-.2c-.1,-.1,-.5,-.3,-1,-.5l-.2,-.2c0,-.1,-.1,-.2,-.3,-.2c0,0,-.1,.1,-.2,.1c-.1,0,-.2,.1,-.2,.1c-.3,-.1,-.7,-.1,-1,-.1c-.3,0,-.7,.1,-1.1,.2c-.5,.1,-.8,.2,-.9,.2c-.2,0,-.3,-.1,-.3,-.4c0,-.1,-.1,-.2,-.2,-.2h-.3c-.2,.2,-.4,.9,-.6,2.2c-.2,1.1,-.3,1.8,-.3,2.4c0,1.4,.2,2.2,.7,2.3c.3,.1,.7,.2,1.2,.2c.9,0,1.8,-.2,2.7,-.5c0,-.1,.1,-.1,.1,-.1c.2,0,.3,.1,.3,.3c0,.9,-.3,2.5,-.9,5l-.1,.2c-.7,.4,-1,.5,-1.1,.5l-.3,-.1c0,-.1,-.2,-.5,-.4,-1.3c-.1,-.7,-.3,-1,-.5,-1c-.1,0,-.2,0,-.3,.1c-.1,.1,-.2,.2,-.2,.2c-.1,0,-.2,-.1,-.3,-.2c-.1,-.1,-.2,-.1,-.3,-.1l-.2,.1l-.1,.2v.1c0,.2,.1,.6,.3,1.3c.2,.8,.3,1.2,.4,1.2c0,.1,.1,.2,.2,.2l.3,-.1l.1,-.2c0,-.1,.1,-.2,.3,-.3c.1,0,.2,.2,.4,.5l.2,.1h.3c.2,0,.5,-.1,1.1,-.4h.3c.1,0,.3,-.1,.4,-.2c.1,-.3,.2,-.4,.2,-.4l.3,-.1l.2,.2c0,.1,.1,.2,.2,.2c.2,0,.4,-.3,.5,-.7c.9,-3.1,1.4,-6.4,1.4,-10Zm-4.6,4.6c-.4,0,-.5,-.9,-.5,-2.5c.1,-1.9,.2,-2.9,.5,-3c.2,-.1,.5,-.1,.9,-.1c.5,0,.8,.1,1,.1c.3,.1,.4,1.2,.4,3.2c0,.7,0,1.1,0,1.2c-.2,.3,-.5,.5,-1,.8c-.5,.2,-.9,.3,-1.3,.3Z" class="g3_9"/>
</svg>