<?xml version="1.0" encoding="UTF-8" standalone="no"?>
<!DOCTYPE svg PUBLIC "-//W3C//DTD SVG 1.1//EN"
"http://www.w3.org/Graphics/SVG/1.1/DTD/svg11.dtd">
<svg viewBox="0 0 909 1286" version="1.1" xmlns="http://www.w3.org/2000/svg" xmlns:xlink="http://www.w3.org/1999/xlink">
<defs>
<clipPath id="c0_12"><path d="M472.2,1242.9V905.7H866.1v337.2Z"/></clipPath>
<style type="text/css"><![CDATA[
.g0_12{
fill: none;
stroke: #000000;
stroke-width: 0.763;
stroke-linecap: butt;
stroke-linejoin: miter;
}
.g1_12{
}
.g2_12{
fill: none;
stroke: #FFFFFF;
stroke-width: 0.611;
stroke-linecap: butt;
stroke-linejoin: miter;
stroke-miterlimit: 1;
}
.g3_12{
fill: none;
stroke: #FFFFFF;
stroke-width: 0.534;
stroke-linecap: butt;
stroke-linejoin: miter;
stroke-miterlimit: 1;
}
.g4_12{
fill: none;
stroke: #FFFFFF;
stroke-width: 0.545;
stroke-linecap: butt;
stroke-linejoin: miter;
stroke-miterlimit: 1;
}
.g5_12{
fill: none;
stroke: #FFFFFF;
stroke-width: 0.687;
stroke-linecap: butt;
stroke-linejoin: miter;
stroke-miterlimit: 4;
}
.g6_12{
fill: none;
stroke: #FFFFFF;
stroke-width: 0.392;
stroke-linecap: butt;
stroke-linejoin: miter;
stroke-miterlimit: 1;
}
.g7_12{
fill: none;
stroke: #FFFFFF;
stroke-width: 0.436;
stroke-linecap: butt;
stroke-linejoin: miter;
stroke-miterlimit: 1;
}
.g8_12{
fill: none;
stroke: #FFFFFF;
stroke-width: 0.247;
stroke-linecap: butt;
stroke-linejoin: miter;
}
.g9_12{
fill: none;
stroke: #000000;
stroke-width: 0.152;
stroke-linecap: butt;
stroke-linejoin: miter;
}
.ga_12{
fill: none;
stroke: #FFFFFF;
stroke-width: 0.152;
stroke-linecap: butt;
stroke-linejoin: miter;
}
]]></style>
</defs>
<image preserveAspectRatio="none" x="-21" y="-21" width="932" height="1329" xlink:href="../1/img/1.webp"/>
<image preserveAspectRatio="none" x="102" y="26" width="706" height="52" xlink:href="img/2.webp"/>
<path d="M43.3,557.8H439.6" class="g0_12"/>
<path d="M52.6,583.4c4.9,0,8.9,-4,8.9,-9c0,-4.9,-4,-9,-8.9,-9c-5,0,-9,4.1,-9,9c0,5,4,9,9,9Z" class="g1_12"/>
<path d="M52.6,583.4c4.9,0,8.9,-4,8.9,-9c0,-4.9,-4,-9,-8.9,-9c-5,0,-9,4.1,-9,9c0,5,4,9,9,9Z" class="g2_12"/>
<path d="M52.6,620.1c4.9,0,8.9,-4,8.9,-9c0,-4.9,-4,-8.9,-8.9,-8.9c-5,0,-9,4,-9,8.9c0,5,4,9,9,9Z" class="g1_12"/>
<path d="M52.6,620.1c4.9,0,8.9,-4,8.9,-9c0,-4.9,-4,-8.9,-8.9,-8.9c-5,0,-9,4,-9,8.9c0,5,4,9,9,9Z" class="g2_12"/>
<path d="M52.6,659.6c4.9,0,8.9,-4,8.9,-9c0,-4.9,-4,-8.9,-8.9,-8.9c-5,0,-9,4,-9,8.9c0,5,4,9,9,9Z" class="g1_12"/>
<path d="M52.6,659.6c4.9,0,8.9,-4,8.9,-9c0,-4.9,-4,-8.9,-8.9,-8.9c-5,0,-9,4,-9,8.9c0,5,4,9,9,9Z" class="g2_12"/>
<image preserveAspectRatio="none" x="316" y="690" width="22" height="22" xlink:href="img/3.webp"/>
<path d="M43.3,922.4H439.6" class="g0_12"/>
<path d="M52.6,947.4c4.9,0,8.9,-4,8.9,-9c0,-4.9,-4,-9,-8.9,-9c-5,0,-9,4.1,-9,9c0,5,4,9,9,9Z" class="g1_12"/>
<path d="M52.6,947.4c4.9,0,8.9,-4,8.9,-9c0,-4.9,-4,-9,-8.9,-9c-5,0,-9,4.1,-9,9c0,5,4,9,9,9Z" class="g2_12"/>
<image preserveAspectRatio="none" x="43" y="947" width="22" height="22" xlink:href="img/4.webp"/>
<image preserveAspectRatio="none" x="65" y="947" width="21" height="22" xlink:href="img/5.webp"/>
<image preserveAspectRatio="none" x="216" y="947" width="21" height="22" xlink:href="img/6.webp"/>
<path d="M52.6,1020.4c4.9,0,8.9,-4,8.9,-8.9c0,-5,-4,-9,-8.9,-9c-5,0,-9,4,-9,9c0,4.9,4,8.9,9,8.9Z" class="g1_12"/>
<path d="M52.6,1020.4c4.9,0,8.9,-4,8.9,-8.9c0,-5,-4,-9,-8.9,-9c-5,0,-9,4,-9,9c0,4.9,4,8.9,9,8.9Z" class="g2_12"/>
<path d="M52.6,1059.3c4.9,0,8.9,-4,8.9,-8.9c0,-5,-4,-9,-8.9,-9c-5,0,-9,4,-9,9c0,4.9,4,8.9,9,8.9Z" class="g1_12"/>
<path d="M52.6,1059.3c4.9,0,8.9,-4,8.9,-8.9c0,-5,-4,-9,-8.9,-9c-5,0,-9,4,-9,9c0,4.9,4,8.9,9,8.9Z" class="g2_12"/>
<path d="M43.3,121.8H437.6" class="g0_12"/>
<path d="M52.6,147.3c4.9,0,8.9,-4,8.9,-8.9c0,-5,-4,-9,-8.9,-9c-5,0,-9,4,-9,9c0,4.9,4,8.9,9,8.9Z" class="g1_12"/>
<path d="M52.6,147.3c4.9,0,8.9,-4,8.9,-8.9c0,-5,-4,-9,-8.9,-9c-5,0,-9,4,-9,9c0,4.9,4,8.9,9,8.9Z" class="g2_12"/>
<image preserveAspectRatio="none" x="61" y="211" width="22" height="22" xlink:href="img/7.webp"/>
<path d="M52.6,279.3c4.9,0,8.9,-4.1,8.9,-9c0,-5,-4,-9,-8.9,-9c-5,0,-9,4,-9,9c0,4.9,4,9,9,9Z" class="g1_12"/>
<path d="M52.6,279.3c4.9,0,8.9,-4.1,8.9,-9c0,-5,-4,-9,-8.9,-9c-5,0,-9,4,-9,9c0,4.9,4,9,9,9Z" class="g2_12"/>
<path d="M52.6,363.3c4.9,0,8.9,-4,8.9,-9c0,-4.9,-4,-8.9,-8.9,-8.9c-5,0,-9,4,-9,8.9c0,5,4,9,9,9Z" class="g1_12"/>
<path d="M52.6,363.3c4.9,0,8.9,-4,8.9,-9c0,-4.9,-4,-8.9,-8.9,-8.9c-5,0,-9,4,-9,8.9c0,5,4,9,9,9Z" class="g2_12"/>
<path d="M52.6,429.8c4.9,0,9,-4,9,-9c0,-5,-4.1,-9,-9,-9c-5,0,-9,4,-9,9c0,5,4,9,9,9Z" class="g1_12"/>
<path d="M52.6,429.8c4.9,0,9,-4,9,-9c0,-5,-4.1,-9,-9,-9c-5,0,-9,4,-9,9c0,5,4,9,9,9Z" class="g3_12"/>
<image preserveAspectRatio="none" x="43" y="430" width="22" height="21" xlink:href="img/8.webp"/>
<image preserveAspectRatio="none" x="65" y="430" width="22" height="21" xlink:href="img/9.webp"/>
<image preserveAspectRatio="none" x="232" y="430" width="22" height="21" xlink:href="img/10.webp"/>
<path d="M52.6,482.6c4.9,0,9,-4.1,9,-9c0,-5,-4.1,-9,-9,-9c-5,0,-9,4,-9,9c0,4.9,4,9,9,9Z" class="g1_12"/>
<path d="M52.6,482.6c4.9,0,9,-4.1,9,-9c0,-5,-4.1,-9,-9,-9c-5,0,-9,4,-9,9c0,4.9,4,9,9,9Z" class="g3_12"/>
<image preserveAspectRatio="none" x="414" y="464" width="22" height="22" xlink:href="img/11.webp"/>
<image preserveAspectRatio="none" x="436" y="464" width="22" height="22" xlink:href="img/12.webp"/>
<image preserveAspectRatio="none" x="603" y="464" width="22" height="22" xlink:href="img/13.webp"/>
<image preserveAspectRatio="none" x="467" y="100" width="404" height="348" xlink:href="img/14.webp"/>
<path d="M545.1,307.9c4.4,0,8,-3.6,8,-8c0,-4.4,-3.6,-8,-8,-8c-4.4,0,-8,3.6,-8,8c0,4.4,3.6,8,8,8Z" class="g1_12"/>
<path d="M545.1,307.9c4.4,0,8,-3.6,8,-8c0,-4.4,-3.6,-8,-8,-8c-4.4,0,-8,3.6,-8,8c0,4.4,3.6,8,8,8Z" class="g4_12"/>
<path d="M601.1,334.4c4.4,0,8,-3.6,8,-8c0,-4.5,-3.6,-8,-8,-8c-4.4,0,-8,3.5,-8,8c0,4.4,3.6,8,8,8Z" class="g1_12"/>
<path d="M601.1,334.4c4.4,0,8,-3.6,8,-8c0,-4.5,-3.6,-8,-8,-8c-4.4,0,-8,3.5,-8,8c0,4.4,3.6,8,8,8Z" class="g4_12"/>
<path d="M601.1,393.1c4.4,0,8,-3.6,8,-8c0,-4.4,-3.6,-8,-8,-8c-4.4,0,-8,3.6,-8,8c0,4.4,3.6,8,8,8Z" class="g1_12"/>
<path d="M601.1,393.1c4.4,0,8,-3.6,8,-8c0,-4.4,-3.6,-8,-8,-8c-4.4,0,-8,3.6,-8,8c0,4.4,3.6,8,8,8Z" class="g4_12"/>
<image preserveAspectRatio="none" x="603" y="224" width="48" height="48" xlink:href="img/15.webp"/>
<image preserveAspectRatio="none" x="606" y="226" width="37" height="37" xlink:href="img/16.webp"/>
<path d="M625,263c10.2,0,18.4,-8.2,18.4,-18.4c0,-10.3,-8.2,-18.5,-18.4,-18.5c-10.3,0,-18.5,8.2,-18.5,18.5c0,10.2,8.2,18.4,18.5,18.4Z" class="g5_12"/>
<image preserveAspectRatio="none" x="510" y="246" width="46" height="47" xlink:href="img/17.webp"/>
<image preserveAspectRatio="none" x="512" y="247" width="37" height="37" xlink:href="img/18.webp"/>
<path d="M530.7,284.3c10.2,0,18.5,-8.3,18.5,-18.5c0,-10.2,-8.3,-18.5,-18.5,-18.5c-10.2,0,-18.5,8.3,-18.5,18.5c0,10.2,8.3,18.5,18.5,18.5Z" class="g5_12"/>
<image preserveAspectRatio="none" x="547" y="205" width="47" height="47" xlink:href="img/19.webp"/>
<image preserveAspectRatio="none" x="550" y="206" width="37" height="37" xlink:href="img/20.webp"/>
<path d="M568.3,243.2c10.3,0,18.5,-8.3,18.5,-18.5c0,-10.2,-8.2,-18.5,-18.5,-18.5c-10.2,0,-18.4,8.3,-18.4,18.5c0,10.2,8.2,18.5,18.4,18.5Z" class="g5_12"/>
<image preserveAspectRatio="none" x="529" y="215" width="26" height="25" xlink:href="img/21.webp"/>
<image preserveAspectRatio="none" x="531" y="216" width="16" height="16" xlink:href="img/22.webp"/>
<path d="M531,228.9c0,0,-.1,2.2,2.1,2.3l11.1,.6c0,0,2.1,.1,2.2,-2L547,219c0,0,.1,-2.2,-2,-2.3l-11.2,-.6c0,0,-2.1,-.1,-2.2,2.1l-.6,10.7Z" class="g5_12"/>
<image preserveAspectRatio="none" x="614" y="206" width="25" height="26" xlink:href="img/23.webp"/>
<image preserveAspectRatio="none" x="616" y="208" width="15" height="15" xlink:href="img/24.webp"/>
<path d="M618.5,207.8c0,0,-2.2,0,-2.2,2.2v11.1c0,0,0,2.2,2.2,2.2h10.8c0,0,2.1,0,2.1,-2.2V210c0,0,0,-2.2,-2.1,-2.2H618.5Z" class="g5_12"/>
<image preserveAspectRatio="none" x="597" y="256" width="28" height="30" xlink:href="img/25.webp"/>
<image preserveAspectRatio="none" x="598" y="257" width="21" height="21" xlink:href="img/26.webp"/>
<path d="M609.6,276.8c0,0,1.9,1,3,-.9l5.4,-9.7c0,0,1,-1.9,-.9,-3L607.7,258c0,0,-1.9,-1.1,-3,.8l-5.4,9.8c0,0,-1,1.9,.9,2.9l9.4,5.3Z" class="g5_12"/>
<image preserveAspectRatio="none" x="495" y="240" width="29" height="29" xlink:href="img/27.webp"/>
<image preserveAspectRatio="none" x="496" y="240" width="21" height="21" xlink:href="img/28.webp"/>
<path d="M497.2,250.6c0,0,-1.2,1.8,.6,3l9.1,6.4c0,0,1.8,1.2,3,-.5l6.2,-8.9c0,0,1.2,-1.8,-.5,-3l-9.1,-6.4c0,0,-1.8,-1.2,-3.1,.5l-6.2,8.9Z" class="g5_12"/>
<image preserveAspectRatio="none" x="544" y="269" width="29" height="29" xlink:href="img/29.webp"/>
<image preserveAspectRatio="none" x="545" y="268" width="21" height="21" xlink:href="img/30.webp"/>
<path d="M565.3,278.3c0,0,1.1,-1.9,-.8,-3L555,269.6c0,0,-1.9,-1.1,-3,.7l-5.5,9.3c0,0,-1.2,1.8,.7,2.9l9.5,5.8c0,0,1.9,1.1,3,-.8l5.6,-9.2Z" class="g5_12"/>
<image preserveAspectRatio="none" x="611" y="295" width="26" height="24" xlink:href="img/31.webp"/>
<image preserveAspectRatio="none" x="614" y="296" width="15" height="15" xlink:href="img/32.webp"/>
<path d="M629.2,298.2c0,0,0,-2.1,-2.1,-2.1H615.9c0,0,-2.1,0,-2.1,2.1V309c0,0,0,2.2,2.1,2.2h11.2c0,0,2.1,0,2.1,-2.2V298.2Z" class="g5_12"/>
<image preserveAspectRatio="none" x="611" y="321" width="26" height="26" xlink:href="img/33.webp"/>
<image preserveAspectRatio="none" x="614" y="322" width="15" height="15" xlink:href="img/34.webp"/>
<path d="M629.2,324.3c0,0,0,-2.1,-2.1,-2.1H615.9c0,0,-2.1,0,-2.1,2.1v10.8c0,0,0,2.2,2.1,2.2h11.2c0,0,2.1,0,2.1,-2.2V324.3Z" class="g5_12"/>
<image preserveAspectRatio="none" x="611" y="359" width="26" height="24" xlink:href="img/35.webp"/>
<image preserveAspectRatio="none" x="614" y="360" width="15" height="15" xlink:href="img/36.webp"/>
<path d="M629.2,361.7c0,0,0,-2.1,-2.1,-2.1H615.9c0,0,-2.1,0,-2.1,2.1v10.8c0,0,0,2.2,2.1,2.2h11.2c0,0,2.1,0,2.1,-2.2V361.7Z" class="g5_12"/>
<image preserveAspectRatio="none" x="611" y="385" width="26" height="24" xlink:href="img/37.webp"/>
<image preserveAspectRatio="none" x="614" y="386" width="15" height="15" xlink:href="img/38.webp"/>
<path d="M629.2,388.4c0,0,0,-2.2,-2.1,-2.2H615.9c0,0,-2.1,0,-2.1,2.2v10.8c0,0,0,2.2,2.1,2.2h11.2c0,0,2.1,0,2.1,-2.2V388.4Z" class="g5_12"/>
<path d="M631.8,213.2c3.2,0,5.7,-2.6,5.7,-5.7c0,-3.2,-2.5,-5.8,-5.7,-5.8c-3.2,0,-5.8,2.6,-5.8,5.8c0,3.1,2.6,5.7,5.8,5.7Z" class="g1_12"/>
<path d="M631.8,213.2c3.2,0,5.7,-2.6,5.7,-5.7c0,-3.2,-2.5,-5.8,-5.7,-5.8c-3.2,0,-5.8,2.6,-5.8,5.8c0,3.1,2.6,5.7,5.8,5.7Z" class="g6_12"/>
<path d="M598.8,277.2c3.1,0,5.7,-2.6,5.7,-5.8c0,-3.2,-2.6,-5.7,-5.7,-5.7c-3.2,0,-5.8,2.5,-5.8,5.7c0,3.2,2.6,5.8,5.8,5.8Z" class="g1_12"/>
<path d="M598.8,277.2c3.1,0,5.7,-2.6,5.7,-5.8c0,-3.2,-2.6,-5.7,-5.7,-5.7c-3.2,0,-5.8,2.5,-5.8,5.7c0,3.2,2.6,5.8,5.8,5.8Z" class="g6_12"/>
<path d="M530.9,221.5c3.2,0,5.7,-2.6,5.7,-5.7c0,-3.2,-2.5,-5.8,-5.7,-5.8c-3.2,0,-5.8,2.6,-5.8,5.8c0,3.1,2.6,5.7,5.8,5.7Z" class="g1_12"/>
<path d="M530.9,221.5c3.2,0,5.7,-2.6,5.7,-5.7c0,-3.2,-2.5,-5.8,-5.7,-5.8c-3.2,0,-5.8,2.6,-5.8,5.8c0,3.1,2.6,5.7,5.8,5.7Z" class="g6_12"/>
<path d="M565.9,282c3.2,0,5.8,-2.5,5.8,-5.7c0,-3.2,-2.6,-5.8,-5.8,-5.8c-3.1,0,-5.7,2.6,-5.7,5.8c0,3.2,2.6,5.7,5.7,5.7Z" class="g1_12"/>
<path d="M565.9,282c3.2,0,5.8,-2.5,5.8,-5.7c0,-3.2,-2.6,-5.8,-5.8,-5.8c-3.1,0,-5.7,2.6,-5.7,5.8c0,3.2,2.6,5.7,5.7,5.7Z" class="g6_12"/>
<path d="M496.5,258.7c3.2,0,5.7,-2.6,5.7,-5.8c0,-3.2,-2.5,-5.8,-5.7,-5.8c-3.2,0,-5.8,2.6,-5.8,5.8c0,3.2,2.6,5.8,5.8,5.8Z" class="g1_12"/>
<path d="M496.5,258.7c3.2,0,5.7,-2.6,5.7,-5.8c0,-3.2,-2.5,-5.8,-5.7,-5.8c-3.2,0,-5.8,2.6,-5.8,5.8c0,3.2,2.6,5.8,5.8,5.8Z" class="g6_12"/>
<path d="M629.6,301.5c3.1,0,5.7,-2.6,5.7,-5.8c0,-3.1,-2.6,-5.7,-5.7,-5.7c-3.2,0,-5.8,2.6,-5.8,5.7c0,3.2,2.6,5.8,5.8,5.8Z" class="g1_12"/>
<path d="M629.6,301.5c3.1,0,5.7,-2.6,5.7,-5.8c0,-3.1,-2.6,-5.7,-5.7,-5.7c-3.2,0,-5.8,2.6,-5.8,5.7c0,3.2,2.6,5.8,5.8,5.8Z" class="g6_12"/>
<path d="M629.6,327.6c3.1,0,5.7,-2.6,5.7,-5.8c0,-3.2,-2.6,-5.7,-5.7,-5.7c-3.2,0,-5.8,2.5,-5.8,5.7c0,3.2,2.6,5.8,5.8,5.8Z" class="g1_12"/>
<path d="M629.6,327.6c3.1,0,5.7,-2.6,5.7,-5.8c0,-3.2,-2.6,-5.7,-5.7,-5.7c-3.2,0,-5.8,2.5,-5.8,5.7c0,3.2,2.6,5.8,5.8,5.8Z" class="g6_12"/>
<path d="M629.6,365c3.1,0,5.7,-2.6,5.7,-5.8c0,-3.2,-2.6,-5.7,-5.7,-5.7c-3.2,0,-5.8,2.5,-5.8,5.7c0,3.2,2.6,5.8,5.8,5.8Z" class="g1_12"/>
<path d="M629.6,365c3.1,0,5.7,-2.6,5.7,-5.8c0,-3.2,-2.6,-5.7,-5.7,-5.7c-3.2,0,-5.8,2.5,-5.8,5.7c0,3.2,2.6,5.8,5.8,5.8Z" class="g6_12"/>
<path d="M629.6,391.6c3.1,0,5.7,-2.5,5.7,-5.7c0,-3.2,-2.6,-5.8,-5.7,-5.8c-3.2,0,-5.8,2.6,-5.8,5.8c0,3.2,2.6,5.7,5.8,5.7Z" class="g1_12"/>
<path d="M629.6,391.6c3.1,0,5.7,-2.5,5.7,-5.7c0,-3.2,-2.6,-5.8,-5.7,-5.8c-3.2,0,-5.8,2.6,-5.8,5.8c0,3.2,2.6,5.7,5.8,5.7Z" class="g6_12"/>
<path d="M530.7,273.8c4.4,0,8,-3.6,8,-8c0,-4.5,-3.6,-8,-8,-8c-4.5,0,-8,3.5,-8,8c0,4.4,3.5,8,8,8Z" class="g1_12"/>
<path d="M530.7,273.8c4.4,0,8,-3.6,8,-8c0,-4.5,-3.6,-8,-8,-8c-4.5,0,-8,3.5,-8,8c0,4.4,3.5,8,8,8Z" class="g4_12"/>
<path d="M568.3,232c4.5,0,8,-3.5,8,-8c0,-4.4,-3.5,-8,-8,-8c-4.4,0,-8,3.6,-8,8c0,4.5,3.6,8,8,8Z" class="g1_12"/>
<path d="M568.3,232c4.5,0,8,-3.5,8,-8c0,-4.4,-3.5,-8,-8,-8c-4.4,0,-8,3.6,-8,8c0,4.5,3.6,8,8,8Z" class="g4_12"/>
<path d="M625,252.6c4.4,0,8,-3.6,8,-8c0,-4.4,-3.6,-8,-8,-8c-4.5,0,-8,3.6,-8,8c0,4.4,3.5,8,8,8Z" class="g1_12"/>
<path d="M625,252.6c4.4,0,8,-3.6,8,-8c0,-4.4,-3.6,-8,-8,-8c-4.5,0,-8,3.6,-8,8c0,4.4,3.5,8,8,8Z" class="g4_12"/>
<path d="M551.8,142.2c4.4,0,8,-3.6,8,-8c0,-4.5,-3.6,-8.1,-8,-8.1c-4.5,0,-8.1,3.6,-8.1,8.1c0,4.4,3.6,8,8.1,8Z" class="g1_12"/>
<path d="M551.8,142.2c4.4,0,8,-3.6,8,-8c0,-4.5,-3.6,-8.1,-8,-8.1c-4.5,0,-8.1,3.6,-8.1,8.1c0,4.4,3.6,8,8.1,8Z" class="g7_12"/>
<path d="M629,142.2c4.4,0,8,-3.6,8,-8c0,-4.5,-3.6,-8.1,-8,-8.1c-4.5,0,-8.1,3.6,-8.1,8.1c0,4.4,3.6,8,8.1,8Z" class="g1_12"/>
<path d="M629,142.2c4.4,0,8,-3.6,8,-8c0,-4.5,-3.6,-8.1,-8,-8.1c-4.5,0,-8.1,3.6,-8.1,8.1c0,4.4,3.6,8,8.1,8Z" class="g7_12"/>
<path d="M706.2,142.2c4.4,0,8,-3.6,8,-8c0,-4.5,-3.6,-8.1,-8,-8.1c-4.5,0,-8.1,3.6,-8.1,8.1c0,4.4,3.6,8,8.1,8Z" class="g1_12"/>
<path d="M706.2,142.2c4.4,0,8,-3.6,8,-8c0,-4.5,-3.6,-8.1,-8,-8.1c-4.5,0,-8.1,3.6,-8.1,8.1c0,4.4,3.6,8,8.1,8Z" class="g7_12"/>
<path d="M784.3,142.2c4.4,0,8,-3.6,8,-8c0,-4.5,-3.6,-8.1,-8,-8.1c-4.5,0,-8.1,3.6,-8.1,8.1c0,4.4,3.6,8,8.1,8Z" class="g1_12"/>
<path d="M784.3,142.2c4.4,0,8,-3.6,8,-8c0,-4.5,-3.6,-8.1,-8,-8.1c-4.5,0,-8.1,3.6,-8.1,8.1c0,4.4,3.6,8,8.1,8Z" class="g7_12"/>
<path d="M841,165c4.5,0,8.1,-3.6,8.1,-8.1c0,-4.4,-3.6,-8,-8.1,-8c-4.4,0,-8,3.6,-8,8c0,4.5,3.6,8.1,8,8.1Z" class="g1_12"/>
<path d="M841,165c4.5,0,8.1,-3.6,8.1,-8.1c0,-4.4,-3.6,-8,-8.1,-8c-4.4,0,-8,3.6,-8,8c0,4.5,3.6,8.1,8,8.1Z" class="g7_12"/>
<path d="M841,254.8c4.5,0,8.1,-3.6,8.1,-8.1c0,-4.4,-3.6,-8,-8.1,-8c-4.4,0,-8,3.6,-8,8c0,4.5,3.6,8.1,8,8.1Z" class="g1_12"/>
<path d="M841,254.8c4.5,0,8.1,-3.6,8.1,-8.1c0,-4.4,-3.6,-8,-8.1,-8c-4.4,0,-8,3.6,-8,8c0,4.5,3.6,8.1,8,8.1Z" class="g7_12"/>
<path d="M710.1,280.9c4.4,0,8,-3.6,8,-8c0,-4.5,-3.6,-8.1,-8,-8.1c-4.5,0,-8.1,3.6,-8.1,8.1c0,4.4,3.6,8,8.1,8Z" class="g1_12"/>
<path d="M710.1,280.9c4.4,0,8,-3.6,8,-8c0,-4.5,-3.6,-8.1,-8,-8.1c-4.5,0,-8.1,3.6,-8.1,8.1c0,4.4,3.6,8,8.1,8Z" class="g7_12"/>
<path d="M710.1,360.4c4.4,0,8,-3.6,8,-8.1c0,-4.4,-3.6,-8,-8,-8c-4.5,0,-8.1,3.6,-8.1,8c0,4.5,3.6,8.1,8.1,8.1Z" class="g1_12"/>
<path d="M710.1,360.4c4.4,0,8,-3.6,8,-8.1c0,-4.4,-3.6,-8,-8,-8c-4.5,0,-8.1,3.6,-8.1,8c0,4.5,3.6,8.1,8.1,8.1Z" class="g7_12"/>
<path d="M668.4,317.7c4.4,0,8.1,-3.7,8.1,-8.1c0,-4.4,-3.7,-8.1,-8.1,-8.1c-4.4,0,-8.1,3.7,-8.1,8.1c0,4.4,3.7,8.1,8.1,8.1Z" class="g1_12"/>
<path d="M668.4,317.7c4.4,0,8.1,-3.7,8.1,-8.1c0,-4.4,-3.7,-8.1,-8.1,-8.1c-4.4,0,-8.1,3.7,-8.1,8.1c0,4.4,3.7,8.1,8.1,8.1Z" class="g7_12"/>
<path d="M595.7,190.1c4.4,0,8,-3.5,8,-8c0,-4.4,-3.6,-8,-8,-8c-4.5,0,-8,3.6,-8,8c0,4.5,3.5,8,8,8Z" class="g1_12"/>
<path d="M595.7,190.1c4.4,0,8,-3.5,8,-8c0,-4.4,-3.6,-8,-8,-8c-4.5,0,-8,3.6,-8,8c0,4.5,3.5,8,8,8Z" class="g4_12"/>
<path d="M671.2,220.1c4.4,0,8,-3.6,8,-8c0,-4.4,-3.6,-8,-8,-8c-4.4,0,-8,3.6,-8,8c0,4.4,3.6,8,8,8Z" class="g1_12"/>
<path d="M671.2,220.1c4.4,0,8,-3.6,8,-8c0,-4.4,-3.6,-8,-8,-8c-4.4,0,-8,3.6,-8,8c0,4.4,3.6,8,8,8Z" class="g4_12"/>
<path d="M514.9,220.1c4.5,0,8,-3.6,8,-8c0,-4.4,-3.5,-8,-8,-8c-4.4,0,-8,3.6,-8,8c0,4.4,3.6,8,8,8Z" class="g1_12"/>
<path d="M514.9,220.1c4.5,0,8,-3.6,8,-8c0,-4.4,-3.5,-8,-8,-8c-4.4,0,-8,3.6,-8,8c0,4.4,3.6,8,8,8Z" class="g4_12"/>
<image preserveAspectRatio="none" x="473" y="906" width="394" height="338" xlink:href="img/39.webp"/>
<image preserveAspectRatio="none" x="550" y="1158" width="3" height="3" xlink:href="img/40.webp"/>
<image preserveAspectRatio="none" x="655" y="1118" width="3" height="3" xlink:href="img/41.webp"/>
<image preserveAspectRatio="none" x="828" y="1003" width="4" height="3" xlink:href="img/42.webp"/>
<image preserveAspectRatio="none" x="632" y="1139" width="3" height="3" xlink:href="img/43.webp"/>
<image preserveAspectRatio="none" x="784" y="1145" width="3" height="4" xlink:href="img/44.webp"/>
<image preserveAspectRatio="none" x="738" y="1145" width="3" height="4" xlink:href="img/45.webp"/>
<image preserveAspectRatio="none" x="776" y="1002" width="3" height="3" xlink:href="img/46.webp"/>
<image preserveAspectRatio="none" x="826" y="1147" width="3" height="3" xlink:href="img/47.webp"/>
<image preserveAspectRatio="none" x="826" y="1208" width="3" height="4" xlink:href="img/48.webp"/>
<image preserveAspectRatio="none" x="741" y="1208" width="3" height="4" xlink:href="img/49.webp"/>
<image preserveAspectRatio="none" x="669" y="1208" width="3" height="4" xlink:href="img/50.webp"/>
<image preserveAspectRatio="none" x="610" y="1208" width="3" height="4" xlink:href="img/51.webp"/>
<image preserveAspectRatio="none" x="547" y="1208" width="3" height="4" xlink:href="img/52.webp"/>
<image preserveAspectRatio="none" x="683" y="1018" width="3" height="3" xlink:href="img/53.webp"/>
<image preserveAspectRatio="none" x="574" y="1079" width="3" height="3" xlink:href="img/54.webp"/>
<image preserveAspectRatio="none" x="566" y="1008" width="3" height="3" xlink:href="img/55.webp"/>
<image preserveAspectRatio="none" x="482" y="1079" width="3" height="3" xlink:href="img/56.webp"/>
<image preserveAspectRatio="none" x="784" y="1067" width="3" height="4" xlink:href="img/57.webp"/>
<image preserveAspectRatio="none" x="731" y="1019" width="3" height="4" xlink:href="img/58.webp"/>
<image preserveAspectRatio="none" x="650" y="951" width="3" height="3" xlink:href="img/59.webp"/>
<image preserveAspectRatio="none" x="635" y="1018" width="3" height="3" xlink:href="img/60.webp"/>
<image preserveAspectRatio="none" x="566" y="951" width="3" height="3" xlink:href="img/61.webp"/>
<image preserveAspectRatio="none" x="493" y="966" width="4" height="3" xlink:href="img/62.webp"/>
<image preserveAspectRatio="none" x="637" y="1079" width="3" height="3" xlink:href="img/63.webp"/>
<image preserveAspectRatio="none" x="482" y="1185" width="3" height="3" xlink:href="img/64.webp"/>
<image preserveAspectRatio="none" x="788" y="1208" width="3" height="4" xlink:href="img/65.webp"/>
<image preserveAspectRatio="none" x="828" y="1067" width="3" height="4" xlink:href="img/66.webp"/>
<image preserveAspectRatio="none" x="730" y="959" width="3" height="4" xlink:href="img/67.webp"/>
<image preserveAspectRatio="none" x="804" y="927" width="3" height="3" xlink:href="img/68.webp"/>
<image preserveAspectRatio="none" x="736" y="1064" width="3" height="3" xlink:href="img/69.webp"/>
<image preserveAspectRatio="none" x="705" y="1113" width="3" height="3" xlink:href="img/70.webp"/>
<g clip-path="url(#c0_12)">
<path d="M470.8,905.8h-3m399.7,0h3M470.8,1242.9h-3m399.7,0h3M472.5,904v-2.9m0,343.6v2.9M865.8,904v-2.9m0,343.6v2.9" class="g8_12"/>
<path d="M470.8,905.8h-3m399.7,0h3M470.8,1242.9h-3m399.7,0h3M472.5,904v-2.9m0,343.6v2.9M865.8,904v-2.9m0,343.6v2.9" class="g9_12"/>
<path d="M670.1,902.6c0,.5,-.4,.9,-.9,.9c-.6,0,-1,-.4,-1,-.9c0,-.6,.4,-1,1,-1c.5,0,.9,.4,.9,1Zm-.4,0c0,.3,-.2,.5,-.5,.5c-.4,0,-.6,-.2,-.6,-.5c0,-.4,.2,-.6,.6,-.6c.3,0,.5,.2,.5,.6Z" class="g8_12"/>
<path d="M670.1,902.6c0,.5,-.4,.9,-.9,.9c-.6,0,-1,-.4,-1,-.9c0,-.6,.4,-1,1,-1c.5,0,.9,.4,.9,1Z" class="g9_12"/>
<path d="M669.7,902.6c0,.3,-.2,.5,-.5,.5c-.4,0,-.6,-.2,-.6,-.5c0,-.4,.2,-.6,.6,-.6c.3,0,.5,.2,.5,.6Z" class="g1_12"/>
<path d="M669.2,902v1.1" class="ga_12"/>
<path d="M669.2,1244.9v2.4" class="g8_12"/>
<path d="M669.2,1244.9v2.4" class="g9_12"/>
</g>
<path d="M707.9,1127.1c4.4,0,8,-3.6,8,-8c0,-4.4,-3.6,-8,-8,-8c-4.4,0,-8,3.6,-8,8c0,4.4,3.6,8,8,8Z" class="g1_12"/>
<path d="M707.9,1127.1c4.4,0,8,-3.6,8,-8c0,-4.4,-3.6,-8,-8,-8c-4.4,0,-8,3.6,-8,8c0,4.4,3.6,8,8,8Z" class="g4_12"/>
<path d="M657,1127.1c4.4,0,8,-3.6,8,-8c0,-4.4,-3.6,-8,-8,-8c-4.4,0,-8,3.6,-8,8c0,4.4,3.6,8,8,8Z" class="g1_12"/>
<path d="M657,1127.1c4.4,0,8,-3.6,8,-8c0,-4.4,-3.6,-8,-8,-8c-4.4,0,-8,3.6,-8,8c0,4.4,3.6,8,8,8Z" class="g4_12"/>
<path d="M706.2,965.8c4.4,0,8,-3.5,8,-8c0,-4.4,-3.6,-8,-8,-8c-4.5,0,-8,3.6,-8,8c0,4.5,3.5,8,8,8Z" class="g1_12"/>
<path d="M706.2,965.8c4.4,0,8,-3.5,8,-8c0,-4.4,-3.6,-8,-8,-8c-4.5,0,-8,3.6,-8,8c0,4.5,3.5,8,8,8Z" class="g4_12"/>
<path d="M763.1,1157.3c4.4,0,8,-3.6,8,-8c0,-4.5,-3.6,-8,-8,-8c-4.4,0,-8,3.5,-8,8c0,4.4,3.6,8,8,8Z" class="g1_12"/>
<path d="M763.1,1157.3c4.4,0,8,-3.6,8,-8c0,-4.5,-3.6,-8,-8,-8c-4.4,0,-8,3.5,-8,8c0,4.4,3.6,8,8,8Z" class="g4_12"/>
<path d="M763.1,1079.7c4.4,0,8,-3.5,8,-8c0,-4.4,-3.6,-8,-8,-8c-4.4,0,-8,3.6,-8,8c0,4.5,3.6,8,8,8Z" class="g1_12"/>
<path d="M763.1,1079.7c4.4,0,8,-3.5,8,-8c0,-4.4,-3.6,-8,-8,-8c-4.4,0,-8,3.6,-8,8c0,4.5,3.6,8,8,8Z" class="g4_12"/>
<image preserveAspectRatio="none" x="467" y="536" width="404" height="348" xlink:href="img/71.webp"/>
<image preserveAspectRatio="none" x="467" y="536" width="404" height="348" xlink:href="img/72.webp"/>
<image preserveAspectRatio="none" x="467" y="536" width="404" height="348" xlink:href="img/73.webp"/>
<image preserveAspectRatio="none" x="467" y="536" width="404" height="348" xlink:href="img/74.webp"/>
<image preserveAspectRatio="none" x="467" y="536" width="404" height="348" xlink:href="img/75.webp"/>
<image preserveAspectRatio="none" x="467" y="536" width="404" height="348" xlink:href="img/76.webp"/>
<image preserveAspectRatio="none" x="467" y="536" width="404" height="348" xlink:href="img/77.webp"/>
<image preserveAspectRatio="none" x="467" y="536" width="404" height="348" xlink:href="img/78.webp"/>
<image preserveAspectRatio="none" x="467" y="536" width="404" height="348" xlink:href="img/79.webp"/>
<image preserveAspectRatio="none" x="467" y="536" width="404" height="348" xlink:href="img/80.webp"/>
<image preserveAspectRatio="none" x="467" y="536" width="404" height="348" xlink:href="img/81.webp"/>
<image preserveAspectRatio="none" x="467" y="536" width="404" height="348" xlink:href="img/82.webp"/>
<image preserveAspectRatio="none" x="467" y="536" width="404" height="348" xlink:href="img/83.webp"/>
<image preserveAspectRatio="none" x="467" y="536" width="404" height="348" xlink:href="img/84.webp"/>
<image preserveAspectRatio="none" x="467" y="536" width="404" height="348" xlink:href="img/85.webp"/>
<image preserveAspectRatio="none" x="467" y="536" width="404" height="348" xlink:href="img/86.webp"/>
<image preserveAspectRatio="none" x="467" y="536" width="404" height="348" xlink:href="img/87.webp"/>
<image preserveAspectRatio="none" x="467" y="536" width="404" height="348" xlink:href="img/88.webp"/>
<image preserveAspectRatio="none" x="467" y="536" width="404" height="348" xlink:href="img/89.webp"/>
<image preserveAspectRatio="none" x="467" y="536" width="404" height="348" xlink:href="img/90.webp"/>
<image preserveAspectRatio="none" x="467" y="536" width="404" height="348" xlink:href="img/91.webp"/>
<image preserveAspectRatio="none" x="467" y="536" width="404" height="348" xlink:href="img/92.webp"/>
<image preserveAspectRatio="none" x="467" y="536" width="404" height="348" xlink:href="img/93.webp"/>
<image preserveAspectRatio="none" x="467" y="536" width="404" height="348" xlink:href="img/94.webp"/>
<image preserveAspectRatio="none" x="467" y="536" width="404" height="348" xlink:href="img/95.webp"/>
<image preserveAspectRatio="none" x="467" y="536" width="404" height="348" xlink:href="img/96.webp"/>
<image preserveAspectRatio="none" x="467" y="536" width="404" height="348" xlink:href="img/97.webp"/>
<image preserveAspectRatio="none" x="467" y="536" width="404" height="348" xlink:href="img/98.webp"/>
<image preserveAspectRatio="none" x="467" y="536" width="404" height="348" xlink:href="img/99.webp"/>
<image preserveAspectRatio="none" x="467" y="536" width="404" height="348" xlink:href="img/100.webp"/>
<image preserveAspectRatio="none" x="467" y="536" width="404" height="348" xlink:href="img/101.webp"/>
<image preserveAspectRatio="none" x="467" y="536" width="404" height="348" xlink:href="img/102.webp"/>
<image preserveAspectRatio="none" x="467" y="536" width="404" height="348" xlink:href="img/103.webp"/>
<image preserveAspectRatio="none" x="467" y="536" width="404" height="348" xlink:href="img/104.webp"/>
<image preserveAspectRatio="none" x="467" y="536" width="404" height="348" xlink:href="img/105.webp"/>
<image preserveAspectRatio="none" x="467" y="536" width="404" height="348" xlink:href="img/106.webp"/>
<image preserveAspectRatio="none" x="467" y="536" width="404" height="348" xlink:href="img/107.webp"/>
<image preserveAspectRatio="none" x="467" y="536" width="404" height="348" xlink:href="img/108.webp"/>
<image preserveAspectRatio="none" x="467" y="536" width="404" height="348" xlink:href="img/109.webp"/>
<image preserveAspectRatio="none" x="467" y="536" width="404" height="348" xlink:href="img/110.webp"/>
<image preserveAspectRatio="none" x="467" y="536" width="404" height="348" xlink:href="img/111.webp"/>
<image preserveAspectRatio="none" x="467" y="536" width="404" height="348" xlink:href="img/112.webp"/>
<image preserveAspectRatio="none" x="467" y="536" width="404" height="348" xlink:href="img/113.webp"/>
<image preserveAspectRatio="none" x="467" y="536" width="404" height="348" xlink:href="img/114.webp"/>
<image preserveAspectRatio="none" x="467" y="536" width="404" height="348" xlink:href="img/115.webp"/>
<image preserveAspectRatio="none" x="467" y="536" width="404" height="348" xlink:href="img/116.webp"/>
<image preserveAspectRatio="none" x="467" y="536" width="404" height="348" xlink:href="img/117.webp"/>
<image preserveAspectRatio="none" x="467" y="536" width="404" height="348" xlink:href="img/118.webp"/>
<image preserveAspectRatio="none" x="467" y="536" width="404" height="348" xlink:href="img/119.webp"/>
<image preserveAspectRatio="none" x="467" y="536" width="404" height="348" xlink:href="img/120.webp"/>
<image preserveAspectRatio="none" x="646" y="616" width="42" height="21" xlink:href="img/121.webp"/>
<image preserveAspectRatio="none" x="649" y="616" width="34" height="17" xlink:href="img/122.webp"/>
<path d="M647.5,634.7c4.4,0,8,-3.5,8,-8c0,-4.4,-3.6,-8,-8,-8c-4.5,0,-8,3.6,-8,8c0,4.5,3.5,8,8,8Z" class="g1_12"/>
<path d="M647.5,634.7c4.4,0,8,-3.5,8,-8c0,-4.4,-3.6,-8,-8,-8c-4.5,0,-8,3.6,-8,8c0,4.5,3.5,8,8,8Z" class="g4_12"/>
<image preserveAspectRatio="none" x="666" y="759" width="41" height="23" xlink:href="img/123.webp"/>
<image preserveAspectRatio="none" x="670" y="760" width="34" height="19" xlink:href="img/124.webp"/>
<path d="M668.3,779.4c4.4,0,8,-3.6,8,-8c0,-4.4,-3.6,-8,-8,-8c-4.4,0,-8,3.6,-8,8c0,4.4,3.6,8,8,8Z" class="g1_12"/>
<path d="M668.3,779.4c4.4,0,8,-3.6,8,-8c0,-4.4,-3.6,-8,-8,-8c-4.4,0,-8,3.6,-8,8c0,4.4,3.6,8,8,8Z" class="g4_12"/>
<path d="M587.8,642.2c4.4,0,8,-3.5,8,-8c0,-4.4,-3.6,-8,-8,-8c-4.4,0,-8,3.6,-8,8c0,4.5,3.6,8,8,8Z" class="g1_12"/>
<path d="M587.8,642.2c4.4,0,8,-3.5,8,-8c0,-4.4,-3.6,-8,-8,-8c-4.4,0,-8,3.6,-8,8c0,4.5,3.6,8,8,8Z" class="g4_12"/>
<path d="M735.6,628.2c4.4,0,8,-3.5,8,-8c0,-4.4,-3.6,-8,-8,-8c-4.4,0,-8,3.6,-8,8c0,4.5,3.6,8,8,8Z" class="g1_12"/>
<path d="M735.6,628.2c4.4,0,8,-3.5,8,-8c0,-4.4,-3.6,-8,-8,-8c-4.4,0,-8,3.6,-8,8c0,4.5,3.6,8,8,8Z" class="g4_12"/>
<path d="M592.3,787.7c4.4,0,8,-3.6,8,-8c0,-4.4,-3.6,-8,-8,-8c-4.5,0,-8,3.6,-8,8c0,4.4,3.5,8,8,8Z" class="g1_12"/>
<path d="M592.3,787.7c4.4,0,8,-3.6,8,-8c0,-4.4,-3.6,-8,-8,-8c-4.5,0,-8,3.6,-8,8c0,4.4,3.5,8,8,8Z" class="g4_12"/>
<path d="M743.9,771.1c4.4,0,8,-3.6,8,-8c0,-4.4,-3.6,-8,-8,-8c-4.5,0,-8,3.6,-8,8c0,4.4,3.5,8,8,8Z" class="g1_12"/>
<path d="M743.9,771.1c4.4,0,8,-3.6,8,-8c0,-4.4,-3.6,-8,-8,-8c-4.5,0,-8,3.6,-8,8c0,4.4,3.5,8,8,8Z" class="g4_12"/>
<path d="M514.3,644.1c4.4,0,8,-3.7,8,-8.1c0,-4.4,-3.6,-8.1,-8,-8.1c-4.5,0,-8.1,3.7,-8.1,8.1c0,4.4,3.6,8.1,8.1,8.1Z" class="g1_12"/>
<path d="M514.3,644.1c4.4,0,8,-3.7,8,-8.1c0,-4.4,-3.6,-8.1,-8,-8.1c-4.5,0,-8.1,3.7,-8.1,8.1c0,4.4,3.6,8.1,8.1,8.1Z" class="g7_12"/>
</svg>