<?xml version="1.0" encoding="UTF-8" standalone="no"?>
<!DOCTYPE svg PUBLIC "-//W3C//DTD SVG 1.1//EN"
"http://www.w3.org/Graphics/SVG/1.1/DTD/svg11.dtd">
<svg viewBox="0 0 908 1285" version="1.1" xmlns="http://www.w3.org/2000/svg" xmlns:xlink="http://www.w3.org/1999/xlink">
<defs>
<clipPath id="c0_19"><path d="M-32.6,292V-32.3H292.3V292Z"/></clipPath>
<clipPath id="c1_19"><path d="M291.6,292V-32.3H617V292Z"/></clipPath>
<clipPath id="c2_19"><path d="M616.3,292V-32.3h325V292Z"/></clipPath>
<clipPath id="c3_19"><path d="M-32.6,615.9V291.2H292.3V615.9Z"/></clipPath>
<clipPath id="c4_19"><path d="M291.6,615.9V291.2H617V615.9Z"/></clipPath>
<clipPath id="c5_19"><path d="M616.3,615.9V291.2h325V615.9Z"/></clipPath>
<clipPath id="c6_19"><path d="M-32.6,940.2v-325H292.3v325Z"/></clipPath>
<clipPath id="c7_19"><path d="M291.6,940.2v-325H617v325Z"/></clipPath>
<clipPath id="c8_19"><path d="M616.3,940.2v-325h325v325Z"/></clipPath>
<clipPath id="c9_19"><path d="M-32.6,1264.6V939.5H292.3v325.1Z"/></clipPath>
<clipPath id="ca_19"><path d="M291.6,1264.6V939.5H617v325.1Z"/></clipPath>
<clipPath id="cb_19"><path d="M616.3,1264.6V939.5h325v325.1Z"/></clipPath>
<clipPath id="cc_19"><path d="M-32.6,1317.8v-53.9H941.3v53.9Z"/></clipPath>
</defs>
<image clip-path="url(#c0_19)" preserveAspectRatio="none" x="-32" y="-32" width="324" height="324" xlink:href="img/1.webp"/>
<image clip-path="url(#c1_19)" preserveAspectRatio="none" x="292" y="-32" width="325" height="324" xlink:href="img/2.webp"/>
<image clip-path="url(#c2_19)" preserveAspectRatio="none" x="616" y="-32" width="326" height="324" xlink:href="img/3.webp"/>
<image clip-path="url(#c3_19)" preserveAspectRatio="none" x="-32" y="291" width="324" height="325" xlink:href="img/4.webp"/>
<image clip-path="url(#c4_19)" preserveAspectRatio="none" x="292" y="291" width="325" height="325" xlink:href="img/5.webp"/>
<image clip-path="url(#c5_19)" preserveAspectRatio="none" x="616" y="291" width="326" height="325" xlink:href="img/6.webp"/>
<image clip-path="url(#c6_19)" preserveAspectRatio="none" x="-32" y="615" width="324" height="325" xlink:href="img/7.webp"/>
<image clip-path="url(#c7_19)" preserveAspectRatio="none" x="292" y="615" width="325" height="325" xlink:href="img/8.webp"/>
<image clip-path="url(#c8_19)" preserveAspectRatio="none" x="616" y="615" width="326" height="325" xlink:href="img/9.webp"/>
<image clip-path="url(#c9_19)" preserveAspectRatio="none" x="-32" y="940" width="324" height="325" xlink:href="img/10.webp"/>
<image clip-path="url(#ca_19)" preserveAspectRatio="none" x="292" y="940" width="325" height="325" xlink:href="img/11.webp"/>
<image clip-path="url(#cb_19)" preserveAspectRatio="none" x="616" y="940" width="326" height="325" xlink:href="img/12.webp"/>
<image clip-path="url(#cc_19)" preserveAspectRatio="none" x="-32" y="1264" width="974" height="55" xlink:href="img/13.webp"/>
</svg>