<?xml version="1.0" encoding="UTF-8" standalone="no"?>
<!DOCTYPE svg PUBLIC "-//W3C//DTD SVG 1.1//EN"
"http://www.w3.org/Graphics/SVG/1.1/DTD/svg11.dtd">
<svg viewBox="0 0 907 1284" version="1.1" xmlns="http://www.w3.org/2000/svg" xmlns:xlink="http://www.w3.org/1999/xlink">
<defs>
<clipPath id="c0_9"><path d="M828.3,1224.7v-99.6H478.1v99.6Zm-446.1,48.7V873.9h-279v399.5ZM0,1284.4V0H907.6V1284.4Z"/></clipPath>
<clipPath id="c1_9"><path d="M907.6,0V0h.1Z"/></clipPath>
<clipPath id="c2_9"><path d="M103.2,973.8V885.9h16.5V874.4H103.2v-.5h93.1v99.9Z"/></clipPath>
<clipPath id="c3_9"><path d="M196,973.8V873.9h93.4v99.9Z"/></clipPath>
<clipPath id="c4_9"><path d="M289.2,973.8V873.9h93v99.9Z"/></clipPath>
<clipPath id="c5_9"><path d="M103.2,1073.8V973.6h93.1v100.2Z"/></clipPath>
<clipPath id="c6_9"><path d="M0,1284.4V0H907.6V1284.4Z"/></clipPath>
<clipPath id="c7_9"><path d="M289.2,1073.8V973.6h93v100.2Z"/></clipPath>
<clipPath id="c8_9"><path d="M103.2,1173.7V1073.6h93.1v100.1Z"/></clipPath>
<clipPath id="c9_9"><path d="M289.2,1173.7V1073.6h93v100.1Z"/></clipPath>
<clipPath id="ca_9"><path d="M103.2,1273.4v-100h93.1v100Z"/></clipPath>
<clipPath id="cb_9"><path d="M196,1273.4v-100h93.4v100Z"/></clipPath>
<clipPath id="cc_9"><path d="M289.2,1273.4v-100h93v100Z"/></clipPath>
<clipPath id="cd_9"><path d="M103.2,885.9V874.4h16.5v11.5Z"/></clipPath>
<clipPath id="ce_9"><path d="M118.3,885.6v-.1c0,-.6,0,-1.2,0,-1.8v-.1c.5,0,1,0,1.4,0v.9c-.1,.3,-.1,.6,-.1,.9l-1.3,.2Zm-5.2,-.8c1.4,0,2.1,-1.1,2,-3.4c-.1,-2.1,-.7,-3,-1.9,-3c-1.4,0,-2,1.2,-1.9,3.6c0,.8,.1,1.4,.4,1.9c.3,.5,.8,.9,1.4,.9Zm-6.4,.8c.1,-2.1,.2,-4,.1,-5.7c0,-.8,0,-1.4,-.1,-2c.6,-.1,1,-.2,1.4,-.3c0,1.8,0,3.5,0,5.2c0,.9,0,1.8,0,2.7q-.1,0,-.1,0c-.5,0,-.9,0,-1.3,.1Zm6.4,0c-1.1,0,-1.9,-.4,-2.4,-1.1c-.5,-.6,-.8,-1.5,-.8,-2.6c-.1,-1.3,.2,-2.3,.7,-3c.6,-.9,1.5,-1.3,2.8,-1.3c.9,0,1.8,.4,2.3,1.1c.5,.6,.7,1.5,.8,2.5c0,1.3,-.2,2.3,-.7,3c-.6,.9,-1.5,1.4,-2.7,1.4ZM103.2,880v-1.3c.2,-.2,.4,-.5,.7,-.8c.5,-.5,1.1,-.7,1.6,-.7c0,0,.1,0,.2,0c-.1,.3,-.2,.7,-.3,1.3c-.2,0,-.5,.1,-.7,.1c-.3,.1,-.5,.2,-.8,.4c-.3,.2,-.5,.6,-.7,1Zm3.8,-3.7c.1,-.4,.2,-1,.3,-1.8c.3,-.1,.8,-.1,1.4,-.1l-.7,1.7l-.1,.1c-.2,0,-.5,.1,-.9,.1Z"/></clipPath>
<clipPath id="cf_9"><path d="M678.1,1224.7v-99.6H828.3v99.6Z"/></clipPath>
<clipPath id="cg_9"><path d="M527.9,1224.7v-99.6H678.4v99.6Z"/></clipPath>
<clipPath id="ch_9"><path d="M478.1,1224.7v-99.6h50v99.6Z"/></clipPath>
<style type="text/css"><![CDATA[
.g0_9{
fill: none;
stroke: #231916;
stroke-width: 0.763;
stroke-linecap: butt;
stroke-linejoin: miter;
}
.g1_9{
fill: none;
stroke: #FFFFFF;
stroke-width: 1.909;
stroke-linecap: butt;
stroke-linejoin: miter;
}
.g2_9{
fill: none;
stroke: #000000;
stroke-width: 0.381;
stroke-linecap: butt;
stroke-linejoin: miter;
}
]]></style>
</defs>
<image clip-path="url(#c0_9)" preserveAspectRatio="none" x="-22" y="-22" width="931" height="1329" xlink:href="img/1.webp"/>
<image clip-path="url(#c1_9)" preserveAspectRatio="none" x="907" y="-22" width="933" height="1329" xlink:href="img/2.webp"/>
<path d="M65.1,789.8H430M477.6,151.2H842.5M477.6,473.8H842.5m-364.9,204H842.5M477.6,908.7H842.5" class="g0_9"/>
<image clip-path="url(#c2_9)" preserveAspectRatio="none" x="103" y="874" width="93" height="100" xlink:href="img/3.webp"/>
<image clip-path="url(#c3_9)" preserveAspectRatio="none" x="196" y="874" width="93" height="100" xlink:href="img/4.webp"/>
<image clip-path="url(#c4_9)" preserveAspectRatio="none" x="289" y="874" width="93" height="100" xlink:href="img/5.webp"/>
<image clip-path="url(#c5_9)" preserveAspectRatio="none" x="103" y="974" width="93" height="100" xlink:href="img/6.webp"/>
<image clip-path="url(#c6_9)" preserveAspectRatio="none" x="196" y="974" width="93" height="100" xlink:href="img/7.webp"/>
<image clip-path="url(#c7_9)" preserveAspectRatio="none" x="289" y="974" width="93" height="100" xlink:href="img/8.webp"/>
<image clip-path="url(#c8_9)" preserveAspectRatio="none" x="103" y="1074" width="93" height="100" xlink:href="img/9.webp"/>
<image clip-path="url(#c6_9)" preserveAspectRatio="none" x="196" y="1074" width="93" height="100" xlink:href="img/10.webp"/>
<image clip-path="url(#c9_9)" preserveAspectRatio="none" x="289" y="1074" width="93" height="100" xlink:href="img/11.webp"/>
<image clip-path="url(#ca_9)" preserveAspectRatio="none" x="103" y="1173" width="93" height="101" xlink:href="img/12.webp"/>
<image clip-path="url(#cb_9)" preserveAspectRatio="none" x="196" y="1173" width="93" height="101" xlink:href="img/13.webp"/>
<image clip-path="url(#cc_9)" preserveAspectRatio="none" x="289" y="1173" width="93" height="101" xlink:href="img/14.webp"/>
<image clip-path="url(#cd_9)" preserveAspectRatio="none" x="103" y="874" width="17" height="12" xlink:href="img/15.webp"/>
<image clip-path="url(#ce_9)" preserveAspectRatio="none" x="103" y="874" width="17" height="12" xlink:href="img/16.webp"/>
<image clip-path="url(#cf_9)" preserveAspectRatio="none" x="678" y="1125" width="151" height="100" xlink:href="img/17.webp"/>
<image clip-path="url(#cg_9)" preserveAspectRatio="none" x="528" y="1125" width="150" height="100" xlink:href="img/18.webp"/>
<image clip-path="url(#ch_9)" preserveAspectRatio="none" x="478" y="1125" width="50" height="100" xlink:href="img/19.webp"/>
<g clip-path="url(#c6_9)">
<path d="M-10,-.8H-32.9m950.6,0h22.9M-10,1285.3H-32.9m950.6,0h22.9M-.8,-10V-32.9m0,1327.4v22.9M908.5,-10V-32.9m0,1327.4v22.9" class="g1_9"/>
<path d="M-10,-.8H-32.9m950.6,0h22.9M-10,1285.3H-32.9m950.6,0h22.9M-.8,-10V-32.9m0,1327.4v22.9M908.5,-10V-32.9m0,1327.4v22.9" class="g2_9"/>
</g>
</svg>