<?xml version="1.0" encoding="UTF-8" standalone="no"?>
<!DOCTYPE svg PUBLIC "-//W3C//DTD SVG 1.1//EN"
"http://www.w3.org/Graphics/SVG/1.1/DTD/svg11.dtd">
<svg viewBox="0 0 908 1286" version="1.1" xmlns="http://www.w3.org/2000/svg" xmlns:xlink="http://www.w3.org/1999/xlink">
<defs>
<clipPath id="c0_14"><path d="M0,1285.7V0H909V1285.7Z"/></clipPath>
<clipPath id="c1_14"><path d="M0,1285.5V1008.6H909v276.9Z"/></clipPath>
<clipPath id="c2_14"><path d="M56.3,192.4V87.7H162.8V192.4Z"/></clipPath>
<clipPath id="c3_14"><path d="M0,338.8V269.5H881.9v69.3Z"/></clipPath>
<clipPath id="c4_14"><path d="M393.9,614V383.1H881.6V614Z"/></clipPath>
<clipPath id="c5_14"><path d="M627.8,532.5V515.3H645v17.2Z"/></clipPath>
<clipPath id="c6_14"><path d="M709.2,554.2L648.4,537.9l16.3,-60.6l11.4,-42.6l25.2,6.8l35.5,9.5L709.2,554.2Z"/></clipPath>
<clipPath id="c7_14"><path d="M752.4,572.5L714.7,557.3l26.7,-66.2l37.8,15.2l-26.8,66.2Z"/></clipPath>
<clipPath id="c8_14"><path d="M18,1121V357.1H891V1121Z"/></clipPath>
<clipPath id="c9_14"><path d="M567.1,841.3V755.9H723v85.4Z"/></clipPath>
<clipPath id="ca_14"><path d="M534.5,851.3V746.6H641V851.3Z"/></clipPath>
<clipPath id="cb_14"><path d="M760.1,842.2V763.4h75.6v78.8Z"/></clipPath>
<clipPath id="cc_14"><path d="M559.1,805.2l-8.3,-14.3L538.9,770.3l30.7,-17.7l20.2,34.9l-30.7,17.7Z"/></clipPath>
<clipPath id="cd_14"><path d="M567.1,709.2V623.9H723v85.3Z"/></clipPath>
<clipPath id="ce_14"><path d="M534.5,732.4V614H656.9V732.4Z"/></clipPath>
<clipPath id="cf_14"><path d="M613.3,729.4v-41h41v41Z"/></clipPath>
<clipPath id="cg_14"><path d="M559.1,673.2l-3.8,-6.7L538.9,638.2l30.7,-17.7l20.2,35l-30.7,17.7Z"/></clipPath>
<clipPath id="ch_14"><path d="M617.6,689.8L586.9,672l20.2,-34.9l30.7,17.7l-20.2,35Z"/></clipPath>
<clipPath id="ci_14"><path d="M567.1,965.7V880.4H723v85.3Z"/></clipPath>
<clipPath id="cj_14"><path d="M534.5,975.7V871.1H641V975.7Z"/></clipPath>
<clipPath id="ck_14"><path d="M760.1,966.3V887.9h75.6v78.4Z"/></clipPath>
<clipPath id="cl_14"><path d="M559.1,929.7L545.5,906.2l-6.6,-11.5L550.6,888l19,-11l20.2,35l-30.7,17.7Z"/></clipPath>
<clipPath id="cm_14"><path d="M584,967.3l-3.7,-35.2l40.2,-4.2l3.7,35.2L584,967.3Z"/></clipPath>
<clipPath id="cn_14"><path d="M739.9,1071.2v-64.3H852.8v64.3Z"/></clipPath>
<clipPath id="co_14"><path d="M580,1062.3V983.5h75.6v78.8Z"/></clipPath>
<clipPath id="cp_14"><path d="M536.8,1099.8v-78.4h75.5v78.4Z"/></clipPath>
<clipPath id="cq_14"><path d="M777.2,698.7V619.9h75.6v78.8Z"/></clipPath>
<clipPath id="cr_14"><path d="M726.4,731.2V652.4h75.5v78.8Z"/></clipPath>
<clipPath id="cs_14"><path d="M454.5,282V144.6H866.7V282Z"/></clipPath>
<style type="text/css"><![CDATA[
.g0_14{
fill: #FFFFFF;
}
.g1_14{
fill: none;
stroke: #000000;
stroke-width: 0.916;
stroke-linecap: butt;
stroke-linejoin: miter;
}
.g2_14{
fill: none;
stroke: #FFFFFF;
stroke-width: 1.298;
stroke-linecap: butt;
stroke-linejoin: miter;
}
.g3_14{
fill: none;
stroke: #000000;
stroke-width: 0.259;
stroke-linecap: butt;
stroke-linejoin: miter;
}
.g4_14{
fill: none;
stroke: #FFFFFF;
stroke-width: 1.527;
stroke-linecap: butt;
stroke-linejoin: miter;
}
.g5_14{
fill: #CF0E1C;
}
.g6_14{
fill: none;
stroke: #FFFFFF;
stroke-width: 0.916;
stroke-linecap: butt;
stroke-linejoin: miter;
}
]]></style>
</defs>
<g clip-path="url(#c0_14)">
<path d="M0,522.1H909V1807.8H0V522.1Z" class="g0_14"/>
<image preserveAspectRatio="none" x="-21" y="-21" width="932" height="1328" xlink:href="img/1.webp"/>
</g>
<image clip-path="url(#c1_14)" preserveAspectRatio="none" x="0" y="1008" width="909" height="278" xlink:href="img/2.webp"/>
<image clip-path="url(#c2_14)" preserveAspectRatio="none" x="56" y="88" width="107" height="105" xlink:href="img/3.webp"/>
<image clip-path="url(#c3_14)" preserveAspectRatio="none" x="0" y="269" width="882" height="70" xlink:href="img/4.webp"/>
<path d="M56.3,75H852.8" class="g1_14"/>
<image clip-path="url(#c4_14)" preserveAspectRatio="none" x="-610" y="-315" width="2059" height="1764" xlink:href="img/5.webp"/>
<image clip-path="url(#c5_14)" preserveAspectRatio="none" x="628" y="515" width="17" height="18" xlink:href="img/6.webp"/>
<g clip-path="url(#c4_14)">
<path d="M-617.4,-316.1H-633m2088.3,0h15.5M-617.4,1449.8H-633m2088.3,0h15.5M-611.2,-322.4v-15.5m0,1794v15.5M1449,-322.4v-15.5m0,1794v15.5" class="g2_14"/>
<path d="M-617.4,-316.1H-633m2088.3,0h15.5M-617.4,1449.8H-633m2088.3,0h15.5M-611.2,-322.4v-15.5m0,1794v15.5M1449,-322.4v-15.5m0,1794v15.5" class="g3_14"/>
</g>
<image clip-path="url(#c6_14)" preserveAspectRatio="none" x="648" y="434" width="89" height="120" xlink:href="img/7.webp"/>
<image clip-path="url(#c7_14)" preserveAspectRatio="none" x="715" y="491" width="64" height="82" xlink:href="img/8.webp"/>
<image clip-path="url(#c8_14)" preserveAspectRatio="none" x="18" y="357" width="873" height="764" xlink:href="img/9.webp"/>
<image clip-path="url(#c9_14)" preserveAspectRatio="none" x="567" y="756" width="156" height="85" xlink:href="img/10.webp"/>
<image clip-path="url(#ca_14)" preserveAspectRatio="none" x="534" y="747" width="107" height="104" xlink:href="img/11.webp"/>
<image clip-path="url(#cb_14)" preserveAspectRatio="none" x="760" y="763" width="76" height="80" xlink:href="img/12.webp"/>
<image clip-path="url(#cc_14)" preserveAspectRatio="none" x="539" y="752" width="51" height="54" xlink:href="img/13.webp"/>
<image clip-path="url(#cd_14)" preserveAspectRatio="none" x="567" y="624" width="156" height="85" xlink:href="img/14.webp"/>
<image clip-path="url(#ce_14)" preserveAspectRatio="none" x="534" y="614" width="123" height="119" xlink:href="img/15.webp"/>
<image clip-path="url(#cf_14)" preserveAspectRatio="none" x="613" y="688" width="41" height="42" xlink:href="img/16.webp"/>
<path d="M556.6,706.4l-.4,.2c-1.2,.9,-3.2,1.4,-5.8,1.4c-1,0,-1.7,-.1,-2,-.2l-.2,-.5c.1,-.2,.2,-.4,.2,-.7c-.1,-.4,-.3,-.5,-.5,-.5c-.2,0,-.4,.1,-.6,.3c-.2,.3,-.3,.4,-.5,.4c-.3,0,-.5,-.1,-.6,-.4c-.6,-2.1,-1,-3.5,-1,-4.2c.1,-.4,.2,-.7,.2,-.9l.5,-.2c.2,0,.3,.1,.5,.2l.4,.3l.4,-.3l.3,-.3l.4,-.2l.4,.1l.1,.1c.2,1,.4,2.1,.6,3.1c.3,1.7,.7,2.6,1,2.6h.9c.7,0,1.1,0,1.4,-.1c.5,0,.8,-2,.8,-5.9c0,-.3,-.1,-.8,-.2,-1.4c-.1,-.6,-.1,-1,-.1,-1.3c0,-.1,0,-.2,0,-.3v-.4l-.3,-.2c-.1,-.1,-.2,-.2,-.4,-.2c-.1,-.1,-.3,-.2,-.4,-.2h-.5c-.9,.2,-1.8,.3,-2.5,.3l-.4,-.2l-.2,-.4l.2,-.4l.4,-.2c1.6,0,3.1,-.4,4.5,-1.3c.2,-.1,.3,-.8,.3,-2.1V690c.1,-3.2,-.2,-4.9,-.8,-4.9c-.8,0,-1.8,.1,-2.8,.4l-.3,.4c-.3,1.1,-.4,2.2,-.4,3.4c0,1.4,-.3,2.1,-.8,2.1c-.3,0,-.5,-.3,-.7,-.9c-.1,-.7,-.4,-1,-.7,-1c-.3,0,-.5,.3,-.5,.8c-.1,.4,-.1,.8,-.1,1.2l-.3,.3l-.4,.1c-.5,-.1,-.7,-1.1,-.7,-3c0,-.4,0,-.9,0,-1.6v-1.5l.2,-.4l.4,-.2c.6,.1,.9,-.1,1,-.6c.2,-.5,.4,-.7,.6,-.7c.2,0,.4,.1,.6,.4c.2,.3,.4,.4,.6,.4c.1,0,.2,-.1,.4,-.3c.2,-.1,.4,-.2,.5,-.2c-.1,0,.1,0,.6,0c1,-.2,2.1,-.3,3.4,-.3c1.2,0,2.9,.1,5.1,.3c.3,.1,.5,.3,.5,.7c0,.2,-.2,.4,-.5,.5c-.4,.1,-.6,.2,-.6,.5v8.7c0,.4,-.2,.6,-.6,.6c-.3,0,-.5,-.2,-.5,-.5l-.3,-.3h-.5c-1.4,.7,-2.2,1.2,-2.2,1.5c0,.1,.5,.5,1.5,1c1.2,.7,1.8,1.1,1.9,1.2c.7,.5,1,2.1,1.1,4.7c0,.5,0,1.8,-.1,3.6l-.2,.4l-.5,.2c-.2,-.1,-.4,-.2,-.5,-.3h.1l-.4,-.3Z" class="g4_14"/>
<path d="M557,706.7h-.1c.1,.1,.3,.2,.5,.3l.5,-.2l.2,-.4c.1,-1.8,.1,-3.1,.1,-3.6c-.1,-2.6,-.4,-4.2,-1.1,-4.7c-.1,-.1,-.7,-.5,-1.9,-1.2c-1,-.5,-1.5,-.9,-1.5,-1c0,-.3,.8,-.8,2.2,-1.5h.5l.3,.3c0,.3,.2,.5,.5,.5c.4,0,.6,-.2,.6,-.6v-8.7c0,-.3,.2,-.4,.6,-.5c.3,-.1,.5,-.3,.5,-.5c0,-.4,-.2,-.6,-.5,-.7c-2.2,-.2,-3.9,-.3,-5.1,-.3c-1.3,0,-2.4,.1,-3.4,.3c-.5,0,-.7,0,-.6,0c-.1,0,-.3,.1,-.5,.3c-.2,.1,-.3,.2,-.4,.2c-.2,0,-.4,-.1,-.6,-.4c-.2,-.2,-.4,-.4,-.6,-.4c-.2,0,-.4,.3,-.6,.8c-.1,.4,-.4,.6,-1,.5l-.4,.2l-.2,.4c0,.3,0,.8,0,1.5c0,.7,0,1.2,0,1.6c0,1.9,.2,2.9,.7,3l.4,-.1l.3,-.3c0,-.4,0,-.8,.1,-1.2c0,-.5,.2,-.8,.5,-.8c.3,0,.6,.3,.7,1c.1,.6,.4,.9,.7,.9c.5,0,.8,-.7,.8,-2.1c0,-1.2,.1,-2.3,.4,-3.4l.3,-.4c1,-.3,2,-.4,2.8,-.4c.6,0,.9,1.7,.8,5c0,.8,0,1.6,0,2.3c0,1.3,-.1,2,-.3,2.2c-1.4,.8,-2.9,1.3,-4.5,1.3l-.4,.2l-.2,.4l.2,.4l.4,.2c.7,0,1.6,-.2,2.5,-.4h.5c.1,0,.3,.1,.4,.2c.2,0,.3,.1,.4,.2l.3,.2c0,.1,0,.2,0,.4c0,.1,0,.2,0,.3c0,.3,0,.8,.1,1.4c.1,.6,.2,1,.2,1.3c0,4,-.3,6,-.8,6c-.3,.1,-.7,.1,-1.4,.1c-.6,0,-.9,0,-.9,0c-.3,0,-.7,-.9,-1,-2.7c-.2,-1,-.4,-2.1,-.6,-3.1l-.1,-.1l-.4,-.1l-.4,.2l-.3,.3l-.4,.3l-.4,-.3c-.2,-.1,-.3,-.2,-.5,-.2l-.5,.2c0,.2,-.1,.5,-.2,.9c0,.7,.4,2.1,1,4.2c.1,.3,.3,.4,.6,.4c.2,0,.3,-.1,.5,-.4c.2,-.2,.4,-.3,.6,-.3c.2,0,.4,.1,.5,.5c0,.3,-.1,.5,-.2,.7l.2,.5c.3,.1,1,.2,2,.2c2.6,0,4.6,-.5,5.8,-1.4l.4,-.2l.4,.3Z" class="g5_14"/>
<image clip-path="url(#cg_14)" preserveAspectRatio="none" x="539" y="620" width="51" height="53" xlink:href="img/17.webp"/>
<image clip-path="url(#ch_14)" preserveAspectRatio="none" x="587" y="637" width="51" height="53" xlink:href="img/18.webp"/>
<image clip-path="url(#ci_14)" preserveAspectRatio="none" x="567" y="880" width="156" height="86" xlink:href="img/19.webp"/>
<image clip-path="url(#cj_14)" preserveAspectRatio="none" x="534" y="871" width="107" height="105" xlink:href="img/20.webp"/>
<image clip-path="url(#ck_14)" preserveAspectRatio="none" x="760" y="888" width="76" height="79" xlink:href="img/21.webp"/>
<image clip-path="url(#cl_14)" preserveAspectRatio="none" x="539" y="877" width="51" height="53" xlink:href="img/22.webp"/>
<image clip-path="url(#cm_14)" preserveAspectRatio="none" x="580" y="928" width="44" height="40" xlink:href="img/23.webp"/>
<image clip-path="url(#cn_14)" preserveAspectRatio="none" x="740" y="1007" width="113" height="64" xlink:href="img/24.webp"/>
<image clip-path="url(#co_14)" preserveAspectRatio="none" x="580" y="983" width="76" height="80" xlink:href="img/25.webp"/>
<image clip-path="url(#cp_14)" preserveAspectRatio="none" x="536" y="1021" width="76" height="79" xlink:href="img/26.webp"/>
<image clip-path="url(#cq_14)" preserveAspectRatio="none" x="777" y="620" width="76" height="79" xlink:href="img/27.webp"/>
<image clip-path="url(#cr_14)" preserveAspectRatio="none" x="726" y="652" width="76" height="79" xlink:href="img/28.webp"/>
<image clip-path="url(#cs_14)" preserveAspectRatio="none" x="454" y="144" width="413" height="138" xlink:href="img/29.webp"/>
<path d="M56.3,307.4H852.8" class="g6_14"/>
<path d="M28.7,1254.5c0,-.2,-.1,-.3,-.2,-.3l-.5,.2l-.2,-.2q-.1,-.1,-.2,-.1c-.4,0,-1,.2,-1.9,.5c-1,.4,-1.5,.8,-1.5,1.1l.1,.2l.2,.1c.3,-.2,.7,-.4,1.3,-.7h.3l.1,.2c0,.9,0,2,0,3.4c0,2,0,3.1,0,3.3c0,1.1,0,1.6,0,1.6c0,.2,0,.5,.1,.9c.2,.4,.2,.7,.2,1c0,.2,.1,.3,.3,.3c.2,0,.3,-.1,.4,-.3c0,-.2,.1,-.3,.2,-.3h.2l.1,.3c0,0,0,.1,0,.2c0,.1,0,.2,0,.2l.1,.2l.2,.1h.2l.1,-.2c.3,-4.9,.4,-8.8,.4,-11.7Z" class="g0_14"/>
<path d="M35.6,1266.4v.1c.2,0,.4,-.3,.4,-.9c0,-.1,0,-.2,0,-.4c.1,0,.1,-.2,.2,-.3c0,-1,0,-2.6,.1,-4.6c0,-2,0,-3.6,0,-4.6v-1.1l-.1,-.2l-.2,-.1h-.3c0,0,-.1,-.1,-.2,-.1c-.1,-.1,-.2,-.2,-.3,-.2c-.1,0,-.2,0,-.3,.2c0,.1,-.1,.2,-.2,.2c-.2,0,-.3,.2,-.3,.4c0,-.2,0,0,0,.7v1.4c0,2.1,-.1,3.2,-.3,3.3c-.3,.1,-1,.2,-2,.4l-.2,-.1l-.1,-.2c-.2,-1.3,-.4,-3.2,-.6,-5.8l-.1,-.2l-.2,-.1l-.4,.2c-.1,-.1,-.3,-.1,-.4,-.2c-.4,-.1,-.6,.8,-.6,2.5c0,1,.2,2.5,.4,4.5l.1,.2l.2,.1l.3,-.1c0,-.1,.2,-.1,.4,-.1c1.2,-.1,2.3,-.2,3,-.4h.3l.1,.3c-.1,1.5,-.2,3,-.3,4.5l.1,.3h.2c.2,0,.3,-.2,.4,-.6c0,-.3,0,-.6,0,-.9c0,-.6,.1,-.8,.3,-.8c.2,0,.3,.2,.3,.6c.1,.2,.1,.6,.1,1.1c-.1,.6,-.1,.9,-.1,.7l.1,.2l.2,.1Z" class="g0_14"/>
</svg>