<?xml version="1.0" standalone="no"?>
<!DOCTYPE svg PUBLIC "-//W3C//DTD SVG 20010904//EN"
 "http://www.w3.org/TR/2001/REC-SVG-20010904/DTD/svg10.dtd">
<svg version="1.0" xmlns="http://www.w3.org/2000/svg"
 width="283.000000pt" height="283.000000pt" viewBox="0 0 283.000000 283.000000"
 preserveAspectRatio="xMidYMid meet">
<metadata>
Created by potrace 1.11, written by Peter Selinger 2001-2013
</metadata>
<g transform="translate(0.000000,283.000000) scale(0.100000,-0.100000)"
fill="#000000" stroke="none">
<path d="M979 2583 c-114 -144 -155 -209 -249 -401 l-65 -132 -67 0 -68 0 -61
-77 c-59 -75 -142 -193 -170 -243 -98 -177 -190 -402 -218 -535 -43 -206 -1
-365 133 -498 99 -98 177 -162 229 -186 26 -13 47 -27 47 -32 0 -6 4 -8 8 -5
5 3 35 -8 68 -23 108 -52 228 -98 314 -121 46 -12 96 -27 110 -33 14 -5 32
-11 40 -12 8 -1 78 -16 155 -33 77 -17 209 -41 293 -54 l154 -22 81 86 c99
103 120 126 272 298 66 74 136 153 157 175 l38 40 -28 2 c-15 1 -126 4 -247 7
-121 2 -233 6 -250 9 -39 8 -168 27 -225 33 -76 9 -343 64 -354 73 -6 5 -38
17 -71 27 -70 21 -133 63 -198 133 -44 47 -47 54 -47 104 0 29 6 61 13 71 12
17 18 14 73 -36 32 -30 80 -65 107 -77 26 -13 47 -27 47 -32 0 -6 4 -8 8 -5 5
3 35 -8 68 -23 108 -52 228 -98 314 -121 46 -12 96 -27 110 -33 14 -5 32 -11
40 -12 8 -1 78 -16 155 -33 77 -17 209 -41 293 -54 l154 -22 81 85 c45 47 109
116 142 153 33 38 65 73 71 80 5 6 50 56 98 111 49 55 104 117 123 138 l35 37
-214 1 c-117 0 -220 2 -228 3 -22 4 -118 17 -165 22 -22 2 -49 6 -60 9 -11 2
-49 7 -85 11 -36 3 -68 8 -71 10 -4 2 -24 6 -45 10 -113 17 -103 22 51 23
l160 1 107 268 c59 147 110 275 114 285 6 16 -19 17 -430 17 -434 0 -437 0
-426 20 11 20 21 20 578 20 l567 0 75 188 c41 103 78 194 82 202 10 19 68 169
68 175 0 3 -389 5 -865 5 l-865 0 -61 -77z"/>
</g>
</svg>
