<?xml version="1.0" encoding="UTF-8" standalone="no"?>
<!DOCTYPE svg PUBLIC "-//W3C//DTD SVG 1.1//EN"
"http://www.w3.org/Graphics/SVG/1.1/DTD/svg11.dtd">
<svg viewBox="0 0 909 1286" version="1.1" xmlns="http://www.w3.org/2000/svg" xmlns:xlink="http://www.w3.org/1999/xlink">
<defs>
<style type="text/css"><![CDATA[
.g0_16{
fill: #FFFFFF;
}
.g1_16{
fill: none;
stroke: #000000;
stroke-width: 1.375;
stroke-linecap: butt;
stroke-linejoin: miter;
stroke-miterlimit: 4;
}
.g2_16{
fill: none;
stroke: #000000;
stroke-width: 1.527;
stroke-linecap: butt;
stroke-linejoin: miter;
stroke-miterlimit: 4;
}
.g3_16{
fill: none;
stroke: #000000;
stroke-width: 0.916;
stroke-linecap: butt;
stroke-linejoin: miter;
stroke-miterlimit: 4;
}
.g4_16{
fill: none;
stroke: #FFFFFF;
stroke-width: 0.916;
stroke-linecap: butt;
stroke-linejoin: miter;
stroke-miterlimit: 4;
}
]]></style>
</defs>
<image preserveAspectRatio="none" x="-21" y="-21" width="932" height="1329" xlink:href="../1/img/1.webp"/>
<image preserveAspectRatio="none" x="0" y="564" width="924" height="747" xlink:href="img/2.webp"/>
<path d="M330.3,227.2c5.9,0,10.8,-4.8,10.8,-10.8c0,-5.9,-4.9,-10.7,-10.8,-10.7c-5.9,0,-10.8,4.8,-10.8,10.7c0,6,4.9,10.8,10.8,10.8Z" class="g0_16"/>
<path d="M330.3,227.2c5.9,0,10.8,-4.8,10.8,-10.8c0,-5.9,-4.9,-10.7,-10.8,-10.7c-5.9,0,-10.8,4.8,-10.8,10.7c0,6,4.9,10.8,10.8,10.8Z" class="g1_16"/>
<path d="M364.8,171.6c5.9,0,10.7,-4.8,10.7,-10.8c0,-5.9,-4.8,-10.7,-10.7,-10.7c-5.9,0,-10.8,4.8,-10.8,10.7c0,6,4.9,10.8,10.8,10.8Z" class="g0_16"/>
<path d="M364.8,171.6c5.9,0,10.7,-4.8,10.7,-10.8c0,-5.9,-4.8,-10.7,-10.7,-10.7c-5.9,0,-10.8,4.8,-10.8,10.7c0,6,4.9,10.8,10.8,10.8Z" class="g2_16"/>
<path d="M56.3,837.8H443.9M56.3,74.8H853.1" class="g3_16"/>
<image preserveAspectRatio="none" x="458" y="95" width="129" height="187" xlink:href="img/3.webp"/>
<image preserveAspectRatio="none" x="461" y="96" width="118" height="178" xlink:href="img/4.webp"/>
<image preserveAspectRatio="none" x="677" y="188" width="183" height="93" xlink:href="img/5.webp"/>
<image preserveAspectRatio="none" x="677" y="187" width="178" height="87" xlink:href="img/6.webp"/>
<image preserveAspectRatio="none" x="487" y="69" width="286" height="274" xlink:href="img/7.webp"/>
<image preserveAspectRatio="none" x="519" y="188" width="31" height="29" xlink:href="img/8.webp"/>
<image preserveAspectRatio="none" x="517" y="182" width="31" height="32" xlink:href="img/9.webp"/>
<path d="M507.3,142c6,0,10.8,-4.8,10.8,-10.8c0,-5.9,-4.8,-10.7,-10.8,-10.7c-5.9,0,-10.7,4.8,-10.7,10.7c0,6,4.8,10.8,10.7,10.8Z" class="g0_16"/>
<path d="M507.3,142c6,0,10.8,-4.8,10.8,-10.8c0,-5.9,-4.8,-10.7,-10.8,-10.7c-5.9,0,-10.7,4.8,-10.7,10.7c0,6,4.8,10.8,10.7,10.8Z" class="g1_16"/>
<path d="M465.5,111.8c6,0,10.8,-4.8,10.8,-10.7c0,-6,-4.8,-10.8,-10.8,-10.8c-5.9,0,-10.7,4.8,-10.7,10.8c0,5.9,4.8,10.7,10.7,10.7Z" class="g0_16"/>
<path d="M465.5,111.8c6,0,10.8,-4.8,10.8,-10.7c0,-6,-4.8,-10.8,-10.8,-10.8c-5.9,0,-10.7,4.8,-10.7,10.8c0,5.9,4.8,10.7,10.7,10.7Z" class="g2_16"/>
<image preserveAspectRatio="none" x="509" y="166" width="32" height="29" xlink:href="img/10.webp"/>
<image preserveAspectRatio="none" x="508" y="163" width="29" height="28" xlink:href="img/11.webp"/>
<image preserveAspectRatio="none" x="497" y="186" width="29" height="31" xlink:href="img/12.webp"/>
<image preserveAspectRatio="none" x="494" y="182" width="32" height="32" xlink:href="img/13.webp"/>
<image preserveAspectRatio="none" x="678" y="90" width="179" height="90" xlink:href="img/14.webp"/>
<image preserveAspectRatio="none" x="678" y="87" width="178" height="90" xlink:href="img/15.webp"/>
<image preserveAspectRatio="none" x="533" y="7" width="295" height="296" xlink:href="img/16.webp"/>
<image preserveAspectRatio="none" x="784" y="130" width="30" height="29" xlink:href="img/17.webp"/>
<image preserveAspectRatio="none" x="780" y="124" width="32" height="32" xlink:href="img/18.webp"/>
<image preserveAspectRatio="none" x="773" y="108" width="31" height="29" xlink:href="img/19.webp"/>
<image preserveAspectRatio="none" x="771" y="106" width="30" height="27" xlink:href="img/20.webp"/>
<image preserveAspectRatio="none" x="759" y="128" width="31" height="31" xlink:href="img/21.webp"/>
<image preserveAspectRatio="none" x="757" y="124" width="32" height="32" xlink:href="img/22.webp"/>
<image preserveAspectRatio="none" x="-1" y="293" width="868" height="76" xlink:href="img/23.webp"/>
<image preserveAspectRatio="none" x="-1" y="381" width="873" height="191" xlink:href="img/24.webp"/>
<image preserveAspectRatio="none" x="-1" y="584" width="873" height="214" xlink:href="img/25.webp"/>
<path d="M56.3,331.5H853.1M55.6,415.6H852.4M55.6,618.2H852.4" class="g4_16"/>
</svg>