<?xml version="1.0" encoding="UTF-8" standalone="no"?>
<!DOCTYPE svg PUBLIC "-//W3C//DTD SVG 1.1//EN"
"http://www.w3.org/Graphics/SVG/1.1/DTD/svg11.dtd">
<svg viewBox="0 0 909 1286" version="1.1" xmlns="http://www.w3.org/2000/svg" xmlns:xlink="http://www.w3.org/1999/xlink">
<defs>
<clipPath id="c0_15"><path d="M468.8,816.4V620.5H871.6V816.4Z"/></clipPath>
<clipPath id="c1_15"><path d="M39,965.8V783.5H424.4V965.8Z"/></clipPath>
<style type="text/css"><![CDATA[
.g0_15{
fill: none;
stroke: #FFFFFF;
stroke-width: 1.527;
stroke-linecap: butt;
stroke-linejoin: miter;
stroke-miterlimit: 4;
}
.g1_15{
}
.g2_15{
fill: none;
stroke: #FFFFFF;
stroke-width: 1.298;
stroke-linecap: butt;
stroke-linejoin: miter;
}
.g3_15{
fill: none;
stroke: #000000;
stroke-width: 0.259;
stroke-linecap: butt;
stroke-linejoin: miter;
}
.g4_15{
fill: none;
stroke: #FFFFFF;
stroke-width: 1.306;
stroke-linecap: butt;
stroke-linejoin: miter;
stroke-miterlimit: 4;
}
.g5_15{
fill: none;
stroke: #000000;
stroke-width: 0.916;
stroke-linecap: butt;
stroke-linejoin: miter;
stroke-miterlimit: 4;
}
.g6_15{
fill: none;
stroke: #FFFFFF;
stroke-width: 0.916;
stroke-linecap: butt;
stroke-linejoin: miter;
stroke-miterlimit: 4;
}
]]></style>
</defs>
<image preserveAspectRatio="none" x="-1" y="-21" width="932" height="1329" xlink:href="../1/img/1.png"/>
<image preserveAspectRatio="none" x="0" y="985" width="944" height="324" xlink:href="img/2.png"/>
<image preserveAspectRatio="none" x="-1" y="1009" width="1" height="279" xlink:href="img/3.png"/>
<image preserveAspectRatio="none" x="70" y="93" width="122" height="118" xlink:href="img/4.png"/>
<path d="M91.4,185.7l-.1,-.4c0,.3,0,-.1,.1,-1.3c0,-.9,0,-1.6,-.1,-2.1c-.1,-.8,-.3,-1.1,-.6,-1.1c-.4,0,-.6,.4,-.6,1.4c0,.6,0,1.1,0,1.7c-.1,.8,-.3,1.3,-.7,1.3l-.5,-.2l-.1,-.4c.2,-2.8,.4,-5.7,.5,-8.5l-.1,-.5l-.5,-.1c-1.5,.3,-3.4,.6,-5.7,.8c-.5,-.1,-.7,-.1,-.9,.1l-.4,.2l-.4,-.2l-.2,-.4c-.4,-3.6,-.7,-6.4,-.7,-8.3c0,-3.2,.4,-4.8,1.1,-4.8c.3,.2,.5,.3,.6,.4l.8,-.3l.5,.2l.1,.4c.4,4.8,.8,8.4,1.2,10.8l.2,.3l.4,.2c1.9,-.2,3.1,-.5,3.8,-.7c.3,-.1,.4,-2.2,.4,-6.1v-3.9c.1,-.5,.3,-.8,.6,-.9c.2,0,.4,-.2,.5,-.4c.1,-.2,.3,-.3,.5,-.3c.2,0,.4,.1,.5,.3c.2,.1,.4,.2,.4,.3h.6l.4,.1l.2,.4v2.1c0,1.9,-.1,4.8,-.1,8.6c-.1,3.8,-.2,6.7,-.2,8.6c-.1,.3,-.2,.5,-.3,.7c-.1,.3,-.1,.5,-.1,.6c0,1.1,-.3,1.7,-.7,1.7l.1,-.1l-.5,-.2Z" class="g0_15"/>
<path d="M70.3,208.6c8.3,0,15,-6.7,15,-15c0,-8.2,-6.7,-14.9,-15,-14.9c-8.2,0,-14.9,6.7,-14.9,14.9c0,8.3,6.7,15,14.9,15Z" class="g1_15"/>
<path d="M70.3,208.6c8.3,0,15,-6.7,15,-15c0,-8.2,-6.7,-14.9,-15,-14.9c-8.2,0,-14.9,6.7,-14.9,14.9c0,8.3,6.7,15,14.9,15Z" class="g0_15"/>
<path d="M147.4,173.8c8.3,0,15,-6.7,15,-14.9c0,-8.3,-6.7,-15,-15,-15c-8.2,0,-14.9,6.7,-14.9,15c0,8.2,6.7,14.9,14.9,14.9Z" class="g1_15"/>
<path d="M147.4,173.8c8.3,0,15,-6.7,15,-14.9c0,-8.3,-6.7,-15,-15,-15c-8.2,0,-14.9,6.7,-14.9,15c0,8.2,6.7,14.9,14.9,14.9Z" class="g0_15"/>
<image preserveAspectRatio="none" x="27" y="527" width="884" height="69" xlink:href="img/5.png"/>
<image preserveAspectRatio="none" x="-990" y="-220" width="2061" height="1766" xlink:href="img/6.png"/>
<image preserveAspectRatio="none" x="650" y="611" width="17" height="17" xlink:href="img/7.png"/>
<g clip-path="url(#c0_15)">
<path d="M-996.8,-220.7h-15.6m2089.3,0h15.6M-996.8,1546h-15.6m2089.3,0h15.6M-990.5,-226.9v-15.6m0,1794.7v15.6M1070.7,-226.9v-15.6m0,1794.7v15.6" class="g2_15"/>
<path d="M-996.8,-220.7h-15.6m2089.3,0h15.6M-996.8,1546h-15.6m2089.3,0h15.6M-990.5,-226.9v-15.6m0,1794.7v15.6M1070.7,-226.9v-15.6m0,1794.7v15.6" class="g3_15"/>
</g>
<image preserveAspectRatio="none" x="-1438" y="-56" width="2060" height="1765" xlink:href="img/8.png"/>
<image preserveAspectRatio="none" x="201" y="775" width="18" height="17" xlink:href="img/9.png"/>
<g clip-path="url(#c1_15)">
<path d="M-1445.4,-57H-1461m2089.2,0h15.6M-1445.4,1709.8H-1461m2089.2,0h15.6m-2083,-1773V-78.8m0,1794.8v15.6M622,-63.2V-78.8M622,1716v15.6" class="g2_15"/>
<path d="M-1445.4,-57H-1461m2089.2,0h15.6M-1445.4,1709.8H-1461m2089.2,0h15.6m-2083,-1773V-78.8m0,1794.8v15.6M622,-63.2V-78.8M622,1716v15.6" class="g3_15"/>
</g>
<image preserveAspectRatio="none" x="263" y="880" width="108" height="81" xlink:href="img/10.png"/>
<image preserveAspectRatio="none" x="257" y="872" width="110" height="86" xlink:href="img/11.png"/>
<image preserveAspectRatio="none" x="24" y="608" width="865" height="530" xlink:href="img/12.png"/>
<image preserveAspectRatio="none" x="27" y="609" width="855" height="520" xlink:href="img/13.png"/>
<image preserveAspectRatio="none" x="157" y="815" width="116" height="152" xlink:href="img/14.png"/>
<image preserveAspectRatio="none" x="649" y="651" width="129" height="79" xlink:href="img/15.png"/>
<image preserveAspectRatio="none" x="644" y="644" width="128" height="88" xlink:href="img/16.png"/>
<image preserveAspectRatio="none" x="721" y="718" width="109" height="81" xlink:href="img/17.png"/>
<image preserveAspectRatio="none" x="716" y="710" width="109" height="86" xlink:href="img/18.png"/>
<image preserveAspectRatio="none" x="552" y="646" width="81" height="109" xlink:href="img/19.png"/>
<image preserveAspectRatio="none" x="549" y="641" width="77" height="104" xlink:href="img/20.png"/>
<image preserveAspectRatio="none" x="778" y="646" width="81" height="107" xlink:href="img/21.png"/>
<image preserveAspectRatio="none" x="771" y="637" width="91" height="113" xlink:href="img/22.png"/>
<image preserveAspectRatio="none" x="330" y="811" width="81" height="107" xlink:href="img/23.png"/>
<image preserveAspectRatio="none" x="322" y="801" width="92" height="114" xlink:href="img/24.png"/>
<image preserveAspectRatio="none" x="202" y="808" width="128" height="79" xlink:href="img/25.png"/>
<image preserveAspectRatio="none" x="195" y="801" width="128" height="88" xlink:href="img/26.png"/>
<image preserveAspectRatio="none" x="104" y="816" width="79" height="108" xlink:href="img/27.png"/>
<image preserveAspectRatio="none" x="101" y="812" width="77" height="103" xlink:href="img/28.png"/>
<image preserveAspectRatio="none" x="327" y="821" width="78" height="59" xlink:href="img/29.png"/>
<image preserveAspectRatio="none" x="288" y="882" width="77" height="60" xlink:href="img/30.png"/>
<path d="M146.6,374.5c7,0,12.7,-5.7,12.7,-12.8c0,-7.1,-5.7,-12.8,-12.7,-12.8c-7.1,0,-12.8,5.7,-12.8,12.8c0,7.1,5.7,12.8,12.8,12.8Z" class="g1_15"/>
<path d="M146.6,374.5c7,0,12.7,-5.7,12.7,-12.8c0,-7.1,-5.7,-12.8,-12.7,-12.8c-7.1,0,-12.8,5.7,-12.8,12.8c0,7.1,5.7,12.8,12.8,12.8Z" class="g4_15"/>
<path d="M765.7,392.8c7,0,12.7,-5.7,12.7,-12.8c0,-7,-5.7,-12.7,-12.7,-12.7c-7.1,0,-12.8,5.7,-12.8,12.7c0,7.1,5.7,12.8,12.8,12.8Z" class="g1_15"/>
<path d="M765.7,392.8c7,0,12.7,-5.7,12.7,-12.8c0,-7,-5.7,-12.7,-12.7,-12.7c-7.1,0,-12.8,5.7,-12.8,12.7c0,7.1,5.7,12.8,12.8,12.8Z" class="g4_15"/>
<path d="M56.3,75H853.1" class="g5_15"/>
<path d="M56.3,563.4H853.1" class="g6_15"/>
</svg>