<?xml version="1.0" encoding="UTF-8" standalone="no"?>
<!DOCTYPE svg PUBLIC "-//W3C//DTD SVG 1.1//EN"
"http://www.w3.org/Graphics/SVG/1.1/DTD/svg11.dtd">
<svg viewBox="0 0 909 1286" version="1.1" xmlns="http://www.w3.org/2000/svg" xmlns:xlink="http://www.w3.org/1999/xlink">
<defs>
<style type="text/css"><![CDATA[
.g0_6{
fill: none;
stroke: #000000;
stroke-width: 0.916;
stroke-linecap: butt;
stroke-linejoin: miter;
stroke-miterlimit: 4;
}
.g1_6{
fill: none;
stroke: #FFFFFF;
stroke-width: 0.916;
stroke-linecap: butt;
stroke-linejoin: miter;
stroke-miterlimit: 4;
}
]]></style>
</defs>
<image preserveAspectRatio="none" x="-21" y="-21" width="932" height="1329" xlink:href="../1/img/1.webp"/>
<image preserveAspectRatio="none" x="-1" y="1042" width="882" height="101" xlink:href="img/2.webp"/>
<image preserveAspectRatio="none" x="102" y="26" width="706" height="52" xlink:href="img/3.webp"/>
<image preserveAspectRatio="none" x="44" y="132" width="56" height="56" xlink:href="img/4.webp"/>
<path d="M43.7,111.8H866.5" class="g0_6"/>
<image preserveAspectRatio="none" x="44" y="767" width="56" height="55" xlink:href="img/5.webp"/>
<path d="M43.7,734.2H866.5" class="g0_6"/>
<image preserveAspectRatio="none" x="44" y="876" width="56" height="55" xlink:href="img/6.webp"/>
<path d="M43.7,860.9H866.5" class="g0_6"/>
<image preserveAspectRatio="none" x="44" y="975" width="56" height="55" xlink:href="img/7.webp"/>
<path d="M43.7,962.5H866.5" class="g0_6"/>
<image preserveAspectRatio="none" x="43" y="1188" width="57" height="55" xlink:href="img/8.webp"/>
<path d="M43.7,1171H866.5" class="g0_6"/>
<image preserveAspectRatio="none" x="521" y="1188" width="298" height="62" xlink:href="img/9.webp"/>
<image preserveAspectRatio="none" x="522" y="1189" width="291" height="52" xlink:href="img/10.webp"/>
<path d="M43.7,1075.7H866.5" class="g1_6"/>
<image preserveAspectRatio="none" x="-39" y="38" width="2117" height="1824" xlink:href="img/11.webp"/>
<image preserveAspectRatio="none" x="11" y="211" width="892" height="504" xlink:href="img/12.webp"/>
<image preserveAspectRatio="none" x="13" y="212" width="883" height="494" xlink:href="img/13.webp"/>
<image preserveAspectRatio="none" x="455" y="307" width="81" height="127" xlink:href="img/14.webp"/>
<image preserveAspectRatio="none" x="446" y="299" width="83" height="127" xlink:href="img/15.webp"/>
<image preserveAspectRatio="none" x="602" y="311" width="81" height="110" xlink:href="img/16.webp"/>
<image preserveAspectRatio="none" x="593" y="302" width="94" height="116" xlink:href="img/17.webp"/>
<image preserveAspectRatio="none" x="75" y="466" width="28" height="34" xlink:href="img/18.webp"/>
<image preserveAspectRatio="none" x="44" y="464" width="39" height="38" xlink:href="img/19.webp"/>
<image preserveAspectRatio="none" x="473" y="571" width="31" height="38" xlink:href="img/20.webp"/>
<image preserveAspectRatio="none" x="439" y="569" width="43" height="42" xlink:href="img/21.webp"/>
<image preserveAspectRatio="none" x="252" y="347" width="89" height="94" xlink:href="img/22.webp"/>
<image preserveAspectRatio="none" x="256" y="349" width="80" height="87" xlink:href="img/23.webp"/>
<image preserveAspectRatio="none" x="156" y="347" width="88" height="94" xlink:href="img/24.webp"/>
<image preserveAspectRatio="none" x="160" y="349" width="79" height="86" xlink:href="img/25.webp"/>
<image preserveAspectRatio="none" x="60" y="347" width="88" height="94" xlink:href="img/26.webp"/>
<image preserveAspectRatio="none" x="63" y="349" width="80" height="86" xlink:href="img/27.webp"/>
<image preserveAspectRatio="none" x="315" y="557" width="65" height="71" xlink:href="img/28.webp"/>
<image preserveAspectRatio="none" x="319" y="560" width="56" height="62" xlink:href="img/29.webp"/>
<image preserveAspectRatio="none" x="272" y="557" width="64" height="71" xlink:href="img/30.webp"/>
<image preserveAspectRatio="none" x="275" y="560" width="56" height="61" xlink:href="img/31.webp"/>
<image preserveAspectRatio="none" x="228" y="557" width="64" height="71" xlink:href="img/32.webp"/>
<image preserveAspectRatio="none" x="231" y="560" width="56" height="61" xlink:href="img/33.webp"/>
<image preserveAspectRatio="none" x="643" y="557" width="64" height="71" xlink:href="img/34.webp"/>
<image preserveAspectRatio="none" x="647" y="560" width="56" height="62" xlink:href="img/35.webp"/>
<image preserveAspectRatio="none" x="600" y="557" width="65" height="71" xlink:href="img/36.webp"/>
<image preserveAspectRatio="none" x="603" y="560" width="56" height="61" xlink:href="img/37.webp"/>
</svg>