<?xml version="1.0" encoding="UTF-8" standalone="no"?>
<!DOCTYPE svg PUBLIC "-//W3C//DTD SVG 1.1//EN"
"http://www.w3.org/Graphics/SVG/1.1/DTD/svg11.dtd">
<svg viewBox="0 0 909 1286" version="1.1" xmlns="http://www.w3.org/2000/svg" xmlns:xlink="http://www.w3.org/1999/xlink">
<defs>
<clipPath id="c0_19"><path d="M0,268.2V.1H267.3V268.2Z"/></clipPath>
<clipPath id="c1_19"><path d="M266.6,268.2V.1H535.3V268.2Z"/></clipPath>
<clipPath id="c2_19"><path d="M534.6,268.2V.1H803.2V268.2Z"/></clipPath>
<clipPath id="c3_19"><path d="M802.5,750.9V.1H909V750.9Z"/></clipPath>
<clipPath id="c4_19"><path d="M0,536V267.4H267.3V536Z"/></clipPath>
<clipPath id="c5_19"><path d="M266.7,536V267.4H535.3V536Z"/></clipPath>
<clipPath id="c6_19"><path d="M534.7,536V267.4H803V536Z"/></clipPath>
<clipPath id="c7_19"><path d="M0,804.4V535.3H267.3V804.4Z"/></clipPath>
<clipPath id="c8_19"><path d="M266.7,804.3V535.4H535.3V804.3Z"/></clipPath>
<clipPath id="c9_19"><path d="M534.7,804.3V535.4H803V804.3Z"/></clipPath>
<clipPath id="ca_19"><path d="M802.5,1286.2V750.1H909v536.1Z"/></clipPath>
<clipPath id="cb_19"><path d="M0,1072.6V803.7H267.3v268.9Z"/></clipPath>
<clipPath id="cc_19"><path d="M266.7,1072.6V803.8H535.3v268.8Z"/></clipPath>
<clipPath id="cd_19"><path d="M534.7,1072.6V803.8H803v268.8Z"/></clipPath>
<clipPath id="ce_19"><path d="M0,1286.2V1071.9H374.6v214.3Z"/></clipPath>
<clipPath id="cf_19"><path d="M373.8,1286.2V1071.9H749.7v214.3Z"/></clipPath>
<clipPath id="cg_19"><path d="M748.9,1286.2V1071.9h54.3v214.3Z"/></clipPath>
</defs>
<image clip-path="url(#c0_19)" preserveAspectRatio="none" x="0" y="0" width="267" height="268" xlink:href="img/1.webp"/>
<image clip-path="url(#c1_19)" preserveAspectRatio="none" x="267" y="0" width="268" height="268" xlink:href="img/2.webp"/>
<image clip-path="url(#c2_19)" preserveAspectRatio="none" x="535" y="0" width="268" height="268" xlink:href="img/3.webp"/>
<image clip-path="url(#c3_19)" preserveAspectRatio="none" x="802" y="0" width="108" height="751" xlink:href="img/4.webp"/>
<image clip-path="url(#c4_19)" preserveAspectRatio="none" x="0" y="267" width="267" height="269" xlink:href="img/5.webp"/>
<image clip-path="url(#c5_19)" preserveAspectRatio="none" x="267" y="267" width="268" height="269" xlink:href="img/6.webp"/>
<image clip-path="url(#c6_19)" preserveAspectRatio="none" x="535" y="267" width="268" height="269" xlink:href="img/7.webp"/>
<image clip-path="url(#c7_19)" preserveAspectRatio="none" x="0" y="535" width="267" height="269" xlink:href="img/8.webp"/>
<image clip-path="url(#c8_19)" preserveAspectRatio="none" x="267" y="535" width="268" height="269" xlink:href="img/9.webp"/>
<image clip-path="url(#c9_19)" preserveAspectRatio="none" x="535" y="535" width="268" height="269" xlink:href="img/10.webp"/>
<image clip-path="url(#ca_19)" preserveAspectRatio="none" x="802" y="750" width="108" height="537" xlink:href="img/11.webp"/>
<image clip-path="url(#cb_19)" preserveAspectRatio="none" x="0" y="804" width="267" height="269" xlink:href="img/12.webp"/>
<image clip-path="url(#cc_19)" preserveAspectRatio="none" x="267" y="804" width="268" height="269" xlink:href="img/13.webp"/>
<image clip-path="url(#cd_19)" preserveAspectRatio="none" x="535" y="804" width="268" height="269" xlink:href="img/14.webp"/>
<image clip-path="url(#ce_19)" preserveAspectRatio="none" x="0" y="1072" width="375" height="215" xlink:href="img/15.webp"/>
<image clip-path="url(#cf_19)" preserveAspectRatio="none" x="374" y="1072" width="376" height="215" xlink:href="img/16.webp"/>
<image clip-path="url(#cg_19)" preserveAspectRatio="none" x="749" y="1072" width="54" height="215" xlink:href="img/17.webp"/>
</svg>