<?xml version="1.0" encoding="UTF-8" standalone="no"?>
<!DOCTYPE svg PUBLIC "-//W3C//DTD SVG 1.1//EN"
"http://www.w3.org/Graphics/SVG/1.1/DTD/svg11.dtd">
<svg viewBox="0 0 908 1285" version="1.1" xmlns="http://www.w3.org/2000/svg" xmlns:xlink="http://www.w3.org/1999/xlink">
<defs>
<clipPath id="c0_45"><path d="M-32.7,291.6v-324H292.1v324Z"/></clipPath>
<clipPath id="c1_45"><path d="M291.3,291.6v-324h326v324Z"/></clipPath>
<clipPath id="c2_45"><path d="M616.6,291.6v-324H941.4v324Z"/></clipPath>
<clipPath id="c3_45"><path d="M-32.7,616.1V290.9H292.1V616.1Z"/></clipPath>
<clipPath id="c4_45"><path d="M616.6,616.1V290.9H941.4V616.1Z"/></clipPath>
<clipPath id="c5_45"><path d="M-32.7,940.3V615.4H292.1V940.3Z"/></clipPath>
<clipPath id="c6_45"><path d="M616.6,940.3V615.4H941.4V940.3Z"/></clipPath>
<clipPath id="c7_45"><path d="M-32.7,1264.8V939.5H292.1v325.3Z"/></clipPath>
<clipPath id="c8_45"><path d="M616.6,1264.8V939.5H941.4v325.3Z"/></clipPath>
<clipPath id="c9_45"><path d="M-32.7,1317.9V1264H941.4v53.9Z"/></clipPath>
</defs>
<image clip-path="url(#c0_45)" preserveAspectRatio="none" x="-33" y="-32" width="325" height="324" xlink:href="img/1.jpg"/>
<image clip-path="url(#c1_45)" preserveAspectRatio="none" x="291" y="-32" width="326" height="324" xlink:href="img/2.jpg"/>
<image clip-path="url(#c2_45)" preserveAspectRatio="none" x="617" y="-32" width="325" height="324" xlink:href="img/3.jpg"/>
<image clip-path="url(#c3_45)" preserveAspectRatio="none" x="-33" y="291" width="325" height="325" xlink:href="img/4.jpg"/>
<image preserveAspectRatio="none" x="291" y="291" width="326" height="325" xlink:href="img/5.jpg"/>
<image clip-path="url(#c4_45)" preserveAspectRatio="none" x="617" y="291" width="325" height="325" xlink:href="img/6.jpg"/>
<image clip-path="url(#c5_45)" preserveAspectRatio="none" x="-33" y="615" width="325" height="325" xlink:href="img/7.jpg"/>
<image preserveAspectRatio="none" x="291" y="615" width="326" height="325" xlink:href="img/8.jpg"/>
<image clip-path="url(#c6_45)" preserveAspectRatio="none" x="617" y="615" width="325" height="325" xlink:href="img/9.jpg"/>
<image clip-path="url(#c7_45)" preserveAspectRatio="none" x="-33" y="940" width="325" height="325" xlink:href="img/10.jpg"/>
<image preserveAspectRatio="none" x="291" y="940" width="326" height="325" xlink:href="img/11.jpg"/>
<image clip-path="url(#c8_45)" preserveAspectRatio="none" x="617" y="940" width="325" height="325" xlink:href="img/12.jpg"/>
<image clip-path="url(#c9_45)" preserveAspectRatio="none" x="-33" y="1264" width="975" height="55" xlink:href="img/13.jpg"/>
</svg>