<?xml version="1.0" encoding="UTF-8" standalone="no"?>
<!DOCTYPE svg PUBLIC "-//W3C//DTD SVG 1.1//EN"
"http://www.w3.org/Graphics/SVG/1.1/DTD/svg11.dtd">
<svg viewBox="0 0 908 1285" version="1.1" xmlns="http://www.w3.org/2000/svg" xmlns:xlink="http://www.w3.org/1999/xlink">
<defs>
<clipPath id="c0_1"><path d="M-32.3,292V-32H292.4V292Z"/></clipPath>
<clipPath id="c1_1"><path d="M291.7,292V-32H616.9V292Z"/></clipPath>
<clipPath id="c2_1"><path d="M616.2,292V-32H941.1V292Z"/></clipPath>
<clipPath id="c3_1"><path d="M-32.3,616.1V291.3H292.4V616.1Z"/></clipPath>
<clipPath id="c4_1"><path d="M616.2,616.1V291.3H941.1V616.1Z"/></clipPath>
<clipPath id="c5_1"><path d="M-32.3,940.3V615.4H292.4V940.3Z"/></clipPath>
<clipPath id="c6_1"><path d="M616.2,940.3V615.4H941.1V940.3Z"/></clipPath>
<clipPath id="c7_1"><path d="M-32.3,1264.4V939.5H292.4v324.9Z"/></clipPath>
<clipPath id="c8_1"><path d="M291.7,1264.4V939.5H616.9v324.9Z"/></clipPath>
<clipPath id="c9_1"><path d="M616.2,1264.4V939.5H941.1v324.9Z"/></clipPath>
<clipPath id="ca_1"><path d="M-32.3,1317.6v-53.9H941.1v53.9Z"/></clipPath>
</defs>
<image clip-path="url(#c0_1)" preserveAspectRatio="none" x="-32" y="-32" width="324" height="324" xlink:href="img/1.jpg"/>
<image clip-path="url(#c1_1)" preserveAspectRatio="none" x="292" y="-32" width="325" height="324" xlink:href="img/2.jpg"/>
<image clip-path="url(#c2_1)" preserveAspectRatio="none" x="616" y="-32" width="326" height="324" xlink:href="img/3.jpg"/>
<image clip-path="url(#c3_1)" preserveAspectRatio="none" x="-32" y="291" width="324" height="325" xlink:href="img/4.jpg"/>
<image preserveAspectRatio="none" x="292" y="291" width="325" height="325" xlink:href="img/5.jpg"/>
<image clip-path="url(#c4_1)" preserveAspectRatio="none" x="616" y="291" width="326" height="325" xlink:href="img/6.jpg"/>
<image clip-path="url(#c5_1)" preserveAspectRatio="none" x="-32" y="615" width="324" height="325" xlink:href="img/7.jpg"/>
<image preserveAspectRatio="none" x="292" y="615" width="325" height="325" xlink:href="img/8.jpg"/>
<image clip-path="url(#c6_1)" preserveAspectRatio="none" x="616" y="615" width="326" height="325" xlink:href="img/9.jpg"/>
<image clip-path="url(#c7_1)" preserveAspectRatio="none" x="-32" y="940" width="324" height="324" xlink:href="img/10.jpg"/>
<image clip-path="url(#c8_1)" preserveAspectRatio="none" x="292" y="940" width="325" height="324" xlink:href="img/11.jpg"/>
<image clip-path="url(#c9_1)" preserveAspectRatio="none" x="616" y="940" width="326" height="324" xlink:href="img/12.jpg"/>
<image clip-path="url(#ca_1)" preserveAspectRatio="none" x="-32" y="1264" width="974" height="54" xlink:href="img/13.jpg"/>
</svg>