<?xml version="1.0" encoding="UTF-8" standalone="no"?>
<!DOCTYPE svg PUBLIC "-//W3C//DTD SVG 1.1//EN"
"http://www.w3.org/Graphics/SVG/1.1/DTD/svg11.dtd">
<svg viewBox="0 0 909 1286" version="1.1" xmlns="http://www.w3.org/2000/svg" xmlns:xlink="http://www.w3.org/1999/xlink">
<defs>
<style type="text/css"><![CDATA[
.g0_7{
fill: none;
stroke: #000000;
stroke-width: 0.916;
stroke-linecap: butt;
stroke-linejoin: miter;
stroke-miterlimit: 4;
}
.g1_7{
}
.g2_7{
fill: none;
stroke: #FFFFFF;
stroke-width: 1.527;
stroke-linecap: butt;
stroke-linejoin: miter;
stroke-miterlimit: 4;
}
.g3_7{
fill: none;
stroke: #CD071E;
stroke-width: 3.055;
stroke-linecap: butt;
stroke-linejoin: miter;
stroke-miterlimit: 4;
}
.g4_7{
fill: none;
stroke: #CF0E1C;
stroke-width: 3.055;
stroke-linecap: butt;
stroke-linejoin: miter;
stroke-miterlimit: 4;
}
.g5_7{
fill: none;
stroke: #FFFFFF;
stroke-width: 0.916;
stroke-linecap: butt;
stroke-linejoin: miter;
stroke-miterlimit: 4;
}
]]></style>
</defs>
<image preserveAspectRatio="none" x="-1" y="-21" width="932" height="1329" xlink:href="../1/img/1.webp"/>
<path d="M56.3,75.5H853.1" class="g0_7"/>
<image preserveAspectRatio="none" x="55" y="101" width="805" height="464" xlink:href="img/2.webp"/>
<image preserveAspectRatio="none" x="56" y="101" width="797" height="456" xlink:href="img/3.webp"/>
<path d="M72,658.5c8.3,0,14.9,-6.7,14.9,-15c0,-8.4,-6.6,-15.1,-14.9,-15.1c-8.2,0,-14.9,6.7,-14.9,15.1c0,8.3,6.7,15,14.9,15Z" class="g1_7"/>
<path d="M72,658.5c8.3,0,14.9,-6.7,14.9,-15c0,-8.4,-6.6,-15.1,-14.9,-15.1c-8.2,0,-14.9,6.7,-14.9,15.1c0,8.3,6.7,15,14.9,15Z" class="g2_7"/>
<path d="M72,784.3c8.3,0,14.9,-6.7,14.9,-15c0,-8.4,-6.6,-15.1,-14.9,-15.1c-8.2,0,-14.9,6.7,-14.9,15.1c0,8.3,6.7,15,14.9,15Z" class="g1_7"/>
<path d="M72,784.3c8.3,0,14.9,-6.7,14.9,-15c0,-8.4,-6.6,-15.1,-14.9,-15.1c-8.2,0,-14.9,6.7,-14.9,15.1c0,8.3,6.7,15,14.9,15Z" class="g2_7"/>
<path d="M397.3,328.5H780.6V103.4H397.3V328.5Z" class="g3_7"/>
<path d="M396.8,228.7c8.3,0,14.9,-6.6,14.9,-14.9c0,-8.3,-6.6,-14.9,-14.9,-14.9c-8.2,0,-14.9,6.6,-14.9,14.9c0,8.3,6.7,14.9,14.9,14.9Z" class="g1_7"/>
<path d="M396.8,228.7c8.3,0,14.9,-6.6,14.9,-14.9c0,-8.3,-6.6,-14.9,-14.9,-14.9c-8.2,0,-14.9,6.6,-14.9,14.9c0,8.3,6.7,14.9,14.9,14.9ZM787.6,361H840V99.6H787.6V361Z" class="g3_7"/>
<path d="M813.6,108.9c8.3,0,15,-6.7,15,-14.9c0,-8.3,-6.7,-15,-15,-15c-8.2,0,-14.9,6.7,-14.9,15c0,8.2,6.7,14.9,14.9,14.9Z" class="g1_7"/>
<path d="M813.6,108.9c8.3,0,15,-6.7,15,-14.9c0,-8.3,-6.7,-15,-15,-15c-8.2,0,-14.9,6.7,-14.9,15c0,8.2,6.7,14.9,14.9,14.9Z" class="g3_7"/>
<path d="M72,857.7c8.3,0,14.9,-6.7,14.9,-15.1c0,-8.3,-6.6,-15,-14.9,-15c-8.2,0,-14.9,6.7,-14.9,15c0,8.4,6.7,15.1,14.9,15.1Z" class="g1_7"/>
<path d="M72,857.7c8.3,0,14.9,-6.7,14.9,-15.1c0,-8.3,-6.6,-15,-14.9,-15c-8.2,0,-14.9,6.7,-14.9,15c0,8.4,6.7,15.1,14.9,15.1Z" class="g2_7"/>
<path d="M72,910.3c8.3,0,14.9,-6.7,14.9,-15c0,-8.4,-6.6,-15.1,-14.9,-15.1c-8.2,0,-14.9,6.7,-14.9,15.1c0,8.3,6.7,15,14.9,15Z" class="g1_7"/>
<path d="M72,910.3c8.3,0,14.9,-6.7,14.9,-15c0,-8.4,-6.6,-15.1,-14.9,-15.1c-8.2,0,-14.9,6.7,-14.9,15.1c0,8.3,6.7,15,14.9,15Z" class="g2_7"/>
<path d="M72,1039.2c8.3,0,14.9,-6.7,14.9,-15.1c0,-8.3,-6.6,-15,-14.9,-15c-8.2,0,-14.9,6.7,-14.9,15c0,8.4,6.7,15.1,14.9,15.1Z" class="g1_7"/>
<path d="M72,1039.2c8.3,0,14.9,-6.7,14.9,-15.1c0,-8.3,-6.6,-15,-14.9,-15c-8.2,0,-14.9,6.7,-14.9,15c0,8.4,6.7,15.1,14.9,15.1Z" class="g2_7"/>
<path d="M72,1111.5c8.3,0,14.9,-6.7,14.9,-15.1c0,-8.3,-6.6,-15,-14.9,-15c-8.2,0,-14.9,6.7,-14.9,15c0,8.4,6.7,15.1,14.9,15.1Z" class="g1_7"/>
<path d="M72,1111.5c8.3,0,14.9,-6.7,14.9,-15.1c0,-8.3,-6.6,-15,-14.9,-15c-8.2,0,-14.9,6.7,-14.9,15c0,8.4,6.7,15.1,14.9,15.1Z" class="g2_7"/>
<path d="M485.6,613.9c8.2,0,14.9,-6.8,14.9,-15.1c0,-8.3,-6.7,-15.1,-14.9,-15.1c-8.3,0,-15,6.8,-15,15.1c0,8.3,6.7,15.1,15,15.1Z" class="g1_7"/>
<path d="M485.6,613.9c8.2,0,14.9,-6.8,14.9,-15.1c0,-8.3,-6.7,-15.1,-14.9,-15.1c-8.3,0,-15,6.8,-15,15.1c0,8.3,6.7,15.1,15,15.1Z" class="g2_7"/>
<path d="M485.6,720.6c8.2,0,14.9,-6.7,14.9,-15.1c0,-8.3,-6.7,-15,-14.9,-15c-8.3,0,-15,6.7,-15,15c0,8.4,6.7,15.1,15,15.1Z" class="g1_7"/>
<path d="M485.6,720.6c8.2,0,14.9,-6.7,14.9,-15.1c0,-8.3,-6.7,-15,-14.9,-15c-8.3,0,-15,6.7,-15,15c0,8.4,6.7,15.1,15,15.1Z" class="g2_7"/>
<path d="M340.4,393.4h32.5V348.9H340.4v44.5Zm37.7,17.8H701.8V344.1H378.1v67.1ZM709.4,344.1v67.1H834.5V370l-69.7,-.1l.1,-25.8H709.4ZM65.6,545.4H312.4V417.7H65.6V545.4Zm265.7,0H578.1V417.7H331.3V545.4Zm265.7,0H843.8V417.7H597V545.4Z" class="g3_7"/>
<path d="M334,356.4c8.3,0,15,-6.7,15,-14.9c0,-8.3,-6.7,-15,-15,-15c-8.2,0,-14.9,6.7,-14.9,15c0,8.2,6.7,14.9,14.9,14.9Z" class="g1_7"/>
<path d="M334,356.4c8.3,0,15,-6.7,15,-14.9c0,-8.3,-6.7,-15,-15,-15c-8.2,0,-14.9,6.7,-14.9,15c0,8.2,6.7,14.9,14.9,14.9Z" class="g3_7"/>
<path d="M405.8,363.5c8.2,0,14.9,-6.7,14.9,-15c0,-8.2,-6.7,-14.9,-14.9,-14.9c-8.3,0,-15,6.7,-15,14.9c0,8.3,6.7,15,15,15Z" class="g1_7"/>
<path d="M405.8,363.5c8.2,0,14.9,-6.7,14.9,-15c0,-8.2,-6.7,-14.9,-14.9,-14.9c-8.3,0,-15,6.7,-15,14.9c0,8.3,6.7,15,15,15Z" class="g3_7"/>
<path d="M841.6,404.9c8.2,0,14.9,-6.7,14.9,-15c0,-8.2,-6.7,-14.9,-14.9,-14.9c-8.3,0,-15,6.7,-15,14.9c0,8.3,6.7,15,15,15Z" class="g1_7"/>
<path d="M841.6,404.9c8.2,0,14.9,-6.7,14.9,-15c0,-8.2,-6.7,-14.9,-14.9,-14.9c-8.3,0,-15,6.7,-15,14.9c0,8.3,6.7,15,15,15Z" class="g3_7"/>
<path d="M73.9,496.5c8.2,0,14.9,-6.7,14.9,-14.9c0,-8.3,-6.7,-15,-14.9,-15c-8.3,0,-15,6.7,-15,15c0,8.2,6.7,14.9,15,14.9Z" class="g1_7"/>
<path d="M73.9,496.5c8.2,0,14.9,-6.7,14.9,-14.9c0,-8.3,-6.7,-15,-14.9,-15c-8.3,0,-15,6.7,-15,15c0,8.2,6.7,14.9,15,14.9Z" class="g4_7"/>
<path d="M340.2,496.5c8.2,0,14.9,-6.7,14.9,-14.9c0,-8.3,-6.7,-15,-14.9,-15c-8.3,0,-15,6.7,-15,15c0,8.2,6.7,14.9,15,14.9Z" class="g1_7"/>
<path d="M340.2,496.5c8.2,0,14.9,-6.7,14.9,-14.9c0,-8.3,-6.7,-15,-14.9,-15c-8.3,0,-15,6.7,-15,15c0,8.2,6.7,14.9,15,14.9Z" class="g3_7"/>
<path d="M605.4,496.5c8.3,0,15,-6.7,15,-14.9c0,-8.3,-6.7,-15,-15,-15c-8.2,0,-14.9,6.7,-14.9,15c0,8.2,6.7,14.9,14.9,14.9Z" class="g1_7"/>
<path d="M605.4,496.5c8.3,0,15,-6.7,15,-14.9c0,-8.3,-6.7,-15,-15,-15c-8.2,0,-14.9,6.7,-14.9,15c0,8.2,6.7,14.9,14.9,14.9Z" class="g3_7"/>
<image preserveAspectRatio="none" x="461" y="1083" width="450" height="147" xlink:href="img/4.webp"/>
<path d="M469.9,1136.6H853.1" class="g5_7"/>
<image preserveAspectRatio="none" x="515" y="978" width="298" height="61" xlink:href="img/5.webp"/>
<image preserveAspectRatio="none" x="516" y="978" width="291" height="53" xlink:href="img/6.webp"/>
</svg>