<?xml version="1.0" encoding="UTF-8" standalone="no"?>
<!DOCTYPE svg PUBLIC "-//W3C//DTD SVG 1.1//EN"
"http://www.w3.org/Graphics/SVG/1.1/DTD/svg11.dtd">
<svg viewBox="0 0 909 1286" version="1.1" xmlns="http://www.w3.org/2000/svg" xmlns:xlink="http://www.w3.org/1999/xlink">
<defs>
<clipPath id="c0_9"><path d="M0,321.7V.1H428.6V321.7Z"/></clipPath>
<clipPath id="c1_9"><path d="M427.7,321.7V.1H857.5V321.7Z"/></clipPath>
<clipPath id="c2_9"><path d="M856.5,1286.2V.1H909V1286.2Z"/></clipPath>
<clipPath id="c3_9"><path d="M0,643.4V320.8H428.6V643.4Z"/></clipPath>
<clipPath id="c4_9"><path d="M427.8,643.3V320.9H857.3V643.3Z"/></clipPath>
<clipPath id="c5_9"><path d="M0,965.6V642.5H428.6V965.6Z"/></clipPath>
<clipPath id="c6_9"><path d="M427.8,965.4V642.6H857.3V965.4Z"/></clipPath>
<clipPath id="c7_9"><path d="M0,1286.2V964.6H428.6v321.6Z"/></clipPath>
<clipPath id="c8_9"><path d="M427.7,1286.2V964.6H857.5v321.6Z"/></clipPath>
</defs>
<image clip-path="url(#c0_9)" preserveAspectRatio="none" x="0" y="0" width="429" height="322" xlink:href="img/1.webp"/>
<image clip-path="url(#c1_9)" preserveAspectRatio="none" x="428" y="0" width="429" height="322" xlink:href="img/2.webp"/>
<image clip-path="url(#c2_9)" preserveAspectRatio="none" x="857" y="0" width="54" height="1287" xlink:href="img/3.webp"/>
<image clip-path="url(#c3_9)" preserveAspectRatio="none" x="0" y="321" width="429" height="322" xlink:href="img/4.webp"/>
<image clip-path="url(#c4_9)" preserveAspectRatio="none" x="428" y="321" width="429" height="322" xlink:href="img/5.webp"/>
<image clip-path="url(#c5_9)" preserveAspectRatio="none" x="0" y="643" width="429" height="323" xlink:href="img/6.webp"/>
<image clip-path="url(#c6_9)" preserveAspectRatio="none" x="428" y="643" width="429" height="323" xlink:href="img/7.webp"/>
<image clip-path="url(#c7_9)" preserveAspectRatio="none" x="0" y="965" width="429" height="322" xlink:href="img/8.webp"/>
<image clip-path="url(#c8_9)" preserveAspectRatio="none" x="428" y="965" width="429" height="322" xlink:href="img/9.webp"/>
</svg>