<?xml version="1.0" encoding="UTF-8" standalone="no"?>
<!DOCTYPE svg PUBLIC "-//W3C//DTD SVG 1.1//EN"
"http://www.w3.org/Graphics/SVG/1.1/DTD/svg11.dtd">
<svg viewBox="0 0 909 1286" version="1.1" xmlns="http://www.w3.org/2000/svg" xmlns:xlink="http://www.w3.org/1999/xlink">
<defs>
<clipPath id="c0_11"><path d="M0,321.5V.1H428.1V321.5Z"/></clipPath>
<clipPath id="c1_11"><path d="M427.2,321.5V.1H857.1V321.5Z"/></clipPath>
<clipPath id="c2_11"><path d="M856.2,1286.2V.1H909V1286.2Z"/></clipPath>
<clipPath id="c3_11"><path d="M0,643.6v-323H428.1v323Z"/></clipPath>
<clipPath id="c4_11"><path d="M427.3,643.5V320.7H856.9V643.5Z"/></clipPath>
<clipPath id="c5_11"><path d="M0,965.4V642.7H428.1V965.4Z"/></clipPath>
<clipPath id="c6_11"><path d="M427.3,965.2V642.8H856.9V965.2Z"/></clipPath>
<clipPath id="c7_11"><path d="M0,1286.2V964.5H428.1v321.7Z"/></clipPath>
<clipPath id="c8_11"><path d="M427.2,1286.2V964.5H857.1v321.7Z"/></clipPath>
</defs>
<image clip-path="url(#c0_11)" preserveAspectRatio="none" x="0" y="0" width="428" height="322" xlink:href="img/1.webp"/>
<image clip-path="url(#c1_11)" preserveAspectRatio="none" x="427" y="0" width="430" height="322" xlink:href="img/2.webp"/>
<image clip-path="url(#c2_11)" preserveAspectRatio="none" x="856" y="0" width="55" height="1288" xlink:href="img/3.webp"/>
<image clip-path="url(#c3_11)" preserveAspectRatio="none" x="0" y="321" width="428" height="323" xlink:href="img/4.webp"/>
<image clip-path="url(#c4_11)" preserveAspectRatio="none" x="427" y="321" width="430" height="323" xlink:href="img/5.webp"/>
<image clip-path="url(#c5_11)" preserveAspectRatio="none" x="0" y="643" width="428" height="322" xlink:href="img/6.webp"/>
<image clip-path="url(#c6_11)" preserveAspectRatio="none" x="427" y="643" width="430" height="322" xlink:href="img/7.webp"/>
<image clip-path="url(#c7_11)" preserveAspectRatio="none" x="0" y="964" width="428" height="324" xlink:href="img/8.webp"/>
<image clip-path="url(#c8_11)" preserveAspectRatio="none" x="427" y="964" width="430" height="324" xlink:href="img/9.webp"/>
</svg>