<?xml version="1.0" encoding="UTF-8" standalone="no"?>
<!DOCTYPE svg PUBLIC "-//W3C//DTD SVG 1.1//EN"
"http://www.w3.org/Graphics/SVG/1.1/DTD/svg11.dtd">
<svg viewBox="0 0 908 1285" version="1.1" xmlns="http://www.w3.org/2000/svg" xmlns:xlink="http://www.w3.org/1999/xlink">
<defs>
<clipPath id="c0_23"><path d="M-33.2,183V-33.3H237.9V183Z"/></clipPath>
<clipPath id="c1_23"><path d="M237.3,183V-33.3H508.8V183Z"/></clipPath>
<clipPath id="c2_23"><path d="M508.2,183V-33.3H779.9V183Z"/></clipPath>
<clipPath id="c3_23"><path d="M779.4,345.3V-33.3H941.9V345.3Z"/></clipPath>
<clipPath id="c4_23"><path d="M-33.2,399.5v-217H237.9v217Z"/></clipPath>
<clipPath id="c5_23"><path d="M508.2,399.5v-217H779.9v217Z"/></clipPath>
<clipPath id="c6_23"><path d="M779.4,724.3V344.7H941.9V724.3Z"/></clipPath>
<clipPath id="c7_23"><path d="M-33.2,615.9v-217H237.9v217Z"/></clipPath>
<clipPath id="c8_23"><path d="M508.2,615.9v-217H779.9v217Z"/></clipPath>
<clipPath id="c9_23"><path d="M-33.2,832.3V615.4H237.9V832.3Z"/></clipPath>
<clipPath id="ca_23"><path d="M237.3,832.3V615.4H508.8V832.3Z"/></clipPath>
<clipPath id="cb_23"><path d="M508.2,832.3V615.4H779.9V832.3Z"/></clipPath>
<clipPath id="cc_23"><path d="M779.4,1103V723.7H941.9V1103Z"/></clipPath>
<clipPath id="cd_23"><path d="M-33.2,1048.8v-217H237.9v217Z"/></clipPath>
<clipPath id="ce_23"><path d="M508.2,1048.8v-217H779.9v217Z"/></clipPath>
<clipPath id="cf_23"><path d="M-33.2,1265.2v-217H237.9v217Z"/></clipPath>
<clipPath id="cg_23"><path d="M508.2,1265.2v-217H779.9v217Z"/></clipPath>
<clipPath id="ch_23"><path d="M779.4,1318.9V1102.4H941.9v216.5Z"/></clipPath>
<clipPath id="ci_23"><path d="M-33.2,1318.9v-54.2H779.9v54.2Z"/></clipPath>
</defs>
<image clip-path="url(#c0_23)" preserveAspectRatio="none" x="-33" y="-33" width="271" height="216" xlink:href="img/1.jpg"/>
<image clip-path="url(#c1_23)" preserveAspectRatio="none" x="237" y="-33" width="272" height="216" xlink:href="img/2.jpg"/>
<image clip-path="url(#c2_23)" preserveAspectRatio="none" x="508" y="-33" width="272" height="216" xlink:href="img/3.jpg"/>
<image clip-path="url(#c3_23)" preserveAspectRatio="none" x="779" y="-33" width="163" height="378" xlink:href="img/4.jpg"/>
<image clip-path="url(#c4_23)" preserveAspectRatio="none" x="-33" y="182" width="271" height="217" xlink:href="img/5.jpg"/>
<image preserveAspectRatio="none" x="237" y="182" width="272" height="217" xlink:href="img/6.jpg"/>
<image clip-path="url(#c5_23)" preserveAspectRatio="none" x="508" y="182" width="272" height="217" xlink:href="img/7.jpg"/>
<image clip-path="url(#c6_23)" preserveAspectRatio="none" x="779" y="345" width="163" height="379" xlink:href="img/8.jpg"/>
<image clip-path="url(#c7_23)" preserveAspectRatio="none" x="-33" y="399" width="271" height="217" xlink:href="img/9.jpg"/>
<image preserveAspectRatio="none" x="237" y="399" width="272" height="217" xlink:href="img/10.jpg"/>
<image clip-path="url(#c8_23)" preserveAspectRatio="none" x="508" y="399" width="272" height="217" xlink:href="img/11.jpg"/>
<image clip-path="url(#c9_23)" preserveAspectRatio="none" x="-33" y="615" width="271" height="217" xlink:href="img/12.jpg"/>
<image clip-path="url(#ca_23)" preserveAspectRatio="none" x="237" y="615" width="272" height="217" xlink:href="img/13.jpg"/>
<image clip-path="url(#cb_23)" preserveAspectRatio="none" x="508" y="615" width="272" height="217" xlink:href="img/14.jpg"/>
<image clip-path="url(#cc_23)" preserveAspectRatio="none" x="779" y="724" width="163" height="379" xlink:href="img/15.jpg"/>
<image clip-path="url(#cd_23)" preserveAspectRatio="none" x="-33" y="832" width="271" height="217" xlink:href="img/16.jpg"/>
<image preserveAspectRatio="none" x="237" y="832" width="272" height="217" xlink:href="img/17.jpg"/>
<image clip-path="url(#ce_23)" preserveAspectRatio="none" x="508" y="832" width="272" height="217" xlink:href="img/18.jpg"/>
<image clip-path="url(#cf_23)" preserveAspectRatio="none" x="-33" y="1048" width="271" height="217" xlink:href="img/19.jpg"/>
<image preserveAspectRatio="none" x="237" y="1048" width="272" height="217" xlink:href="img/20.jpg"/>
<image clip-path="url(#cg_23)" preserveAspectRatio="none" x="508" y="1048" width="272" height="217" xlink:href="img/21.jpg"/>
<image clip-path="url(#ch_23)" preserveAspectRatio="none" x="779" y="1102" width="163" height="217" xlink:href="img/22.jpg"/>
<image clip-path="url(#ci_23)" preserveAspectRatio="none" x="-33" y="1265" width="813" height="54" xlink:href="img/23.jpg"/>
</svg>