<?xml version="1.0" encoding="UTF-8" standalone="no"?>
<!DOCTYPE svg PUBLIC "-//W3C//DTD SVG 1.1//EN"
"http://www.w3.org/Graphics/SVG/1.1/DTD/svg11.dtd">
<svg viewBox="0 0 908 1285" version="1.1" xmlns="http://www.w3.org/2000/svg" xmlns:xlink="http://www.w3.org/1999/xlink">
<defs>
<clipPath id="c0_44"><path d="M-33.7,291V-33.9H291.8V291Z"/></clipPath>
<clipPath id="c1_44"><path d="M291.1,291V-33.9H617.5V291Z"/></clipPath>
<clipPath id="c2_44"><path d="M616.8,291V-33.9H942.5V291Z"/></clipPath>
<clipPath id="c3_44"><path d="M-33.7,615.9V290.2H291.8V615.9Z"/></clipPath>
<clipPath id="c4_44"><path d="M616.8,615.9V290.2H942.5V615.9Z"/></clipPath>
<clipPath id="c5_44"><path d="M-33.7,940.9V615.2H291.8V940.9Z"/></clipPath>
<clipPath id="c6_44"><path d="M291.1,940.9V615.2H617.5V940.9Z"/></clipPath>
<clipPath id="c7_44"><path d="M616.8,940.9V615.2H942.5V940.9Z"/></clipPath>
<clipPath id="c8_44"><path d="M-33.7,1265.9V940.2H291.8v325.7Z"/></clipPath>
<clipPath id="c9_44"><path d="M291.1,1265.9V940.2H617.5v325.7Z"/></clipPath>
<clipPath id="ca_44"><path d="M616.8,1265.9V940.2H942.5v325.7Z"/></clipPath>
<clipPath id="cb_44"><path d="M-33.7,1319.4v-54.3H942.5v54.3Z"/></clipPath>
</defs>
<image clip-path="url(#c0_44)" preserveAspectRatio="none" x="-34" y="-34" width="326" height="325" xlink:href="img/1.webp"/>
<image clip-path="url(#c1_44)" preserveAspectRatio="none" x="291" y="-34" width="327" height="325" xlink:href="img/2.webp"/>
<image clip-path="url(#c2_44)" preserveAspectRatio="none" x="617" y="-34" width="326" height="325" xlink:href="img/3.webp"/>
<image clip-path="url(#c3_44)" preserveAspectRatio="none" x="-34" y="290" width="326" height="326" xlink:href="img/4.webp"/>
<image preserveAspectRatio="none" x="291" y="290" width="327" height="326" xlink:href="img/5.webp"/>
<image clip-path="url(#c4_44)" preserveAspectRatio="none" x="617" y="290" width="326" height="326" xlink:href="img/6.webp"/>
<image clip-path="url(#c5_44)" preserveAspectRatio="none" x="-34" y="615" width="326" height="326" xlink:href="img/7.webp"/>
<image clip-path="url(#c6_44)" preserveAspectRatio="none" x="291" y="615" width="327" height="326" xlink:href="img/8.webp"/>
<image clip-path="url(#c7_44)" preserveAspectRatio="none" x="617" y="615" width="326" height="326" xlink:href="img/9.webp"/>
<image clip-path="url(#c8_44)" preserveAspectRatio="none" x="-34" y="940" width="326" height="326" xlink:href="img/10.webp"/>
<image clip-path="url(#c9_44)" preserveAspectRatio="none" x="291" y="940" width="327" height="326" xlink:href="img/11.webp"/>
<image clip-path="url(#ca_44)" preserveAspectRatio="none" x="617" y="940" width="326" height="326" xlink:href="img/12.webp"/>
<image clip-path="url(#cb_44)" preserveAspectRatio="none" x="-34" y="1265" width="977" height="55" xlink:href="img/13.webp"/>
</svg>