<?xml version="1.0" encoding="UTF-8" standalone="no"?>
<!DOCTYPE svg PUBLIC "-//W3C//DTD SVG 1.1//EN"
"http://www.w3.org/Graphics/SVG/1.1/DTD/svg11.dtd">
<svg viewBox="0 0 909 1286" version="1.1" xmlns="http://www.w3.org/2000/svg" xmlns:xlink="http://www.w3.org/1999/xlink">
<defs>
<style type="text/css"><![CDATA[
.g0_13{
fill: none;
stroke: #FFFFFF;
stroke-width: 0.763;
stroke-linecap: butt;
stroke-linejoin: miter;
}
.g1_13{
fill: none;
stroke: #FFFFFF;
stroke-width: 0.916;
stroke-linecap: butt;
stroke-linejoin: miter;
stroke-miterlimit: 4;
}
.g2_13{
}
.g3_13{
fill: none;
stroke: #FFFFFF;
stroke-width: 1.24;
stroke-linecap: butt;
stroke-linejoin: miter;
stroke-miterlimit: 4;
}
.g4_13{
fill: none;
stroke: #FFFFFF;
stroke-width: 1.527;
stroke-linecap: butt;
stroke-linejoin: miter;
stroke-miterlimit: 4;
}
.g5_13{
fill: none;
stroke: #000000;
stroke-width: 0.916;
stroke-linecap: butt;
stroke-linejoin: miter;
stroke-miterlimit: 4;
}
]]></style>
</defs>
<image preserveAspectRatio="none" x="-1" y="-21" width="932" height="1329" xlink:href="../1/img/1.webp"/>
<image preserveAspectRatio="none" x="0" y="79" width="49" height="242" xlink:href="img/2.webp"/>
<image preserveAspectRatio="none" x="-165" y="110" width="167" height="201" xlink:href="img/3.webp"/>
<image preserveAspectRatio="none" x="0" y="996" width="69" height="101" xlink:href="img/4.webp"/>
<image preserveAspectRatio="none" x="0" y="446" width="944" height="460" xlink:href="img/5.webp"/>
<image preserveAspectRatio="none" x="29" y="437" width="882" height="99" xlink:href="img/6.webp"/>
<image preserveAspectRatio="none" x="25" y="812" width="886" height="437" xlink:href="img/7.webp"/>
<path d="M56.3,1013.5H93.2" class="g0_13"/>
<path d="M56.3,852.9H853.1M56.3,1044.2H853.1" class="g1_13"/>
<image preserveAspectRatio="none" x="564" y="1078" width="20" height="23" xlink:href="img/8.webp"/>
<path d="M56.3,1142.1H853.1" class="g1_13"/>
<path d="M704.1,223.4c6.7,0,12.1,-5.4,12.1,-12.1c0,-6.7,-5.4,-12.1,-12.1,-12.1c-6.7,0,-12.1,5.4,-12.1,12.1c0,6.7,5.4,12.1,12.1,12.1Z" class="g2_13"/>
<path d="M704.1,223.4c6.7,0,12.1,-5.4,12.1,-12.1c0,-6.7,-5.4,-12.1,-12.1,-12.1c-6.7,0,-12.1,5.4,-12.1,12.1c0,6.7,5.4,12.1,12.1,12.1Z" class="g3_13"/>
<path d="M577.5,392.8c6.7,0,12.1,-5.5,12.1,-12.2c0,-6.7,-5.4,-12.1,-12.1,-12.1c-6.7,0,-12.1,5.4,-12.1,12.1c0,6.7,5.4,12.2,12.1,12.2Z" class="g2_13"/>
<path d="M577.5,392.8c6.7,0,12.1,-5.5,12.1,-12.2c0,-6.7,-5.4,-12.1,-12.1,-12.1c-6.7,0,-12.1,5.4,-12.1,12.1c0,6.7,5.4,12.2,12.1,12.2Z" class="g3_13"/>
<image preserveAspectRatio="none" x="67" y="92" width="122" height="118" xlink:href="img/9.webp"/>
<image preserveAspectRatio="none" x="146" y="166" width="41" height="42" xlink:href="img/10.webp"/>
<path d="M89.2,184.5l-.4,.1c-1.3,1,-3.2,1.4,-5.8,1.4c-1.1,0,-1.8,0,-2,-.1l-.2,-.5c.1,-.2,.1,-.5,.1,-.8c0,-.3,-.2,-.5,-.5,-.5c-.2,0,-.4,.1,-.6,.4c-.1,.2,-.3,.4,-.5,.4c-.3,0,-.4,-.2,-.5,-.4c-.7,-2.1,-1,-3.5,-1,-4.2c0,-.4,.1,-.7,.2,-.9l.4,-.3c.2,.1,.4,.2,.5,.3l.4,.2l.4,-.2L80,179l.4,-.1l.5,.1c.2,1.1,.4,2.1,.6,3.1c.4,1.8,.7,2.7,1.1,2.7h.8c.7,0,1.2,-.1,1.4,-.1c.5,0,.8,-2,.8,-5.9c0,-.3,-.1,-.8,-.1,-1.4c-.1,-.6,-.2,-1,-.2,-1.3c0,-.1,0,-.2,.1,-.4v-.3l-.4,-.3c0,0,-.1,-.1,-.3,-.2c-.2,0,-.3,-.1,-.4,-.1l-.5,-.1c-1,.2,-1.8,.3,-2.5,.3l-.5,-.1l-.1,-.4l.2,-.5l.4,-.1c1.6,0,3.1,-.5,4.4,-1.4c.2,-.1,.3,-.8,.4,-2v-2.4c0,-3.3,-.2,-4.9,-.9,-4.9c-.8,-.1,-1.7,.1,-2.7,.3l-.4,.5c-.3,1.1,-.4,2.2,-.4,3.3c0,1.5,-.3,2.2,-.8,2.2c-.3,0,-.5,-.3,-.6,-1c-.2,-.6,-.4,-.9,-.8,-.9c-.2,0,-.4,.2,-.5,.8c0,.4,-.1,.8,-.1,1.1l-.2,.4l-.5,.1c-.4,-.1,-.7,-1.1,-.7,-3.1c0,-.4,0,-.9,.1,-1.5v-1.6l.1,-.4l.4,-.2c.6,.1,1,-.1,1.1,-.5c.1,-.5,.3,-.8,.6,-.8c.2,0,.4,.2,.5,.5c.2,.2,.4,.4,.6,.4c.1,0,.3,-.1,.5,-.3c.1,-.2,.3,-.2,.5,-.2c-.1,0,.1,0,.5,0c1,-.2,2.2,-.4,3.5,-.4c1.2,0,2.9,.2,5,.4c.4,0,.6,.3,.6,.7c0,.2,-.2,.4,-.6,.5c-.4,0,-.5,.2,-.5,.5v8.7c0,.4,-.2,.6,-.6,.6c-.3,0,-.5,-.2,-.6,-.5l-.3,-.3h-.4c-1.5,.7,-2.2,1.1,-2.2,1.4c-.1,.2,.4,.6,1.4,1.1c1.2,.6,1.8,1,2,1.1c.6,.6,1,2.2,1,4.8c0,.5,0,1.7,-.1,3.6l-.1,.4L90,185c-.3,0,-.4,-.1,-.5,-.2l-.3,-.3Z" class="g4_13"/>
<path d="M71.3,212.6c8.3,0,15,-6.7,15,-14.9c0,-8.3,-6.7,-15,-15,-15c-8.2,0,-14.9,6.7,-14.9,15c0,8.2,6.7,14.9,14.9,14.9Z" class="g2_13"/>
<path d="M71.3,212.6c8.3,0,15,-6.7,15,-14.9c0,-8.3,-6.7,-15,-15,-15c-8.2,0,-14.9,6.7,-14.9,15c0,8.2,6.7,14.9,14.9,14.9Z" class="g4_13"/>
<path d="M148.4,177.9c8.3,0,15,-6.7,15,-15c0,-8.2,-6.7,-14.9,-15,-14.9c-8.2,0,-14.9,6.7,-14.9,14.9c0,8.3,6.7,15,14.9,15Z" class="g2_13"/>
<path d="M148.4,177.9c8.3,0,15,-6.7,15,-15c0,-8.2,-6.7,-14.9,-15,-14.9c-8.2,0,-14.9,6.7,-14.9,14.9c0,8.3,6.7,15,14.9,15Z" class="g4_13"/>
<path d="M56.3,75.2H853.1" class="g5_13"/>
<path d="M56.3,480.1H853.1" class="g1_13"/>
</svg>