<?xml version="1.0" standalone="no"?>
<!DOCTYPE svg PUBLIC "-//W3C//DTD SVG 1.1//EN" "http://www.w3.org/Graphics/SVG/1.1/DTD/svg11.dtd" >
<svg xmlns="http://www.w3.org/2000/svg" xmlns:xlink="http://www.w3.org/1999/xlink" version="1.1">
<metadata>
Created by FontForge 20161013 at Thu Dec  7 22:12:21 2006
 By ,,,
Typeface (c) Dragonfang - 2006. All Rights Reserved
</metadata>
<defs>
<font id="Crom" horiz-adv-x="1139" >
  <font-face 
    font-family="Crom"
    font-weight="400"
    font-stretch="normal"
    units-per-em="2048"
    panose-1="2 0 0 0 0 0 0 0 0 0"
    ascent="1638"
    descent="-410"
    x-height="982"
    cap-height="1028"
    bbox="0 -359 2228 1312"
    underline-thickness="150"
    underline-position="-442"
    unicode-range="U+0020-F005"
  />
<missing-glyph horiz-adv-x="1536" 
d="M256 0v1280h1024v-1280h-1024zM288 32h960v1216h-960v-1216z" />
    <glyph glyph-name=".notdef" horiz-adv-x="1536" 
d="M256 0v1280h1024v-1280h-1024zM288 32h960v1216h-960v-1216z" />
    <glyph glyph-name=".null" horiz-adv-x="0" 
 />
    <glyph glyph-name="nonmarkingreturn" horiz-adv-x="569" 
 />
    <glyph glyph-name="space" unicode=" " horiz-adv-x="569" 
 />
    <glyph glyph-name="space" unicode="&#xa0;" horiz-adv-x="569" 
 />
    <glyph glyph-name="exclam" unicode="!" horiz-adv-x="569" 
 />
    <glyph glyph-name="quotedbl" unicode="&#x22;" horiz-adv-x="727" 
 />
    <glyph glyph-name="numbersign" unicode="#" 
 />
    <glyph glyph-name="dollar" unicode="$" 
 />
    <glyph glyph-name="percent" unicode="%" horiz-adv-x="1821" 
 />
    <glyph glyph-name="ampersand" unicode="&#x26;" horiz-adv-x="1366" 
 />
    <glyph glyph-name="quotesingle" unicode="'" horiz-adv-x="391" 
 />
    <glyph glyph-name="parenleft" unicode="(" horiz-adv-x="682" 
 />
    <glyph glyph-name="parenright" unicode=")" horiz-adv-x="682" 
 />
    <glyph glyph-name="asterisk" unicode="*" horiz-adv-x="797" 
 />
    <glyph glyph-name="plus" unicode="+" horiz-adv-x="1196" 
 />
    <glyph glyph-name="comma" unicode="," horiz-adv-x="569" 
 />
    <glyph glyph-name="hyphen" unicode="-" horiz-adv-x="682" 
 />
    <glyph glyph-name="hyphen" unicode="&#xad;" horiz-adv-x="682" 
 />
    <glyph glyph-name="period" unicode="." horiz-adv-x="569" 
 />
    <glyph glyph-name="slash" unicode="/" horiz-adv-x="569" 
 />
    <glyph glyph-name="zero" unicode="0" horiz-adv-x="1596" 
d="M720 1042q158 -4 412 -108q304 -161 304 -404v-44q0 -311 -480 -468q-180 -48 -240 -48q-101 0 -388 108q-328 167 -328 408v44q0 245 448 436q228 76 272 76zM392 506q0 -138 244 -228l96 -16q231 0 332 180q12 41 12 76q0 153 -232 228q-55 12 -100 12h-12
q-163 0 -304 -148q-36 -52 -36 -104z" />
    <glyph glyph-name="one" unicode="1" horiz-adv-x="449" 
d="M318 1086l4 -4l-9 -1040q0 -8 -309 -42l-4 4v4q21 302 21 512v25l5 50l-5 51v46q0 160 -21 356z" />
    <glyph glyph-name="two" unicode="2" horiz-adv-x="1004" 
d="M459 1055h67q202 0 326 -203q17 -45 17 -74v-37q0 -186 -319 -493h311l8 -8v-232l-8 -8h-654l-170 207q168 92 414 314q153 149 153 224q0 41 -87 50h-4q-128 0 -401 -120l-112 223q270 157 459 157z" />
    <glyph glyph-name="three" unicode="3" horiz-adv-x="1079" 
d="M17 1199h739q26 -23 112 -187v-5l-179 -138v-4q232 -91 232 -325q0 -327 -499 -592h-9l-124 249q343 192 343 338q0 72 -67 72h-40q-111 0 -379 -89l-98 231l232 178h-263l-9 9v254z" />
    <glyph glyph-name="four" unicode="4" 
d="M321 1079q231 -98 248 -117l-208 -569h5q189 22 189 31l9 231l14 9h257l9 -9v-204l149 28q11 0 23 -298h-5l-153 -18v-154l-9 -9h-271l-9 9v131l-357 -50l-212 176q289 760 316 813h5z" />
    <glyph glyph-name="five" unicode="5" horiz-adv-x="1116" 
d="M942 1189l9 -9v-243l-9 -9h-542l-34 -89h4q70 21 179 30q222 0 351 -184q34 -80 34 -145v-39q0 -215 -333 -503l-52 -39h-4l-171 188v4q295 231 295 367q0 90 -132 90q-117 0 -334 -94l-196 128q184 489 214 547h721z" />
    <glyph glyph-name="six" unicode="6" horiz-adv-x="1356" 
d="M847 1243q99 -197 99 -242q-230 -125 -283 -161q138 0 363 -121q193 -149 193 -292v-31q0 -201 -461 -390q-119 -36 -162 -36h-4q-188 12 -462 206q-130 122 -130 215v50q0 329 569 663q133 79 278 139zM332 400q0 -119 210 -188q20 -9 72 -9q209 0 274 175v27
q0 147 -225 202h-71q-113 0 -229 -117q-31 -43 -31 -90z" />
    <glyph glyph-name="seven" unicode="7" horiz-adv-x="1034" 
d="M16 1044h774q11 -5 86 -197l-356 -384q-123 -195 -123 -459l-4 -4h-237l-9 8q0 152 74 430q43 101 242 344h-455l-8 8q0 254 16 254z" />
    <glyph glyph-name="eight" unicode="8" horiz-adv-x="1318" 
d="M562 1206h43q246 0 398 -203q34 -73 34 -125v-13q0 -81 -60 -165q177 -132 177 -285v-39q0 -208 -290 -350q-146 -56 -285 -56q-250 0 -475 199q-104 111 -104 212v26q0 140 199 289q-82 78 -82 173v9q0 170 302 302q92 26 143 26zM402 891q0 -46 52 -87q60 13 108 13h43
q53 0 130 -13q43 46 43 87q0 112 -186 138q-190 -38 -190 -138zM575 532l-130 17q-121 -70 -121 -142v-26q0 -103 208 -178l47 -4h26q189 0 255 160l4 39q0 92 -116 160q-85 -26 -173 -26z" />
    <glyph glyph-name="nine" unicode="9" horiz-adv-x="1296" 
d="M572 1228h31q190 0 434 -194q138 -126 138 -246v-27q0 -422 -838 -801q-98 184 -98 233v9l280 150v4q-170 0 -373 141q-146 130 -146 264v40q0 179 328 361q151 66 244 66zM297 788v-13q0 -141 226 -190l44 -4q123 0 240 110q40 48 40 92q0 130 -231 194l-49 4
q-178 0 -257 -136q-13 -22 -13 -57z" />
    <glyph glyph-name="colon" unicode=":" horiz-adv-x="569" 
 />
    <glyph glyph-name="semicolon" unicode=";" horiz-adv-x="569" 
 />
    <glyph glyph-name="semicolon" unicode="&#x37e;" horiz-adv-x="569" 
 />
    <glyph glyph-name="less" unicode="&#x3c;" horiz-adv-x="1196" 
 />
    <glyph glyph-name="equal" unicode="=" horiz-adv-x="1196" 
 />
    <glyph glyph-name="greater" unicode="&#x3e;" horiz-adv-x="1196" 
 />
    <glyph glyph-name="question" unicode="?" 
 />
    <glyph glyph-name="at" unicode="@" horiz-adv-x="2079" 
 />
    <glyph glyph-name="A" unicode="A" horiz-adv-x="1603" 
d="M756 1232q187 -363 744 -1100v-12l-316 -140q-7 1 -108 168h-664q-133 -168 -140 -168q-253 152 -272 172q159 143 228 264q135 191 312 520v8l-104 164q22 18 320 124zM728 660q-50 -98 -168 -260h340q-37 80 -172 260z" />
    <glyph glyph-name="B" unicode="B" horiz-adv-x="1461" 
d="M424 1020h204q320 0 532 -160q64 -62 64 -132q0 -76 -88 -184q220 -90 220 -248q0 -190 -288 -296q-107 -40 -320 -40q-237 0 -748 40v4q36 206 36 440v96q0 207 -24 456q185 24 412 24zM388 756l-12 -544h356q152 0 180 100v4q0 33 -32 80q-57 -16 -112 -16h-72
q-23 0 -84 88l-76 84v8l28 -4h12q185 0 252 84l8 24q0 81 -264 104z" />
    <glyph glyph-name="C" unicode="C" horiz-adv-x="1348" 
d="M244 1050h1004l4 -4h4l-136 -292h-676q-80 -105 -80 -188v-24q0 -215 568 -256l252 -8v-4q-122 -115 -252 -284l-28 -20q-144 0 -504 100q-147 53 -256 132q-144 131 -144 264v52q0 177 244 532z" />
    <glyph glyph-name="D" unicode="D" horiz-adv-x="1798" 
d="M456 1200q92 0 564 -124q676 -213 676 -524q0 -241 -620 -500q-254 -92 -280 -92q-347 147 -656 372q-140 122 -140 188v16q0 145 368 308h72q165 0 276 -108v-8q-264 -97 -264 -200v-8q0 -141 364 -276h12q146 0 336 192q48 75 48 128q0 136 -452 336q-235 88 -544 152
l-80 12v8z" />
    <glyph glyph-name="E" unicode="E" horiz-adv-x="1521" 
d="M256 1026h1004l8 -8q-123 -285 -136 -300h-692l-48 -88v-4h472l8 -8v-200l-8 -8h-456v-4q112 -152 576 -152q206 0 428 28l4 -4q-87 -187 -160 -308q-317 0 -764 80q-492 121 -492 388v44q0 202 256 544z" />
    <glyph glyph-name="F" unicode="F" horiz-adv-x="1199" 
d="M8 1028l620 -16l488 16l4 -4q-60 -148 -136 -280h-568v-196h416l8 -8v-212l-8 -8h-432v-527q-15 -15 -372 -152l-4 4q36 386 36 727q0 407 -60 652l4 4h4z" />
    <glyph glyph-name="G" unicode="G" horiz-adv-x="2030" 
d="M1060 1018h96q251 0 472 -88l-64 -144q-290 52 -496 52q-436 0 -572 -208l-12 -44v-20q0 -132 284 -316q127 -76 244 -76q283 0 412 140q28 37 28 92q0 82 -100 116q-64 20 -136 20q-132 0 -392 -64l-64 116q59 36 320 96q86 16 140 16h4q248 0 576 -136
q120 -66 120 -124v-20q0 -219 -548 -392q-252 -64 -364 -64q-305 23 -728 260q-280 185 -280 308v36q0 104 244 244q410 200 816 200z" />
    <glyph glyph-name="H" unicode="H" horiz-adv-x="1543" 
d="M424 1026l4 -4l-40 -396h664l-28 344l400 44l4 -4q-12 -110 -16 -404q4 -354 16 -592q-288 -44 -400 -44l-4 4q24 94 24 232l-8 192l-640 -12v-152q0 -127 16 -220l-12 -4l-388 -24h-8l-4 4h-4q44 216 44 556q0 282 -44 424q97 24 424 56z" />
    <glyph glyph-name="I" unicode="I" horiz-adv-x="509" 
d="M372 1028l4 -4v-976q0 -14 -276 -36l-96 -12l-4 4v4q16 347 16 580q0 182 -16 384q0 9 312 52z" />
    <glyph glyph-name="J" unicode="J" horiz-adv-x="652" 
d="M492 1042l4 -4v-4q24 -355 24 -548v-180q0 -318 -88 -396q-115 -127 -428 -212l-4 4v48q136 107 136 284q24 179 24 424v88q0 246 -40 444h4z" />
    <glyph glyph-name="K" unicode="K" horiz-adv-x="1341" 
d="M400 1312l8 -64l8 -572l4 -52q257 91 548 252l28 20h8q119 -113 200 -224l-448 -216l472 -384q-251 -132 -268 -132l-516 424l-52 -24l12 -320q-166 -28 -400 -44l-4 4v4q32 179 32 612v308l-4 248z" />
    <glyph glyph-name="L" unicode="L" horiz-adv-x="959" 
d="M412 1304l4 -4q-16 -402 -16 -776v-284l436 -12l4 -4v-4q-111 -236 -124 -236l-188 8l-488 -12h-32l-8 8q48 223 48 608q0 260 -24 548z" />
    <glyph glyph-name="M" unicode="M" horiz-adv-x="2307" 
d="M508 1078q52 -148 316 -432q181 -181 296 -272q556 516 620 676q2 16 12 16q281 -60 344 -84l-4 -88v-108q0 -466 68 -732q-79 -27 -344 -84q-8 12 -84 596l-612 -580l-612 568l-108 -584h-4q-396 46 -396 60q148 435 148 844v68l-4 40z" />
    <glyph glyph-name="N" unicode="N" horiz-adv-x="1543" 
d="M332 1022l640 -556v4q31 466 84 540l340 -132l4 -4v-4q-108 -267 -108 -768l4 -64q-220 -108 -232 -108l-688 568l-12 -476l-360 -56l-4 4v4q32 158 32 348v108q0 201 -32 524q13 8 332 68z" />
    <glyph glyph-name="O" unicode="O" horiz-adv-x="1558" 
d="M720 1032q158 -4 412 -108q304 -161 304 -404v-44q0 -311 -480 -468q-180 -48 -240 -48q-101 0 -388 108q-328 167 -328 408v44q0 245 448 436q228 76 272 76zM392 496q0 -138 244 -228l96 -16q231 0 332 180q12 41 12 76q0 153 -232 228q-55 12 -100 12h-12
q-163 0 -304 -148q-36 -52 -36 -104z" />
    <glyph glyph-name="P" unicode="P" horiz-adv-x="1348" 
d="M596 1036h68q357 0 508 -164q44 -61 44 -132q0 -316 -376 -364l-216 -8h-88q-18 13 -120 168v8q351 28 392 84q44 22 44 64q0 59 -144 84l-112 8h-12q-160 0 -208 -36l-4 -448v-4q0 -216 16 -312l-4 -4l-380 12l-4 4v4q32 136 32 332v96q0 216 -32 568l4 4h4
q509 36 588 36z" />
    <glyph glyph-name="Q" unicode="Q" horiz-adv-x="1593" 
d="M704 1026h52q322 0 564 -232q120 -139 120 -276v-36q0 -171 -176 -332q167 -128 268 -128q0 -26 -36 -44q-81 0 -348 96q-199 -104 -428 -104q-309 0 -596 252q-124 144 -124 256v40q0 199 308 388q223 120 396 120zM400 502q0 -148 244 -236l76 -12h52l40 4
q-106 85 -136 120l248 152h4l104 -152q44 48 44 108v28q0 138 -212 216q-66 16 -124 16q-158 0 -296 -140q-44 -59 -44 -104z" />
    <glyph glyph-name="R" unicode="R" horiz-adv-x="1408" 
d="M440 1029h96q446 0 624 -176q40 -55 40 -104v-32q0 -175 -316 -320l-52 -20v-4q380 -466 688 -604h8v-8q-206 -24 -480 -40q-156 124 -352 332q-240 294 -256 452v4l4 4h28q254 0 344 144l8 48v12q0 72 -152 72q-122 0 -296 -44q-20 -169 -20 -392v-56q0 -202 20 -304
l-4 -4h-364l-8 8q40 171 40 416q0 236 -40 576q222 40 440 40z" />
    <glyph glyph-name="S" unicode="S" horiz-adv-x="1341" 
d="M408 1020h96q379 0 704 -12v-4l-204 -280q-261 40 -408 40q-168 -8 -168 -44v-4q0 -68 280 -88q194 -28 320 -80q188 -94 188 -292q0 -186 -208 -256q-63 -20 -112 -20l-880 12v8q140 220 200 300h4q213 -56 400 -56q192 8 192 40v4q0 73 -368 104q-444 69 -444 312v40
q0 153 256 248q96 28 152 28z" />
    <glyph glyph-name="T" unicode="T" horiz-adv-x="1648" 
d="M216 1088h1340v-4q-204 -220 -280 -292h-488q-140 -145 -140 -264v-16q0 -185 304 -244l124 -8h64q78 0 192 16v-4q-95 -151 -200 -292h-132q-327 0 -588 164q-172 137 -172 288v44q0 135 128 328h-360l-4 4h-4q191 259 216 280z" />
    <glyph glyph-name="U" unicode="U" horiz-adv-x="1303" 
d="M24 1018l300 -12l4 -4q-12 -123 -12 -212v-28q0 -394 504 -488q16 76 16 216l-16 520l-4 4l4 4h328l8 -8v-1012l-8 -8h-308l-8 8v124l-160 -132q-56 0 -248 80q-102 48 -220 160q-204 224 -204 512v96q7 180 24 180z" />
    <glyph glyph-name="V" unicode="V" horiz-adv-x="1551" 
d="M352 1078q15 -19 84 -208q190 -405 288 -432q129 169 432 624l4 4h4q36 -18 272 -268v-8q-153 -226 -528 -628q-98 -109 -196 -192q-23 0 -216 176q-292 307 -360 456q-72 110 -136 260q206 134 352 216z" />
    <glyph glyph-name="W" unicode="W" horiz-adv-x="2360" 
d="M408 982l4 -12q0 -270 168 -628h4q260 142 352 432l32 140h28l260 4q57 -191 136 -324q146 -224 248 -252h4q76 0 164 432q12 57 12 136v68h4q31 0 400 -88l4 -4v-4q-30 -328 -368 -892h-4q-191 0 -420 172q-136 126 -276 292l-44 40q-235 -272 -356 -340
q-222 -152 -372 -152h-4q-262 313 -384 888q13 12 408 92z" />
    <glyph glyph-name="X" unicode="X" horiz-adv-x="1423" 
d="M272 1222q320 -332 364 -416h8q0 14 144 144q139 119 276 224h4q106 -89 224 -212q-155 -111 -444 -368h-4v-4l396 -376l-224 -224h-4l-372 380q-108 -116 -332 -380q-94 36 -308 172v4l424 408q-78 127 -384 388z" />
    <glyph glyph-name="Y" unicode="Y" horiz-adv-x="1366" 
d="M348 1290q10 0 84 -200q97 -231 204 -336l4 -4h4q298 442 332 476q292 -154 292 -160q-223 -265 -428 -588q-360 -575 -360 -628l-16 -20q-131 56 -332 108v4q304 488 304 508q-113 129 -272 360q-96 140 -164 256q15 19 256 172z" />
    <glyph glyph-name="Z" unicode="Z" horiz-adv-x="1191" 
d="M12 1044l4 4h4q146 -12 316 -12h172l472 12l68 -268q-355 -185 -544 -492h4l156 8q132 0 404 -52v-4q-80 -238 -108 -300h-4q-207 64 -472 64h-104q-130 0 -288 -24l-92 172l540 612h-496q-16 0 -24 204q-5 0 -8 76z" />
    <glyph glyph-name="bracketleft" unicode="[" horiz-adv-x="569" 
 />
    <glyph glyph-name="backslash" unicode="\" horiz-adv-x="569" 
 />
    <glyph glyph-name="bracketright" unicode="]" horiz-adv-x="569" 
 />
    <glyph glyph-name="asciicircum" unicode="^" horiz-adv-x="961" 
 />
    <glyph glyph-name="underscore" unicode="_" 
 />
    <glyph glyph-name="grave" unicode="`" horiz-adv-x="682" 
 />
    <glyph glyph-name="a" unicode="a" horiz-adv-x="1603" 
d="M756 1232q187 -363 744 -1100v-12l-316 -140q-7 1 -108 168h-664q-133 -168 -140 -168q-253 152 -272 172q159 143 228 264q135 191 312 520v8l-104 164q22 18 320 124zM728 660q-50 -98 -168 -260h340q-37 80 -172 260z" />
    <glyph glyph-name="b" unicode="b" horiz-adv-x="1461" 
d="M424 1020h204q320 0 532 -160q64 -62 64 -132q0 -76 -88 -184q220 -90 220 -248q0 -190 -288 -296q-107 -40 -320 -40q-237 0 -748 40v4q36 206 36 440v96q0 207 -24 456q185 24 412 24zM388 756l-12 -544h356q152 0 180 100v4q0 33 -32 80q-57 -16 -112 -16h-72
q-23 0 -84 88l-76 84v8l28 -4h12q185 0 252 84l8 24q0 81 -264 104z" />
    <glyph glyph-name="c" unicode="c" horiz-adv-x="1348" 
d="M244 1050h1004l4 -4h4l-136 -292h-676q-80 -105 -80 -188v-24q0 -215 568 -256l252 -8v-4q-122 -115 -252 -284l-28 -20q-144 0 -504 100q-147 53 -256 132q-144 131 -144 264v52q0 177 244 532z" />
    <glyph glyph-name="d" unicode="d" horiz-adv-x="1798" 
d="M456 1200q92 0 564 -124q676 -213 676 -524q0 -241 -620 -500q-254 -92 -280 -92q-347 147 -656 372q-140 122 -140 188v16q0 145 368 308h72q165 0 276 -108v-8q-264 -97 -264 -200v-8q0 -141 364 -276h12q146 0 336 192q48 75 48 128q0 136 -452 336q-235 88 -544 152
l-80 12v8z" />
    <glyph glyph-name="e" unicode="e" horiz-adv-x="1521" 
d="M256 1026h1004l8 -8q-123 -285 -136 -300h-692l-48 -88v-4h472l8 -8v-200l-8 -8h-456v-4q112 -152 576 -152q206 0 428 28l4 -4q-87 -187 -160 -308q-317 0 -764 80q-492 121 -492 388v44q0 202 256 544z" />
    <glyph glyph-name="f" unicode="f" horiz-adv-x="1199" 
d="M8 1028l620 -16l488 16l4 -4q-60 -148 -136 -280h-568v-196h416l8 -8v-212l-8 -8h-432v-527q-15 -15 -372 -152l-4 4q36 386 36 727q0 407 -60 652l4 4h4z" />
    <glyph glyph-name="g" unicode="g" horiz-adv-x="2030" 
d="M1060 1018h96q251 0 472 -88l-64 -144q-290 52 -496 52q-436 0 -572 -208l-12 -44v-20q0 -132 284 -316q127 -76 244 -76q283 0 412 140q28 37 28 92q0 82 -100 116q-64 20 -136 20q-132 0 -392 -64l-64 116q59 36 320 96q86 16 140 16h4q248 0 576 -136
q120 -66 120 -124v-20q0 -219 -548 -392q-252 -64 -364 -64q-305 23 -728 260q-280 185 -280 308v36q0 104 244 244q410 200 816 200z" />
    <glyph glyph-name="h" unicode="h" horiz-adv-x="1543" 
d="M424 1026l4 -4l-40 -396h664l-28 344l400 44l4 -4q-12 -110 -16 -404q4 -354 16 -592q-288 -44 -400 -44l-4 4q24 94 24 232l-8 192l-640 -12v-152q0 -127 16 -220l-12 -4l-388 -24h-8l-4 4h-4q44 216 44 556q0 282 -44 424q97 24 424 56z" />
    <glyph glyph-name="i" unicode="i" horiz-adv-x="509" 
d="M372 1028l4 -4v-976q0 -14 -276 -36l-96 -12l-4 4v4q16 347 16 580q0 182 -16 384q0 9 312 52z" />
    <glyph glyph-name="j" unicode="j" horiz-adv-x="652" 
d="M492 1042l4 -4v-4q24 -355 24 -548v-180q0 -318 -88 -396q-115 -127 -428 -212l-4 4v48q136 107 136 284q24 179 24 424v88q0 246 -40 444h4z" />
    <glyph glyph-name="k" unicode="k" horiz-adv-x="1341" 
d="M400 1312l8 -64l8 -572l4 -52q257 91 548 252l28 20h8q119 -113 200 -224l-448 -216l472 -384q-251 -132 -268 -132l-516 424l-52 -24l12 -320q-166 -28 -400 -44l-4 4v4q32 179 32 612v308l-4 248z" />
    <glyph glyph-name="l" unicode="l" horiz-adv-x="959" 
d="M412 1304l4 -4q-16 -402 -16 -776v-284l436 -12l4 -4v-4q-111 -236 -124 -236l-188 8l-488 -12h-32l-8 8q48 223 48 608q0 260 -24 548z" />
    <glyph glyph-name="m" unicode="m" horiz-adv-x="2307" 
d="M508 1078q52 -148 316 -432q181 -181 296 -272q556 516 620 676q2 16 12 16q281 -60 344 -84l-4 -88v-108q0 -466 68 -732q-79 -27 -344 -84q-8 12 -84 596l-612 -580l-612 568l-108 -584h-4q-396 46 -396 60q148 435 148 844v68l-4 40z" />
    <glyph glyph-name="n" unicode="n" horiz-adv-x="1543" 
d="M332 1022l640 -556v4q31 466 84 540l340 -132l4 -4v-4q-108 -267 -108 -768l4 -64q-220 -108 -232 -108l-688 568l-12 -476l-360 -56l-4 4v4q32 158 32 348v108q0 201 -32 524q13 8 332 68z" />
    <glyph glyph-name="o" unicode="o" horiz-adv-x="1558" 
d="M720 1032q158 -4 412 -108q304 -161 304 -404v-44q0 -311 -480 -468q-180 -48 -240 -48q-101 0 -388 108q-328 167 -328 408v44q0 245 448 436q228 76 272 76zM392 496q0 -138 244 -228l96 -16q231 0 332 180q12 41 12 76q0 153 -232 228q-55 12 -100 12h-12
q-163 0 -304 -148q-36 -52 -36 -104z" />
    <glyph glyph-name="p" unicode="p" horiz-adv-x="1348" 
d="M596 1036h68q357 0 508 -164q44 -61 44 -132q0 -316 -376 -364l-216 -8h-88q-18 13 -120 168v8q351 28 392 84q44 22 44 64q0 59 -144 84l-112 8h-12q-160 0 -208 -36l-4 -448v-4q0 -216 16 -312l-4 -4l-380 12l-4 4v4q32 136 32 332v96q0 216 -32 568l4 4h4
q509 36 588 36z" />
    <glyph glyph-name="q" unicode="q" horiz-adv-x="1593" 
d="M704 1026h52q322 0 564 -232q120 -139 120 -276v-36q0 -171 -176 -332q167 -128 268 -128q0 -26 -36 -44q-81 0 -348 96q-199 -104 -428 -104q-309 0 -596 252q-124 144 -124 256v40q0 199 308 388q223 120 396 120zM400 502q0 -148 244 -236l76 -12h52l40 4
q-106 85 -136 120l248 152h4l104 -152q44 48 44 108v28q0 138 -212 216q-66 16 -124 16q-158 0 -296 -140q-44 -59 -44 -104z" />
    <glyph glyph-name="r" unicode="r" horiz-adv-x="1408" 
d="M440 1029h96q446 0 624 -176q40 -55 40 -104v-32q0 -175 -316 -320l-52 -20v-4q380 -466 688 -604h8v-8q-206 -24 -480 -40q-156 124 -352 332q-240 294 -256 452v4l4 4h28q254 0 344 144l8 48v12q0 72 -152 72q-122 0 -296 -44q-20 -169 -20 -392v-56q0 -202 20 -304
l-4 -4h-364l-8 8q40 171 40 416q0 236 -40 576q222 40 440 40z" />
    <glyph glyph-name="s" unicode="s" horiz-adv-x="1341" 
d="M408 1020h96q379 0 704 -12v-4l-204 -280q-261 40 -408 40q-168 -8 -168 -44v-4q0 -68 280 -88q194 -28 320 -80q188 -94 188 -292q0 -186 -208 -256q-63 -20 -112 -20l-880 12v8q140 220 200 300h4q213 -56 400 -56q192 8 192 40v4q0 73 -368 104q-444 69 -444 312v40
q0 153 256 248q96 28 152 28z" />
    <glyph glyph-name="t" unicode="t" horiz-adv-x="1648" 
d="M216 1088h1340v-4q-204 -220 -280 -292h-488q-140 -145 -140 -264v-16q0 -185 304 -244l124 -8h64q78 0 192 16v-4q-95 -151 -200 -292h-132q-327 0 -588 164q-172 137 -172 288v44q0 135 128 328h-360l-4 4h-4q191 259 216 280z" />
    <glyph glyph-name="u" unicode="u" horiz-adv-x="1303" 
d="M24 1018l300 -12l4 -4q-12 -123 -12 -212v-28q0 -394 504 -488q16 76 16 216l-16 520l-4 4l4 4h328l8 -8v-1012l-8 -8h-308l-8 8v124l-160 -132q-56 0 -248 80q-102 48 -220 160q-204 224 -204 512v96q7 180 24 180z" />
    <glyph glyph-name="v" unicode="v" horiz-adv-x="1551" 
d="M352 1078q15 -19 84 -208q190 -405 288 -432q129 169 432 624l4 4h4q36 -18 272 -268v-8q-153 -226 -528 -628q-98 -109 -196 -192q-23 0 -216 176q-292 307 -360 456q-72 110 -136 260q206 134 352 216z" />
    <glyph glyph-name="w" unicode="w" horiz-adv-x="2360" 
d="M408 982l4 -12q0 -270 168 -628h4q260 142 352 432l32 140h28l260 4q57 -191 136 -324q146 -224 248 -252h4q76 0 164 432q12 57 12 136v68h4q31 0 400 -88l4 -4v-4q-30 -328 -368 -892h-4q-191 0 -420 172q-136 126 -276 292l-44 40q-235 -272 -356 -340
q-222 -152 -372 -152h-4q-262 313 -384 888q13 12 408 92z" />
    <glyph glyph-name="x" unicode="x" horiz-adv-x="1423" 
d="M272 1222q320 -332 364 -416h8q0 14 144 144q139 119 276 224h4q106 -89 224 -212q-155 -111 -444 -368h-4v-4l396 -376l-224 -224h-4l-372 380q-108 -116 -332 -380q-94 36 -308 172v4l424 408q-78 127 -384 388z" />
    <glyph glyph-name="y" unicode="y" horiz-adv-x="1366" 
d="M348 1290q10 0 84 -200q97 -231 204 -336l4 -4h4q298 442 332 476q292 -154 292 -160q-223 -265 -428 -588q-360 -575 -360 -628l-16 -20q-131 56 -332 108v4q304 488 304 508q-113 129 -272 360q-96 140 -164 256q15 19 256 172z" />
    <glyph glyph-name="z" unicode="z" horiz-adv-x="1191" 
d="M12 1044l4 4h4q146 -12 316 -12h172l472 12l68 -268q-355 -185 -544 -492h4l156 8q132 0 404 -52v-4q-80 -238 -108 -300h-4q-207 64 -472 64h-104q-130 0 -288 -24l-92 172l540 612h-496q-16 0 -24 204q-5 0 -8 76z" />
    <glyph glyph-name="braceleft" unicode="{" horiz-adv-x="684" 
 />
    <glyph glyph-name="bar" unicode="|" horiz-adv-x="532" 
 />
    <glyph glyph-name="braceright" unicode="}" horiz-adv-x="684" 
 />
    <glyph glyph-name="asciitilde" unicode="~" horiz-adv-x="1196" 
 />
    <glyph glyph-name="exclamdown" unicode="&#xa1;" horiz-adv-x="682" 
 />
    <glyph glyph-name="cent" unicode="&#xa2;" 
 />
    <glyph glyph-name="sterling" unicode="&#xa3;" 
 />
    <glyph glyph-name="currency" unicode="&#xa4;" 
 />
    <glyph glyph-name="yen" unicode="&#xa5;" 
 />
    <glyph glyph-name="brokenbar" unicode="&#xa6;" horiz-adv-x="532" 
 />
    <glyph glyph-name="section" unicode="&#xa7;" 
 />
    <glyph glyph-name="dieresis" unicode="&#xa8;" horiz-adv-x="682" 
 />
    <glyph glyph-name="copyright" unicode="&#xa9;" horiz-adv-x="1509" 
 />
    <glyph glyph-name="ordfeminine" unicode="&#xaa;" horiz-adv-x="758" 
 />
    <glyph glyph-name="guillemotleft" unicode="&#xab;" 
 />
    <glyph glyph-name="logicalnot" unicode="&#xac;" horiz-adv-x="1196" 
 />
    <glyph glyph-name="registered" unicode="&#xae;" horiz-adv-x="1509" 
 />
    <glyph glyph-name="macron" unicode="&#xaf;" horiz-adv-x="1131" 
 />
    <glyph glyph-name="degree" unicode="&#xb0;" horiz-adv-x="819" 
 />
    <glyph glyph-name="plusminus" unicode="&#xb1;" horiz-adv-x="1124" 
 />
    <glyph glyph-name="uni00B2" unicode="&#xb2;" horiz-adv-x="682" 
 />
    <glyph glyph-name="uni00B3" unicode="&#xb3;" horiz-adv-x="682" 
 />
    <glyph glyph-name="acute" unicode="&#xb4;" horiz-adv-x="682" 
 />
    <glyph glyph-name="mu" unicode="&#xb5;" horiz-adv-x="1180" 
 />
    <glyph glyph-name="paragraph" unicode="&#xb6;" horiz-adv-x="1100" 
 />
    <glyph glyph-name="periodcentered" unicode="&#xb7;" horiz-adv-x="569" 
 />
    <glyph glyph-name="periodcentered" unicode="&#x2219;" horiz-adv-x="569" 
 />
    <glyph glyph-name="cedilla" unicode="&#xb8;" horiz-adv-x="682" 
 />
    <glyph glyph-name="uni00B9" unicode="&#xb9;" horiz-adv-x="682" 
 />
    <glyph glyph-name="ordmasculine" unicode="&#xba;" horiz-adv-x="748" 
 />
    <glyph glyph-name="guillemotright" unicode="&#xbb;" 
 />
    <glyph glyph-name="onequarter" unicode="&#xbc;" horiz-adv-x="1708" 
 />
    <glyph glyph-name="onehalf" unicode="&#xbd;" horiz-adv-x="1708" 
 />
    <glyph glyph-name="threequarters" unicode="&#xbe;" horiz-adv-x="1708" 
 />
    <glyph glyph-name="questiondown" unicode="&#xbf;" horiz-adv-x="1251" 
 />
    <glyph glyph-name="Agrave" unicode="&#xc0;" horiz-adv-x="1366" 
 />
    <glyph glyph-name="Aacute" unicode="&#xc1;" horiz-adv-x="1366" 
 />
    <glyph glyph-name="Acircumflex" unicode="&#xc2;" horiz-adv-x="1366" 
 />
    <glyph glyph-name="Atilde" unicode="&#xc3;" horiz-adv-x="1366" 
 />
    <glyph glyph-name="Adieresis" unicode="&#xc4;" horiz-adv-x="1366" 
 />
    <glyph glyph-name="Aring" unicode="&#xc5;" horiz-adv-x="1366" 
 />
    <glyph glyph-name="AE" unicode="&#xc6;" horiz-adv-x="2048" 
 />
    <glyph glyph-name="Ccedilla" unicode="&#xc7;" horiz-adv-x="1479" 
 />
    <glyph glyph-name="Egrave" unicode="&#xc8;" horiz-adv-x="1366" 
 />
    <glyph glyph-name="Eacute" unicode="&#xc9;" horiz-adv-x="1366" 
 />
    <glyph glyph-name="Ecircumflex" unicode="&#xca;" horiz-adv-x="1366" 
 />
    <glyph glyph-name="Edieresis" unicode="&#xcb;" horiz-adv-x="1366" 
 />
    <glyph glyph-name="Igrave" unicode="&#xcc;" horiz-adv-x="569" 
 />
    <glyph glyph-name="Iacute" unicode="&#xcd;" horiz-adv-x="569" 
 />
    <glyph glyph-name="Icircumflex" unicode="&#xce;" horiz-adv-x="569" 
 />
    <glyph glyph-name="Idieresis" unicode="&#xcf;" horiz-adv-x="569" 
 />
    <glyph glyph-name="Eth" unicode="&#xd0;" horiz-adv-x="1479" 
 />
    <glyph glyph-name="Ntilde" unicode="&#xd1;" horiz-adv-x="1479" 
 />
    <glyph glyph-name="Ograve" unicode="&#xd2;" horiz-adv-x="1593" 
 />
    <glyph glyph-name="Oacute" unicode="&#xd3;" horiz-adv-x="1593" 
 />
    <glyph glyph-name="Ocircumflex" unicode="&#xd4;" horiz-adv-x="1593" 
 />
    <glyph glyph-name="Otilde" unicode="&#xd5;" horiz-adv-x="1593" 
 />
    <glyph glyph-name="Odieresis" unicode="&#xd6;" horiz-adv-x="1593" 
 />
    <glyph glyph-name="multiply" unicode="&#xd7;" horiz-adv-x="1196" 
 />
    <glyph glyph-name="Oslash" unicode="&#xd8;" horiz-adv-x="1593" 
 />
    <glyph glyph-name="Ugrave" unicode="&#xd9;" horiz-adv-x="1479" 
 />
    <glyph glyph-name="Uacute" unicode="&#xda;" horiz-adv-x="1479" 
 />
    <glyph glyph-name="Ucircumflex" unicode="&#xdb;" horiz-adv-x="1479" 
 />
    <glyph glyph-name="Udieresis" unicode="&#xdc;" horiz-adv-x="1479" 
 />
    <glyph glyph-name="Yacute" unicode="&#xdd;" horiz-adv-x="1366" 
 />
    <glyph glyph-name="Thorn" unicode="&#xde;" horiz-adv-x="1366" 
 />
    <glyph glyph-name="germandbls" unicode="&#xdf;" horiz-adv-x="1251" 
 />
    <glyph glyph-name="agrave" unicode="&#xe0;" 
 />
    <glyph glyph-name="aacute" unicode="&#xe1;" 
 />
    <glyph glyph-name="acircumflex" unicode="&#xe2;" 
 />
    <glyph glyph-name="atilde" unicode="&#xe3;" 
 />
    <glyph glyph-name="adieresis" unicode="&#xe4;" 
 />
    <glyph glyph-name="aring" unicode="&#xe5;" 
 />
    <glyph glyph-name="ae" unicode="&#xe6;" horiz-adv-x="1821" 
 />
    <glyph glyph-name="ccedilla" unicode="&#xe7;" horiz-adv-x="1024" 
 />
    <glyph glyph-name="egrave" unicode="&#xe8;" 
 />
    <glyph glyph-name="eacute" unicode="&#xe9;" 
 />
    <glyph glyph-name="ecircumflex" unicode="&#xea;" 
 />
    <glyph glyph-name="edieresis" unicode="&#xeb;" 
 />
    <glyph glyph-name="igrave" unicode="&#xec;" horiz-adv-x="569" 
 />
    <glyph glyph-name="iacute" unicode="&#xed;" horiz-adv-x="569" 
 />
    <glyph glyph-name="icircumflex" unicode="&#xee;" horiz-adv-x="569" 
 />
    <glyph glyph-name="idieresis" unicode="&#xef;" horiz-adv-x="569" 
 />
    <glyph glyph-name="eth" unicode="&#xf0;" 
 />
    <glyph glyph-name="ntilde" unicode="&#xf1;" 
 />
    <glyph glyph-name="ograve" unicode="&#xf2;" 
 />
    <glyph glyph-name="oacute" unicode="&#xf3;" 
 />
    <glyph glyph-name="ocircumflex" unicode="&#xf4;" 
 />
    <glyph glyph-name="otilde" unicode="&#xf5;" 
 />
    <glyph glyph-name="odieresis" unicode="&#xf6;" 
 />
    <glyph glyph-name="divide" unicode="&#xf7;" horiz-adv-x="1124" 
 />
    <glyph glyph-name="oslash" unicode="&#xf8;" horiz-adv-x="1251" 
 />
    <glyph glyph-name="ugrave" unicode="&#xf9;" 
 />
    <glyph glyph-name="uacute" unicode="&#xfa;" 
 />
    <glyph glyph-name="ucircumflex" unicode="&#xfb;" 
 />
    <glyph glyph-name="udieresis" unicode="&#xfc;" 
 />
    <glyph glyph-name="yacute" unicode="&#xfd;" horiz-adv-x="1024" 
 />
    <glyph glyph-name="thorn" unicode="&#xfe;" 
 />
    <glyph glyph-name="ydieresis" unicode="&#xff;" horiz-adv-x="1024" 
 />
    <glyph glyph-name="Amacron" unicode="&#x100;" horiz-adv-x="1366" 
 />
    <glyph glyph-name="amacron" unicode="&#x101;" 
 />
    <glyph glyph-name="Abreve" unicode="&#x102;" horiz-adv-x="1366" 
 />
    <glyph glyph-name="abreve" unicode="&#x103;" 
 />
    <glyph glyph-name="Aogonek" unicode="&#x104;" horiz-adv-x="1366" 
 />
    <glyph glyph-name="aogonek" unicode="&#x105;" 
 />
    <glyph glyph-name="Cacute" unicode="&#x106;" horiz-adv-x="1479" 
 />
    <glyph glyph-name="cacute" unicode="&#x107;" horiz-adv-x="1024" 
 />
    <glyph glyph-name="Ccircumflex" unicode="&#x108;" horiz-adv-x="1479" 
 />
    <glyph glyph-name="ccircumflex" unicode="&#x109;" horiz-adv-x="1024" 
 />
    <glyph glyph-name="Cdotaccent" unicode="&#x10a;" horiz-adv-x="1479" 
 />
    <glyph glyph-name="cdotaccent" unicode="&#x10b;" horiz-adv-x="1024" 
 />
    <glyph glyph-name="Ccaron" unicode="&#x10c;" horiz-adv-x="1479" 
 />
    <glyph glyph-name="ccaron" unicode="&#x10d;" horiz-adv-x="1024" 
 />
    <glyph glyph-name="Dcaron" unicode="&#x10e;" horiz-adv-x="1479" 
 />
    <glyph glyph-name="dcaron" unicode="&#x10f;" horiz-adv-x="1259" 
 />
    <glyph glyph-name="Dcroat" unicode="&#x110;" horiz-adv-x="1479" 
 />
    <glyph glyph-name="dcroat" unicode="&#x111;" 
 />
    <glyph glyph-name="Emacron" unicode="&#x112;" horiz-adv-x="1366" 
 />
    <glyph glyph-name="emacron" unicode="&#x113;" 
 />
    <glyph glyph-name="Ebreve" unicode="&#x114;" horiz-adv-x="1366" 
 />
    <glyph glyph-name="ebreve" unicode="&#x115;" 
 />
    <glyph glyph-name="Edotaccent" unicode="&#x116;" horiz-adv-x="1366" 
 />
    <glyph glyph-name="edotaccent" unicode="&#x117;" 
 />
    <glyph glyph-name="Eogonek" unicode="&#x118;" horiz-adv-x="1366" 
 />
    <glyph glyph-name="eogonek" unicode="&#x119;" 
 />
    <glyph glyph-name="Ecaron" unicode="&#x11a;" horiz-adv-x="1366" 
 />
    <glyph glyph-name="ecaron" unicode="&#x11b;" 
 />
    <glyph glyph-name="Gcircumflex" unicode="&#x11c;" horiz-adv-x="1593" 
 />
    <glyph glyph-name="gcircumflex" unicode="&#x11d;" 
 />
    <glyph glyph-name="Gbreve" unicode="&#x11e;" horiz-adv-x="1593" 
 />
    <glyph glyph-name="gbreve" unicode="&#x11f;" 
 />
    <glyph glyph-name="Gdotaccent" unicode="&#x120;" horiz-adv-x="1593" 
 />
    <glyph glyph-name="gdotaccent" unicode="&#x121;" 
 />
    <glyph glyph-name="Gcommaaccent" unicode="&#x122;" horiz-adv-x="1593" 
 />
    <glyph glyph-name="gcommaaccent" unicode="&#x123;" 
 />
    <glyph glyph-name="Hcircumflex" unicode="&#x124;" horiz-adv-x="1479" 
 />
    <glyph glyph-name="hcircumflex" unicode="&#x125;" 
 />
    <glyph glyph-name="Hbar" unicode="&#x126;" horiz-adv-x="1479" 
 />
    <glyph glyph-name="hbar" unicode="&#x127;" 
 />
    <glyph glyph-name="Itilde" unicode="&#x128;" horiz-adv-x="569" 
 />
    <glyph glyph-name="itilde" unicode="&#x129;" horiz-adv-x="569" 
 />
    <glyph glyph-name="Imacron" unicode="&#x12a;" horiz-adv-x="569" 
 />
    <glyph glyph-name="imacron" unicode="&#x12b;" horiz-adv-x="569" 
 />
    <glyph glyph-name="Ibreve" unicode="&#x12c;" horiz-adv-x="569" 
 />
    <glyph glyph-name="ibreve" unicode="&#x12d;" horiz-adv-x="569" 
 />
    <glyph glyph-name="Iogonek" unicode="&#x12e;" horiz-adv-x="569" 
 />
    <glyph glyph-name="iogonek" unicode="&#x12f;" horiz-adv-x="455" 
 />
    <glyph glyph-name="Idotaccent" unicode="&#x130;" horiz-adv-x="569" 
 />
    <glyph glyph-name="dotlessi" unicode="&#x131;" horiz-adv-x="569" 
 />
    <glyph glyph-name="IJ" unicode="&#x132;" horiz-adv-x="1505" 
 />
    <glyph glyph-name="ij" unicode="&#x133;" horiz-adv-x="909" 
 />
    <glyph glyph-name="Jcircumflex" unicode="&#x134;" horiz-adv-x="1024" 
 />
    <glyph glyph-name="jcircumflex" unicode="&#x135;" horiz-adv-x="455" 
 />
    <glyph glyph-name="Kcommaaccent" unicode="&#x136;" horiz-adv-x="1366" 
 />
    <glyph glyph-name="kcommaaccent" unicode="&#x137;" horiz-adv-x="1024" 
 />
    <glyph glyph-name="kgreenlandic" unicode="&#x138;" horiz-adv-x="1024" 
 />
    <glyph glyph-name="Lacute" unicode="&#x139;" 
 />
    <glyph glyph-name="lacute" unicode="&#x13a;" horiz-adv-x="455" 
 />
    <glyph glyph-name="Lcommaaccent" unicode="&#x13b;" 
 />
    <glyph glyph-name="lcommaaccent" unicode="&#x13c;" horiz-adv-x="455" 
 />
    <glyph glyph-name="Lcaron" unicode="&#x13d;" 
 />
    <glyph glyph-name="lcaron" unicode="&#x13e;" horiz-adv-x="597" 
 />
    <glyph glyph-name="Ldot" unicode="&#x13f;" 
 />
    <glyph glyph-name="ldot" unicode="&#x140;" horiz-adv-x="684" 
 />
    <glyph glyph-name="Lslash" unicode="&#x141;" 
 />
    <glyph glyph-name="lslash" unicode="&#x142;" horiz-adv-x="455" 
 />
    <glyph glyph-name="Nacute" unicode="&#x143;" horiz-adv-x="1479" 
 />
    <glyph glyph-name="nacute" unicode="&#x144;" 
 />
    <glyph glyph-name="Ncommaaccent" unicode="&#x145;" horiz-adv-x="1479" 
 />
    <glyph glyph-name="ncommaaccent" unicode="&#x146;" 
 />
    <glyph glyph-name="Ncaron" unicode="&#x147;" horiz-adv-x="1479" 
 />
    <glyph glyph-name="ncaron" unicode="&#x148;" 
 />
    <glyph glyph-name="napostrophe" unicode="&#x149;" horiz-adv-x="1237" 
 />
    <glyph glyph-name="Eng" unicode="&#x14a;" horiz-adv-x="1481" 
 />
    <glyph glyph-name="eng" unicode="&#x14b;" 
 />
    <glyph glyph-name="Omacron" unicode="&#x14c;" horiz-adv-x="1593" 
 />
    <glyph glyph-name="omacron" unicode="&#x14d;" 
 />
    <glyph glyph-name="Obreve" unicode="&#x14e;" horiz-adv-x="1593" 
 />
    <glyph glyph-name="obreve" unicode="&#x14f;" 
 />
    <glyph glyph-name="Ohungarumlaut" unicode="&#x150;" horiz-adv-x="1593" 
 />
    <glyph glyph-name="ohungarumlaut" unicode="&#x151;" 
 />
    <glyph glyph-name="OE" unicode="&#x152;" horiz-adv-x="2048" 
 />
    <glyph glyph-name="oe" unicode="&#x153;" horiz-adv-x="1933" 
 />
    <glyph glyph-name="Racute" unicode="&#x154;" horiz-adv-x="1479" 
 />
    <glyph glyph-name="racute" unicode="&#x155;" horiz-adv-x="682" 
 />
    <glyph glyph-name="Rcommaaccent" unicode="&#x156;" horiz-adv-x="1479" 
 />
    <glyph glyph-name="rcommaaccent" unicode="&#x157;" horiz-adv-x="682" 
 />
    <glyph glyph-name="Rcaron" unicode="&#x158;" horiz-adv-x="1479" 
 />
    <glyph glyph-name="rcaron" unicode="&#x159;" horiz-adv-x="682" 
 />
    <glyph glyph-name="Sacute" unicode="&#x15a;" horiz-adv-x="1366" 
 />
    <glyph glyph-name="sacute" unicode="&#x15b;" horiz-adv-x="1024" 
 />
    <glyph glyph-name="Scircumflex" unicode="&#x15c;" horiz-adv-x="1366" 
 />
    <glyph glyph-name="scircumflex" unicode="&#x15d;" horiz-adv-x="1024" 
 />
    <glyph glyph-name="Scedilla" unicode="&#x15e;" horiz-adv-x="1366" 
 />
    <glyph glyph-name="scedilla" unicode="&#x15f;" horiz-adv-x="1024" 
 />
    <glyph glyph-name="Scaron" unicode="&#x160;" horiz-adv-x="1366" 
 />
    <glyph glyph-name="scaron" unicode="&#x161;" horiz-adv-x="1024" 
 />
    <glyph glyph-name="Tcommaaccent" unicode="&#x162;" horiz-adv-x="1251" 
 />
    <glyph glyph-name="tcommaaccent" unicode="&#x163;" horiz-adv-x="569" 
 />
    <glyph glyph-name="Tcaron" unicode="&#x164;" horiz-adv-x="1251" 
 />
    <glyph glyph-name="tcaron" unicode="&#x165;" horiz-adv-x="768" 
 />
    <glyph glyph-name="Tbar" unicode="&#x166;" horiz-adv-x="1251" 
 />
    <glyph glyph-name="tbar" unicode="&#x167;" horiz-adv-x="569" 
 />
    <glyph glyph-name="Utilde" unicode="&#x168;" horiz-adv-x="1479" 
 />
    <glyph glyph-name="utilde" unicode="&#x169;" 
 />
    <glyph glyph-name="Umacron" unicode="&#x16a;" horiz-adv-x="1479" 
 />
    <glyph glyph-name="umacron" unicode="&#x16b;" 
 />
    <glyph glyph-name="Ubreve" unicode="&#x16c;" horiz-adv-x="1479" 
 />
    <glyph glyph-name="ubreve" unicode="&#x16d;" 
 />
    <glyph glyph-name="Uring" unicode="&#x16e;" horiz-adv-x="1479" 
 />
    <glyph glyph-name="uring" unicode="&#x16f;" 
 />
    <glyph glyph-name="Uhungarumlaut" unicode="&#x170;" horiz-adv-x="1479" 
 />
    <glyph glyph-name="uhungarumlaut" unicode="&#x171;" 
 />
    <glyph glyph-name="Uogonek" unicode="&#x172;" horiz-adv-x="1479" 
 />
    <glyph glyph-name="uogonek" unicode="&#x173;" 
 />
    <glyph glyph-name="Wcircumflex" unicode="&#x174;" horiz-adv-x="1933" 
 />
    <glyph glyph-name="wcircumflex" unicode="&#x175;" horiz-adv-x="1479" 
 />
    <glyph glyph-name="Ycircumflex" unicode="&#x176;" horiz-adv-x="1366" 
 />
    <glyph glyph-name="ycircumflex" unicode="&#x177;" horiz-adv-x="1024" 
 />
    <glyph glyph-name="Ydieresis" unicode="&#x178;" horiz-adv-x="1366" 
 />
    <glyph glyph-name="Zacute" unicode="&#x179;" horiz-adv-x="1251" 
 />
    <glyph glyph-name="zacute" unicode="&#x17a;" horiz-adv-x="1024" 
 />
    <glyph glyph-name="Zdotaccent" unicode="&#x17b;" horiz-adv-x="1251" 
 />
    <glyph glyph-name="zdotaccent" unicode="&#x17c;" horiz-adv-x="1024" 
 />
    <glyph glyph-name="Zcaron" unicode="&#x17d;" horiz-adv-x="1251" 
 />
    <glyph glyph-name="zcaron" unicode="&#x17e;" horiz-adv-x="1024" 
 />
    <glyph glyph-name="longs" unicode="&#x17f;" horiz-adv-x="455" 
 />
    <glyph glyph-name="florin" unicode="&#x192;" 
 />
    <glyph glyph-name="Aringacute" unicode="&#x1fa;" horiz-adv-x="1366" 
 />
    <glyph glyph-name="aringacute" unicode="&#x1fb;" 
 />
    <glyph glyph-name="AEacute" unicode="&#x1fc;" horiz-adv-x="2048" 
 />
    <glyph glyph-name="aeacute" unicode="&#x1fd;" horiz-adv-x="1821" 
 />
    <glyph glyph-name="Oslashacute" unicode="&#x1fe;" horiz-adv-x="1593" 
 />
    <glyph glyph-name="oslashacute" unicode="&#x1ff;" horiz-adv-x="1251" 
 />
    <glyph glyph-name="circumflex" unicode="&#x2c6;" horiz-adv-x="682" 
 />
    <glyph glyph-name="caron" unicode="&#x2c7;" horiz-adv-x="682" 
 />
    <glyph glyph-name="uni02C9" unicode="&#x2c9;" horiz-adv-x="682" 
 />
    <glyph glyph-name="breve" unicode="&#x2d8;" horiz-adv-x="682" 
 />
    <glyph glyph-name="dotaccent" unicode="&#x2d9;" horiz-adv-x="682" 
 />
    <glyph glyph-name="ring" unicode="&#x2da;" horiz-adv-x="682" 
 />
    <glyph glyph-name="ogonek" unicode="&#x2db;" horiz-adv-x="682" 
 />
    <glyph glyph-name="tilde" unicode="&#x2dc;" horiz-adv-x="682" 
 />
    <glyph glyph-name="hungarumlaut" unicode="&#x2dd;" horiz-adv-x="682" 
 />
    <glyph glyph-name="tonos" unicode="&#x384;" horiz-adv-x="682" 
 />
    <glyph glyph-name="dieresistonos" unicode="&#x385;" horiz-adv-x="682" 
 />
    <glyph glyph-name="Alphatonos" unicode="&#x386;" horiz-adv-x="1367" 
 />
    <glyph glyph-name="anoteleia" unicode="&#x387;" horiz-adv-x="569" 
 />
    <glyph glyph-name="Epsilontonos" unicode="&#x388;" horiz-adv-x="1606" 
 />
    <glyph glyph-name="Etatonos" unicode="&#x389;" horiz-adv-x="1716" 
 />
    <glyph glyph-name="Iotatonos" unicode="&#x38a;" horiz-adv-x="786" 
 />
    <glyph glyph-name="Omicrontonos" unicode="&#x38c;" horiz-adv-x="1586" 
 />
    <glyph glyph-name="Upsilontonos" unicode="&#x38e;" horiz-adv-x="1752" 
 />
    <glyph glyph-name="Omegatonos" unicode="&#x38f;" horiz-adv-x="1541" 
 />
    <glyph glyph-name="iotadieresistonos" unicode="&#x390;" horiz-adv-x="455" 
 />
    <glyph glyph-name="Alpha" unicode="&#x391;" horiz-adv-x="1366" 
 />
    <glyph glyph-name="Beta" unicode="&#x392;" horiz-adv-x="1366" 
 />
    <glyph glyph-name="Gamma" unicode="&#x393;" horiz-adv-x="1128" 
 />
    <glyph glyph-name="uni0394" unicode="&#x394;" horiz-adv-x="1368" 
 />
    <glyph glyph-name="Epsilon" unicode="&#x395;" horiz-adv-x="1366" 
 />
    <glyph glyph-name="Zeta" unicode="&#x396;" horiz-adv-x="1251" 
 />
    <glyph glyph-name="Eta" unicode="&#x397;" horiz-adv-x="1479" 
 />
    <glyph glyph-name="Theta" unicode="&#x398;" horiz-adv-x="1593" 
 />
    <glyph glyph-name="Iota" unicode="&#x399;" horiz-adv-x="569" 
 />
    <glyph glyph-name="Kappa" unicode="&#x39a;" horiz-adv-x="1366" 
 />
    <glyph glyph-name="Lambda" unicode="&#x39b;" horiz-adv-x="1368" 
 />
    <glyph glyph-name="Mu" unicode="&#x39c;" horiz-adv-x="1706" 
 />
    <glyph glyph-name="Nu" unicode="&#x39d;" horiz-adv-x="1479" 
 />
    <glyph glyph-name="Xi" unicode="&#x39e;" horiz-adv-x="1331" 
 />
    <glyph glyph-name="Omicron" unicode="&#x39f;" horiz-adv-x="1593" 
 />
    <glyph glyph-name="Pi" unicode="&#x3a0;" horiz-adv-x="1479" 
 />
    <glyph glyph-name="Rho" unicode="&#x3a1;" horiz-adv-x="1366" 
 />
    <glyph glyph-name="Sigma" unicode="&#x3a3;" horiz-adv-x="1266" 
 />
    <glyph glyph-name="Tau" unicode="&#x3a4;" horiz-adv-x="1251" 
 />
    <glyph glyph-name="Upsilon" unicode="&#x3a5;" horiz-adv-x="1366" 
 />
    <glyph glyph-name="Phi" unicode="&#x3a6;" horiz-adv-x="1634" 
 />
    <glyph glyph-name="Chi" unicode="&#x3a7;" horiz-adv-x="1366" 
 />
    <glyph glyph-name="Psi" unicode="&#x3a8;" horiz-adv-x="1711" 
 />
    <glyph glyph-name="uni03A9" unicode="&#x3a9;" horiz-adv-x="1531" 
 />
    <glyph glyph-name="Iotadieresis" unicode="&#x3aa;" horiz-adv-x="569" 
 />
    <glyph glyph-name="Upsilondieresis" unicode="&#x3ab;" horiz-adv-x="1366" 
 />
    <glyph glyph-name="alphatonos" unicode="&#x3ac;" horiz-adv-x="1184" 
 />
    <glyph glyph-name="epsilontonos" unicode="&#x3ad;" horiz-adv-x="913" 
 />
    <glyph glyph-name="etatonos" unicode="&#x3ae;" 
 />
    <glyph glyph-name="iotatonos" unicode="&#x3af;" horiz-adv-x="455" 
 />
    <glyph glyph-name="upsilondieresistonos" unicode="&#x3b0;" horiz-adv-x="1120" 
 />
    <glyph glyph-name="alpha" unicode="&#x3b1;" horiz-adv-x="1184" 
 />
    <glyph glyph-name="beta" unicode="&#x3b2;" horiz-adv-x="1178" 
 />
    <glyph glyph-name="gamma" unicode="&#x3b3;" horiz-adv-x="1024" 
 />
    <glyph glyph-name="delta" unicode="&#x3b4;" horiz-adv-x="1140" 
 />
    <glyph glyph-name="epsilon" unicode="&#x3b5;" horiz-adv-x="913" 
 />
    <glyph glyph-name="zeta" unicode="&#x3b6;" horiz-adv-x="903" 
 />
    <glyph glyph-name="eta" unicode="&#x3b7;" 
 />
    <glyph glyph-name="theta" unicode="&#x3b8;" 
 />
    <glyph glyph-name="iota" unicode="&#x3b9;" horiz-adv-x="455" 
 />
    <glyph glyph-name="kappa" unicode="&#x3ba;" horiz-adv-x="1024" 
 />
    <glyph glyph-name="lambda" unicode="&#x3bb;" horiz-adv-x="1024" 
 />
    <glyph glyph-name="uni03BC" unicode="&#x3bc;" horiz-adv-x="1180" 
 />
    <glyph glyph-name="nu" unicode="&#x3bd;" horiz-adv-x="1024" 
 />
    <glyph glyph-name="xi" unicode="&#x3be;" horiz-adv-x="917" 
 />
    <glyph glyph-name="omicron" unicode="&#x3bf;" 
 />
    <glyph glyph-name="pi" unicode="&#x3c0;" horiz-adv-x="1413" 
 />
    <glyph glyph-name="rho" unicode="&#x3c1;" horiz-adv-x="1165" 
 />
    <glyph glyph-name="sigma1" unicode="&#x3c2;" horiz-adv-x="987" 
 />
    <glyph glyph-name="sigma" unicode="&#x3c3;" horiz-adv-x="1264" 
 />
    <glyph glyph-name="tau" unicode="&#x3c4;" horiz-adv-x="809" 
 />
    <glyph glyph-name="upsilon" unicode="&#x3c5;" horiz-adv-x="1120" 
 />
    <glyph glyph-name="phi" unicode="&#x3c6;" horiz-adv-x="1328" 
 />
    <glyph glyph-name="chi" unicode="&#x3c7;" horiz-adv-x="1075" 
 />
    <glyph glyph-name="psi" unicode="&#x3c8;" horiz-adv-x="1460" 
 />
    <glyph glyph-name="omega" unicode="&#x3c9;" horiz-adv-x="1599" 
 />
    <glyph glyph-name="iotadieresis" unicode="&#x3ca;" horiz-adv-x="455" 
 />
    <glyph glyph-name="upsilondieresis" unicode="&#x3cb;" horiz-adv-x="1120" 
 />
    <glyph glyph-name="omicrontonos" unicode="&#x3cc;" 
 />
    <glyph glyph-name="upsilontonos" unicode="&#x3cd;" horiz-adv-x="1120" 
 />
    <glyph glyph-name="omegatonos" unicode="&#x3ce;" horiz-adv-x="1599" 
 />
    <glyph glyph-name="afii10023" unicode="&#x401;" horiz-adv-x="1367" 
 />
    <glyph glyph-name="afii10051" unicode="&#x402;" horiz-adv-x="1771" 
 />
    <glyph glyph-name="afii10052" unicode="&#x403;" horiz-adv-x="1109" 
 />
    <glyph glyph-name="afii10053" unicode="&#x404;" horiz-adv-x="1472" 
 />
    <glyph glyph-name="afii10054" unicode="&#x405;" horiz-adv-x="1366" 
 />
    <glyph glyph-name="afii10055" unicode="&#x406;" horiz-adv-x="569" 
 />
    <glyph glyph-name="afii10056" unicode="&#x407;" horiz-adv-x="569" 
 />
    <glyph glyph-name="afii10057" unicode="&#x408;" horiz-adv-x="1024" 
 />
    <glyph glyph-name="afii10058" unicode="&#x409;" horiz-adv-x="2165" 
 />
    <glyph glyph-name="afii10059" unicode="&#x40a;" horiz-adv-x="2069" 
 />
    <glyph glyph-name="afii10060" unicode="&#x40b;" horiz-adv-x="1749" 
 />
    <glyph glyph-name="afii10061" unicode="&#x40c;" horiz-adv-x="1193" 
 />
    <glyph glyph-name="afii10062" unicode="&#x40e;" horiz-adv-x="1301" 
 />
    <glyph glyph-name="afii10145" unicode="&#x40f;" horiz-adv-x="1472" 
 />
    <glyph glyph-name="afii10017" unicode="&#x410;" horiz-adv-x="1366" 
 />
    <glyph glyph-name="afii10018" unicode="&#x411;" horiz-adv-x="1344" 
 />
    <glyph glyph-name="afii10019" unicode="&#x412;" horiz-adv-x="1366" 
 />
    <glyph glyph-name="afii10020" unicode="&#x413;" horiz-adv-x="1109" 
 />
    <glyph glyph-name="afii10021" unicode="&#x414;" horiz-adv-x="1387" 
 />
    <glyph glyph-name="afii10022" unicode="&#x415;" horiz-adv-x="1366" 
 />
    <glyph glyph-name="afii10024" unicode="&#x416;" horiz-adv-x="1891" 
 />
    <glyph glyph-name="afii10025" unicode="&#x417;" horiz-adv-x="1237" 
 />
    <glyph glyph-name="afii10026" unicode="&#x418;" horiz-adv-x="1472" 
 />
    <glyph glyph-name="afii10027" unicode="&#x419;" horiz-adv-x="1472" 
 />
    <glyph glyph-name="afii10028" unicode="&#x41a;" horiz-adv-x="1193" 
 />
    <glyph glyph-name="afii10029" unicode="&#x41b;" horiz-adv-x="1344" 
 />
    <glyph glyph-name="afii10030" unicode="&#x41c;" horiz-adv-x="1706" 
 />
    <glyph glyph-name="afii10031" unicode="&#x41d;" horiz-adv-x="1479" 
 />
    <glyph glyph-name="afii10032" unicode="&#x41e;" horiz-adv-x="1593" 
 />
    <glyph glyph-name="afii10033" unicode="&#x41f;" horiz-adv-x="1472" 
 />
    <glyph glyph-name="afii10034" unicode="&#x420;" horiz-adv-x="1366" 
 />
    <glyph glyph-name="afii10035" unicode="&#x421;" horiz-adv-x="1479" 
 />
    <glyph glyph-name="afii10036" unicode="&#x422;" horiz-adv-x="1251" 
 />
    <glyph glyph-name="afii10037" unicode="&#x423;" horiz-adv-x="1301" 
 />
    <glyph glyph-name="afii10038" unicode="&#x424;" horiz-adv-x="1557" 
 />
    <glyph glyph-name="afii10039" unicode="&#x425;" horiz-adv-x="1366" 
 />
    <glyph glyph-name="afii10040" unicode="&#x426;" horiz-adv-x="1515" 
 />
    <glyph glyph-name="afii10041" unicode="&#x427;" horiz-adv-x="1365" 
 />
    <glyph glyph-name="afii10042" unicode="&#x428;" horiz-adv-x="1877" 
 />
    <glyph glyph-name="afii10043" unicode="&#x429;" horiz-adv-x="1920" 
 />
    <glyph glyph-name="afii10044" unicode="&#x42a;" horiz-adv-x="1621" 
 />
    <glyph glyph-name="afii10045" unicode="&#x42b;" horiz-adv-x="1813" 
 />
    <glyph glyph-name="afii10046" unicode="&#x42c;" horiz-adv-x="1344" 
 />
    <glyph glyph-name="afii10047" unicode="&#x42d;" horiz-adv-x="1472" 
 />
    <glyph glyph-name="afii10048" unicode="&#x42e;" horiz-adv-x="2069" 
 />
    <glyph glyph-name="afii10049" unicode="&#x42f;" horiz-adv-x="1479" 
 />
    <glyph glyph-name="afii10065" unicode="&#x430;" 
 />
    <glyph glyph-name="afii10066" unicode="&#x431;" horiz-adv-x="1173" 
 />
    <glyph glyph-name="afii10067" unicode="&#x432;" horiz-adv-x="1088" 
 />
    <glyph glyph-name="afii10068" unicode="&#x433;" horiz-adv-x="747" 
 />
    <glyph glyph-name="afii10069" unicode="&#x434;" horiz-adv-x="1195" 
 />
    <glyph glyph-name="afii10070" unicode="&#x435;" 
 />
    <glyph glyph-name="afii10072" unicode="&#x436;" horiz-adv-x="1370" 
 />
    <glyph glyph-name="afii10073" unicode="&#x437;" horiz-adv-x="939" 
 />
    <glyph glyph-name="afii10074" unicode="&#x438;" horiz-adv-x="1144" 
 />
    <glyph glyph-name="afii10075" unicode="&#x439;" horiz-adv-x="1144" 
 />
    <glyph glyph-name="afii10076" unicode="&#x43a;" horiz-adv-x="896" 
 />
    <glyph glyph-name="afii10077" unicode="&#x43b;" horiz-adv-x="1195" 
 />
    <glyph glyph-name="afii10078" unicode="&#x43c;" horiz-adv-x="1408" 
 />
    <glyph glyph-name="afii10079" unicode="&#x43d;" horiz-adv-x="1131" 
 />
    <glyph glyph-name="afii10080" unicode="&#x43e;" 
 />
    <glyph glyph-name="afii10081" unicode="&#x43f;" horiz-adv-x="1109" 
 />
    <glyph glyph-name="afii10082" unicode="&#x440;" 
 />
    <glyph glyph-name="afii10083" unicode="&#x441;" horiz-adv-x="1024" 
 />
    <glyph glyph-name="afii10084" unicode="&#x442;" horiz-adv-x="938" 
 />
    <glyph glyph-name="afii10085" unicode="&#x443;" horiz-adv-x="1024" 
 />
    <glyph glyph-name="afii10086" unicode="&#x444;" horiz-adv-x="1685" 
 />
    <glyph glyph-name="afii10087" unicode="&#x445;" horiz-adv-x="1024" 
 />
    <glyph glyph-name="afii10088" unicode="&#x446;" horiz-adv-x="1173" 
 />
    <glyph glyph-name="afii10089" unicode="&#x447;" horiz-adv-x="1067" 
 />
    <glyph glyph-name="afii10090" unicode="&#x448;" horiz-adv-x="1643" 
 />
    <glyph glyph-name="afii10091" unicode="&#x449;" horiz-adv-x="1685" 
 />
    <glyph glyph-name="afii10092" unicode="&#x44a;" horiz-adv-x="1280" 
 />
    <glyph glyph-name="afii10093" unicode="&#x44b;" horiz-adv-x="1472" 
 />
    <glyph glyph-name="afii10094" unicode="&#x44c;" horiz-adv-x="1067" 
 />
    <glyph glyph-name="afii10095" unicode="&#x44d;" horiz-adv-x="1045" 
 />
    <glyph glyph-name="afii10096" unicode="&#x44e;" horiz-adv-x="1536" 
 />
    <glyph glyph-name="afii10097" unicode="&#x44f;" horiz-adv-x="1109" 
 />
    <glyph glyph-name="afii10071" unicode="&#x451;" 
 />
    <glyph glyph-name="afii10099" unicode="&#x452;" 
 />
    <glyph glyph-name="afii10100" unicode="&#x453;" horiz-adv-x="747" 
 />
    <glyph glyph-name="afii10101" unicode="&#x454;" horiz-adv-x="1045" 
 />
    <glyph glyph-name="afii10102" unicode="&#x455;" horiz-adv-x="1024" 
 />
    <glyph glyph-name="afii10103" unicode="&#x456;" horiz-adv-x="455" 
 />
    <glyph glyph-name="afii10104" unicode="&#x457;" horiz-adv-x="569" 
 />
    <glyph glyph-name="afii10105" unicode="&#x458;" horiz-adv-x="455" 
 />
    <glyph glyph-name="afii10106" unicode="&#x459;" horiz-adv-x="1856" 
 />
    <glyph glyph-name="afii10107" unicode="&#x45a;" horiz-adv-x="1664" 
 />
    <glyph glyph-name="afii10108" unicode="&#x45b;" 
 />
    <glyph glyph-name="afii10109" unicode="&#x45c;" horiz-adv-x="896" 
 />
    <glyph glyph-name="afii10110" unicode="&#x45e;" horiz-adv-x="1024" 
 />
    <glyph glyph-name="afii10193" unicode="&#x45f;" horiz-adv-x="1131" 
 />
    <glyph glyph-name="afii10050" unicode="&#x490;" horiz-adv-x="1001" 
 />
    <glyph glyph-name="afii10098" unicode="&#x491;" horiz-adv-x="842" 
 />
    <glyph glyph-name="Wgrave" unicode="&#x1e80;" horiz-adv-x="1933" 
 />
    <glyph glyph-name="wgrave" unicode="&#x1e81;" horiz-adv-x="1479" 
 />
    <glyph glyph-name="Wacute" unicode="&#x1e82;" horiz-adv-x="1933" 
 />
    <glyph glyph-name="wacute" unicode="&#x1e83;" horiz-adv-x="1479" 
 />
    <glyph glyph-name="Wdieresis" unicode="&#x1e84;" horiz-adv-x="1933" 
 />
    <glyph glyph-name="wdieresis" unicode="&#x1e85;" horiz-adv-x="1479" 
 />
    <glyph glyph-name="Ygrave" unicode="&#x1ef2;" horiz-adv-x="1366" 
 />
    <glyph glyph-name="ygrave" unicode="&#x1ef3;" horiz-adv-x="1024" 
 />
    <glyph glyph-name="endash" unicode="&#x2013;" 
 />
    <glyph glyph-name="emdash" unicode="&#x2014;" horiz-adv-x="2048" 
 />
    <glyph glyph-name="afii00208" unicode="&#x2015;" horiz-adv-x="2048" 
 />
    <glyph glyph-name="underscoredbl" unicode="&#x2017;" horiz-adv-x="1131" 
 />
    <glyph glyph-name="quoteleft" unicode="&#x2018;" horiz-adv-x="455" 
 />
    <glyph glyph-name="quoteright" unicode="&#x2019;" horiz-adv-x="455" 
 />
    <glyph glyph-name="quotesinglbase" unicode="&#x201a;" horiz-adv-x="455" 
 />
    <glyph glyph-name="quotereversed" unicode="&#x201b;" horiz-adv-x="455" 
 />
    <glyph glyph-name="quotedblleft" unicode="&#x201c;" horiz-adv-x="682" 
 />
    <glyph glyph-name="quotedblright" unicode="&#x201d;" horiz-adv-x="682" 
 />
    <glyph glyph-name="quotedblbase" unicode="&#x201e;" horiz-adv-x="682" 
 />
    <glyph glyph-name="dagger" unicode="&#x2020;" 
 />
    <glyph glyph-name="daggerdbl" unicode="&#x2021;" 
 />
    <glyph glyph-name="bullet" unicode="&#x2022;" horiz-adv-x="682" 
d="M349 594q30 -1 79 -21q59 -31 59 -78v-8q0 -60 -93 -91q-34 -9 -46 -9q-19 0 -75 21q-63 32 -63 79v8q0 47 86 84q44 15 53 15z" />
    <glyph glyph-name="ellipsis" unicode="&#x2026;" horiz-adv-x="2048" 
 />
    <glyph glyph-name="perthousand" unicode="&#x2030;" horiz-adv-x="2048" 
 />
    <glyph glyph-name="minute" unicode="&#x2032;" horiz-adv-x="384" 
 />
    <glyph glyph-name="second" unicode="&#x2033;" horiz-adv-x="725" 
 />
    <glyph glyph-name="guilsinglleft" unicode="&#x2039;" horiz-adv-x="682" 
 />
    <glyph glyph-name="guilsinglright" unicode="&#x203a;" horiz-adv-x="682" 
 />
    <glyph glyph-name="exclamdbl" unicode="&#x203c;" horiz-adv-x="1024" 
 />
    <glyph glyph-name="uni203E" unicode="&#x203e;" horiz-adv-x="682" 
 />
    <glyph glyph-name="fraction" unicode="&#x2044;" horiz-adv-x="342" 
 />
    <glyph glyph-name="fraction" unicode="&#x2215;" horiz-adv-x="342" 
 />
    <glyph glyph-name="uni207F" unicode="&#x207f;" horiz-adv-x="747" 
 />
    <glyph glyph-name="franc" unicode="&#x20a3;" 
 />
    <glyph glyph-name="lira" unicode="&#x20a4;" 
 />
    <glyph glyph-name="peseta" unicode="&#x20a7;" horiz-adv-x="2240" 
 />
    <glyph glyph-name="Euro" unicode="&#x20ac;" 
 />
    <glyph glyph-name="afii61248" unicode="&#x2105;" horiz-adv-x="1813" 
 />
    <glyph glyph-name="afii61289" unicode="&#x2113;" horiz-adv-x="662" 
 />
    <glyph glyph-name="afii61352" unicode="&#x2116;" horiz-adv-x="2197" 
 />
    <glyph glyph-name="trademark" unicode="&#x2122;" horiz-adv-x="2048" 
 />
    <glyph glyph-name="Omega" unicode="&#x2126;" horiz-adv-x="1573" 
 />
    <glyph glyph-name="estimated" unicode="&#x212e;" horiz-adv-x="1229" 
 />
    <glyph glyph-name="oneeighth" unicode="&#x215b;" horiz-adv-x="1708" 
 />
    <glyph glyph-name="threeeighths" unicode="&#x215c;" horiz-adv-x="1708" 
 />
    <glyph glyph-name="fiveeighths" unicode="&#x215d;" horiz-adv-x="1708" 
 />
    <glyph glyph-name="seveneighths" unicode="&#x215e;" horiz-adv-x="1708" 
 />
    <glyph glyph-name="arrowleft" unicode="&#x2190;" horiz-adv-x="2048" 
 />
    <glyph glyph-name="arrowup" unicode="&#x2191;" horiz-adv-x="1024" 
 />
    <glyph glyph-name="arrowright" unicode="&#x2192;" horiz-adv-x="2048" 
 />
    <glyph glyph-name="arrowdown" unicode="&#x2193;" horiz-adv-x="1024" 
 />
    <glyph glyph-name="arrowboth" unicode="&#x2194;" horiz-adv-x="2048" 
 />
    <glyph glyph-name="arrowupdn" unicode="&#x2195;" horiz-adv-x="1024" 
 />
    <glyph glyph-name="arrowupdnbse" unicode="&#x21a8;" horiz-adv-x="1024" 
 />
    <glyph glyph-name="partialdiff" unicode="&#x2202;" horiz-adv-x="1012" 
 />
    <glyph glyph-name="Delta" unicode="&#x2206;" horiz-adv-x="1253" 
 />
    <glyph glyph-name="product" unicode="&#x220f;" horiz-adv-x="1686" 
 />
    <glyph glyph-name="summation" unicode="&#x2211;" horiz-adv-x="1460" 
 />
    <glyph glyph-name="minus" unicode="&#x2212;" horiz-adv-x="1196" 
 />
    <glyph glyph-name="radical" unicode="&#x221a;" horiz-adv-x="1124" 
 />
    <glyph glyph-name="infinity" unicode="&#x221e;" horiz-adv-x="1460" 
 />
    <glyph glyph-name="orthogonal" unicode="&#x221f;" horiz-adv-x="2005" 
 />
    <glyph glyph-name="intersection" unicode="&#x2229;" horiz-adv-x="1472" 
 />
    <glyph glyph-name="integral" unicode="&#x222b;" horiz-adv-x="561" 
 />
    <glyph glyph-name="approxequal" unicode="&#x2248;" horiz-adv-x="1124" 
 />
    <glyph glyph-name="notequal" unicode="&#x2260;" horiz-adv-x="1124" 
 />
    <glyph glyph-name="equivalence" unicode="&#x2261;" horiz-adv-x="1195" 
 />
    <glyph glyph-name="lessequal" unicode="&#x2264;" horiz-adv-x="1124" 
 />
    <glyph glyph-name="greaterequal" unicode="&#x2265;" horiz-adv-x="1124" 
 />
    <glyph glyph-name="house" unicode="&#x2302;" horiz-adv-x="1237" 
 />
    <glyph glyph-name="revlogicalnot" unicode="&#x2310;" horiz-adv-x="1196" 
 />
    <glyph glyph-name="integraltp" unicode="&#x2320;" horiz-adv-x="1237" 
 />
    <glyph glyph-name="integralbt" unicode="&#x2321;" horiz-adv-x="1237" 
 />
    <glyph glyph-name="SF100000" unicode="&#x2500;" horiz-adv-x="1451" 
 />
    <glyph glyph-name="SF110000" unicode="&#x2502;" horiz-adv-x="1280" 
 />
    <glyph glyph-name="SF010000" unicode="&#x250c;" horiz-adv-x="1451" 
 />
    <glyph glyph-name="SF030000" unicode="&#x2510;" horiz-adv-x="1451" 
 />
    <glyph glyph-name="SF020000" unicode="&#x2514;" horiz-adv-x="1451" 
 />
    <glyph glyph-name="SF040000" unicode="&#x2518;" horiz-adv-x="1451" 
 />
    <glyph glyph-name="SF080000" unicode="&#x251c;" horiz-adv-x="1451" 
 />
    <glyph glyph-name="SF090000" unicode="&#x2524;" horiz-adv-x="1451" 
 />
    <glyph glyph-name="SF060000" unicode="&#x252c;" horiz-adv-x="1451" 
 />
    <glyph glyph-name="SF070000" unicode="&#x2534;" horiz-adv-x="1451" 
 />
    <glyph glyph-name="SF050000" unicode="&#x253c;" horiz-adv-x="1451" 
 />
    <glyph glyph-name="SF430000" unicode="&#x2550;" horiz-adv-x="1451" 
 />
    <glyph glyph-name="SF240000" unicode="&#x2551;" horiz-adv-x="1451" 
 />
    <glyph glyph-name="SF510000" unicode="&#x2552;" horiz-adv-x="1451" 
 />
    <glyph glyph-name="SF520000" unicode="&#x2553;" horiz-adv-x="1451" 
 />
    <glyph glyph-name="SF390000" unicode="&#x2554;" horiz-adv-x="1451" 
 />
    <glyph glyph-name="SF220000" unicode="&#x2555;" horiz-adv-x="1451" 
 />
    <glyph glyph-name="SF210000" unicode="&#x2556;" horiz-adv-x="1451" 
 />
    <glyph glyph-name="SF250000" unicode="&#x2557;" horiz-adv-x="1451" 
 />
    <glyph glyph-name="SF500000" unicode="&#x2558;" horiz-adv-x="1451" 
 />
    <glyph glyph-name="SF490000" unicode="&#x2559;" horiz-adv-x="1451" 
 />
    <glyph glyph-name="SF380000" unicode="&#x255a;" horiz-adv-x="1451" 
 />
    <glyph glyph-name="SF280000" unicode="&#x255b;" horiz-adv-x="1451" 
 />
    <glyph glyph-name="SF270000" unicode="&#x255c;" horiz-adv-x="1451" 
 />
    <glyph glyph-name="SF260000" unicode="&#x255d;" horiz-adv-x="1451" 
 />
    <glyph glyph-name="SF360000" unicode="&#x255e;" horiz-adv-x="1451" 
 />
    <glyph glyph-name="SF370000" unicode="&#x255f;" horiz-adv-x="1451" 
 />
    <glyph glyph-name="SF420000" unicode="&#x2560;" horiz-adv-x="1451" 
 />
    <glyph glyph-name="SF190000" unicode="&#x2561;" horiz-adv-x="1451" 
 />
    <glyph glyph-name="SF200000" unicode="&#x2562;" horiz-adv-x="1451" 
 />
    <glyph glyph-name="SF230000" unicode="&#x2563;" horiz-adv-x="1451" 
 />
    <glyph glyph-name="SF470000" unicode="&#x2564;" horiz-adv-x="1451" 
 />
    <glyph glyph-name="SF480000" unicode="&#x2565;" horiz-adv-x="1451" 
 />
    <glyph glyph-name="SF410000" unicode="&#x2566;" horiz-adv-x="1451" 
 />
    <glyph glyph-name="SF450000" unicode="&#x2567;" horiz-adv-x="1451" 
 />
    <glyph glyph-name="SF460000" unicode="&#x2568;" horiz-adv-x="1451" 
 />
    <glyph glyph-name="SF400000" unicode="&#x2569;" horiz-adv-x="1451" 
 />
    <glyph glyph-name="SF540000" unicode="&#x256a;" horiz-adv-x="1451" 
 />
    <glyph glyph-name="SF530000" unicode="&#x256b;" horiz-adv-x="1451" 
 />
    <glyph glyph-name="SF440000" unicode="&#x256c;" horiz-adv-x="1451" 
 />
    <glyph glyph-name="upblock" unicode="&#x2580;" horiz-adv-x="1451" 
 />
    <glyph glyph-name="dnblock" unicode="&#x2584;" horiz-adv-x="1451" 
 />
    <glyph glyph-name="block" unicode="&#x2588;" horiz-adv-x="1451" 
 />
    <glyph glyph-name="lfblock" unicode="&#x258c;" horiz-adv-x="1451" 
 />
    <glyph glyph-name="rtblock" unicode="&#x2590;" horiz-adv-x="1451" 
 />
    <glyph glyph-name="ltshade" unicode="&#x2591;" horiz-adv-x="1451" 
 />
    <glyph glyph-name="shade" unicode="&#x2592;" horiz-adv-x="1451" 
 />
    <glyph glyph-name="dkshade" unicode="&#x2593;" horiz-adv-x="1493" 
 />
    <glyph glyph-name="filledbox" unicode="&#x25a0;" horiz-adv-x="1237" 
 />
    <glyph glyph-name="H22073" unicode="&#x25a1;" horiz-adv-x="1237" 
 />
    <glyph glyph-name="H18543" unicode="&#x25aa;" horiz-adv-x="726" 
 />
    <glyph glyph-name="H18551" unicode="&#x25ab;" horiz-adv-x="726" 
 />
    <glyph glyph-name="filledrect" unicode="&#x25ac;" horiz-adv-x="2048" 
 />
    <glyph glyph-name="triagup" unicode="&#x25b2;" horiz-adv-x="2027" 
 />
    <glyph glyph-name="triagrt" unicode="&#x25ba;" horiz-adv-x="2027" 
 />
    <glyph glyph-name="triagdn" unicode="&#x25bc;" horiz-adv-x="2027" 
 />
    <glyph glyph-name="triaglf" unicode="&#x25c4;" horiz-adv-x="2027" 
 />
    <glyph glyph-name="lozenge" unicode="&#x25ca;" horiz-adv-x="1012" 
 />
    <glyph glyph-name="circle" unicode="&#x25cb;" horiz-adv-x="1237" 
 />
    <glyph glyph-name="H18533" unicode="&#x25cf;" horiz-adv-x="1237" 
 />
    <glyph glyph-name="invbullet" unicode="&#x25d8;" horiz-adv-x="1237" 
 />
    <glyph glyph-name="invcircle" unicode="&#x25d9;" horiz-adv-x="1237" 
 />
    <glyph glyph-name="openbullet" unicode="&#x25e6;" horiz-adv-x="726" 
 />
    <glyph glyph-name="smileface" unicode="&#x263a;" horiz-adv-x="2091" 
 />
    <glyph glyph-name="invsmileface" unicode="&#x263b;" horiz-adv-x="2155" 
 />
    <glyph glyph-name="sun" unicode="&#x263c;" horiz-adv-x="1877" 
 />
    <glyph glyph-name="female" unicode="&#x2640;" horiz-adv-x="1536" 
 />
    <glyph glyph-name="male" unicode="&#x2642;" horiz-adv-x="1536" 
 />
    <glyph glyph-name="spade" unicode="&#x2660;" horiz-adv-x="1088" 
 />
    <glyph glyph-name="club" unicode="&#x2663;" horiz-adv-x="1344" 
 />
    <glyph glyph-name="heart" unicode="&#x2665;" horiz-adv-x="1216" 
 />
    <glyph glyph-name="diamond" unicode="&#x2666;" horiz-adv-x="1045" 
 />
    <glyph glyph-name="musicalnote" unicode="&#x266a;" horiz-adv-x="1024" 
 />
    <glyph glyph-name="musicalnotedbl" unicode="&#x266b;" horiz-adv-x="1536" 
 />
    <glyph glyph-name="uniF001" unicode="&#xf001;" horiz-adv-x="1024" 
 />
    <glyph glyph-name="uniF001" unicode="&#xfb01;" horiz-adv-x="1024" 
 />
    <glyph glyph-name="uniF002" unicode="&#xf002;" horiz-adv-x="1024" 
 />
    <glyph glyph-name="uniF002" unicode="&#xfb02;" horiz-adv-x="1024" 
 />
    <glyph glyph-name="uniF004" unicode="&#xf004;" horiz-adv-x="682" 
 />
    <glyph glyph-name="uniF005" unicode="&#xf005;" horiz-adv-x="682" 
 />
    <glyph glyph-name="glyph155" horiz-adv-x="1124" 
 />
  </font>
</defs>
</svg>
