<?xml version="1.0" encoding="UTF-8" standalone="no"?>
<!DOCTYPE svg PUBLIC "-//W3C//DTD SVG 1.1//EN"
"http://www.w3.org/Graphics/SVG/1.1/DTD/svg11.dtd">
<svg viewBox="0 0 908 1285" version="1.1" xmlns="http://www.w3.org/2000/svg" xmlns:xlink="http://www.w3.org/1999/xlink">
<defs>
<clipPath id="c0_30"><path d="M-32.6,291.8V-32.3H292.2V291.8Z"/></clipPath>
<clipPath id="c1_30"><path d="M291.5,291.8V-32.3H617.1V291.8Z"/></clipPath>
<clipPath id="c2_30"><path d="M616.4,291.8V-32.3H941.3V291.8Z"/></clipPath>
<clipPath id="c3_30"><path d="M-32.6,616V291.1H292.2V616Z"/></clipPath>
<clipPath id="c4_30"><path d="M291.5,616V291.1H617.1V616Z"/></clipPath>
<clipPath id="c5_30"><path d="M616.4,616V291.1H941.3V616Z"/></clipPath>
<clipPath id="c6_30"><path d="M-32.6,940.2V615.3H292.2V940.2Z"/></clipPath>
<clipPath id="c7_30"><path d="M291.5,940.2V615.3H617.1V940.2Z"/></clipPath>
<clipPath id="c8_30"><path d="M616.4,940.2V615.3H941.3V940.2Z"/></clipPath>
<clipPath id="c9_30"><path d="M-32.6,1264.4V939.5H292.2v324.9Z"/></clipPath>
<clipPath id="ca_30"><path d="M291.5,1264.4V939.5H617.1v324.9Z"/></clipPath>
<clipPath id="cb_30"><path d="M616.4,1264.4V939.5H941.3v324.9Z"/></clipPath>
<clipPath id="cc_30"><path d="M-32.6,1317.8v-54.1H941.3v54.1Z"/></clipPath>
</defs>
<image clip-path="url(#c0_30)" preserveAspectRatio="none" x="-32" y="-32" width="324" height="324" xlink:href="img/1.jpg"/>
<image clip-path="url(#c1_30)" preserveAspectRatio="none" x="292" y="-32" width="325" height="324" xlink:href="img/2.jpg"/>
<image clip-path="url(#c2_30)" preserveAspectRatio="none" x="616" y="-32" width="326" height="324" xlink:href="img/3.jpg"/>
<image clip-path="url(#c3_30)" preserveAspectRatio="none" x="-32" y="291" width="324" height="325" xlink:href="img/4.jpg"/>
<image clip-path="url(#c4_30)" preserveAspectRatio="none" x="292" y="291" width="325" height="325" xlink:href="img/5.jpg"/>
<image clip-path="url(#c5_30)" preserveAspectRatio="none" x="616" y="291" width="326" height="325" xlink:href="img/6.jpg"/>
<image clip-path="url(#c6_30)" preserveAspectRatio="none" x="-32" y="615" width="324" height="325" xlink:href="img/7.jpg"/>
<image clip-path="url(#c7_30)" preserveAspectRatio="none" x="292" y="615" width="325" height="325" xlink:href="img/8.jpg"/>
<image clip-path="url(#c8_30)" preserveAspectRatio="none" x="616" y="615" width="326" height="325" xlink:href="img/9.jpg"/>
<image clip-path="url(#c9_30)" preserveAspectRatio="none" x="-32" y="939" width="324" height="325" xlink:href="img/10.jpg"/>
<image clip-path="url(#ca_30)" preserveAspectRatio="none" x="292" y="939" width="325" height="325" xlink:href="img/11.jpg"/>
<image clip-path="url(#cb_30)" preserveAspectRatio="none" x="616" y="939" width="326" height="325" xlink:href="img/12.jpg"/>
<image clip-path="url(#cc_30)" preserveAspectRatio="none" x="-32" y="1264" width="974" height="55" xlink:href="img/13.jpg"/>
</svg>