<?xml version="1.0" encoding="UTF-8" standalone="no"?>
<!DOCTYPE svg PUBLIC "-//W3C//DTD SVG 1.1//EN"
"http://www.w3.org/Graphics/SVG/1.1/DTD/svg11.dtd">
<svg viewBox="0 0 909 1286" version="1.1" xmlns="http://www.w3.org/2000/svg" xmlns:xlink="http://www.w3.org/1999/xlink">
<defs>
<clipPath id="c0_16"><path d="M475.5,273.8c-14.6,0,-14.7,-14.6,-14.7,-14.7V110.6c0,-14.7,14.7,-14.7,14.7,-14.7h89.3c14.7,0,14.7,14.7,14.7,14.7V259.1c0,14.7,-14.7,14.7,-14.7,14.7Z"/></clipPath>
<style type="text/css"><![CDATA[
.g0_16{
fill: #FFFFFF;
}
.g1_16{
fill: none;
stroke: #000000;
stroke-width: 1.375;
stroke-linecap: butt;
stroke-linejoin: miter;
stroke-miterlimit: 4;
}
.g2_16{
fill: none;
stroke: #000000;
stroke-width: 1.237;
stroke-linecap: butt;
stroke-linejoin: miter;
stroke-miterlimit: 4;
}
.g3_16{
fill: none;
stroke: #000000;
stroke-width: 0.916;
stroke-linecap: butt;
stroke-linejoin: miter;
stroke-miterlimit: 4;
}
.g4_16{
fill: none;
stroke: #000000;
stroke-width: 1.527;
stroke-linecap: butt;
stroke-linejoin: miter;
stroke-miterlimit: 4;
}
.g5_16{
fill: none;
stroke: #FFFFFF;
stroke-width: 0.916;
stroke-linecap: butt;
stroke-linejoin: miter;
stroke-miterlimit: 4;
}
]]></style>
</defs>
<image preserveAspectRatio="none" x="-21" y="-21" width="932" height="1329" xlink:href="../1/img/1.webp"/>
<image preserveAspectRatio="none" x="0" y="564" width="924" height="747" xlink:href="img/2.webp"/>
<path d="M395.1,143.5c5.4,0,9.7,-4.3,9.7,-9.6c0,-5.4,-4.3,-9.7,-9.7,-9.7c-5.3,0,-9.6,4.3,-9.6,9.7c0,5.3,4.3,9.6,9.6,9.6Z" class="g0_16"/>
<path d="M395.1,143.5c5.4,0,9.7,-4.3,9.7,-9.6c0,-5.4,-4.3,-9.7,-9.7,-9.7c-5.3,0,-9.6,4.3,-9.6,9.7c0,5.3,4.3,9.6,9.6,9.6Z" class="g1_16"/>
<path d="M359.6,179.2c5.3,0,9.7,-4.3,9.7,-9.7c0,-5.3,-4.4,-9.7,-9.7,-9.7c-5.4,0,-9.7,4.4,-9.7,9.7c0,5.4,4.3,9.7,9.7,9.7Z" class="g0_16"/>
<path d="M359.6,179.2c5.3,0,9.7,-4.3,9.7,-9.7c0,-5.3,-4.4,-9.7,-9.7,-9.7c-5.4,0,-9.7,4.4,-9.7,9.7c0,5.4,4.3,9.7,9.7,9.7Z" class="g2_16"/>
<path d="M56.3,859.5H439.6M56.3,74.8H853.1" class="g3_16"/>
<image preserveAspectRatio="none" x="458" y="95" width="129" height="187" xlink:href="img/3.webp"/>
<g clip-path="url(#c0_16)">
<path d="M446.1,288H593V81.8H446.1V288Z" class="g0_16"/>
</g>
<image preserveAspectRatio="none" x="447" y="82" width="147" height="206" xlink:href="img/4.webp"/>
<image preserveAspectRatio="none" x="502" y="103" width="37" height="36" xlink:href="img/5.webp"/>
<image preserveAspectRatio="none" x="519" y="194" width="16" height="16" xlink:href="img/6.webp"/>
<image preserveAspectRatio="none" x="492" y="194" width="17" height="16" xlink:href="img/7.webp"/>
<image preserveAspectRatio="none" x="506" y="194" width="16" height="16" xlink:href="img/8.webp"/>
<image preserveAspectRatio="none" x="542" y="110" width="15" height="18" xlink:href="img/9.webp"/>
<image preserveAspectRatio="none" x="561" y="111" width="11" height="17" xlink:href="img/10.webp"/>
<image preserveAspectRatio="none" x="476" y="104" width="19" height="33" xlink:href="img/11.webp"/>
<image preserveAspectRatio="none" x="677" y="188" width="183" height="93" xlink:href="img/12.webp"/>
<image preserveAspectRatio="none" x="677" y="187" width="178" height="87" xlink:href="img/13.webp"/>
<image preserveAspectRatio="none" x="487" y="69" width="286" height="274" xlink:href="img/14.webp"/>
<image preserveAspectRatio="none" x="519" y="188" width="31" height="29" xlink:href="img/15.webp"/>
<image preserveAspectRatio="none" x="517" y="182" width="31" height="32" xlink:href="img/16.webp"/>
<path d="M507.3,142c6,0,10.8,-4.8,10.8,-10.8c0,-5.9,-4.8,-10.7,-10.8,-10.7c-5.9,0,-10.7,4.8,-10.7,10.7c0,6,4.8,10.8,10.7,10.8Z" class="g0_16"/>
<path d="M507.3,142c6,0,10.8,-4.8,10.8,-10.8c0,-5.9,-4.8,-10.7,-10.8,-10.7c-5.9,0,-10.7,4.8,-10.7,10.7c0,6,4.8,10.8,10.7,10.8Z" class="g1_16"/>
<path d="M465.5,111.8c6,0,10.8,-4.8,10.8,-10.7c0,-6,-4.8,-10.8,-10.8,-10.8c-5.9,0,-10.7,4.8,-10.7,10.8c0,5.9,4.8,10.7,10.7,10.7Z" class="g0_16"/>
<path d="M465.5,111.8c6,0,10.8,-4.8,10.8,-10.7c0,-6,-4.8,-10.8,-10.8,-10.8c-5.9,0,-10.7,4.8,-10.7,10.8c0,5.9,4.8,10.7,10.7,10.7Z" class="g4_16"/>
<image preserveAspectRatio="none" x="509" y="166" width="32" height="29" xlink:href="img/17.webp"/>
<image preserveAspectRatio="none" x="508" y="163" width="29" height="28" xlink:href="img/18.webp"/>
<image preserveAspectRatio="none" x="497" y="186" width="29" height="31" xlink:href="img/19.webp"/>
<image preserveAspectRatio="none" x="494" y="182" width="32" height="32" xlink:href="img/20.webp"/>
<image preserveAspectRatio="none" x="678" y="90" width="179" height="90" xlink:href="img/21.webp"/>
<image preserveAspectRatio="none" x="678" y="87" width="178" height="90" xlink:href="img/22.webp"/>
<image preserveAspectRatio="none" x="533" y="7" width="295" height="296" xlink:href="img/23.webp"/>
<image preserveAspectRatio="none" x="784" y="130" width="30" height="29" xlink:href="img/24.webp"/>
<image preserveAspectRatio="none" x="780" y="124" width="32" height="32" xlink:href="img/25.webp"/>
<image preserveAspectRatio="none" x="773" y="108" width="31" height="29" xlink:href="img/26.webp"/>
<image preserveAspectRatio="none" x="771" y="106" width="30" height="27" xlink:href="img/27.webp"/>
<image preserveAspectRatio="none" x="759" y="128" width="31" height="31" xlink:href="img/28.webp"/>
<image preserveAspectRatio="none" x="757" y="124" width="32" height="32" xlink:href="img/29.webp"/>
<image preserveAspectRatio="none" x="-1" y="315" width="873" height="75" xlink:href="img/30.webp"/>
<image preserveAspectRatio="none" x="-1" y="404" width="873" height="191" xlink:href="img/31.webp"/>
<image preserveAspectRatio="none" x="-1" y="606" width="873" height="214" xlink:href="img/32.webp"/>
<path d="M56.3,354.2H853.1M55.6,435H852.4M55.6,642H852.4" class="g5_16"/>
</svg>