<?xml version="1.0" encoding="UTF-8" standalone="no"?>
<!DOCTYPE svg PUBLIC "-//W3C//DTD SVG 1.1//EN"
"http://www.w3.org/Graphics/SVG/1.1/DTD/svg11.dtd">
<svg viewBox="0 0 909 1286" version="1.1" xmlns="http://www.w3.org/2000/svg" xmlns:xlink="http://www.w3.org/1999/xlink">
<defs>
<style type="text/css"><![CDATA[
.g0_21{
fill: none;
stroke: #FFFFFF;
stroke-width: 1.527;
stroke-linecap: butt;
stroke-linejoin: miter;
stroke-miterlimit: 4;
}
]]></style>
</defs>
<image preserveAspectRatio="none" x="-1" y="-21" width="932" height="1329" xlink:href="../1/img/1.png"/>
<image preserveAspectRatio="none" x="469" y="552" width="386" height="263" xlink:href="img/2.png"/>
<image preserveAspectRatio="none" x="476" y="687" width="123" height="118" xlink:href="img/3.png"/>
<image preserveAspectRatio="none" x="556" y="761" width="41" height="41" xlink:href="img/4.png"/>
<path d="M498.5,779.4l-.4,.2c-1.2,.9,-3.1,1.4,-5.7,1.4c-1.1,0,-1.8,-.1,-2.1,-.2l-.1,-.5c0,-.2,.1,-.4,.1,-.7c-.1,-.4,-.2,-.5,-.5,-.5c-.2,0,-.4,.1,-.6,.3c-.2,.3,-.3,.4,-.5,.4c-.3,0,-.5,-.1,-.6,-.4c-.6,-2.1,-1,-3.5,-1,-4.2c.1,-.4,.2,-.7,.3,-.9l.4,-.2c.2,0,.4,.1,.5,.2l.4,.3l.4,-.3l.3,-.3l.4,-.2l.4,.1l.1,.1c.2,1,.4,2.1,.6,3.1c.4,1.7,.7,2.6,1,2.6h.9c.7,0,1.1,0,1.4,0c.5,-.1,.8,-2.1,.8,-6c0,-.3,-.1,-.8,-.2,-1.4c-.1,-.6,-.1,-1,-.1,-1.3c0,-.1,0,-.2,0,-.3v-.4l-.3,-.2c0,-.1,-.2,-.2,-.3,-.2c-.2,-.1,-.4,-.2,-.5,-.2h-.5c-.9,.2,-1.7,.3,-2.4,.3l-.5,-.2l-.1,-.4l.1,-.4l.5,-.2c1.5,0,3,-.4,4.4,-1.3c.2,-.1,.3,-.8,.3,-2.1V763c.1,-3.2,-.2,-4.9,-.8,-4.9c-.8,0,-1.7,.1,-2.7,.4l-.4,.4c-.3,1.1,-.4,2.2,-.4,3.4c0,1.4,-.3,2.1,-.8,2.1c-.3,0,-.5,-.3,-.7,-.9c-.1,-.7,-.3,-1,-.7,-1c-.3,0,-.4,.3,-.5,.8c-.1,.4,-.1,.8,-.1,1.2l-.3,.3l-.4,.1c-.5,-.1,-.7,-1.1,-.7,-3.1c0,-.3,0,-.8,0,-1.5v-1.5l.2,-.5l.4,-.1c.6,.1,.9,-.1,1.1,-.6c.1,-.5,.3,-.7,.5,-.7c.3,0,.5,.1,.6,.4c.2,.3,.4,.4,.6,.4c.1,0,.3,-.1,.4,-.3c.2,-.1,.4,-.2,.6,-.2c-.1,0,0,0,.5,0c1,-.2,2.2,-.3,3.4,-.3c1.3,0,2.9,.1,5.1,.3c.4,.1,.5,.3,.5,.7c0,.2,-.1,.4,-.5,.5c-.4,.1,-.6,.2,-.6,.5v8.7c0,.4,-.2,.6,-.6,.6c-.3,0,-.5,-.2,-.5,-.5l-.3,-.3h-.4c-1.5,.7,-2.2,1.2,-2.2,1.5c-.1,.1,.4,.5,1.4,1c1.2,.7,1.8,1.1,1.9,1.2c.7,.5,1,2.1,1.1,4.7c0,.6,0,1.8,-.1,3.6l-.2,.4l-.4,.2c-.3,-.1,-.4,-.2,-.5,-.3l-.4,-.3Z" class="g0_21"/>
<image preserveAspectRatio="none" x="500" y="605" width="64" height="102" xlink:href="img/5.png"/>
<image preserveAspectRatio="none" x="502" y="606" width="57" height="94" xlink:href="img/6.png"/>
<image preserveAspectRatio="none" x="512" y="590" width="41" height="39" xlink:href="img/7.png"/>
<image preserveAspectRatio="none" x="507" y="583" width="46" height="48" xlink:href="img/8.png"/>
<image preserveAspectRatio="none" x="55" y="130" width="386" height="261" xlink:href="img/9.png"/>
<image preserveAspectRatio="none" x="56" y="536" width="384" height="259" xlink:href="img/10.png"/>
<image preserveAspectRatio="none" x="153" y="730" width="55" height="28" xlink:href="img/11.png"/>
<image preserveAspectRatio="none" x="157" y="731" width="46" height="21" xlink:href="img/12.png"/>
<image preserveAspectRatio="none" x="248" y="641" width="30" height="54" xlink:href="img/13.png"/>
<image preserveAspectRatio="none" x="244" y="640" width="32" height="50" xlink:href="img/14.png"/>
<image preserveAspectRatio="none" x="322" y="629" width="40" height="49" xlink:href="img/15.png"/>
<image preserveAspectRatio="none" x="320" y="627" width="43" height="50" xlink:href="img/16.png"/>
<image preserveAspectRatio="none" x="62" y="548" width="122" height="118" xlink:href="img/17.png"/>
<path d="M83.3,640.9l-.1,-.5c0,.3,0,-.1,.1,-1.3c0,-.9,0,-1.6,-.1,-2.1c-.1,-.8,-.3,-1.1,-.6,-1.1c-.4,0,-.6,.4,-.6,1.4c0,.6,0,1.1,0,1.7c-.1,.8,-.3,1.3,-.7,1.3l-.4,-.2l-.2,-.4c.3,-2.8,.4,-5.7,.6,-8.5l-.2,-.5l-.5,-.1c-1.4,.3,-3.4,.6,-5.7,.8c-.4,-.1,-.7,-.1,-.8,.1l-.4,.2l-.5,-.2l-.2,-.4c-.4,-3.6,-.6,-6.4,-.6,-8.3c0,-3.2,.3,-4.8,1,-4.8c.3,.2,.5,.3,.7,.4l.7,-.3l.5,.2l.1,.4c.5,4.8,.9,8.4,1.2,10.8l.2,.4l.4,.1c1.9,-.2,3.1,-.5,3.8,-.7c.3,-.1,.4,-2.2,.4,-6.1v-3.9c.1,-.5,.3,-.8,.6,-.9c.2,0,.4,-.2,.5,-.4c.1,-.2,.3,-.3,.5,-.3c.3,0,.4,.1,.5,.3c.2,.1,.4,.2,.4,.3h.6l.4,.1l.2,.5v2c0,1.9,0,4.8,-.1,8.6c-.1,3.8,-.2,6.7,-.2,8.6c-.1,.3,-.1,.5,-.2,.7c-.1,.3,-.2,.5,-.2,.6c0,1.1,-.2,1.7,-.7,1.7l.1,-.1l-.5,-.1Z" class="g0_21"/>
<image preserveAspectRatio="none" x="148" y="551" width="74" height="65" xlink:href="img/18.png"/>
<image preserveAspectRatio="none" x="151" y="553" width="66" height="57" xlink:href="img/19.png"/>
<image preserveAspectRatio="none" x="191" y="561" width="43" height="41" xlink:href="img/20.png"/>
<image preserveAspectRatio="none" x="190" y="559" width="43" height="40" xlink:href="img/21.png"/>
<image preserveAspectRatio="none" x="469" y="132" width="386" height="262" xlink:href="img/22.png"/>
<image preserveAspectRatio="none" x="476" y="140" width="123" height="119" xlink:href="img/23.png"/>
<path d="M498,233.4l-.1,-.5c0,.3,0,-.1,0,-1.3c.1,-.9,.1,-1.6,0,-2.1c-.1,-.8,-.3,-1.1,-.6,-1.1c-.4,0,-.6,.4,-.6,1.4c0,.6,0,1.1,0,1.7c-.1,.8,-.3,1.3,-.7,1.3l-.5,-.2l-.1,-.4c.2,-2.8,.4,-5.7,.5,-8.5l-.2,-.5l-.4,-.1c-1.5,.3,-3.4,.6,-5.7,.8c-.5,-.1,-.7,0,-.9,.1l-.4,.2l-.4,-.1l-.2,-.5c-.4,-3.6,-.7,-6.4,-.7,-8.3c0,-3.2,.4,-4.8,1,-4.8c.4,.2,.6,.3,.7,.4l.8,-.3l.5,.2l.1,.4c.4,4.8,.8,8.4,1.2,10.8l.2,.4l.4,.1c1.8,-.2,3.1,-.4,3.8,-.7c.3,-.1,.4,-2.1,.4,-6.1v-3.9c0,-.5,.2,-.8,.6,-.9c.2,0,.3,-.2,.5,-.4c.1,-.2,.3,-.3,.5,-.3c.2,0,.4,.1,.5,.3c.2,.2,.3,.2,.4,.3h.6l.4,.1l.2,.5v2c0,1.9,-.1,4.8,-.2,8.6c0,3.9,-.1,6.7,-.1,8.6c-.1,.3,-.2,.5,-.3,.7c-.1,.3,-.1,.5,-.2,.6c0,1.1,-.2,1.7,-.6,1.7l.1,-.1l-.5,-.1Z" class="g0_21"/>
<image preserveAspectRatio="none" x="556" y="139" width="92" height="64" xlink:href="img/24.png"/>
<image preserveAspectRatio="none" x="559" y="140" width="86" height="57" xlink:href="img/25.png"/>
<image preserveAspectRatio="none" x="622" y="146" width="44" height="43" xlink:href="img/26.png"/>
<image preserveAspectRatio="none" x="622" y="146" width="43" height="40" xlink:href="img/27.png"/>
<image preserveAspectRatio="none" x="590" y="137" width="43" height="42" xlink:href="img/28.png"/>
<image preserveAspectRatio="none" x="588" y="132" width="44" height="46" xlink:href="img/29.png"/>
<image preserveAspectRatio="none" x="532" y="276" width="117" height="98" xlink:href="img/30.png"/>
<image preserveAspectRatio="none" x="519" y="267" width="136" height="117" xlink:href="img/31.png"/>
<image preserveAspectRatio="none" x="55" y="937" width="386" height="239" xlink:href="img/32.png"/>
<image preserveAspectRatio="none" x="77" y="1064" width="56" height="55" xlink:href="img/33.png"/>
<image preserveAspectRatio="none" x="117" y="1102" width="29" height="34" xlink:href="img/34.png"/>
<path d="M134.6,1128.6c0,-6.2,-.5,-9.3,-1.4,-9.3c-.5,0,-1.4,.2,-2.4,.5c-1.3,.3,-2,.7,-2,1.1c.1,2.1,.4,4.1,1,6.1c0,.1,.3,.6,.7,1.4c.4,.6,.5,1.1,.5,1.3l.2,.4l.4,.1c1,-.1,1.9,-.4,2.7,-.9l.3,-.5v-.2Zm1.3,1.2c0,0,-.6,.3,-2,.8c-1.6,.7,-2.9,1,-4,1c-2,0,-3,-.4,-3,-1c0,0,0,-.1,.1,-.3c0,-.1,.1,-.2,.1,-.3c-1.5,-5.2,-2.2,-10.4,-2.2,-15.8c0,-3.6,.2,-5.7,.5,-6.2c.4,0,.8,0,1,.2h.4l.4,-.4l.2,-.5c.5,0,.9,.2,1.1,.5l.5,.1l.2,-.1l.3,-.3c0,-.2,.2,-.3,.5,-.3c.1,0,.3,.1,.4,.2h.4c2.2,-.5,3.5,-.8,3.9,-.9l.5,.2c.7,1.1,1.2,2,1.5,2.9c.2,.5,.5,1.6,.8,3l-.1,.5l-.4,.2h-.2c-.1,0,-.2,0,-.3,-.2l-.4,-.1l-.3,.1l-.4,.2c-.5,-.1,-.7,-.2,-.6,-.2c-.4,0,-.5,.3,-.5,.7l-.2,.4l-.4,.2c-.3,0,-.5,-.2,-.5,-.5c0,-.3,-.2,-1.2,-.7,-2.6c-.4,-1.4,-.7,-2.3,-.9,-2.7h-.5l-.6,.1l-.3,.3c-1,2.9,-1.5,5.9,-1.5,9.2l.1,.3l.2,.4l.4,.1c2,-.8,4.9,-1.2,8.7,-1.2c.4,0,.6,.1,.6,.5c0,.3,0,.6,.2,.8c.2,.1,.3,.3,.3,.5c0,3.7,-.7,7.1,-2,10.2l-.3,.2h-.4c-.2,-.1,-.3,-.2,-.6,-.2Z" class="g0_21"/>
<image preserveAspectRatio="none" x="76" y="977" width="56" height="55" xlink:href="img/35.png"/>
<image preserveAspectRatio="none" x="117" y="1014" width="29" height="35" xlink:href="img/36.png"/>
<path d="M127.5,1020.7l.2,-.4l.5,-.1c.1,.1,.3,.1,.4,.1c.2,0,.3,-.1,.5,-.3c.1,-.2,.3,-.3,.4,-.3c.2,0,.4,.1,.5,.3c.2,.2,.4,.3,.5,.3c.6,0,1.6,-.1,2.9,-.4c1.3,-.4,2.3,-.5,3,-.5c.3,0,.5,.2,.5,.5c0,.2,-.1,.3,-.2,.5l-.2,.5c.7,3.3,1.1,5.2,1.1,5.8c0,.4,-.2,.6,-.5,.6c-.1,0,-.3,0,-.5,0c-.2,-.1,-.3,-.1,-.3,0c-.1,.1,-.2,.2,-.3,.4l-.3,.3h-.5l-.3,-.4c-.1,-.2,-.2,-.3,-.5,-.3c-.1,0,-.2,0,-.4,.2c-.2,.1,-.4,.2,-.5,.2l-.4,-.2l-.2,-.4v-5.4l-.2,-.5h-.4c-.9,.1,-1.6,.3,-2,.5c-.4,.1,-.6,1.4,-.9,3.9c-.1,1.9,-.2,3.5,-.2,4.6l.2,.4l.4,.2c2.1,-.4,4,-.6,5.6,-.8h1.2c1,0,1.5,.4,1.5,1.2c0,.4,-.2,.7,-.5,.9c-.2,.3,-.4,.4,-.4,.6c0,.3,.1,.9,.3,1.8c.1,.9,.2,1.6,.2,2.1v1.2c0,.7,0,1.1,0,1.3c0,3,-.3,4.5,-.9,4.5c-.1,0,-.3,0,-.4,0c-.2,-.1,-.4,-.1,-.5,-.1c-.1,-.1,-.3,-.1,-.6,-.1c-.7,.3,-1.5,.4,-2.5,.4c-.7,0,-1.8,0,-3.2,-.2c0,0,-.2,0,-.3,.1c-.2,.1,-.3,.1,-.4,.1c-.2,0,-.4,0,-.6,-.2l-.3,-.2c-.7,0,-1,-.2,-1,-.6c0,-.4,-.1,-.6,-.4,-.7c0,-.1,-.4,-.2,-.9,-.3c-.1,-.6,-.2,-1.3,-.2,-2v-2.5l.2,-.4l.4,-.2l.4,.2l.2,.4c0,.6,.2,.8,.5,.8c.3,0,.5,-.2,.6,-.6c.1,-.3,.3,-.5,.6,-.5l.4,.2l.1,.4c0,3.1,.3,4.7,.7,4.7c1.2,.2,2.2,.3,3,.3h.4l.3,-.2c.1,-.2,.1,-.4,.1,-.5c0,-4.3,-.3,-7.6,-.9,-10c-.1,-.2,-.3,-.3,-.5,-.3c-.7,0,-1.5,.1,-2.5,.5c-.1,0,-.3,.2,-.4,.5c-.1,.3,-.3,.5,-.6,.5c-.4,-.2,-.6,-.3,-.7,-.3c-.2,0,-.5,.2,-1.2,.5h-.4l-.4,-.2v-.2c0,0,0,-.1,0,-.1l-.1,-.5c-.5,-5.2,-.7,-8.3,-.7,-9.3v-1.9l.2,-.4l.4,-.2l.5,.2l.1,.4c0,.6,.2,.8,.5,.8c.1,.1,.3,0,.4,-.1l.2,-.4l.1,-.2l.1,-.5Z" class="g0_21"/>
<image preserveAspectRatio="none" x="523" y="976" width="279" height="190" xlink:href="img/37.png"/>
<image preserveAspectRatio="none" x="516" y="966" width="288" height="203" xlink:href="img/38.png"/>
<image preserveAspectRatio="none" x="526" y="976" width="279" height="188" xlink:href="img/39.png"/>
<image preserveAspectRatio="none" x="519" y="966" width="288" height="203" xlink:href="img/40.png"/>
<image preserveAspectRatio="none" x="599" y="944" width="130" height="206" xlink:href="img/41.png"/>
<image preserveAspectRatio="none" x="601" y="944" width="121" height="198" xlink:href="img/42.png"/>
</svg>