<?xml version="1.0" encoding="UTF-8" standalone="no"?>
<!DOCTYPE svg PUBLIC "-//W3C//DTD SVG 1.1//EN"
"http://www.w3.org/Graphics/SVG/1.1/DTD/svg11.dtd">
<svg viewBox="0 0 909 1286" version="1.1" xmlns="http://www.w3.org/2000/svg" xmlns:xlink="http://www.w3.org/1999/xlink">
<defs>
<clipPath id="c0_20"><path d="M0,321.9V.1H428.1V321.9Z"/></clipPath>
<clipPath id="c1_20"><path d="M427.2,321.9V.1H856.7V321.9Z"/></clipPath>
<clipPath id="c2_20"><path d="M855.8,1286.2V.1H909V1286.2Z"/></clipPath>
<clipPath id="c3_20"><path d="M0,643.6V321H428.1V643.6Z"/></clipPath>
<clipPath id="c4_20"><path d="M427.3,643.5V321H856.6V643.5Z"/></clipPath>
<clipPath id="c5_20"><path d="M0,965.4V642.7H428.1V965.4Z"/></clipPath>
<clipPath id="c6_20"><path d="M427.3,965.2V642.8H856.6V965.2Z"/></clipPath>
<clipPath id="c7_20"><path d="M0,1286.2V964.5H428.1v321.7Z"/></clipPath>
<clipPath id="c8_20"><path d="M427.2,1286.2V964.5H856.7v321.7Z"/></clipPath>
<clipPath id="c9_20"><path d="M59.7,125V49.2H441.5V125Z"/></clipPath>
<clipPath id="ca_20"><path d="M454.3,71.4V52.5h22.2V71.4Z"/></clipPath>
<clipPath id="cb_20"><path d="M442.3,110.8V73.3H482v37.5Z"/></clipPath>
<clipPath id="cc_20"><path d="M75,196.1V166.2H189v29.9Z"/></clipPath>
<clipPath id="cd_20"><path d="M481.6,272.6V242.7h113v29.9Z"/></clipPath>
<clipPath id="ce_20"><path d="M592,355.6V310.5H762.9v45.1Z"/></clipPath>
<clipPath id="cf_20"><path d="M59.7,470.4V394.6H441.5v75.8Z"/></clipPath>
<clipPath id="cg_20"><path d="M75,541.5V511.6h95.5v29.9Z"/></clipPath>
<clipPath id="ch_20"><path d="M75,772.1V742.2h95.5v29.9Z"/></clipPath>
<clipPath id="ci_20"><path d="M75,983.1V953.2H189v29.9Z"/></clipPath>
<clipPath id="cj_20"><path d="M413.9,1248.7v-44.1H533.4v44.1Z"/></clipPath>
<clipPath id="ck_20"><path d="M466.3,201.5V125.7H888.6v75.8Z"/></clipPath>
<clipPath id="cl_20"><path d="M442.3,456.2V396.8H594.6v59.4Z"/></clipPath>
<clipPath id="cm_20"><path d="M59.7,700V625.3H482V700Z"/></clipPath>
<clipPath id="cn_20"><path d="M59.7,912V836.2H482V912Z"/></clipPath>
</defs>
<image clip-path="url(#c0_20)" preserveAspectRatio="none" x="0" y="0" width="428" height="322" xlink:href="img/1.jpg"/>
<image clip-path="url(#c1_20)" preserveAspectRatio="none" x="427" y="0" width="430" height="322" xlink:href="img/2.jpg"/>
<image clip-path="url(#c2_20)" preserveAspectRatio="none" x="856" y="0" width="54" height="1287" xlink:href="img/3.jpg"/>
<image clip-path="url(#c3_20)" preserveAspectRatio="none" x="0" y="321" width="428" height="323" xlink:href="img/4.jpg"/>
<image clip-path="url(#c4_20)" preserveAspectRatio="none" x="427" y="321" width="430" height="323" xlink:href="img/5.jpg"/>
<image clip-path="url(#c5_20)" preserveAspectRatio="none" x="0" y="643" width="428" height="322" xlink:href="img/6.jpg"/>
<image clip-path="url(#c6_20)" preserveAspectRatio="none" x="427" y="643" width="430" height="322" xlink:href="img/7.jpg"/>
<image clip-path="url(#c7_20)" preserveAspectRatio="none" x="0" y="964" width="428" height="323" xlink:href="img/8.jpg"/>
<image clip-path="url(#c8_20)" preserveAspectRatio="none" x="427" y="964" width="430" height="323" xlink:href="img/9.jpg"/>
<image clip-path="url(#c9_20)" preserveAspectRatio="none" x="60" y="49" width="382" height="76" xlink:href="img/10.jpg"/>
<image clip-path="url(#ca_20)" preserveAspectRatio="none" x="454" y="52" width="23" height="20" xlink:href="img/11.jpg"/>
<image clip-path="url(#cb_20)" preserveAspectRatio="none" x="442" y="73" width="40" height="38" xlink:href="img/12.jpg"/>
<image clip-path="url(#cc_20)" preserveAspectRatio="none" x="75" y="166" width="114" height="30" xlink:href="img/13.jpg"/>
<image clip-path="url(#cd_20)" preserveAspectRatio="none" x="482" y="243" width="113" height="30" xlink:href="img/14.jpg"/>
<image clip-path="url(#ce_20)" preserveAspectRatio="none" x="592" y="310" width="171" height="46" xlink:href="img/15.jpg"/>
<image clip-path="url(#cf_20)" preserveAspectRatio="none" x="60" y="394" width="382" height="77" xlink:href="img/16.jpg"/>
<image clip-path="url(#cg_20)" preserveAspectRatio="none" x="75" y="511" width="96" height="31" xlink:href="img/17.jpg"/>
<image clip-path="url(#ch_20)" preserveAspectRatio="none" x="75" y="742" width="96" height="30" xlink:href="img/18.jpg"/>
<image clip-path="url(#ci_20)" preserveAspectRatio="none" x="75" y="953" width="114" height="30" xlink:href="img/19.jpg"/>
<image clip-path="url(#cj_20)" preserveAspectRatio="none" x="414" y="1204" width="120" height="45" xlink:href="img/20.jpg"/>
<image clip-path="url(#ck_20)" preserveAspectRatio="none" x="466" y="126" width="423" height="76" xlink:href="img/21.jpg"/>
<image clip-path="url(#cl_20)" preserveAspectRatio="none" x="442" y="397" width="153" height="59" xlink:href="img/22.jpg"/>
<image clip-path="url(#cm_20)" preserveAspectRatio="none" x="60" y="625" width="422" height="75" xlink:href="img/23.jpg"/>
<image clip-path="url(#cn_20)" preserveAspectRatio="none" x="60" y="836" width="422" height="76" xlink:href="img/24.jpg"/>
</svg>