<?xml version="1.0" encoding="UTF-8" standalone="no"?>
<!DOCTYPE svg PUBLIC "-//W3C//DTD SVG 1.1//EN"
"http://www.w3.org/Graphics/SVG/1.1/DTD/svg11.dtd">
<svg viewBox="0 0 909 1286" version="1.1" xmlns="http://www.w3.org/2000/svg" xmlns:xlink="http://www.w3.org/1999/xlink">
<defs>
<clipPath id="c0_18"><path d="M0,321.7V.1H374.6V321.7Z"/></clipPath>
<clipPath id="c1_18"><path d="M373.6,321.7V.1H749.7V321.7Z"/></clipPath>
<clipPath id="c2_18"><path d="M748.9,804.6V.1H909V804.6Z"/></clipPath>
<clipPath id="c3_18"><path d="M0,643.6V320.8H374.6V643.6Z"/></clipPath>
<clipPath id="c4_18"><path d="M373.7,643.5V320.9H749.6V643.5Z"/></clipPath>
<clipPath id="c5_18"><path d="M0,965.4V642.7H374.6V965.4Z"/></clipPath>
<clipPath id="c6_18"><path d="M373.7,965.4V642.8H749.6V965.4Z"/></clipPath>
<clipPath id="c7_18"><path d="M748.9,1286.2V803.7H909v482.5Z"/></clipPath>
<clipPath id="c8_18"><path d="M0,1286.2V964.6H374.6v321.6Z"/></clipPath>
<clipPath id="c9_18"><path d="M373.6,1286.2V964.6H749.7v321.6Z"/></clipPath>
</defs>
<image clip-path="url(#c0_18)" preserveAspectRatio="none" x="0" y="0" width="375" height="322" xlink:href="img/1.webp"/>
<image clip-path="url(#c1_18)" preserveAspectRatio="none" x="374" y="0" width="376" height="322" xlink:href="img/2.webp"/>
<image clip-path="url(#c2_18)" preserveAspectRatio="none" x="749" y="0" width="161" height="805" xlink:href="img/3.webp"/>
<image clip-path="url(#c3_18)" preserveAspectRatio="none" x="0" y="321" width="375" height="323" xlink:href="img/4.webp"/>
<image clip-path="url(#c4_18)" preserveAspectRatio="none" x="374" y="321" width="376" height="323" xlink:href="img/5.webp"/>
<image clip-path="url(#c5_18)" preserveAspectRatio="none" x="0" y="643" width="375" height="322" xlink:href="img/6.webp"/>
<image clip-path="url(#c6_18)" preserveAspectRatio="none" x="374" y="643" width="376" height="322" xlink:href="img/7.webp"/>
<image clip-path="url(#c7_18)" preserveAspectRatio="none" x="749" y="804" width="161" height="483" xlink:href="img/8.webp"/>
<image clip-path="url(#c8_18)" preserveAspectRatio="none" x="0" y="965" width="375" height="322" xlink:href="img/9.webp"/>
<image clip-path="url(#c9_18)" preserveAspectRatio="none" x="374" y="965" width="376" height="322" xlink:href="img/10.webp"/>
</svg>