<?xml version="1.0" encoding="UTF-8" standalone="no"?>
<!DOCTYPE svg PUBLIC "-//W3C//DTD SVG 1.1//EN"
"http://www.w3.org/Graphics/SVG/1.1/DTD/svg11.dtd">
<svg viewBox="0 0 909 1286" version="1.1" xmlns="http://www.w3.org/2000/svg" xmlns:xlink="http://www.w3.org/1999/xlink">
<defs>
<clipPath id="c0_4"><path d="M0,321.5V0H427.9V321.5Z"/></clipPath>
<clipPath id="c1_4"><path d="M427,321.5V0H857.5V321.5Z"/></clipPath>
<clipPath id="c2_4"><path d="M856.5,1286.4V0H909V1286.4Z"/></clipPath>
<clipPath id="c3_4"><path d="M0,643.6v-323H427.9v323Z"/></clipPath>
<clipPath id="c4_4"><path d="M427.1,643.5V320.6H857.4V643.5Z"/></clipPath>
<clipPath id="c5_4"><path d="M0,966.1V642.7H427.9V966.1Z"/></clipPath>
<clipPath id="c6_4"><path d="M427.1,966V642.8H857.4V966Z"/></clipPath>
<clipPath id="c7_4"><path d="M0,1286.4V965.2H427.9v321.2Z"/></clipPath>
<clipPath id="c8_4"><path d="M427,1286.4V965.2H857.5v321.2Z"/></clipPath>
</defs>
<image clip-path="url(#c0_4)" preserveAspectRatio="none" x="-1" y="-1" width="429" height="323" xlink:href="img/1.webp"/>
<image clip-path="url(#c1_4)" preserveAspectRatio="none" x="427" y="-1" width="430" height="323" xlink:href="img/2.webp"/>
<image clip-path="url(#c2_4)" preserveAspectRatio="none" x="857" y="-1" width="54" height="1289" xlink:href="img/3.webp"/>
<image clip-path="url(#c3_4)" preserveAspectRatio="none" x="-1" y="321" width="429" height="323" xlink:href="img/4.webp"/>
<image clip-path="url(#c4_4)" preserveAspectRatio="none" x="427" y="321" width="430" height="323" xlink:href="img/5.webp"/>
<image clip-path="url(#c5_4)" preserveAspectRatio="none" x="-1" y="643" width="429" height="323" xlink:href="img/6.webp"/>
<image clip-path="url(#c6_4)" preserveAspectRatio="none" x="427" y="643" width="430" height="323" xlink:href="img/7.webp"/>
<image clip-path="url(#c7_4)" preserveAspectRatio="none" x="-1" y="965" width="429" height="323" xlink:href="img/8.webp"/>
<image clip-path="url(#c8_4)" preserveAspectRatio="none" x="427" y="965" width="430" height="323" xlink:href="img/9.webp"/>
</svg>