<?xml version="1.0" encoding="UTF-8" standalone="no"?>
<!DOCTYPE svg PUBLIC "-//W3C//DTD SVG 1.1//EN"
"http://www.w3.org/Graphics/SVG/1.1/DTD/svg11.dtd">
<svg viewBox="0 0 908 1285" version="1.1" xmlns="http://www.w3.org/2000/svg" xmlns:xlink="http://www.w3.org/1999/xlink">
<defs>
<clipPath id="c0_13"><path d="M-32.3,292V-32H292.4V292Z"/></clipPath>
<clipPath id="c1_13"><path d="M291.7,292V-32H616.9V292Z"/></clipPath>
<clipPath id="c2_13"><path d="M616.2,292V-32H941.1V292Z"/></clipPath>
<clipPath id="c3_13"><path d="M-32.3,616.1V291.3H292.4V616.1Z"/></clipPath>
<clipPath id="c4_13"><path d="M616.2,616.1V291.3H941.1V616.1Z"/></clipPath>
<clipPath id="c5_13"><path d="M-32.3,940.3V615.4H292.4V940.3Z"/></clipPath>
<clipPath id="c6_13"><path d="M616.2,940.3V615.4H941.1V940.3Z"/></clipPath>
<clipPath id="c7_13"><path d="M-32.3,1264.4V939.5H292.4v324.9Z"/></clipPath>
<clipPath id="c8_13"><path d="M291.7,1264.4V939.5H616.9v324.9Z"/></clipPath>
<clipPath id="c9_13"><path d="M616.2,1264.4V939.5H941.1v324.9Z"/></clipPath>
<clipPath id="ca_13"><path d="M-32.3,1317.6v-53.9H941.1v53.9Z"/></clipPath>
</defs>
<image clip-path="url(#c0_13)" preserveAspectRatio="none" x="-32" y="-32" width="324" height="324" xlink:href="img/1.jpg"/>
<image clip-path="url(#c1_13)" preserveAspectRatio="none" x="292" y="-32" width="325" height="324" xlink:href="img/2.jpg"/>
<image clip-path="url(#c2_13)" preserveAspectRatio="none" x="616" y="-32" width="326" height="324" xlink:href="img/3.jpg"/>
<image clip-path="url(#c3_13)" preserveAspectRatio="none" x="-32" y="291" width="324" height="325" xlink:href="img/4.jpg"/>
<image preserveAspectRatio="none" x="292" y="291" width="325" height="325" xlink:href="img/5.jpg"/>
<image clip-path="url(#c4_13)" preserveAspectRatio="none" x="616" y="291" width="326" height="325" xlink:href="img/6.jpg"/>
<image clip-path="url(#c5_13)" preserveAspectRatio="none" x="-32" y="615" width="324" height="325" xlink:href="img/7.jpg"/>
<image preserveAspectRatio="none" x="292" y="615" width="325" height="325" xlink:href="img/8.jpg"/>
<image clip-path="url(#c6_13)" preserveAspectRatio="none" x="616" y="615" width="326" height="325" xlink:href="img/9.jpg"/>
<image clip-path="url(#c7_13)" preserveAspectRatio="none" x="-32" y="940" width="324" height="324" xlink:href="img/10.jpg"/>
<image clip-path="url(#c8_13)" preserveAspectRatio="none" x="292" y="940" width="325" height="324" xlink:href="img/11.jpg"/>
<image clip-path="url(#c9_13)" preserveAspectRatio="none" x="616" y="940" width="326" height="324" xlink:href="img/12.jpg"/>
<image clip-path="url(#ca_13)" preserveAspectRatio="none" x="-32" y="1264" width="974" height="54" xlink:href="img/13.jpg"/>
<image preserveAspectRatio="none" x="23" y="38" width="417" height="88" xlink:href="img/14.jpg"/>
<image preserveAspectRatio="none" x="37" y="182" width="33" height="111" xlink:href="img/15.jpg"/>
<image preserveAspectRatio="none" x="21" y="295" width="82" height="77" xlink:href="img/16.jpg"/>
<image preserveAspectRatio="none" x="402" y="312" width="41" height="58" xlink:href="img/17.jpg"/>
<image preserveAspectRatio="none" x="59" y="390" width="346" height="35" xlink:href="img/18.jpg"/>
<image preserveAspectRatio="none" x="215" y="474" width="32" height="33" xlink:href="img/19.jpg"/>
<image preserveAspectRatio="none" x="215" y="551" width="32" height="33" xlink:href="img/20.jpg"/>
<image preserveAspectRatio="none" x="125" y="628" width="31" height="33" xlink:href="img/21.jpg"/>
<image preserveAspectRatio="none" x="306" y="628" width="32" height="33" xlink:href="img/22.jpg"/>
<image preserveAspectRatio="none" x="208" y="633" width="46" height="46" xlink:href="img/23.jpg"/>
<image preserveAspectRatio="none" x="402" y="680" width="30" height="506" xlink:href="img/24.jpg"/>
<image preserveAspectRatio="none" x="125" y="705" width="32" height="33" xlink:href="img/25.jpg"/>
<image preserveAspectRatio="none" x="215" y="781" width="32" height="33" xlink:href="img/26.jpg"/>
<image preserveAspectRatio="none" x="215" y="857" width="32" height="33" xlink:href="img/27.jpg"/>
<image preserveAspectRatio="none" x="215" y="908" width="32" height="34" xlink:href="img/28.jpg"/>
<image preserveAspectRatio="none" x="215" y="966" width="32" height="33" xlink:href="img/29.jpg"/>
<image preserveAspectRatio="none" x="215" y="1049" width="32" height="34" xlink:href="img/30.jpg"/>
<image preserveAspectRatio="none" x="215" y="1126" width="32" height="34" xlink:href="img/31.jpg"/>
<image preserveAspectRatio="none" x="378" y="1203" width="114" height="43" xlink:href="img/32.jpg"/>
</svg>