<?xml version="1.0" encoding="UTF-8" standalone="no"?>
<!DOCTYPE svg PUBLIC "-//W3C//DTD SVG 1.1//EN"
"http://www.w3.org/Graphics/SVG/1.1/DTD/svg11.dtd">
<svg viewBox="0 0 908 1285" version="1.1" xmlns="http://www.w3.org/2000/svg" xmlns:xlink="http://www.w3.org/1999/xlink">
<defs>
<clipPath id="c0_43"><path d="M-35.3,344.4V-36.1H345.6V344.4Z"/></clipPath>
<clipPath id="c1_43"><path d="M344.8,344.4V-36.1H727.1V344.4Z"/></clipPath>
<clipPath id="c2_43"><path d="M726.2,670.4V-36.1H944V670.4Z"/></clipPath>
<clipPath id="c3_43"><path d="M-35.3,724.6V343.5H345.6V724.6Z"/></clipPath>
<clipPath id="c4_43"><path d="M726.2,1321.6v-652H944v652Z"/></clipPath>
<clipPath id="c5_43"><path d="M-35.3,1105.2V723.7H345.6v381.5Z"/></clipPath>
<clipPath id="c6_43"><path d="M-35.3,1321.6V1104.3H672.6v217.3Z"/></clipPath>
<clipPath id="c7_43"><path d="M671.7,1321.6V1104.3h55.4v217.3Z"/></clipPath>
</defs>
<image clip-path="url(#c0_43)" preserveAspectRatio="none" x="-35" y="-36" width="381" height="380" xlink:href="img/1.webp"/>
<image clip-path="url(#c1_43)" preserveAspectRatio="none" x="345" y="-36" width="382" height="380" xlink:href="img/2.webp"/>
<image clip-path="url(#c2_43)" preserveAspectRatio="none" x="726" y="-36" width="219" height="706" xlink:href="img/3.webp"/>
<image clip-path="url(#c3_43)" preserveAspectRatio="none" x="-35" y="344" width="381" height="381" xlink:href="img/4.webp"/>
<image preserveAspectRatio="none" x="345" y="344" width="382" height="381" xlink:href="img/5.webp"/>
<image clip-path="url(#c4_43)" preserveAspectRatio="none" x="726" y="670" width="219" height="653" xlink:href="img/6.webp"/>
<image clip-path="url(#c5_43)" preserveAspectRatio="none" x="-35" y="724" width="381" height="381" xlink:href="img/7.webp"/>
<image preserveAspectRatio="none" x="345" y="724" width="382" height="381" xlink:href="img/8.webp"/>
<image clip-path="url(#c6_43)" preserveAspectRatio="none" x="-35" y="1104" width="708" height="219" xlink:href="img/9.webp"/>
<image clip-path="url(#c7_43)" preserveAspectRatio="none" x="672" y="1104" width="55" height="219" xlink:href="img/10.webp"/>
</svg>