<?xml version="1.0" encoding="UTF-8" standalone="no"?>
<!DOCTYPE svg PUBLIC "-//W3C//DTD SVG 1.1//EN"
"http://www.w3.org/Graphics/SVG/1.1/DTD/svg11.dtd">
<svg viewBox="0 0 909 1286" version="1.1" xmlns="http://www.w3.org/2000/svg" xmlns:xlink="http://www.w3.org/1999/xlink">
<defs>
<clipPath id="c0_12"><path d="M394.4,331.3V54.7H882.3V331.3Z"/></clipPath>
<clipPath id="c1_12"><path d="M488.7,1230.5V939.6H861.1v290.9Z"/></clipPath>
<style type="text/css"><![CDATA[
.g0_12{
fill: none;
stroke: #FFFFFF;
stroke-width: 1.668;
stroke-linecap: butt;
stroke-linejoin: miter;
}
.g1_12{
fill: none;
stroke: #000000;
stroke-width: 0.333;
stroke-linecap: butt;
stroke-linejoin: miter;
}
.g2_12{
fill: none;
stroke: #FFFFFF;
stroke-width: 1.909;
stroke-linecap: butt;
stroke-linejoin: miter;
}
.g3_12{
fill: none;
stroke: #000000;
stroke-width: 0.381;
stroke-linecap: butt;
stroke-linejoin: miter;
}
.g4_12{
fill: none;
stroke: #000000;
stroke-width: 0.916;
stroke-linecap: butt;
stroke-linejoin: miter;
stroke-miterlimit: 4;
}
]]></style>
</defs>
<image preserveAspectRatio="none" x="-21" y="-21" width="932" height="1329" xlink:href="../1/img/1.png"/>
<image preserveAspectRatio="none" x="-82" y="-284" width="2648" height="2268" xlink:href="img/2.png"/>
<image preserveAspectRatio="none" x="617" y="182" width="22" height="22" xlink:href="img/3.png"/>
<g clip-path="url(#c0_12)">
<path d="M-91.2,-285.4h-20m2684.8,0h20M-91.2,1984.9h-20m2684.8,0h20M-83.2,-293.4v-20m0,2306.4v20M2565.6,-293.4v-20m0,2306.4v20" class="g0_12"/>
<path d="M-91.2,-285.4h-20m2684.8,0h20M-91.2,1984.9h-20m2684.8,0h20M-83.2,-293.4v-20m0,2306.4v20M2565.6,-293.4v-20m0,2306.4v20" class="g1_12"/>
</g>
<image preserveAspectRatio="none" x="17" y="29" width="881" height="666" xlink:href="img/4.png"/>
<image preserveAspectRatio="none" x="19" y="30" width="872" height="658" xlink:href="img/5.png"/>
<image preserveAspectRatio="none" x="326" y="414" width="30" height="30" xlink:href="img/6.png"/>
<image preserveAspectRatio="none" x="352" y="414" width="29" height="30" xlink:href="img/7.png"/>
<image preserveAspectRatio="none" x="566" y="370" width="158" height="86" xlink:href="img/8.png"/>
<image preserveAspectRatio="none" x="535" y="360" width="122" height="119" xlink:href="img/9.png"/>
<image preserveAspectRatio="none" x="614" y="435" width="41" height="41" xlink:href="img/10.png"/>
<image preserveAspectRatio="none" x="542" y="374" width="48" height="44" xlink:href="img/11.png"/>
<image preserveAspectRatio="none" x="539" y="367" width="51" height="52" xlink:href="img/12.png"/>
<image preserveAspectRatio="none" x="593" y="391" width="46" height="46" xlink:href="img/13.png"/>
<image preserveAspectRatio="none" x="587" y="383" width="51" height="53" xlink:href="img/14.png"/>
<image preserveAspectRatio="none" x="489" y="90" width="93" height="107" xlink:href="img/15.png"/>
<image preserveAspectRatio="none" x="487" y="86" width="86" height="100" xlink:href="img/16.png"/>
<image preserveAspectRatio="none" x="579" y="535" width="254" height="136" xlink:href="img/17.png"/>
<image preserveAspectRatio="none" x="579" y="533" width="247" height="130" xlink:href="img/18.png"/>
<image preserveAspectRatio="none" x="674" y="606" width="39" height="37" xlink:href="img/19.png"/>
<image preserveAspectRatio="none" x="670" y="601" width="41" height="42" xlink:href="img/20.png"/>
<image preserveAspectRatio="none" x="675" y="547" width="37" height="38" xlink:href="img/21.png"/>
<image preserveAspectRatio="none" x="670" y="542" width="42" height="42" xlink:href="img/22.png"/>
<image preserveAspectRatio="none" x="706" y="596" width="38" height="36" xlink:href="img/23.png"/>
<image preserveAspectRatio="none" x="704" y="590" width="39" height="41" xlink:href="img/24.png"/>
<image preserveAspectRatio="none" x="605" y="79" width="254" height="242" xlink:href="img/25.png"/>
<image preserveAspectRatio="none" x="547" y="10" width="365" height="363" xlink:href="img/26.png"/>
<image preserveAspectRatio="none" x="-316" y="-105" width="3031" height="2598" xlink:href="img/27.png"/>
<g clip-path="url(#c1_12)">
<path d="M-326.1,-106.3H-349m3072.7,0h22.9M-326.1,2492H-349m3072.7,0h22.9M-316.9,-115.4v-23m0,2639.6v22.9M2714.5,-115.4v-23m0,2639.6v22.9" class="g2_12"/>
<path d="M-326.1,-106.3H-349m3072.7,0h22.9M-326.1,2492H-349m3072.7,0h22.9M-316.9,-115.4v-23m0,2639.6v22.9M2714.5,-115.4v-23m0,2639.6v22.9" class="g3_12"/>
</g>
<image preserveAspectRatio="none" x="17" y="926" width="871" height="324" xlink:href="img/28.png"/>
<image preserveAspectRatio="none" x="19" y="927" width="861" height="314" xlink:href="img/29.png"/>
<image preserveAspectRatio="none" x="680" y="996" width="159" height="101" xlink:href="img/30.png"/>
<image preserveAspectRatio="none" x="662" y="976" width="182" height="162" xlink:href="img/31.png"/>
<image preserveAspectRatio="none" x="636" y="1111" width="126" height="100" xlink:href="img/32.png"/>
<image preserveAspectRatio="none" x="614" y="1076" width="154" height="139" xlink:href="img/33.png"/>
<image preserveAspectRatio="none" x="211" y="979" width="58" height="61" xlink:href="img/34.png"/>
<image preserveAspectRatio="none" x="212" y="980" width="50" height="52" xlink:href="img/35.png"/>
<image preserveAspectRatio="none" x="264" y="978" width="60" height="61" xlink:href="img/36.png"/>
<image preserveAspectRatio="none" x="266" y="979" width="50" height="52" xlink:href="img/37.png"/>
<image preserveAspectRatio="none" x="128" y="1063" width="31" height="29" xlink:href="img/38.png"/>
<image preserveAspectRatio="none" x="148" y="1081" width="10" height="10" xlink:href="img/39.png"/>
<image preserveAspectRatio="none" x="258" y="1061" width="31" height="31" xlink:href="img/40.png"/>
<image preserveAspectRatio="none" x="179" y="1115" width="61" height="63" xlink:href="img/41.png"/>
<image preserveAspectRatio="none" x="181" y="1116" width="52" height="54" xlink:href="img/42.png"/>
<image preserveAspectRatio="none" x="235" y="1117" width="60" height="61" xlink:href="img/43.png"/>
<image preserveAspectRatio="none" x="237" y="1117" width="50" height="53" xlink:href="img/44.png"/>
<image preserveAspectRatio="none" x="56" y="736" width="107" height="105" xlink:href="img/45.png"/>
<path d="M56.3,717.4H853.1" class="g4_12"/>
<image preserveAspectRatio="none" x="249" y="136" width="86" height="88" xlink:href="img/46.png"/>
<image preserveAspectRatio="none" x="247" y="132" width="85" height="89" xlink:href="img/47.png"/>
<image preserveAspectRatio="none" x="185" y="148" width="87" height="89" xlink:href="img/48.png"/>
<image preserveAspectRatio="none" x="184" y="145" width="84" height="87" xlink:href="img/49.png"/>
<image preserveAspectRatio="none" x="122" y="162" width="86" height="88" xlink:href="img/50.png"/>
<image preserveAspectRatio="none" x="120" y="158" width="85" height="88" xlink:href="img/51.png"/>
<image preserveAspectRatio="none" x="729" y="362" width="85" height="87" xlink:href="img/52.png"/>
<image preserveAspectRatio="none" x="731" y="362" width="76" height="80" xlink:href="img/53.png"/>
<image preserveAspectRatio="none" x="776" y="392" width="84" height="89" xlink:href="img/54.png"/>
<image preserveAspectRatio="none" x="778" y="393" width="75" height="80" xlink:href="img/55.png"/>
<image preserveAspectRatio="none" x="200" y="541" width="84" height="88" xlink:href="img/56.png"/>
<image preserveAspectRatio="none" x="201" y="542" width="76" height="80" xlink:href="img/57.png"/>
<image preserveAspectRatio="none" x="138" y="562" width="85" height="87" xlink:href="img/58.png"/>
<image preserveAspectRatio="none" x="140" y="563" width="76" height="78" xlink:href="img/59.png"/>
<image preserveAspectRatio="none" x="76" y="582" width="86" height="89" xlink:href="img/60.png"/>
<image preserveAspectRatio="none" x="79" y="583" width="75" height="79" xlink:href="img/61.png"/>
<image preserveAspectRatio="none" x="354" y="547" width="84" height="87" xlink:href="img/62.png"/>
<image preserveAspectRatio="none" x="356" y="547" width="75" height="80" xlink:href="img/63.png"/>
<image preserveAspectRatio="none" x="400" y="577" width="84" height="89" xlink:href="img/64.png"/>
<image preserveAspectRatio="none" x="402" y="578" width="76" height="80" xlink:href="img/65.png"/>
<image preserveAspectRatio="none" x="602" y="768" width="173" height="153" xlink:href="img/66.png"/>
<image preserveAspectRatio="none" x="577" y="764" width="198" height="182" xlink:href="img/67.png"/>
<image preserveAspectRatio="none" x="553" y="768" width="173" height="153" xlink:href="img/68.png"/>
<image preserveAspectRatio="none" x="549" y="764" width="197" height="182" xlink:href="img/69.png"/>
<image preserveAspectRatio="none" x="607" y="811" width="114" height="115" xlink:href="img/70.png"/>
<image preserveAspectRatio="none" x="608" y="812" width="106" height="105" xlink:href="img/71.png"/>
</svg>