<?xml version="1.0" encoding="UTF-8" standalone="no"?>
<!DOCTYPE svg PUBLIC "-//W3C//DTD SVG 1.1//EN"
"http://www.w3.org/Graphics/SVG/1.1/DTD/svg11.dtd">
<svg viewBox="0 0 907 1284" version="1.1" xmlns="http://www.w3.org/2000/svg" xmlns:xlink="http://www.w3.org/1999/xlink">
<defs>
<clipPath id="c0_10"><path d="M0,1284.4V0H907.6V531.8H840.7V520.9H66.1v36.5H323.3v.3H66.1V627H323.3v657.4Z"/></clipPath>
<clipPath id="c1_10"><path d="M829,635.2V627h11.7V557.7H829v-.3h11.7V531.8h66.9V635.2Z"/></clipPath>
<clipPath id="c2_10"><path d="M727.7,635.2V627H829.2v8.2Zm0,-77.5v-.3H829.2v.3Z"/></clipPath>
<clipPath id="c3_10"><path d="M626.6,635.2V627H727.9v8.2Zm0,-77.5v-.3H727.9v.3Z"/></clipPath>
<clipPath id="c4_10"><path d="M525.5,635.2V627H626.8v8.2Zm0,-77.5v-.3H626.8v.3Z"/></clipPath>
<clipPath id="c5_10"><path d="M424.2,635.2V627H525.7v8.2Zm0,-77.5v-.3H525.7v.3Z"/></clipPath>
<clipPath id="c6_10"><path d="M323.3,635.2V627H424.5v8.2Zm0,-77.5v-.3H424.5v.3Z"/></clipPath>
<clipPath id="c7_10"><path d="M829,738.6V634.9h78.6V738.6Z"/></clipPath>
<clipPath id="c8_10"><path d="M727.7,738.6V634.9H829.2V738.6Z"/></clipPath>
<clipPath id="c9_10"><path d="M626.6,738.6V634.9H727.9V738.6Z"/></clipPath>
<clipPath id="ca_10"><path d="M525.5,738.6V634.9H626.8V738.6Z"/></clipPath>
<clipPath id="cb_10"><path d="M424.2,738.6V634.9H525.7V738.6Z"/></clipPath>
<clipPath id="cc_10"><path d="M323.3,738.6V634.9H424.5V738.6Z"/></clipPath>
<clipPath id="cd_10"><path d="M829,841.9V738.4h78.6V841.9Z"/></clipPath>
<clipPath id="ce_10"><path d="M727.7,841.9V738.4H829.2V841.9Z"/></clipPath>
<clipPath id="cf_10"><path d="M626.6,841.9V738.4H727.9V841.9Z"/></clipPath>
<clipPath id="cg_10"><path d="M525.5,841.9V738.4H626.8V841.9Z"/></clipPath>
<clipPath id="ch_10"><path d="M424.2,841.9V738.4H525.7V841.9Z"/></clipPath>
<clipPath id="ci_10"><path d="M323.3,841.9V738.4H424.5V841.9Z"/></clipPath>
<clipPath id="cj_10"><path d="M829,945.3V841.7h78.6V945.3Z"/></clipPath>
<clipPath id="ck_10"><path d="M727.7,945.3V841.7H829.2V945.3Z"/></clipPath>
<clipPath id="cl_10"><path d="M626.6,945.3V841.7H727.9V945.3Z"/></clipPath>
<clipPath id="cm_10"><path d="M525.5,945.3V841.7H626.8V945.3Z"/></clipPath>
<clipPath id="cn_10"><path d="M424.2,945.3V841.7H525.7V945.3Z"/></clipPath>
<clipPath id="co_10"><path d="M323.3,945.3V841.7H424.5V945.3Z"/></clipPath>
<clipPath id="cp_10"><path d="M829,1048.7V945.1h78.6v103.6Z"/></clipPath>
<clipPath id="cq_10"><path d="M727.7,1048.7V945.1H829.2v103.6Z"/></clipPath>
<clipPath id="cr_10"><path d="M626.6,1048.7V945.1H727.9v103.6Z"/></clipPath>
<clipPath id="cs_10"><path d="M525.5,1048.7V945.1H626.8v103.6Z"/></clipPath>
<clipPath id="ct_10"><path d="M424.2,1048.7V945.1H525.7v103.6Z"/></clipPath>
<clipPath id="cu_10"><path d="M323.3,1048.7V945.1H424.5v103.6Z"/></clipPath>
<clipPath id="cv_10"><path d="M829,1152.1V1048.5h78.6v103.6Z"/></clipPath>
<clipPath id="cw_10"><path d="M727.7,1152.1V1048.5H829.2v103.6Z"/></clipPath>
<clipPath id="cx_10"><path d="M626.6,1152.1V1048.5H727.9v103.6Z"/></clipPath>
<clipPath id="cy_10"><path d="M525.5,1152.1V1048.5H626.8v103.6Z"/></clipPath>
<clipPath id="cz_10"><path d="M424.2,1152.1V1048.5H525.7v103.6Z"/></clipPath>
<clipPath id="c10_10"><path d="M323.3,1152.1V1048.5H424.5v103.6Z"/></clipPath>
<clipPath id="c11_10"><path d="M829,1255.5V1151.9h78.6v103.6H885.9v-1.9H873.2v1.9Z"/></clipPath>
<clipPath id="c12_10"><path d="M727.7,1255.5V1151.9H829.2v103.6Z"/></clipPath>
<clipPath id="c13_10"><path d="M626.6,1255.5V1151.9H727.9v103.6Z"/></clipPath>
<clipPath id="c14_10"><path d="M525.5,1255.5V1151.9H626.8v103.6Z"/></clipPath>
<clipPath id="c15_10"><path d="M424.2,1255.5V1151.9H525.7v103.6Z"/></clipPath>
<clipPath id="c16_10"><path d="M323.3,1255.5V1151.9H424.5v103.6Z"/></clipPath>
<clipPath id="c17_10"><path d="M677.2,1284.4v-29.1h196v11.2h12.7v-11.2h21.7v29.1Z"/></clipPath>
<clipPath id="c18_10"><path d="M424.2,1284.4v-29.1H677.4v29.1Z"/></clipPath>
<clipPath id="c19_10"><path d="M323.3,1284.4v-29.1H424.5v29.1Z"/></clipPath>
<clipPath id="c1a_10"><path d="M873.2,1266.5v-12.9h12.7v12.9Z"/></clipPath>
<clipPath id="c1b_10"><path d="M876.9,1266.1l-.2,-.1l-.1,-.3c0,0,0,-.1,.1,-.2c0,-.1,-.1,-.2,0,-.2l-.1,-.3h-.3c-.1,0,-.2,.1,-.2,.3c-.1,.2,-.2,.3,-.4,.3c-.2,0,-.3,-.1,-.3,-.3c0,-.3,0,-.6,-.1,-1c-.2,-.4,-.3,-.7,-.2,-.9c0,0,-.1,-.5,0,-1.5c0,-.3,0,-1.4,0,-3.4c0,-1.4,0,-2.5,0,-3.4l-.1,-.2h-.3c-.6,.3,-1,.5,-1.3,.7l-.2,-.1v-.4c.2,-.3,.6,-.6,1.4,-.8c.9,-.4,1.5,-.6,1.9,-.6q.1,0,.2,.2l.2,.1l.5,-.2c.2,0,.2,.1,.3,.3c0,3,-.2,6.9,-.5,11.8l-.1,.2h-.2Zm4.4,.3c-.6,0,-1,0,-1.1,-.1l-.1,-.2c0,-.1,0,-.3,.1,-.4c-.1,-.1,-.1,-.3,-.3,-.3c-.1,0,-.2,.1,-.3,.2c-.1,.2,-.2,.2,-.3,.2c-.1,0,-.2,-.1,-.3,-.2c-.3,-1.1,-.6,-1.8,-.5,-2.2c0,-.2,0,-.4,.1,-.5l.2,-.1c.1,0,.2,.1,.3,.1l.2,.2l.2,-.2l.2,-.2l.2,-.1l.2,.1h.1c.1,.6,.1,1.1,.3,1.7c.2,.9,.3,1.4,.6,1.4h.4c.3,0,.5,0,.6,0q.1,0,.2,0c.2,0,.4,-1.2,.4,-3.2c0,-.2,-.1,-.4,-.1,-.7c-.1,-.3,-.1,-.6,-.1,-.7c0,-.1,0,-.2,0,-.2c0,-.1,0,-.2,0,-.2l-.1,-.1c-.1,-.1,-.2,-.1,-.2,-.2c-.1,0,-.2,0,-.2,0l-.3,-.1c-.5,.2,-1,.2,-1.3,.2l-.3,-.1v-.4l.3,-.1c.8,0,1.6,-.3,2.3,-.7c.1,-.1,.2,-.5,.2,-1.1c0,-.5,0,-.9,0,-1.3c.1,-1.7,-.1,-2.6,-.4,-2.6c-.1,0,-.2,0,-.2,0c-.4,0,-.9,0,-1.3,.2l-.2,.2c-.1,.6,-.2,1.2,-.2,1.8c0,.8,-.2,1.1,-.4,1.2c-.2,0,-.3,-.2,-.4,-.6c0,-.3,-.2,-.5,-.3,-.5h-.1c-.1,0,-.2,.1,-.3,.4c0,.3,0,.4,0,.7l-.1,.2h-.3c-.2,0,-.3,-.6,-.3,-1.6c0,-.2,0,-.6,0,-.9c0,-.3,0,-.6,0,-.8l.1,-.2l.2,-.1c0,0,.1,0,.1,0c.2,0,.4,-.1,.4,-.3c.1,-.2,.1,-.3,.2,-.4h.3c0,0,.1,.1,.2,.2c.1,.2,.1,.3,.3,.3c0,0,.1,-.1,.2,-.2c.1,-.1,.2,-.1,.3,-.1c-.1,0,0,0,.3,0c.3,-.1,.7,-.1,1.1,-.2h1.6c.5,0,1.1,.1,1.8,.2c.2,0,.3,.1,.3,.4c0,.1,-.1,.1,-.3,.2c-.2,.1,-.3,.1,-.3,.3v4.6c0,.3,-.1,.3,-.3,.4c-.2,0,-.3,-.1,-.3,-.3l-.2,-.2h-.2c-.8,.4,-1.2,.7,-1.2,.8c0,.1,.2,.3,.8,.6c.6,.3,1,.5,1,.6c.4,.3,.6,1.1,.6,2.5c0,.3,0,.9,0,1.9l-.1,.3H885c-.1,0,-.2,0,-.3,-.1h.1l-.2,-.2l-.2,.1c-.7,.5,-1.7,.7,-3.1,.7Z"/></clipPath>
<clipPath id="c1c_10"><path d="M685.5,627V557.7H840.7V627Z"/></clipPath>
<clipPath id="c1d_10"><path d="M530.2,627V557.7H685.7V627Z"/></clipPath>
<clipPath id="c1e_10"><path d="M374.9,627V557.7H530.4V627Z"/></clipPath>
<clipPath id="c1f_10"><path d="M323.3,627V557.7h51.8V627Z"/></clipPath>
<clipPath id="c1g_10"><path d="M323.3,557.4V531.8H840.7v25.6Z"/></clipPath>
<clipPath id="c1h_10"><path d="M0,1284.4V0H907.6V1284.4Z"/></clipPath>
<style type="text/css"><![CDATA[
.g0_10{
fill: #41110B;
}
.g1_10{
fill: #FFFFFF;
}
.g2_10{
fill: #EAE4D4;
}
.g3_10{
fill: #F0F0F0;
}
.g4_10{
fill: none;
stroke: #231916;
stroke-width: 2.291;
stroke-linecap: butt;
stroke-linejoin: miter;
stroke-miterlimit: 4;
}
.g5_10{
fill: none;
stroke: #231916;
stroke-width: 0.763;
stroke-linecap: butt;
stroke-linejoin: miter;
}
.g6_10{
fill: none;
stroke: #FFFFFF;
stroke-width: 1.909;
stroke-linecap: butt;
stroke-linejoin: miter;
}
.g7_10{
fill: none;
stroke: #000000;
stroke-width: 0.381;
stroke-linecap: butt;
stroke-linejoin: miter;
}
]]></style>
</defs>
<image clip-path="url(#c0_10)" preserveAspectRatio="none" x="0" y="-22" width="930" height="1329" xlink:href="img/1.webp"/>
<path d="M66.2,520.7H840.9V436.1H66.2v84.6Z" class="g0_10"/>
<path d="M66.1,627H840.7V557.7H66.1V627Z" class="g1_10"/>
<path d="M66.1,557.4H840.7V520.9H66.1v36.5Z" class="g2_10"/>
<image clip-path="url(#c1_10)" preserveAspectRatio="none" x="829" y="532" width="101" height="103" xlink:href="img/2.webp"/>
<image clip-path="url(#c2_10)" preserveAspectRatio="none" x="728" y="532" width="101" height="103" xlink:href="img/3.webp"/>
<image clip-path="url(#c3_10)" preserveAspectRatio="none" x="627" y="532" width="101" height="103" xlink:href="img/4.webp"/>
<image clip-path="url(#c4_10)" preserveAspectRatio="none" x="525" y="532" width="102" height="103" xlink:href="img/5.webp"/>
<image clip-path="url(#c5_10)" preserveAspectRatio="none" x="424" y="532" width="102" height="103" xlink:href="img/6.webp"/>
<image clip-path="url(#c6_10)" preserveAspectRatio="none" x="323" y="532" width="101" height="103" xlink:href="img/7.webp"/>
<image clip-path="url(#c7_10)" preserveAspectRatio="none" x="829" y="635" width="101" height="104" xlink:href="img/8.webp"/>
<image clip-path="url(#c8_10)" preserveAspectRatio="none" x="728" y="635" width="101" height="104" xlink:href="img/9.webp"/>
<image clip-path="url(#c9_10)" preserveAspectRatio="none" x="627" y="635" width="101" height="104" xlink:href="img/10.webp"/>
<image clip-path="url(#ca_10)" preserveAspectRatio="none" x="525" y="635" width="102" height="104" xlink:href="img/11.webp"/>
<image clip-path="url(#cb_10)" preserveAspectRatio="none" x="424" y="635" width="102" height="104" xlink:href="img/12.webp"/>
<image clip-path="url(#cc_10)" preserveAspectRatio="none" x="323" y="635" width="101" height="104" xlink:href="img/13.webp"/>
<image clip-path="url(#cd_10)" preserveAspectRatio="none" x="829" y="738" width="101" height="104" xlink:href="img/14.webp"/>
<image clip-path="url(#ce_10)" preserveAspectRatio="none" x="728" y="738" width="101" height="104" xlink:href="img/15.webp"/>
<image clip-path="url(#cf_10)" preserveAspectRatio="none" x="627" y="738" width="101" height="104" xlink:href="img/16.webp"/>
<image clip-path="url(#cg_10)" preserveAspectRatio="none" x="525" y="738" width="102" height="104" xlink:href="img/17.webp"/>
<image clip-path="url(#ch_10)" preserveAspectRatio="none" x="424" y="738" width="102" height="104" xlink:href="img/18.webp"/>
<image clip-path="url(#ci_10)" preserveAspectRatio="none" x="323" y="738" width="101" height="104" xlink:href="img/19.webp"/>
<image clip-path="url(#cj_10)" preserveAspectRatio="none" x="829" y="842" width="101" height="103" xlink:href="img/20.webp"/>
<image clip-path="url(#ck_10)" preserveAspectRatio="none" x="728" y="842" width="101" height="103" xlink:href="img/21.webp"/>
<image clip-path="url(#cl_10)" preserveAspectRatio="none" x="627" y="842" width="101" height="103" xlink:href="img/22.webp"/>
<image clip-path="url(#cm_10)" preserveAspectRatio="none" x="525" y="842" width="102" height="103" xlink:href="img/23.webp"/>
<image clip-path="url(#cn_10)" preserveAspectRatio="none" x="424" y="842" width="102" height="103" xlink:href="img/24.webp"/>
<image clip-path="url(#co_10)" preserveAspectRatio="none" x="323" y="842" width="101" height="103" xlink:href="img/25.webp"/>
<image clip-path="url(#cp_10)" preserveAspectRatio="none" x="829" y="945" width="101" height="104" xlink:href="img/26.webp"/>
<image clip-path="url(#cq_10)" preserveAspectRatio="none" x="728" y="945" width="101" height="104" xlink:href="img/27.webp"/>
<image clip-path="url(#cr_10)" preserveAspectRatio="none" x="627" y="945" width="101" height="104" xlink:href="img/28.webp"/>
<image clip-path="url(#cs_10)" preserveAspectRatio="none" x="525" y="945" width="102" height="104" xlink:href="img/29.webp"/>
<image clip-path="url(#ct_10)" preserveAspectRatio="none" x="424" y="945" width="102" height="104" xlink:href="img/30.webp"/>
<image clip-path="url(#cu_10)" preserveAspectRatio="none" x="323" y="945" width="101" height="104" xlink:href="img/31.webp"/>
<image clip-path="url(#cv_10)" preserveAspectRatio="none" x="829" y="1048" width="101" height="104" xlink:href="img/32.webp"/>
<image clip-path="url(#cw_10)" preserveAspectRatio="none" x="728" y="1048" width="101" height="104" xlink:href="img/33.webp"/>
<image clip-path="url(#cx_10)" preserveAspectRatio="none" x="627" y="1048" width="101" height="104" xlink:href="img/34.webp"/>
<image clip-path="url(#cy_10)" preserveAspectRatio="none" x="525" y="1048" width="102" height="104" xlink:href="img/35.webp"/>
<image clip-path="url(#cz_10)" preserveAspectRatio="none" x="424" y="1048" width="102" height="104" xlink:href="img/36.webp"/>
<image clip-path="url(#c10_10)" preserveAspectRatio="none" x="323" y="1048" width="101" height="104" xlink:href="img/37.webp"/>
<image clip-path="url(#c11_10)" preserveAspectRatio="none" x="829" y="1152" width="101" height="104" xlink:href="img/38.webp"/>
<image clip-path="url(#c12_10)" preserveAspectRatio="none" x="728" y="1152" width="101" height="104" xlink:href="img/39.webp"/>
<image clip-path="url(#c13_10)" preserveAspectRatio="none" x="627" y="1152" width="101" height="104" xlink:href="img/40.webp"/>
<image clip-path="url(#c14_10)" preserveAspectRatio="none" x="525" y="1152" width="102" height="104" xlink:href="img/41.webp"/>
<image clip-path="url(#c15_10)" preserveAspectRatio="none" x="424" y="1152" width="102" height="104" xlink:href="img/42.webp"/>
<image clip-path="url(#c16_10)" preserveAspectRatio="none" x="323" y="1152" width="101" height="104" xlink:href="img/43.webp"/>
<image clip-path="url(#c17_10)" preserveAspectRatio="none" x="677" y="1255" width="253" height="52" xlink:href="img/44.webp"/>
<image clip-path="url(#c18_10)" preserveAspectRatio="none" x="424" y="1255" width="253" height="52" xlink:href="img/45.webp"/>
<image clip-path="url(#c19_10)" preserveAspectRatio="none" x="323" y="1255" width="101" height="52" xlink:href="img/46.webp"/>
<image clip-path="url(#c1a_10)" preserveAspectRatio="none" x="873" y="1253" width="13" height="14" xlink:href="img/47.webp"/>
<image clip-path="url(#c1b_10)" preserveAspectRatio="none" x="873" y="1253" width="13" height="14" xlink:href="img/48.webp"/>
<image clip-path="url(#c1c_10)" preserveAspectRatio="none" x="685" y="558" width="156" height="69" xlink:href="img/49.webp"/>
<image clip-path="url(#c1d_10)" preserveAspectRatio="none" x="530" y="558" width="156" height="69" xlink:href="img/50.webp"/>
<image clip-path="url(#c1e_10)" preserveAspectRatio="none" x="375" y="558" width="155" height="69" xlink:href="img/51.webp"/>
<image clip-path="url(#c1f_10)" preserveAspectRatio="none" x="323" y="558" width="52" height="69" xlink:href="img/52.webp"/>
<image clip-path="url(#c1g_10)" preserveAspectRatio="none" x="323" y="532" width="518" height="26" xlink:href="img/53.webp"/>
<path d="M66.1,836.6H840.7V767.4H66.1v69.2Z" class="g3_10"/>
<path d="M66.1,766.7H840.7V697.4H66.1v69.3Z" class="g1_10"/>
<path d="M66.1,697.2H840.7V627.9H66.1v69.3Z" class="g3_10"/>
<path d="M65.6,835.9H840.7V437.3H65.6V835.9Z" class="g4_10"/>
<path d="M477.6,201.8H842.5m-364.9,95H842.5" class="g5_10"/>
<g clip-path="url(#c1h_10)">
<path d="M-10,-.8H-32.9m950.6,0h22.9M-10,1285.3H-32.9m950.6,0h22.9M-.8,-10V-32.9m0,1327.4v22.9M908.5,-10V-32.9m0,1327.4v22.9" class="g6_10"/>
<path d="M-10,-.8H-32.9m950.6,0h22.9M-10,1285.3H-32.9m950.6,0h22.9M-.8,-10V-32.9m0,1327.4v22.9M908.5,-10V-32.9m0,1327.4v22.9" class="g7_10"/>
</g>
</svg>