<?xml version="1.0" encoding="UTF-8" standalone="no"?>
<!DOCTYPE svg PUBLIC "-//W3C//DTD SVG 1.1//EN"
"http://www.w3.org/Graphics/SVG/1.1/DTD/svg11.dtd">
<svg viewBox="0 0 908 1286" version="1.1" xmlns="http://www.w3.org/2000/svg" xmlns:xlink="http://www.w3.org/1999/xlink">
<defs>
<clipPath id="c0_11"><path d="M0,1285.7V0H909V1285.7Z"/></clipPath>
<clipPath id="c1_11"><path d="M25.4,236.2V29H909V236.2Z"/></clipPath>
<clipPath id="c2_11"><path d="M813.7,196.1V169.4h26.6v26.7Z"/></clipPath>
<clipPath id="c3_11"><path d="M.3,750.3V243.8H909V750.3Z"/></clipPath>
<clipPath id="c4_11"><path d="M26,1240.1v-77H909v77Z"/></clipPath>
<clipPath id="c5_11"><path d="M55.2,927.8V809.4H177.6V927.8Z"/></clipPath>
<clipPath id="c6_11"><path d="M134,924.9V883.8h41.1v41.1Z"/></clipPath>
<clipPath id="c7_11"><path d="M516,1143.3v-52.2H806.4v52.2Z"/></clipPath>
<style type="text/css"><![CDATA[
.g0_11{
fill: #FFFFFF;
}
.g1_11{
}
.g2_11{
fill: none;
stroke: #FFFFFF;
stroke-width: 1.119;
stroke-linecap: butt;
stroke-linejoin: miter;
}
.g3_11{
fill: none;
stroke: #FFFFFF;
stroke-width: 1.527;
stroke-linecap: butt;
stroke-linejoin: miter;
}
.g4_11{
fill: none;
stroke: #000000;
stroke-width: 0.916;
stroke-linecap: butt;
stroke-linejoin: miter;
}
.g5_11{
fill: none;
stroke: #FFFFFF;
stroke-width: 0.916;
stroke-linecap: butt;
stroke-linejoin: miter;
}
]]></style>
</defs>
<g clip-path="url(#c0_11)">
<path d="M0,522.1H909V1807.8H0V522.1Z" class="g0_11"/>
<image preserveAspectRatio="none" x="-1" y="-21" width="932" height="1328" xlink:href="img/1.jpg"/>
</g>
<image clip-path="url(#c1_11)" preserveAspectRatio="none" x="25" y="29" width="884" height="207" xlink:href="img/2.png"/>
<image clip-path="url(#c2_11)" preserveAspectRatio="none" x="814" y="169" width="26" height="27" xlink:href="img/3.png"/>
<image clip-path="url(#c3_11)" preserveAspectRatio="none" x="0" y="243" width="909" height="508" xlink:href="img/4.png"/>
<image clip-path="url(#c4_11)" preserveAspectRatio="none" x="26" y="1163" width="883" height="77" xlink:href="img/5.png"/>
<path d="M250.3,1025.2c6,0,10.9,-4.9,10.9,-10.9c0,-6,-4.9,-10.9,-10.9,-10.9c-6,0,-10.9,4.9,-10.9,10.9c0,6,4.9,10.9,10.9,10.9Z" class="g1_11"/>
<path d="M250.3,1025.2c6,0,10.9,-4.9,10.9,-10.9c0,-6,-4.9,-10.9,-10.9,-10.9c-6,0,-10.9,4.9,-10.9,10.9c0,6,4.9,10.9,10.9,10.9Z" class="g2_11"/>
<image clip-path="url(#c5_11)" preserveAspectRatio="none" x="55" y="809" width="123" height="119" xlink:href="img/6.png"/>
<image clip-path="url(#c6_11)" preserveAspectRatio="none" x="134" y="884" width="41" height="41" xlink:href="img/7.png"/>
<path d="M134.3,895.3c8.2,0,14.9,-6.7,14.9,-15c0,-8.2,-6.7,-14.9,-14.9,-14.9c-8.3,0,-15,6.7,-15,14.9c0,8.3,6.7,15,15,15Z" class="g1_11"/>
<path d="M134.3,895.3c8.2,0,14.9,-6.7,14.9,-15c0,-8.2,-6.7,-14.9,-14.9,-14.9c-8.3,0,-15,6.7,-15,14.9c0,8.3,6.7,15,15,15Z" class="g3_11"/>
<path d="M56.3,797H852.8" class="g4_11"/>
<path d="M56.3,74.6H852.8M56.3,168.9H852.8" class="g5_11"/>
<image clip-path="url(#c7_11)" preserveAspectRatio="none" x="516" y="1091" width="291" height="53" xlink:href="img/8.png"/>
<path d="M56.3,1203.3H852.8" class="g5_11"/>
<path d="M878.3,1254.5c0,-.2,-.1,-.3,-.3,-.3l-.5,.2l-.2,-.2q-.1,-.1,-.2,-.1c-.4,0,-1,.2,-1.9,.5c-1,.4,-1.5,.8,-1.5,1.1l.1,.2l.2,.1c.3,-.2,.7,-.4,1.3,-.7h.3l.1,.2c0,.9,0,2,0,3.4c0,2,0,3.1,0,3.3c0,1.1,0,1.6,0,1.6c0,.2,0,.5,.2,.9c.1,.4,.1,.7,.1,1c0,.2,.1,.3,.3,.3c.2,0,.3,-.1,.4,-.3c0,-.2,.1,-.3,.2,-.3h.3v.3c0,0,0,.1,0,.2c0,.1,0,.2,0,.2l.1,.2l.2,.1h.2l.1,-.2c.3,-4.9,.5,-8.8,.5,-11.7Z" class="g1_11"/>
<path d="M883.5,1254.5c0,-.2,-.1,-.3,-.3,-.3l-.5,.2l-.2,-.2c0,-.1,-.1,-.1,-.1,-.1c-.4,0,-1.1,.2,-2,.5c-.9,.4,-1.4,.8,-1.4,1.1l.1,.2l.2,.1c.3,-.2,.7,-.4,1.2,-.7h.3l.1,.2c.1,.9,.1,2,.1,3.4c-.1,2,-.1,3.1,-.1,3.3c0,1.1,0,1.6,0,1.6c0,.2,.1,.5,.2,.9c.1,.4,.2,.7,.2,1c0,.2,.1,.3,.3,.3c.2,0,.3,-.1,.3,-.3c.1,-.2,.1,-.3,.3,-.3h.2l.1,.3c0,0,0,.1,0,.2c0,.1,0,.2,0,.2l.1,.2l.1,.1h.3l.1,-.2c.3,-4.9,.4,-8.8,.4,-11.7Z" class="g1_11"/>
</svg>