<?xml version="1.0" encoding="UTF-8" standalone="no"?>
<!DOCTYPE svg PUBLIC "-//W3C//DTD SVG 1.1//EN"
"http://www.w3.org/Graphics/SVG/1.1/DTD/svg11.dtd">
<svg viewBox="0 0 909 1286" version="1.1" xmlns="http://www.w3.org/2000/svg" xmlns:xlink="http://www.w3.org/1999/xlink">
<defs>
<clipPath id="c0_5"><path d="M797.9,378.8c-19.4,0,-35.1,-15.7,-35.1,-35.1c0,-19.4,15.7,-35.1,35.1,-35.1c19.4,0,35.1,15.7,35.1,35.1c0,19.4,-15.7,35.1,-35.1,35.1Z"/></clipPath>
<style type="text/css"><![CDATA[
.g0_5{
}
.g1_5{
fill: none;
stroke: #000000;
stroke-width: 0.916;
stroke-linecap: butt;
stroke-linejoin: miter;
stroke-miterlimit: 4;
}
.g2_5{
fill: none;
stroke: #FFFFFF;
stroke-width: 1.347;
stroke-linecap: butt;
stroke-linejoin: miter;
stroke-miterlimit: 4;
}
.g3_5{
fill: #FFFFFF;
}
.g4_5{
fill: none;
stroke: #FFFFFF;
stroke-width: 0.916;
stroke-linecap: butt;
stroke-linejoin: miter;
stroke-miterlimit: 4;
}
]]></style>
</defs>
<image preserveAspectRatio="none" x="-1" y="-21" width="932" height="1329" xlink:href="../1/img/1.webp"/>
<path d="M68.3,394c6.6,0,11.9,-5.4,11.9,-12c0,-6.6,-5.3,-11.9,-11.9,-11.9c-6.6,0,-12,5.3,-12,11.9c0,6.6,5.4,12,12,12Z" class="g0_5"/>
<path d="M68.3,421.1c6.6,0,11.9,-5.3,11.9,-11.9c0,-6.6,-5.3,-12,-11.9,-12c-6.6,0,-12,5.4,-12,12c0,6.6,5.4,11.9,12,11.9Z" class="g0_5"/>
<path d="M68.3,448.3c6.6,0,11.9,-5.4,11.9,-12c0,-6.6,-5.3,-11.9,-11.9,-11.9c-6.6,0,-12,5.3,-12,11.9c0,6.6,5.4,12,12,12Z" class="g0_5"/>
<path d="M68.3,476.5c6.6,0,11.9,-5.3,11.9,-11.9c0,-6.6,-5.3,-12,-11.9,-12c-6.6,0,-12,5.4,-12,12c0,6.6,5.4,11.9,12,11.9Z" class="g0_5"/>
<image preserveAspectRatio="none" x="-1" y="507" width="450" height="497" xlink:href="img/2.webp"/>
<image preserveAspectRatio="none" x="150" y="568" width="182" height="268" xlink:href="img/3.webp"/>
<image preserveAspectRatio="none" x="152" y="569" width="172" height="258" xlink:href="img/4.webp"/>
<path d="M56.3,1031.4H439.6" class="g1_5"/>
<image preserveAspectRatio="none" x="136" y="1045" width="217" height="130" xlink:href="img/5.webp"/>
<image preserveAspectRatio="none" x="138" y="1046" width="209" height="120" xlink:href="img/6.webp"/>
<image preserveAspectRatio="none" x="151" y="81" width="199" height="293" xlink:href="img/7.webp"/>
<image preserveAspectRatio="none" x="153" y="82" width="189" height="284" xlink:href="img/8.webp"/>
<path d="M178.7,102.6c7.3,0,13.2,-5.9,13.2,-13.2c0,-7.3,-5.9,-13.2,-13.2,-13.2c-7.3,0,-13.2,5.9,-13.2,13.2c0,7.3,5.9,13.2,13.2,13.2Z" class="g0_5"/>
<path d="M218.2,159.5c7.3,0,13.2,-5.9,13.2,-13.2c0,-7.3,-5.9,-13.2,-13.2,-13.2c-7.3,0,-13.2,5.9,-13.2,13.2c0,7.3,5.9,13.2,13.2,13.2Z" class="g0_5"/>
<path d="M307.3,326.4c7.3,0,13.2,-5.9,13.2,-13.2c0,-7.2,-5.9,-13.1,-13.2,-13.1c-7.3,0,-13.2,5.9,-13.2,13.1c0,7.3,5.9,13.2,13.2,13.2Z" class="g0_5"/>
<path d="M307.3,326.4c7.3,0,13.2,-5.9,13.2,-13.2c0,-7.2,-5.9,-13.1,-13.2,-13.1c-7.3,0,-13.2,5.9,-13.2,13.1c0,7.3,5.9,13.2,13.2,13.2Z" class="g2_5"/>
<path d="M162.9,313.2c7.3,0,13.2,-5.9,13.2,-13.1c0,-7.3,-5.9,-13.2,-13.2,-13.2c-7.3,0,-13.2,5.9,-13.2,13.2c0,7.2,5.9,13.1,13.2,13.1Z" class="g0_5"/>
<path d="M469.7,75.2H853" class="g1_5"/>
<image preserveAspectRatio="none" x="546" y="79" width="231" height="131" xlink:href="img/9.webp"/>
<image preserveAspectRatio="none" x="669" y="308" width="80" height="78" xlink:href="img/10.webp"/>
<image preserveAspectRatio="none" x="670" y="307" width="74" height="73" xlink:href="img/11.webp"/>
<image preserveAspectRatio="none" x="487" y="308" width="80" height="78" xlink:href="img/12.webp"/>
<image preserveAspectRatio="none" x="488" y="307" width="74" height="74" xlink:href="img/13.webp"/>
<image preserveAspectRatio="none" x="579" y="308" width="79" height="78" xlink:href="img/14.webp"/>
<image preserveAspectRatio="none" x="579" y="307" width="74" height="74" xlink:href="img/15.webp"/>
<image preserveAspectRatio="none" x="761" y="308" width="79" height="78" xlink:href="img/16.webp"/>
<g clip-path="url(#c0_5)">
<path d="M641.3,656.5H919.8V246.8H641.3V656.5Z" class="g3_5"/>
</g>
<image preserveAspectRatio="none" x="640" y="246" width="280" height="413" opacity="0.800003" xlink:href="img/17.webp"/>
<image preserveAspectRatio="none" x="678" y="274" width="205" height="41" xlink:href="img/18.webp"/>
<image preserveAspectRatio="none" x="720" y="310" width="179" height="310" xlink:href="img/19.webp"/>
<path d="M469.9,302.7H853.1M469.7,566H853M469.9,911.2H853.1M469.9,720.4H853.1" class="g1_5"/>
<image preserveAspectRatio="none" x="625" y="576" width="79" height="79" xlink:href="img/20.webp"/>
<image preserveAspectRatio="none" x="625" y="574" width="73" height="74" xlink:href="img/21.webp"/>
<image preserveAspectRatio="none" x="518" y="735" width="84" height="82" xlink:href="img/22.webp"/>
<image preserveAspectRatio="none" x="516" y="730" width="83" height="83" xlink:href="img/23.webp"/>
<image preserveAspectRatio="none" x="608" y="926" width="112" height="67" xlink:href="img/24.webp"/>
<image preserveAspectRatio="none" x="609" y="925" width="104" height="61" xlink:href="img/25.webp"/>
<path d="M469.9,1065.8H853.1" class="g1_5"/>
<image preserveAspectRatio="none" x="616" y="1078" width="96" height="69" xlink:href="img/26.webp"/>
<image preserveAspectRatio="none" x="618" y="1079" width="87" height="59" xlink:href="img/27.webp"/>
<image preserveAspectRatio="none" x="688" y="733" width="82" height="84" xlink:href="img/28.webp"/>
<image preserveAspectRatio="none" x="685" y="730" width="83" height="83" xlink:href="img/29.webp"/>
<path d="M56.3,561.1H439.6" class="g4_5"/>
</svg>