<?xml version="1.0" encoding="UTF-8" standalone="no"?>
<!DOCTYPE svg PUBLIC "-//W3C//DTD SVG 1.1//EN"
"http://www.w3.org/Graphics/SVG/1.1/DTD/svg11.dtd">
<svg viewBox="0 0 909 1286" version="1.1" xmlns="http://www.w3.org/2000/svg" xmlns:xlink="http://www.w3.org/1999/xlink">
<defs>
<clipPath id="c0_10"><path d="M386.9,779.5V556.9H874.8V779.5Z"/></clipPath>
<clipPath id="c1_10"><path d="M574.5,1192.2V997H866.8v195.2Z"/></clipPath>
<clipPath id="c2_10"><path d="M699.2,1171.5c-7.3,0,-7.3,-7.2,-7.3,-7.3V1017.8c0,-7.3,7.3,-7.3,7.3,-7.3h92.7c7.4,0,7.4,7.3,7.4,7.3v146.4c0,7.3,-7.4,7.3,-7.4,7.3Z"/></clipPath>
<clipPath id="c3_10"><path d="M790,901.7c-8.6,0,-8.7,-8.5,-8.7,-8.7V787.9c0,-8.7,8.7,-8.7,8.7,-8.7h63.9c8.6,0,8.6,8.7,8.6,8.7V893c0,8.7,-8.6,8.7,-8.6,8.7Z"/></clipPath>
<style type="text/css"><![CDATA[
.g0_10{
}
.g1_10{
fill: none;
stroke: #FFFFFF;
stroke-width: 1.119;
stroke-linecap: butt;
stroke-linejoin: miter;
stroke-miterlimit: 4;
}
.g2_10{
fill: none;
stroke: #FFFFFF;
stroke-width: 1.176;
stroke-linecap: butt;
stroke-linejoin: miter;
stroke-miterlimit: 4;
}
.g3_10{
fill: none;
stroke: #FFFFFF;
stroke-width: 1.527;
stroke-linecap: butt;
stroke-linejoin: miter;
stroke-miterlimit: 4;
}
.g4_10{
fill: none;
stroke: #000000;
stroke-width: 0.916;
stroke-linecap: butt;
stroke-linejoin: miter;
stroke-miterlimit: 4;
}
.g5_10{
fill: none;
stroke: #FFFFFF;
stroke-width: 1.297;
stroke-linecap: butt;
stroke-linejoin: miter;
}
.g6_10{
fill: none;
stroke: #000000;
stroke-width: 0.259;
stroke-linecap: butt;
stroke-linejoin: miter;
}
.g7_10{
fill: #FFFFFF;
}
.g8_10{
fill: none;
stroke: #FFFFFF;
stroke-width: 0.54;
stroke-linecap: butt;
stroke-linejoin: miter;
stroke-miterlimit: 4;
}
.g9_10{
fill: none;
stroke: #FFFFFF;
stroke-width: 0.409;
stroke-linecap: butt;
stroke-linejoin: miter;
stroke-miterlimit: 4;
}
.ga_10{
fill: none;
stroke: #CD071E;
stroke-width: 3.055;
stroke-linecap: butt;
stroke-linejoin: miter;
stroke-miterlimit: 4;
}
.gb_10{
fill: none;
stroke: #FFFFFF;
stroke-width: 0.916;
stroke-linecap: butt;
stroke-linejoin: miter;
stroke-miterlimit: 4;
}
]]></style>
</defs>
<image preserveAspectRatio="none" x="-21" y="-21" width="932" height="1329" xlink:href="../1/img/1.webp"/>
<image preserveAspectRatio="none" x="56" y="261" width="21" height="20" xlink:href="img/2.webp"/>
<image preserveAspectRatio="none" x="269" y="261" width="20" height="20" xlink:href="img/3.webp"/>
<path d="M746.9,171.7c6,0,10.9,-4.9,10.9,-10.9c0,-6,-4.9,-10.9,-10.9,-10.9c-6.1,0,-11,4.9,-11,10.9c0,6,4.9,10.9,11,10.9Z" class="g0_10"/>
<path d="M746.9,171.7c6,0,10.9,-4.9,10.9,-10.9c0,-6,-4.9,-10.9,-10.9,-10.9c-6.1,0,-11,4.9,-11,10.9c0,6,4.9,10.9,11,10.9Z" class="g1_10"/>
<image preserveAspectRatio="none" x="497" y="224" width="28" height="22" xlink:href="img/4.webp"/>
<path d="M708.8,383.1c6.4,0,11.5,-5.1,11.5,-11.5c0,-6.3,-5.1,-11.5,-11.5,-11.5c-6.3,0,-11.5,5.2,-11.5,11.5c0,6.4,5.2,11.5,11.5,11.5Z" class="g0_10"/>
<path d="M708.8,383.1c6.4,0,11.5,-5.1,11.5,-11.5c0,-6.3,-5.1,-11.5,-11.5,-11.5c-6.3,0,-11.5,5.2,-11.5,11.5c0,6.4,5.2,11.5,11.5,11.5Z" class="g2_10"/>
<image preserveAspectRatio="none" x="68" y="90" width="123" height="118" xlink:href="img/5.webp"/>
<image preserveAspectRatio="none" x="147" y="164" width="41" height="41" xlink:href="img/6.webp"/>
<path d="M89.7,182.9l-.1,-.4c0,.3,0,-.2,.1,-1.4c0,-.9,0,-1.6,-.1,-2.1c-.1,-.7,-.3,-1.1,-.6,-1.1c-.4,0,-.6,.5,-.6,1.5c0,.5,0,1.1,0,1.7c-.1,.8,-.3,1.2,-.7,1.2l-.5,-.1l-.1,-.4c.2,-2.9,.4,-5.7,.5,-8.6l-.1,-.4l-.5,-.1c-1.5,.3,-3.4,.5,-5.7,.7c-.5,0,-.7,0,-.9,.2l-.4,.2l-.4,-.2l-.2,-.4c-.4,-3.7,-.7,-6.4,-.7,-8.3c0,-3.3,.4,-4.9,1.1,-4.8c.3,.2,.5,.3,.6,.4l.8,-.4l.5,.2l.1,.4c.4,4.9,.8,8.5,1.2,10.9l.2,.3l.4,.2c1.9,-.3,3.1,-.5,3.8,-.7c.3,-.2,.4,-2.2,.4,-6.1v-4c.1,-.5,.2,-.7,.6,-.8c.2,-.1,.3,-.2,.5,-.4c.1,-.3,.3,-.4,.5,-.4c.2,.1,.4,.2,.5,.4c.2,.1,.3,.2,.4,.3h.4l.2,-.1l.4,.2l.2,.4V163c0,1.9,-.1,4.8,-.2,8.6c0,3.8,-.1,6.7,-.1,8.6c-.1,.2,-.2,.5,-.3,.7c-.1,.3,-.1,.5,-.1,.6c0,1.1,-.3,1.6,-.7,1.6h.1l-.5,-.2Z" class="g3_10"/>
<path d="M72.2,210.4c8.3,0,15,-6.7,15,-15c0,-8.2,-6.7,-14.9,-15,-14.9c-8.2,0,-14.9,6.7,-14.9,14.9c0,8.3,6.7,15,14.9,15Z" class="g0_10"/>
<path d="M72.2,210.4c8.3,0,15,-6.7,15,-15c0,-8.2,-6.7,-14.9,-15,-14.9c-8.2,0,-14.9,6.7,-14.9,14.9c0,8.3,6.7,15,14.9,15Z" class="g3_10"/>
<path d="M149.3,175.6c8.3,0,15,-6.7,15,-14.9c0,-8.3,-6.7,-15,-15,-15c-8.2,0,-14.9,6.7,-14.9,15c0,8.2,6.7,14.9,14.9,14.9Z" class="g0_10"/>
<path d="M149.3,175.6c8.3,0,15,-6.7,15,-14.9c0,-8.3,-6.7,-15,-15,-15c-8.2,0,-14.9,6.7,-14.9,15c0,8.2,6.7,14.9,14.9,14.9Z" class="g3_10"/>
<path d="M56.3,73.8H853.1" class="g4_10"/>
<image preserveAspectRatio="none" x="-1" y="426" width="868" height="75" xlink:href="img/7.webp"/>
<image preserveAspectRatio="none" x="-6" y="385" width="2058" height="1765" xlink:href="img/8.webp"/>
<image preserveAspectRatio="none" x="864" y="616" width="17" height="17" xlink:href="img/9.webp"/>
<image preserveAspectRatio="none" x="537" y="748" width="17" height="18" xlink:href="img/10.webp"/>
<g clip-path="url(#c0_10)">
<path d="M-13.6,385.1H-29.2m2087.8,0h15.6M-13.6,2150.7H-29.2m2087.8,0h15.6M-7.4,378.8V363.3m0,1793.6v15.6M2052.4,378.8V363.3m0,1793.6v15.6" class="g5_10"/>
<path d="M-13.6,385.1H-29.2m2087.8,0h15.6M-13.6,2150.7H-29.2m2087.8,0h15.6M-7.4,378.8V363.3m0,1793.6v15.6M2052.4,378.8V363.3m0,1793.6v15.6" class="g6_10"/>
</g>
<image preserveAspectRatio="none" x="-126" y="811" width="2059" height="1765" xlink:href="img/11.webp"/>
<image preserveAspectRatio="none" x="745" y="1042" width="17" height="17" xlink:href="img/12.webp"/>
<g clip-path="url(#c1_10)">
<path d="M-132.9,810.9h-15.6m2087.9,0h15.5M-132.9,2576.5h-15.6m2087.9,0h15.5M-126.7,804.6V789.1m0,1793.6v15.6M1933.1,804.6V789.1m0,1793.6v15.6" class="g5_10"/>
<path d="M-132.9,810.9h-15.6m2087.9,0h15.5M-132.9,2576.5h-15.6m2087.9,0h15.5M-126.7,804.6V789.1m0,1793.6v15.6M1933.1,804.6V789.1m0,1793.6v15.6" class="g6_10"/>
</g>
<image preserveAspectRatio="none" x="691" y="1010" width="114" height="169" xlink:href="img/13.webp"/>
<g clip-path="url(#c2_10)">
<path d="M685.7,1180H805.9V1001H685.7v179Z" class="g7_10"/>
</g>
<image preserveAspectRatio="none" x="685" y="1002" width="121" height="178" opacity="0.800003" xlink:href="img/14.webp"/>
<image preserveAspectRatio="none" x="679" y="998" width="133" height="186" opacity="0.350006" xlink:href="img/15.webp"/>
<image preserveAspectRatio="none" x="701" y="1014" width="89" height="18" xlink:href="img/16.webp"/>
<image preserveAspectRatio="none" x="779" y="1145" width="13" height="19" xlink:href="img/17.webp"/>
<image preserveAspectRatio="none" x="700" y="1070" width="33" height="32" xlink:href="img/18.webp"/>
<image preserveAspectRatio="none" x="708" y="1094" width="37" height="24" xlink:href="img/19.webp"/>
<image preserveAspectRatio="none" x="723" y="1096" width="19" height="20" xlink:href="img/20.webp"/>
<image preserveAspectRatio="none" x="700" y="1119" width="33" height="33" xlink:href="img/21.webp"/>
<image preserveAspectRatio="none" x="708" y="1144" width="60" height="23" xlink:href="img/22.webp"/>
<image preserveAspectRatio="none" x="743" y="1146" width="22" height="18" xlink:href="img/23.webp"/>
<image preserveAspectRatio="none" x="723" y="1145" width="19" height="20" xlink:href="img/24.webp"/>
<g clip-path="url(#c2_10)">
<path d="M722.8,1021.9c-.1,-.2,-.2,-.3,-.3,-.4c-.1,-.1,-.3,-.2,-.6,-.2c.1,-.1,.2,-.2,.2,-.3c.1,-.1,.1,-.2,.2,-.3c0,-.1,0,-.2,0,-.3c0,-.2,-.1,-.4,-.2,-.6c-.2,-.1,-.4,-.3,-.7,-.4c-.2,-.1,-.6,-.2,-1,-.2c-.3,-.1,-.8,-.1,-1.2,-.1c-.3,0,-.6,0,-.9,0c-.3,0,-.5,0,-.8,0c-.3,0,-.5,.1,-.7,.1c0,.3,.1,.6,.1,.9c0,.3,0,.5,0,.7c0,.2,0,.4,0,.6c0,.2,0,.4,0,.6c0,.2,0,.5,0,.8c0,.3,0,.6,-.1,1c.2,0,.3,0,.5,0c.2,0,.4,0,.5,0c.2,0,.4,0,.6,0c.2,0,.3,0,.5,0c.4,0,.8,0,1.2,0c1,.1,1.7,-.1,2.1,-.3c.5,-.3,.7,-.7,.7,-1.1c0,-.2,0,-.4,-.1,-.5Zm-2.1,.8c-.2,.1,-.6,.1,-1.1,.1c-.1,0,-.2,0,-.3,0c-.1,0,-.2,0,-.4,0c-.1,0,-.3,-.1,-.4,-.1c0,-.2,0,-.3,0,-.5v-1.9c.4,-.1,.8,-.1,1.1,-.1c.1,0,.2,0,.4,0c.1,.1,.2,.1,.3,.1c.1,0,.2,.1,.3,.1c0,.1,0,.2,0,.3c0,.1,0,.2,-.1,.3c-.1,0,-.3,.1,-.5,.1c-.1,.1,-.4,.1,-.8,.1l.7,.9c.1,0,.2,0,.2,0q.1,-.1,.2,-.1c0,0,.1,0,.1,0c0,0,.1,0,.1,0c.1,0,.1,-.1,.2,-.1c0,0,.1,0,.1,0c.1,0,.1,.1,.1,.2q.1,0,.1,.1c0,.2,-.1,.4,-.3,.5Zm9,.6c-.3,-.4,-.6,-.8,-.9,-1.1c-.2,-.3,-.4,-.6,-.6,-.8c-.2,-.3,-.4,-.6,-.5,-.8c-.2,-.2,-.3,-.5,-.5,-.7c-.1,-.2,-.3,-.5,-.4,-.8c-.2,-.2,-.4,-.5,-.5,-.8l-1.5,.5l.5,.8c-.1,.3,-.3,.5,-.4,.7c-.1,.2,-.2,.4,-.3,.6c-.1,.2,-.2,.4,-.3,.6c-.2,.1,-.3,.3,-.4,.5c-.2,.2,-.3,.3,-.5,.5c-.2,.2,-.4,.5,-.6,.7l1.2,.8l.7,-.8h3.1l.5,.8l1.4,-.7Zm-2.7,-1.1h-1.6c.1,-.1,.1,-.2,.2,-.2c0,-.1,.1,-.2,.1,-.3c0,0,.1,-.1,.1,-.1c0,-.1,.1,-.2,.1,-.2c0,-.1,.1,-.1,.1,-.2c.1,-.1,.1,-.2,.2,-.3l.8,1.3Zm8.8,-3.2h-6.2l-.9,1.3h1.7c-.2,.2,-.3,.4,-.4,.6c-.1,.1,-.2,.3,-.2,.4c0,.2,-.1,.4,-.1,.5c.1,.5,.2,.9,.5,1.2c.2,.2,.3,.3,.5,.5c.2,.1,.5,.2,.8,.3c.2,.1,.6,.2,1,.2c.4,.1,.8,.1,1.3,.1l.9,-1.3c-.4,0,-.7,0,-1,0c-.3,0,-.6,0,-.8,0c-.3,-.1,-.5,-.1,-.6,-.2c-.2,-.1,-.3,-.2,-.4,-.3c-.2,-.2,-.4,-.4,-.4,-.7c0,-.1,0,-.2,.1,-.4c0,-.1,.1,-.2,.2,-.4c.1,-.1,.3,-.3,.5,-.5h2.2l1.3,-1.3Zm6.3,0h-6.2l-.9,1.3h1.7c-.2,.2,-.3,.4,-.4,.6c-.1,.1,-.1,.3,-.2,.4c0,.2,-.1,.4,-.1,.5c.1,.5,.2,.9,.5,1.2c.2,.2,.3,.3,.5,.5c.2,.1,.5,.2,.8,.3c.3,.1,.6,.2,1,.2c.4,.1,.8,.1,1.3,.1l.9,-1.3c-.4,0,-.7,0,-1,0c-.3,0,-.6,0,-.8,0c-.3,-.1,-.5,-.1,-.6,-.2c-.2,-.1,-.3,-.2,-.4,-.3c-.2,-.2,-.4,-.4,-.4,-.7c0,-.1,0,-.2,.1,-.4c0,-.1,.1,-.2,.2,-.4c.1,-.1,.3,-.3,.5,-.5h2.2l1.3,-1.3Zm3.9,3.7h-2c0,-.3,0,-.5,0,-.8c0,-.3,0,-.5,0,-.7c0,-.2,0,-.5,0,-.7c0,-.2,0,-.4,0,-.7c0,-.3,0,-.6,0,-.9c0,-.3,0,-.7,0,-1.1l-1.7,.7c0,.3,0,.6,0,.9c0,.3,0,.6,0,.8c0,.3,0,.5,0,.7c0,.3,0,.5,0,.8c0,.3,0,.6,0,.9c0,.4,-.1,.8,-.1,1.2c.2,0,.4,0,.6,0c.2,-.1,.4,-.1,.6,-.1c.2,0,.4,0,.6,0h.9c.2,0,.4,0,.6,0l.5,-1Zm6.7,-.2c-.3,0,-.6,0,-.8,0c-.2,.1,-.4,.1,-.6,.1c-.2,0,-.4,0,-.6,0c-.2,0,-.5,0,-.8,0c-.2,0,-.5,-.1,-.8,-.1c-.2,-.1,-.5,-.2,-.7,-.3c-.2,-.1,-.3,-.2,-.4,-.3h2.2v-1H748v-.2q.1,0,.1,0c0,0,0,-.1,0,-.1c0,0,.1,-.1,.1,-.1h3.2l.5,-1.4h-4.6c-.3,.3,-.5,.7,-.7,1c-.2,.3,-.3,.6,-.4,.9c0,.3,-.1,.6,-.1,.8c0,.2,.1,.4,.2,.6c.1,.2,.3,.3,.5,.5c.2,.1,.4,.2,.7,.3c.3,.1,.6,.2,.9,.3c.3,.1,.6,.2,1,.2c.3,.1,.6,.1,.9,.1c.3,.1,.6,.1,.9,.1c.3,0,.5,0,.7,0l.8,-1.4Zm8.8,.8c-.3,-.4,-.6,-.8,-.8,-1.1c-.3,-.3,-.5,-.6,-.6,-.8c-.2,-.3,-.4,-.6,-.6,-.8c-.1,-.2,-.3,-.5,-.4,-.7c-.2,-.2,-.3,-.5,-.5,-.8c-.1,-.2,-.3,-.5,-.5,-.8l-1.4,.5l.5,.8c-.2,.3,-.3,.5,-.4,.7c-.1,.2,-.2,.4,-.3,.6c-.2,.2,-.3,.4,-.4,.6c-.1,.1,-.2,.3,-.4,.5c-.1,.2,-.2,.3,-.4,.5c-.2,.2,-.4,.5,-.6,.7l1.2,.8l.7,-.8h3l.5,.8l1.4,-.7Zm-2.6,-1.1h-1.6c0,-.1,.1,-.2,.1,-.2c.1,-.1,.1,-.2,.2,-.3c0,0,0,-.1,.1,-.1c0,-.1,0,-.2,.1,-.2c0,-.1,.1,-.1,.1,-.2c0,-.1,.1,-.2,.1,-.3l.9,1.3Zm8.8,-2.5l-1.2,-.9c-.2,.1,-.3,.2,-.4,.3c-.2,.1,-.3,.2,-.4,.3c-.1,0,-.2,.1,-.3,.2c-.1,.1,-.2,.2,-.3,.3c-.1,.1,-.2,.2,-.3,.3c-.1,0,-.2,.1,-.2,.2c-.2,-.2,-.3,-.3,-.4,-.4c-.1,-.2,-.2,-.3,-.3,-.4c-.1,-.1,-.2,-.2,-.3,-.3c-.1,-.1,-.2,-.2,-.2,-.3c-.1,-.1,-.2,-.1,-.3,-.2c-.1,-.1,-.1,-.2,-.2,-.2c-.1,0,-.1,.1,-.2,.2c-.1,0,-.1,.1,-.2,.2c0,0,-.1,.1,-.1,.1c-.1,.1,-.1,.2,-.2,.2c0,.1,-.1,.1,-.2,.2c0,.1,-.1,.1,-.2,.2c.2,.1,.3,.2,.4,.3c.1,.1,.2,.2,.3,.2c0,.1,.1,.2,.2,.3c.1,0,.2,.1,.3,.2c0,.1,.1,.2,.2,.3c.1,.2,.2,.3,.4,.4l-1.9,2c.1,.1,.2,.1,.3,.2c0,0,.1,.1,.2,.1c0,0,.1,.1,.2,.1c0,0,.1,.1,.1,.1c.1,0,.2,.1,.3,.1c0,.1,.1,.1,.3,.2c.1,-.2,.2,-.3,.3,-.4c.1,-.1,.1,-.2,.2,-.3c.1,-.1,.2,-.2,.2,-.3c.1,-.1,.2,-.1,.3,-.2c0,-.1,.1,-.2,.2,-.3c.1,-.1,.2,-.2,.3,-.3l1.7,1.8c.1,-.1,.2,-.2,.2,-.2c.1,-.1,.2,-.2,.2,-.2l.2,-.2c0,0,.1,-.1,.1,-.1c.1,0,.1,-.1,.2,-.1c0,-.1,.1,-.2,.2,-.2c-.2,-.2,-.3,-.3,-.5,-.4c-.1,-.2,-.2,-.3,-.3,-.3l-.3,-.3c0,0,-.1,-.1,-.2,-.2c-.2,-.1,-.3,-.3,-.6,-.6c.1,-.1,.2,-.2,.3,-.3c.2,-.1,.3,-.2,.4,-.3c.1,-.1,.2,-.2,.3,-.3c.1,-.1,.2,-.2,.4,-.3c.1,-.1,.2,-.1,.3,-.2c.2,-.1,.3,-.2,.5,-.3Zm6.4,2.8c-.3,0,-.6,0,-.8,0c-.2,.1,-.4,.1,-.6,.1c-.2,0,-.4,0,-.6,0c-.2,0,-.5,0,-.8,0c-.2,0,-.5,-.1,-.8,-.1c-.2,-.1,-.5,-.2,-.7,-.3c-.2,-.1,-.3,-.2,-.4,-.3h2.2v-1h-2.2v-.2q.1,0,.1,0c0,0,0,-.1,0,-.1c0,0,.1,-.1,.1,-.1h3.2l.5,-1.4h-4.6c-.3,.3,-.5,.7,-.7,1c-.2,.3,-.3,.6,-.4,.9c0,.3,-.1,.6,-.1,.8c0,.2,.1,.4,.2,.6c.1,.2,.3,.3,.5,.5c.2,.1,.4,.2,.7,.3c.3,.1,.6,.2,.9,.3c.3,.1,.6,.2,1,.2c.3,.1,.6,.1,.9,.1c.3,.1,.6,.1,.9,.1c.3,0,.5,0,.7,0l.8,-1.4Z" class="g8_10"/>
</g>
<image x="716" y="1019" width="7" height="5" xlink:href="shade/1.webp"/>
<image x="722" y="1018" width="8" height="7" xlink:href="shade/2.webp"/>
<image x="728" y="1019" width="9" height="6" xlink:href="shade/3.webp"/>
<image x="734" y="1019" width="8" height="6" xlink:href="shade/4.webp"/>
<image x="742" y="1017" width="6" height="7" xlink:href="shade/5.webp"/>
<image x="746" y="1019" width="8" height="6" xlink:href="shade/6.webp"/>
<image x="754" y="1018" width="9" height="7" xlink:href="shade/7.webp"/>
<image x="761" y="1018" width="7" height="7" xlink:href="shade/8.webp"/>
<image x="767" y="1019" width="8" height="6" xlink:href="shade/9.webp"/>
<image preserveAspectRatio="none" x="714" y="1025" width="91" height="145" xlink:href="img/25.webp"/>
<image preserveAspectRatio="none" x="613" y="1034" width="126" height="83" xlink:href="img/26.webp"/>
<image preserveAspectRatio="none" x="611" y="1006" width="121" height="127" xlink:href="img/27.webp"/>
<image preserveAspectRatio="none" x="516" y="692" width="81" height="79" xlink:href="img/28.webp"/>
<image preserveAspectRatio="none" x="498" y="676" width="103" height="97" xlink:href="img/29.webp"/>
<image preserveAspectRatio="none" x="535" y="556" width="198" height="192" xlink:href="img/30.webp"/>
<image preserveAspectRatio="none" x="517" y="532" width="227" height="225" xlink:href="img/31.webp"/>
<image preserveAspectRatio="none" x="20" y="535" width="874" height="679" xlink:href="img/32.webp"/>
<image preserveAspectRatio="none" x="22" y="535" width="865" height="671" xlink:href="img/33.webp"/>
<image preserveAspectRatio="none" x="558" y="817" width="28" height="28" xlink:href="img/34.webp"/>
<image preserveAspectRatio="none" x="582" y="817" width="28" height="28" xlink:href="img/35.webp"/>
<image preserveAspectRatio="none" x="606" y="817" width="28" height="28" xlink:href="img/36.webp"/>
<image preserveAspectRatio="none" x="397" y="836" width="28" height="28" xlink:href="img/37.webp"/>
<image preserveAspectRatio="none" x="726" y="594" width="120" height="80" xlink:href="img/38.webp"/>
<image preserveAspectRatio="none" x="724" y="567" width="115" height="122" xlink:href="img/39.webp"/>
<image preserveAspectRatio="none" x="451" y="593" width="82" height="126" xlink:href="img/40.webp"/>
<image preserveAspectRatio="none" x="443" y="585" width="83" height="127" xlink:href="img/41.webp"/>
<image preserveAspectRatio="none" x="311" y="890" width="126" height="68" xlink:href="img/42.webp"/>
<image preserveAspectRatio="none" x="286" y="882" width="98" height="95" xlink:href="img/43.webp"/>
<image preserveAspectRatio="none" x="350" y="941" width="32" height="33" xlink:href="img/44.webp"/>
<image preserveAspectRatio="none" x="96" y="888" width="154" height="76" xlink:href="img/45.webp"/>
<path d="M308,958.1l-.1,-.4c0,.3,0,-.2,.1,-1.4c0,-.9,0,-1.6,0,-2.1c-.1,-.7,-.3,-1.1,-.6,-1.1c-.4,0,-.6,.5,-.6,1.5c-.1,.5,-.1,1.1,-.1,1.7c0,.8,-.3,1.2,-.7,1.2l-.4,-.1l-.2,-.4c.3,-2.9,.5,-5.7,.6,-8.6l-.2,-.4l-.5,-.1c-1.4,.3,-3.3,.5,-5.7,.7c-.4,0,-.7,0,-.8,.2l-.4,.2l-.4,-.2l-.3,-.4c-.4,-3.7,-.6,-6.4,-.6,-8.3c0,-3.3,.3,-4.9,1,-4.8c.3,.2,.5,.3,.7,.4l.8,-.4l.4,.2l.2,.4c.4,4.9,.8,8.5,1.2,10.9l.1,.3l.4,.2c1.9,-.3,3.2,-.5,3.8,-.7c.3,-.2,.5,-2.2,.5,-6.1v-4c0,-.5,.2,-.7,.6,-.8c.1,-.1,.3,-.2,.4,-.4c.2,-.3,.3,-.4,.6,-.4c.2,.1,.4,.2,.4,.4c.3,.1,.4,.2,.5,.3h.3l.2,-.1l.5,.2l.1,.4v2.1c0,1.9,0,4.8,-.1,8.6c-.1,3.8,-.1,6.7,-.1,8.6c-.1,.2,-.2,.5,-.3,.7c-.1,.3,-.2,.5,-.2,.6c0,1.1,-.2,1.6,-.6,1.6l-.5,-.2Z" class="g3_10"/>
<image preserveAspectRatio="none" x="211" y="898" width="108" height="52" xlink:href="img/46.webp"/>
<image preserveAspectRatio="none" x="214" y="899" width="100" height="46" xlink:href="img/47.webp"/>
<image preserveAspectRatio="none" x="171" y="894" width="38" height="36" xlink:href="img/48.webp"/>
<image preserveAspectRatio="none" x="168" y="887" width="41" height="42" xlink:href="img/49.webp"/>
<image preserveAspectRatio="none" x="206" y="906" width="38" height="38" xlink:href="img/50.webp"/>
<image preserveAspectRatio="none" x="202" y="900" width="41" height="42" xlink:href="img/51.webp"/>
<image preserveAspectRatio="none" x="177" y="929" width="38" height="38" xlink:href="img/52.webp"/>
<image preserveAspectRatio="none" x="174" y="923" width="43" height="42" xlink:href="img/53.webp"/>
<image preserveAspectRatio="none" x="655" y="895" width="68" height="70" xlink:href="img/54.webp"/>
<image preserveAspectRatio="none" x="657" y="896" width="59" height="62" xlink:href="img/55.webp"/>
<image preserveAspectRatio="none" x="538" y="881" width="69" height="72" xlink:href="img/56.webp"/>
<image preserveAspectRatio="none" x="540" y="883" width="59" height="61" xlink:href="img/57.webp"/>
<image preserveAspectRatio="none" x="490" y="895" width="69" height="72" xlink:href="img/58.webp"/>
<image preserveAspectRatio="none" x="493" y="897" width="59" height="62" xlink:href="img/59.webp"/>
<image preserveAspectRatio="none" x="445" y="910" width="67" height="71" xlink:href="img/60.webp"/>
<image preserveAspectRatio="none" x="446" y="910" width="59" height="62" xlink:href="img/61.webp"/>
<image preserveAspectRatio="none" x="779" y="779" width="86" height="127" xlink:href="img/62.webp"/>
<g clip-path="url(#c3_10)">
<path d="M776.7,908.1h90.9V772H776.7V908.1Z" class="g7_10"/>
</g>
<image preserveAspectRatio="none" x="776" y="773" width="92" height="135" opacity="0.800003" xlink:href="img/63.webp"/>
<image preserveAspectRatio="none" x="772" y="769" width="100" height="142" opacity="0.350006" xlink:href="img/64.webp"/>
<image preserveAspectRatio="none" x="789" y="782" width="67" height="14" xlink:href="img/65.webp"/>
<image preserveAspectRatio="none" x="847" y="882" width="10" height="14" xlink:href="img/66.webp"/>
<image preserveAspectRatio="none" x="787" y="824" width="25" height="25" xlink:href="img/67.webp"/>
<image preserveAspectRatio="none" x="794" y="843" width="27" height="18" xlink:href="img/68.webp"/>
<image preserveAspectRatio="none" x="805" y="844" width="15" height="15" xlink:href="img/69.webp"/>
<image preserveAspectRatio="none" x="787" y="862" width="25" height="25" xlink:href="img/70.webp"/>
<image preserveAspectRatio="none" x="794" y="881" width="45" height="17" xlink:href="img/71.webp"/>
<image preserveAspectRatio="none" x="820" y="883" width="17" height="13" xlink:href="img/72.webp"/>
<image preserveAspectRatio="none" x="805" y="881" width="15" height="15" xlink:href="img/73.webp"/>
<g clip-path="url(#c3_10)">
<path d="M804.7,787.8c0,-.1,-.1,-.2,-.2,-.2c-.1,-.1,-.3,-.2,-.5,-.2c.1,-.1,.2,-.1,.2,-.2c0,-.1,.1,-.1,.1,-.2c0,-.1,0,-.2,0,-.3c0,-.1,0,-.3,-.1,-.4c-.2,-.1,-.3,-.2,-.5,-.3c-.2,-.1,-.5,-.2,-.8,-.2c-.3,0,-.6,-.1,-.9,-.1c-.3,0,-.5,.1,-.7,.1c-.2,0,-.4,0,-.6,0c-.2,0,-.4,0,-.5,0c0,.3,0,.5,0,.7c0,.2,0,.4,.1,.5c0,.2,0,.4,0,.5c0,.1,0,.3,0,.5c0,.1,-.1,.3,-.1,.5c0,.3,0,.5,0,.8c.1,0,.2,0,.4,0c.1,0,.2,0,.4,0c.1,0,.2,0,.4,0c.1,0,.2,0,.4,0c.3,.1,.6,.1,.9,.1c.7,0,1.2,-.1,1.6,-.3c.3,-.2,.5,-.5,.5,-.9c0,-.1,0,-.2,-.1,-.4Zm-1.6,.7c-.2,.1,-.4,.1,-.8,.1c-.1,0,-.2,0,-.3,0c0,-.1,-.1,-.1,-.2,-.1c-.1,0,-.2,0,-.4,0c.1,-.1,.1,-.3,.1,-.4v-1.4c.3,-.1,.5,-.1,.8,-.1c.1,0,.2,0,.3,0q.1,0,.2,.1c.1,0,.2,0,.2,.1c.1,0,.1,.1,.1,.1c0,.1,-.1,.2,-.2,.3c0,0,-.1,.1,-.3,.1c-.1,0,-.3,.1,-.6,0l.5,.7q.1,0,.2,0c0,0,.1,0,.1,0c0,0,.1,0,.1,0c0,0,0,-.1,.1,-.1c0,0,.1,0,.1,0c0,0,.1,0,.1,0q.1,0,.1,.1c0,0,0,.1,0,.1c0,.2,-.1,.3,-.2,.4Zm6.8,.4c-.2,-.3,-.4,-.5,-.6,-.8c-.2,-.2,-.4,-.4,-.5,-.6c-.2,-.2,-.3,-.4,-.4,-.6c-.1,-.2,-.2,-.4,-.4,-.6c-.1,-.1,-.2,-.3,-.3,-.5c-.1,-.2,-.2,-.4,-.4,-.6l-1.1,.3l.4,.6c-.1,.2,-.2,.4,-.3,.6c-.1,.1,-.2,.3,-.2,.4c-.1,.2,-.2,.3,-.3,.4c-.1,.2,-.2,.3,-.3,.5c-.1,.1,-.2,.2,-.3,.4c-.2,.1,-.3,.3,-.5,.4l.9,.6l.5,-.5h2.4l.3,.6l1.1,-.6Zm-2,-.8h-1.2c0,-.1,.1,-.1,.1,-.2c0,0,.1,-.1,.1,-.1c0,-.1,.1,-.1,.1,-.2c0,0,0,-.1,.1,-.1q0,-.1,0,-.2c.1,0,.1,-.1,.2,-.2l.6,1Zm6.6,-2.4h-4.7l-.7,1h1.3c-.1,.1,-.2,.3,-.2,.4c-.1,.1,-.2,.3,-.2,.4c0,.1,-.1,.2,-.1,.3c.1,.4,.2,.7,.4,.9c.1,.1,.3,.3,.4,.4c.2,.1,.3,.2,.6,.2c.2,.1,.4,.2,.7,.2c.3,0,.7,.1,1.1,0l.6,-1c-.3,.1,-.6,.1,-.8,.1c-.2,0,-.4,0,-.6,-.1c-.2,0,-.3,-.1,-.4,-.1c-.1,-.1,-.2,-.1,-.3,-.2c-.2,-.1,-.3,-.3,-.3,-.5c0,-.1,0,-.2,.1,-.3c0,-.1,.1,-.2,.1,-.3c.1,-.1,.2,-.3,.4,-.4h1.6l1,-1Zm4.8,0h-4.7l-.7,1h1.3c-.1,.1,-.2,.3,-.3,.4c0,.1,-.1,.3,-.1,.4c-.1,.1,-.1,.2,-.1,.3c0,.4,.2,.7,.4,.9c.1,.1,.2,.3,.4,.4c.1,.1,.3,.2,.5,.2c.2,.1,.5,.2,.8,.2c.3,0,.6,.1,1,0l.7,-1c-.3,.1,-.6,.1,-.8,.1c-.2,0,-.4,0,-.6,-.1c-.2,0,-.3,-.1,-.4,-.1c-.2,-.1,-.3,-.1,-.3,-.2c-.2,-.1,-.3,-.3,-.3,-.5c0,-.1,0,-.2,0,-.3c.1,-.1,.1,-.2,.2,-.3c.1,-.1,.2,-.3,.3,-.4h1.7l1,-1Zm3,2.8h-1.6c0,-.2,0,-.4,0,-.6c.1,-.2,.1,-.4,.1,-.5c0,-.2,0,-.4,0,-.6c0,-.1,0,-.3,0,-.5c0,-.2,0,-.5,0,-.7c-.1,-.3,-.1,-.6,-.1,-.9l-1.3,.6c.1,.2,.1,.5,.1,.7c0,.2,0,.4,0,.6c0,.2,0,.4,0,.5c0,.2,0,.4,0,.6c0,.2,0,.5,-.1,.7c0,.3,0,.6,0,.9c.1,0,.3,0,.5,0c.1,0,.3,0,.4,0c.1,0,.3,0,.4,0h.8c.1,0,.2,0,.4,0l.4,-.8Zm5,-.2c-.2,0,-.4,0,-.6,.1c-.2,0,-.3,0,-.5,0c-.1,0,-.2,0,-.4,0c-.2,0,-.4,0,-.6,0c-.2,0,-.4,0,-.6,-.1c-.2,0,-.3,-.1,-.5,-.2c-.2,-.1,-.3,-.1,-.4,-.2h1.8v-.8h-1.8q.1,0,.1,0q0,-.1,0,-.1q0,-.1,.1,-.1v-.1h2.4l.5,-1l-3.5,-.1c-.3,.3,-.5,.6,-.6,.8c-.1,.2,-.2,.5,-.3,.7c0,.2,-.1,.4,-.1,.6c0,.2,.1,.3,.2,.5c.1,.1,.2,.2,.3,.3c.2,.1,.4,.2,.6,.3c.2,.1,.4,.1,.7,.2c.2,.1,.4,.1,.7,.2c.2,0,.5,0,.7,0c.3,.1,.5,.1,.7,.1c.2,0,.4,0,.5,0l.6,-1.1Zm6.7,.6c-.2,-.3,-.4,-.5,-.6,-.8c-.2,-.2,-.4,-.4,-.5,-.6c-.2,-.2,-.3,-.4,-.4,-.6c-.1,-.2,-.2,-.4,-.4,-.6c-.1,-.1,-.2,-.3,-.3,-.5c-.1,-.2,-.2,-.4,-.4,-.6l-1.1,.3l.4,.6c-.1,.2,-.2,.4,-.3,.6c-.1,.1,-.2,.3,-.2,.4c-.1,.2,-.2,.3,-.3,.4c-.1,.2,-.2,.3,-.3,.5c-.1,.1,-.2,.2,-.3,.4c-.1,.1,-.3,.3,-.5,.4l.9,.6l.5,-.5h2.4l.4,.6l1,-.6Zm-2,-.8h-1.2c0,-.1,.1,-.1,.1,-.2c0,0,.1,-.1,.1,-.1c0,-.1,.1,-.1,.1,-.2c0,0,0,-.1,.1,-.1q0,-.1,.1,-.2c0,0,0,-.1,.1,-.2l.6,1Zm6.7,-1.9l-1,-.7c-.1,.1,-.2,.1,-.3,.2c-.1,.1,-.2,.2,-.2,.2c-.1,.1,-.2,.2,-.3,.3c-.1,0,-.1,.1,-.2,.2c-.1,0,-.1,.1,-.2,.1c-.1,.1,-.1,.2,-.2,.2c-.1,-.1,-.2,-.2,-.3,-.3c-.1,-.1,-.1,-.2,-.2,-.3c-.1,0,-.2,-.1,-.2,-.2c-.1,-.1,-.2,-.1,-.2,-.2q-.1,-.1,-.2,-.2q-.1,-.1,-.2,-.2c0,.1,-.1,.1,-.1,.2q-.1,.1,-.1,.1q-.1,.1,-.2,.2c0,0,0,.1,-.1,.1c0,.1,-.1,.1,-.1,.2c-.1,0,-.1,.1,-.2,.1c.1,.1,.2,.2,.3,.2c.1,.1,.1,.2,.2,.2q.1,.1,.2,.2c0,0,.1,.1,.2,.2c0,.1,.1,.1,.2,.2c.1,.1,.2,.2,.2,.3l-1.4,1.5c.1,.1,.2,.1,.2,.1q.1,.1,.2,.1c0,.1,.1,.1,.1,.1c.1,0,.1,.1,.2,.1c0,0,.1,0,.1,.1c.1,0,.2,.1,.3,.1c0,-.1,.1,-.2,.2,-.3q.1,-.1,.2,-.2c0,-.1,.1,-.2,.1,-.2c.1,-.1,.2,-.1,.2,-.2q.1,-.1,.2,-.2c.1,-.1,.1,-.2,.2,-.2l1.3,1.3q.1,-.1,.2,-.2c0,0,.1,-.1,.1,-.1l.1,-.1c.1,0,.1,-.1,.2,-.1c0,0,0,-.1,.1,-.1c0,-.1,.1,-.1,.1,-.2c-.1,-.1,-.2,-.2,-.3,-.3c-.1,-.1,-.2,-.1,-.3,-.2l-.2,-.2c0,0,-.1,-.1,-.1,-.1c-.2,-.2,-.3,-.3,-.5,-.5c.1,-.1,.2,-.2,.3,-.2c0,-.1,.1,-.2,.2,-.3c.1,0,.2,-.1,.3,-.2c0,0,.1,-.1,.2,-.2c.1,-.1,.2,-.1,.3,-.2c.1,-.1,.2,-.1,.4,-.2Zm4.8,2.1c-.2,0,-.4,0,-.6,.1c-.2,0,-.3,0,-.5,0c-.1,0,-.2,0,-.4,0c-.2,0,-.4,0,-.6,0c-.2,0,-.4,0,-.6,-.1c-.2,0,-.4,-.1,-.5,-.2c-.2,-.1,-.3,-.1,-.4,-.2h1.7v-.8h-1.7c0,0,.1,0,.1,0q0,-.1,0,-.1q0,-.1,.1,-.1v-.1h2.4l.4,-1l-3.4,-.1c-.3,.3,-.5,.6,-.6,.8c-.1,.2,-.2,.5,-.3,.7c0,.2,-.1,.4,-.1,.6c0,.2,.1,.3,.2,.5c0,.1,.2,.2,.3,.3c.2,.1,.4,.2,.6,.3c.2,.1,.4,.1,.7,.2c.2,.1,.4,.1,.7,.2c.2,0,.5,0,.7,0c.2,.1,.5,.1,.7,.1c.2,0,.4,0,.5,0l.6,-1.1Z" class="g9_10"/>
</g>
<image x="800" y="785" width="6" height="5" xlink:href="shade/10.webp"/>
<image x="804" y="785" width="7" height="6" xlink:href="shade/11.webp"/>
<image x="809" y="785" width="7" height="6" xlink:href="shade/12.webp"/>
<image x="813" y="785" width="7" height="6" xlink:href="shade/13.webp"/>
<image x="819" y="784" width="4" height="6" xlink:href="shade/14.webp"/>
<image x="822" y="785" width="6" height="5" xlink:href="shade/15.webp"/>
<image x="828" y="785" width="6" height="6" xlink:href="shade/16.webp"/>
<image x="834" y="785" width="7" height="6" xlink:href="shade/17.webp"/>
<image x="838" y="785" width="7" height="5" xlink:href="shade/18.webp"/>
<image preserveAspectRatio="none" x="798" y="790" width="69" height="110" xlink:href="img/74.webp"/>
<path d="M792.5,898.1h44.7V880.6H792.5v17.5Z" class="ga_10"/>
<path d="M56.3,463.9H853.1" class="gb_10"/>
</svg>