<?xml version="1.0" encoding="UTF-8" standalone="no"?>
<!DOCTYPE svg PUBLIC "-//W3C//DTD SVG 1.1//EN"
"http://www.w3.org/Graphics/SVG/1.1/DTD/svg11.dtd">
<svg viewBox="0 0 909 1286" version="1.1" xmlns="http://www.w3.org/2000/svg" xmlns:xlink="http://www.w3.org/1999/xlink">
<defs>
<style type="text/css"><![CDATA[
.g0{
fill: none;
stroke: #000000;
stroke-width: 0.916;
stroke-linecap: butt;
stroke-linejoin: miter;
stroke-miterlimit: 4;
}
]]></style>
</defs>
<image preserveAspectRatio="none" x="-21" y="-21" width="932" height="1329" xlink:href="../1/img/1.png"/>
<path d="M56.3,143.5H439.6M56.3,1046.7H439.6M469.9,208.8H853.1M469.9,664.1H853.1" class="g0"/>
<image preserveAspectRatio="none" x="732" y="736" width="21" height="22" xlink:href="img/2.png"/>
<image preserveAspectRatio="none" x="732" y="735" width="19" height="19" xlink:href="img/3.png"/>
<image preserveAspectRatio="none" x="762" y="895" width="23" height="21" xlink:href="img/4.png"/>
<image preserveAspectRatio="none" x="764" y="894" width="17" height="18" xlink:href="img/5.png"/>
<path d="M469.9,1033.1H853.1" class="g0"/>
<image preserveAspectRatio="none" x="470" y="743" width="56" height="55" xlink:href="img/6.png"/>
<image preserveAspectRatio="none" x="56" y="171" width="57" height="55" xlink:href="img/7.png"/>
<image preserveAspectRatio="none" x="56" y="259" width="57" height="55" xlink:href="img/8.png"/>
<image preserveAspectRatio="none" x="56" y="434" width="57" height="55" xlink:href="img/9.png"/>
<image preserveAspectRatio="none" x="56" y="353" width="57" height="55" xlink:href="img/10.png"/>
<image preserveAspectRatio="none" x="56" y="513" width="57" height="55" xlink:href="img/11.png"/>
<image preserveAspectRatio="none" x="56" y="636" width="57" height="55" xlink:href="img/12.png"/>
<image preserveAspectRatio="none" x="56" y="747" width="57" height="55" xlink:href="img/13.png"/>
<image preserveAspectRatio="none" x="56" y="831" width="57" height="55" xlink:href="img/14.png"/>
<image preserveAspectRatio="none" x="56" y="1062" width="57" height="55" xlink:href="img/15.png"/>
<image preserveAspectRatio="none" x="470" y="866" width="56" height="55" xlink:href="img/16.png"/>
<image preserveAspectRatio="none" x="56" y="1131" width="57" height="55" xlink:href="img/17.png"/>
<image preserveAspectRatio="none" x="470" y="244" width="56" height="55" xlink:href="img/18.png"/>
<image preserveAspectRatio="none" x="470" y="332" width="56" height="55" xlink:href="img/19.png"/>
<image preserveAspectRatio="none" x="470" y="453" width="56" height="55" xlink:href="img/20.png"/>
<image preserveAspectRatio="none" x="470" y="576" width="56" height="55" xlink:href="img/21.png"/>
<image preserveAspectRatio="none" x="102" y="43" width="706" height="53" xlink:href="img/22.png"/>
<image preserveAspectRatio="none" x="56" y="932" width="57" height="55" xlink:href="img/23.png"/>
<image preserveAspectRatio="none" x="470" y="121" width="56" height="55" xlink:href="img/24.png"/>
<image preserveAspectRatio="none" x="470" y="934" width="56" height="55" xlink:href="img/25.png"/>
<image preserveAspectRatio="none" x="470" y="1064" width="56" height="55" xlink:href="img/26.png"/>
<image preserveAspectRatio="none" x="470" y="1142" width="56" height="53" xlink:href="img/27.png"/>
</svg>