<?xml version="1.0" encoding="UTF-8" standalone="no"?>
<!DOCTYPE svg PUBLIC "-//W3C//DTD SVG 1.1//EN"
"http://www.w3.org/Graphics/SVG/1.1/DTD/svg11.dtd">
<svg viewBox="0 0 912 1290" version="1.1" xmlns="http://www.w3.org/2000/svg" xmlns:xlink="http://www.w3.org/1999/xlink">
<defs>
</defs>
<image preserveAspectRatio="none" x="-30" y="-31" width="973" height="1349" xlink:href="img/1.jpg"/>
<image preserveAspectRatio="none" x="-30" y="-31" width="973" height="1349" xlink:href="img/2.png"/>
<image preserveAspectRatio="none" x="24" y="39" width="417" height="87" xlink:href="img/3.jpg"/>
<image preserveAspectRatio="none" x="38" y="183" width="34" height="110" xlink:href="img/4.jpg"/>
<image preserveAspectRatio="none" x="23" y="295" width="82" height="77" xlink:href="img/5.jpg"/>
<image preserveAspectRatio="none" x="404" y="313" width="41" height="57" xlink:href="img/6.jpg"/>
<image preserveAspectRatio="none" x="60" y="391" width="346" height="34" xlink:href="img/7.jpg"/>
<image preserveAspectRatio="none" x="217" y="474" width="32" height="34" xlink:href="img/8.jpg"/>
<image preserveAspectRatio="none" x="217" y="551" width="32" height="34" xlink:href="img/9.jpg"/>
<image preserveAspectRatio="none" x="126" y="628" width="32" height="34" xlink:href="img/10.jpg"/>
<image preserveAspectRatio="none" x="308" y="628" width="31" height="34" xlink:href="img/11.jpg"/>
<image preserveAspectRatio="none" x="210" y="634" width="45" height="45" xlink:href="img/12.jpg"/>
<image preserveAspectRatio="none" x="404" y="680" width="30" height="506" xlink:href="img/13.jpg"/>
<image preserveAspectRatio="none" x="126" y="705" width="33" height="34" xlink:href="img/14.jpg"/>
<image preserveAspectRatio="none" x="217" y="781" width="32" height="34" xlink:href="img/15.jpg"/>
<image preserveAspectRatio="none" x="217" y="857" width="32" height="34" xlink:href="img/16.jpg"/>
<image preserveAspectRatio="none" x="217" y="909" width="32" height="33" xlink:href="img/17.jpg"/>
<image preserveAspectRatio="none" x="217" y="966" width="32" height="33" xlink:href="img/18.jpg"/>
<image preserveAspectRatio="none" x="217" y="1050" width="32" height="33" xlink:href="img/19.jpg"/>
<image preserveAspectRatio="none" x="217" y="1127" width="32" height="33" xlink:href="img/20.jpg"/>
<image preserveAspectRatio="none" x="379" y="1204" width="114" height="43" xlink:href="img/21.jpg"/>
</svg>