<?xml version="1.0" encoding="UTF-8" standalone="no"?>
<!DOCTYPE svg PUBLIC "-//W3C//DTD SVG 1.1//EN"
"http://www.w3.org/Graphics/SVG/1.1/DTD/svg11.dtd">
<svg viewBox="0 0 909 1286" version="1.1" xmlns="http://www.w3.org/2000/svg" xmlns:xlink="http://www.w3.org/1999/xlink">
<defs>
<clipPath id="c0_2"><path d="M0,375.4V.1H374.6V375.4Z"/></clipPath>
<clipPath id="c1_2"><path d="M373.6,375.4V.1H749.5V375.4Z"/></clipPath>
<clipPath id="c2_2"><path d="M748.6,858.1V.1H909v858Z"/></clipPath>
<clipPath id="c3_2"><path d="M0,750.7V374.5H374.6V750.7Z"/></clipPath>
<clipPath id="c4_2"><path d="M373.8,750.6v-376H749.4v376Z"/></clipPath>
<clipPath id="c5_2"><path d="M0,1126.3V749.8H374.6v376.5Z"/></clipPath>
<clipPath id="c6_2"><path d="M373.8,1126.2V749.9H749.4v376.3Z"/></clipPath>
<clipPath id="c7_2"><path d="M748.6,1286.2v-429H909v429Z"/></clipPath>
<clipPath id="c8_2"><path d="M0,1286.2V1125.4H749.5v160.8Z"/></clipPath>
</defs>
<image clip-path="url(#c0_2)" preserveAspectRatio="none" x="0" y="0" width="375" height="375" xlink:href="img/1.jpg"/>
<image clip-path="url(#c1_2)" preserveAspectRatio="none" x="374" y="0" width="375" height="375" xlink:href="img/2.jpg"/>
<image clip-path="url(#c2_2)" preserveAspectRatio="none" x="749" y="0" width="161" height="858" xlink:href="img/3.jpg"/>
<image clip-path="url(#c3_2)" preserveAspectRatio="none" x="0" y="374" width="375" height="377" xlink:href="img/4.jpg"/>
<image clip-path="url(#c4_2)" preserveAspectRatio="none" x="374" y="374" width="375" height="377" xlink:href="img/5.jpg"/>
<image clip-path="url(#c5_2)" preserveAspectRatio="none" x="0" y="750" width="375" height="376" xlink:href="img/6.jpg"/>
<image clip-path="url(#c6_2)" preserveAspectRatio="none" x="374" y="750" width="375" height="376" xlink:href="img/7.jpg"/>
<image clip-path="url(#c7_2)" preserveAspectRatio="none" x="749" y="857" width="161" height="430" xlink:href="img/8.jpg"/>
<image clip-path="url(#c8_2)" preserveAspectRatio="none" x="0" y="1125" width="749" height="162" xlink:href="img/9.jpg"/>
</svg>